<svg xmlns="http://www.w3.org/2000/svg" viewBox="0 0 300 300">
  <g id="Layer_1" data-name="Layer 1">
    <g>
      <path d="M42,6h0A31.92,31.92,0,0,1,73.92,37.92V294a0,0,0,0,1,0,0H10.08a0,0,0,0,1,0,0V37.92A31.92,31.92,0,0,1,42,6Z"/>
      <path d="M114,6h0a31.92,31.92,0,0,1,31.92,31.92V294a0,0,0,0,1,0,0H82.08a0,0,0,0,1,0,0V37.92A31.92,31.92,0,0,1,114,6Z"/>
      <path d="M186,6h0a31.92,31.92,0,0,1,31.92,31.92V294a0,0,0,0,1,0,0H154.08a0,0,0,0,1,0,0V37.92A31.92,31.92,0,0,1,186,6Z"/>
      <path d="M258,6h0a31.92,31.92,0,0,1,31.92,31.92V294a0,0,0,0,1,0,0H226.08a0,0,0,0,1,0,0V37.92A31.92,31.92,0,0,1,258,6Z"/>
    </g>
    <g>
      <g>
        <path d="M150,221.88a71.88,71.88,0,1,1,50.83-21A71.45,71.45,0,0,1,150,221.88Z" style="fill: #fff"/>
        <path d="M150,78.83A71.17,71.17,0,1,1,99.68,99.68,70.66,70.66,0,0,1,150,78.83m0-1.42a72.59,72.59,0,1,0,51.33,21.26A72.39,72.39,0,0,0,150,77.41Z"/>
      </g>
      <g>
        <line x1="104.63" y1="150" x2="195.37" y2="150" style="fill: none;stroke: #000;stroke-miterlimit: 10;stroke-width: 1.4173228740692139px"/>
        <line x1="150" y1="104.63" x2="150" y2="195.37" style="fill: none;stroke: #000;stroke-miterlimit: 10;stroke-width: 1.4173228740692139px"/>
      </g>
    </g>
  </g>
</svg>
