<svg version="1.1" id="Layer_1" xmlns="http://www.w3.org/2000/svg" xmlns:xlink="http://www.w3.org/1999/xlink" x="0px" y="0px"
	 viewBox="0 0 8192 1920" style="enable-background:new 0 0 8192 1920;" xml:space="preserve">
	<style type="text/css">
			@keyframes trails {
			  0% {
			        stroke-dasharray: 120 12 40;
			    }

			  50% {
			        stroke-dasharray: 100 220 12;
			    }
			  100% {
			        stroke-dasharray: 100 12 40;
			  }
			}

			@keyframes rotatingcircles {
			    0% {
			        transform: rotate(0deg);
			    }
			    50% {
			        opacity: 0;
			    }
			    100% {
			        transform: rotate(360deg);

			    }
			}

			.starpaths {
			  transition-duration: 1s;
			}

			.starpaths #solid-circles {
			  transform-origin: center;
			  animation: rotatingcircles 18s infinite;
			}

			.starpaths #empty-circles {
			  transform-origin: center;
			  animation: rotatingcircles 12s infinite;
			}

			.starpaths #star1 {
			  stroke-dasharray: 320 123 20;
			  animation: trails 27s infinite;
			  animation-delay: 400ms;
			}

			.starpaths #star2 {
			    stroke-dasharray: 120 40;
			    animation: trails 20s infinite;
			    animation-delay: 900ms;

			    }

			.starpaths #star3 {
			    stroke-dasharray: 200 12 120;
			    animation: trails 12s infinite;
			    animation-delay: 1100ms;
			}

			.starpaths #star4 {
			    stroke-dasharray: 20 102 220;
			    animation: trails 15s infinite;
			    animation-delay: 400ms;
			 }

			.starpaths #star5 {
			    stroke-dasharray: 200 12 120;
			    animation: trails 16s infinite ;
			    animation-delay: 800ms;
			 }

			.starpaths #star6 {
			    stroke-dasharray: 100 12 120;
			    animation: trails 15s infinite;
			 }

			.starpaths #star7 {
			    stroke-dasharray: 200 12 120;
			    animation: trails 20s infinite;
			    animation-delay: 900ms;

			}
			.starpaths #star8 {
			    stroke-dasharray: 200 12 120;
			    animation: trails 12s infinite;
			    animation-delay: 1900ms;

			}
			.starpaths #star9 {
			    stroke-dasharray: 30 12 120;
			    animation: trails 8s infinite;
			    animation-delay: 900ms;

			}
			.svg-img {
			  vector-effect: non-scaling-stroke;
			  height: 100%;
			}

			.dark-background {
			  fill: #004B55;
			}

			.yellow-stroke {
			  stroke: #F1E297;
			  stroke-width: 2px;
			  stroke-miterlimit: 10;
			  fill: none;
			}

			.dark-stroke {
			  stroke: #004B55;
			  stroke-width: 2px;
			  stroke-miterlimit: 10;
			  fill: none;
			}

			.dark-fill {
			  fill: #004B55;
			}

			.yellow-fill {
			  fill: #F1E297;
			}

	</style>
        <g id="Layer_1">
          <g class="dark-background">
            <rect x="0" y="0" width="8192" height="1910"/>
          </g>

          <g class="starpath-image">

            <g class="starpaths yellow-stroke">
              <path id="star1" d="M168.56,1033.75C198.68,744.54,334.45,477.55,550.86,282c233.83-211.34,536-319,850.77-303.09s604.56,153.41,815.92,387.22,319,535.94,303.12,850.71c-1.07,21.33-2.74,42.89-4.94,64.07-30.13,289.21-165.9,556.2-382.31,751.79-233.83,211.34-536,319-850.77,303.09S678.1,2182.34,466.74,1948.53s-319-535.94-303.13-850.72C164.69,1076.48,166.35,1054.93,168.56,1033.75Z"/>
              <path id="star2" d="M1796,2124.52c-258.37,121.24-548.49,134.61-816.91,37.66s-483-292.63-604.24-551-134.58-548.45-37.61-816.87,292.69-483,551.06-604.24,548.49-134.61,816.91-37.66,483,292.63,604.24,551,134.59,548.46,37.61,816.87S2054.37,2003.28,1796,2124.52Z" />
              <path id="star3" d="M1313.82,2091.53c-249.54-7.56-481.2-111.85-652.3-293.65S400.35,1378.53,407.91,1129s111.86-481.2,293.66-652.3,419.35-261.17,668.89-253.6,481.21,111.86,652.31,293.66,261.16,419.35,253.6,668.89-111.86,481.2-293.66,652.3S1563.36,2099.1,1313.82,2091.53Z"/>
              <circle id="star4" cx="1342.14" cy="1157.31" r="803.05" transform="translate(-425.24 1288) rotate(-45)" />
              <circle id="star5" cx="1342.14" cy="1157.31" r="713.82" transform="translate(-425.24 1288) rotate(-45)"/>
              <circle id="star6" cx="1342.14" cy="1157.31" r="624.59"/>
              <circle id="star7" cx="1342.14" cy="1157.31" r="490.75" />
              <circle id="star8" cx="1342.14" cy="1157.31" r="401.52" transform="translate(-425.24 1288) rotate(-45)" />
              <circle id="star9" cx="1342.14" cy="1157.31" r="267.68" transform="translate(-425.24 1288) rotate(-45)" />
            </g>

            <g class="dots yellow-stroke dark-fill">
              <path d="M1953.35,1294.55a25.71,25.71,0,1,1,25.7-25.71A25.74,25.74,0,0,1,1953.35,1294.55Z"/>
              <circle cx="1890.54" cy="705.53" r="99.32" transform="translate(1122.49 2571.55) rotate(-88.09)"/>
              <path d="M1890.54,607.28a98.26,98.26,0,1,1-98.25,98.25,98.36,98.36,0,0,1,98.25-98.25m0-2.13a100.38,100.38,0,1,0,100.39,100.38,100.38,100.38,0,0,0-100.39-100.38Z"/>
            </g>

            <g class="dots yellow-fill dark-stroke">
              <circle cx="2397.25" cy="1003.39" r="26.77"/>
              <circle cx="1241.76" cy="1636.9" r="13.38"/>
              <path d="M666.47,216.61a25.71,25.71,0,1,1,25.7-25.71A25.73,25.73,0,0,1,666.47,216.61Z"/>
              <path d="M666.47,166.26a24.64,24.64,0,1,1-24.65,24.64,24.67,24.67,0,0,1,24.65-24.64m0-2.13a26.77,26.77,0,1,0,26.77,26.77,26.77,26.77,0,0,0-26.77-26.77Z"/>
              <circle cx="159.88" cy="1175.15" r="44.61"/>
              <circle cx="1114.61" cy="108.89" r="44.61"/>
              <path d="M374.84,1654.75a43.55,43.55,0,1,1,43.55-43.55A43.6,43.6,0,0,1,374.84,1654.75Z"/>
            </g>

            <g id="cursor" class="yellow-fill dark-stroke">
              <polygon points="635 1090.07 635 1226.03 680.37 1179.03 744.36 1180.24 635 1090.07"/>
            </g>

            <g id="question-cursor" class="yellow-fill dark-stroke">
              <polygon points="2157.06 244.53 2262.33 331.33 2200.92 330.16 2157.06 375.61 2157.06 244.53"/>
              <path d="M2224.74,239.39a5.68,5.68,0,0,1-4.1-1.49,5.07,5.07,0,0,1-1.56-3.83V223.48a5.48,5.48,0,0,1,1.51-4,5.16,5.16,0,0,1,3.85-1.55h14.7a13.86,13.86,0,0,0,5.83-1.08,7.78,7.78,0,0,0,3.55-3.16,10,10,0,0,0,1.21-5.1,8.08,8.08,0,0,0-5.17-7.87,14.72,14.72,0,0,0-5.77-1,12.46,12.46,0,0,0-5.73,1.16,8.81,8.81,0,0,0-3.52,3.2,17.48,17.48,0,0,0-2,5,8.92,8.92,0,0,1-1.12,2,4.78,4.78,0,0,1-1.75,1.32,7,7,0,0,1-3,.54,5.65,5.65,0,0,1-3.94-1.41,4.94,4.94,0,0,1-1.55-3.86,17.41,17.41,0,0,1,2.92-10.1,18.43,18.43,0,0,1,8.16-6.52,30.37,30.37,0,0,1,12.17-2.27,27.34,27.34,0,0,1,12,2.44,17.45,17.45,0,0,1,7.69,7,21,21,0,0,1,2.66,10.79,19.64,19.64,0,0,1-2.57,10.22,17,17,0,0,1-8,6.78q-5.45,2.44-13.79,2.45h-8.21l1.17-3.68v9.34a5.05,5.05,0,0,1-1.58,3.83A5.78,5.78,0,0,1,2224.74,239.39Zm.05,18.32a7.28,7.28,0,0,1-5.23-1.85,6.51,6.51,0,0,1-1.95-4.93,6.43,6.43,0,0,1,1.95-4.91,7.32,7.32,0,0,1,5.23-1.84,7.12,7.12,0,0,1,5.12,1.84,6.48,6.48,0,0,1,1.92,4.91,6.56,6.56,0,0,1-1.92,4.93A7.09,7.09,0,0,1,2224.79,257.71Z"/>
              <path d="M2158.13,246.78l101.17,83.43-57.89-1.1-.93,0-.64.67L2158.13,373V246.78m-2.13-4.51v136l45.37-47,64,1.21L2156,242.27Z"/>
            </g>

            <g id="crosshair" class="yellow-stroke">
              <line x1="1724.43" y1="334.51" x2="1862.73" y2="334.51"/>s
              <line x1="1793.58" y1="265.36" x2="1793.58" y2="403.66"/>
            </g>


            <g id="magnifying-glass">
              <path class="yellow-stroke dark-fill" d="M272.58,488.61a88.16,88.16,0,1,1,62.34-25.82A87.59,87.59,0,0,1,272.58,488.61Z"/>
              <g class="yellow-stroke">
                <line x1="216.82" y1="400.45" x2="328.35" y2="400.45" />
                <line x1="272.58" y1="344.68" x2="272.58" y2="456.21" />
              </g>
              <rect class="yellow-fill" x="356.33" y="445.73" width="22.31" height="92.94" transform="translate(-240.4 404.01) rotate(-45)" />
            </g>

            <g id="small-glass">
              <path class="yellow-stroke dark-fill" d="M2435.41,457.67a88.17,88.17,0,1,1,62.35-25.82A87.59,87.59,0,0,1,2435.41,457.67Z"/>
              <line class="yellow-stroke" x1="2379.65" y1="369.5" x2="2491.18" y2="369.5" />
              <rect class="yellow-fill" x="2519.16" y="414.78" width="22.31" height="92.94" transform="translate(414.96 1924.3) rotate(-45)"/>
            </g>
          </g>

          <g class="eyes">
              <g class="left-eye">
                <g class="dark-stroke yellow-fill">
                  <path d="M1521.11,1157.42a319.43,319.43,0,0,1-359.4.28"/>
                  <path d="M1161.71,1157.79a319.46,319.46,0,0,1,359.4-.29"/>
                  <circle cx="1341.41" cy="1156.59" r="48.43" transform="translate(-340.5 601.38) rotate(-22.5)"/>
                  <g class="dark-fill">
                    <circle cx="1341.41" cy="1156.59" r="25.54"/>
                  </g>
                </g>
                <g class="dark-stroke">
                  <line x1="1340.5" y1="906.5" x2="1340.5" y2="1406.5"/>
                  <line x1="1275.8" y1="915.02" x2="1405.2" y2="1397.98" />
                  <line x1="1215.5" y1="939.99" x2="1465.5" y2="1373.01" />
                  <line x1="1163.72" y1="979.72" x2="1517.28" y2="1333.28" />
                  <line x1="1123.99" y1="1031.5" x2="1557.01" y2="1281.5" />
                  <line x1="1099.02" y1="1091.8" x2="1581.98" y2="1221.2" />
                  <line x1="1090.5" y1="1156.5" x2="1590.5" y2="1156.5" />
                  <line x1="1099.02" y1="1221.2" x2="1581.98" y2="1091.8" />
                  <line x1="1123.99" y1="1281.5" x2="1557.01" y2="1031.5" />
                  <line x1="1163.72" y1="1333.28" x2="1517.28" y2="979.72" />
                  <line x1="1215.5" y1="1373.01" x2="1465.5" y2="939.99" />
                  <line x1="1275.8" y1="1397.98" x2="1405.2" y2="915.02" />
                </g>
              </g>

              <g class="right-eye">
                <g class="dark-stroke yellow-fill">
                  <path d="M2173.56,1157.42a319.42,319.42,0,0,1-359.39.28" />
                  <path d="M1814.17,1157.79a319.44,319.44,0,0,1,359.39-.29" />
                  <circle cx="1993.87" cy="1156.59" r="48.43" transform="translate(-290.83 851.06) rotate(-22.5)"/>
                  <g class="dark-fill">
                    <circle cx="1993.87" cy="1156.59" r="25.54"/>
                  </g>
                </g>
                <g class="dark-stroke">
                  <line x1="1995.72" y1="1408.6" x2="1995.72" y2="908.6" />
                  <line x1="2060.43" y1="1400.08" x2="1931.02" y2="917.11" />
                  <line x1="2120.72" y1="1375.1" x2="1870.72" y2="942.09" />
                  <line x1="2172.5" y1="1335.37" x2="1818.94" y2="981.82" />
                  <line x1="2212.23" y1="1283.6" x2="1779.22" y2="1033.6" />
                  <line x1="2237.2" y1="1223.3" x2="1754.24" y2="1093.89" />
                  <line x1="2245.72" y1="1158.6" x2="1745.72" y2="1158.6" />
                  <line x1="2237.2" y1="1093.89" x2="1754.24" y2="1223.3" />
                  <line x1="2212.23" y1="1033.6" x2="1779.22" y2="1283.6" />
                  <line x1="2172.5" y1="981.82" x2="1818.94" y2="1335.37" />
                  <line x1="2120.72" y1="942.09" x2="1870.72" y2="1375.1" />
                  <line x1="2060.43" y1="917.11" x2="1931.02" y2="1400.08" />
                </g>
              </g>
          </g>


          <g class="person">
            <g class="yellow-fill">
              <path d="M5115,1918.58a238.58,238.58,0,0,1,0-477.16H7035a238.58,238.58,0,0,1,0,477.16Z"/>
              <path d="M6295.92,1440h-537c0-265.1-214.9-480-480-480h-1440c-265.1,0-480,214.9-480,480h-741c-132.55,0-240,107.45-240,240H1992.6a239.91,239.91,0,0,0-207.88,120h-268.6a120,120,0,0,0-120,120h5379.8C6775.92,1654.9,6561,1440,6295.92,1440Z"/>
            </g>
            <g class="dark-stroke">
              <line x1="3584.7" y1="1183.36" x2="3556.41" y2="1155.07"/>
              <line x1="3528.13" y1="1126.79" x2="3499.84" y2="1098.5"/>
              <line x1="3641.27" y1="1239.93" x2="3612.98" y2="1211.64"/>
              <line x1="3612.98" y1="1211.64" x2="3584.7" y2="1183.36"/>
              <line x1="3556.41" y1="1155.07" x2="3528.13" y2="1126.79"/>
              <line x1="3669.55" y1="1268.21" x2="3641.27" y2="1239.93"/>
              <line x1="6655.23" y1="1916" x2="6695.23" y2="1916"/>
              <line x1="6775.23" y1="1916" x2="6735.23" y2="1916"/>
              <line x1="6575.23" y1="1916" x2="6615.23" y2="1916"/>
              <line x1="6615.23" y1="1916" x2="6655.23" y2="1916"/>
              <line x1="6695.23" y1="1916" x2="6735.23" y2="1916"/>
              <line x1="6535.23" y1="1916" x2="6575.23" y2="1916"/>
              <path d="M2378,1677.17c.13-132.3,107.53-239.5,240-239.5H3361.5"/>
              <path d="M3359.5,1477.62H2618a199.64,199.64,0,0,0-200,199.55"/>
              <path d="M3359.5,1517.58H2618a159.67,159.67,0,0,0-160,159.59"/>
              <path d="M3359.5,1557.54H2618a119.7,119.7,0,0,0-120,119.63"/>
              <line x1="3695.54" y1="1915.75" x2="3695.79" y2="1916"/>
              <path d="M3572.58,1792.79l-44.1-44.11a443.67,443.67,0,0,1-47.48-56,435,435,0,0,1-41.14-71q-4.23-9.18-8-18.57a439.55,439.55,0,0,1,96.31-476.36" />
              <line x1="3695.79" y1="1916" x2="3696.53" y2="1916.74" />
              <path d="M3556.41,1155.07a398.55,398.55,0,0,0-116.81,282.49q0,7.21.26,14.4a398.21,398.21,0,0,0,29,136.16q5.07,12.51,11,24.57a398.19,398.19,0,0,0,76.9,107.71l75.48,75.47"/>
              <line x1="3808.93" y1="1916" x2="3808.68" y2="1915.75"/>
              <path d="M3688.8,1795.87l-103.75-103.75a358.21,358.21,0,0,1-105.19-241.58c-.15-4.32-.26-8.64-.26-13a358.51,358.51,0,0,1,105.1-254.2"/>
              <line x1="3865.25" y1="1915.75" x2="3865.5" y2="1916"/>
              <path d="M3613,1211.64a319.59,319.59,0,0,0,.35,452.19l132,132"/>
              <path d="M3641.27,1239.93a279.6,279.6,0,0,0,.34,395.62l160.33,160.32"/>
              <path d="M3669.55,1268.21a239.58,239.58,0,0,0,.35,339l188.61,188.61"/>
              <line x1="3695.79" y1="1916" x2="3808.93" y2="1916"/>
              <polyline points="4559.6 1915.75 4559.6 1916 3865.5 1916"/>
              <line x1="3865.5" y1="1916" x2="3808.93" y2="1916"/>
              <path d="M6537,1915.75H3599.86c-132.47,0-239.87-107.21-240-239.5V1452.9c-4.06-127.75,42.6-256.81,140-354.4"/>
              <line x1="4313" y1="1875.79" x2="6532" y2="1875.79"/>
              <path d="M3399.5,1437.92l.29,192.2.07,46.13A199.71,199.71,0,0,0,3599,1875.78h591"/>
              <path d="M4199.5,1835.83H3599.86a159.86,159.86,0,0,1-48.15-7.34q-7.15-2.27-14.11-5.19a160.72,160.72,0,0,1-85.2-85.11,157.49,157.49,0,0,1-9.31-30,160.91,160.91,0,0,1-3.23-32v-54.53"/>
              <line x1="6522" y1="1835.83" x2="4337" y2="1835.83"/>
              <line x1="3479.86" y1="1450.54" x2="3479.86" y2="1437.56"/>
              <line x1="4425.5" y1="1795.87" x2="6504" y2="1795.87"/>
              <path d="M3481,1692.68a118,118,0,0,0,8.24,29.94,120,120,0,0,0,83.34,70.17,120.8,120.8,0,0,0,27.28,3.08H4216.5"/>
              <line x1="1814.15" y1="1918.58" x2="1794.15" y2="1918.58"/>
              <line x1="1754.15" y1="1918.58" x2="1774.15" y2="1918.58"/>
              <line x1="1854.15" y1="1918.58" x2="1834.15" y2="1918.58"/>
              <path d="M3360,1679.08l-1366.1-.25c-132.55,0-240,107.34-240,239.75h.25"/>
              <line x1="1834.15" y1="1918.58" x2="1814.15" y2="1918.58"/>
              <line x1="1794.15" y1="1918.58" x2="1774.15" y2="1918.58"/>
              <line x1="1874.15" y1="1918.58" x2="1854.15" y2="1918.58"/>
              <path d="M3361.5,1699.06H1994.15a219.62,219.62,0,0,0-220,219.52"/>
              <path d="M3362.5,1719H1994.15a199.64,199.64,0,0,0-200,199.54"/>
              <path d="M3368.5,1739H1994.15a179.66,179.66,0,0,0-180,179.56"/>
              <path d="M3374.74,1759H1994.15a159.67,159.67,0,0,0-160,159.58"/>
              <path d="M3383.5,1779H1995.15a140.24,140.24,0,0,0-130,85.44,138.78,138.78,0,0,0-11,54.16"/>
              <path d="M3393.73,1799H1994.15a119.7,119.7,0,0,0-120,119.62"/>
              <path d="M4425.48,1677.67c-132.55,0-240,107.34-240,239.75h.25"/>
              <path d="M6428.5,1716.21H4425.73a199.63,199.63,0,0,0-200,199.54"/>
              <path d="M6474.5,1756.16H4425.73a159.68,159.68,0,0,0-160,159.59"/>
              <path d="M4340.88,1831.23a119,119,0,0,0-35.15,84.52"/>
              <path d="M4425.73,1796.12a119.41,119.41,0,0,0-84.85,35.11"/>
              <line x1="1427.12" y1="1917.29" x2="1417.26" y2="1917.29"/>
              <line x1="1397.54" y1="1917.29" x2="1407.4" y2="1917.29"/>
              <line x1="1446.83" y1="1917.29" x2="1436.97" y2="1917.29"/>
              <line x1="1436.97" y1="1917.29" x2="1427.12" y2="1917.29"/>
              <line x1="1417.26" y1="1917.29" x2="1407.4" y2="1917.29"/>
              <line x1="1456.69" y1="1917.29" x2="1446.83" y2="1917.29"/>
              <path d="M1397.54,1917.29A118.37,118.37,0,0,1,1515.83,1799H1786.5"/>
              <path d="M1780.5,1808.83H1515.83a108.46,108.46,0,0,0-108.43,108.46"/>
              <path d="M1775.5,1818.7H1515.83a98.59,98.59,0,0,0-98.57,98.59"/>
              <path d="M1771.5,1828.57H1515.83a88.69,88.69,0,0,0-88.71,88.72"/>
              <path d="M1767.5,1838.44H1515.83a78.85,78.85,0,0,0-78.86,78.85"/>
              <path d="M1764.5,1848.31H1515.83a69,69,0,0,0-69,69"/>
              <path d="M1761.5,1858.18H1515.83a58.84,58.84,0,0,0-41.82,17.35,58.9,58.9,0,0,0-17.32,41.76"/>
              <path d="M3939.5,1438.5c10-49,56.92-92.4,106-112"/>
              <path d="M3693.5,1571.5c47.37-28.71,95.24-61.13,148-78"/>
              <path d="M3759.5,1618.5c11.36,6.37,45.31,1.54,57.29-3.58s15.82-7.94,25.71-16.42c10.42-8.93,27.56-24.28,31.95-37.28"/>
              <path d="M3989.5,1481.5c40.36-10.84,81.54-52.92,103.25-88.62"/>
              <path d="M3871.5,1501.5c30.7,13.79,74.08,39.09,87.64,69.89,5.69,12.93,9.37,26.67,15,39.64,4.59,10.6,10.45,20.59,16.29,30.56,4.74,8.09,10.1,16.73,18.84,20.11,9.31,3.61,20.27,0,27.55-6.85s28.71-22.83,31.69-32.35"/>
              <path d="M3987.5,1745.5c21.3-4.79,71.07-35.78,89.68-45.77,15.73-8.44,28.57-20.14,41.22-31.7,14.46-13.22,28.92-14.31,43.38-27.53"/>
              <path d="M4073.5,1753.5c31-4,52-17,67-43"/>
              <path d="M4017.44,1468.23l5.2,18.3"/>
              <path d="M4032.79,1462.32l10.55,22"/>
              <path d="M4049.47,1449.39a91.44,91.44,0,0,0,13.65,19.83"/>
              <path d="M4065.5,1431.5c5.72,9.06,10.28,14.94,16,24"/>
              <path d="M4076.5,1417.5c5.12,6.21,18.88,12.79,24,19"/>
              <path d="M4090,1398.93l26.48,14.19"/>
              <path d="M3779.5,1621.5c-1.89,5.67-.11,15.33-2,21"/>
              <path d="M3801,1619.9l8.48,19.87"/>
              <path d="M3823.54,1611.46a66.92,66.92,0,0,1,11.44,19.81"/>
              <path d="M3842.5,1598.5c6,5.37,11.59,13.23,16,20"/>
              <path d="M3859.5,1583.5c3.63,3.5,12.44,11.66,15,16"/>
              <path d="M3873.19,1567.52a54.62,54.62,0,0,1,14.27,9.81"/>
              <path d="M3669.5,1267.92c13.16,23.53,13,57.5,6.42,83.66s-17.73,51.06-23.12,77.48c-9.88,48.51.61,99.67,22.37,144.15s148.15,187.87,183.33,222.71"/>
              <path d="M3669.5,1267.92c37.23,11.67,74.77,6.29,109.4-13.16,13.93-7.82,27.23-18.11,42.55-21,34.65-6.63,64.85,25.34,98.14,38.13,24.92,9.58,52.7,8.5,76.35,21.57,20.7,11.44,40.75,33.85,62.83,26.46"/>
              <path d="M6775.23,1916c-.27-264.87-215.06-479.5-480-479.5H4850.63a806.4,806.4,0,0,1-570.34-236.32l-102-102c-187.45-187.46-491.37-187.46-678.82,0h0l.35.35"/>
              <path d="M3528.13,1126.79s-.26-.34-.24-.36h0a415,415,0,0,1,76.63-60.45,411.38,411.38,0,0,1,274-56.43c56,1.57,135.42,36.5,186.2,62.84,22.83,11.85,43.36,27.45,62,44.5,18.92,17.28,37.65,36.1,56,56.23,3.59,6.88,72.56,81.83,78.83,86.38,30.88,22.42,77.53,104.07,114,112,23,5,45.72-2.92,74,13,135,76,272,92.07,410.1,92.07l1435.64-.07a439.59,439.59,0,0,1,440,439.5"/>
              <path d="M3556.41,1155.07s-.16-.31-.12-.35h0a362.85,362.85,0,0,1,77-58.77A360.32,360.32,0,0,1,3812,1048.73a347.84,347.84,0,0,1,92.47,12.62c44.78,1.26,136.55,55.76,176.58,78,22.32,12.37,40.64,30.23,56.31,48.94,16,19.09,32.59,39.18,49.62,59.86,7.19,13.76,95.73,126.57,108.48,135.4,30.12,20.87,44.12,55.71,76,72,8.36,4.27,98.54-.06,107,4,123,59,280.49,57.14,390.06,57.14l1426.68-.14a399.58,399.58,0,0,1,400,399.5"/>
              <path d="M3584.7,1183.36c.05-.06-.07-.3,0-.36h0a322.08,322.08,0,0,1,77.41-57.08,318.81,318.81,0,0,1,179.26-35.41,302.15,302.15,0,0,1,89.17,22.64c33.59.95,137.42,75.58,167,93.06,21.86,12.93,37.92,33,50.59,53.38,13,20.92,27.54,42.26,43.3,63.48,10.78,20.65,65.71,104.62,85.12,117.43,30.25,20,20.71,52.2,54,65,8,3.06,98.82,1.58,107,4,115,34,358.07,47.21,440,47.21l1417.71-.21a359.58,359.58,0,0,1,360,359.5"/>
              <path d="M3613,1211.64c.08-.08,0-.27.11-.35h0a288.61,288.61,0,0,1,77.79-55.41,284.92,284.92,0,0,1,88.7-26.5,281.65,281.65,0,0,1,91.09,2.9,270.91,270.91,0,0,1,72.66,25.33,192,192,0,0,0,19.53,8.92c32.42,12.51,133.08,95.27,151,106.59,21.45,13.52,35.16,35.84,44.87,57.82a446.31,446.31,0,0,0,33.9,62.43c1.72,2.66,54.21,64.41,55.83,67.13,16.92,28.47,5.77,91.17,31,107,30,18.83,44.83-40.34,79-31,8.26,2.26,68.07,15.77,76,19,73.49,30,397.83,41.28,452,41.28l1408.75-.28a319.57,319.57,0,0,1,320,319.5"/>
              <path d="M3641.27,1239.92c.09-.09.13-.25.23-.34h0a260.59,260.59,0,0,1,167.75-75.76,257,257,0,0,1,90.75,10.23,249.54,249.54,0,0,1,82.58,42.71c11.2.31,138.22,116.89,147.73,123.26,21.09,14.15,32.38,38.67,39.14,62.27a303.68,303.68,0,0,0,30.64,70.74c18,34.41-15.91,203.65,17.41,223.47,31.77,18.89,112-85,150-85,8,0,500.64,25.36,528,25.36l1399.78-.36a279.58,279.58,0,0,1,280,279.5"/>
              <path d="M4425.5,1677.5l1869.74-1a239.59,239.59,0,0,1,240,239.5"/>
              <path d="M3669.55,1268.21a239.58,239.58,0,0,1,339,.35l138.11,138.37a119.75,119.75,0,0,1,33.43,66.71c17.53,115.22-83.87,321.91,36.36,321.86"/>
            </g>
          </g>

          <g id="worm-mushroom" class="yellow-fill dark-stroke">
            <path d="M2890.73,1588.38a14.12,14.12,0,0,1,1.65-16.74c28.4-31.27,53.26-43.84,76-38.44,17.6,4.18,26.62,17.77,33.86,28.68,6.74,10.16,11.26,16.48,19.09,18.17,8.26,1.78,19.76-1.17,28.61-7.34,4.14-2.9,11.28-9,12.5-17.76.85-6-1.46-11.91-4.24-16.53a47.83,47.83,0,0,0-7-9,14.29,14.29,0,0,1-2.18-2.77,14.09,14.09,0,0,1,22-17.28,75.16,75.16,0,0,1,11.27,14.4c5.41,9,10.05,21.19,8.11,35.07-2,14.3-10.64,27.42-24.29,37-15.35,10.71-34.77,15.22-50.7,11.77-19.42-4.19-28.95-18.57-36.62-30.13-6.26-9.44-10.43-15.31-16.89-16.84-11.35-2.69-28.61,8-48.62,30a14.11,14.11,0,0,1-22.51-2.21Z"/>
            <path d="M2799.91,1472.08c-3.19,1.71,15.63,49.38,28.33,45.32,2.7-.86,6-4.35,6.41-7.1.6-3.9-4.63-6-6.17-6.67C2811.73,1496.36,2802.23,1470.82,2799.91,1472.08Z"/>
            <path d="M2753.38,1463.85c-21.63-19.4-4.66-60.61,18-62.4,19.63-1.55,42,26.67,50,43.55,3.66,7.66,7,14.94,2.07,21.18-8.35,10.59-36.19,12.79-55.43,5.9C2765.44,1471.15,2758.79,1468.71,2753.38,1463.85Z"/>
            <path d="M2928.5,1225.5c-3.06-1.94-74.57,239.39-64.84,248.48,2.08,1.94,6.73,3.11,9.33,2.13,3.7-1.38,3-7,2.8-8.64C2873.5,1440.5,2930.72,1226.91,2928.5,1225.5Z"/>
            <path d="M2922.45,1196.38c28.87-3.32,48.46,36.71,34.79,54.83-11.85,15.72-47.78,13.72-65.77,8.57-8.16-2.33-15.82-4.67-17.23-12.49-2.39-13.27,14.43-35.56,32.34-45.39C2909,1200.57,2915.23,1197.21,2922.45,1196.38Z"/>
            <path d="M2822.6,1191.82c-9.65.68-21.54,312.36,13.59,324.85,7.49,2.67,19.48-7.43,23.77-21.3,6.08-19.69-3.9-45.35-6.79-53.25C2821.87,1356.68,2829.63,1191.32,2822.6,1191.82Z"/>
            <path d="M2927.35,1183.74c-29.6,65.43-153.47,77.82-180.1,34.33-23.1-37.73,28.8-114.53,65-149.83,16.41-16,32.17-30.93,53.2-28.09,35.7,4.83,68.44,58.36,69.15,104.84C2934.66,1151.24,2934.75,1167.38,2927.35,1183.74Z"/>
            <path d="M3320.93,1740.26a10,10,0,0,1-1.49,19.55c-120,15.12-218,14.77-291.21-1-58.8-12.69-103.3-35.79-132.25-68.66-1.88-2.13-3.9-4.53-6-7.08-14.86-17.7-37.32-44.44-75.53-56.15-30.53-9.38-54.61-3.87-82.47,2.48-22.39,5.11-47.77,10.9-79.54,9.25-46-2.38-73.08-22.78-94.82-39.17-18.78-14.15-29.22-21.37-43.06-17.94-32.47,8.06-56.84,64.37-70.48,162.84a10,10,0,0,1-19.81-2.74c15.28-110.3,43.24-169,85.47-179.51,23.73-5.89,41.31,7.35,59.91,21.38,20.59,15.52,43.92,33.11,83.83,35.17,29,1.5,51.9-3.72,74-8.78,28.63-6.53,55.72-12.71,90.1-2.9.89.26,1.78.52,2.67.8,43.88,13.44,69.62,44.09,85,62.41,2.06,2.45,4,4.77,5.73,6.72,60.1,68.21,196.69,89.42,406,63.06A10.21,10.21,0,0,1,3320.93,1740.26Z"/>
          </g>



          <g id="cursor-sparkles">

            <g class="yellow-fill">
              <path d="M7784.92,924.88a49,49,0,1,1,49-49A49.07,49.07,0,0,1,7784.92,924.88Z"/>
              <circle cx="7907.94" cy="160.03" r="26.77"/>
              <circle cx="8083.94" cy="707.03" r="26.77"/>
              <circle cx="8095.04" cy="1563.13" r="55.87"/>
              <circle cx="6279.04" cy="904.13" r="18.87"/>
              <circle cx="5815.04" cy="923.13" r="18.87"/>
              <circle cx="7956.04" cy="428.13" r="17.81"/>
              <circle cx="6402.04" cy="1141.13" r="18.87"/>
              <path d="M7784.92,827.91a48,48,0,1,1-47.95,48,48,48,0,0,1,47.95-48m0-2.12A50.08,50.08,0,1,0,7835,875.87a50.08,50.08,0,0,0-50.08-50.08Z"/>
              <polygon points="7885.06 1197.16 7990.33 1283.97 7928.92 1282.8 7885.06 1328.24 7885.06 1197.16"/>
            </g>

            <g class="dark-fill yellow-stroke">
              <path d="M5881.92,862.88a65,65,0,1,1,65-65A65.09,65.09,0,0,1,5881.92,862.88Z"/>
              <path d="M6692.82,1406.88a34.91,34.91,0,1,1,34.91-34.91A34.95,34.95,0,0,1,6692.82,1406.88Z"/>
              <path d="M7047.26,1346.25a88.19,88.19,0,1,1,62.34-25.83A87.55,87.55,0,0,1,7047.26,1346.25Z"/>

              <g id="crosshair">
                <line x1="7743.38" y1="582.85" x2="7881.69" y2="582.85"/>
                <line x1="7812.53" y1="513.7" x2="7812.53" y2="652"/>
              </g>

              <g id="crosshair">
                <line x1="6105.38" y1="1200.85" x2="6243.69" y2="1200.85"/>
                <line x1="6174.53" y1="1131.7" x2="6174.53" y2="1270"/>
              </g>
            </g>

            <g id="magnifying-glass">
              <path class="dark-fill" d="M7047.26,1346.25a88.19,88.19,0,1,1,62.34-25.83A87.55,87.55,0,0,1,7047.26,1346.25Z"/>
              <g class="yellow-fill yellow-stroke">
                <line x1="6991.5" y1="1258.08" x2="7103.03" y2="1258.08"/>
                <line x1="7047.26" y1="1202.32" x2="7047.26" y2="1313.85"/>
                <rect x="7131.01" y="1303.36" width="22.31" height="92.94" transform="translate(1137.42 5445.63) rotate(-45)"/>
              </g>
            </g>

          </g>


          <g id="phones">
            <g id="left-phone">
              <g class="yellow-stroke dark-fill">
                <path d="M895,1790.71a20.84,20.84,0,0,1-19.7-14.06l-131.86-383.3a20.86,20.86,0,0,1,12.93-26.47l198.77-68.38a20.8,20.8,0,0,1,26.47,12.92l131.86,383.3a20.84,20.84,0,0,1-12.92,26.48l-198.77,68.38A21,21,0,0,1,895,1790.71Z"/>
                <circle cx="829.62" cy="1365.52" r="8.13"/>
                <rect x="840.79" y="1344.78" width="65.05" height="10.57" rx="5.29" transform="translate(-391.67 357.51) rotate(-18.98)" />
              </g>

              <g class="darks-stroke yellow-fill">
                <path d="M895.45,1773a6.85,6.85,0,0,1-6.47-4.62L759.32,1391.45a6.86,6.86,0,0,1,4.24-8.69l33.89-11.65a8.22,8.22,0,0,1,10.5,5.13,12.88,12.88,0,0,0,16.36,8l88.09-30.31a12.87,12.87,0,0,0,8-16.35,8.27,8.27,0,0,1,5.13-10.51l33.69-11.59a6.76,6.76,0,0,1,2.22-.37,6.84,6.84,0,0,1,6.47,4.62l129.66,376.91a6.83,6.83,0,0,1-4.24,8.69l-195.64,67.3a6.73,6.73,0,0,1-2.22.38Z"/>
              </g>

              <g class="dark-stroke">
                <line x1="798.22" y1="1507.3" x2="1008.49" y2="1434.97"/>
                <line x1="837.1" y1="1620.32" x2="1047.37" y2="1547.99"/>
                <line x1="828.32" y1="1382.3" x2="939.54" y2="1705.61"/>
                <line x1="909.44" y1="1354.39" x2="1020.66" y2="1677.71"/>
                <line x1="874.04" y1="1727.71" x2="1084.32" y2="1655.38"/>
                <rect x="819.75" y="1527.36" width="28.46" height="28.46" transform="translate(2020.43 251.49) rotate(71.02)"/>
                <rect x="831.12" y="1560.42" width="28.46" height="28.46" transform="translate(2059.37 263.05) rotate(71.02)"/>
                <rect x="1034.9" y="1627.89" width="28.46" height="28.46" transform="translate(2260.66 115.88) rotate(71.02)"/>
                <path d="M987.25,1732a17,17,0,1,1,5.52-.93A17,17,0,0,1,987.25,1732Z"/>
              </g>
            </g>

            <g id="right-phone">
              <g class="yellow-fill dark-stroke">
                <path d="M7367.92,1723.16a20.72,20.72,0,0,1-20.72-19l-36.38-403.7a20.84,20.84,0,0,1,18.88-22.62L7539.06,1259c.63,0,1.27-.08,1.89-.08a20.71,20.71,0,0,1,20.72,19l36.38,403.71a20.82,20.82,0,0,1-18.88,22.62l-209.35,18.86C7369.19,1723.13,7368.55,1723.16,7367.92,1723.16Z"/>
                <circle cx="7401.18" cy="1294.07" r="8.13"/>
                <rect x="7414.78" y="1284.22" width="65.05" height="10.57" rx="5.29" transform="translate(-85.67 673.54) rotate(-5.15)" />
              </g>

              <g class="dark-fill yellow-stroke">
                <path d="M7369.29,1705.66a6.81,6.81,0,0,1-6.8-6.23l-35.78-397a6.85,6.85,0,0,1,6.2-7.42l35.69-3.22.75,0a8.21,8.21,0,0,1,8.22,7.52,12.81,12.81,0,0,0,12.81,11.72c.38,0,.77,0,1.16,0l92.79-8.37a12.88,12.88,0,0,0,11.66-14,8.27,8.27,0,0,1,7.49-9l35.48-3.2.63,0a6.81,6.81,0,0,1,6.8,6.23l35.77,397a6.84,6.84,0,0,1-6.2,7.42l-206.05,18.57c-.21,0-.41,0-.62,0Z" />
              </g>

              <g class="yellow-stroke">
                <line x1="7336.78" y1="1424.23" x2="7558.25" y2="1404.27"/>
                <line x1="7347.51" y1="1543.27" x2="7568.98" y2="1523.31"/>
                <line x1="7395.9" y1="1310.05" x2="7426.58" y2="1650.58"/>
                <line x1="7481.34" y1="1302.35" x2="7512.02" y2="1642.88"/>
                <line x1="7357.7" y1="1656.38" x2="7579.17" y2="1636.42"/>
                <path d="M7470.64,1688.08a17,17,0,0,1-1.5-33.89c.51,0,1-.07,1.54-.07a17,17,0,0,1,1.51,33.89C7471.67,1688.06,7471.15,1688.08,7470.64,1688.08Z"/>
              </g>
            </g>
          </g>


          <g class="fish">
            <g class="fish1 dark-fill yellow-stroke">
              <path d="M1576.55,1882.52a207.34,207.34,0,0,1,1.38-67.54l0-.1,0-.11A205.87,205.87,0,0,1,1682.2,1585.5a203.5,203.5,0,0,1,88.59-23.58c1.46-.05,2.92-.09,4.38-.11h.68l2.26,0c1.59,0,3.18,0,4.76.06A205.12,205.12,0,0,1,1929.35,1628c2.16,2.34,4.3,4.76,6.35,7.2a88.92,88.92,0,0,1-2.68,12.69c-3.91,4.72-8,9.28-12.26,13.56a205.53,205.53,0,0,1-80.68,50.37l-1.19.39a205.92,205.92,0,0,1-61.37,10.26c-1.63,0-8.51.44-9.84,1.09A205.76,205.76,0,0,0,1612.13,1810c-.46.63-.9,1.26-1.35,1.9l-.2.3.21.28a206.75,206.75,0,0,0,47.9,47.11A203.33,203.33,0,0,1,1576.55,1882.52Z"/>
              <path d="M1577.44,1814.89c.06-.34.12-.68.19-1,2.79-14.54,21.85-18.51,30.26-6.32q1.62,2.34,3.3,4.64"/>
              <path d="M1748.42,1664a86.8,86.8,0,0,0-2.54,28.35,86,86,0,0,1-29.79-20.92,87.05,87.05,0,0,1,22.49-17.67"/>
              <path d="M1867.72,1637.78a12.08,12.08,0,0,1-.18-24.15h.18a12.08,12.08,0,0,1,.18,24.15Z"/>
              <path d="M1922.77,1659.37a89,89,0,0,0,7.38-30.5c1.92,2.09,3.78,4.22,5.55,6.32a88.06,88.06,0,0,1-2.68,12.69C1929.75,1651.83,1926.31,1655.69,1922.77,1659.37Z"/>
              <path d="M1832.74,1711.86a89,89,0,0,1-56.69-150.06h2.09l3.6,0a90,90,0,0,0,51,150Z"/>
              <path d="M1575.13,1728.53a154.61,154.61,0,0,1-1.37-18.41,152.55,152.55,0,0,1,150.3-154.75l2.28,0a152.44,152.44,0,0,1,41.38,5.7,204.3,204.3,0,0,0-86,23.57,207,207,0,0,0-106.6,143.91Z"/>
            </g>

            <g class="fish2 dark-fill yellow-stroke">
              <path d="M2276.89,1601.38a206.59,206.59,0,0,1-52-6.65,204,204,0,0,1-39.56-14.79l-1.11-.57a205.38,205.38,0,0,1-50.66-36.14c-1.3-1.27-6.43-5.77-7.73-6.19a206.73,206.73,0,0,0-171.11-48.85l-2.31.39-.35.06,0,.36a207.18,207.18,0,0,0,.56,67.18,203.49,203.49,0,0,1-74.29-41.88,207.62,207.62,0,0,1,48.73-46.77l.09-.06.06-.09A205.93,205.93,0,0,1,2163,1379a203.49,203.49,0,0,1,79.32,46q1.6,1.49,3.18,3l.48.47c1.62,1.59,3.28,3.27,4.94,5a205.14,205.14,0,0,1,56.8,150.35c-.12,3.18-.32,6.41-.59,9.58a89.62,89.62,0,0,1-10.87,7.08c-6.1.57-12.25.88-18.26.91Z"/>
              <path d="M1926.71,1467.12c.28-.2.56-.4.85-.59,12.26-8.31,28.55,2.36,25.87,16.92-.34,1.87-.66,3.75-1,5.62"/>
              <path d="M2154.28,1481.35a87.06,87.06,0,0,0-21.85,18.25,86.12,86.12,0,0,1-6.27-35.85,85.24,85.24,0,0,1,11.39.23,86.82,86.82,0,0,1,17,3.17"/>
              <path d="M2265.74,1550.68a12.07,12.07,0,1,1,8.66-3.66A12,12,0,0,1,2265.74,1550.68Z"/>
              <path d="M2280.86,1601.33a88.65,88.65,0,0,0,26.79-16.35c-.13,2.84-.31,5.66-.55,8.4a88.68,88.68,0,0,1-10.86,7.08C2291.12,1600.94,2286,1601.23,2280.86,1601.33Z"/>
              <path d="M2180.09,1574.79a88.94,88.94,0,0,1,66-146.19c1.33,1.31,2.68,2.66,4,4a90,90,0,0,0-70,142.15Z"/>
              <path d="M2240.75,1422.18a204.21,204.21,0,0,0-77.47-44.14,206.79,206.79,0,0,0-61.1-9.21,206.82,206.82,0,0,0-116,35.59,154.92,154.92,0,0,1,12-14,152.65,152.65,0,0,1,242.56,31.75Z"/>
            </g>
          </g>


          <g id="hands">
            <g id="right-hand" class="dark-stroke yellow-fill">
              <path d="M7809.53,2091.13c-11-21.29-31.7-73.67-48.39-115.84-21.31-53.87-27.37-68.57-29.43-69.35-28.27-10.8-53.33-34.41-59.88-41.82l-42.41-58.44,0,0a25.34,25.34,0,0,1-2.06-2.71,1.89,1.89,0,0,0-.32-.37,19.56,19.56,0,0,1-4.58-6l-29.73-60.13c-9.55-24.21,10.1-35,10.94-35.48a21.44,21.44,0,0,1,9.57-2.21c16,0,33.77,16.73,41.75,32.9l0,.06,21.47,32.68.36.46,25.52,26.77a2.08,2.08,0,0,0,1.52.67,2.17,2.17,0,0,0,1.66-.79,2.09,2.09,0,0,0,.44-1.74l-12.79-67c-1.11-8.48-3.89-22.69-5.38-29.27L7659.94,1524c-1-4.43-.23-10.47,2-15.83,2.4-5.74,6-9.54,9.86-10.42l15-3.4a8.11,8.11,0,0,1,1.84-.21c8.19,0,16,11.4,17.78,19.24l39.66,180.22a4.2,4.2,0,0,0,3.48,3.23h.24a1.74,1.74,0,0,0,1.33-.64,1.79,1.79,0,0,0,.36-1.49l-45.28-217.54c-2.09-9.24.33-29.21,12.43-34.47l14.4-3.27a5.81,5.81,0,0,1,1.32-.15c8.7,0,19.05,17.55,21.12,26.69l52.24,217.87a2.46,2.46,0,0,0,2.4,1.89,2.5,2.5,0,0,0,.66-.09,2.58,2.58,0,0,0,1.83-3l-40.35-194.35c-1.91-8.42-.91-25.84,7.71-27.8l15-3.4a7.36,7.36,0,0,1,1.55-.17c7.94,0,16.62,12.91,18.6,21.61L7821,1507a66.88,66.88,0,0,0,2.06,7.65l1.81,5.45a43.4,43.4,0,0,1,2,9l.46,3.93a77.64,77.64,0,0,0,1.45,8.56l11.31,49.81c.06.24.12.47.19.7l3.4,10.47c.47,1.45.88,2.94,1.22,4.42l1.51,6.65a52.33,52.33,0,0,1,1,6.2l.67,6.8,10.4,46.33a2.22,2.22,0,0,0,2.17,1.72,2.26,2.26,0,0,0,1.76-.84,2.21,2.21,0,0,0,.42-1.87l-6.29-34.46-1.3-6.55a31,31,0,0,1-.46-3.21l-.55-5.71c0-.3-.07-.6-.13-.9l-7.48-38.49-3.74-21.85-.89-4.07a32.53,32.53,0,0,1-.63-4.17l-1.09-13.45a28,28,0,0,0-.55-3.65c-3-13.85-2.27-22,2-23l12-2.71a3.46,3.46,0,0,1,.78-.09c5.86,0,11.72,14.69,13.42,22.19l6.73,26.7,2.69,7.65a32.9,32.9,0,0,1,1,3.52l1.77,7.81,9.78,37.59c.15.55.32,1.1.51,1.64l3.12,8.61,4.18,13.21c.19.6.36,1.23.5,1.86,3.14,13.7,6.65,26.36,10,38.61,3.46,12.51,7,25.46,10.24,39.5,1.09,4.81,12.32,128.54,12.4,129.67,1,13.41,29.63,78.56,50.52,126.13,10.95,24.92,20.41,46.45,22.26,52.33,3.24,10.22,4.69,16.86,2.52,20.57-2.31,4-8.88,5.34-20.8,7.86-4.1.87-8.75,1.85-14.08,3.12Z"/>
              <path d="M7809.21,1473c4.68,17.15.27,24.82-9.82,27.58s-20.24-1.71-24.92-18.85,1.57-31.22,11.67-34S7804.53,1455.9,7809.21,1473Z"/>
              <path d="M7751.55,1461.52c4.37,19.26-3.41,29.14-15.14,31.8s-23-2.89-27.36-22.15,2.77-31.79,14.5-34.46S7747.17,1442.27,7751.55,1461.52Z"/>
              <path d="M7701.74,1508.23c3.55,15.66-4,23.12-14.92,25.59s-21-1-24.53-16.64,3.23-26.74,14.12-29.21S7698.18,1492.57,7701.74,1508.23Z"/>
              <line x1="7689.45" y1="1568.75" x2="7710.57" y2="1563.96" />
              <line x1="7690.27" y1="1572.37" x2="7711.39" y2="1567.58" />
              <line x1="7793.29" y1="1528.68" x2="7820.99" y2="1524.93" />
              <line x1="7794.11" y1="1532.3" x2="7821.81" y2="1528.55" />
              <line x1="7735.2" y1="1535.53" x2="7756.32" y2="1530.73" />
              <line x1="7736.02" y1="1539.15" x2="7757.14" y2="1534.35" />
              <line x1="7850.6" y1="1571.51" x2="7872.86" y2="1568.99" />
              <line x1="7853.82" y1="1575.63" x2="7873.68" y2="1573.66" />
              <line x1="7862.87" y1="1628.36" x2="7886.95" y2="1625.43" />
              <line x1="7869.34" y1="1620.54" x2="7886.46" y2="1620.46" />
              <line x1="7865.78" y1="1632.77" x2="7888.04" y2="1630.26" />
              <line x1="7812.3" y1="1606.85" x2="7835.72" y2="1606.6" />
              <line x1="7813.13" y1="1610.47" x2="7836.55" y2="1610.22" />
              <line x1="7814.77" y1="1617.71" x2="7838.19" y2="1617.47" />
              <line x1="7754.22" y1="1613.69" x2="7775.34" y2="1608.89" />
              <line x1="7755.04" y1="1617.31" x2="7776.16" y2="1612.52" />
              <line x1="7756.68" y1="1624.55" x2="7777.8" y2="1619.76" />
              <line x1="7704.03" y1="1644.12" x2="7725.14" y2="1639.32" />
              <line x1="7704.85" y1="1647.74" x2="7725.96" y2="1642.94" />
              <line x1="7705.94" y1="1652.57" x2="7727.06" y2="1647.77" />
              <line x1="7625.14" y1="1777.71" x2="7644.59" y2="1768.21" />
              <line x1="7626.77" y1="1781.05" x2="7646.22" y2="1771.54" />
              <line x1="7628.94" y1="1785.5" x2="7648.4" y2="1775.99" />
              <path d="M7864.21,1525.27c2.79,12.31-.68,17.92-8.23,19.63s-12.45-4.53-15.25-16.84-1.06-21.88,6.49-23.59S7861.41,1513,7864.21,1525.27Z"/>
              <path d="M7632.21,1708.59c6.22,12.6,2.44,24.39-8.89,30s-22.59,11.06-32.11-9.72c-6.11-13.33-2.09-27.34,9.23-32.93S7626,1696,7632.21,1708.59Z"/>
            </g>

            <g id="left-hand" class="yellow-stroke dark-fill">
              <path d="M777,1771s-4.53-68.64-4.53-68.66c-.77-8.2-1.24-22.43-1.24-29.64v-.06l-10.39-171.51c0-9.51-9-24-18.45-24H727c-9.51,0-16,14.46-16,24l1.22,184.52a3.11,3.11,0,0,1-2,2.93h0a.7.7,0,0,1-.92-.66l-4-222.16c0-10-7.08-29.33-20.62-31.89a.82.82,0,0,0-.22,0H669.76c-10,0-17.07,21.86-17.07,31.91l-2.71,224a1.4,1.4,0,0,1-1.47,1.38h0a1.49,1.49,0,0,1-1.43-1.47l-3.69-198.46c0-9.51-5.23-26.45-14.74-26.45H613.27c-9.5,0-16,16.93-16,26.43l.6,29.06a67.37,67.37,0,0,1-.3,7.79l-.57,5.72a45.72,45.72,0,0,0,.05,9.43l.43,3.93a78.74,78.74,0,0,1,.47,8.55v51.08q0,.32,0,.63l-1,11c-.15,1.55-.22,3.11-.22,4.67v6.82a52.62,52.62,0,0,0,.4,6.4L598,1643l.12,47.42a1.15,1.15,0,0,1-.93,1.12h0a1.15,1.15,0,0,1-1.39-1.13l-1.49-35-.19-6.66c0-1.12-.12-2.23-.26-3.34l-.74-5.69c0-.27-.05-.53-.06-.8l-1.23-39.2-1.18-22.16,0-4.11a33.25,33.25,0,0,0-.32-4.35l-1.91-13.36a28.13,28.13,0,0,1-.27-3.55c-.09-8.18-1-23-8.07-23H567.72c-7.58,0-10,18.18-10,25.76l-.65,27.51-.91,7.95a31.94,31.94,0,0,0-.22,3.78v8l-1.21,38.79c0,.54-.06,1.07-.13,1.61l-1.14,9.09-1.15,13.86c-.06.66-.08,1.33-.09,2-.05,28.4-2.47,52.16-2.47,80.66,0,4.95,16.06,125.54,16.62,129.36,3,20.12-30,172.06-31.47,189.9-2.47,29.7,3.2,24.37,39.6,24.75l165.82-3.71c11.13-42.07,30.93-195.52,34.64-198,25.68-17.12,45.14-46.47,49.48-54.42a.16.16,0,0,0,0-.07l28.42-66.35a25.78,25.78,0,0,0,1.47-3.22.75.75,0,0,1,.1-.2,20.41,20.41,0,0,0,3.3-7.23l15.68-65.22s0-.06,0-.09c4.1-26.7-18.49-33.14-19.29-33.36h0c-20.84-5-39.52,21.24-44.52,42.08l-13.66,36.52-.23.48-18.91,31.68"/>
              <path d="M602.94,1484.58c-.77,17.75,5.23,24.27,15.68,24.72s19.36-6.15,20.13-23.9-8.45-30.09-18.91-30.55S603.71,1466.83,602.94,1484.58Z"/>
              <path d="M656.62,1460.58c0,19.75,9.77,27.66,21.8,27.66s21.78-7.91,21.78-27.66-9.74-30.39-21.78-30.39S656.62,1440.83,656.62,1460.58Z"/>
              <path d="M715.54,1495.1c0,16.06,9,21.65,20.2,21.65S756,1511.16,756,1495.1s-9.08-25.37-20.25-25.37S715.54,1479,715.54,1495.1Z"/>
              <line x1="740.91" y1="1551.4" x2="719.26" y2="1551.4"/>
              <line x1="740.91" y1="1555.11" x2="719.26" y2="1555.11"/>
              <line x1="630.78" y1="1535.32" x2="602.94" y2="1537.79"/>
              <line x1="630.78" y1="1539.03" x2="602.94" y2="1541.5"/>
              <line x1="688.94" y1="1529.13" x2="667.29" y2="1529.13"/>
              <line x1="688.94" y1="1532.84" x2="667.29" y2="1532.84"/>
              <line x1="584.38" y1="1589.76" x2="562.11" y2="1592.24"/>
              <line x1="582.15" y1="1594.5" x2="562.35" y2="1596.97"/>
              <line x1="585" y1="1647.92" x2="560.87" y2="1650.4"/>
              <line x1="576.95" y1="1641.73" x2="560.25" y2="1645.45"/>
              <line x1="583.14" y1="1652.87" x2="560.87" y2="1655.35"/>
              <line x1="629.55" y1="1615.75" x2="606.65" y2="1620.7"/>
              <line x1="629.55" y1="1619.46" x2="606.65" y2="1624.41"/>
              <line x1="629.55" y1="1626.89" x2="606.65" y2="1631.84"/>
              <line x1="687.7" y1="1609.56" x2="666.05" y2="1609.56"/>
              <line x1="687.7" y1="1613.27" x2="666.05" y2="1613.27"/>
              <line x1="687.7" y1="1620.7" x2="666.05" y2="1620.7"/>
              <line x1="743.39" y1="1628.12" x2="721.73" y2="1628.12"/>
              <line x1="743.39" y1="1631.84" x2="721.73" y2="1631.84"/>
              <line x1="743.39" y1="1636.79" x2="721.73" y2="1636.79"/>
              <line x1="849.9" y1="1740.93" x2="828.82" y2="1735.97"/>
              <line x1="849.05" y1="1744.55" x2="827.97" y2="1739.59"/>
              <line x1="847.91" y1="1749.37" x2="826.84" y2="1744.4"/>
              <path d="M560.87,1547.69c0,12.62,4.63,17.32,12.37,17.32s11.14-7.17,11.14-19.79-3.8-21.58-11.55-21.58S560.87,1535.07,560.87,1547.69Z"/>
              <path d="M827.7,1675.1c-3.28,13.66,3,24.32,15.3,27.27s24.49,5.78,29.17-16.59c3-14.35-4-27.12-16.29-30.07S831,1661.44,827.7,1675.1Z"/>
            </g>
          </g>

          <g id="cloud">
              <g class="cloud1 dark-fill yellow-stroke">
                  <path d="M4337.92,497l-196.79.07a74.42,74.42,0,0,0,1-12.3h0a73.39,73.39,0,0,0-73.42-73.36l-180.94.06a146.93,146.93,0,0,0,4.35-35.65h0a146.1,146.1,0,0,0-11.31-56.53h19.61a86.74,86.74,0,0,0,86.71-86.78h0a86.74,86.74,0,0,0-86.77-86.71l-244.28.09a86.74,86.74,0,0,0-86.64,83.26l-264.5.1a146.77,146.77,0,0,0-146.73,146.83h0a146.78,146.78,0,0,0,146.84,146.73l113.62,0a73.35,73.35,0,0,0,63,35.63l426.87-.15A47.92,47.92,0,0,0,3954.61,593l383.35-.13a47.92,47.92,0,0,0,47.9-47.94h0A47.92,47.92,0,0,0,4337.92,497Z" />
                  <path d="M6318.44,177.89H5924.61c.1-1.24.16-2.49.16-3.76h0A49.73,49.73,0,0,0,5875,124.41l-37.37,0a49.76,49.76,0,0,0-49.74,49.75h0c0,1.25.07,2.48.16,3.71H5216.45a99.29,99.29,0,0,0-78.59-38.45h-5.43a49.43,49.43,0,0,0,.34-5.74h0A49.72,49.72,0,0,0,5083,84h-37.39a49.73,49.73,0,0,0-49.72,49.75h0a49.55,49.55,0,0,0,.35,5.74h0l-156.8,0A99.47,99.47,0,0,0,4749.31,197h0l-95.91,0a58.77,58.77,0,0,0-58.75,58.8h0a58.78,58.78,0,0,0,58.8,58.76l121.37,0h0a99.16,99.16,0,0,0,64.71,23.9l77,0h0a49.68,49.68,0,0,0,42.66,24.14l397.86-.14a49.73,49.73,0,0,0,49.72-49.75h0a49.29,49.29,0,0,0-.41-6.24h19.69a49.73,49.73,0,0,0,49.72-49.75h0a49.67,49.67,0,0,0-2-13.87h844.65a32.47,32.47,0,0,0,32.47-32.47h0A32.47,32.47,0,0,0,6318.44,177.89ZM5339.32,263l-104.91,0h0a99.47,99.47,0,0,0,2.86-20.2H5340.9a49.61,49.61,0,0,0-2,13.92h0a49.54,49.54,0,0,0,.41,6.24Z" />
              </g>

              <g class="cloud2 yellow-fill dark-stroke">
                  <path d="M6072.53,326.32l-1214.95.43a153.58,153.58,0,0,0-137.31,84.84l-405.78.15a76.79,76.79,0,0,0-76.77,76.72l-510.8.18a76.78,76.78,0,0,0-76.76,76.82h0A76.79,76.79,0,0,0,3727,642.23l341.16,0h0A76.81,76.81,0,0,0,4145,719l307.17-.11v-.1l440-.16a153.6,153.6,0,0,0,137.27-84.74l1043.2-.37a153.59,153.59,0,0,0,153.54-153.64h0A153.59,153.59,0,0,0,6072.53,326.32Z"/>
                  <path d="M3425.74,572.72l-90.38,0a50.29,50.29,0,0,0,1.11-10.48h0a49.73,49.73,0,0,0-49.75-49.72h-37.39a49.66,49.66,0,0,0-16.83,2.94,99.5,99.5,0,0,0-93.72-66l-117.41,0a49.67,49.67,0,0,0,1.49-12.09h0a49.74,49.74,0,0,0-49.75-49.72l-37.39,0A49.73,49.73,0,0,0,2886,437.5h0a49.67,49.67,0,0,0,1.49,12.09l-47.11,0a99,99,0,0,0-60.09,20.23,50.07,50.07,0,0,0-8.18-.68h-37.39A49.74,49.74,0,0,0,2685,518.92h0a49.73,49.73,0,0,0,49.75,49.72h8.13a99.5,99.5,0,0,0,97.57,79.9l298.4-.11A99.1,99.1,0,0,0,3205.23,623l220.53-.08a25.1,25.1,0,1,0,0-50.2Z"/>
                  <path d="M7629.71,404H6701.58a49.7,49.7,0,0,0-41.47-22.27l-35.31,0a58.77,58.77,0,0,0-53.77-35h-9.47a50.06,50.06,0,0,0,1.3-11.3h0a49.74,49.74,0,0,0-49.75-49.72l-37.39,0A49.73,49.73,0,0,0,6426,335.5h0a49.5,49.5,0,0,0,1.31,11.3h-21.82a58.8,58.8,0,0,0-55.1,38.33c-.92-.08-1.86-.13-2.8-.13h-20.18a33.41,33.41,0,0,0-33.4,33.42v3.8a33.4,33.4,0,0,0,33.42,33.4h20.18a33.28,33.28,0,0,0,19-6,58.6,58.6,0,0,0,38.88,14.7l165.54-.06a59.14,59.14,0,0,0,13.06-1.48,49.62,49.62,0,0,0,38.62,18.38h37.39a49.74,49.74,0,0,0,49.46-44.62h920.11a16.29,16.29,0,0,0,0-32.58Z"/>
              </g>
          </g>

          <g id="sun">
            <g class="yellow-stroke">
              <line x1="7741.86" y1="-704.61" x2="6327.64" y2="709.61"/>
              <line x1="7534.75" y1="-863.53" x2="6534.75" y2="868.53"/>
              <line x1="7293.57" y1="-963.43" x2="6775.93" y2="968.43"/>
              <line x1="7034.75" y1="-997.5" x2="7034.75" y2="1002.5"/>
              <line x1="6775.93" y1="-963.43" x2="7293.57" y2="968.43"/>
              <line x1="6534.75" y1="-863.53" x2="7534.75" y2="868.53"/>
              <line x1="6327.64" y1="-704.61" x2="7741.86" y2="709.61"/>
              <line x1="6168.72" y1="-497.5" x2="7900.78" y2="502.5"/>
              <line x1="6068.82" y1="-256.32" x2="8000.68" y2="261.32"/>
              <line x1="6034.75" y1="2.5" x2="8034.75" y2="2.5"/>
              <line x1="6068.82" y1="261.32" x2="8000.68" y2="-256.32"/>
              <line x1="6168.72" y1="502.5" x2="7900.78" y2="-497.5"/>
              <circle cx="7034.75" cy="2.5" r="1000"/>
            </g>
            <g class="yellow-fill">
              <circle cx="7034.75" cy="2.5" r="329"/>
            </g>
          </g>


          <g id="tree-bird">
            <g id="tree">
              <g class="dark-stroke yellow-fill">
                <path d="M5326.68,1784.71a70.72,70.72,0,0,1-23.92-4.21c45.21-20.81,76.51-84.61,76.51-156.89s-31.3-136.07-76.51-156.88a70.72,70.72,0,0,1,23.92-4.21c57.94,0,105.08,72.26,105.08,161.09S5384.62,1784.71,5326.68,1784.71Z"/>
              </g>

              <g class="dark-stroke dark-fill">
                <ellipse cx="5299.02" cy="1623.61" rx="77.42" ry="155.43"/>
                <path d="M5299,1469.72c44.8,19.13,76,82.17,76,153.89s-31.2,134.76-76,153.9c-44.81-19.14-76-82.17-76-153.9s31.2-134.76,76-153.89m0-3.07c-45.41,18.58-78.84,81.81-78.84,157s33.43,138.38,78.84,157c45.4-18.59,78.83-81.81,78.83-157s-33.43-138.38-78.83-157Z"/>
              </g>

              <g class="yellow-stroke dark-fill">
                <g id="tree-branch">
                  <polygon points="5330.86 1604.06 5305.19 1277.43 5355.43 1225.63 5374.96 1234.32 5325.78 1283.02 5346.98 1590.15 5381.33 1619.99 5371.16 1638.72 5330.86 1604.06"/>
                  <polygon points="5320.27 1326.11 5322.25 1308.65 5354.44 1310.67 5366.14 1304.67 5376.54 1321.47 5357.82 1329.77 5320.27 1326.11"/>
                  <polyline points="5221.97 1625.29 6405.37 1438.63 6803.11 1001.11 7231.43 772.96 7247.93 803.44 6833.24 1034.96 6425.59 1479.87 5230.97 1684.29"/>
                  <polygon points="6339.28 1410.92 6320.03 1295.18 6314.73 1225.56 6328.54 1178.44 6331.37 1055.32 6345.86 1054.19 6342 1182.56 6332.29 1222.41 6334.87 1290.8 6353.03 1403.93 6383.21 1459.28 6371.19 1472.29 6339.28 1410.92"/>
                  <polygon points="6581.22 1088 6614.9 947.32 6696.67 862.01 6708.81 875.94 6631.79 958.95 6597.94 1082.39 6636.14 1203.63 6623.74 1216.57 6581.22 1088"/>
                  <polygon points="6901.61 1199.31 6890.35 1127.82 6854.05 1060.39 6817.48 1038.27 6839.29 1025.89 6874.32 1043.18 6910.79 1120.64 6919.3 1180.58 6992.08 1190.98 6985.26 1207.46 6901.61 1199.31"/>
                </g>

                <g id="pine-needles">
                  <path d="M6340.82,1059.63a4.76,4.76,0,0,1-4.73-4.25l-44.73-415.07a4.77,4.77,0,0,1,4.22-5.24,4.36,4.36,0,0,1,.51,0,4.75,4.75,0,0,1,4.73,4.25l44.74,415.07a4.79,4.79,0,0,1-4.23,5.24Z"/>
                  <path d="M6337.15,1060a4.74,4.74,0,0,1-4.69-4l-71.4-411.32a4.76,4.76,0,0,1,3.88-5.5,4.43,4.43,0,0,1,.81-.07,4.75,4.75,0,0,1,4.69,3.94l71.39,411.33a4.76,4.76,0,0,1-3.87,5.5A5.54,5.54,0,0,1,6337.15,1060Z"/>
                  <path d="M6340.59,1059.66a4.81,4.81,0,0,1-4.44-3L6183.6,668a4.76,4.76,0,0,1,2.69-6.16,4.61,4.61,0,0,1,1.72-.33,4.81,4.81,0,0,1,4.45,3L6345,1053.16a4.78,4.78,0,0,1-2.7,6.17A4.61,4.61,0,0,1,6340.59,1059.66Z"/>
                  <path d="M6340.82,1059.63a4.78,4.78,0,0,1-4.75-4.64L6326,637.63a4.76,4.76,0,0,1,4.64-4.87h.11a4.78,4.78,0,0,1,4.76,4.64l10.08,417.36a4.78,4.78,0,0,1-4.64,4.87Z"/>
                  <path d="M6340.82,1059.63a4.49,4.49,0,0,1-.73-.06,4.76,4.76,0,0,1-4-5.43l64.25-412.5a4.81,4.81,0,0,1,4.71-4,4.49,4.49,0,0,1,.73.06,4.77,4.77,0,0,1,4,5.44l-64.25,412.5A4.8,4.8,0,0,1,6340.82,1059.63Z"/>
                  <path d="M6340.81,1059.63a4.58,4.58,0,0,1-1.32-.19,4.75,4.75,0,0,1-3.23-5.9l117.13-400.7a4.79,4.79,0,0,1,4.58-3.43,4.9,4.9,0,0,1,1.32.19,4.78,4.78,0,0,1,3.24,5.91l-117.14,400.7A4.78,4.78,0,0,1,6340.81,1059.63Z" />
                  <path d="M6340.59,1059.66a4.76,4.76,0,0,1-4.26-2.61L6147.54,684.71a4.76,4.76,0,0,1,8.49-4.31l188.79,372.35a4.77,4.77,0,0,1-2.09,6.4A4.81,4.81,0,0,1,6340.59,1059.66Z"/>
                  <path d="M6340.8,1059.63a4.6,4.6,0,0,1-1.9-.4,4.78,4.78,0,0,1-2.43-6.28l168.79-381.82a4.79,4.79,0,0,1,4.37-2.84,4.65,4.65,0,0,1,1.91.41A4.77,4.77,0,0,1,6514,675l-168.8,381.83A4.77,4.77,0,0,1,6340.8,1059.63Z"/>
                  <path d="M6337.67,1060a4.68,4.68,0,0,1-3.38-1.41L6040.82,761.65a4.76,4.76,0,0,1,6.77-6.69l293.46,296.91a4.75,4.75,0,0,1-3.38,8.1Z"/>
                  <path d="M6334.78,1060.28a4.73,4.73,0,0,1-3.15-1.19l-312-277.39a4.76,4.76,0,0,1,6.32-7.11L6338,1052a4.75,4.75,0,0,1-3.17,8.31Z"/>
                  <path d="M6337.68,1060a4.75,4.75,0,0,1-3.66-1.7L6066.24,738a4.76,4.76,0,0,1-1.08-3.48,4.69,4.69,0,0,1,1.68-3.22,4.76,4.76,0,0,1,6.7.59l267.78,320.29a4.75,4.75,0,0,1-3.64,7.8Z"/>
                  <path d="M6337.69,1060a4.8,4.8,0,0,1-4.16-2.4L6126.94,694.8a4.76,4.76,0,0,1,1.78-6.49,4.68,4.68,0,0,1,2.34-.62,4.77,4.77,0,0,1,4.15,2.4l206.59,362.77a4.75,4.75,0,0,1-4.11,7.11Z"/>
                  <path d="M6337.68,1060a4.78,4.78,0,0,1-4.62-3.55L6227.37,652.54a4.76,4.76,0,0,1,3.4-5.8,4.45,4.45,0,0,1,1.2-.16,4.76,4.76,0,0,1,4.61,3.55L6342.27,1054a4.78,4.78,0,0,1-3.4,5.81A4.79,4.79,0,0,1,6337.68,1060Z"/>
                  <path d="M6336.42,1060.11l-.51,0a4.77,4.77,0,0,1-4.22-5.24l44.4-415.1a4.82,4.82,0,0,1,4.73-4.26l.51,0a4.76,4.76,0,0,1,4.22,5.24l-44.4,415.1A4.8,4.8,0,0,1,6336.42,1060.11Z"/>
                  <path d="M6696.08,886.44a4.76,4.76,0,0,1-3-8.43l322.44-265.18a4.76,4.76,0,0,1,6,7.35L6699.1,885.36A4.75,4.75,0,0,1,6696.08,886.44Z"/>
                  <path d="M6693.73,883.58a4.76,4.76,0,0,1-3.26-8.23l304.67-285.41a4.76,4.76,0,1,1,6.51,6.95L6697,882.3A4.77,4.77,0,0,1,6693.73,883.58Z"/>
                  <path d="M6695.9,886.25a4.69,4.69,0,0,1-2.73-.87,4.77,4.77,0,0,1-1.14-6.63L6933.17,538a4.78,4.78,0,0,1,3.9-2,4.67,4.67,0,0,1,2.73.87,4.78,4.78,0,0,1,1.14,6.64L6699.8,884.24A4.76,4.76,0,0,1,6695.9,886.25Z"/>
                  <path d="M6696.09,886.44a4.76,4.76,0,0,1-3.93-2.05,4.77,4.77,0,0,1,1.21-6.62l343.36-237.46a4.68,4.68,0,0,1,2.69-.84,4.78,4.78,0,0,1,3.93,2,4.77,4.77,0,0,1-1.21,6.62L6698.78,885.6A4.68,4.68,0,0,1,6696.09,886.44Z"/>
                  <path d="M6696.09,886.44a4.76,4.76,0,0,1-2-9.09L7074.2,704.69a4.72,4.72,0,0,1,1.95-.42,4.74,4.74,0,0,1,4.47,6.42,4.7,4.7,0,0,1-2.48,2.66L6698,886A4.69,4.69,0,0,1,6696.09,886.44Z"/>
                  <path d="M6696.08,886.44a4.75,4.75,0,0,1-1.4-9.3l399.26-122a5,5,0,0,1,1.38-.2,4.8,4.8,0,0,1,4.56,3.36,4.79,4.79,0,0,1-3.16,6l-399.26,122A4.61,4.61,0,0,1,6696.08,886.44Z"/>
                  <path d="M6695.9,886.25a4.73,4.73,0,0,1-2.35-.63,4.67,4.67,0,0,1-2.22-2.88,4.74,4.74,0,0,1,.46-3.61L6899.45,517a4.76,4.76,0,0,1,4.14-2.39,4.76,4.76,0,0,1,4.11,7.12L6700,883.86A4.76,4.76,0,0,1,6695.9,886.25Z"/>
                  <path d="M6696.07,886.44a4.76,4.76,0,0,1-.78-9.45l411.83-68.43a3.94,3.94,0,0,1,.77-.07,4.81,4.81,0,0,1,4.7,4,4.78,4.78,0,0,1-3.91,5.47l-411.83,68.44A5.12,5.12,0,0,1,6696.07,886.44Z"/>
                  <path d="M6694.05,884a4.77,4.77,0,0,1-1-.11,4.78,4.78,0,0,1-3.66-5.64L6776.56,470a4.76,4.76,0,0,1,9.31,2l-87.16,408.27A4.79,4.79,0,0,1,6694.05,884Z"/>
                  <path d="M6692.21,881.76a5.34,5.34,0,0,1-.69,0,4.76,4.76,0,0,1-4-5.4l60.66-413a4.78,4.78,0,0,1,4.71-4.07,5.34,5.34,0,0,1,.69.05,4.76,4.76,0,0,1,4,5.4l-60.66,413A4.78,4.78,0,0,1,6692.21,881.76Z"/>
                  <path d="M6694,884a4.49,4.49,0,0,1-1.36-.21,4.76,4.76,0,0,1-3.18-5.93l120.79-399.62a4.8,4.8,0,0,1,4.57-3.38,4.49,4.49,0,0,1,1.36.21,4.78,4.78,0,0,1,3.18,5.93L6698.61,880.62A4.8,4.8,0,0,1,6694,884Z"/>
                  <path d="M6694,884a4.69,4.69,0,0,1-4.5-3.29,4.68,4.68,0,0,1,.28-3.63l189.89-371.79a4.75,4.75,0,0,1,8.75.7,4.67,4.67,0,0,1-.28,3.63L6698.29,881.4A4.73,4.73,0,0,1,6694,884Z"/>
                  <path d="M6694.06,884a4.75,4.75,0,0,1-3.53-7.94l279.62-310a4.76,4.76,0,1,1,7.06,6.38l-279.62,310A4.73,4.73,0,0,1,6694.06,884Z"/>
                  <path d="M6693.28,883a4.76,4.76,0,0,1-2.19-9l371.38-190.68a4.62,4.62,0,0,1,2.15-.53,4.76,4.76,0,0,1,2.2,9L6695.44,882.5A4.65,4.65,0,0,1,6693.28,883Z"/>
                  <path d="M6621.76,944.81a4.75,4.75,0,0,1-4.24-2.56l-192.21-370.6a4.76,4.76,0,1,1,8.45-4.38L6626,937.86a4.72,4.72,0,0,1,.3,3.63,4.73,4.73,0,0,1-4.51,3.32Z"/>
                  <path d="M6621.76,944.81a4.76,4.76,0,0,1-4.41-2.92L6456.61,556.6A4.75,4.75,0,0,1,6461,550a4.76,4.76,0,0,1,4.4,2.92l160.74,385.29a4.75,4.75,0,0,1-4.37,6.59Z"/>
                  <path d="M6621.75,944.81a4.8,4.8,0,0,1-4.66-3.73l-89.7-407.72a4.76,4.76,0,0,1,3.62-5.67,4.43,4.43,0,0,1,1-.11,4.78,4.78,0,0,1,4.65,3.73L6626.39,939a4.75,4.75,0,0,1-3.63,5.67A4.28,4.28,0,0,1,6621.75,944.81Z"/>
                  <path d="M6621.74,944.82a4.79,4.79,0,0,1-4.74-4.35l-36.14-415.91a4.78,4.78,0,0,1,4.32-5.15l.42,0a4.8,4.8,0,0,1,4.74,4.35l36.14,415.91a4.78,4.78,0,0,1-4.33,5.15Z"/>
                  <path d="M6621.53,944.81a4.75,4.75,0,0,1-4.54-5l18.84-417.05a4.75,4.75,0,0,1,4.75-4.55h.22a4.79,4.79,0,0,1,4.54,5l-18.85,417.05a4.75,4.75,0,0,1-4.75,4.54Z"/>
                  <path d="M6617.82,946.85a4.77,4.77,0,0,1-4.6-3.51l-109.15-403a4.75,4.75,0,0,1,3.35-5.84,4.68,4.68,0,0,1,1.23-.17,4.77,4.77,0,0,1,4.6,3.52l109.15,403a4.74,4.74,0,0,1-4.58,6Z"/>
                  <path d="M5369.08,1236a5,5,0,0,1-1.21-.16,4.77,4.77,0,0,1-3.38-5.82l106.86-403.56A4.76,4.76,0,0,1,5476,823a5,5,0,0,1,1.21.15,4.78,4.78,0,0,1,3.38,5.82l-106.86,403.57A4.77,4.77,0,0,1,5369.08,1236Z"/>
                  <path d="M5365.51,1235.08a4.78,4.78,0,0,1-4.67-5.68l80.63-409.61a4.76,4.76,0,0,1,4.67-3.84,4.7,4.7,0,0,1,.92.09,4.77,4.77,0,0,1,3.75,5.59l-80.63,409.61A4.76,4.76,0,0,1,5365.51,1235.08Z"/>
                  <path d="M5368.85,1236a4.76,4.76,0,0,1-4.76-4.72l-3.28-417.46a4.76,4.76,0,1,1,9.51-.07l3.29,417.46a4.76,4.76,0,0,1-4.72,4.79Z"/>
                  <path d="M5369.08,1236a4.55,4.55,0,0,1-1.59-.28,4.76,4.76,0,0,1-2.88-6.08l140-393.28a4.76,4.76,0,1,1,9,3.19l-140,393.29A4.77,4.77,0,0,1,5369.08,1236Z"/>
                  <path d="M5369.07,1236a4.76,4.76,0,0,1-4.11-7.12l207.7-362.14a4.77,4.77,0,0,1,4.14-2.38,4.69,4.69,0,0,1,2.35.62,4.77,4.77,0,0,1,1.77,6.5l-207.7,362.14A4.8,4.8,0,0,1,5369.07,1236Z"/>
                  <path d="M5369.08,1236a4.76,4.76,0,0,1-3.78-7.63L5618.15,896.2a4.76,4.76,0,0,1,7.58,5.76l-252.86,332.19A4.72,4.72,0,0,1,5369.08,1236Z"/>
                  <path d="M5368.85,1236a4.8,4.8,0,0,1-4.73-4.27l-42.95-415.26a4.77,4.77,0,0,1,4.25-5.22l.48,0a4.82,4.82,0,0,1,4.74,4.27l42.94,415.26a4.77,4.77,0,0,1-4.24,5.22Z"/>
                  <path d="M5369.08,1236a4.69,4.69,0,0,1-3.35-1.37,4.77,4.77,0,0,1,0-6.73L5660,931.85a4.77,4.77,0,0,1,6.73,0,4.77,4.77,0,0,1,0,6.73l-294.33,296.07A4.72,4.72,0,0,1,5369.08,1236Z"/>
                  <path d="M5366,1235.22a4.79,4.79,0,0,1-4.38-2.84L5194,850.06a4.76,4.76,0,1,1,8.72-3.82l167.69,382.31a4.77,4.77,0,0,1-2.45,6.27A4.58,4.58,0,0,1,5366,1235.22Z"/>
                  <path d="M5363.24,1234.48a4.77,4.77,0,0,1-4.25-2.57L5167,861.2a4.77,4.77,0,0,1,2-6.41,4.58,4.58,0,0,1,2.17-.53,4.75,4.75,0,0,1,4.24,2.56l192,370.71a4.75,4.75,0,0,1-4.2,7Z"/>
                  <path d="M5366,1235.22a4.76,4.76,0,0,1-4.51-3.21L5226.18,837.08a4.76,4.76,0,0,1,9-3.09l135.33,394.93a4.77,4.77,0,0,1-4.49,6.3Z"/>
                  <path d="M5366,1235.22a4.79,4.79,0,0,1-4.7-4l-63-412.7a4.78,4.78,0,0,1,4-5.42,5.78,5.78,0,0,1,.71,0,4.79,4.79,0,0,1,4.71,4l63,412.69a4.78,4.78,0,0,1-4,5.42A4.37,4.37,0,0,1,5366,1235.22Z"/>
                  <path d="M5366,1235.22a4.53,4.53,0,0,1-.52,0,4.77,4.77,0,0,1-4.21-5.26L5407.23,815a4.75,4.75,0,0,1,4.73-4.23l.52,0a4.75,4.75,0,0,1,4.2,5.25L5370.75,1231A4.75,4.75,0,0,1,5366,1235.22Z"/>
                  <path d="M5364.79,1234.89a4.61,4.61,0,0,1-2.15-.52,4.77,4.77,0,0,1-2.07-6.4l190.1-371.68a4.75,4.75,0,0,1,4.25-2.59,4.58,4.58,0,0,1,2.15.52,4.75,4.75,0,0,1,2.07,6.4L5369,1232.3A4.73,4.73,0,0,1,5364.79,1234.89Z"/>
                  <path d="M5367.76,1319.55a4.75,4.75,0,0,1-2.89-8.54l332.39-252.59A4.76,4.76,0,0,1,5703,1066l-332.39,252.59A4.7,4.7,0,0,1,5367.76,1319.55Z"/>
                  <path d="M5367.77,1319.55a4.76,4.76,0,0,1-4.15-2.39,4.78,4.78,0,0,1,1.77-6.49l362.3-207.41a4.7,4.7,0,0,1,2.35-.63,4.76,4.76,0,0,1,2.38,8.89l-362.31,207.41A4.68,4.68,0,0,1,5367.77,1319.55Z"/>
                  <path d="M5367.76,1319.56a4.76,4.76,0,0,1-4.42-3,4.78,4.78,0,0,1,2.61-6.2l386.42-158a4.76,4.76,0,1,1,3.6,8.81l-386.42,158A4.58,4.58,0,0,1,5367.76,1319.56Z"/>
                  <path d="M5364.26,1316.84a4.76,4.76,0,0,1-3.07-8.4l319.9-268.23a4.73,4.73,0,0,1,3.05-1.11,4.72,4.72,0,0,1,4.74,5.17,4.7,4.7,0,0,1-1.67,3.23l-319.9,268.23A4.71,4.71,0,0,1,5364.26,1316.84Z"/>
                  <path d="M7233.48,809.74a4.76,4.76,0,0,1-1.81-9.17l386.82-157a4.66,4.66,0,0,1,1.77-.35,4.76,4.76,0,0,1,1.81,9.17l-386.82,157A4.69,4.69,0,0,1,7233.48,809.74Z"/>
                  <path d="M7233.47,809.74a4.76,4.76,0,0,1-1.21-9.36l403.89-105.62a4.78,4.78,0,0,1,5.81,3.4,4.79,4.79,0,0,1-3.4,5.81l-403.9,105.61A4.38,4.38,0,0,1,7233.47,809.74Z"/>
                  <path d="M7233.46,809.74a4.76,4.76,0,0,1-.59-9.48l414.27-51.6a4,4,0,0,1,.59,0,4.76,4.76,0,0,1,.59,9.48l-414.27,51.6A4,4,0,0,1,7233.46,809.74Z"/>
                  <path d="M7230.81,806.2a4.8,4.8,0,0,1-4.34-2.75,4.78,4.78,0,0,1,2.32-6.32l378.84-175.4a4.72,4.72,0,0,1,2-.43,4.75,4.75,0,0,1,2,9.07l-378.84,175.4A4.68,4.68,0,0,1,7230.81,806.2Z"/>
                  <path d="M6972,1202.31a4.76,4.76,0,0,1-1.23-9.35l403.38-107.55a4.59,4.59,0,0,1,1.22-.16,4.76,4.76,0,0,1,1.23,9.35L6973.2,1202.15A4.59,4.59,0,0,1,6972,1202.31Z"/>
                  <path d="M6971,1198.73a4.74,4.74,0,0,1-4.27-6.86,4.7,4.7,0,0,1,2.74-2.4l395.61-133.33a4.88,4.88,0,0,1,1.51-.25,4.76,4.76,0,0,1,1.53,9.27l-395.61,133.33A4.87,4.87,0,0,1,6971,1198.73Z"/>
                  <path d="M6971.93,1202.07a4.79,4.79,0,0,1-4.13-2.36,4.77,4.77,0,0,1,1.71-6.51l360.78-210.06a4.72,4.72,0,0,1,2.37-.65,4.76,4.76,0,0,1,2.42,8.87L6974.3,1201.43A4.71,4.71,0,0,1,6971.93,1202.07Z"/>
                  <path d="M6972,1202.31a4.76,4.76,0,0,1-.85-9.44l410.93-73.65a4.72,4.72,0,0,1,5.52,3.84,4.7,4.7,0,0,1-.78,3.56,4.79,4.79,0,0,1-3.06,2l-410.93,73.65A4.57,4.57,0,0,1,6972,1202.31Z"/>
                  <path d="M6972,1202.31a4.76,4.76,0,1,1,0-9.51l417.48.55a4.76,4.76,0,1,1,0,9.51Z"/>
                  <path d="M7385.86,1256.93c-.21,0-.42,0-.63,0l-413.88-54.62a4.75,4.75,0,0,1,.62-9.47,4.3,4.3,0,0,1,.62,0l413.89,54.61a4.76,4.76,0,0,1-.62,9.48Z"/>
                  <path d="M6971.92,1202.07a4.76,4.76,0,0,1-2.79-8.62l339.18-243.4a4.71,4.71,0,0,1,2.76-.89,4.78,4.78,0,0,1,3.88,2,4.7,4.7,0,0,1,.82,3.54,4.77,4.77,0,0,1-1.91,3.1l-339.18,243.4A4.71,4.71,0,0,1,6971.92,1202.07Z"/>
                  <path d="M7375.07,1310.86a5,5,0,0,1-1.22-.16l-403.12-108.55a4.76,4.76,0,1,1,2.48-9.19l403.11,108.55a4.76,4.76,0,0,1-1.25,9.35Z"/>
                  <path d="M6971.14,1199.24a4.75,4.75,0,0,1-3.81-7.58L7216,856.31a4.79,4.79,0,0,1,3.84-1.91,4.74,4.74,0,0,1,4.69,4.05,4.76,4.76,0,0,1-.88,3.53L6975,1197.32A4.76,4.76,0,0,1,6971.14,1199.24Z"/>
                  <path d="M6970.39,1196.44a4.71,4.71,0,0,1-4.63-3.75,4.69,4.69,0,0,1,.65-3.58l226.52-350.67a4.75,4.75,0,0,1,8.64,1.58,4.69,4.69,0,0,1-.65,3.58L6974.4,1194.27A4.75,4.75,0,0,1,6970.39,1196.44Z"/>
                  <path d="M6971.15,1199.24a4.75,4.75,0,0,1-3.57-7.89l275.66-313.52a4.78,4.78,0,0,1,6.72-.43,4.78,4.78,0,0,1,.43,6.72l-275.67,313.51A4.73,4.73,0,0,1,6971.15,1199.24Z"/>
                  <path d="M6971.16,1199.24a4.75,4.75,0,0,1-3-8.48l327-259.53a4.76,4.76,0,1,1,5.92,7.45l-327,259.54A4.68,4.68,0,0,1,6971.16,1199.24Z"/>
                  <path d="M6971.17,1199.24a4.76,4.76,0,0,1-1.91-9.12l383-166.08a4.61,4.61,0,0,1,1.87-.39,4.76,4.76,0,0,1,1.91,9.12l-383,166.08A4.69,4.69,0,0,1,6971.17,1199.24Z"/>
                  <path d="M6970.83,1198a4.76,4.76,0,0,1-.22-9.51l417-19.46h.22a4.76,4.76,0,0,1,.22,9.51l-417,19.47Z"/>
                  <path d="M7220.59,802.76a4.76,4.76,0,0,1-4.17-7L7413.93,428a4.77,4.77,0,0,1,4.21-2.5,4.67,4.67,0,0,1,2.23.56,4.77,4.77,0,0,1,1.94,6.44L7224.8,800.26A4.77,4.77,0,0,1,7220.59,802.76Z"/>
                  <path d="M7217.33,801a4.59,4.59,0,0,1-2-.43,4.77,4.77,0,0,1-2.35-6.3l173.4-379.76a4.75,4.75,0,1,1,8.65,4L7221.68,798.23A4.78,4.78,0,0,1,7217.33,801Z"/>
                  <path d="M7220.38,802.65a4.75,4.75,0,0,1-4.63-5.83L7309.34,390a4.76,4.76,0,0,1,9.28,2.14L7225,799A4.82,4.82,0,0,1,7220.38,802.65Z"/>
                  <path d="M7220.6,802.76A4.72,4.72,0,0,1,7218,802a4.77,4.77,0,0,1-1.4-6.59L7444,445.31a4.76,4.76,0,1,1,8,5.18L7224.6,800.6A4.76,4.76,0,0,1,7220.6,802.76Z"/>
                  <path d="M7220.61,802.76a4.76,4.76,0,0,1-3.47-8l286-304.12a4.76,4.76,0,1,1,6.93,6.52l-286,304.12A4.83,4.83,0,0,1,7220.61,802.76Z"/>
                  <path d="M7220.61,802.76a4.76,4.76,0,0,1-3-8.43l323-264.52a4.76,4.76,0,1,1,6,7.36l-323,264.52A4.75,4.75,0,0,1,7220.61,802.76Z"/>
                  <path d="M7220.39,802.65a4.3,4.3,0,0,1-.62,0,4.78,4.78,0,0,1-3.15-1.83,4.73,4.73,0,0,1-.95-3.51l54.5-413.9a4.77,4.77,0,0,1,4.72-4.14,4.3,4.3,0,0,1,.62,0,4.79,4.79,0,0,1,4.1,5.34l-54.5,413.9A4.77,4.77,0,0,1,7220.39,802.65Z"/>
                  <path d="M7220.62,802.76a4.76,4.76,0,0,1-2.52-8.8L7573.05,574.2a4.76,4.76,0,1,1,5,8.09l-355,219.76A4.67,4.67,0,0,1,7220.62,802.76Z"/>
                  <path d="M7217.81,801.27a4.76,4.76,0,0,1-4.68-3.91l-74.49-410.78a4.76,4.76,0,0,1,9.37-1.69l74.48,410.77a4.75,4.75,0,0,1-3.83,5.53A4.8,4.8,0,0,1,7217.81,801.27Z"/>
                  <path d="M7215.27,799.9a4.76,4.76,0,0,1-4.63-3.61l-100.8-405.12a4.69,4.69,0,0,1,.54-3.6,4.78,4.78,0,0,1,2.92-2.17,4.94,4.94,0,0,1,1.14-.14,4.76,4.76,0,0,1,4.63,3.61L7219.88,794a4.79,4.79,0,0,1-3.47,5.77A4.94,4.94,0,0,1,7215.27,799.9Z"/>
                  <path d="M7217.81,801.27a4.79,4.79,0,0,1-4.73-4.3L7173,381.42a4.77,4.77,0,0,1,4.28-5.19,3.39,3.39,0,0,1,.45,0,4.8,4.8,0,0,1,4.74,4.3l40.09,415.54a4.78,4.78,0,0,1-4.28,5.2Z"/>
                  <path d="M7217.81,801.27l-.39,0a4.77,4.77,0,0,1-4.35-5.14l34.4-416a4.79,4.79,0,0,1,4.74-4.37l.4,0a4.77,4.77,0,0,1,4.35,5.13L7222.55,796.9A4.78,4.78,0,0,1,7217.81,801.27Z"/>
                  <path d="M7217.8,801.26a4.55,4.55,0,0,1-1.59-.28,4.67,4.67,0,0,1-2.69-2.45,4.72,4.72,0,0,1-.19-3.63l140.89-393a4.76,4.76,0,0,1,9,3.22l-140.89,393A4.78,4.78,0,0,1,7217.8,801.26Z"/>
                  <path d="M7216.7,800.66a4.76,4.76,0,0,1-3.61-7.84l271.09-317.48a4.76,4.76,0,0,1,7.24,6.18L7220.33,799A4.75,4.75,0,0,1,7216.7,800.66Z"/>
                </g>
              </g>
            </g>


            <g id="bird">
              <g class="dark-fill yellow-stroke">
                <path d="M5827.1,1725.34l-14.94-28,9.58-64a16.59,16.59,0,0,0-3.11-12.3l-6.86-9.11c-18.48-24.5-39.42-52.26-52.8-78.6-1.37-2.7-2.84-5.57-4.37-8.57-20.46-40.07-54.71-107.14-54.83-145.53-.15-48.45,21.8-93.65,60.21-124a51.55,51.55,0,0,0,13.87-63.67,62,62,0,0,1-6.86-30.75c.78-21,14.92-45.81,37.81-66.39,22.5-20.23,48.94-32.71,70.74-33.38,1.81,0,3.58-.08,5.27-.08,16.88,0,29.64,2.72,40.16,8.55,1.74,1,17.38,8.89,19.33,9.66l52.43,21.65c1.29.51,2.57,1,3.84,1.55,7,2.86,14.29,5.82,22,5.82,1,0,1.94-.05,2.89-.14,3.7-.36,9.47-.59,15.05-.59,11.62,0,20.66.89,24.8,2.45l.44.16c3.09,1.16,5.25,3.8,5.36,6.57a5.1,5.1,0,0,1-3.29,4.93l-64,30.55c-12,7.12-41,25.25-52.25,40.67-2.89,3.94-5.49,7.61-8,11.17-6.85,9.68-12.27,17.33-18.21,22.88a5.39,5.39,0,0,0,1.44,8.81,157.4,157.4,0,0,1,66.34,228.89c-14.15,21.69-27.81,72.88-31.66,88.06-.09.36-.15.58-.17.63-.79,2.38-3.51,9.68-6.39,17.42-4.4,11.82-9.39,25.21-10.19,28.18-3.11,11.58,21.32,88.33,28.24,101.45l-28.14,23.29c-16.93,4.75-24.37,5.3-31.57,5.84a111.46,111.46,0,0,0-24,4Z"/>
                <path d="M5934.93,1134c5.22,0,10,1.66,12.11,4.23a5.48,5.48,0,0,1,1.16,4.78,14.61,14.61,0,0,1-11.71,11.74,29.5,29.5,0,0,1-4.93.43c-4.6,0-10.4-1.14-11.86-6.57-.74-2.74,1.05-5.63,2.18-7.11,3.22-4.21,8.95-7.5,13.05-7.5m0-2.12c-8,0-19.36,9.6-17.28,17.28,1.71,6.35,8.06,8.15,13.91,8.15a31.07,31.07,0,0,0,5.29-.47,16.75,16.75,0,0,0,13.44-13.44c1.46-7.82-7.4-11.52-15.36-11.52Z"/>
              </g>
              <g class="yellow-stroke">
                <path d="M6063.77,1122c-14.23,2.19-30.4,5.28-52.55,15.13-24.5,10.91-47.21,27.94-57.08,37.05"/>
                <path d="M5967.58,1174.17c-3.85.41-12.16,2.31-13.44,0-2.55-4.58,8-18.85,19.2-26.89,16.63-11.94,32.37-12.72,40.33-25,.83-1.28,3.36-5.27,1.92-7.69-2-3.42-10.55-1.14-11.52-3.84-.42-1.15,2.67-4.58,3.84-5.76"/>
                <path d="M5773.77,1252c-4.22,11.11-33,26.91-36,50"/>
                <path d="M5791.77,1244c-4,16-30,51-31,67"/>
                <path d="M5744.77,1306c-11,17-14,12-12,66"/>
                <path d="M5767.53,1343.06a39.05,39.05,0,0,0,22.95,19.89"/>
                <path d="M5797.77,1424.56l15.3,6.82"/>
                <path d="M5821.87,1274.67V1293"/>
                <path d="M5912.49,1286.29c-1.39,9.11,2.52,19.44-2.61,27.1-3.34,5-10,7.67-11.71,13.42"/>
                <path d="M5939.21,1328.52a69.28,69.28,0,0,1-5,31.44"/>
                <path d="M5960.7,1403.25l-.12,24a23,23,0,0,0,.67,6.88c1,3.12,3.24,5.65,5.43,8.07,3.35,3.69,6.91,7.53,11.62,9.16l7.72-31.22c1-4.19,1.73-9.44-1.7-12.05"/>
                <path d="M5872.16,1413.27a127.88,127.88,0,0,1-24.51,56.85c-.71.93-1.47,2-1.26,3.16a4.18,4.18,0,0,0,1.94,2.34c5.23,3.79,11.61,7.78,17.71,5.66,3.28-1.14,5.72-3.86,7.89-6.56a122,122,0,0,0,26.64-73"/>
                <path d="M5829.11,1473.71l-9.21,23.49c-1.6,4.09-3.23,8.26-3.55,12.65-.87,11.9,9.69,23.4,21.63,23.54,10.9.13,20.24-7.72,27.13-16.17,19.71-24.14,27.87-55.44,35-85.77"/>
                <path d="M5887.33,1514.74a43,43,0,0,0,3,18.85c.85,2.12,2,4.33,4.14,5.21,2.76,1.14,5.85-.46,8.25-2.24,14-10.36,21.53-27.87,23-45.25s-2.44-34.78-7.58-51.45"/>
                <path d="M5820.77,1525c-1.81,11.59,10.27,44.3,21,49s13,8.08,24.71,7.79l34.38-.84c2.55-.06,5.19-.14,7.46-1.32s3.92-3.36,5.4-5.49c9.69-13.94,17.19-29.44,28.25-42.32,6.24-7.26,13.56-13.64,18.87-21.6,11.28-16.9,12.05-38.48,12.43-58.79"/>
                <path d="M5895.77,1582c0,9.11-.93,22-3.13,30.84-.53,2.16-1.26,4.49-3.09,5.77a9.93,9.93,0,0,1-4.33,1.33,61.28,61.28,0,0,1-32.92-3.92c-5.79-2.47-13.55-2.28-11.3-14,1.42-7.41-9.06-12.1-14.43-17.41-4-4-8.33-7.66-11.37-12.38-4.87-7.59-17.6-21.37-19.43-30.2s-35.43-76.1-43-81"/>
                <path d="M5718.77,1397c.83.85,16.18,43.15,17,44,10.27-12.25,8.44-63.91,16-78,2.61,10.1.23,58.73,5,68,.88-.7,11.48,3.28,12.36,2.58l16.18,15a75.14,75.14,0,0,0,1.53-17.51l12.2,7.54"/>
              </g>
            </g>
          </g>
        </g>
      </svg>