<?xml version="1.0" encoding="utf-8"?>
<!-- Generator: Adobe Illustrator 24.2.0, SVG Export Plug-In . SVG Version: 6.00 Build 0)  -->
<svg version="1.1" id="Layer_1" xmlns="http://www.w3.org/2000/svg" xmlns:xlink="http://www.w3.org/1999/xlink" x="0px" y="0px"
	 viewBox="0 0 585.7 736.8" style="enable-background:new 0 0 585.7 736.8;" xml:space="preserve">
<style type="text/css">
	.st0{opacity:0.75;fill:#F1E297;stroke:#8E7A26;stroke-miterlimit:10;}
	.st1{fill:#FFFFFF;stroke:#8E7A26;stroke-miterlimit:10;}
	.st2{opacity:0.5;fill:#FFFFFF;stroke:#8E7A26;stroke-miterlimit:10;}
	.st3{fill:none;stroke:#8E7A26;stroke-width:0.9921;stroke-miterlimit:10;}
	.st4{fill:none;stroke:#8E7A26;stroke-miterlimit:10;}
	.st5{fill:#8E7A26;stroke:#8E7A26;stroke-miterlimit:10;}
	.st6{fill:#FFFFFF;stroke:#8E7A26;stroke-width:0.9921;stroke-miterlimit:10;}
	.st7{clip-path:url(#SVGID_2_);}
	.st8{stroke:#8E7A26;stroke-miterlimit:10;}
</style>
<g id="Layer_2_1_">
	<g id="Layer_1-2">
		<g>
			<g>
				<path class="st0" d="M292.8,736.3c-151.2,0-273.7-122.6-273.7-273.7s122.6-273.7,273.7-273.7s273.7,122.6,273.7,273.7
					c0,72.6-28.8,142.2-80.2,193.5C435.2,707.6,365.5,736.5,292.8,736.3z"/>
				<path class="st1" d="M292.8,189.3c150.4,0.2,272.2,122.3,272,272.7S442.5,734.2,292.1,734S19.9,611.7,20.1,461.3
					c0.1-109.3,65.7-208,166.4-250.5C220.1,196.5,256.3,189.2,292.8,189.3 M292.8,188.3c-151.4,0-274.2,122.8-274.2,274.2
					s122.8,274.2,274.2,274.2S567,614,567,462.5S444.3,188.3,292.8,188.3z"/>
			</g>
			<g>
				<circle class="st2" cx="291.8" cy="378.4" r="274.2"/>
				<g>
					<path class="st3" d="M406.4,292.7c-69.1,47.1-160,47.2-229.2,0.2"/>
					<path class="st3" d="M177.2,293c69.1-47.1,160-47.2,229.2-0.2"/>
					<g>
						<g>
							<circle class="st4" cx="291.8" cy="292.2" r="31.1"/>
							<path class="st4" d="M291.8,261.6c16.9,0,30.6,13.7,30.6,30.6c0,16.9-13.7,30.6-30.6,30.6s-30.6-13.7-30.6-30.6
								C261.3,275.3,275,261.6,291.8,261.6 M291.8,260.6c-17.4,0-31.6,14.1-31.6,31.6s14.1,31.6,31.6,31.6s31.6-14.1,31.6-31.6l0,0
								C323.4,274.7,309.3,260.6,291.8,260.6z"/>
						</g>
						<circle class="st5" cx="291.8" cy="292.2" r="16.3"/>
					</g>
				</g>
				<g>
					<line class="st3" x1="292.8" y1="585.7" x2="292.8" y2="0"/>
					<line class="st3" x1="368.6" y1="575.7" x2="217" y2="10"/>
					<line class="st3" x1="439.2" y1="546.4" x2="146.4" y2="39.2"/>
					<line class="st3" x1="499.9" y1="499.9" x2="85.8" y2="85.8"/>
					<line class="st3" x1="546.4" y1="439.2" x2="39.2" y2="146.4"/>
					<line class="st3" x1="575.7" y1="368.6" x2="10" y2="217"/>
					<line class="st3" x1="585.7" y1="292.8" x2="0" y2="292.8"/>
					<line class="st3" x1="575.7" y1="217" x2="10" y2="368.6"/>
					<line class="st3" x1="546.4" y1="146.4" x2="39.2" y2="439.2"/>
					<line class="st3" x1="499.9" y1="85.8" x2="85.8" y2="499.9"/>
					<line class="st3" x1="439.2" y1="39.2" x2="146.4" y2="546.4"/>
					<line class="st3" x1="368.6" y1="10" x2="217" y2="575.7"/>
				</g>
				<path class="st6" d="M324.4,547.1c-2-3.4-1.6-7.7,1-10.7c18.1-20,34-28,48.5-24.5c11.2,2.7,17,11.3,21.6,18.3
					c4.3,6.5,7.2,10.5,12.2,11.6c5.3,1.1,12.6-0.7,18.2-4.7c2.6-1.8,7.2-5.8,8-11.3c0.5-3.8-0.9-7.6-2.7-10.5
					c-1.3-2.1-2.8-4-4.5-5.7c-0.5-0.5-1-1.1-1.4-1.8c-2.5-4.3-1-9.8,3.4-12.3c3.4-2,7.8-1.4,10.6,1.3c2.8,2.8,5.2,5.8,7.2,9.2
					c3.5,5.7,6.4,13.5,5.2,22.4c-1.3,9.1-6.8,17.5-15.5,23.6c-9.8,6.8-22.2,9.7-32.3,7.5c-12.4-2.7-18.5-11.8-23.4-19.2
					c-4-6-6.6-9.8-10.8-10.7c-7.2-1.7-18.2,5.1-31,19.1c-3.3,3.7-9,3.9-12.7,0.6C325.5,548.6,324.9,547.9,324.4,547.1z"/>
				<g>
					<g>
						<defs>
							<circle id="SVGID_1_" cx="291.8" cy="378.4" r="274.2"/>
						</defs>
						<clipPath id="SVGID_2_">
							<use xlink:href="#SVGID_1_"  style="overflow:visible;"/>
						</clipPath>
						<g class="st7">
							<g>
								<g>
									<path class="st1" d="M86,727.3c-5.1,0-8.2-0.3-9.8-2.1c-1.9-2.1-1.9-6.4-1.4-13.3c0.3-3.9,3-18,6.4-35.7
										c6.3-32.5,14.9-77.1,13.6-85.5c-0.8-5-10.6-79.5-10.6-82.4c0-9.2,0.4-17.7,0.8-26c0.4-8.1,0.8-16.5,0.8-25.4
										c0-0.4,0-0.8,0-1.2l0.7-8.8l0.7-5.8c0-0.4,0.1-0.7,0.1-1.1l0.8-24.7v-5.1c0-0.8,0-1.6,0.1-2.4l0.6-5.1l0.4-17.6
										c0-5.4,1.8-16,5.9-16h7.8c2.9,0,4.5,5,4.6,14.2c0,0.8,0.1,1.6,0.2,2.3l1.2,8.5c0.1,0.9,0.2,1.8,0.2,2.7v2.6l0.8,14.1
										l0.8,25c0,0.2,0,0.4,0,0.6l0.5,3.6c0.1,0.7,0.1,1.4,0.2,2.1l0.1,4.2l1,22.4c0,0.7,0.6,1.2,1.2,1.2c0.1,0,0.2,0,0.3,0
										c0.6-0.1,1-0.6,1-1.2l-0.1-30.2l-0.5-4.3c-0.2-1.3-0.3-2.7-0.2-4v-4.4c0-1,0-2,0.1-2.9l0.6-7c0-0.1,0-0.3,0-0.4v-32.7
										c0-1.8-0.1-3.7-0.3-5.5l-0.3-2.5c-0.2-2-0.2-3.9,0-5.9l0.4-3.6c0.2-1.7,0.2-3.3,0.2-5l-0.4-18.5c0-5.7,4-16.3,9.7-16.3h9.8
										c5.8,0,8.9,10.8,8.9,16.4l2.4,126.6c0,0.8,0.6,1.4,1.4,1.4l0,0c0.8,0,1.4-0.6,1.5-1.4c0,0,0,0,0,0l1.8-142.9
										c0-6.6,4.5-19.9,10.4-19.9h9.4c8.4,1.6,12.8,13.8,12.8,19.9l2.5,141.7c0,0.5,0.4,0.9,0.9,0.9c0.1,0,0.2,0,0.3,0
										c1-0.4,1.6-1.3,1.6-2.3l-0.8-117.7c0-6,4.1-14.8,9.7-14.8h9.8c4.7,0,11.3,7.5,11.3,14.8l6.6,109.4c0,4.3,0.3,13.5,0.8,19
										l1.5,43.5c0,0.7,0.6,1.2,1.2,1.1c0.4,0,0.8-0.2,1-0.6l12.1-20.4l0.2-0.4l8.7-23.3c3.1-13,13.4-26.9,24.6-26.9
										c1.1,0,2.2,0.1,3.2,0.4c0.6,0.2,14.5,4.2,12,20.7l-10,41.6c-0.4,1.6-1.1,3.1-2,4.4c-0.1,0.1-0.1,0.2-0.1,0.2
										c-0.3,0.7-0.6,1.4-0.9,2l-18.1,42.4c-3,5.5-15.3,23.8-31.4,34.5c-1.2,0.8-3.2,13.5-8.4,47.2c-4.4,28.7-9.9,64.3-13.8,79
										l-105.4,2.4H97c-2.4,0-4.6,0-6.6,0.1C88.8,727.3,87.3,727.3,86,727.3z"/>
									<path class="st8" d="M169.7,308.9c8.1,1.5,12.3,13.4,12.3,19.4l2.6,141.7c0,0.8,0.7,1.4,1.4,1.4c0.2,0,0.3,0,0.5-0.1
										c1.2-0.4,1.9-1.6,1.9-2.8l-0.8-117.7c0-5.8,3.9-14.3,9.2-14.3h9.8c5.2,0,10.8,8.4,10.8,14.3v0.1l6.6,109.4
										c0,4.3,0.3,13.6,0.8,19l1.5,43.4c0,0.9,0.8,1.7,1.7,1.6c0.6,0,1.1-0.3,1.4-0.8l12.1-20.2l0,0l0,0l0.1-0.2V503l0,0v0
										l8.7-23.3l0,0v-0.1c1.7-6.5,4.7-12.6,9-17.8c3.3-4,8.6-8.7,15.1-8.7c1,0,2.1,0.1,3.1,0.4c0.6,0.2,14.1,4,11.6,20.1
										l-10,41.6c-0.4,1.5-1,3-2,4.3c-0.1,0.1-0.1,0.2-0.2,0.3c-0.2,0.7-0.5,1.3-0.9,1.9l0,0l0,0L258,564.1
										c-3,5.5-15.2,23.7-31.2,34.3c-1.2,0.8-2.5,7.9-8.6,47.5c-4.4,28.4-9.9,63.7-13.7,78.6l-105,2.3H97c-2.4,0-4.7,0-6.6,0.1
										c-1.6,0-3.1,0-4.4,0c-5,0-7.9-0.3-9.4-1.9c-1.8-1.9-1.8-6.2-1.2-12.9c0.3-3.9,3.2-18.6,6.5-35.7
										c6.6-34.4,14.9-77.2,13.6-85.7c-0.1-0.7-10.6-79.2-10.6-82.3c0-9.2,0.4-17.7,0.8-26c0.4-8.1,0.8-16.5,0.8-25.5
										c0-0.4,0-0.8,0-1.2l0.7-8.8l0.7-5.8c0.1-0.4,0.1-0.8,0.2-1.3l0.8-24.8v-5.1c0-0.8,0-1.5,0.1-2.3l0.6-5.1v-0.1l0.4-17.6
										c0-5.5,1.8-15.4,5.4-15.4h7.8c2.5,0,4,5,4.1,13.7c0,0.8,0.1,1.6,0.2,2.4l1.2,8.5c0.1,0.9,0.2,1.8,0.2,2.6v2.7l0.8,14.1
										l0.8,25c0,0.2,0,0.4,0,0.6l0.5,3.6c0.1,0.7,0.1,1.4,0.2,2l0.1,4.3l1,22.3c0,1,0.8,1.7,1.7,1.7c0,0,0,0,0,0
										c0.1,0,0.3,0,0.4,0c0.8-0.2,1.4-0.9,1.4-1.7l-0.1-30.2v-0.1l-0.5-4.3c-0.2-1.3-0.2-2.7-0.2-4v-4.4c0-1,0-1.9,0.1-2.9l0.6-7
										c0-0.2,0-0.3,0-0.5v-32.5c0-1.9-0.1-3.7-0.3-5.6l-0.3-2.5c-0.2-1.9-0.2-3.9,0-5.8l0.4-3.6c0.2-1.7,0.2-3.4,0.2-5.1
										l-0.4-18.5c0-6.1,4.2-15.9,9.2-15.9h9.8c5.2,0,8.4,10.3,8.4,15.9l2.4,126.6c0,1,0.8,1.9,1.9,1.9h0.1c1,0,1.9-0.8,1.9-1.9
										l1.7-142.9c0-6.5,4.5-19.4,9.9-19.4H169.7 M169.7,307.9h-9.4c-6.4,0-10.9,14-10.9,20.4l-1.7,142.9c0,0.5-0.4,0.9-0.9,0.9
										h-0.1c-0.5,0-0.9-0.5-0.9-1l-2.4-126.6c0-6.1-3.3-16.9-9.4-16.9h-9.8c-6.1,0-10.2,10.8-10.2,16.9l0.4,18.5
										c0,1.7,0,3.3-0.2,5l-0.4,3.6c-0.2,2-0.2,4,0,6l0.3,2.5c0.2,1.8,0.3,3.6,0.3,5.5v32.6c0,0.1,0,0.3,0,0.4l-0.6,7
										c-0.1,1-0.1,2-0.1,3v4.4c0,1.4,0.1,2.7,0.3,4.1l0.5,4.3l0.1,30.2c0,0.3-0.3,0.6-0.6,0.7l0,0h-0.2c-0.4,0-0.7-0.3-0.7-0.7
										l-1-22.3L112,445c0-0.7-0.1-1.4-0.2-2.1l-0.5-3.6c0-0.2,0-0.3,0-0.5l-0.8-25l-0.8-14.1V397c0-0.9-0.1-1.9-0.2-2.8l-1.2-8.5
										c-0.1-0.8-0.2-1.5-0.2-2.3c-0.1-5.2-0.7-14.7-5.1-14.7h-7.8c-4.8,0-6.4,11.6-6.4,16.4l-0.4,17.5l-0.6,5.1
										c-0.1,0.8-0.1,1.6-0.1,2.4v5.1L87,440c0,0.3,0,0.7-0.1,1l-0.7,5.8l-0.7,8.8c0,0.4,0,0.9,0,1.3c0,18.1-1.6,33.3-1.6,51.4
										c0,3.2,10.2,80.1,10.6,82.5c1.9,12.9-19.2,109.8-20.1,121.2c-1.2,14.4,0.6,15.9,11.6,15.9c3,0,6.6-0.1,11-0.1h2.6
										l105.7-2.4c7.1-26.8,19.7-124.7,22.1-126.3c16.4-10.9,28.8-29.6,31.6-34.7l0,0l18.1-42.3c0.4-0.6,0.7-1.3,0.9-2
										c0,0,0-0.1,0.1-0.1c1-1.4,1.7-3,2.1-4.6l10-41.6c0,0,0,0,0,0c2.6-17-11.8-21.1-12.3-21.3l0,0c-1.1-0.3-2.2-0.4-3.3-0.4
										c-11.9,0-22.1,15.1-25.1,27.2l-8.7,23.3l-0.1,0.3L228.6,523c-0.1,0.2-0.3,0.3-0.6,0.3c-0.4,0-0.7-0.3-0.7-0.7l-1.5-43.5
										l0,0c-0.5-5.2-0.8-14.3-0.8-18.9l0,0L218.4,351c0-6.1-5.7-15.3-11.8-15.3h-9.8c-6.1,0-10.2,9.2-10.2,15.3l0.8,117.7
										c0,0.8-0.5,1.6-1.3,1.9c0,0-0.1,0-0.1,0c-0.2,0-0.4-0.2-0.4-0.4l0,0l-2.6-141.7c0-6.4-4.5-18.7-13.1-20.3L169.7,307.9z"/>
								</g>
								<g>
									<path class="st1" d="M128.4,355.6h-0.6c-3.4-0.1-5.8-1.3-7.3-3.5c-1.7-2.5-2.5-6.3-2.2-11.7c0.5-11.6,4.2-18.5,9.9-18.5
										h0.3c3.1,0.1,6.2,2.1,8.3,5.4c2.5,4.1,3.6,8.8,3.3,13.6C139.7,350.3,135.5,355.6,128.4,355.6L128.4,355.6z"/>
									<path class="st8" d="M128.2,322.3h0.3c5.8,0.2,11.6,7.2,11.1,18.4c-0.4,9.2-4.4,14.3-11.2,14.3h-0.6
										c-3.2-0.1-5.4-1.2-6.9-3.3c-1.7-2.4-2.4-6.2-2.1-11.4C119.2,329,122.7,322.3,128.2,322.3 M128.2,321.3
										c-6.4,0-10,7.8-10.4,19c-0.5,11.3,3.3,15.5,10,15.8h0.6c6.4,0,11.7-4.3,12.2-15.2c0.5-11.3-5.4-19.2-12.1-19.5L128.2,321.3
										z"/>
								</g>
								<g>
									<path class="st1" d="M165.9,342.1c-8.5,0-13.4-6.2-13.4-17.1c0-11.3,5.4-18.9,13.4-18.9s13.4,7.4,13.4,18.9
										C179.3,335.9,174.4,342.1,165.9,342.1z"/>
									<path class="st8" d="M165.9,306.6c7.8,0,12.9,7.2,12.9,18.4c0,10.7-4.6,16.6-12.9,16.6S153,335.7,153,325
										C153,313.8,158.1,306.6,165.9,306.6 M165.9,305.6c-7.7,0-13.9,6.8-13.9,19.4s6.2,17.6,13.9,17.6s13.9-5,13.9-17.6
										S173.6,305.6,165.9,305.6z"/>
								</g>
								<g>
									<path class="st1" d="M202.4,360.3c-5.6,0-12.4-2.3-12.4-13.3c0-9.4,5-15.7,12.4-15.7s12.4,6.3,12.4,15.7
										C214.9,358,208.1,360.3,202.4,360.3z"/>
									<path class="st8" d="M202.4,331.8c7.1,0,11.9,6.1,11.9,15.2c0,5.9-2.1,12.8-11.9,12.8s-11.9-7-11.9-12.8
										C190.6,337.9,195.3,331.8,202.4,331.8 M202.4,330.8c-7.1,0-12.9,5.9-12.9,16.2s5.8,13.8,12.9,13.8s12.9-3.6,12.9-13.8
										S209.6,330.8,202.4,330.8z"/>
								</g>
								<line class="st4" x1="205.7" y1="382.9" x2="191.9" y2="382.9"/>
								<line class="st4" x1="205.7" y1="385.3" x2="191.9" y2="385.3"/>
								<line class="st4" x1="135.5" y1="372.6" x2="117.8" y2="374.2"/>
								<line class="st4" x1="135.5" y1="375" x2="117.8" y2="376.6"/>
								<line class="st4" x1="172.6" y1="368.7" x2="158.8" y2="368.7"/>
								<line class="st4" x1="172.6" y1="371.1" x2="158.8" y2="371.1"/>
								<line class="st4" x1="105.9" y1="407.4" x2="91.7" y2="408.9"/>
								<line class="st4" x1="104.5" y1="410.4" x2="91.9" y2="412"/>
								<line class="st4" x1="106.3" y1="444.5" x2="90.9" y2="446"/>
								<line class="st4" x1="101.2" y1="440.5" x2="90.5" y2="442.9"/>
								<line class="st4" x1="105.1" y1="447.6" x2="90.9" y2="449.2"/>
								<line class="st4" x1="134.7" y1="423.9" x2="120.1" y2="427.1"/>
								<line class="st4" x1="134.7" y1="426.3" x2="120.1" y2="429.5"/>
								<line class="st4" x1="134.7" y1="431" x2="120.1" y2="434.2"/>
								<line class="st4" x1="171.8" y1="420" x2="158" y2="420"/>
								<line class="st4" x1="171.8" y1="422.4" x2="158" y2="422.4"/>
								<line class="st4" x1="171.8" y1="427.1" x2="158" y2="427.1"/>
								<line class="st4" x1="207.3" y1="431.8" x2="193.5" y2="431.8"/>
								<line class="st4" x1="207.3" y1="434.2" x2="193.5" y2="434.2"/>
								<line class="st4" x1="207.3" y1="437.4" x2="193.5" y2="437.4"/>
								<line class="st4" x1="275.2" y1="503.8" x2="261.8" y2="500.6"/>
								<line class="st4" x1="274.7" y1="506.1" x2="261.3" y2="502.9"/>
								<line class="st4" x1="274" y1="509.1" x2="260.5" y2="506"/>
								<g>
									<path class="st1" d="M98.8,391.1c-5,0-7.4-3.4-7.4-10.5c0-7.4,2.4-14.8,7.1-14.8c4.3,0,6.9,5,6.9,13.3
										S103.2,391.1,98.8,391.1z"/>
									<path class="st8" d="M98.6,366.2c4,0,6.4,4.8,6.4,12.8c0,7.8-2,11.6-6.1,11.6c-3.2,0-6.9-1.1-6.9-10
										C91.9,373.4,94.2,366.2,98.6,366.2 M98.6,365.2c-4.9,0-7.6,7.3-7.6,15.3s3,11,7.9,11s7.1-4.6,7.1-12.6
										S103.5,365.2,98.6,365.2L98.6,365.2z"/>
								</g>
								<g>
									<path class="st1" d="M278.6,479.9c-2.6-0.1-5.1-0.5-7.6-1.2c-3.5-0.7-6.5-2.9-8.3-5.9c-1.7-3-2.1-6.8-1.1-10.9
										c1.7-7.2,7.8-12.4,14.4-12.4c1,0,2,0.1,3,0.4c7.5,1.8,11.9,9.8,10,18.6C286.8,478.6,282.3,479.9,278.6,479.9L278.6,479.9z"
										/>
									<path class="st8" d="M276,450c1,0,1.9,0.1,2.9,0.3c7.3,1.8,11.4,9.5,9.6,18c-1.1,5.5-3.2,11-9.9,11
										c-2.5-0.1-5.1-0.5-7.5-1.2c-7.4-1.8-11-8.1-9-16.2C263.8,455.1,269.6,450,276,450 M276,449c-6.8,0-13.1,5.2-14.9,12.7
										c-2.1,8.7,1.9,15.5,9.8,17.4c2.5,0.7,5.1,1.1,7.8,1.3c4.8,0,8.9-2.4,10.9-11.8c1.9-9.2-2.6-17.3-10.4-19.2
										C278.1,449.1,277.1,449,276,449L276,449z"/>
								</g>
							</g>
						</g>
						<use xlink:href="#SVGID_1_"  style="overflow:visible;fill:none;stroke:#8E7A26;stroke-miterlimit:10;"/>
					</g>
					<circle class="st4" cx="291.8" cy="378.4" r="274.2"/>
				</g>
				<path class="st6" d="M452.9,615.6c-2,1.1,10,31.5,18.1,28.9c2-0.8,3.5-2.5,4.1-4.5c0.4-2.5-3-3.8-3.9-4.2
					C460.4,631.1,454.4,614.8,452.9,615.6z"/>
				<path class="st6" d="M423.2,610.4c-13.8-12.4-3-38.7,11.5-39.8c12.5-1,26.8,17,31.9,27.8c2.3,4.9,4.5,9.5,1.3,13.5
					c-5.3,6.8-23.1,8.2-35.3,3.8C429.2,614.5,426,612.7,423.2,610.4z"/>
				<path class="st6" d="M536.2,481.3c-1.9-1.2-47.5,152.7-41.4,158.5c1.7,1.4,3.9,1.9,6,1.4c2.4-0.9,1.9-4.4,1.8-5.5
					C501.1,618.4,537.6,482.2,536.2,481.3z"/>
				<path class="st6" d="M472.5,436.2c-6.2,0.4-13.7,199.2,8.7,207.2c4.8,1.7,12.4-4.7,15.2-13.6c3.9-12.6-2.5-28.9-4.3-34
					C472,541.4,477,435.9,472.5,436.2z"/>
				<path class="st6" d="M537.9,450.9c18.4-2.1,30.9,23.4,22.2,35c-7.6,10-30.5,8.8-42,5.5c-5.2-1.5-10.1-3-11-8
					c-1.5-8.5,9.2-22.7,20.6-29C530.9,452.6,534.3,451.4,537.9,450.9z"/>
				<path class="st6" d="M541,411.5c-18.9,41.7-97.9,49.6-114.9,21.9c-14.7-24.1,18.4-73,41.4-95.5c10.5-10.2,20.5-19.7,33.9-17.9
					c22.8,3.1,43.6,37.2,44.1,66.9C545.7,390.8,545.8,401.1,541,411.5z"/>
				<path class="st6" d="M433.9,127.5c-7,0-13.6,3.2-18,8.7c-5.2-9-13.6-15.8-23.6-18.8c-4.4-18.5-20.8-31.5-39.8-31.5
					c-1.2,0-2.4,0.1-3.6,0.2c-28.5-34.1-79.3-38.5-113.3-10c-2.4,2-4.7,4.2-6.9,6.5c-28.8-8.9-59.3,7.2-68.2,36
					c-1.2,3.8-1.9,7.7-2.2,11.6c-17.5,2.4-29.7,18.6-27.3,36.1c2.4,17.5,18.6,29.7,36.1,27.3c7.7-1.1,14.8-4.9,19.9-10.8
					c11.5,6.1,24.7,8,37.4,5.2c27.7,34.8,78.3,40.5,113.1,12.8c5.4-4.3,10.3-9.3,14.4-14.9c16.2,15.8,42.1,15.4,57.8-0.7
					c4.5-4.7,7.9-10.3,9.8-16.5c9.9,7.9,24.4,6.3,32.3-3.7s6.3-24.4-3.7-32.3C444.1,129.3,439.1,127.6,433.9,127.5L433.9,127.5z"/>
			</g>
		</g>
	</g>
</g>
</svg>
