<svg xmlns="http://www.w3.org/2000/svg" viewBox="0 0 810.08 829">
  <g id="Layer_2" data-name="Layer 2">
    <g id="Layer_1-2" data-name="Layer 1">
      <g>
        <g>
          <path d="M135.14,464.5a32.73,32.73,0,0,1-19.06-6.07c-.37-.26-.72-.53-1.07-.8a15.6,15.6,0,0,0-9.48-3.27,15,15,0,0,0-4.47.68,66.72,66.72,0,0,1-20,3.07A66.53,66.53,0,1,1,120.6,338.05a66.8,66.8,0,0,1,27,53.82,15.44,15.44,0,0,0,6.6,12.65l.59.43a31.43,31.43,0,0,1,2.77,2.29l.36.33.34-.35a21.49,21.49,0,0,1,12.41-6.42,22.38,22.38,0,0,1,3.27-.24,21.86,21.86,0,0,1,21.46,18.49,23.5,23.5,0,0,1,.23,2.4l0,.44.43,0c9.89.84,20.12,1.27,30.39,1.27,39.68,0,79.53-6.49,101.52-16.54,1.7-.77,3.62-1.68,5.75-2.69,19.46-9.22,55.68-26.37,105.17-29.15,2.31-.13,7.7-.2,16-.2,60.09,0,252.05,3.36,287.68,5.16-10.77.3-35.73.33-65.48.37-97.39.14-260.39.37-290.55,9.25C368,394.87,355.82,400.92,344,406.78c-11.2,5.56-22.78,11.31-39.77,16.49-19.4,5.91-44.24,8.91-73.83,8.91h0c-9.12,0-16.73-.27-22.29-.47-2.91-.11-5.2-.19-6.64-.19-.55,0-1,0-1.29,0l-.24,0-.13.2c-3.13,4.82-9.77,10.21-16.42,11.21a70.59,70.59,0,0,1-9.08.54,27.39,27.39,0,0,1-7.59-.72l-.46-.16-.16.46a33.05,33.05,0,0,1-31,21.39Z" style="fill: #fff"/>
          <path d="M81.15,325.54a65.52,65.52,0,0,1,39.15,12.91,66.33,66.33,0,0,1,26.83,53.42,16,16,0,0,0,6.8,13.06c.2.13.39.27.58.42a34.06,34.06,0,0,1,2.74,2.25l.71.66.67-.7a21.06,21.06,0,0,1,12.13-6.27,21.22,21.22,0,0,1,24.17,17.84,22.35,22.35,0,0,1,.22,2.34l0,.87.87.08c9.9.84,20.14,1.26,30.43,1.26,39.74,0,79.67-6.5,101.73-16.58,1.7-.77,3.58-1.66,5.75-2.69,19.43-9.2,55.59-26.33,105-29.11,2.3-.13,7.68-.19,16-.19,51.94,0,206.06,2.58,267.55,4.42-12.22.07-28,.09-45.34.12-97.42.13-260.47.36-290.7,9.27-18.62,5.48-30.83,11.55-42.64,17.42-11.18,5.55-22.74,11.29-39.7,16.46-19.34,5.9-44.13,8.89-73.68,8.89-9.11,0-16.72-.28-22.27-.48-2.91-.1-5.21-.19-6.66-.19-.58,0-1,0-1.33,0l-.48,0-.27.41c-3.06,4.72-9.57,10-16.07,11a69.11,69.11,0,0,1-9,.54,26.89,26.89,0,0,1-7.42-.7L166,442l-.34.91A32.49,32.49,0,0,1,135.14,464a32.14,32.14,0,0,1-18.77-6c-.36-.25-.71-.51-1.06-.78a16.09,16.09,0,0,0-9.78-3.38,15.42,15.42,0,0,0-4.62.71A66.36,66.36,0,0,1,81,457.62,66.05,66.05,0,0,1,52,332.31a66.64,66.64,0,0,1,29.2-6.77m0-1a67,67,0,1,0,20.06,131,14.25,14.25,0,0,1,4.32-.66A15,15,0,0,1,114.7,458c.36.28.72.55,1.09.81a33.58,33.58,0,0,0,46.3-7.31,33.69,33.69,0,0,0,4.5-8.24,28.36,28.36,0,0,0,7.75.75,72.39,72.39,0,0,0,9.16-.54c6.54-1,13.41-6.29,16.75-11.44.3,0,.72,0,1.25,0,4.09,0,14.87.66,28.93.66,21.09,0,49.56-1.49,74-8.93,34.86-10.63,46.09-23.2,82.34-33.88,43.2-12.73,361.89-7.65,361.78-10.06-.07-1.63-228.12-5.69-293.58-5.69-8.05,0-13.63.06-16,.19-55.12,3.1-94.2,24.17-111.11,31.89-20.62,9.42-59.3,16.49-101.31,16.49-10,0-20.17-.4-30.35-1.26a22.78,22.78,0,0,0-.23-2.45,22.23,22.23,0,0,0-38-12.11,35.49,35.49,0,0,0-2.82-2.32l-.6-.44a14.91,14.91,0,0,1-6.38-12.24,67,67,0,0,0-67-67.32Z"/>
        </g>
        <g>
          <path d="M436,356.47A27.59,27.59,0,0,1,414.36,346l-.19-.24-.3.07a18.7,18.7,0,0,1-12.77-1.76l-.35-.19-.26.3a10.71,10.71,0,1,1-9.59-17.6l.4-.05,0-.4a18.62,18.62,0,0,1,24.05-16.25l.29.09.22-.22A27.4,27.4,0,0,1,436,301.08a27.68,27.68,0,0,1,21.23,9.9l.16.2.26,0a12.1,12.1,0,0,1,1.21-.06,13.78,13.78,0,0,1,13.46,10.66l.06.28.28.08a13.8,13.8,0,0,1,8,6.37l.36.63.46-.57a7.57,7.57,0,1,1,5.92,12.29,7.45,7.45,0,0,1-4.74-1.67l-.57-.46-.22.7A13.82,13.82,0,0,1,459,345.25l-.41-.4-.34.46A27.46,27.46,0,0,1,436,356.47Z" style="fill: #fff"/>
          <path d="M436,301.57a27.18,27.18,0,0,1,20.85,9.73l.33.4.51-.05c.39,0,.79,0,1.17,0a13.26,13.26,0,0,1,13,10.27l.14.56.54.16a13.36,13.36,0,0,1,7.69,6.14L481,330l.92-1.14a7.08,7.08,0,1,1,1.1,9.93l-1.14-.92-.43,1.4a13.34,13.34,0,0,1-22.06,5.62l-.81-.79-.67.91a27.22,27.22,0,0,1-43.11.71l-.38-.49-.61.13a17.63,17.63,0,0,1-3.89.43,18.14,18.14,0,0,1-8.54-2.14l-.7-.37-.52.6A10.22,10.22,0,1,1,391,327.09l.79-.1.07-.8a18.19,18.19,0,0,1,18-16.62,18,18,0,0,1,5.36.81l.59.18.43-.45A26.92,26.92,0,0,1,436,301.57m0-1a28.09,28.09,0,0,0-20.5,8.85,19.12,19.12,0,0,0-24.69,16.68,11.21,11.21,0,1,0,10,18.42,19.09,19.09,0,0,0,13.11,1.8,28.18,28.18,0,0,0,44.67-.73,14.33,14.33,0,0,0,23.7-6,8.08,8.08,0,1,0-1.26-11.32,14.37,14.37,0,0,0-8.26-6.59,14.33,14.33,0,0,0-13.94-11c-.43,0-.84,0-1.25.05A28.15,28.15,0,0,0,436,300.58Z"/>
        </g>
        <g>
          <path d="M324.54,527.88a14.87,14.87,0,0,1-8.69-2.77l-.49-.36a7.46,7.46,0,0,0-4.56-1.57,7.53,7.53,0,0,0-2.16.32,30.53,30.53,0,0,1-26.2-3.75l-.44-.29-.27.45a13,13,0,1,1-12.8-19.49l.53-.07-.1-.51A30.73,30.73,0,0,1,274.9,476a30.64,30.64,0,0,1,51.27,3.33l.21.37.39-.15a14.52,14.52,0,0,1,19.53,13.6,14.28,14.28,0,0,1-1.05,5.41l-.19.49.5.17a9.76,9.76,0,0,1,6.71,7.89,9.88,9.88,0,0,1,.11,1.08v.44l.44,0c4.6.39,9.36.59,14.13.59,16.62,0,33-2.37,43.89-6.33l.88-.32L411,502a7.54,7.54,0,1,1,12-6.1c0,.19,0,.37,0,.55l0,.5.5,0,.35,0,.14,0L424,497a119.5,119.5,0,0,1,41.6-10.24c1.58-.09,9.29-.14,22.89-.14,44,0,134,.46,192.91,1H678c-21.64-.07-48.57-.15-75.43-.15-96.6,0-147.55,1.18-155.79,3.6a197.84,197.84,0,0,0-19.54,7.26l-.54.25.35.49a4.85,4.85,0,1,1-8.54,4.35l-.16-.47-.48.16a6.77,6.77,0,0,1-.93.25l-.06,0-.06,0A96.3,96.3,0,0,1,403,508.75c-9,2.74-20.49,4.13-34.21,4.13-4.23,0-7.76-.13-10.34-.22-1.37,0-2.42-.09-3.09-.09l-.62,0-.24,0-.13.2a12,12,0,0,1-7.44,5.09,32.21,32.21,0,0,1-4.18.25,12.87,12.87,0,0,1-3.44-.32l-.45-.16-.18.45a14.86,14.86,0,0,1-2,3.71A15.15,15.15,0,0,1,324.54,527.88Z" style="fill: #fff"/>
          <path d="M299.48,463.17v1a30.2,30.2,0,0,1,26.26,15.39l.41.74.8-.29a13.78,13.78,0,0,1,4.85-.87,14,14,0,0,1,14,14,13.86,13.86,0,0,1-1,5.22l-.39,1,1,.33a9.26,9.26,0,0,1,6.37,7.49,8.76,8.76,0,0,1,.1,1l0,.87.87.08c4.61.39,9.38.59,14.17.59,16.68,0,33.15-2.38,44.06-6.37l1.75-.63-1.5-1.1a7,7,0,1,1,11.19-5.7c0,.17,0,.34,0,.51l-.07,1,1,.07a1.73,1.73,0,0,1,.32,0l.27,0,.25-.11a119.58,119.58,0,0,1,41.44-10.2c1.08-.06,5.92-.13,22.85-.13,11.31,0,25.74,0,41.92.08-50.74.48-77.79,1.58-83.79,3.35A196.81,196.81,0,0,0,427,497.84l-1.08.51.69,1a4.31,4.31,0,0,1,.81,2.53,4.34,4.34,0,0,1-8.47,1.37l-.32-1-.95.33a7.57,7.57,0,0,1-.87.24l-.12,0-.11.05a95.4,95.4,0,0,1-13.75,5.37c-8.93,2.72-20.39,4.1-34.06,4.1-4.22,0-7.75-.13-10.32-.22-1.36,0-2.43-.09-3.11-.09l-.66,0-.49,0-.26.41a11.73,11.73,0,0,1-7.1,4.87,31.16,31.16,0,0,1-4.1.24,11.11,11.11,0,0,1-3.27-.29l-.92-.32-.34.91a14.59,14.59,0,0,1-13.68,9.44,14.43,14.43,0,0,1-8.4-2.68l-.48-.35a8,8,0,0,0-4.86-1.68,7.72,7.72,0,0,0-2.3.35,30.4,30.4,0,0,1-9.08,1.39,29.87,29.87,0,0,1-16.71-5.08l-.87-.58-.53.9A12.5,12.5,0,1,1,269,500.91l1-.13-.19-1a30.23,30.23,0,0,1,5.45-23.47,29.88,29.88,0,0,1,24.18-12.12v-1m0,0a31.08,31.08,0,0,0-30.61,36.76,13.48,13.48,0,1,0,13.29,20.24,31,31,0,0,0,17.26,5.24,31.32,31.32,0,0,0,9.37-1.43,6.63,6.63,0,0,1,2-.31,7,7,0,0,1,4.26,1.47l.5.38a15.6,15.6,0,0,0,21.5-3.4,15.7,15.7,0,0,0,2.09-3.82,13.45,13.45,0,0,0,3.6.34,32.58,32.58,0,0,0,4.25-.25,12.61,12.61,0,0,0,7.78-5.31h.58c1.9,0,6.9.3,13.43.3,9.79,0,23-.69,34.35-4.14A97.36,97.36,0,0,0,417,503.81a8,8,0,0,0,1-.27,5.35,5.35,0,1,0,9.42-4.8,194.3,194.3,0,0,1,19.47-7.23c10.16-3,84.62-3.59,155.63-3.59,46.4,0,91.33.25,115.87.25,12.05,0,19.18-.06,19.17-.24,0-.71-183.23-1.79-249.08-1.79-12.86,0-21.24,0-22.91.13a121,121,0,0,0-41.77,10.28l-.39,0a5.83,5.83,0,0,0,0-.59,8,8,0,1,0-12.78,6.5c-10.08,3.68-26.28,6.31-43.72,6.31-4.64,0-9.37-.19-14.09-.59a8.79,8.79,0,0,0-.11-1.14,10.32,10.32,0,0,0-7.05-8.29,14.8,14.8,0,0,0,1.08-5.59,15,15,0,0,0-20.19-14.06,31.14,31.14,0,0,0-27.12-15.9Z"/>
        </g>
        <g>
          <path d="M268.78,684.57c-6.78,0-13.61-2.84-15.24-6.33a4.59,4.59,0,0,1-.32-1l-.06-.31-.3-.08a34.46,34.46,0,0,1-14.4-7.67l-.16-.14-.2,0c-2.4.14-5,.21-7.76.21-23,0-50.49-4.79-55-6.32-2.57-.86-5.24-1.62-7.95-2.26l-.74-.17.14.75a7.08,7.08,0,0,1,.11,1.12,6.32,6.32,0,0,1-11.26,4l-.39-.48-.39.47a19.28,19.28,0,0,1-32.3-4l-.41-.85-.47.81a25,25,0,0,1-40.51,3.87,25,25,0,0,1,30.27-38.58l.39.19.24-.36a19.63,19.63,0,0,1,3.3-3.69,19.29,19.29,0,0,1,31.75,12.15l0,.29.27.11a19.06,19.06,0,0,1,7.12,5.16,19.28,19.28,0,0,1,4.7,12.66v.47l.47,0a170.07,170.07,0,0,1,22.82,2.74c6.53,1.24,11.32,2.48,15.54,3.58,7.38,1.91,12.71,3.3,22,3.3,1.24,0,2.56,0,3.92-.08,2.95-.12,5.75-.33,8.57-.67l.8-.1-.45-.67a34.39,34.39,0,0,1-3.67-7l-.14-.36-.38,0c-4,.52-7.45,1-10.4,1.39-4.41.6-7.64,1-9.7,1.26,2.89-.83,8.72-2.28,19.31-4.54l.52-.11-.14-.51a34.45,34.45,0,0,1,30.09-43.78c1-.09,2.06-.14,3.08-.14a34.52,34.52,0,0,1,33.75,27.66l.07.4h.41a18.78,18.78,0,0,1,5.18.78l.3.09.21-.23a27.45,27.45,0,0,1,20.07-8.86h.24a27.47,27.47,0,0,1,16.77,5.66l.16.12.2,0c31.3-4.08,57.11-6.15,76.7-6.15,14.57,0,25.66,1.17,32.94,3.46a13.4,13.4,0,0,1,3.39,1.44,21.53,21.53,0,0,0,4.47,1.92c6.76,2.27,20.8,3.42,41.72,3.42,64.07,0,181-10.69,250.89-17.08,24.75-2.26,44.11-4,54-4.69-14.45,1.93-48.52,6-77.13,9.45-28.08,3.36-52.34,6.27-56.57,6.94s-92,9.9-162,9.9h0c-25.38,0-44.94-1.27-58.12-3.75-4.93-.93-8.86-1.78-12.33-2.53-8.47-1.83-14.06-3-23.65-3-1.7,0-3.47,0-5.43.11l-4.89.18c-13,.46-21.52.76-43.88,4.27-2.57.4-5,.8-7.32,1.18l-1.36.22,1.19.7a13.86,13.86,0,0,1,6,7.15l.13.36.39,0c25.6-2.56,44.07-5,55.1-6.51,4.61-.62,8-1.07,10.06-1.29-7,2-28.95,6.82-58.59,12.17l-.91.16.64.67a13.66,13.66,0,0,1,2,2.65l.36.63.46-.57A7.53,7.53,0,0,1,373,653a7.58,7.58,0,0,1,6.51,11.56l-.48.76h.9c19.22,0,87.16-.2,154.36-.2,54.9,0,84.58.1,100.33.23-30.28.7-96.21,1.7-156.15,2.6-42.44.64-82.53,1.24-111.88,1.76h-.27l-.14.24a13.75,13.75,0,0,1-11.73,6.69h-.13a13.75,13.75,0,0,1-9.56-3.84l-.41-.4-.34.46a27.44,27.44,0,0,1-22.12,11.35h-.24a27.6,27.6,0,0,1-21.52-10.26l-.19-.24-.3.07a18.68,18.68,0,0,1-4,.47h-.15a18.82,18.82,0,0,1-4.24-.49l-.32-.07-.2.27a13,13,0,0,1-9.19,5.37l-.21,0-.13.17c-.16.21-.31.4-.46.57C278.18,683,273.93,684.57,268.78,684.57Z" style="fill: #fff"/>
          <path d="M261.42,609.47a34,34,0,0,1,33.26,27.26l.16.79h.8a17.85,17.85,0,0,1,5.05.76l.59.17.42-.45a26.93,26.93,0,0,1,19.71-8.7h.24a27,27,0,0,1,16.47,5.55l.32.25.41-.05c31.28-4.08,57.06-6.14,76.63-6.14,14.53,0,25.56,1.16,32.8,3.44a13.74,13.74,0,0,1,3.28,1.38,21.17,21.17,0,0,0,4.56,2c6.91,2.32,20.61,3.45,41.88,3.45,64.1,0,181.06-10.7,250.94-17.09,12-1.09,22.69-2.07,31.67-2.86-16.19,2-36.68,4.45-54.94,6.63-28.08,3.37-52.34,6.28-56.58,6.95s-91.92,9.89-161.89,9.89c-25.35,0-44.88-1.26-58-3.74-4.93-.93-8.86-1.78-12.32-2.53-8.5-1.83-14.12-3-23.76-3-1.7,0-3.49,0-5.45.11l-4.89.17c-13,.46-21.55.76-43.93,4.28-2.58.4-5,.8-7.33,1.18l-2.72.45,2.38,1.39a13.32,13.32,0,0,1,5.81,6.89l.26.72.77-.08c25.6-2.56,44.07-5,55.11-6.51l1.91-.26c-10.54,2.46-28.53,6.18-50.59,10.16l-1.82.33,1.29,1.34a13.31,13.31,0,0,1,1.94,2.55l.73,1.26.91-1.15a7,7,0,0,1,5.51-2.72h.06a7.08,7.08,0,0,1,6,10.81l-.94,1.52h1.79c19.19,0,87.05-.2,154.27-.2,23.91,0,43,0,58.31.06-32.74.56-74.71,1.19-114.07,1.78-42.43.64-82.51,1.25-111.86,1.76H366l-.28.47a13.27,13.27,0,0,1-11.31,6.46h-.11a13.29,13.29,0,0,1-9.23-3.71l-.82-.79-.67.92a27,27,0,0,1-21.73,11.15h-.23a27.11,27.11,0,0,1-21.13-10.08l-.39-.48-.6.13a17.74,17.74,0,0,1-3.89.46h-.16a18.46,18.46,0,0,1-4.12-.47l-.64-.15-.39.54a12.43,12.43,0,0,1-8.84,5.16l-.43,0-.26.35c-.14.19-.29.37-.43.53-2.46,2.79-6.57,4.33-11.58,4.33-6.6,0-13.24-2.71-14.79-6.05a4.2,4.2,0,0,1-.28-.91l-.12-.62-.61-.16a34,34,0,0,1-14.19-7.56l-.31-.27-.41,0c-2.39.14-5,.21-7.73.21-22.93,0-50.35-4.77-54.86-6.29-2.59-.87-5.28-1.63-8-2.27l-1.48-.35.28,1.5a6.09,6.09,0,0,1,.1,1,5.82,5.82,0,0,1-5.77,5.87h-.05A5.83,5.83,0,0,1,156,666l-.76-1-.78.95a19,19,0,0,1-2.21,2.27,18.79,18.79,0,0,1-26.5-1.89,19.13,19.13,0,0,1-2.76-4.23l-.81-1.71-1,1.64a24.48,24.48,0,0,1-39.7,3.79,24.48,24.48,0,0,1,29.66-37.82l.78.4.49-.73a18.8,18.8,0,0,1,29.71-1.7,18.69,18.69,0,0,1,4.43,10l.08.57.53.22a18.54,18.54,0,0,1,6.93,5,18.76,18.76,0,0,1,4.58,12.34v.94l.94,0a170.83,170.83,0,0,1,22.76,2.74c6.51,1.23,11.29,2.47,15.51,3.57,7.41,1.92,12.77,3.31,22.08,3.31,1.25,0,2.58,0,3.94-.08,3-.11,5.78-.33,8.6-.67l1.62-.19-.91-1.35a33.34,33.34,0,0,1-3.61-6.93l-.28-.74-.78.11c-4,.52-7.43,1-10.37,1.39l-1.56.21c3-.69,6.68-1.53,11.32-2.52l1-.22-.29-1a34.65,34.65,0,0,1-1.16-6.32,34,34,0,0,1,30.82-36.83c1-.09,2-.13,3-.13m0-1c-1,0-2.08,0-3.13.14a34.94,34.94,0,0,0-31.73,37.9,35.53,35.53,0,0,0,1.2,6.5c-13.92,3-22.31,5.14-22,5.61.05.06.23.09.56.09,2,0,9.47-1.14,22.34-2.83a34.82,34.82,0,0,0,3.72,7.14c-2.67.32-5.44.54-8.53.66-1.37,0-2.67.08-3.9.08-14.5,0-19.56-3.5-37.41-6.86a169.44,169.44,0,0,0-22.89-2.76,19.76,19.76,0,0,0-12.12-18.28A19.78,19.78,0,0,0,115,623.4a20.11,20.11,0,0,0-3.38,3.79,25.48,25.48,0,1,0,10.45,35.41A19.74,19.74,0,0,0,140,673.88a19.89,19.89,0,0,0,15.27-7.22,6.82,6.82,0,0,0,5.33,2.57h.06a6.82,6.82,0,0,0,6.75-6.87,6,6,0,0,0-.12-1.21c2.64.62,5.28,1.36,7.92,2.24,4.67,1.58,32.47,6.34,55.17,6.34,2.68,0,5.29-.06,7.79-.21a35,35,0,0,0,14.6,7.79,5.44,5.44,0,0,0,.36,1.14c1.73,3.73,8.76,6.62,15.69,6.62,4.72,0,9.39-1.34,12.32-4.66q.24-.27.48-.6a13.42,13.42,0,0,0,9.55-5.57,19.37,19.37,0,0,0,4.34.49h.17a19.16,19.16,0,0,0,4.1-.48,28.13,28.13,0,0,0,21.9,10.45h.24a28.16,28.16,0,0,0,22.52-11.56,14.29,14.29,0,0,0,9.92,4h.12a14.32,14.32,0,0,0,12.15-6.94c89.3-1.57,285.28-4.06,285.05-5-.11-.45-53.83-.59-117.46-.59-52.93,0-112.73.1-154.26.2a8.07,8.07,0,0,0-6.87-12.32H373a8.07,8.07,0,0,0-6.29,3.1,13.94,13.94,0,0,0-2.08-2.74c35.68-6.44,61.79-12.39,61.15-13.22q-.08-.09-.57-.09c-3.79,0-26.25,3.85-67.29,8a14.37,14.37,0,0,0-6.24-7.4c2.33-.38,4.75-.78,7.32-1.18,25-3.94,32.92-3.84,48.71-4.44,1.95-.08,3.75-.11,5.41-.11,13.36,0,18.68,2.3,35.89,5.55,14.44,2.73,35.18,3.76,58.21,3.76,68.12,0,156.4-9,162.05-9.9,10.24-1.61,141.07-16.76,140.83-17.5,0-.1-.49-.15-1.33-.15-18.2,0-218.28,22-310.75,22-19.63,0-34.4-1-41.56-3.4-5.23-1.76-3.63-2-7.87-3.36-7.76-2.45-19.26-3.48-33.09-3.48-21.65,0-49,2.53-76.76,6.14a28.09,28.09,0,0,0-17.07-5.76h-.25a28.13,28.13,0,0,0-20.43,9,19.39,19.39,0,0,0-5.32-.8,35,35,0,0,0-34.22-28Z"/>
        </g>
        <g>
          <g>
            <path d="M249.58,449.46a1.78,1.78,0,0,1-1.18-.63,1.81,1.81,0,0,1-.39-1.28l15.6-160.11a1.76,1.76,0,0,1,1.74-1.58h.17a1.75,1.75,0,0,1,1.57,1.91l-15.6,160.11a1.76,1.76,0,0,1-1.74,1.57Z" style="fill: #fff"/>
            <path d="M265.35,286.36h.12a1.26,1.26,0,0,1,1.13,1.37L251,447.84a1.27,1.27,0,0,1-1.25,1.13h-.12a1.22,1.22,0,0,1-.84-.45,1.17,1.17,0,0,1-.28-.91l15.6-160.12a1.25,1.25,0,0,1,1.24-1.12m0-1a2.24,2.24,0,0,0-2.23,2L247.52,447.5a2.25,2.25,0,0,0,2,2.45h.22a2.24,2.24,0,0,0,2.23-2l15.6-160.11a2.25,2.25,0,0,0-2-2.45Z"/>
          </g>
          <g>
            <path d="M248.27,449.33a1.75,1.75,0,0,1-1.68-1.81l5.24-160.78a1.77,1.77,0,0,1,1.75-1.69,1.74,1.74,0,0,1,1.27.55,1.77,1.77,0,0,1,.48,1.25l-5.25,160.79a1.77,1.77,0,0,1-1.75,1.69Z" style="fill: #fff"/>
            <path d="M253.58,284.55l0,1a1.31,1.31,0,0,1,.87.4,1.25,1.25,0,0,1,.34.9l-5.25,160.78a1.27,1.27,0,0,1-1.29,1.21h0a1.26,1.26,0,0,1-1.21-1.29l5.25-160.79a1.26,1.26,0,0,1,1.25-1.21v-1m0,0a2.25,2.25,0,0,0-2.24,2.17l-5.25,160.79a2.25,2.25,0,0,0,2.17,2.31h.07a2.25,2.25,0,0,0,2.24-2.17l5.25-160.78a2.25,2.25,0,0,0-2.17-2.32Z"/>
          </g>
          <g>
            <path d="M249.66,449.46a1.78,1.78,0,0,1-1.73-1.46L220.78,289.44a1.72,1.72,0,0,1,.3-1.3,1.75,1.75,0,0,1,1.13-.72l.29,0a1.77,1.77,0,0,1,1.73,1.45l27.15,158.56a1.75,1.75,0,0,1-1.43,2Z" style="fill: #fff"/>
            <path d="M222.5,287.9a1.26,1.26,0,0,1,1.24,1L250.89,447.5a1.25,1.25,0,0,1-1,1.44l-.21,0a1.27,1.27,0,0,1-1.24-1L221.27,289.36a1.26,1.26,0,0,1,1-1.45h.21m0-1a1.55,1.55,0,0,0-.37,0,2.25,2.25,0,0,0-1.84,2.59l27.16,158.56a2.24,2.24,0,0,0,2.21,1.86,2.31,2.31,0,0,0,.37,0,2.25,2.25,0,0,0,1.84-2.59L224.72,288.77a2.27,2.27,0,0,0-2.22-1.87Z"/>
          </g>
          <g>
            <path d="M249.75,449.46a1.62,1.62,0,0,1-.31,0,1.76,1.76,0,0,1-1.41-2l28.86-158.26a1.74,1.74,0,0,1,1.72-1.43l.31,0a1.73,1.73,0,0,1,1.12.72,1.7,1.7,0,0,1,.28,1.31L251.47,448A1.74,1.74,0,0,1,249.75,449.46Z" style="fill: #fff"/>
            <path d="M278.61,288.21h0a.82.82,0,0,1,.22,0,1.21,1.21,0,0,1,.8.52,1.23,1.23,0,0,1,.21.93L251,447.94a1.25,1.25,0,0,1-1.23,1l-.22,0a1.25,1.25,0,0,1-.8-.52,1.22,1.22,0,0,1-.21-.94l28.85-158.26a1.27,1.27,0,0,1,1.24-1m0-1a2.26,2.26,0,0,0-2.21,1.84L247.55,447.31a2.24,2.24,0,0,0,1.8,2.61,1.81,1.81,0,0,0,.4,0,2.26,2.26,0,0,0,2.21-1.84l28.85-158.26a2.25,2.25,0,0,0-1.8-2.61,2.85,2.85,0,0,0-.4,0Z"/>
          </g>
          <g>
            <path d="M249.75,449.46a1.57,1.57,0,0,1-.61-.11,1.73,1.73,0,0,1-1-2.25l56.52-150.61a1.74,1.74,0,0,1,1.64-1.13,1.56,1.56,0,0,1,.6.11,1.75,1.75,0,0,1,1,2.25L251.39,448.33A1.76,1.76,0,0,1,249.75,449.46Z" style="fill: #fff"/>
            <path d="M306.28,295.85h0a1.25,1.25,0,0,1,1.13.74,1.21,1.21,0,0,1,0,1L250.92,448.16a1.26,1.26,0,0,1-1.17.81,1.32,1.32,0,0,1-.44-.08,1.26,1.26,0,0,1-.73-1.61L305.1,296.66a1.27,1.27,0,0,1,1.18-.81m0-1a2.26,2.26,0,0,0-2.11,1.46L247.65,446.93a2.26,2.26,0,0,0,1.31,2.89,2.44,2.44,0,0,0,.79.14,2.24,2.24,0,0,0,2.1-1.45l56.52-150.62a2.25,2.25,0,0,0-1.31-2.89,2.38,2.38,0,0,0-.78-.14Z"/>
          </g>
          <g>
            <path d="M249.74,449.46a1.65,1.65,0,0,1-.81-.2,1.75,1.75,0,0,1-.72-2.36l75.55-142a1.74,1.74,0,0,1,1.55-.92,1.76,1.76,0,0,1,.81.2,1.74,1.74,0,0,1,.72,2.36l-75.55,142A1.73,1.73,0,0,1,249.74,449.46Z" style="fill: #fff"/>
            <path d="M325.31,304.44h0a1.19,1.19,0,0,1,.58.15,1.25,1.25,0,0,1,.61.74,1.3,1.3,0,0,1-.09.95l-75.55,142a1.28,1.28,0,0,1-1.12.66,1.19,1.19,0,0,1-.58-.15,1.24,1.24,0,0,1-.51-1.69l75.55-142a1.25,1.25,0,0,1,1.11-.67m0-1a2.24,2.24,0,0,0-2,1.19l-75.55,142a2.26,2.26,0,0,0,.93,3,2.17,2.17,0,0,0,1,.26,2.24,2.24,0,0,0,2-1.19l75.55-142a2.26,2.26,0,0,0-.92-3,2.36,2.36,0,0,0-1.05-.26Z"/>
          </g>
          <g>
            <path d="M249.66,449.46a1.76,1.76,0,0,1-1.69-1.29L205.87,292.9a1.75,1.75,0,0,1,1.23-2.14,1.76,1.76,0,0,1,2.15,1.23l42.09,155.26a1.77,1.77,0,0,1-.17,1.33,1.73,1.73,0,0,1-1.06.81A1.41,1.41,0,0,1,249.66,449.46Z" style="fill: #fff"/>
            <path d="M207.55,291.19a1.26,1.26,0,0,1,1.22.93l42.09,155.26a1.22,1.22,0,0,1-.12.95,1.28,1.28,0,0,1-.76.59,1.65,1.65,0,0,1-.32,0,1.25,1.25,0,0,1-1.21-.92l-42.1-155.27a1.23,1.23,0,0,1,.13-.95,1.18,1.18,0,0,1,.75-.58,1.25,1.25,0,0,1,.32-.05m0-1a2.38,2.38,0,0,0-.58.08,2.25,2.25,0,0,0-1.58,2.75l42.1,155.27a2.25,2.25,0,0,0,2.17,1.65,1.93,1.93,0,0,0,.58-.08,2.25,2.25,0,0,0,1.58-2.75l-42.1-155.26a2.25,2.25,0,0,0-2.17-1.66Z"/>
          </g>
          <g>
            <path d="M249.75,449.46A1.72,1.72,0,0,1,248,448a1.73,1.73,0,0,1,.3-1.31l93.56-130.86a1.78,1.78,0,0,1,1.43-.73,1.72,1.72,0,0,1,1,.33,1.74,1.74,0,0,1,.41,2.43L251.17,448.74A1.75,1.75,0,0,1,249.75,449.46Z" style="fill: #fff"/>
            <path d="M343.32,315.61h0a1.23,1.23,0,0,1,.72.23,1.25,1.25,0,0,1,.29,1.75L250.77,448.45a1.29,1.29,0,0,1-1,.52,1.23,1.23,0,0,1-1.23-1.05,1.23,1.23,0,0,1,.21-.93L342.3,316.13a1.23,1.23,0,0,1,1-.52m0-1a2.25,2.25,0,0,0-1.83.93L247.93,446.41a2.24,2.24,0,0,0,.52,3.13,2.23,2.23,0,0,0,3.12-.52l93.57-130.86a2.25,2.25,0,0,0-.52-3.13,2.23,2.23,0,0,0-1.3-.41Z"/>
          </g>
          <g>
            <path d="M248.54,449.35a1.74,1.74,0,0,1-1.47-.8l-87.5-135a1.75,1.75,0,0,1,1.46-2.7,1.74,1.74,0,0,1,1.47.8l87.5,135a1.75,1.75,0,0,1,.24,1.32,1.73,1.73,0,0,1-1.7,1.38Z" style="fill: #fff"/>
            <path d="M161,311.36a1.25,1.25,0,0,1,1.06.57l87.49,135a1.24,1.24,0,0,1-.37,1.73,1.22,1.22,0,0,1-.67.2,1.26,1.26,0,0,1-1.06-.57L160,313.29a1.25,1.25,0,0,1,.37-1.73,1.22,1.22,0,0,1,.67-.2m0-1a2.23,2.23,0,0,0-1.21.35,2.26,2.26,0,0,0-.66,3.11l87.49,135a2.25,2.25,0,0,0,1.89,1,2.14,2.14,0,0,0,1.21-.36,2.24,2.24,0,0,0,.67-3.1l-87.5-135a2.25,2.25,0,0,0-1.89-1Z"/>
          </g>
          <g>
            <path d="M247.43,449.24a1.76,1.76,0,0,1-1.41-.7L150,319.46a1.75,1.75,0,0,1,1.39-2.79,1.77,1.77,0,0,1,1.41.71l96,129.07a1.75,1.75,0,0,1-.36,2.44A1.69,1.69,0,0,1,247.43,449.24Z" style="fill: #fff"/>
            <path d="M151.4,317.17a1.26,1.26,0,0,1,1,.5l96,129.08a1.26,1.26,0,0,1-.26,1.75,1.27,1.27,0,0,1-1.75-.26l-96-129.07a1.28,1.28,0,0,1-.23-.93,1.26,1.26,0,0,1,1.23-1.07m0-1a2.21,2.21,0,0,0-1.33.44,2.25,2.25,0,0,0-.46,3.14l96,129.07a2.25,2.25,0,0,0,1.81.9,2.21,2.21,0,0,0,1.33-.44,2.25,2.25,0,0,0,.46-3.14l-96-129.07a2.25,2.25,0,0,0-1.81-.9Z"/>
          </g>
          <g>
            <path d="M248.54,449.35a1.75,1.75,0,0,1-1.54-.92l-76-141.8A1.75,1.75,0,0,1,174.1,305l76,141.8a1.75,1.75,0,0,1-.71,2.36A1.67,1.67,0,0,1,248.54,449.35Z" style="fill: #fff"/>
            <path d="M172.55,304.55a1.24,1.24,0,0,1,1.11.66l76,141.8a1.25,1.25,0,0,1,.09.95,1.25,1.25,0,0,1-2.3.23l-76-141.8a1.24,1.24,0,0,1,.51-1.69,1.19,1.19,0,0,1,.58-.15m0-1a2.36,2.36,0,0,0-1.05.26,2.26,2.26,0,0,0-.92,3l76,141.8a2.24,2.24,0,0,0,2,1.18,2.18,2.18,0,0,0,1.05-.26,2.25,2.25,0,0,0,.92-3l-76-141.8a2.26,2.26,0,0,0-2-1.18Z"/>
          </g>
          <g>
            <path d="M248.54,449.35a1.76,1.76,0,0,1-1.67-1.21l-49.56-153a1.71,1.71,0,0,1,.11-1.33,1.77,1.77,0,0,1,1-.87,2,2,0,0,1,.54-.08,1.74,1.74,0,0,1,1.66,1.21l49.57,153a1.75,1.75,0,0,1-1.13,2.2A1.6,1.6,0,0,1,248.54,449.35Z" style="fill: #fff"/>
            <path d="M199,293.31a1.26,1.26,0,0,1,1.19.86l49.57,153a1.28,1.28,0,0,1-.08,1,1.24,1.24,0,0,1-.73.62,1.21,1.21,0,0,1-.38.06,1.28,1.28,0,0,1-1.2-.86l-49.56-153a1.25,1.25,0,0,1,.81-1.57,1.21,1.21,0,0,1,.38-.06m0-1a2.37,2.37,0,0,0-.69.11,2.25,2.25,0,0,0-1.44,2.83l49.56,153a2.25,2.25,0,0,0,2.14,1.55,2.07,2.07,0,0,0,.69-.11,2.25,2.25,0,0,0,1.44-2.82l-49.57-153a2.24,2.24,0,0,0-2.13-1.56Z"/>
          </g>
          <g>
            <path d="M248.53,449.35a1.75,1.75,0,0,1-1.74-1.66L238.51,287a1.78,1.78,0,0,1,.45-1.26,1.75,1.75,0,0,1,1.21-.57h0a1.75,1.75,0,0,1,1.83,1.65l8.28,160.66a1.74,1.74,0,0,1-1.65,1.83Z" style="fill: #fff"/>
            <path d="M240.26,285.69a1.27,1.27,0,0,1,1.25,1.19l8.27,160.65a1.25,1.25,0,0,1-1.18,1.32h-.07a1.26,1.26,0,0,1-1.24-1.19L239,287a1.25,1.25,0,0,1,1.18-1.32h.07m0-1h-.12a2.25,2.25,0,0,0-2.12,2.36l8.27,160.65a2.25,2.25,0,0,0,2.24,2.13h.12a2.24,2.24,0,0,0,2.12-2.36L242.5,286.83a2.25,2.25,0,0,0-2.24-2.13Z"/>
          </g>
          <g>
            <path d="M248.05,449.3a1.89,1.89,0,0,1-.53-.08,1.79,1.79,0,0,1-1-.87,1.76,1.76,0,0,1-.11-1.33l49.24-153.15a1.74,1.74,0,0,1,1.66-1.21,1.59,1.59,0,0,1,.53.08,1.74,1.74,0,0,1,1,.86,1.78,1.78,0,0,1,.11,1.34L249.72,448.09A1.76,1.76,0,0,1,248.05,449.3Z" style="fill: #fff"/>
            <path d="M297.29,293.15a1.21,1.21,0,0,1,.38.06,1.25,1.25,0,0,1,.81,1.57L249.24,447.93a1.25,1.25,0,0,1-1.19.87,1.21,1.21,0,0,1-.38-.06,1.24,1.24,0,0,1-.73-.62,1.26,1.26,0,0,1-.08-.95L296.1,294a1.26,1.26,0,0,1,1.19-.87m0-1a2.26,2.26,0,0,0-2.14,1.56L245.92,446.87a2.24,2.24,0,0,0,4.27,1.37l49.23-153.15a2.24,2.24,0,0,0-1.45-2.82h0a2,2,0,0,0-.68-.11Z"/>
          </g>
          <g>
            <path d="M393.69,490a1.74,1.74,0,0,1-1.11-3.09L516.82,384.72a1.77,1.77,0,0,1,1.11-.39,1.74,1.74,0,0,1,1.11,3.09L394.79,489.61A1.76,1.76,0,0,1,393.69,490Z" style="fill: #fff"/>
            <path d="M517.93,384.82h0a1.25,1.25,0,0,1,1,.46,1.19,1.19,0,0,1,.27.91,1.24,1.24,0,0,1-.44.85L394.48,489.22a1.21,1.21,0,0,1-.79.29,1.25,1.25,0,0,1-.8-2.22L517.14,385.11a1.19,1.19,0,0,1,.79-.29m0-1a2.23,2.23,0,0,0-1.42.51L392.26,486.52a2.25,2.25,0,0,0,2.85,3.47L519.36,387.8a2.24,2.24,0,0,0-1.43-4Z"/>
          </g>
          <g>
            <path d="M392.78,488.9a1.77,1.77,0,0,1-1.28-.55,1.78,1.78,0,0,1,.08-2.47L509,375.9a1.73,1.73,0,0,1,1.19-.47,1.75,1.75,0,0,1,1.2,3L394,488.43A1.73,1.73,0,0,1,392.78,488.9Z" style="fill: #fff"/>
            <path d="M510.18,375.93h0a1.25,1.25,0,0,1,1.25,1.29,1.26,1.26,0,0,1-.39.87l-117.41,110a1.26,1.26,0,0,1-.85.33,1.25,1.25,0,0,1-1.25-1.29,1.26,1.26,0,0,1,.39-.87l117.4-110a1.3,1.3,0,0,1,.86-.33m0-1a2.21,2.21,0,0,0-1.53.61l-117.41,110a2.24,2.24,0,0,0,1.54,3.88,2.21,2.21,0,0,0,1.53-.61l117.4-110a2.24,2.24,0,0,0-1.53-3.88Z"/>
          </g>
          <g>
            <path d="M393.62,489.93a1.7,1.7,0,0,1-1-.32,1.74,1.74,0,0,1-.42-2.44l92.92-131.32a1.74,1.74,0,0,1,1.43-.73,1.7,1.7,0,0,1,1,.32,1.74,1.74,0,0,1,.42,2.43L395.05,489.19A1.76,1.76,0,0,1,393.62,489.93Z" style="fill: #fff"/>
            <path d="M486.55,355.61h0a1.23,1.23,0,0,1,.72.23,1.27,1.27,0,0,1,.3,1.75L394.64,488.91a1.26,1.26,0,0,1-1,.52,1.23,1.23,0,0,1-.72-.23,1.26,1.26,0,0,1-.51-.81,1.27,1.27,0,0,1,.21-.93l92.92-131.32a1.3,1.3,0,0,1,1-.53m0-1a2.24,2.24,0,0,0-1.84.95L391.79,486.89a2.24,2.24,0,0,0,.54,3.12,2.2,2.2,0,0,0,1.29.41,2.24,2.24,0,0,0,1.83-.94l92.93-131.32a2.24,2.24,0,0,0-1.83-3.54Z"/>
          </g>
          <g>
            <path d="M393.69,490a1.75,1.75,0,0,1-1-3.18L525,395.32a1.66,1.66,0,0,1,1-.31,1.74,1.74,0,0,1,1.44.75,1.71,1.71,0,0,1,.28,1.3,1.73,1.73,0,0,1-.72,1.13l-132.31,91.5A1.66,1.66,0,0,1,393.69,490Z" style="fill: #fff"/>
            <path d="M526,395.5h0a1.25,1.25,0,0,1,.72,2.28L394.4,489.29a1.29,1.29,0,0,1-.71.22,1.26,1.26,0,0,1-.72-2.28l132.31-91.51a1.27,1.27,0,0,1,.71-.22m0-1a2.22,2.22,0,0,0-1.27.4l-132.31,91.5a2.24,2.24,0,0,0,1.28,4.09,2.22,2.22,0,0,0,1.27-.4l132.31-91.5a2.24,2.24,0,0,0-1.28-4.09Z"/>
          </g>
          <g>
            <path d="M393.69,490a1.74,1.74,0,0,1-.73-3.33l146.47-66.54a1.71,1.71,0,0,1,.71-.15,1.74,1.74,0,0,1,.73,3.33L394.41,489.85A1.79,1.79,0,0,1,393.69,490Z" style="fill: #fff"/>
            <path d="M540.14,420.47a1.25,1.25,0,0,1,1.15.74,1.21,1.21,0,0,1,0,1,1.24,1.24,0,0,1-.65.7L394.2,489.4a1.25,1.25,0,0,1-1.65-.63,1.25,1.25,0,0,1,.62-1.65l146.46-66.54a1.3,1.3,0,0,1,.51-.11m0-1a2.15,2.15,0,0,0-.92.2L392.76,486.21a2.24,2.24,0,0,0,.93,4.29,2.31,2.31,0,0,0,.92-.2l146.47-66.54a2.24,2.24,0,0,0-.94-4.28Z"/>
          </g>
          <g>
            <path d="M393.69,490a1.74,1.74,0,0,1-.52-3.41l153.85-47a1.79,1.79,0,0,1,.51-.07,1.75,1.75,0,0,1,1.67,1.23,1.71,1.71,0,0,1-.13,1.33,1.68,1.68,0,0,1-1,.85l-153.85,47A1.68,1.68,0,0,1,393.69,490Z" style="fill: #fff"/>
            <path d="M547.53,440a1.27,1.27,0,0,1,1.2.89,1.22,1.22,0,0,1-.1.95,1.2,1.2,0,0,1-.73.61l-153.85,47a1.13,1.13,0,0,1-.36.06,1.27,1.27,0,0,1-1.2-.89,1.25,1.25,0,0,1,.83-1.56l153.85-47a1.09,1.09,0,0,1,.36-.06m0-1a2.05,2.05,0,0,0-.65.1L393,486.11a2.24,2.24,0,0,0,.66,4.39,2.14,2.14,0,0,0,.65-.1l153.85-47a2.24,2.24,0,0,0-.66-4.39Z"/>
          </g>
          <g>
            <path d="M393.62,489.93a1.8,1.8,0,0,1-.87-.23,1.76,1.76,0,0,1-.64-2.39l80-139.55a1.76,1.76,0,0,1,1.52-.88,1.75,1.75,0,0,1,1.68,1.29,1.77,1.77,0,0,1-.17,1.33l-80,139.55A1.76,1.76,0,0,1,393.62,489.93Z" style="fill: #fff"/>
            <path d="M473.65,347.38h0a1.33,1.33,0,0,1,.62.16,1.3,1.3,0,0,1,.58.76,1.26,1.26,0,0,1-.12.95l-80,139.56a1.26,1.26,0,0,1-1.09.62,1.22,1.22,0,0,1-.62-.16,1.25,1.25,0,0,1-.46-1.71l80-139.55a1.25,1.25,0,0,1,1.09-.63m0-1a2.24,2.24,0,0,0-1.95,1.12l-80,139.56a2.24,2.24,0,0,0,.83,3.06,2.26,2.26,0,0,0,3.06-.83l80-139.56a2.25,2.25,0,0,0-.83-3.06,2.22,2.22,0,0,0-1.11-.29Z"/>
          </g>
          <g>
            <path d="M393.68,490a1.75,1.75,0,0,1-.28-3.47l158.69-26.37.29,0a1.75,1.75,0,0,1,.28,3.47L394,490A1.42,1.42,0,0,1,393.68,490Z" style="fill: #fff"/>
            <path d="M552.37,460.63a1.27,1.27,0,0,1,1.24,1.05,1.26,1.26,0,0,1-1,1.44L393.89,489.49l-.21,0a1.26,1.26,0,0,1-1.23-1.05,1.19,1.19,0,0,1,.22-.93,1.26,1.26,0,0,1,.81-.51l158.69-26.37.2,0m0-1a2.19,2.19,0,0,0-.36,0L393.31,486a2.25,2.25,0,0,0,.37,4.46,2.31,2.31,0,0,0,.37,0L552.74,464.1a2.24,2.24,0,0,0-.37-4.46Z"/>
          </g>
          <g>
            <path d="M392.9,489.06a1.47,1.47,0,0,1-.36,0A1.75,1.75,0,0,1,391.2,487l33.58-157.33a1.75,1.75,0,0,1,1.71-1.38,2.21,2.21,0,0,1,.37,0,1.78,1.78,0,0,1,1.1.76,1.73,1.73,0,0,1,.24,1.31L394.61,487.68A1.75,1.75,0,0,1,392.9,489.06Z" style="fill: #fff"/>
            <path d="M426.49,328.74a1.09,1.09,0,0,1,.26,0,1.23,1.23,0,0,1,.79.54,1.3,1.3,0,0,1,.18.94L394.13,487.58a1.26,1.26,0,0,1-1.23,1l-.26,0a1.28,1.28,0,0,1-1-1.49l33.59-157.32a1.26,1.26,0,0,1,1.22-1m0-1a2.24,2.24,0,0,0-2.19,1.77L390.71,486.85a2.25,2.25,0,0,0,1.73,2.66,2.4,2.4,0,0,0,.46.05,2.25,2.25,0,0,0,2.2-1.78l33.59-157.32A2.25,2.25,0,0,0,427,327.8a1.88,1.88,0,0,0-.47-.05Z"/>
          </g>
          <g>
            <path d="M392.2,488.2l-.26,0a1.76,1.76,0,0,1-1.47-2L413.84,327a1.76,1.76,0,0,1,1.73-1.5l.26,0a1.76,1.76,0,0,1,1.47,2L393.92,486.71A1.74,1.74,0,0,1,392.2,488.2Z" style="fill: #fff"/>
            <path d="M415.57,326h.18a1.25,1.25,0,0,1,1.06,1.42L393.43,486.63a1.25,1.25,0,0,1-1.23,1.07H392a1.25,1.25,0,0,1-1.06-1.42l23.38-159.16a1.25,1.25,0,0,1,1.23-1.07m0-1a2.25,2.25,0,0,0-2.22,1.91L390,486.13a2.24,2.24,0,0,0,1.89,2.54l.33,0a2.26,2.26,0,0,0,2.22-1.92l23.37-159.16a2.25,2.25,0,0,0-1.89-2.55,1.83,1.83,0,0,0-.33,0Z"/>
          </g>
          <g>
            <path d="M392.9,489.06a2.08,2.08,0,0,1-.5-.07,1.77,1.77,0,0,1-1.17-2.18l46.55-154a1.76,1.76,0,0,1,1.68-1.24,1.73,1.73,0,0,1,.5.07,1.75,1.75,0,0,1,1.16,2.18l-46.54,154A1.76,1.76,0,0,1,392.9,489.06Z" style="fill: #fff"/>
            <path d="M439.46,332.07h0a1,1,0,0,1,.35.06,1.26,1.26,0,0,1,.84,1.56l-46.55,154a1.25,1.25,0,0,1-1.2.88,1.12,1.12,0,0,1-.36-.05,1.19,1.19,0,0,1-.73-.61,1.21,1.21,0,0,1-.1-.95l46.54-154a1.28,1.28,0,0,1,1.21-.89m0-1a2.26,2.26,0,0,0-2.16,1.6l-46.54,154a2.25,2.25,0,0,0,1.5,2.8,2,2,0,0,0,.64.1,2.24,2.24,0,0,0,2.15-1.6L441.6,334a2.24,2.24,0,0,0-1.5-2.79,2,2,0,0,0-.64-.1Z"/>
          </g>
          <g>
            <path d="M392.9,489.06a1.84,1.84,0,0,1-.79-.19,1.76,1.76,0,0,1-.76-2.35l73.17-143.27a1.75,1.75,0,0,1,3.11,1.59L394.46,488.11A1.75,1.75,0,0,1,392.9,489.06Z" style="fill: #fff"/>
            <path d="M466.08,342.8h0a1.25,1.25,0,0,1,.57.13,1.25,1.25,0,0,1,.54,1.69L394,487.88a1.24,1.24,0,0,1-1.12.68,1.18,1.18,0,0,1-.56-.13,1.21,1.21,0,0,1-.62-.73,1.28,1.28,0,0,1,.07-1L465,343.48a1.26,1.26,0,0,1,1.12-.68m0-1a2.24,2.24,0,0,0-2,1.22L390.91,486.29a2.25,2.25,0,0,0,1,3,2.14,2.14,0,0,0,1,.24,2.22,2.22,0,0,0,2-1.22l73.18-143.26a2.25,2.25,0,0,0-1-3,2.18,2.18,0,0,0-1-.24Z"/>
          </g>
          <g>
            <path d="M392.91,489.06a1.73,1.73,0,0,1-1.17-.45,1.75,1.75,0,0,1-.13-2.47L499.36,366.69a1.75,1.75,0,0,1,2.47-.13A1.75,1.75,0,0,1,502,369L394.21,488.48A1.75,1.75,0,0,1,392.91,489.06Z" style="fill: #fff"/>
            <path d="M500.66,366.61a1.2,1.2,0,0,1,.83.32,1.25,1.25,0,0,1,.1,1.77L393.84,488.15a1.27,1.27,0,0,1-.93.41,1.24,1.24,0,0,1-.84-.32,1.26,1.26,0,0,1-.09-1.77L499.73,367a1.24,1.24,0,0,1,.93-.41m0-1a2.23,2.23,0,0,0-1.67.74L391.24,485.81a2.25,2.25,0,0,0,.17,3.17,2.24,2.24,0,0,0,3.16-.17L502.32,369.36a2.23,2.23,0,0,0-1.66-3.74Z"/>
          </g>
          <g>
            <path d="M392.61,488.68a1.74,1.74,0,0,1-1.56-.94,1.76,1.76,0,0,1,.75-2.36l143.11-73.47a1.68,1.68,0,0,1,.79-.2,1.75,1.75,0,0,1,.81,3.3L393.4,488.49A1.7,1.7,0,0,1,392.61,488.68Z" style="fill: #fff"/>
            <path d="M535.7,412.21a1.25,1.25,0,0,1,1.2,1.63,1.28,1.28,0,0,1-.62.73L393.17,488.05a1.19,1.19,0,0,1-.56.14,1.25,1.25,0,0,1-.58-2.36l143.11-73.48a1.19,1.19,0,0,1,.56-.14m0-1a2.34,2.34,0,0,0-1,.24l-143.1,73.48a2.25,2.25,0,0,0-1,3h0a2.24,2.24,0,0,0,3,1l143.1-73.48a2.24,2.24,0,0,0-1-4.23Z"/>
          </g>
          <g>
            <path d="M365.05,512.49a1.75,1.75,0,0,1-1.56-.94l-74.06-142.8a1.75,1.75,0,0,1,.74-2.36,1.71,1.71,0,0,1,.8-.19,1.75,1.75,0,0,1,1.56.94l74.06,142.8a1.75,1.75,0,0,1-.74,2.36A1.71,1.71,0,0,1,365.05,512.49Z" style="fill: #fff"/>
            <path d="M291,366.69a1.26,1.26,0,0,1,1.12.68l74.06,142.8a1.25,1.25,0,1,1-2.22,1.15l-74.06-142.8a1.21,1.21,0,0,1-.08-.95,1.23,1.23,0,0,1,1.18-.88m0-1a2.24,2.24,0,0,0-2,3.28l74.06,142.8a2.25,2.25,0,0,0,2,1.21,2.2,2.2,0,0,0,1-.25,2.24,2.24,0,0,0,1-3L293,366.91a2.25,2.25,0,0,0-2-1.21Z"/>
          </g>
          <g>
            <path d="M365.05,512.49a1.75,1.75,0,0,1-1.62-1.07L301.49,363a1.74,1.74,0,0,1,.94-2.28,1.7,1.7,0,0,1,.67-.13,1.73,1.73,0,0,1,1.61,1.07l61.94,148.47a1.75,1.75,0,0,1-.94,2.28A1.65,1.65,0,0,1,365.05,512.49Z" style="fill: #fff"/>
            <path d="M303.1,361a1.25,1.25,0,0,1,1.16.77L366.2,510.27a1.3,1.3,0,0,1,0,1,1.23,1.23,0,0,1-.68.68,1.1,1.1,0,0,1-.47.1,1.24,1.24,0,0,1-1.16-.77L302,362.76a1.21,1.21,0,0,1,0-.95,1.18,1.18,0,0,1,.67-.68,1.12,1.12,0,0,1,.48-.1m0-1a2.16,2.16,0,0,0-.86.17,2.26,2.26,0,0,0-1.21,2.94L363,511.61a2.26,2.26,0,0,0,2.08,1.38,2.15,2.15,0,0,0,.85-.17,2.25,2.25,0,0,0,1.21-2.94L305.17,361.42A2.25,2.25,0,0,0,303.1,360Z"/>
          </g>
          <g>
            <path d="M365,512.5a1.75,1.75,0,0,1-1.7-1.38L328.77,354a1.75,1.75,0,0,1,1.33-2.08,1.55,1.55,0,0,1,.37,0,1.76,1.76,0,0,1,1.71,1.37l34.57,157.11a1.76,1.76,0,0,1-.24,1.32,1.7,1.7,0,0,1-1.09.76A1.65,1.65,0,0,1,365,512.5Z" style="fill: #fff"/>
            <path d="M330.47,352.39a1.27,1.27,0,0,1,1.23,1l34.56,157.11a1.25,1.25,0,0,1-.95,1.49l-.27,0a1.25,1.25,0,0,1-1.22-1L329.25,353.91a1.27,1.27,0,0,1,.17-1,1.26,1.26,0,0,1,1.05-.57m0-1a2,2,0,0,0-.48.06,2.25,2.25,0,0,0-1.71,2.67l34.57,157.11A2.25,2.25,0,0,0,365,513a2.61,2.61,0,0,0,.48,0,2.24,2.24,0,0,0,1.71-2.67L332.66,353.16a2.25,2.25,0,0,0-2.19-1.77Z"/>
          </g>
          <g>
            <path d="M365,512.5a1.76,1.76,0,0,1-1.74-1.6L349.37,350.64a1.75,1.75,0,0,1,.41-1.28,1.72,1.72,0,0,1,1.18-.62h.15a1.75,1.75,0,0,1,1.74,1.59L366.78,510.6a1.75,1.75,0,0,1-1.59,1.89Z" style="fill: #fff"/>
            <path d="M351.11,349.23a1.27,1.27,0,0,1,1.25,1.15l13.93,160.26a1.26,1.26,0,0,1-1.14,1.36H365a1.27,1.27,0,0,1-1.25-1.14L349.87,350.59a1.25,1.25,0,0,1,1.13-1.35h.11m0-1h-.19a2.25,2.25,0,0,0-2,2.43l13.93,160.26A2.24,2.24,0,0,0,365,513h.19a2.25,2.25,0,0,0,2-2.42L353.35,350.29a2.26,2.26,0,0,0-2.24-2.05Z"/>
          </g>
          <g>
            <path d="M365,512.5a1.76,1.76,0,0,1-1.67-1.83L370.56,350a1.74,1.74,0,0,1,1.74-1.67,1.77,1.77,0,0,1,1.75,1.82l-7.26,160.71A1.75,1.75,0,0,1,365,512.5Z" style="fill: #fff"/>
            <path d="M372.3,348.79h.06a1.25,1.25,0,0,1,1.19,1.3l-7.26,160.71A1.26,1.26,0,0,1,365,512H365a1.21,1.21,0,0,1-.86-.41,1.24,1.24,0,0,1-.33-.9L371.05,350a1.27,1.27,0,0,1,1.25-1.2m0-1a2.26,2.26,0,0,0-2.24,2.14L362.8,510.65a2.24,2.24,0,0,0,2.14,2.34h.1a2.24,2.24,0,0,0,2.24-2.14l7.26-160.7a2.25,2.25,0,0,0-2.14-2.35Z"/>
          </g>
          <g>
            <path d="M363.53,513.28a1.76,1.76,0,0,1-1.69-1.29L319.78,356.72a1.77,1.77,0,0,1,.17-1.33,1.81,1.81,0,0,1,1.06-.82,1.75,1.75,0,0,1,2.14,1.23l42.06,155.28a1.74,1.74,0,0,1-.17,1.32,1.71,1.71,0,0,1-1.06.82A1.74,1.74,0,0,1,363.53,513.28Z" style="fill: #fff"/>
            <path d="M321.46,355a1.25,1.25,0,0,1,1.21.92l42.06,155.28a1.25,1.25,0,0,1-.88,1.53,1.12,1.12,0,0,1-.32,0,1.24,1.24,0,0,1-1.21-.92L320.26,356.59a1.25,1.25,0,0,1,.88-1.54,1.17,1.17,0,0,1,.32,0m0-1a1.93,1.93,0,0,0-.58.08,2.25,2.25,0,0,0-1.58,2.75l42.06,155.27a2.25,2.25,0,0,0,2.17,1.66,2.32,2.32,0,0,0,.58-.08h0a2.25,2.25,0,0,0,1.58-2.75L323.63,355.67a2.25,2.25,0,0,0-2.17-1.65Z"/>
          </g>
          <g>
            <path d="M78.48,656.7a1.61,1.61,0,0,1-.44-.06,1.76,1.76,0,0,1-1.25-2.14L118,499a1.75,1.75,0,0,1,3.38.9L80.17,655.4A1.76,1.76,0,0,1,78.48,656.7Z" style="fill: #fff"/>
            <path d="M119.66,498.19a1.12,1.12,0,0,1,.32,0,1.23,1.23,0,0,1,.76.58,1.26,1.26,0,0,1,.13.95L79.69,655.27a1.24,1.24,0,0,1-1.21.93,1.17,1.17,0,0,1-.32,0,1.27,1.27,0,0,1-.89-1.53l41.18-155.51a1.25,1.25,0,0,1,1.21-.93m0-1a2.25,2.25,0,0,0-2.17,1.66L76.31,654.37a2.27,2.27,0,0,0,1.6,2.75,2.22,2.22,0,0,0,.57.07,2.25,2.25,0,0,0,2.17-1.67L121.83,500a2.25,2.25,0,0,0-1.6-2.74,2.22,2.22,0,0,0-.57-.07Z"/>
          </g>
          <g>
            <path d="M77.1,656.33a1.84,1.84,0,0,1-.33,0,1.75,1.75,0,0,1-1.38-2l31.07-157.84a1.74,1.74,0,0,1,1.71-1.41,1.87,1.87,0,0,1,.34,0,1.76,1.76,0,0,1,1.38,2.05L78.82,654.92A1.75,1.75,0,0,1,77.1,656.33Z" style="fill: #fff"/>
            <path d="M108.17,495.49h0l.24,0a1.26,1.26,0,0,1,1,1.47L78.33,654.82a1.24,1.24,0,0,1-1.23,1,1,1,0,0,1-.24,0,1.26,1.26,0,0,1-1-1.47L106.94,496.5a1.27,1.27,0,0,1,1.23-1m0-1a2.25,2.25,0,0,0-2.2,1.81L74.9,654.15a2.24,2.24,0,0,0,1.77,2.63,2.1,2.1,0,0,0,.43.05A2.25,2.25,0,0,0,79.3,655l31.07-157.84a2.25,2.25,0,0,0-1.76-2.64,2.18,2.18,0,0,0-.44,0Z"/>
          </g>
          <g>
            <path d="M78.39,656.67a1.75,1.75,0,0,1-1.75-1.73L75.38,494.07a1.68,1.68,0,0,1,.5-1.23,1.74,1.74,0,0,1,3,1.21l1.27,160.86a1.76,1.76,0,0,1-1.74,1.76Z" style="fill: #fff"/>
            <path d="M77.12,491.82v1a1.25,1.25,0,0,1,1.25,1.24l1.27,160.86a1.27,1.27,0,0,1-.36.89,1.25,1.25,0,0,1-2.14-.87L75.87,494.07a1.29,1.29,0,0,1,.36-.89,1.23,1.23,0,0,1,.88-.37v-1m0,0h0a2.24,2.24,0,0,0-2.23,2.26l1.27,160.86a2.25,2.25,0,0,0,2.24,2.23h0a2.25,2.25,0,0,0,2.22-2.26L79.37,494a2.25,2.25,0,0,0-2.25-2.22Z"/>
          </g>
          <g>
            <path d="M78.48,656.7a1.66,1.66,0,0,1-.58-.11,1.7,1.7,0,0,1-1-.89,1.73,1.73,0,0,1-.07-1.34l54-151.55a1.75,1.75,0,0,1,1.65-1.16,2,2,0,0,1,.58.1,1.75,1.75,0,0,1,1,.9,1.78,1.78,0,0,1,.07,1.34l-54,151.54A1.76,1.76,0,0,1,78.48,656.7Z" style="fill: #fff"/>
            <path d="M132.45,502.15h0a1.14,1.14,0,0,1,.41.07,1.26,1.26,0,0,1,.76,1.6l-54,151.55a1.27,1.27,0,0,1-1.18.83,1.54,1.54,0,0,1-.42-.07,1.26,1.26,0,0,1-.76-1.6l54-151.55a1.26,1.26,0,0,1,1.19-.83m0-1a2.24,2.24,0,0,0-2.12,1.49l-54,151.55a2.25,2.25,0,0,0,1.36,2.86,2.19,2.19,0,0,0,.75.13,2.25,2.25,0,0,0,2.12-1.49l54-151.55a2.24,2.24,0,0,0-1.37-2.86,2.1,2.1,0,0,0-.74-.13Z"/>
          </g>
          <g>
            <path d="M78.48,656.69a1.77,1.77,0,0,1-.87-.23,1.74,1.74,0,0,1-.64-2.38l80-139.55a1.75,1.75,0,0,1,1.52-.87,1.77,1.77,0,0,1,.87.23,1.75,1.75,0,0,1,.64,2.38L80,655.82A1.76,1.76,0,0,1,78.48,656.69Z" style="fill: #fff"/>
            <path d="M158.52,514.15h0a1.26,1.26,0,0,1,1.2.92,1.21,1.21,0,0,1-.12.95l-80,139.55a1.25,1.25,0,0,1-1.09.63,1.26,1.26,0,0,1-1.2-.92,1.21,1.21,0,0,1,.12-.95l80-139.55a1.25,1.25,0,0,1,1.09-.63m0-1a2.22,2.22,0,0,0-2,1.13l-80,139.54a2.24,2.24,0,1,0,3.89,2.23l80-139.54a2.24,2.24,0,0,0-.83-3.06,2.13,2.13,0,0,0-1.11-.3Z"/>
          </g>
          <g>
            <path d="M78.48,656.69a1.74,1.74,0,0,1-1.39-2.8l97.43-128a1.76,1.76,0,0,1,1.4-.68,1.72,1.72,0,0,1,1.05.35,1.75,1.75,0,0,1,.34,2.45L79.87,656A1.74,1.74,0,0,1,78.48,656.69Z" style="fill: #fff"/>
            <path d="M175.92,525.69h0a1.26,1.26,0,0,1,1.23,1.08,1.22,1.22,0,0,1-.24.93l-97.43,128a1.25,1.25,0,0,1-1,.49,1.23,1.23,0,0,1-.76-.26,1.27,1.27,0,0,1-.48-.82,1.28,1.28,0,0,1,.25-.93l97.43-128a1.25,1.25,0,0,1,1-.49m0-1a2.26,2.26,0,0,0-1.79.88l-97.43,128a2.24,2.24,0,0,0,3.57,2.72l97.43-128a2.24,2.24,0,0,0-.43-3.14,2.2,2.2,0,0,0-1.35-.46Z"/>
          </g>
          <g>
            <path d="M78.39,656.67a1.77,1.77,0,0,1-1.74-1.57l-16.55-160a1.75,1.75,0,0,1,1.56-1.92h.18a1.76,1.76,0,0,1,1.74,1.57l16.55,160a1.7,1.7,0,0,1-.39,1.28,1.67,1.67,0,0,1-1.17.64Z" style="fill: #fff"/>
            <path d="M61.84,493.66a1.27,1.27,0,0,1,1.25,1.12l16.54,160a1.21,1.21,0,0,1-.27.91,1.27,1.27,0,0,1-.84.46h-.13a1.26,1.26,0,0,1-1.24-1.13L60.6,495a1.23,1.23,0,0,1,.27-.92,1.27,1.27,0,0,1,.84-.46h.13m0-1h-.23a2.24,2.24,0,0,0-2,2.46l16.55,160a2.25,2.25,0,0,0,2.23,2h.23a2.25,2.25,0,0,0,2-2.47l-16.55-160a2.25,2.25,0,0,0-2.23-2Z"/>
          </g>
          <g>
            <path d="M78.48,656.69A1.72,1.72,0,0,1,76.74,655a1.68,1.68,0,0,1,.5-1.23L190.66,539.63a1.74,1.74,0,0,1,1.24-.51,1.77,1.77,0,0,1,1.23.5,1.76,1.76,0,0,1,0,2.47L79.72,656.18A1.74,1.74,0,0,1,78.48,656.69Z" style="fill: #fff"/>
            <path d="M191.9,539.61h0a1.25,1.25,0,0,1,1.24,1.25,1.15,1.15,0,0,1-.36.88L79.37,655.83a1.26,1.26,0,0,1-1.77,0,1.26,1.26,0,0,1,0-1.77L191,540a1.22,1.22,0,0,1,.89-.37m0-1a2.22,2.22,0,0,0-1.59.66L76.89,653.37a2.24,2.24,0,0,0,3.18,3.16L193.49,542.44a2.24,2.24,0,0,0-1.59-3.82Z"/>
          </g>
          <g>
            <path d="M77.31,656.38a1.76,1.76,0,0,1-1.61-1L11.08,508a1.78,1.78,0,0,1,0-1.34,1.73,1.73,0,0,1,.92-1,1.69,1.69,0,0,1,.7-.15,1.75,1.75,0,0,1,1.6,1.05L78.9,653.94a1.77,1.77,0,0,1-.9,2.3A1.81,1.81,0,0,1,77.31,656.38Z" style="fill: #fff"/>
            <path d="M12.68,506.07h0a1.25,1.25,0,0,1,1.15.74L78.45,654.14a1.25,1.25,0,0,1-.65,1.64,1.21,1.21,0,0,1-.49.11,1.28,1.28,0,0,1-1.16-.75L11.54,507.82a1.25,1.25,0,0,1,.64-1.65,1.21,1.21,0,0,1,.5-.1m0-1a2.21,2.21,0,0,0-.9.19,2.25,2.25,0,0,0-1.15,3L75.25,655.54a2.23,2.23,0,0,0,2.06,1.34,2.16,2.16,0,0,0,.89-.19,2.24,2.24,0,0,0,1.15-3L14.74,506.42a2.26,2.26,0,0,0-2.06-1.35Z"/>
          </g>
          <g>
            <path d="M76.23,656.1a1.75,1.75,0,0,1-1.56-.94L.69,512.31A1.75,1.75,0,0,1,1.44,510a1.71,1.71,0,0,1,.8-.19,1.73,1.73,0,0,1,1.55.94l74,142.85a1.71,1.71,0,0,1,.11,1.33,1.68,1.68,0,0,1-.86,1A1.66,1.66,0,0,1,76.23,656.1Z" style="fill: #fff"/>
            <path d="M2.24,510.25a1.24,1.24,0,0,1,1.11.68l74,142.85a1.25,1.25,0,0,1,.08,1,1.23,1.23,0,0,1-.61.73,1.15,1.15,0,0,1-.57.14,1.25,1.25,0,0,1-1.12-.67l-74-142.85a1.25,1.25,0,0,1,.54-1.69,1.23,1.23,0,0,1,.57-.14m0-1a2.24,2.24,0,0,0-2,3.27l74,142.85a2.24,2.24,0,0,0,4-2.06l-74-142.85a2.23,2.23,0,0,0-2-1.21Z"/>
          </g>
          <g>
            <path d="M77.3,656.38a1.73,1.73,0,0,1-1.65-1.18L23.5,503a1.75,1.75,0,0,1,1.08-2.22,1.84,1.84,0,0,1,.57-.09,1.74,1.74,0,0,1,1.65,1.18L79,654.07a1.75,1.75,0,0,1-1.08,2.22A1.84,1.84,0,0,1,77.3,656.38Z" style="fill: #fff"/>
            <path d="M25.14,501.2h0a1.25,1.25,0,0,1,1.19.85L78.48,654.23a1.25,1.25,0,0,1-.77,1.59,1.14,1.14,0,0,1-.41.07,1.25,1.25,0,0,1-1.18-.85L24,502.86a1.25,1.25,0,0,1,.77-1.59,1.4,1.4,0,0,1,.4-.07m0-1a2.24,2.24,0,0,0-2.11,3L75.18,655.36a2.25,2.25,0,0,0,2.12,1.52,2.33,2.33,0,0,0,.73-.12,2.25,2.25,0,0,0,1.39-2.85L27.27,501.73a2.25,2.25,0,0,0-2.13-1.52Z"/>
          </g>
          <g>
            <path d="M77.3,656.38a1.76,1.76,0,0,1-1.73-1.48l-24.27-159a1.75,1.75,0,0,1,1.46-2l.27,0a1.76,1.76,0,0,1,1.72,1.48L79,654.37a1.78,1.78,0,0,1-.32,1.3,1.74,1.74,0,0,1-1.15.69A1.1,1.1,0,0,1,77.3,656.38Z" style="fill: #fff"/>
            <path d="M53,494.36a1.25,1.25,0,0,1,1.24,1.06l24.28,159a1.25,1.25,0,0,1-1.05,1.42l-.19,0a1.27,1.27,0,0,1-1.24-1.06l-24.27-159a1.24,1.24,0,0,1,.23-.93,1.25,1.25,0,0,1,.82-.5H53m0-1a1.83,1.83,0,0,0-.33,0A2.25,2.25,0,0,0,50.81,496L75.08,655a2.25,2.25,0,0,0,2.22,1.91,2,2,0,0,0,.34,0,2.25,2.25,0,0,0,1.88-2.55l-24.28-159a2.24,2.24,0,0,0-2.22-1.9Z"/>
          </g>
          <g>
            <path d="M77.3,656.38h-.19a1.75,1.75,0,0,1-1.55-1.93l17.7-159.89A1.74,1.74,0,0,1,95,493h.19a1.75,1.75,0,0,1,1.55,1.92L79,654.83A1.75,1.75,0,0,1,77.3,656.38Z" style="fill: #fff"/>
            <path d="M95,493.49h.14a1.25,1.25,0,0,1,1.1,1.38L78.54,654.77a1.26,1.26,0,0,1-1.24,1.12h-.14a1.26,1.26,0,0,1-1.1-1.38l17.7-159.9A1.26,1.26,0,0,1,95,493.49m0-1a2.25,2.25,0,0,0-2.23,2L75.07,654.39a2.24,2.24,0,0,0,2,2.47l.25,0a2.25,2.25,0,0,0,2.23-2L97.23,495a2.25,2.25,0,0,0-2-2.48H95Z"/>
          </g>
          <g>
            <path d="M76.83,656.26a1.75,1.75,0,0,1-1.66-1.21,1.75,1.75,0,0,1,.11-1.33l73.25-143.23a1.76,1.76,0,0,1,1.56-.95,1.75,1.75,0,0,1,1.66,1.21,1.75,1.75,0,0,1-.11,1.33L78.39,655.31A1.76,1.76,0,0,1,76.83,656.26Z" style="fill: #fff"/>
            <path d="M150.09,510h0a1.18,1.18,0,0,1,.56.13,1.26,1.26,0,0,1,.55,1.69L78,655.08a1.28,1.28,0,0,1-1.69.55,1.32,1.32,0,0,1-.62-.73,1.28,1.28,0,0,1,.08-1L149,510.72a1.26,1.26,0,0,1,1.12-.68m0-1a2.22,2.22,0,0,0-2,1.22L74.84,653.49a2.24,2.24,0,0,0,1,3,2.31,2.31,0,0,0,1,.24,2.24,2.24,0,0,0,2-1.22l73.25-143.22a2.26,2.26,0,0,0-1-3,2.21,2.21,0,0,0-1-.24Z"/>
          </g>
          <g>
            <path d="M78,688.88a1.72,1.72,0,0,1-1.39-.69,1.75,1.75,0,0,1,.33-2.45L205,588.41a1.75,1.75,0,0,1,2.12,2.78L79,688.53A1.7,1.7,0,0,1,78,688.88Z" style="fill: #fff"/>
            <path d="M206.05,588.55h0a1.25,1.25,0,0,1,.76,2.25L78.72,688.13a1.17,1.17,0,0,1-.75.25,1.25,1.25,0,0,1-.76-2.24l128.08-97.33a1.23,1.23,0,0,1,.76-.26m0-1a2.23,2.23,0,0,0-1.36.46L76.61,685.35a2.24,2.24,0,0,0,1.36,4,2.2,2.2,0,0,0,1.35-.46l128.09-97.33a2.24,2.24,0,0,0-1.36-4Z"/>
          </g>
          <g>
            <path d="M78,688.88a1.76,1.76,0,0,1-1.52-.88,1.74,1.74,0,0,1-.17-1.32,1.78,1.78,0,0,1,.82-1.06l139.61-79.93a1.72,1.72,0,0,1,.86-.22,1.75,1.75,0,0,1,1.52.87,1.77,1.77,0,0,1,.17,1.33,1.71,1.71,0,0,1-.82,1.06L78.84,688.65A1.8,1.8,0,0,1,78,688.88Z" style="fill: #fff"/>
            <path d="M217.57,606a1.25,1.25,0,0,1,1.09.63,1.21,1.21,0,0,1,.12.95,1.27,1.27,0,0,1-.58.76L78.59,688.22a1.22,1.22,0,0,1-.62.16,1.24,1.24,0,0,1-1.21-1.57,1.25,1.25,0,0,1,.58-.76L217,606.12a1.33,1.33,0,0,1,.62-.16m0-1a2.22,2.22,0,0,0-1.11.29L76.85,685.19a2.24,2.24,0,1,0,2.23,3.89l139.61-79.92a2.24,2.24,0,0,0-1.12-4.19Z"/>
          </g>
          <g>
            <path d="M78,688.88a1.74,1.74,0,0,1-1.61-2.42,1.7,1.7,0,0,1,.94-.94l148.91-60.88a1.64,1.64,0,0,1,.65-.13,1.74,1.74,0,0,1,1.62,2.42,1.72,1.72,0,0,1-.95.94L78.63,688.75A1.65,1.65,0,0,1,78,688.88Z" style="fill: #fff"/>
            <path d="M226.86,625a1.25,1.25,0,0,1,.48,2.41L78.44,688.29a1.23,1.23,0,0,1-1.63-.68,1.25,1.25,0,0,1,.68-1.63L226.4,625.1a1.22,1.22,0,0,1,.46-.09m0-1a2.28,2.28,0,0,0-.84.16L77.12,685.06a2.24,2.24,0,1,0,1.69,4.15l148.91-60.88a2.25,2.25,0,0,0,1.23-2.92h0a2.25,2.25,0,0,0-2.09-1.39Z"/>
          </g>
          <g>
            <path d="M76.62,687.83a1.74,1.74,0,0,1-1.12-3.08L198.76,581.39a1.78,1.78,0,0,1,1.12-.41,1.75,1.75,0,0,1,1.75,1.9,1.72,1.72,0,0,1-.62,1.19L77.74,687.43A1.75,1.75,0,0,1,76.62,687.83Z" style="fill: #fff"/>
            <path d="M199.88,581.48a1.23,1.23,0,0,1,1.25,1.36,1.25,1.25,0,0,1-.44.85L77.42,687.05a1.25,1.25,0,0,1-1.76-.16,1.26,1.26,0,0,1,.15-1.76L199.08,581.77a1.25,1.25,0,0,1,.8-.29m0-1a2.21,2.21,0,0,0-1.43.52L75.18,684.37a2.24,2.24,0,0,0,2.88,3.44L201.33,584.45a2.24,2.24,0,0,0-1.45-4Z"/>
          </g>
          <g>
            <path d="M600.77,460.45a1.75,1.75,0,0,1-1.63-1.09,1.75,1.75,0,0,1,1-2.28l149.06-60.51a1.64,1.64,0,0,1,.65-.13,1.75,1.75,0,0,1,.66,3.37L601.42,460.32A1.84,1.84,0,0,1,600.77,460.45Z" style="fill: #fff"/>
            <path d="M749.81,396.94a1.25,1.25,0,0,1,.48,2.41L601.23,459.86a1.22,1.22,0,0,1-.46.09,1.27,1.27,0,0,1-1.17-.78,1.25,1.25,0,0,1,.69-1.63L749.35,397a1.18,1.18,0,0,1,.46-.09m0-1a2.28,2.28,0,0,0-.84.16L599.92,456.62a2.24,2.24,0,0,0,.85,4.32,2.28,2.28,0,0,0,.84-.16l149-60.51a2.25,2.25,0,0,0,1.23-2.93h0a2.23,2.23,0,0,0-2.08-1.39Z"/>
          </g>
          <g>
            <path d="M600.76,460.45a1.75,1.75,0,0,1-.44-3.44L756,416.31a1.58,1.58,0,0,1,.43-.05,1.74,1.74,0,0,1,.45,3.43L601.2,460.39A1.61,1.61,0,0,1,600.76,460.45Z" style="fill: #fff"/>
            <path d="M756.39,416.75a1.27,1.27,0,0,1,1.22.94,1.25,1.25,0,0,1-.9,1.52l-155.63,40.7a1.17,1.17,0,0,1-.32,0,1.24,1.24,0,0,1-1.21-.93,1.26,1.26,0,0,1,.89-1.53l155.64-40.7a1.1,1.1,0,0,1,.31,0m0-1a2.2,2.2,0,0,0-.56.07l-155.64,40.7a2.24,2.24,0,0,0,.57,4.41,2.22,2.22,0,0,0,.57-.07L757,420.17a2.24,2.24,0,0,0-.57-4.41Z"/>
          </g>
          <g>
            <path d="M600.76,460.45a1.75,1.75,0,0,1-.22-3.48l159.64-19.89h.21a1.76,1.76,0,0,1,1.74,1.53,1.72,1.72,0,0,1-.36,1.29,1.75,1.75,0,0,1-1.16.66L601,460.43Z" style="fill: #fff"/>
            <path d="M760.39,437.56a1.25,1.25,0,0,1,.16,2.5L600.91,459.94h-.15a1.25,1.25,0,0,1-1.24-1.1,1.24,1.24,0,0,1,1.08-1.39l159.64-19.89h.15m0-1-.27,0L600.48,456.47a2.24,2.24,0,0,0,.28,4.47,1.37,1.37,0,0,0,.28,0L760.67,441a2.24,2.24,0,0,0-.28-4.47Z"/>
          </g>
          <g>
            <path d="M599.74,459.08a1.74,1.74,0,0,1-1.59-1,1.71,1.71,0,0,1-.06-1.33,1.8,1.8,0,0,1,.91-1l146-67.59a1.84,1.84,0,0,1,.73-.16,1.75,1.75,0,0,1,.74,3.34l-146,67.58A1.69,1.69,0,0,1,599.74,459.08Z" style="fill: #fff"/>
            <path d="M745.71,388.5a1.25,1.25,0,0,1,.53,2.39l-146,67.58a1.2,1.2,0,0,1-.52.12,1.25,1.25,0,0,1-.53-2.39l146-67.59a1.31,1.31,0,0,1,.52-.11m0-1a2.21,2.21,0,0,0-.94.2l-146,67.59a2.24,2.24,0,0,0,1,4.28,2.21,2.21,0,0,0,.93-.21l146-67.58a2.25,2.25,0,0,0,1.09-3h0a2.24,2.24,0,0,0-2-1.3Z"/>
          </g>
          <g>
            <path d="M500,611.72a1.74,1.74,0,0,1-1.69-1.3,1.75,1.75,0,0,1,1.24-2.13L655,566.84a1.61,1.61,0,0,1,.44-.06,1.77,1.77,0,0,1,1.7,1.3,1.76,1.76,0,0,1-1.24,2.14L500.45,611.66A1.74,1.74,0,0,1,500,611.72Z" style="fill: #fff"/>
            <path d="M655.44,567.28a1.25,1.25,0,0,1,.32,2.46L500.32,611.18a1.12,1.12,0,0,1-.32,0,1.25,1.25,0,0,1-.32-2.46l155.44-41.44a1.12,1.12,0,0,1,.32,0m0-1a2.3,2.3,0,0,0-.58.07L499.42,607.81a2.24,2.24,0,0,0,.58,4.41,2.32,2.32,0,0,0,.58-.08L656,570.7a2.24,2.24,0,0,0-.58-4.41Z"/>
          </g>
          <g>
            <path d="M499.64,610.34a1.75,1.75,0,0,1-.57-3.4l152.45-51.38a1.71,1.71,0,0,1,.55-.09,1.75,1.75,0,0,1,1.66,1.19,1.74,1.74,0,0,1-1.1,2.21L500.19,610.25A1.76,1.76,0,0,1,499.64,610.34Z" style="fill: #fff"/>
            <path d="M652.07,556a1.25,1.25,0,0,1,.41,2.43L500,609.78a1.34,1.34,0,0,1-.39.07,1.25,1.25,0,0,1-.41-2.44L651.68,556a1.27,1.27,0,0,1,.39-.06m0-1a2.23,2.23,0,0,0-.71.11L498.92,606.47a2.24,2.24,0,1,0,1.43,4.25l152.44-51.38a2.24,2.24,0,0,0-.72-4.36Z"/>
          </g>
          <g>
            <path d="M500,611.63a1.79,1.79,0,0,1-1.52-.87,1.75,1.75,0,0,1,.64-2.39l139-81a1.75,1.75,0,0,1,2.38.64,1.7,1.7,0,0,1,.18,1.32,1.73,1.73,0,0,1-.81,1.06l-139,80.95A1.75,1.75,0,0,1,500,611.63Z" style="fill: #fff"/>
            <path d="M639,527.68h0a1.28,1.28,0,0,1,1.09.62,1.25,1.25,0,0,1-.46,1.71l-139,81a1.23,1.23,0,0,1-.62.17,1.28,1.28,0,0,1-1.09-.62,1.27,1.27,0,0,1,.45-1.71l139-80.95a1.27,1.27,0,0,1,.63-.17m0-1a2.18,2.18,0,0,0-1.12.31l-139,80.94a2.24,2.24,0,0,0,1.13,4.18,2.27,2.27,0,0,0,1.12-.3l139-81a2.24,2.24,0,0,0-1.13-4.18Z"/>
          </g>
          <g>
            <path d="M500,611.72a1.74,1.74,0,0,1-1.72-1.44,1.71,1.71,0,0,1,.29-1.3,1.74,1.74,0,0,1,1.12-.73L658,579.87a1.51,1.51,0,0,1,.3,0,1.74,1.74,0,0,1,.31,3.46L500.31,611.69Z" style="fill: #fff"/>
            <path d="M658.34,580.34a1.25,1.25,0,0,1,1,2,1.22,1.22,0,0,1-.8.51L500.22,611.2a.82.82,0,0,1-.22,0,1.25,1.25,0,0,1-1.23-1,1.24,1.24,0,0,1,.2-.93,1.26,1.26,0,0,1,.81-.52l158.34-28.38.22,0m0-1-.39,0L499.6,607.77a2.24,2.24,0,0,0-1.81,2.6,2.26,2.26,0,0,0,2.21,1.85,1.87,1.87,0,0,0,.4,0L658.74,583.8a2.24,2.24,0,0,0-.4-4.45Z"/>
          </g>
          <g>
            <path d="M500,611.72a1.76,1.76,0,0,1-1.75-1.75,1.75,1.75,0,0,1,1.75-1.74l160.87.21a1.72,1.72,0,0,1,1.23.51,1.74,1.74,0,0,1-1.23,3h0Z" style="fill: #fff"/>
            <path d="M500,608.72l160.87.21a1.26,1.26,0,0,1,0,2.51L500,611.22a1.25,1.25,0,0,1,0-2.5h0m0-1a2.25,2.25,0,0,0,0,4.49l160.87.21h0a2.25,2.25,0,0,0,0-4.49L500,607.73Z"/>
          </g>
          <g>
            <path d="M659.48,632.77l-.22,0-159.49-21a1.72,1.72,0,0,1-1.16-.67,1.74,1.74,0,0,1,1.39-2.8h.23l159.48,21a1.72,1.72,0,0,1,1.16.67,1.74,1.74,0,0,1-1.39,2.81Z" style="fill: #fff"/>
            <path d="M500,608.72h.16l159.49,21a1.26,1.26,0,0,1,1.08,1.4,1.27,1.27,0,0,1-1.25,1.09h-.16l-159.49-21a1.21,1.21,0,0,1-.82-.48,1.18,1.18,0,0,1-.25-.92,1.25,1.25,0,0,1,1.24-1.09m0-1a2.24,2.24,0,0,0-.3,4.47l159.49,21,.29,0a2.24,2.24,0,0,0,.3-4.47l-159.49-21-.29,0Z"/>
          </g>
          <g>
            <path d="M500,611.63a1.78,1.78,0,0,1-1.43-.73,1.75,1.75,0,0,1,.41-2.44l130.69-93.79a1.75,1.75,0,1,1,2,2.84L501,611.3A1.72,1.72,0,0,1,500,611.63Z" style="fill: #fff"/>
            <path d="M630.67,514.84h0a1.25,1.25,0,0,1,.73,2.26L500.7,610.9a1.25,1.25,0,0,1-2-1.22,1.29,1.29,0,0,1,.5-.82l130.7-93.79a1.24,1.24,0,0,1,.73-.23m0-1a2.2,2.2,0,0,0-1.31.42L498.67,608.06a2.24,2.24,0,0,0,1.31,4.06,2.17,2.17,0,0,0,1.3-.42L632,517.91a2.25,2.25,0,0,0,.51-3.13,2.22,2.22,0,0,0-1.82-.93Z"/>
          </g>
          <g>
            <path d="M655.33,653.55a1.74,1.74,0,0,1-.45-.06L499.54,611.66a1.77,1.77,0,0,1-1.23-2.14,1.75,1.75,0,0,1,1.69-1.29,2.3,2.3,0,0,1,.45,0l155.34,41.83a1.75,1.75,0,0,1-.46,3.44Z" style="fill: #fff"/>
            <path d="M500,608.72a1.65,1.65,0,0,1,.32,0l155.34,41.83a1.28,1.28,0,0,1,.76.59,1.25,1.25,0,0,1-1.09,1.87,1.12,1.12,0,0,1-.32,0L499.67,611.18a1.26,1.26,0,0,1-.88-1.53,1.25,1.25,0,0,1,1.21-.93m0-1a2.24,2.24,0,0,0-.59,4.41L654.75,654a2.3,2.3,0,0,0,.58.07,2.24,2.24,0,0,0,.59-4.41L500.58,607.81a1.93,1.93,0,0,0-.58-.08Z"/>
          </g>
          <g>
            <path d="M499.68,610.54a1.75,1.75,0,0,1-1-.34,1.77,1.77,0,0,1-.36-2.45l95.81-129.22a1.77,1.77,0,0,1,1.41-.7,1.74,1.74,0,0,1,1.4,2.78L501.09,609.83A1.78,1.78,0,0,1,499.68,610.54Z" style="fill: #fff"/>
            <path d="M595.5,478.32h0a1.22,1.22,0,0,1,.74.25,1.25,1.25,0,0,1,.26,1.75L500.69,609.54a1.28,1.28,0,0,1-1,.5,1.21,1.21,0,0,1-.74-.24,1.24,1.24,0,0,1-.49-.82,1.22,1.22,0,0,1,.23-.93l95.81-129.22a1.27,1.27,0,0,1,1-.51m0-1a2.23,2.23,0,0,0-1.8.91L497.88,607.46a2.24,2.24,0,0,0,.47,3.13h0a2.19,2.19,0,0,0,1.33.44,2.23,2.23,0,0,0,1.8-.9L597.3,480.91a2.24,2.24,0,0,0-.47-3.14,2.17,2.17,0,0,0-1.33-.44Z"/>
          </g>
          <g>
            <path d="M499.39,609.46a1.75,1.75,0,0,1-1.46-2.69l87.29-135.13a1.74,1.74,0,0,1,2.93,1.89L500.86,608.66A1.74,1.74,0,0,1,499.39,609.46Z" style="fill: #fff"/>
            <path d="M586.69,471.34h0a1.3,1.3,0,0,1,.67.19,1.25,1.25,0,0,1,.37,1.73L500.44,608.39a1.24,1.24,0,0,1-1.72.37,1.25,1.25,0,0,1-.55-.78,1.27,1.27,0,0,1,.17-1l87.29-135.12a1.25,1.25,0,0,1,1.06-.57m0-1a2.26,2.26,0,0,0-1.89,1L497.51,606.5a2.25,2.25,0,0,0,.67,3.1,2.21,2.21,0,0,0,1.21.35,2.25,2.25,0,0,0,1.89-1L588.57,473.8a2.25,2.25,0,0,0-.67-3.1,2.22,2.22,0,0,0-1.21-.36Z"/>
          </g>
          <g>
            <path d="M499.68,610.54a1.78,1.78,0,0,1-1.15-.43,1.75,1.75,0,0,1-.16-2.47L604.59,486.83a1.75,1.75,0,0,1,1.32-.59,1.73,1.73,0,0,1,1.15.43,1.75,1.75,0,0,1,.16,2.47L501,610A1.77,1.77,0,0,1,499.68,610.54Z" style="fill: #fff"/>
            <path d="M605.91,486.73h0a1.23,1.23,0,0,1,.82.31,1.26,1.26,0,0,1,.12,1.77L500.62,609.62a1.25,1.25,0,0,1-2.18-.75,1.19,1.19,0,0,1,.3-.9L605,487.16a1.24,1.24,0,0,1,.94-.43m0-1a2.26,2.26,0,0,0-1.69.76L498,607.31a2.23,2.23,0,0,0,1.68,3.72,2.22,2.22,0,0,0,1.69-.76L607.59,489.46a2.24,2.24,0,0,0-.2-3.16,2.21,2.21,0,0,0-1.48-.56Z"/>
          </g>
          <g>
            <path d="M499.69,610.54a1.76,1.76,0,0,1-1.38-.66,1.8,1.8,0,0,1-.36-1.29,1.72,1.72,0,0,1,.65-1.17l126-100a1.75,1.75,0,0,1,2.82,1.57,1.7,1.7,0,0,1-.65,1.17l-126,100A1.69,1.69,0,0,1,499.69,610.54Z" style="fill: #fff"/>
            <path d="M625.68,507.53h0a1.27,1.27,0,0,1,1,.48,1.25,1.25,0,0,1,.26.92,1.22,1.22,0,0,1-.46.83l-126,100a1.21,1.21,0,0,1-.77.27,1.25,1.25,0,0,1-.78-2.23l126-100a1.26,1.26,0,0,1,.77-.27m0-1a2.23,2.23,0,0,0-1.39.49l-126,100a2.24,2.24,0,0,0,2.79,3.51l126-100a2.24,2.24,0,0,0,.36-3.15h0a2.22,2.22,0,0,0-1.76-.85Z"/>
          </g>
          <g>
            <path d="M499.69,610.54a1.75,1.75,0,0,1-.7-3.35l147.59-64a1.64,1.64,0,0,1,.69-.14,1.74,1.74,0,0,1,1.63,2.38,1.72,1.72,0,0,1-.93,1l-147.59,64A1.65,1.65,0,0,1,499.69,610.54Z" style="fill: #fff"/>
            <path d="M647.27,543.54h0a1.26,1.26,0,0,1,1.15.75,1.25,1.25,0,0,1-.65,1.65l-147.59,64a1.16,1.16,0,0,1-.49.1,1.24,1.24,0,0,1-1.15-.75,1.25,1.25,0,0,1,.65-1.65l147.59-64a1.34,1.34,0,0,1,.49-.1m0-1a2.32,2.32,0,0,0-.89.18l-147.59,64a2.25,2.25,0,0,0-1.16,2.95,2.23,2.23,0,0,0,2.06,1.35,2.32,2.32,0,0,0,.89-.18l147.59-64a2.24,2.24,0,0,0-.9-4.3Z"/>
          </g>
          <g>
            <path d="M499.56,610.07a1.75,1.75,0,0,1-.08-3.49l160.7-7.5a1.75,1.75,0,0,1,.16,3.49Z" style="fill: #fff"/>
            <path d="M660.25,599.57a1.27,1.27,0,0,1,1.25,1.2,1.21,1.21,0,0,1-.32.89,1.24,1.24,0,0,1-.87.41l-160.69,7.5h-.06a1.26,1.26,0,0,1-.06-2.51l160.7-7.5h0m0-1h-.1l-160.7,7.5a2.25,2.25,0,0,0,.11,4.49h.1l160.7-7.51a2.24,2.24,0,0,0-.11-4.48Z"/>
          </g>
          <g>
            <polygon points="63.84 798.55 53.95 672.77 73.24 652.88 80.59 656.15 61.7 674.86 69.88 793.28 83.09 804.76 79.26 811.82 63.84 798.55"/>
            <path d="M73.35,653.47l6.38,2.84-18.21,18-.33.32,0,.46,8.15,118,0,.41.31.27,12.75,11.08L79.11,811l-14.8-12.73L54.46,673l18.89-19.48m-.22-1.18L53.44,672.58,63.36,798.8l16,13.8,4.32-8L70.36,793l-8.15-118L81.46,656l-8.33-3.7Z" style="fill: #fff"/>
          </g>
          <g>
            <polygon points="59.77 691.41 60.51 684.86 72.86 685.63 77.32 683.34 81.23 689.67 74.13 692.81 59.77 691.41"/>
            <path d="M77.13,684l3.37,5.44L74,692.31,60.32,691l.63-5.59,11.74.74.27,0,.24-.13,3.93-2m.37-1.31-4.75,2.44-12.68-.8-.85,7.53,15,1.46L82,689.89l-4.45-7.2Z" style="fill: #fff"/>
          </g>
          <g>
            <polygon points="59.71 816.03 281.97 703.27 435.24 534.67 599.77 447.03 605.67 457.91 446.23 546.93 289.15 718.36 62.99 828.29 59.71 816.03"/>
            <path d="M599.57,447.7l5.43,10L446.06,546.45l-.14.08-.11.12L288.85,718,63.32,827.58l-3-11.29L282.11,703.75l.17-.08.12-.13L435.55,535.07l164-87.37m.41-1.34-165,87.92L281.67,702.87,59.13,815.77,62.67,829,289.45,718.76,446.54,547.32l159.8-89.21L600,446.36Z" style="fill: #fff"/>
          </g>
          <g>
            <polygon points="249.01 677.33 236.23 600.5 232.71 554.25 241.87 522.97 243.76 441.11 253.79 440.33 251.22 525.76 244.78 552.2 246.49 597.51 258.53 672.56 278.62 709.38 270.34 718.35 249.01 677.33"/>
            <path d="M253.28,440.87l-2.55,84.83L244.32,552l0,.14v.14L246,597.53v.12l12,74.9,0,.17.08.15L278,709.31l-7.56,8.19-21-40.33-12.75-76.71-3.52-46.16,9.12-31.13,0-.13v-.13l1.87-81.34,9-.7m1-1.08-11,.86-1.89,82.24-9.17,31.3,3.53,46.39,12.79,76.91,21.69,41.72,9-9.75L259,672.39l-12-74.9-1.71-45.24,6.44-26.42,2.58-86Z" style="fill: #fff"/>
          </g>
          <g>
            <polygon points="349.52 567.75 362.48 513.59 393.91 480.8 398.48 486.04 368.84 517.99 355.78 565.6 370.49 612.29 365.85 617.14 349.52 567.75"/>
            <path d="M393.89,481.54l3.92,4.49-29.26,31.53-.16.18-.06.23-13,47.36-.08.28.09.28,14.58,46.27-3.87,4-16-48.47,12.9-53.89,31-32.3m0-1.47L362,513.34l-13,54.44,16.64,50.3,5.41-5.66L356.3,565.59l13-47.35,29.86-32.19-5.21-6Z" style="fill: #fff"/>
          </g>
          <g>
            <polygon points="472.96 610.57 468.63 583.07 454.62 557.05 440.64 548.6 448.87 543.92 462.31 550.55 476.34 580.36 479.63 603.51 507.63 607.51 505.06 613.7 472.96 610.57"/>
            <path d="M448.89,544.48l13,6.44,13.93,29.58,3.22,22.71.11.74.74.1,27,3.86-2.17,5.26-31.36-3-4.26-27,0-.17-.08-.15-13.91-25.82-.13-.24-.23-.14-13.14-7.95,7.27-4.13m0-1.12-9.21,5.22,14.6,8.83,13.9,25.82,4.38,27.8,32.85,3.2,2.95-7.12-28.26-4-3.25-22.86-14.14-30-13.82-6.82Z" style="fill: #fff"/>
          </g>
          <g>
            <path d="M595.8,457.76a1.7,1.7,0,0,1-.82-.21,1.75,1.75,0,0,1-.71-2.37l76.11-141.72a1.75,1.75,0,0,1,3.08,1.65L597.35,456.84A1.78,1.78,0,0,1,595.8,457.76Z" style="fill: #fff"/>
            <path d="M671.92,313h0a1.31,1.31,0,0,1,.59.14,1.25,1.25,0,0,1,.51,1.7L596.91,456.6a1.25,1.25,0,0,1-1.11.66,1.19,1.19,0,0,1-.58-.15,1.22,1.22,0,0,1-.61-.74,1.26,1.26,0,0,1,.1-.95l76.11-141.73a1.24,1.24,0,0,1,1.1-.65m0-1a2.26,2.26,0,0,0-2,1.18L593.83,455a2.26,2.26,0,0,0,.92,3,2.18,2.18,0,0,0,1,.26,2.24,2.24,0,0,0,2-1.18l76.11-141.72a2.25,2.25,0,0,0-2-3.31Z"/>
          </g>
          <g>
            <path d="M594.55,457.08a1.74,1.74,0,0,1-1.59-2.47l66.82-146.34a1.74,1.74,0,0,1,2.31-.86,1.76,1.76,0,0,1,.87,2.31L596.14,456.06A1.75,1.75,0,0,1,594.55,457.08Z" style="fill: #fff"/>
            <path d="M661.38,307.75h0a1.3,1.3,0,0,1,.51.11,1.26,1.26,0,0,1,.62,1.66L595.69,455.86a1.26,1.26,0,0,1-1.14.73,1.17,1.17,0,0,1-.52-.12,1.21,1.21,0,0,1-.65-.7,1.25,1.25,0,0,1,0-.95l66.82-146.34a1.26,1.26,0,0,1,1.15-.73m0-1a2.24,2.24,0,0,0-2,1.31L592.51,454.4a2.26,2.26,0,0,0,1.11,3h0a2.32,2.32,0,0,0,.93.2,2.24,2.24,0,0,0,2-1.31l66.82-146.34a2.25,2.25,0,0,0-1.11-3,2.16,2.16,0,0,0-.93-.2Z"/>
          </g>
          <g>
            <path d="M595.72,457.71a1.72,1.72,0,0,1-.39,0,1.75,1.75,0,0,1-1.31-2.1L630.09,298.8a1.72,1.72,0,0,1,2.09-1.31,1.73,1.73,0,0,1,1.09.78,1.77,1.77,0,0,1,.22,1.31L597.43,456.36A1.77,1.77,0,0,1,595.72,457.71Z" style="fill: #fff"/>
            <path d="M631.79,297.94h0a1.33,1.33,0,0,1,.28,0,1.27,1.27,0,0,1,.78.56,1.29,1.29,0,0,1,.16.94L596.94,456.25a1.26,1.26,0,0,1-1.22,1,1.33,1.33,0,0,1-.28,0,1.26,1.26,0,0,1-.94-1.5l36.07-156.78a1.26,1.26,0,0,1,1.22-1m0-1a2.25,2.25,0,0,0-2.19,1.74L593.54,455.46a2.24,2.24,0,0,0,1.68,2.69,2.2,2.2,0,0,0,.5.06,2.26,2.26,0,0,0,2.19-1.74L634,299.69a2.24,2.24,0,0,0-1.68-2.68,2.14,2.14,0,0,0-.5-.06Z"/>
          </g>
          <g>
            <path d="M595.8,457.76a1.75,1.75,0,0,1-.94-.28,1.78,1.78,0,0,1-.76-1.11,1.73,1.73,0,0,1,.24-1.31L682,320.15a1.73,1.73,0,0,1,1.47-.79,1.65,1.65,0,0,1,.94.28,1.74,1.74,0,0,1,.52,2.41L597.27,457A1.74,1.74,0,0,1,595.8,457.76Z" style="fill: #fff"/>
            <path d="M683.44,319.85h0a1.28,1.28,0,0,1,.68.2,1.25,1.25,0,0,1,.36,1.73L596.86,456.69a1.25,1.25,0,0,1-1.06.57,1.24,1.24,0,0,1-1.21-1,1.24,1.24,0,0,1,.17-.94l87.62-134.91a1.26,1.26,0,0,1,1.06-.57m0-1a2.25,2.25,0,0,0-1.89,1L593.93,454.79a2.24,2.24,0,0,0,.66,3.1,2.14,2.14,0,0,0,1.21.36,2.25,2.25,0,0,0,1.89-1l87.62-134.91a2.24,2.24,0,0,0-.65-3.1,2.28,2.28,0,0,0-1.22-.36Z"/>
          </g>
          <g>
            <path d="M595.81,457.76a1.72,1.72,0,0,1-1.2-.48,1.75,1.75,0,0,1-.07-2.47l110.2-117.19a1.74,1.74,0,0,1,1.28-.54,1.7,1.7,0,0,1,1.19.47,1.75,1.75,0,0,1,.08,2.47L597.08,457.21A1.75,1.75,0,0,1,595.81,457.76Z" style="fill: #fff"/>
            <path d="M706,337.57a1.22,1.22,0,0,1,.85.34,1.26,1.26,0,0,1,.06,1.77L596.72,456.87a1.26,1.26,0,0,1-1.77.05,1.22,1.22,0,0,1-.39-.87,1.25,1.25,0,0,1,.34-.9L705.1,338a1.27,1.27,0,0,1,.92-.39m0-1a2.27,2.27,0,0,0-1.64.7L594.17,454.47a2.24,2.24,0,0,0,1.64,3.78,2.21,2.21,0,0,0,1.63-.7L707.65,340.36a2.25,2.25,0,0,0-.1-3.17,2.21,2.21,0,0,0-1.53-.61Z"/>
          </g>
          <g>
            <path d="M595.81,457.76a1.75,1.75,0,0,1-1.11-3.1L719.16,352.73a1.74,1.74,0,0,1,2.84,1.53,1.73,1.73,0,0,1-.63,1.17L596.91,457.36A1.69,1.69,0,0,1,595.81,457.76Z" style="fill: #fff"/>
            <path d="M720.26,352.83a1.25,1.25,0,0,1,1,.46,1.27,1.27,0,0,1,.28.92,1.3,1.3,0,0,1-.45.84L596.6,457a1.25,1.25,0,0,1-1.76-.18,1.19,1.19,0,0,1-.27-.91A1.24,1.24,0,0,1,595,455L719.47,353.11a1.25,1.25,0,0,1,.79-.28m0-1a2.25,2.25,0,0,0-1.42.51L594.39,454.28a2.24,2.24,0,0,0,2.84,3.47L721.69,355.82a2.25,2.25,0,0,0-1.43-4Z"/>
          </g>
          <g>
            <path d="M595.72,457.71h-.22a1.76,1.76,0,0,1-1.51-2l21-159.49a1.75,1.75,0,0,1,1.73-1.52H617a1.76,1.76,0,0,1,1.51,2l-21,159.49A1.76,1.76,0,0,1,595.72,457.71Z" style="fill: #fff"/>
            <path d="M616.73,295.22h.16a1.26,1.26,0,0,1,1.08,1.41L597,456.13a1.25,1.25,0,0,1-1.24,1.09h-.16a1.26,1.26,0,0,1-1.08-1.41l21-159.49a1.27,1.27,0,0,1,1.25-1.09m0-1a2.26,2.26,0,0,0-2.23,1.95l-21,159.49a2.25,2.25,0,0,0,1.93,2.52l.29,0a2.26,2.26,0,0,0,2.23-1.95l21-159.49a2.25,2.25,0,0,0-1.93-2.52l-.29,0Z"/>
          </g>
          <g>
            <path d="M595.81,457.76a1.74,1.74,0,0,1-.92-3.23l136.77-84.69a1.75,1.75,0,0,1,2.62,1.89,1.72,1.72,0,0,1-.78,1.08L596.73,457.5A1.75,1.75,0,0,1,595.81,457.76Z" style="fill: #fff"/>
            <path d="M732.58,370.08h0a1.25,1.25,0,0,1,.66,2.31L596.46,457.08a1.22,1.22,0,0,1-.65.18,1.25,1.25,0,0,1-.66-2.31l136.77-84.69a1.28,1.28,0,0,1,.66-.18m0-1a2.2,2.2,0,0,0-1.18.33L594.63,454.1a2.25,2.25,0,0,0-.73,3.09,2.26,2.26,0,0,0,3.09.73l136.77-84.68a2.25,2.25,0,0,0,.73-3.09,2.23,2.23,0,0,0-1.91-1.06Z"/>
          </g>
          <g>
            <path d="M594.73,457.18a1.75,1.75,0,0,1-1.72-1.43l-28.7-158.29a1.79,1.79,0,0,1,.28-1.31,1.75,1.75,0,0,1,1.13-.72,1.55,1.55,0,0,1,.31,0,1.75,1.75,0,0,1,1.72,1.43l28.7,158.29a1.75,1.75,0,0,1-1.41,2A1.63,1.63,0,0,1,594.73,457.18Z" style="fill: #fff"/>
            <path d="M566,295.9a1.27,1.27,0,0,1,1.23,1L596,455.21a1.26,1.26,0,0,1-.2.94,1.3,1.3,0,0,1-.81.52l-.22,0a1.28,1.28,0,0,1-1.23-1L564.8,297.37a1.24,1.24,0,0,1,1-1.45.78.78,0,0,1,.22,0m0-1a2.71,2.71,0,0,0-.4,0,2.25,2.25,0,0,0-1.81,2.61l28.7,158.29a2.26,2.26,0,0,0,2.21,1.84,1.81,1.81,0,0,0,.4,0,2.25,2.25,0,0,0,1.81-2.61l-28.7-158.28A2.26,2.26,0,0,0,566,294.9Z"/>
          </g>
          <g>
            <path d="M593.75,456.65a1.75,1.75,0,0,1-1.7-1.32L553.21,299.22a1.7,1.7,0,0,1,.2-1.32,1.73,1.73,0,0,1,1.07-.8,2,2,0,0,1,.42-.05,1.75,1.75,0,0,1,1.7,1.33l38.84,156.11a1.75,1.75,0,0,1-.2,1.32,1.71,1.71,0,0,1-1.07.79A1.51,1.51,0,0,1,593.75,456.65Z" style="fill: #fff"/>
            <path d="M554.9,297.55a1.27,1.27,0,0,1,1.22.95L595,454.6a1.25,1.25,0,0,1-.91,1.52,1,1,0,0,1-.3,0,1.27,1.27,0,0,1-1.22-1L553.69,299.1a1.27,1.27,0,0,1,.14-1,1.3,1.3,0,0,1,.77-.57l.3,0m0-1a2.5,2.5,0,0,0-.54.07,2.24,2.24,0,0,0-1.63,2.72l38.84,156.11a2.24,2.24,0,0,0,2.18,1.7,2,2,0,0,0,.54-.07,2.23,2.23,0,0,0,1.63-2.71L557.08,298.26a2.26,2.26,0,0,0-2.18-1.71Z"/>
          </g>
          <g>
            <path d="M594.73,457.18A1.76,1.76,0,0,1,593,455.6L577.54,295.48a1.74,1.74,0,0,1,.4-1.28,1.69,1.69,0,0,1,1.18-.63h.16a1.76,1.76,0,0,1,1.74,1.58l15.45,160.13a1.74,1.74,0,0,1-1.57,1.9Z" style="fill: #fff"/>
            <path d="M579.28,294.06a1.26,1.26,0,0,1,1.25,1.13L596,455.31a1.26,1.26,0,0,1-1.13,1.37h-.12a1.27,1.27,0,0,1-1.25-1.14L578,295.43a1.26,1.26,0,0,1,1.12-1.37h.12m0-1h-.21a2.24,2.24,0,0,0-2,2.44L592.5,455.65a2.24,2.24,0,0,0,2.23,2H595a2.25,2.25,0,0,0,2-2.45L581.52,295.09a2.26,2.26,0,0,0-2.24-2Z"/>
          </g>
          <g>
            <path d="M594.59,457.18a1.76,1.76,0,0,1-1.6-1.89L606.25,295a1.76,1.76,0,0,1,1.74-1.61h.14a1.76,1.76,0,0,1,1.6,1.89L596.47,455.58a1.75,1.75,0,0,1-1.74,1.6Z" style="fill: #fff"/>
            <path d="M608,293.86h.1a1.29,1.29,0,0,1,.85.44,1.22,1.22,0,0,1,.29.91L596,455.54a1.26,1.26,0,0,1-1.25,1.14h-.1a1.26,1.26,0,0,1-1.15-1.35L606.74,295a1.25,1.25,0,0,1,1.25-1.15m0-1a2.26,2.26,0,0,0-2.24,2.06L592.5,455.25a2.24,2.24,0,0,0,2,2.42h.18a2.26,2.26,0,0,0,2.24-2.06L610.22,295.3a2.25,2.25,0,0,0-2.05-2.42Z"/>
          </g>
          <g>
            <path d="M594.73,457.18a2,2,0,0,1-.59-.1,1.75,1.75,0,0,1-1-2.24l54.28-151.43a1.77,1.77,0,0,1,1.65-1.16,1.75,1.75,0,0,1,1.64,2.34L596.38,456A1.77,1.77,0,0,1,594.73,457.18Z" style="fill: #fff"/>
            <path d="M649,302.75h0a1.16,1.16,0,0,1,.42.07,1.26,1.26,0,0,1,.76,1.6L595.91,455.85a1.25,1.25,0,0,1-1.18.83,1.16,1.16,0,0,1-.42-.07,1.26,1.26,0,0,1-.76-1.6l54.29-151.43a1.25,1.25,0,0,1,1.18-.83m0-1a2.24,2.24,0,0,0-2.11,1.48L592.62,454.68a2.23,2.23,0,0,0,1.35,2.86,2.22,2.22,0,0,0,2.87-1.35l54.29-151.43a2.24,2.24,0,0,0-2.11-3Z"/>
          </g>
          <g>
            <path d="M594.3,457a1.74,1.74,0,0,1-1.13-.42,1.7,1.7,0,0,1-.6-1.19,1.67,1.67,0,0,1,.41-1.27L697.44,331.73a1.74,1.74,0,0,1,2.46-.19,1.75,1.75,0,0,1,.2,2.46L595.63,456.34A1.73,1.73,0,0,1,594.3,457Z" style="fill: #fff"/>
            <path d="M698.77,331.62a1.26,1.26,0,0,1,.81.29,1.28,1.28,0,0,1,.43.86,1.25,1.25,0,0,1-.29.91L595.26,456a1.29,1.29,0,0,1-1,.43,1.26,1.26,0,0,1-.81-.29,1.27,1.27,0,0,1-.14-1.77L697.81,332.05a1.29,1.29,0,0,1,1-.43m0-1a2.23,2.23,0,0,0-1.71.79L592.6,453.75a2.25,2.25,0,0,0,.25,3.16,2.26,2.26,0,0,0,3.16-.25L700.47,334.32a2.25,2.25,0,0,0-.25-3.16h0a2.23,2.23,0,0,0-1.45-.54Z"/>
          </g>
        </g>
        <g>
          <circle cx="521.92" cy="270" r="5.5" style="fill: #fff"/>
          <path d="M521.92,265a5,5,0,1,1-5,5,5,5,0,0,1,5-5m0-1a6,6,0,1,0,6,6,6,6,0,0,0-6-6Z"/>
        </g>
        <circle cx="621.42" cy="210.5" r="6"/>
        <g>
          <circle cx="319.42" cy="121.5" r="9.5" style="fill: #fff"/>
          <path d="M319.42,112.49a9,9,0,1,1-9,9,9,9,0,0,1,9-9m0-1a10,10,0,1,0,10,10,10,10,0,0,0-10-10Z"/>
        </g>
        <circle cx="362.42" cy="352.5" r="3"/>
        <g>
          <circle cx="279.42" cy="365.5" r="5.5" style="fill: #fff"/>
          <path d="M279.42,360.49a5,5,0,1,1-5,5,5,5,0,0,1,5-5m0-1a6,6,0,1,0,6,6,6,6,0,0,0-6-6Z"/>
        </g>
        <circle cx="119.92" cy="249" r="10"/>
        <circle cx="333.92" cy="10" r="10"/>
        <circle cx="614.88" cy="316.62" r="22.5"/>
        <g>
          <circle cx="527.38" cy="357.12" r="9.5" style="fill: #fff"/>
          <path d="M527.38,348.11a9,9,0,1,1-9,9,9,9,0,0,1,9-9m0-1a10,10,0,1,0,10,10,10,10,0,0,0-10-10Z"/>
        </g>
        <polygon points="295.16 544.56 295.16 575.03 305.33 564.5 319.68 564.77 295.16 544.56"/>
        <g>
          <polygon points="459.87 82.67 482.48 101.31 469.34 101.06 459.87 110.87 459.87 82.67" style="fill: #fff"/>
          <path d="M460.37,83.72l20.69,17.07-11.5-.22h-.43l-.3.31-8.46,8.77V83.72m-1-2.1v30.47l10.16-10.53,14.35.27L459.38,81.62Z"/>
        </g>
        <g>
          <line x1="312.38" y1="213.62" x2="343.38" y2="213.62" style="fill: none;stroke: #000;stroke-miterlimit: 10;stroke-width: 0.9921259880065918px"/>
          <line x1="327.88" y1="198.12" x2="327.88" y2="229.12" style="fill: none;stroke: #000;stroke-miterlimit: 10;stroke-width: 0.9921259880065918px"/>
        </g>
        <path d="M473.83,76a1.28,1.28,0,0,1-.92-.33,1.16,1.16,0,0,1-.35-.86V72.41a1.23,1.23,0,0,1,.34-.9,1.14,1.14,0,0,1,.86-.34h3.3a3.1,3.1,0,0,0,1.3-.25,1.72,1.72,0,0,0,.8-.7,2.25,2.25,0,0,0,.27-1.15,1.82,1.82,0,0,0-1.16-1.76,3.34,3.34,0,0,0-1.29-.23,2.75,2.75,0,0,0-1.29.26,1.82,1.82,0,0,0-.78.72,3.78,3.78,0,0,0-.45,1.11,2.33,2.33,0,0,1-.25.45,1.06,1.06,0,0,1-.4.29,1.56,1.56,0,0,1-.66.12,1.26,1.26,0,0,1-.88-.31,1.12,1.12,0,0,1-.35-.87,3.86,3.86,0,0,1,.66-2.26,4.08,4.08,0,0,1,1.83-1.47,7,7,0,0,1,2.72-.5,6.19,6.19,0,0,1,2.7.54,4,4,0,0,1,1.73,1.57,4.79,4.79,0,0,1,.59,2.42,4.45,4.45,0,0,1-.57,2.29,3.84,3.84,0,0,1-1.8,1.52,7.53,7.53,0,0,1-3.09.55h-1.84l.26-.82v2.09a1.13,1.13,0,0,1-.36.86A1.28,1.28,0,0,1,473.83,76Zm0,4.11a1.61,1.61,0,0,1-1.17-.42,1.6,1.6,0,0,1,0-2.2,1.61,1.61,0,0,1,1.17-.41,1.57,1.57,0,0,1,1.15.41,1.62,1.62,0,0,1,0,2.2A1.58,1.58,0,0,1,473.84,80.08Z"/>
        <g>
          <g>
            <path d="M234.62,76.7A19.5,19.5,0,1,1,248.41,71,19.38,19.38,0,0,1,234.62,76.7Z" style="fill: #fff"/>
            <path d="M234.62,38.19a19,19,0,1,1-13.44,5.57,18.9,18.9,0,0,1,13.44-5.57m0-1a20,20,0,1,0,14.14,5.85,20,20,0,0,0-14.14-5.85Z"/>
          </g>
          <g>
            <line x1="222.12" y1="57.2" x2="247.12" y2="57.2" style="fill: none;stroke: #000;stroke-miterlimit: 10;stroke-width: 0.9921259880065918px"/>
            <line x1="234.62" y1="44.7" x2="234.62" y2="69.7" style="fill: none;stroke: #000;stroke-miterlimit: 10;stroke-width: 0.9921259880065918px"/>
          </g>
          <rect x="253.39" y="67.35" width="5" height="20.83" transform="translate(19.96 203.72) rotate(-45)"/>
        </g>
        <g>
          <g>
            <path d="M445.76,272.56a19.51,19.51,0,1,1,13.79-5.71A19.38,19.38,0,0,1,445.76,272.56Z" style="fill: #fff"/>
            <path d="M445.76,234.05a19,19,0,1,1-13.44,5.56,18.87,18.87,0,0,1,13.44-5.56m0-1a20,20,0,1,0,14.14,5.86,19.95,19.95,0,0,0-14.14-5.86Z"/>
          </g>
          <line x1="433.26" y1="253.05" x2="458.26" y2="253.05" style="fill: none;stroke: #000;stroke-miterlimit: 10;stroke-width: 0.9921259880065918px"/>
          <rect x="464.53" y="263.2" width="5" height="20.83" transform="translate(-56.69 410.38) rotate(-45)"/>
        </g>
      </g>
    </g>
  </g>
</svg>
