<?xml version="1.0" encoding="utf-8"?>
<!-- Generator: Adobe Illustrator 24.2.0, SVG Export Plug-In . SVG Version: 6.00 Build 0)  -->
<svg version="1.1" id="Layer_1" xmlns="http://www.w3.org/2000/svg" xmlns:xlink="http://www.w3.org/1999/xlink" x="0px" y="0px"
	 viewBox="0 0 540 949.79999" style="enable-background:new 0 0 540 949.79999;" xml:space="preserve">
<style type="text/css">
	.st0{fill:none;stroke:#F5EBB6;stroke-miterlimit:10;}
	
		.st1{display:none;opacity:0.5;fill:none;stroke:#F5EBB6;stroke-miterlimit:10;stroke-dasharray:166.2092,166.2092;enable-background:new    ;}
	
		.st2{display:none;opacity:0.5;fill:none;stroke:#F5EBB6;stroke-miterlimit:10;stroke-dasharray:376.26071,376.26071;enable-background:new    ;}
	
		.st3{display:none;opacity:0.5;fill:none;stroke:#F5EBB6;stroke-miterlimit:10;stroke-dasharray:329.14429,329.14429;enable-background:new    ;}
	
		.st4{display:none;opacity:0.5;fill:none;stroke:#F5EBB6;stroke-width:0.99999;stroke-miterlimit:9.9999;stroke-dasharray:113.10071,113.10071;enable-background:new    ;}
	
		.st5{display:none;opacity:0.5;fill:none;stroke:#F5EBB6;stroke-miterlimit:10;stroke-dasharray:251.276,251.276;enable-background:new    ;}
	
		.st6{display:none;opacity:0.5;fill:none;stroke:#F5EBB6;stroke-miterlimit:10;stroke-dasharray:439.73309,439.73309;enable-background:new    ;}
	
		.st7{display:none;opacity:0.5;fill:none;stroke:#F5EBB6;stroke-miterlimit:10;stroke-dasharray:69.1009,69.1009;enable-background:new    ;}
	
		.st8{display:none;opacity:0.5;fill:none;stroke:#F5EBB6;stroke-miterlimit:10;stroke-dasharray:141.3429,141.3429;enable-background:new    ;}
	
		.st9{display:none;opacity:0.5;fill:none;stroke:#F5EBB6;stroke-miterlimit:10;stroke-dasharray:62.8053,62.8053;enable-background:new    ;}
	.st10{display:none;}
	.st11{display:inline;fill:#F5EBB6;stroke:#F5EBB6;stroke-miterlimit:10;}
	.st12{display:inline;fill:#F1E297;stroke:#F5EBB6;stroke-miterlimit:10;}
	.st13{display:none;fill:none;stroke:#F5EBB6;stroke-miterlimit:10;}
	.st14{display:inline;fill:none;stroke:#F5EBB6;stroke-miterlimit:10;}
	.st15{display:none;fill:#F5EBB6;stroke:#F5EBB6;stroke-miterlimit:10;}
	.st16{display:inline;fill:#F5EBB6;}
	.st17{display:none;fill:#F5EBB6;}
	.st18{display:inline;}
</style>
<g id="Layer_2_1_">
	<g id="Layer_1-2">
		<g>
			<polygon class="st0" points="254.5,917.20001 275,948.90002 285.39999,932.79999 275,948.90002 			"/>
			<path class="st0" d="M302.10001,907c11.29999-17.40002,22.60001-34.59998,33.79999-51.40002l0,0
				C324.60001,872.5,313.29999,889.79999,302.10001,907z"/>
			<path class="st0" d="M234.8,886.90002c-6.89999-10.59998-13.8-21-20.7-31.40002l0,0
				C220.8,865.79999,227.8,876.20001,234.8,886.90002z"/>
			<path class="st0" d="M336,94.3c-4.89999-7.4-9.89999-15-15-22.7C326,79.2,331,86.8,336,94.3z"/>
			<path class="st1" d="M12,447.20001c15.3-145.29999,145.5-250.60001,290.79999-235.3
				c139.70001,14.7,243.5,136.00002,236.39996,276.29999c-0.20001,4.79999-0.59998,9.60001-1.09998,14.39999
				c-15.29999,145.30002-145.5,250.60001-290.79999,235.30002C107.7,723.20001,3.8,601.79999,10.9,461.60001
				C11.1,456.79999,11.4,452,12,447.20001z"/>
			<path class="st2" d="M376.70001,691.70001C257,747.90002,114.4,696.29999,58.2,576.59998s-4.6-262.29999,115.10001-318.5
				s262.29999-4.60001,318.5,115.10001c27,57.5,30,123.39999,8.39999,183.10001
				C478.79999,616.09998,434.29999,664.90002,376.70001,691.70001z"/>
			<path class="st3" d="M268.60001,684.29999C153,680.79999,62.1,584.20001,65.6,468.60001
				C69.1,352.89999,165.7,262,281.29999,265.5C397,269,487.89999,365.60001,484.39999,481.20001
				c-1.70001,55.5-25.39999,108.09998-65.80002,146.20001C378.20001,665.70001,324.20001,686.09998,268.60001,684.29999z"/>
			
				<ellipse transform="matrix(0.70711 -0.70711 0.70711 0.70711 -255.25992 333.54483)" class="st4" cx="274.99426" cy="474.89838" rx="179.99826" ry="179.99829"/>
			<circle class="st5" cx="275" cy="474.89999" r="160.00002"/>
			<circle class="st6" cx="275" cy="474.89999" r="140.00002"/>
			<circle class="st7" cx="275" cy="474.89999" r="110.00001"/>
			<circle class="st8" cx="275" cy="474.89999" r="90.00001"/>
			<circle class="st9" cx="275" cy="474.89999" r="60.00001"/>
			<g class="st10">
				<circle class="st11" cx="412" cy="499.89999" r="5.5"/>
				<path class="st12" d="M412,494.89999c2.79999,0,5,2.20001,5,5s-2.20001,5-5,5s-5-2.20001-5-5S409.20001,494.89999,412,494.89999
					 M412,493.89999c-3.29999,0-6,2.70001-6,6s2.70001,6,6,6s6-2.70001,6-6l0,0C418,496.60001,415.29999,493.89999,412,493.89999z"
					/>
			</g>
			<circle class="st13" cx="511.5" cy="440.39999" r="6"/>
			<g class="st10">
				<circle class="st14" cx="209.5" cy="351.39999" r="9.5"/>
				<path class="st12" d="M209.5,342.39999c5,0,9,4,9,9s-4,9-9,9s-9-4-9-9S204.5,342.39999,209.5,342.39999 M209.5,341.39999
					c-5.5,0-10,4.5-10,10s4.5,10,10,10s10-4.5,10-10S215,341.39999,209.5,341.39999z"/>
			</g>
			<circle class="st13" cx="252.5" cy="582.40002" r="3"/>
			<g class="st10">
				<circle class="st11" cx="169.5" cy="595.40002" r="5.5"/>
				<path class="st12" d="M169.5,590.40002c2.8,0,5,2.20001,5,5s-2.2,5-5,5s-5-2.20001-5-5S166.7,590.40002,169.5,590.40002
					 M169.5,589.40002c-3.3,0-6,2.70001-6,6s2.7,6,6,6s6-2.70001,6-6S172.8,589.40002,169.5,589.40002z"/>
			</g>
			<circle class="st13" cx="10" cy="478.89999" r="10"/>
			<circle class="st15" cx="224" cy="239.89999" r="10"/>
			<circle class="st13" cx="475.89999" cy="567.29999" r="22.5"/>
			<g class="st10">
				<circle class="st16" cx="277" cy="683.90002" r="9.5"/>
				<path class="st16" d="M277,674.90002c5,0,9,4,9,9s-4,9-9,9s-9-4-9-9S272,674.90002,277,674.90002 M277,673.90002
					c-5.5,0-10,4.5-10,10s4.5,10,10,10s10-4.5,10-10S282.5,673.90002,277,673.90002z"/>
			</g>
			<polygon class="st17" points="202,740.5 202,770.90002 212.2,760.40002 226.5,760.70001 			"/>
			<g class="st10">
				<polygon class="st16" points="336,173.60001 358.60001,192.2 345.5,192 336,201.8 				"/>
				<path class="st16" d="M336.5,174.60001l20.70001,17.10001l-11.5-0.2h-0.39999l-0.29999,0.3l-8.5,8.8L336.5,174.60001
					 M335.5,172.5V203l10.20001-10.5L360,192.8L335.5,172.5L335.5,172.5z"/>
			</g>
			<g class="st10">
				<line class="st14" x1="397" y1="644.40002" x2="428" y2="644.40002"/>
				<line class="st14" x1="412.5" y1="628.90002" x2="412.5" y2="659.90002"/>
			</g>
			<path class="st17" d="M350.89999,171.89999c-0.29999,0-0.70001-0.10001-0.89999-0.3c-0.20001-0.2-0.39999-0.5-0.39999-0.89999
				V168.3c0-0.3,0.10001-0.7,0.29999-0.89999c0.20001-0.2,0.5-0.39999,0.89999-0.39999h3.29999
				c0.39999,0,0.89999-0.10001,1.29999-0.2c0.29999-0.10001,0.60001-0.39999,0.79999-0.7c0.20001-0.3,0.29999-0.7,0.29999-1.10001
				c0-0.39999-0.10001-0.8-0.29999-1.10001c-0.20001-0.3-0.5-0.5-0.89999-0.7s-0.79999-0.2-1.29999-0.2
				c-0.39999,0-0.89999,0.10001-1.29999,0.3c-0.29999,0.2-0.60001,0.39999-0.79999,0.7c-0.20001,0.3-0.29999,0.7-0.39999,1.10001
				c-0.10001,0.2-0.20001,0.3-0.20001,0.39999c-0.10001,0.10001-0.20001,0.2-0.39999,0.3
				c-0.20001,0.10001-0.39999,0.10001-0.70001,0.10001c-0.29999,0-0.60001-0.10001-0.89999-0.3
				c-0.20001-0.2-0.39999-0.5-0.39999-0.89999c0-0.8,0.20001-1.60001,0.60001-2.3c0.5-0.7,1.10001-1.2,1.79999-1.5
				c0.89999-0.39999,1.79999-0.5,2.70001-0.5c0.89999,0,1.89999,0.2,2.70001,0.60001c0.70001,0.3,1.29999,0.89999,1.70001,1.60001
				c0.39999,0.7,0.60001,1.60001,0.60001,2.39999c0,0.8-0.20001,1.60001-0.60001,2.3s-1.10001,1.2-1.79999,1.5
				c-1,0.39999-2,0.60001-3.10001,0.5h-1.79999l0.29999-0.8v2.10001c0,0.3-0.10001,0.60001-0.39999,0.89999
				C351.60001,171.8,351.20001,171.89999,350.89999,171.89999z M350.89999,176c-0.39999,0-0.79999-0.10001-1.20001-0.39999
				c-0.29999-0.3-0.5-0.7-0.39999-1.10001c0-0.39999,0.10001-0.8,0.39999-1.10001S350.39999,173,350.89999,173
				c0.39999,0,0.79999,0.10001,1.10001,0.39999c0.29999,0.3,0.39999,0.7,0.39999,1.10001c0,0.39999-0.10001,0.8-0.39999,1.10001
				C351.79999,175.89999,351.29999,176,350.89999,176L350.89999,176z"/>
			<polygon class="st0" points="295.5,32.6 275,0.9 264.60001,17 275,0.9 			"/>
			<path class="st0" d="M247.89999,42.8c-11.3,17.4-22.60001,34.59999-33.8,51.4l0,0C225.39999,77.3,236.7,60,247.89999,42.8z"/>
			<g class="st10">
				<g class="st18">
					<path class="st0" d="M124.7,306.60001c-10.8,0-19.5-8.70001-19.5-19.5s8.7-19.5,19.5-19.5s19.5,8.70001,19.5,19.5
						c0,5.20001-2.10001,10.10001-5.7,13.79999C134.8,304.60001,129.89999,306.60001,124.7,306.60001z"/>
					<path class="st0" d="M124.7,268.10001c10.5,0,19,8.5,19,19s-8.5,19-19,19s-19-8.5-19-19c0-5,2-9.89999,5.6-13.39999
						C114.8,270.10001,119.7,268.10001,124.7,268.10001 M124.7,267.10001c-11,0-20,8.89999-20.1,19.89999c0,11,8.9,20,19.9,20.10001
						s20-8.89999,20.10001-19.89999c0-5.29999-2.10001-10.39999-5.8-14.10001C135.10001,269.20001,130,267.10001,124.7,267.10001
						L124.7,267.10001z"/>
				</g>
				<g class="st18">
					<line class="st0" x1="112.2" y1="287.10001" x2="137.2" y2="287.10001"/>
					<line class="st0" x1="124.7" y1="274.60001" x2="124.7" y2="299.60001"/>
				</g>
				
					<rect x="143.51196" y="297.26657" transform="matrix(0.70711 -0.70711 0.70711 0.70711 -174.78712 193.35945)" class="st16" width="4.99995" height="20.79979"/>
			</g>
			<g class="st10">
				<g class="st18">
					<path class="st0" d="M316,766.40002c-10.79999,0-19.5-8.70001-19.5-19.5s8.70001-19.5,19.5-19.5s19.5,8.70001,19.5,19.5
						c0,5.20001-2.10001,10.09998-5.70001,13.79999C326.10001,764.40002,321.10001,766.40002,316,766.40002z"/>
					<path class="st0" d="M316,728c10.5,0,19,8.5,19,19s-8.5,19-19,19s-19-8.5-19-19c0-5,2-9.90002,5.60001-13.40002
						C306.10001,729.90002,310.89999,727.90002,316,728 M316,727c-11,0-20,9-19.89999,20.09998s9,20,20.10001,19.90002
						c11,0,20-9,19.89999-20.09998c0-5.29999-2.10001-10.40002-5.89999-14.09998C326.39999,729,321.29999,726.90002,316,727z"/>
				</g>
				<line class="st14" x1="303.5" y1="746.90002" x2="328.5" y2="746.90002"/>
				
					<rect x="334.71445" y="757.1189" transform="matrix(0.70711 -0.70711 0.70711 0.70711 -443.94992 463.24765)" class="st16" width="4.99995" height="20.79979"/>
			</g>
		</g>
	</g>
</g>
</svg>
