<?xml version="1.0" encoding="utf-8"?>
<!-- Generator: Adobe Illustrator 24.2.0, SVG Export Plug-In . SVG Version: 6.00 Build 0)  -->
<svg version="1.1" id="Layer_1" xmlns="http://www.w3.org/2000/svg" xmlns:xlink="http://www.w3.org/1999/xlink" x="0px" y="0px"
	 viewBox="0 0 585.70001 736.79999" style="enable-background:new 0 0 585.70001 736.79999;" xml:space="preserve">
<style type="text/css">
	.st0{fill:none;}
	.st1{fill:#F5EBB6;}
	.st2{display:none;fill:#FFFFFF;stroke:#006D77;stroke-miterlimit:10;}
	.st3{display:none;}
	.st4{display:inline;fill:none;stroke:#006D77;stroke-miterlimit:10;}
	.st5{display:inline;}
	.st6{fill:none;stroke:#006D77;stroke-miterlimit:10;}
	.st7{fill:#006D77;stroke:#006D77;stroke-miterlimit:10;}
	.st8{clip-path:url(#SVGID_3_);}
	.st9{fill:#FFFFFF;stroke:#006D77;stroke-miterlimit:10;}
	.st10{stroke:#006D77;stroke-miterlimit:10;}
	.st11{display:inline;fill:none;}
</style>
<g id="Layer_2_1_">
	<g id="Layer_1-2">
		<g>
			<g>
				<path class="st0" d="M292.79999,736.29999c-151.2,0-273.70001-122.59998-273.70001-273.70001
					s122.60001-273.70001,273.70001-273.70001S566.5,311.49997,566.5,462.59998c0,72.59998-28.79999,142.20001-80.20001,193.5
					C435.20001,707.59998,365.5,736.5,292.79999,736.29999z"/>
				<path class="st1" d="M292.79999,189.3c150.39999,0.2,272.20001,122.3,272,272.70001S442.5,734.20001,292.10001,734
					S19.9,611.70001,20.1,461.29999c0.1-109.29999,65.7-208,166.39999-250.5C220.10001,196.5,256.29999,189.2,292.79999,189.3
					 M292.79999,188.3c-151.39999,0-274.20001,122.8-274.20001,274.20001s122.8,274.20001,274.20001,274.20001S567,614,567,462.5
					S444.29999,188.3,292.79999,188.3z"/>
			</g>
			<g>
				<circle class="st2" cx="291.79999" cy="378.39999" r="274.20001"/>
				<g class="st3">
					<path class="st4" d="M406.39999,292.70001c-69.10001,47.10001-160,47.20001-229.2,0.20001"/>
					<path class="st4" d="M177.2,293c69.09999-47.10001,160.00002-47.2,229.2-0.20001"/>
					<g class="st5">
						<g>
							<circle class="st6" cx="291.79999" cy="292.20001" r="31.10001"/>
							<path class="st6" d="M291.79999,261.60001c16.89999,0,30.60001,13.70001,30.60001,30.60001
								s-13.70001,30.60001-30.60001,30.60001s-30.60001-13.70001-30.60001-30.60001
								C261.29999,275.29999,275,261.60001,291.79999,261.60001 M291.79999,260.60001
								c-17.39999,0-31.60001,14.10001-31.60001,31.60001s14.10001,31.60001,31.60001,31.60001s31.60001-14.10001,31.60001-31.60001
								l0,0C323.39999,274.70001,309.29999,260.60001,291.79999,260.60001z"/>
						</g>
						<circle class="st7" cx="291.79999" cy="292.20001" r="16.29999"/>
					</g>
				</g>
				<g class="st3">
					<line class="st4" x1="292.79999" y1="585.70001" x2="292.79999" y2="0"/>
					<line class="st4" x1="368.60001" y1="575.70001" x2="217" y2="10"/>
					<line class="st4" x1="439.20001" y1="546.40002" x2="146.39999" y2="39.2"/>
					<line class="st4" x1="499.89999" y1="499.89999" x2="85.8" y2="85.8"/>
					<line class="st4" x1="546.40002" y1="439.20001" x2="39.2" y2="146.39999"/>
					<line class="st4" x1="575.70001" y1="368.60001" x2="10" y2="217"/>
					<line class="st4" x1="585.70001" y1="292.79999" x2="0" y2="292.79999"/>
					<line class="st4" x1="575.70001" y1="217" x2="10" y2="368.60001"/>
					<line class="st4" x1="546.40002" y1="146.39999" x2="39.2" y2="439.20001"/>
					<line class="st4" x1="499.89999" y1="85.8" x2="85.8" y2="499.89999"/>
					<line class="st4" x1="439.20001" y1="39.2" x2="146.39999" y2="546.40002"/>
					<line class="st4" x1="368.60001" y1="10" x2="217" y2="575.70001"/>
				</g>
				<path class="st2" d="M324.39999,547.09998c-2-3.40002-1.60001-7.70001,1-10.70001c18.10001-20,34-28,48.5-24.5
					c11.20001,2.70001,17,11.29999,21.60001,18.29999c4.29999,6.5,7.20001,10.5,12.20001,11.59998
					c5.29999,1.09998,12.60001-0.70001,18.20001-4.70001c2.60001-1.79999,7.20001-5.79999,8-11.29999
					c0.5-3.79999-0.89999-7.59998-2.70001-10.5c-1.29999-2.09998-2.79999-4-4.5-5.70001c-0.5-0.5-1-1.10001-1.39999-1.79999
					c-2.5-4.29999-1-9.79999,3.39999-12.29999c3.39999-2,7.79999-1.39999,10.60001,1.29999
					c2.79999,2.79999,5.20001,5.79999,7.20001,9.20001c3.5,5.70001,6.39999,13.5,5.20001,22.40002
					c-1.29999,9.09998-6.79999,17.5-15.5,23.59998c-9.79999,6.79999-22.20001,9.70001-32.29999,7.5
					c-12.39999-2.70001-18.5-11.79999-23.39999-19.20001c-4-6-6.60001-9.79999-10.79999-10.70001
					c-7.20001-1.70001-18.20001,5.09998-31,19.09998c-3.29999,3.70001-9,3.90002-12.70001,0.59998
					C325.5,548.59998,324.89999,547.90002,324.39999,547.09998z"/>
				<g class="st3">
					<g class="st5">
						<g>
							<defs>
								<circle id="SVGID_2_" cx="291.79999" cy="378.39999" r="274.20001"/>
							</defs>
							<clipPath id="SVGID_3_">
								<use xlink:href="#SVGID_2_"  style="overflow:visible;"/>
							</clipPath>
							<g class="st8">
								<g>
									<g>
										<path class="st9" d="M86,727.29999c-5.1,0-8.2-0.29999-9.8-2.09998c-1.9-2.09998-1.9-6.40002-1.4-13.29999
											c0.3-3.90002,3-18,6.4-35.70001c6.3-32.5,14.9-77.09998,13.6-85.5c-0.8-5-10.6-79.5-10.6-82.39999
											c0-9.20001,0.4-17.70001,0.8-26c0.4-8.10001,0.8-16.5,0.8-25.39999c0-0.39999,0-0.79999,0-1.20001l0.7-8.79999
											l0.7-5.79999c0-0.39999,0.1-0.70001,0.1-1.10001l0.8-24.70001v-5.10001c0-0.79999,0-1.60001,0.1-2.39999l0.6-5.10001
											l0.4-17.60001c0-5.39999,1.8-16,5.9-16h7.8c2.9,0,4.5,5,4.6,14.20001c0,0.79999,0.1,1.60001,0.2,2.29999l1.2,8.5
											c0.1,0.89999,0.2,1.79999,0.2,2.70001v2.60001l0.8,14.10001l0.8,25c0,0.20001,0,0.39999,0,0.60001l0.5,3.60001
											c0.1,0.70001,0.1,1.39999,0.2,2.10001l0.1,4.20001l1,22.39999c0,0.70001,0.6,1.20001,1.2,1.20001c0.1,0,0.2,0,0.3,0
											c0.6-0.10001,1-0.60001,1-1.20001l-0.1-30.20001l-0.5-4.29999c-0.2-1.29999-0.3-2.70001-0.2-4v-4.39999
											c0-1,0-2,0.1-2.89999l0.6-7c0-0.10001,0-0.29999,0-0.39999v-32.70001c0-1.79999-0.1-3.70001-0.3-5.5l-0.3-2.5
											c-0.2-2-0.2-3.89999,0-5.89999l0.4-3.60001c0.2-1.70001,0.2-3.29999,0.2-5l-0.4-18.5c0-5.70001,4-16.29999,9.7-16.29999
											h9.8c5.8,0,8.89999,10.79999,8.89999,16.39999l2.39999,126.60001c0,0.79999,0.60001,1.39999,1.39999,1.39999l0,0
											c0.8,0,1.39999-0.60001,1.5-1.39999l0,0l1.8-142.89999c0-6.60001,4.5-19.89999,10.39999-19.89999h9.39999
											c8.39999,1.60001,12.8,13.79999,12.8,19.89999l2.5,141.69998c0,0.5,0.39999,0.89999,0.89999,0.89999
											c0.10001,0,0.2,0,0.3,0c1-0.39999,1.60001-1.29999,1.60001-2.29999l-0.8-117.69998c0-6,4.10001-14.79999,9.7-14.79999h9.8
											c4.7,0,11.3,7.5,11.3,14.79999l6.60001,109.39999c0,4.29999,0.3,13.5,0.8,19l1.5,43.49997
											c0,0.70001,0.60001,1.20001,1.2,1.09998c0.39999,0,0.8-0.20001,1-0.59998l12.10001-20.39999l0.2-0.39999l8.7-23.29999
											c3.10001-13,13.39999-26.89999,24.60001-26.89999c1.10001,0,2.20001,0.10001,3.20001,0.39999
											c0.60001,0.20001,14.5,4.20001,12,20.70001l-10,41.59998c-0.39999,1.59998-1.10001,3.09998-2,4.40002
											c-0.10001,0.09998-0.10001,0.20001-0.10001,0.20001c-0.29999,0.70001-0.60001,1.40002-0.89999,2l-18.10001,42.40002
											c-3,5.5-15.3,23.79999-31.39999,34.5c-1.2,0.79999-3.2,13.5-8.39999,47.20001c-4.39999,28.70001-9.89999,64.29999-13.8,79
											l-105.4,2.40002H97c-2.4,0-4.6,0-6.6,0.09998C88.8,727.29999,87.3,727.29999,86,727.29999z"/>
										<path class="st10" d="M169.7,308.89999c8.10001,1.5,12.3,13.39999,12.3,19.39999L184.60001,470
											c0,0.79999,0.7,1.39999,1.39999,1.39999c0.2,0,0.3,0,0.5-0.10001c1.2-0.39999,1.89999-1.60001,1.89999-2.79999
											l-0.8-117.70001c0-5.79999,3.89999-14.29999,9.2-14.29999h9.8c5.2,0,10.8,8.39999,10.8,14.29999v0.10001L224,460.29999
											c0,4.29999,0.3,13.60001,0.8,19l1.5,43.40002c0,0.90002,0.8,1.70001,1.7,1.59998
											c0.60001,0,1.10001-0.29999,1.39999-0.79999L241.5,503.29999l0,0l0,0l0.10001-0.20001V503l0,0l0,0l8.7-23.29999l0,0
											v-0.10001c1.7-6.5,4.7-12.60001,8.99998-17.79999c3.29999-4,8.60001-8.70001,15.10001-8.70001
											c1,0,2.10001,0.10001,3.10001,0.39999c0.60001,0.20001,14.10001,4,11.60001,20.10001l-10,41.60001
											c-0.39999,1.5-1,3-2,4.29999C277,519.59998,277,519.70001,276.89999,519.79999
											c-0.20001,0.70001-0.5,1.29999-0.89999,1.90002l0,0l0,0l-18,42.39996c-3,5.5-15.2,23.70001-31.2,34.29999
											c-1.2,0.79999-2.5,7.90002-8.60001,47.5C213.8,674.29999,208.3,709.59998,204.5,724.49994l-105,2.29999H97
											c-2.4,0-4.7,0-6.6,0.09998c-1.6,0-3.1,0-4.4,0c-5,0-7.9-0.29999-9.4-1.90002c-1.8-1.90002-1.8-6.20001-1.2-12.90002
											c0.3-3.90002,3.2-18.59998,6.5-35.70001c6.6-34.40002,14.9-77.20001,13.6-85.70001
											c-0.1-0.70001-10.6-79.20001-10.6-82.29999c0-9.20001,0.4-17.70001,0.8-26c0.4-8.10001,0.8-16.5,0.8-25.5
											c0-0.39999,0-0.79999,0-1.20001l0.7-8.79999l0.7-5.79999c0.1-0.39999,0.1-0.79999,0.2-1.29999l0.8-24.79999v-5.10001
											c0-0.79999,0-1.5,0.1-2.29999l0.6-5.10001v-0.10001l0.4-17.60001c0-5.5,1.8-15.39999,5.4-15.39999h7.8
											c2.5,0,4,5,4.1,13.70001c0,0.79999,0.1,1.60001,0.2,2.39999l1.2,8.5c0.1,0.89999,0.2,1.79999,0.2,2.60001v2.70001
											l0.8,14.10001l0.8,25c0,0.20001,0,0.39999,0,0.60001l0.5,3.60001c0.1,0.70001,0.1,1.39999,0.2,2l0.1,4.29999l1,22.29999
											c0,1,0.8,1.70001,1.7,1.70001l0,0c0.1,0,0.3,0,0.4,0c0.8-0.20001,1.4-0.89999,1.4-1.70001l-0.1-30.20001v-0.10001
											l-0.5-4.29999c-0.2-1.29999-0.2-2.70001-0.2-4v-4.39999c0-1,0-1.89999,0.1-2.89999l0.6-7c0-0.20001,0-0.29999,0-0.5v-32.5
											c0-1.89999-0.1-3.70001-0.3-5.60001l-0.3-2.5c-0.2-1.89999-0.2-3.89999,0-5.79999l0.4-3.60001
											c0.2-1.70001,0.2-3.39999,0.2-5.10001l-0.4-18.5c0-6.10001,4.2-15.89999,9.2-15.89999h9.8
											c5.2,0,8.39999,10.29999,8.39999,15.89999l2.39999,126.60001c0,1,0.8,1.89999,1.89999,1.89999h0.10001
											c1,0,1.89999-0.79999,1.89999-1.89999l1.7-142.89999c0-6.5,4.5-19.39999,9.89999-19.39999H169.7 M169.7,307.89999H160.3
											c-6.39999,0-10.89999,14-10.89999,20.39999l-1.7,142.89999c0,0.5-0.39999,0.89999-0.89999,0.89999h-0.10001
											c-0.5,0-0.89999-0.5-0.89999-1l-2.39999-126.60001c0-6.10001-3.3-16.89999-9.39999-16.89999h-9.8
											c-6.1,0-10.2,10.79999-10.2,16.89999l0.4,18.5c0,1.70001,0,3.29999-0.2,5l-0.4,3.60001c-0.2,2-0.2,4,0,6l0.3,2.5
											c0.2,1.79999,0.3,3.60001,0.3,5.5v32.60001c0,0.10001,0,0.29999,0,0.39999l-0.6,7c-0.1,1-0.1,2-0.1,3v4.39999
											c0,1.39999,0.1,2.70001,0.3,4.10001l0.5,4.29999l0.1,30.20001c0,0.29999-0.3,0.60001-0.6,0.70001l0,0h-0.2
											c-0.4,0-0.7-0.29999-0.7-0.70001l-1-22.29999L112,445c0-0.70001-0.1-1.39999-0.2-2.10001l-0.5-3.60001
											c0-0.20001,0-0.29999,0-0.5l-0.8-25l-0.8-14.10001V397c0-0.89999-0.1-1.89999-0.2-2.79999l-1.2-8.5
											c-0.1-0.79999-0.2-1.5-0.2-2.29999c-0.1-5.20001-0.7-14.70001-5.1-14.70001h-7.8c-4.8,0-6.4,11.60001-6.4,16.39999
											l-0.4,17.5l-0.6,5.10001c-0.1,0.79999-0.1,1.60001-0.1,2.39999v5.10001L87,440c0,0.29999,0,0.70001-0.1,1l-0.7,5.79999
											l-0.7,8.79999c0,0.39999,0,0.89999,0,1.29999c0,18.10001-1.6,33.29999-1.6,51.39999
											c0,3.20001,10.2,80.10001,10.6,82.49997c1.9,12.90002-19.2,109.79999-20.1,121.20001
											c-1.2,14.40002,0.6,15.90002,11.6,15.90002c3,0,6.6-0.09998,11-0.09998h2.6l105.7-2.40002
											c7.10001-26.79999,19.7-124.70001,22.10001-126.29999C243.8,588.19995,256.20001,569.5,259,564.39996l0,0
											l18.10001-42.29999c0.39999-0.59998,0.70001-1.29999,0.89999-2c0,0,0-0.09998,0.10001-0.09998
											c1-1.40002,1.70001-3,2.10001-4.59998l10-41.60001l0,0c2.60001-17-11.79999-21.10001-12.29999-21.29999l0,0
											c-1.10001-0.29999-2.20001-0.39999-3.29999-0.39999c-11.89999,0-22.10001,15.10001-25.10001,27.20001l-8.7,23.29999
											l-0.10001,0.29999L228.60001,523c-0.10001,0.20001-0.3,0.29999-0.60001,0.29999c-0.39999,0-0.7-0.29999-0.7-0.70001
											l-1.5-43.5l0,0c-0.5-5.20001-0.8-14.29999-0.8-18.89999l0,0L218.39999,351c0-6.10001-5.7-15.29999-11.8-15.29999h-9.8
											c-6.10001,0-10.2,9.20001-10.2,15.29999l0.8,117.70001c0,0.79999-0.5,1.60001-1.3,1.89999h-0.10001
											c-0.2,0-0.39999-0.20001-0.39999-0.39999l0,0L182.99998,328.5c0-6.39999-4.5-18.70001-13.10001-20.29999L169.7,307.89999z
											"/>
									</g>
									<g>
										<path class="st9" d="M128.39999,355.60001h-0.6c-3.4-0.10001-5.8-1.29999-7.3-3.5c-1.7-2.5-2.5-6.29999-2.2-11.70001
											c0.5-11.60001,4.2-18.5,9.9-18.5h0.3c3.10001,0.10001,6.2,2.10001,8.3,5.39999c2.5,4.10001,3.60001,8.79999,3.3,13.60001
											C139.7,350.29999,135.5,355.60001,128.39999,355.60001L128.39999,355.60001z"/>
										<path class="st10" d="M128.2,322.29999h0.3c5.8,0.20001,11.60001,7.20001,11.10001,18.39999
											c-0.39999,9.20001-4.39999,14.29999-11.2,14.29999h-0.6c-3.2-0.10001-5.4-1.20001-6.9-3.29999
											c-1.7-2.39999-2.4-6.20001-2.1-11.39999C119.2,329,122.7,322.29999,128.2,322.29999 M128.2,321.29999
											c-6.4,0-10,7.79999-10.4,19c-0.5,11.29999,3.3,15.5,10,15.79999h0.6c6.39999,0,11.7-4.29999,12.2-15.20001
											c0.5-11.29999-5.39999-19.20001-12.10001-19.5L128.2,321.29999z"/>
									</g>
									<g>
										<path class="st9" d="M165.89999,342.10001c-8.5,0-13.39999-6.20001-13.39999-17.10001
											c0-11.29999,5.39999-18.89999,13.39999-18.89999S179.29999,313.5,179.29999,325
											C179.3,335.89999,174.39999,342.10001,165.89999,342.10001z"/>
										<path class="st10" d="M165.89999,306.60001c7.8,0,12.89999,7.20001,12.89999,18.39999
											c0,10.70001-4.60001,16.60001-12.89999,16.60001S153,335.70001,153,325
											C153,313.79999,158.10001,306.60001,165.89999,306.60001 M165.89999,305.60001C158.2,305.60001,152,312.39999,152,325
											s6.2,17.60001,13.89999,17.60001s13.89999-5,13.89999-17.60001S173.60001,305.60001,165.89999,305.60001z"/>
									</g>
									<g>
										<path class="st9" d="M202.39999,360.29999C196.79999,360.29999,190,358,190,347c0-9.39999,5-15.70001,12.39999-15.70001
											S214.79999,337.59998,214.79999,347C214.89999,358,208.10001,360.29999,202.39999,360.29999z"/>
										<path class="st10" d="M202.39999,331.79999c7.10001,0,11.89999,6.10001,11.89999,15.20001
											c0,5.89999-2.10001,12.79999-11.89999,12.79999S190.5,352.79999,190.5,347
											C190.60001,337.89999,195.3,331.79999,202.39999,331.79999 M202.39999,330.79999
											c-7.10001,0-12.89999,5.89999-12.89999,16.20001s5.8,13.79999,12.89999,13.79999S215.29999,357.19998,215.29999,347
											S209.60001,330.79999,202.39999,330.79999z"/>
									</g>
									<line class="st6" x1="205.7" y1="382.89999" x2="191.89999" y2="382.89999"/>
									<line class="st6" x1="205.7" y1="385.29999" x2="191.89999" y2="385.29999"/>
									<line class="st6" x1="135.5" y1="372.60001" x2="117.8" y2="374.20001"/>
									<line class="st6" x1="135.5" y1="375" x2="117.8" y2="376.60001"/>
									<line class="st6" x1="172.60001" y1="368.70001" x2="158.8" y2="368.70001"/>
									<line class="st6" x1="172.60001" y1="371.10001" x2="158.8" y2="371.10001"/>
									<line class="st6" x1="105.9" y1="407.39999" x2="91.7" y2="408.89999"/>
									<line class="st6" x1="104.5" y1="410.39999" x2="91.9" y2="412"/>
									<line class="st6" x1="106.3" y1="444.5" x2="90.9" y2="446"/>
									<line class="st6" x1="101.2" y1="440.5" x2="90.5" y2="442.89999"/>
									<line class="st6" x1="105.1" y1="447.60001" x2="90.9" y2="449.20001"/>
									<line class="st6" x1="134.7" y1="423.89999" x2="120.1" y2="427.10001"/>
									<line class="st6" x1="134.7" y1="426.29999" x2="120.1" y2="429.5"/>
									<line class="st6" x1="134.7" y1="431" x2="120.1" y2="434.20001"/>
									<line class="st6" x1="171.8" y1="420" x2="158" y2="420"/>
									<line class="st6" x1="171.8" y1="422.39999" x2="158" y2="422.39999"/>
									<line class="st6" x1="171.8" y1="427.10001" x2="158" y2="427.10001"/>
									<line class="st6" x1="207.3" y1="431.79999" x2="193.5" y2="431.79999"/>
									<line class="st6" x1="207.3" y1="434.20001" x2="193.5" y2="434.20001"/>
									<line class="st6" x1="207.3" y1="437.39999" x2="193.5" y2="437.39999"/>
									<line class="st6" x1="275.20001" y1="503.79999" x2="261.79999" y2="500.60001"/>
									<line class="st6" x1="274.70001" y1="506.10001" x2="261.29999" y2="502.89999"/>
									<line class="st6" x1="274" y1="509.10001" x2="260.5" y2="506"/>
									<g>
										<path class="st9" d="M98.8,391.10001c-5,0-7.4-3.39999-7.4-10.5c0-7.39999,2.4-14.79999,7.1-14.79999
											c4.3,0,6.9,5,6.9,13.29999S103.2,391.10001,98.8,391.10001z"/>
										<path class="st10" d="M98.6,366.20001c4,0,6.4,4.79999,6.4,12.79999c0,7.79999-2,11.60001-6.1,11.60001
											c-3.2,0-6.9-1.10001-6.9-10C91.9,373.39999,94.2,366.20001,98.6,366.20001 M98.6,365.20001
											c-4.9,0-7.6,7.29999-7.6,15.29999s3,11,7.9,11s7.1-4.60001,7.1-12.60001S103.5,365.20001,98.6,365.20001L98.6,365.20001z"
											/>
									</g>
									<g>
										<path class="st9" d="M278.60001,479.89999C276,479.79999,273.5,479.39999,271,478.69998
											c-3.5-0.70001-6.5-2.89999-8.29999-5.89999c-1.70001-3-2.10001-6.79999-1.10001-10.89999
											C263.30002,454.69998,269.39999,449.5,276,449.5c1,0,2,0.10001,3,0.39999c7.5,1.79999,11.89999,9.79999,10,18.60001
											C286.79999,478.60001,282.29999,479.89999,278.60001,479.89999L278.60001,479.89999z"/>
										<path class="st10" d="M276,450c1,0,1.89999,0.10001,2.89999,0.29999c7.29999,1.79999,11.39999,9.5,9.60001,18
											c-1.10001,5.5-3.20001,11-9.89999,11c-2.5-0.10001-5.10001-0.5-7.5-1.20001c-7.39999-1.79999-11-8.10001-9-16.20001
											C263.79999,455.10001,269.60001,450,276,450 M276,449c-6.79999,0-13.10001,5.20001-14.89999,12.70001
											c-2.10001,8.70001,1.89999,15.5,9.79999,17.39999c2.5,0.70001,5.10001,1.10001,7.79999,1.29999
											c4.79999,0,8.89999-2.39999,10.89999-11.79999c1.89999-9.20001-2.60001-17.29999-10.39999-19.20001
											C278.10001,449.10001,277.10001,449,276,449L276,449z"/>
									</g>
								</g>
							</g>
						</g>
						<g class="st3">
							<circle id="SVGID_1_" class="st4" cx="291.79999" cy="378.39999" r="274.20001"/>
						</g>
					</g>
					<circle class="st11" cx="291.79999" cy="378.39999" r="274.20001"/>
				</g>
				<path class="st2" d="M452.89999,615.59998c-2,1.09998,10,31.5,18.10001,28.90002c2-0.79999,3.5-2.5,4.10001-4.5
					c0.39999-2.5-3-3.79999-3.89999-4.20001C460.39999,631.09998,454.39999,614.79999,452.89999,615.59998z"/>
				<path class="st2" d="M423.20001,610.40002c-13.79999-12.40002-3-38.70001,11.5-39.79999c12.5-1,26.79999,17,31.89999,27.79999
					c2.29999,4.90002,4.5,9.5,1.29999,13.5c-5.29999,6.79999-23.10001,8.20001-35.29999,3.79999
					C429.20001,614.5,426,612.70001,423.20001,610.40002z"/>
				<path class="st2" d="M536.20001,481.29999c-1.90002-1.20001-47.5,152.70001-41.39999,158.5
					c1.70001,1.40002,3.89999,1.90002,6,1.40002c2.39999-0.90002,1.89999-4.40002,1.79999-5.5
					C501.10001,618.40002,537.59998,482.20001,536.20001,481.29999z"/>
				<path class="st2" d="M472.5,436.20001c-6.20001,0.39999-13.70001,199.20001,8.70001,207.20001
					c4.79999,1.70001,12.39999-4.70001,15.20001-13.59998c3.89999-12.59998-2.5-28.90002-4.29999-34
					C472,541.40002,477,435.89999,472.5,436.20001z"/>
				<path class="st2" d="M537.90002,450.89999c18.40002-2.10001,30.90002,23.39999,22.20001,35c-7.59998,10-30.5,8.79999-42,5.5
					c-5.20001-1.5-10.10001-3-11-8c-1.5-8.5,9.20001-22.70001,20.59998-29
					C530.90002,452.60001,534.29999,451.39999,537.90002,450.89999z"/>
				<path class="st2" d="M541,411.5c-18.90002,41.70001-97.89999,49.60001-114.89999,21.89999
					c-14.70001-24.10001,18.39999-73,41.39999-95.5C478,327.69998,488,318.19998,501.39999,320
					C524.20001,323.10001,545,357.20001,545.5,386.89999C545.70001,390.79999,545.79999,401.10001,541,411.5z"/>
				<path class="st2" d="M433.89999,127.5c-7,0-13.60001,3.2-18,8.7c-5.20001-9-13.60001-15.8-23.60001-18.8
					c-4.39999-18.5-20.79999-31.5-39.79999-31.5c-1.20001,0-2.39999,0.1-3.60001,0.2c-28.5-34.1-79.30002-38.5-113.3-10
					c-2.39999,2-4.7,4.2-6.89999,6.5c-28.8-8.9-59.3,7.2-68.2,36c-1.2,3.8-1.89999,7.7-2.2,11.60001
					c-17.5,2.39999-29.7,18.60001-27.3,36.09999s18.60001,29.7,36.10001,27.3c7.7-1.10001,14.8-4.89999,19.89999-10.8
					c11.5,6.10001,24.7,8,37.39999,5.2c27.7,34.8,78.30002,40.5,113.10001,12.8c5.39999-4.3,10.29999-9.3,14.39999-14.89999
					c16.20001,15.8,42.10001,15.39999,57.79999-0.7c4.5-4.7,7.89999-10.3,9.79999-16.5c9.89999,7.89999,24.39999,6.3,32.29999-3.7
					s6.29999-24.39999-3.70001-32.3C444.10001,129.3,439.10001,127.6,433.89999,127.5L433.89999,127.5z"/>
			</g>
		</g>
	</g>
</g>
</svg>
