<?xml version="1.0" encoding="utf-8"?>
<!-- Generator: Adobe Illustrator 24.2.0, SVG Export Plug-In . SVG Version: 6.00 Build 0)  -->
<svg version="1.1" id="Layer_1" xmlns="http://www.w3.org/2000/svg" xmlns:xlink="http://www.w3.org/1999/xlink" x="0px" y="0px"
	 viewBox="0 0 1111.40002 1111.40002" style="enable-background:new 0 0 1111.40002 1111.40002;" xml:space="preserve">
<style type="text/css">
	.st0{display:none;}
	.st1{display:inline;}
	.st2{clip-path:url(#SVGID_2_);}
	.st3{display:inline;fill:none;stroke:#FFFFFF;stroke-miterlimit:10;}
	.st4{display:inline;fill:none;stroke:#F1E297;stroke-miterlimit:10;}
	.st5{display:none;opacity:0.5;}
	.st6{display:inline;opacity:0.5;fill:#FFFFFF;stroke:#FFFFFF;stroke-miterlimit:10;enable-background:new    ;}
	.st7{display:inline;fill:#FFFFFF;stroke:#FFFFFF;stroke-miterlimit:10;}
	.st8{clip-path:url(#SVGID_4_);}
	.st9{opacity:0.5;fill:#F1E297;enable-background:new    ;}
	.st10{display:none;fill:#FFFFFF;}
	.st11{fill:#F1E297;}
	.st12{display:none;fill:none;stroke:#FFFFFF;stroke-width:0.9921;stroke-miterlimit:10;stroke-dasharray:376.26071,376.26071;}
	
		.st13{display:none;fill:none;stroke:#FFFFFF;stroke-width:0.99209;stroke-miterlimit:9.9999;stroke-dasharray:251.27357,251.27357;}
	
		.st14{display:none;fill:none;stroke:#FFFFFF;stroke-width:0.99209;stroke-miterlimit:9.9999;stroke-dasharray:153.49942,153.49942;}
</style>
<g id="Layer_2_1_">
	<g id="Layer_1-2">
		<g>
			<g class="st0">
				<g class="st1">
					<g>
						<defs>
							<circle id="SVGID_1_" cx="555.70001" cy="555.70001" r="359.89996"/>
						</defs>
						<clipPath id="SVGID_2_">
							<use xlink:href="#SVGID_1_"  style="overflow:visible;"/>
						</clipPath>
						<g class="st2">
							<g class="st0">
								<line class="st3" x1="948.59998" y1="162.8" x2="162.8" y2="948.59998"/>
								<line class="st3" x1="833.5" y1="74.4" x2="277.89999" y2="1036.90002"/>
								<line class="st3" x1="699.5" y1="18.9" x2="411.89999" y2="1092.5"/>
								<line class="st3" x1="555.70001" y1="0" x2="555.70001" y2="1111.40002"/>
								<line class="st3" x1="411.89999" y1="18.9" x2="699.5" y2="1092.5"/>
								<line class="st3" x1="277.89999" y1="74.4" x2="833.5" y2="1036.90002"/>
								<line class="st3" x1="162.8" y1="162.8" x2="948.59998" y2="948.59998"/>
								<line class="st3" x1="74.4" y1="277.89999" x2="1036.90002" y2="833.5"/>
								<line class="st3" x1="18.9" y1="411.89999" x2="1092.5" y2="699.5"/>
								<line class="st3" x1="0" y1="555.70001" x2="1111.40002" y2="555.70001"/>
								<line class="st3" x1="18.9" y1="699.5" x2="1092.5" y2="411.89999"/>
								<line class="st3" x1="74.4" y1="833.5" x2="1036.90002" y2="277.89999"/>
							</g>
						</g>
					</g>
				</g>
				<circle class="st4" cx="555.70001" cy="555.70001" r="359.89996"/>
			</g>
			<g class="st5">
				<circle class="st6" cx="555.70001" cy="555.70001" r="105.40002"/>
				<path class="st7" d="M555.70001,450.79999c57.90002,0,104.90002,46.89999,104.90002,104.90002
					c0,57.90002-46.90002,104.90002-104.90002,104.90002c-57.89999,0-104.89999-46.90002-104.89999-104.90002l0,0
					C450.89999,497.79999,497.79999,450.89999,555.70001,450.79999 M555.70001,449.79999
					c-58.5,0-105.89999,47.39999-105.89999,105.90002s47.39999,105.90002,105.89999,105.90002
					s105.90002-47.40002,105.90002-105.90002C661.59998,497.20001,614.20001,449.79999,555.70001,449.79999L555.70001,449.79999
					L555.70001,449.79999z"/>
			</g>
			<g class="st0">
				<g class="st1">
					<defs>
						<circle id="SVGID_3_" cx="555.70001" cy="555.20001" r="359.89996"/>
					</defs>
					<clipPath id="SVGID_4_">
						<use xlink:href="#SVGID_3_"  style="overflow:visible;"/>
					</clipPath>
					<g class="st8">
						<g>
							<g>
								<path class="st9" d="M362.29999,801.09998c5.39999-1.90002,24.89999-14.90002,42-26.29999
									C417.29999,766.09998,429.5,758,433.5,756c16.5-7.90002,70.79999-23,86.20001-23c3.09998,0,3.59998,0.59998,3.70001,0.79999
									c1.90002,4.40002,4.59998,6.5,8.40002,6.5c4.29999,0,10-2.70001,16.5-5.90002c2-1,8.40002-9.40002,18.09998-22.20001
									c6-7.90002,12.09998-16.09998,13.70001-17.29999c1.20001-1,2.79999-1.59998,4.29999-1.70001
									c6.40002,0,12,11.79999,19,26.70001c5.70001,12.20001,12.20001,26,21.29999,38.59998
									c4.40002,6.09998,9,9.20001,13.59998,9.20001c10.40002,0,19.29999-15,27.20001-28.20001
									c1.59998-2.70001,3.09998-5.29999,4.59998-7.59998c9.5-15,53-77.70001,63.29999-86l95.40002-74.29999
									c16.70001-16.79999,35.90002-25.29999,57-25.29999c17.40002,0,31.90002,5.79999,38.90002,8.59998l1.59998,0.59998h4.90002
									v314.20001L193,882.20001L362.29999,801.09998z"/>
								<path class="st10" d="M885.90002,546.90002c17.29999,0,31.20001,5.59998,38.70001,8.59998l1.5,0.59998l0.20001,0.09998h4.5
									v313.20001l-735.40002,12.20001l167.10001-80c5.60001-2,24.20001-14.40002,42.10001-26.40002
									c13-8.59998,25.20001-16.79999,29.20001-18.70001c16.39999-7.90002,70.60001-23,86-23c2.79999,0,3.20001,0.5,3.20001,0.5
									l0,0c2,4.59998,4.79999,6.79999,8.79999,6.79999c4.40002,0,10.20001-2.70001,16.70001-6
									c2.09998-1,8.59998-9.5,18.20001-22.40002c5.90002-7.90002,12.09998-16,13.59998-17.20001c1.09998-1,2.59998-1.5,4-1.59998
									c6.09998,0,11.59998,11.70001,18.5,26.40002c5.5,11.59998,12.20001,26,21.29999,38.70001
									c4.5,6.20001,9.20001,9.40002,14,9.40002c10.70001,0,19.70001-15.09998,27.59998-28.5
									c1.59998-2.70001,3.09998-5.29999,4.59998-7.59998c9.5-15,52.90002-77.59998,63.20001-85.90002l95.29999-74.29999l0,0l0,0
									C845.79999,555.29999,864.90002,546.90002,885.90002,546.90002 M885.90002,545.90002
									c-17.29999,0-37.70001,5.70001-57.29999,25.40002l-95.29999,74.29999c-10.5,8.40002-54.5,71.90002-63.5,86.09998
									c-8.5,13.5-19.09998,35.59998-31.40002,35.59998c-4.20001,0-8.59998-2.59998-13.20001-9
									c-20.70001-28.90002-28.79999-65.5-40.70001-65.5c-1.70001,0.09998-3.29999,0.70001-4.70001,1.79999
									c-3.59998,2.70001-28,37.59998-31.70001,39.5c-7,3.5-12.29999,5.79999-16.29999,5.79999c-3.5,0-6-1.79999-7.90002-6.20001
									c-0.29999-0.79999-1.79999-1.09998-4.20001-1.09998c-15.60001,0-69.60001,15-86.39999,23.09998
									c-9.39999,4.5-61.79999,41.79999-71.30002,45.09998l-171.3,82.09998l741-12.29999v-315.3999h-5.29999
									C919.70001,552.5,904.59998,545.90002,885.90002,545.90002L885.90002,545.90002z"/>
							</g>
							<path class="st9" d="M190.8,929.70001l197.10002-87.09998c9.5-4,67.70001-59.79999,77.10001-53.79999
								c3.79999,2.40002,21.5,12,23,11.79999c5.89999-0.90002,16.60001,8.09998,29.80002,0.29999
								c3.79999-2.20001,7.59998-4.09998,11.09998-8.20001c26.59998-31.09998,50.5-51.90002,73.70001-13.09998
								c18,30.09998,62.59998,20.20001,74.09998-1.5c9-17,18.90002-30.79999,29.29999-40.79999l113.40002-64.90002
								c12.29999-7,24.09998-18.40002,35.20001-33.70001c24.90002-34.5,47.90002-47.59998,57.40002-43.09998l16.90002,16v318.20001
								H190.8V929.70001z"/>
							<path class="st11" d="M191.5,980.70001l186.70001-112.5c9.5-4,85.70001-56,95-50
								c3.79999,2.40002,14.5,32.20001,15.5,33.29999c3.5,3.70001,16.60001,8.09998,29.79999,0.29999
								c3.79999-2.20001,44.20001-12.5,47.70001-16.59998c26.59998-31.09998,44.79999-41.79999,68-3
								c18,30.09998,31.79999,18.5,43.20001-3.20001c5.09998-9.59998,19.20001-32.5,32.29999-52.40002
								c13.40002-20.20001,38.40002-29.40002,61.59998-22.59998l15.90002,4.70001c22.70001,6.59998,46.5-6.29999,53.20001-29
								c4.79999-16.20001,9.5-32.79999,14.79999-40.09998c24.90002-34.5,47.90002-47.59998,57.40002-43.09998l16.90002,16v318.20001
								H191.5V980.70001z"/>
						</g>
					</g>
				</g>
			</g>
			<path class="st12" d="M523,792.40002c-131-18.09998-222.60001-138.90002-204.60001-270s138.89999-222.60001,270.00003-204.60001
				C719.40002,336,811,456.79999,793,587.90002c-8.70001,62.90002-42,119.79999-92.59998,158.20001
				C649.79999,784.59998,585.90002,801.29999,523,792.40002z"/>
			<ellipse class="st13" cx="555.68958" cy="555.19275" rx="159.99846" ry="159.99846"/>
			<ellipse class="st14" cx="555.68958" cy="555.19275" rx="195.49812" ry="195.49812"/>
			<path class="st11" d="M648.70001,519.40002C593.60004,522.5,554.5,543.60004,537.60004,551.30005
				c-25.5,11.70001-78.70001,19.70001-131.70001,15.20001c0-0.79999-0.10001-1.59998-0.20001-2.5
				c-1.79999-12.09998-13.20001-20.5-25.29999-18.70001c-4.79999,0.70001-9.29999,3-12.70001,6.59998
				c-0.89999-0.79999-1.79999-1.59998-2.79999-2.29999l-0.60001-0.40002c-4-2.79999-6.39999-7.40002-6.39999-12.20001
				c0.10001-37-29.70001-67.10001-66.70001-67.29999s-67.10001,29.70001-67.3,66.70001c-0.10001,37,29.7,67.09998,66.7,67.29999
				c6.89999,0,13.79999-1,20.39999-3.09998c4.60001-1.40002,9.70001-0.5,13.5,2.5c0.39999,0.29999,0.70001,0.5,1.10001,0.79999
				c15.10001,10.70001,36,7.20001,46.70001-7.90002c1.70001-2.40002,3-4.90002,4-7.59998
				c3.29999,1.20001,13.20001,0.79999,16.89999,0.20001c6.5-1,13.39999-6.29999,16.79999-11.40002
				c6.10001-0.5,61.39999,4.70001,104.09998-8.29999C549,558.30005,560.19995,545.70001,596.39996,535
				c43.20001-12.70001,361.89996-7.70001,361.79999-10.09998C958.20001,523.09998,670.59998,518.20001,648.70001,519.40002z"/>
			<path class="st11" d="M281.5,634.09998c-2.5,0-4.79999,1.09998-6.29999,3c-1.79999-3.20001-4.79999-5.5-8.29999-6.59998
				c-1.5-6.5-7.29999-11-13.89999-11c-0.39999,0-0.8,0-1.2,0.09998c-10-11.90002-27.8-13.5-39.7-3.5
				c-0.8,0.70001-1.60001,1.5-2.39999,2.20001c-10.10001-3.09998-20.8,2.5-23.89999,12.59998
				c-0.39999,1.29999-0.7,2.70001-0.8,4.09998c-6.10001,0.79999-10.39999,6.5-9.60001,12.59998
				c0.8,6.09998,6.5,10.40002,12.60001,9.59998c2.7-0.40002,5.2-1.70001,7-3.79999c2.8,1.5,5.89999,2.29999,9,2.29999
				c1.39999,0,2.8-0.20001,4.10001-0.5c9.7,12.20001,27.39999,14.20001,39.59999,4.5c1.89999-1.5,3.60001-3.29999,5.10001-5.20001
				c5.70001,5.5,14.70001,5.40002,20.29999-0.29999c1.60001-1.59998,2.79999-3.59998,3.39999-5.79999
				c3.5,2.79999,8.60001,2.20001,11.29999-1.20001c2.79999-3.5,2.20001-8.59998-1.20001-11.29999
				C285,634.79999,283.29999,634.09998,281.5,634.09998L281.5,634.09998z"/>
			<path class="st11" d="M665,633.29999c-17.59998,1.09998-34.90002,5.40002-51,12.59998h-0.5c0-0.20001,0-0.5,0-0.70001
				c0.09998-5.40002-4.29999-9.90002-9.70001-9.90002c-5.40002-0.09998-9.90002,4.29999-9.90002,9.70001c0,3.20001,1.5,6.20001,4,8
				c-15.59998,5.70001-43.20001,9.29999-70.59998,7c0-0.5-0.09998-0.90002-0.09998-1.40002
				c-0.70001-4.70001-4.09998-8.70001-8.59998-10.09998c3.79999-9.40002-0.79999-20.09998-10.20001-23.79999
				c-4.20001-1.70001-8.89999-1.70001-13.10001-0.20001c-10.29999-18.29999-33.5-24.79999-51.70001-14.5
				c-14.10001,8-21.70001,24-18.79999,40c-9,1.09998-15.39999,9.40002-14.29999,18.40002s9.39999,15.40002,18.39999,14.29999
				c5.10001-0.59998,9.5-3.59998,12.10001-8c9.60001,6.40002,21.60001,8.09998,32.5,4.59998
				c2.60001-0.79999,5.5-0.29999,7.60001,1.40002c0.20001,0.20001,0.39999,0.29999,0.60001,0.5
				c8.60001,6.09998,20.39999,4.09998,26.5-4.5c1-1.29999,1.70001-2.79999,2.29999-4.29999
				c1.89999,0.70001,7.49997,0.40002,9.60001,0.09998c3.70001-0.59998,7.59998-3.59998,9.5-6.5
				c3.5-0.29999,34.79999,2.70001,59.09998-4.70001c5.79999-1.79999,11.5-4,17-6.59998
				c0.40002-0.09998,0.79999-0.20001,1.20001-0.29999c1.09998,3.40002,4.79999,5.29999,8.20001,4.20001
				s5.29999-4.79999,4.20001-8.20001c-0.20001-0.59998-0.5-1.20001-0.90002-1.79999
				c7.79999-3.40002,15.70001-6.29999,23.79999-8.79999c24.5-7.20001,355-3,355-4.40002
				C997.09998,634.29999,677.40002,632.5,665,633.29999z"/>
			<path class="st11" d="M485.20001,725.29999c-5.20001-1.79999-3.60001-2-7.89999-3.40002
				c-19.89999-6.29999-64.39999-3.20001-109.89999,2.70001c-11.5-8.79999-27.89999-7.40002-37.79999,3.29999
				c-1.70001-0.5-3.5-0.79999-5.29999-0.79999c-4.20001-18.90002-22.89999-30.79999-41.79999-26.5
				c-16.89999,3.79999-28.5,19.29999-27.3,36.5c0.2,2.20001,0.60001,4.40002,1.2,6.5c-13.89999,3-22.3,5.09998-22,5.59998
				s8-0.79999,22.89999-2.70001c1,2.5,2.20001,4.90002,3.70001,7.09998c-2.70001,0.29999-5.39999,0.5-8.5,0.70001
				c-17.60001,0.70001-22-3.09998-41.3-6.79999c-7.60001-1.40002-15.2-2.40002-22.89999-2.79999c0-8-4.8-15.20001-12.10001-18.29999
				c-1.39999-10.79999-11.3-18.5-22.10001-17.09998c-3.8,0.5-7.39999,2.09998-10.3,4.59998
				c-1.3,1.09998-2.39999,2.40002-3.39999,3.79999c-12.5-6.40002-27.8-1.5-34.3,11c-6.4,12.5-1.5,27.79999,11,34.29999
				c12.10001,6.20001,26.8,1.90002,33.59999-9.90002c4.7,9.90002,16.5,14,26.39999,9.29999
				c1.60001-0.79999,3.10001-1.70001,4.39999-2.90002c0.8-0.70001,1.60001-1.5,2.3-2.40002
				c2.3,2.90002,6.60001,3.40002,9.60001,1.09998c1.60001-1.29999,2.60001-3.29999,2.60001-5.40002
				c0-0.40002,0-0.79999-0.10001-1.20001c2.60001,0.59998,5.3,1.40002,7.89999,2.20001c5.2,1.79999,39.40001,7.5,63.00002,6.09998
				c4.20001,3.70001,9.20001,6.40002,14.60001,7.79999c0.10001,0.40002,0.20001,0.79999,0.39999,1.09998
				c2.89999,6.29999,20.79999,10.20001,28,2c0.20001-0.20001,0.29999-0.40002,0.5-0.59998
				c3.79999-0.40002,7.29999-2.40002,9.60001-5.59998c2.79999,0.70001,5.79999,0.70001,8.60001,0
				c9.79999,12.09998,27.60001,14,39.70001,4.20001c1.89999-1.5,3.60001-3.29999,5-5.29999
				c5.70001,5.5,14.79999,5.20001,20.29999-0.5c0.70001-0.79999,1.39999-1.59998,1.89999-2.5
				c89.30002-1.59998,285.30002-4.09998,284.99997-5s-180.29999-0.59998-271.70001-0.40002
				c0.79999-1.29999,1.20001-2.79999,1.20001-4.29999c0-4.5-3.70001-8-8.10001-8c-2.5,0-4.79999,1.20001-6.29999,3.09998
				c-0.60001-1-1.29999-1.90002-2.10001-2.70001c35.70001-6.40002,61.79999-12.40002,61.10001-13.20001
				s-23.20001,3.40002-67.89999,7.90002c-1.20001-3.09998-3.39999-5.70001-6.20001-7.40002l7.29999-1.20001
				c25-3.90002,32.89999-3.79999,48.70001-4.40002c17.60001-0.70001,22,1.79999,41.29999,5.5
				c57.09998,10.79999,212.70001-5,220.20001-6.20001c10.20001-1.59998,141.09998-16.79999,140.79999-17.5
				C838,704.09998,527.70001,739.5,485.20001,725.29999z"/>
		</g>
	</g>
</g>
</svg>
