<?xml version="1.0" encoding="utf-8"?>
<!-- Generator: Adobe Illustrator 24.2.0, SVG Export Plug-In . SVG Version: 6.00 Build 0)  -->
<svg version="1.1" id="Layer_1" xmlns="http://www.w3.org/2000/svg" xmlns:xlink="http://www.w3.org/1999/xlink" x="0px" y="0px"
	 viewBox="0 0 1111.4 1111.4" style="enable-background:new 0 0 1111.4 1111.4;" xml:space="preserve">
<style type="text/css">
	.st0{clip-path:url(#SVGID_2_);}
	.st1{fill:none;stroke:#FFFFFF;stroke-width:0.9921;stroke-miterlimit:10;}
	.st2{opacity:0.5;}
	.st3{opacity:0.5;fill:#CEB7C1;stroke:#FFFFFF;stroke-miterlimit:10;}
	.st4{fill:#CEB7C1;stroke:#FFFFFF;stroke-miterlimit:10;}
	.st5{clip-path:url(#SVGID_4_);}
	.st6{fill:#AF8F9D;stroke:#FFFFFF;stroke-miterlimit:10;}
	.st7{fill:none;stroke:#FFFFFF;stroke-width:0.9921;stroke-miterlimit:10;stroke-dasharray:376.2607,376.2607;}
	.st8{fill:none;stroke:#FFFFFF;stroke-width:0.9921;stroke-miterlimit:10;stroke-dasharray:251.276,251.276;}
	.st9{fill:none;stroke:#FFFFFF;stroke-width:0.9921;stroke-miterlimit:10;stroke-dasharray:153.5009,153.5009;}
	.st10{fill:#FFFFFF;stroke:#FFFFFF;stroke-width:0.9921;stroke-miterlimit:10;}
</style>
<g id="Layer_2_1_">
	<g id="Layer_1-2">
		<g>
			<g>
				<g>
					<defs>
						<circle id="SVGID_1_" cx="555.7" cy="555.7" r="359.9"/>
					</defs>
					<clipPath id="SVGID_2_">
						<use xlink:href="#SVGID_1_"  style="overflow:visible;"/>
					</clipPath>
					<g class="st0">
						<g>
							<line class="st1" x1="948.6" y1="162.8" x2="162.8" y2="948.6"/>
							<line class="st1" x1="833.5" y1="74.4" x2="277.9" y2="1036.9"/>
							<line class="st1" x1="699.5" y1="18.9" x2="411.9" y2="1092.5"/>
							<line class="st1" x1="555.7" y1="0" x2="555.7" y2="1111.4"/>
							<line class="st1" x1="411.9" y1="18.9" x2="699.5" y2="1092.5"/>
							<line class="st1" x1="277.9" y1="74.4" x2="833.5" y2="1036.9"/>
							<line class="st1" x1="162.8" y1="162.8" x2="948.6" y2="948.6"/>
							<line class="st1" x1="74.4" y1="277.9" x2="1036.9" y2="833.5"/>
							<line class="st1" x1="18.9" y1="411.9" x2="1092.5" y2="699.5"/>
							<line class="st1" x1="0" y1="555.7" x2="1111.4" y2="555.7"/>
							<line class="st1" x1="18.9" y1="699.5" x2="1092.5" y2="411.9"/>
							<line class="st1" x1="74.4" y1="833.5" x2="1036.9" y2="277.9"/>
						</g>
					</g>
					<use xlink:href="#SVGID_1_"  style="overflow:visible;fill:none;stroke:#FFFFFF;stroke-miterlimit:10;"/>
				</g>
				<circle class="st1" cx="555.7" cy="555.7" r="359.9"/>
			</g>
			<g class="st2">
				<circle class="st3" cx="555.7" cy="555.7" r="105.4"/>
				<path class="st4" d="M555.7,450.8c57.9,0,104.9,46.9,104.9,104.9c0,57.9-46.9,104.9-104.9,104.9c-57.9,0-104.9-46.9-104.9-104.9
					c0,0,0,0,0,0C450.9,497.8,497.8,450.9,555.7,450.8 M555.7,449.8c-58.5,0-105.9,47.4-105.9,105.9s47.4,105.9,105.9,105.9
					c58.5,0,105.9-47.4,105.9-105.9C661.6,497.2,614.2,449.8,555.7,449.8L555.7,449.8L555.7,449.8z"/>
			</g>
			<g>
				<defs>
					<circle id="SVGID_3_" cx="555.7" cy="555.2" r="359.9"/>
				</defs>
				<clipPath id="SVGID_4_">
					<use xlink:href="#SVGID_3_"  style="overflow:visible;"/>
				</clipPath>
				<g class="st5">
					<g class="st2">
						<g>
							<path class="st4" d="M362.3,810.1c5.4-1.9,24.9-14.9,42-26.3c13-8.7,25.2-16.8,29.2-18.8c16.5-7.9,70.8-23,86.2-23
								c3.1,0,3.6,0.6,3.7,0.8c1.9,4.4,4.6,6.5,8.4,6.5c4.3,0,10-2.7,16.5-5.9c2-1,8.4-9.4,18.1-22.2c6-7.9,12.1-16.1,13.7-17.3
								c1.2-1,2.8-1.6,4.3-1.7c6.4,0,12,11.8,19,26.7c5.7,12.2,12.2,26,21.3,38.6c4.4,6.1,9,9.2,13.6,9.2c10.4,0,19.3-15,27.2-28.2
								c1.6-2.7,3.1-5.3,4.6-7.6c9.5-15,53-77.7,63.3-86l95.4-74.3c16.7-16.8,35.9-25.3,57-25.3c17.4,0,31.9,5.8,38.9,8.6l1.6,0.6
								h4.9v314.2L193,891.2L362.3,810.1z"/>
							<path class="st4" d="M885.9,555.9c17.3,0,31.2,5.6,38.7,8.6l1.5,0.6l0.2,0.1h4.5v313.2l-735.4,12.2l167.1-80
								c5.6-2,24.2-14.4,42.1-26.4c13-8.6,25.2-16.8,29.2-18.7c16.4-7.9,70.6-23,86-23c2.8,0,3.2,0.5,3.2,0.5l0,0
								c2,4.6,4.8,6.8,8.8,6.8c4.4,0,10.2-2.7,16.7-6c2.1-1,8.6-9.5,18.2-22.4c5.9-7.9,12.1-16,13.6-17.2c1.1-1,2.6-1.5,4-1.6
								c6.1,0,11.6,11.7,18.5,26.4c5.5,11.6,12.2,26,21.3,38.7c4.5,6.2,9.2,9.4,14,9.4c10.7,0,19.7-15.1,27.6-28.5
								c1.6-2.7,3.1-5.3,4.6-7.6c9.5-15,52.9-77.6,63.2-85.9l95.3-74.3l0,0l0,0C845.8,564.3,864.9,555.9,885.9,555.9 M885.9,554.9
								c-17.3,0-37.7,5.7-57.3,25.4l-95.3,74.3c-10.5,8.4-54.5,71.9-63.5,86.1c-8.5,13.5-19.1,35.6-31.4,35.6c-4.2,0-8.6-2.6-13.2-9
								c-20.7-28.9-28.8-65.5-40.7-65.5c-1.7,0.1-3.3,0.7-4.7,1.8c-3.6,2.7-28,37.6-31.7,39.5c-7,3.5-12.3,5.8-16.3,5.8
								c-3.5,0-6-1.8-7.9-6.2c-0.3-0.8-1.8-1.1-4.2-1.1c-15.6,0-69.6,15-86.4,23.1c-9.4,4.5-61.8,41.8-71.3,45.1l-171.3,82.1
								l741-12.3V564.2h-5.3C919.7,561.5,904.6,554.9,885.9,554.9L885.9,554.9z"/>
						</g>
						<path class="st6" d="M190.8,929.7l197.1-87.1c9.5-4,67.7-59.8,77.1-53.8c3.8,2.4,21.5,12,23,11.8c5.9-0.9,16.6,8.1,29.8,0.3
							c3.8-2.2,7.6-4.1,11.1-8.2c26.6-31.1,50.5-51.9,73.7-13.1c18,30.1,62.6,20.2,74.1-1.5c9-17,18.9-30.8,29.3-40.8l113.4-64.9
							c12.3-7,24.1-18.4,35.2-33.7c24.9-34.5,47.9-47.6,57.4-43.1l16.9,16v318.2H190.8z"/>
						<path class="st4" d="M191.5,980.7l186.7-112.5c9.5-4,85.7-56,95-50c3.8,2.4,14.5,32.2,15.5,33.3c3.5,3.7,16.6,8.1,29.8,0.3
							c3.8-2.2,44.2-12.5,47.7-16.6c26.6-31.1,44.8-41.8,68-3c18,30.1,31.8,18.5,43.2-3.2c5.1-9.6,19.2-32.5,32.3-52.4
							c13.4-20.2,38.4-29.4,61.6-22.6l15.9,4.7c22.7,6.6,46.5-6.3,53.2-29c4.8-16.2,9.5-32.8,14.8-40.1
							c24.9-34.5,47.9-47.6,57.4-43.1l16.9,16v318.2H191.5z"/>
					</g>
				</g>
				<use xlink:href="#SVGID_3_"  style="overflow:visible;fill:none;stroke:#FFFFFF;stroke-miterlimit:10;"/>
			</g>
			<path class="st7" d="M523,792.4c-131-18.1-222.6-138.9-204.6-270s138.9-222.6,270-204.6C719.4,336,811,456.8,793,587.9
				c-8.7,62.9-42,119.8-92.6,158.2C649.8,784.6,585.9,801.3,523,792.4z"/>
			
				<ellipse transform="matrix(0.7071 -0.7071 0.7071 0.7071 -229.8278 555.5463)" class="st8" cx="555.7" cy="555.2" rx="160" ry="160"/>
			
				<ellipse transform="matrix(0.7071 -0.7071 0.7071 0.7071 -229.8278 555.5463)" class="st9" cx="555.7" cy="555.2" rx="195.5" ry="195.5"/>
			<path class="st10" d="M648.7,519.4c-55.1,3.1-94.2,24.2-111.1,31.9c-25.5,11.7-78.7,19.7-131.7,15.2c0-0.8-0.1-1.6-0.2-2.5
				c-1.8-12.1-13.2-20.5-25.3-18.7c-4.8,0.7-9.3,3-12.7,6.6c-0.9-0.8-1.8-1.6-2.8-2.3l-0.6-0.4c-4-2.8-6.4-7.4-6.4-12.2
				c0.1-37-29.7-67.1-66.7-67.3s-67.1,29.7-67.3,66.7c-0.1,37,29.7,67.1,66.7,67.3c6.9,0,13.8-1,20.4-3.1c4.6-1.4,9.7-0.5,13.5,2.5
				c0.4,0.3,0.7,0.5,1.1,0.8c15.1,10.7,36,7.2,46.7-7.9c1.7-2.4,3-4.9,4-7.6c3.3,1.2,13.2,0.8,16.9,0.2c6.5-1,13.4-6.3,16.8-11.4
				c6.1-0.5,61.4,4.7,104.1-8.3c34.9-10.6,46.1-23.2,82.3-33.9c43.2-12.7,361.9-7.7,361.8-10.1C958.2,523.1,670.6,518.2,648.7,519.4
				z"/>
			<path class="st10" d="M281.5,634.1c-2.5,0-4.8,1.1-6.3,3c-1.8-3.2-4.8-5.5-8.3-6.6c-1.5-6.5-7.3-11-13.9-11c-0.4,0-0.8,0-1.2,0.1
				c-10-11.9-27.8-13.5-39.7-3.5c-0.8,0.7-1.6,1.5-2.4,2.2c-10.1-3.1-20.8,2.5-23.9,12.6c-0.4,1.3-0.7,2.7-0.8,4.1
				c-6.1,0.8-10.4,6.5-9.6,12.6c0.8,6.1,6.5,10.4,12.6,9.6c2.7-0.4,5.2-1.7,7-3.8c2.8,1.5,5.9,2.3,9,2.3c1.4,0,2.8-0.2,4.1-0.5
				c9.7,12.2,27.4,14.2,39.6,4.5c1.9-1.5,3.6-3.3,5.1-5.2c5.7,5.5,14.7,5.4,20.3-0.3c1.6-1.6,2.8-3.6,3.4-5.8
				c3.5,2.8,8.6,2.2,11.3-1.2c2.8-3.5,2.2-8.6-1.2-11.3C285,634.8,283.3,634.1,281.5,634.1L281.5,634.1z"/>
			<path class="st10" d="M665,633.3c-17.6,1.1-34.9,5.4-51,12.6h-0.5c0-0.2,0-0.5,0-0.7c0.1-5.4-4.3-9.9-9.7-9.9
				c-5.4-0.1-9.9,4.3-9.9,9.7c0,3.2,1.5,6.2,4,8c-15.6,5.7-43.2,9.3-70.6,7c0-0.5-0.1-0.9-0.1-1.4c-0.7-4.7-4.1-8.7-8.6-10.1
				c3.8-9.4-0.8-20.1-10.2-23.8c-4.2-1.7-8.9-1.7-13.1-0.2c-10.3-18.3-33.5-24.8-51.7-14.5c-14.1,8-21.7,24-18.8,40
				c-9,1.1-15.4,9.4-14.3,18.4c1.1,9,9.4,15.4,18.4,14.3c5.1-0.6,9.5-3.6,12.1-8c9.6,6.4,21.6,8.1,32.5,4.6c2.6-0.8,5.5-0.3,7.6,1.4
				c0.2,0.2,0.4,0.3,0.6,0.5c8.6,6.1,20.4,4.1,26.5-4.5c1-1.3,1.7-2.8,2.3-4.3c1.9,0.7,7.5,0.4,9.6,0.1c3.7-0.6,7.6-3.6,9.5-6.5
				c3.5-0.3,34.8,2.7,59.1-4.7c5.8-1.8,11.5-4,17-6.6c0.4-0.1,0.8-0.2,1.2-0.3c1.1,3.4,4.8,5.3,8.2,4.2c3.4-1.1,5.3-4.8,4.2-8.2
				c-0.2-0.6-0.5-1.2-0.9-1.8c7.8-3.4,15.7-6.3,23.8-8.8c24.5-7.2,355-3,355-4.4C997.1,634.3,677.4,632.5,665,633.3z"/>
			<path class="st10" d="M485.2,725.3c-5.2-1.8-3.6-2-7.9-3.4c-19.9-6.3-64.4-3.2-109.9,2.7c-11.5-8.8-27.9-7.4-37.8,3.3
				c-1.7-0.5-3.5-0.8-5.3-0.8c-4.2-18.9-22.9-30.8-41.8-26.5c-16.9,3.8-28.5,19.3-27.3,36.5c0.2,2.2,0.6,4.4,1.2,6.5
				c-13.9,3-22.3,5.1-22,5.6s8-0.8,22.9-2.7c1,2.5,2.2,4.9,3.7,7.1c-2.7,0.3-5.4,0.5-8.5,0.7c-17.6,0.7-22-3.1-41.3-6.8
				c-7.6-1.4-15.2-2.4-22.9-2.8c0-8-4.8-15.2-12.1-18.3c-1.4-10.8-11.3-18.5-22.1-17.1c-3.8,0.5-7.4,2.1-10.3,4.6
				c-1.3,1.1-2.4,2.4-3.4,3.8c-12.5-6.4-27.8-1.5-34.3,11c-6.4,12.5-1.5,27.8,11,34.3c12.1,6.2,26.8,1.9,33.6-9.9
				c4.7,9.9,16.5,14,26.4,9.3c1.6-0.8,3.1-1.7,4.4-2.9c0.8-0.7,1.6-1.5,2.3-2.4c2.3,2.9,6.6,3.4,9.6,1.1c1.6-1.3,2.6-3.3,2.6-5.4
				c0-0.4,0-0.8-0.1-1.2c2.6,0.6,5.3,1.4,7.9,2.2c5.2,1.8,39.4,7.5,63,6.1c4.2,3.7,9.2,6.4,14.6,7.8c0.1,0.4,0.2,0.8,0.4,1.1
				c2.9,6.3,20.8,10.2,28,2c0.2-0.2,0.3-0.4,0.5-0.6c3.8-0.4,7.3-2.4,9.6-5.6c2.8,0.7,5.8,0.7,8.6,0c9.8,12.1,27.6,14,39.7,4.2
				c1.9-1.5,3.6-3.3,5-5.3c5.7,5.5,14.8,5.2,20.3-0.5c0.7-0.8,1.4-1.6,1.9-2.5c89.3-1.6,285.3-4.1,285-5s-180.3-0.6-271.7-0.4
				c0.8-1.3,1.2-2.8,1.2-4.3c0-4.5-3.7-8-8.1-8c-2.5,0-4.8,1.2-6.3,3.1c-0.6-1-1.3-1.9-2.1-2.7c35.7-6.4,61.8-12.4,61.1-13.2
				s-23.2,3.4-67.9,7.9c-1.2-3.1-3.4-5.7-6.2-7.4l7.3-1.2c25-3.9,32.9-3.8,48.7-4.4c17.6-0.7,22,1.8,41.3,5.5
				c57.1,10.8,212.7-5,220.2-6.2c10.2-1.6,141.1-16.8,140.8-17.5C838,704.1,527.7,739.5,485.2,725.3z"/>
		</g>
	</g>
</g>
</svg>
