<?xml version="1.0" encoding="utf-8"?>
<!-- Generator: Adobe Illustrator 24.2.0, SVG Export Plug-In . SVG Version: 6.00 Build 0)  -->
<svg version="1.1" id="Layer_1" xmlns="http://www.w3.org/2000/svg" xmlns:xlink="http://www.w3.org/1999/xlink" x="0px" y="0px"
	 viewBox="0 0 810.1 829" style="enable-background:new 0 0 810.1 829;" xml:space="preserve">
<style type="text/css">
	.st0{fill:#FFFFFF;stroke:#006D77;stroke-miterlimit:10;}
	.st1{stroke:#006D77;stroke-miterlimit:10;}
	.st2{display:none;}
	.st3{display:inline;}
	.st4{fill:#006D77;stroke:#006D77;stroke-miterlimit:10;}
	.st5{display:inline;fill:#FFFFFF;stroke:#006D77;stroke-miterlimit:10;}
	.st6{display:inline;fill:#006D77;stroke:#006D77;stroke-miterlimit:10;}
	.st7{display:none;fill:#006D77;stroke:#006D77;stroke-miterlimit:10;}
	.st8{display:none;stroke:#006D77;stroke-miterlimit:10;}
	.st9{display:inline;stroke:#006D77;stroke-miterlimit:10;}
	.st10{display:inline;fill:none;stroke:#006D77;stroke-width:0.9921;stroke-miterlimit:10;}
	.st11{fill:none;stroke:#006D77;stroke-width:0.9921;stroke-miterlimit:10;}
</style>
<g id="Layer_2_1_">
	<g id="Layer_1-2">
		<g>
			<g>
				<path class="st0" d="M135.1,464.5c-6.8,0-13.5-2.1-19.1-6.1c-0.4-0.3-0.7-0.5-1.1-0.8c-2.7-2.1-6-3.3-9.5-3.3
					c-1.5,0-3,0.2-4.5,0.7c-6.5,2-13.2,3.1-20,3.1c-36.7,0-66.5-29.8-66.5-66.6s29.8-66.5,66.6-66.5c14.2,0,28,4.6,39.5,13
					c17,12.6,27.1,32.6,27,53.8c0,5,2.5,9.8,6.6,12.6l0.6,0.4c1,0.7,1.9,1.5,2.8,2.3l0.4,0.3l0.3-0.4c3.3-3.5,7.7-5.7,12.4-6.4
					c1.1-0.2,2.2-0.2,3.3-0.2c10.7,0.1,19.8,7.9,21.5,18.5c0.1,0.8,0.2,1.6,0.2,2.4v0.4h0.4c9.9,0.8,20.1,1.3,30.4,1.3
					c39.7,0,79.5-6.5,101.5-16.5c1.7-0.8,3.6-1.7,5.8-2.7c19.5-9.2,55.7-26.4,105.2-29.1c2.3-0.1,7.7-0.2,16-0.2
					c60.1,0,252,3.4,287.7,5.2c-10.8,0.3-35.7,0.3-65.5,0.4c-97.4,0.1-260.4,0.4-290.5,9.2c-18.5,5.5-30.7,11.6-42.5,17.4
					c-11.2,5.6-22.8,11.3-39.8,16.5c-19.4,5.9-44.2,8.9-73.8,8.9l0,0c-9.1,0-16.7-0.3-22.3-0.5c-2.9-0.1-5.2-0.2-6.6-0.2
					c-0.6,0-1,0-1.3,0h-0.2l-0.1,0.2c-3.1,4.8-9.8,10.2-16.4,11.2c-3,0.4-6,0.6-9.1,0.5c-2.6,0.1-5.1-0.1-7.6-0.7l-0.5-0.2l-0.2,0.5
					C161.2,455.9,148.9,464.5,135.1,464.5L135.1,464.5z"/>
				<path class="st1" d="M81.2,325.5c14.1,0,27.8,4.5,39.2,12.9c16.9,12.5,26.9,32.4,26.8,53.4c0,5.2,2.5,10.1,6.8,13.1
					c0.2,0.1,0.4,0.3,0.6,0.4c1,0.7,1.9,1.5,2.7,2.2l0.7,0.7l0.7-0.7c3.2-3.4,7.5-5.6,12.1-6.3c11.6-1.8,22.4,6.2,24.2,17.8
					c0,0,0,0,0,0c0.1,0.8,0.2,1.6,0.2,2.3v0.9l0.9,0.1c9.9,0.8,20.1,1.3,30.4,1.3c39.7,0,79.7-6.5,101.7-16.6
					c1.7-0.8,3.6-1.7,5.8-2.7c19.4-9.2,55.6-26.3,105-29.1c2.3-0.1,7.7-0.2,16-0.2c51.9,0,206.1,2.6,267.5,4.4
					c-12.2,0.1-28,0.1-45.3,0.1c-97.4,0.1-260.5,0.4-290.7,9.3c-18.6,5.5-30.8,11.5-42.6,17.4c-11.2,5.5-22.7,11.3-39.7,16.5
					c-19.3,5.9-44.1,8.9-73.7,8.9c-9.1,0-16.7-0.3-22.3-0.5c-2.9-0.1-5.2-0.2-6.7-0.2c-0.6,0-1,0-1.3,0h-0.5l-0.3,0.4
					c-3.1,4.7-9.6,10-16.1,11c-3,0.4-6,0.6-9,0.5c-2.5,0.1-5-0.1-7.4-0.7L166,442l-0.3,0.9c-4.8,12.7-16.9,21.1-30.5,21.1
					c-6.7,0-13.3-2.1-18.8-6c-0.4-0.2-0.7-0.5-1.1-0.8c-2.8-2.2-6.2-3.4-9.8-3.4c-1.6,0-3.1,0.2-4.6,0.7c-6.4,2-13.2,3.1-19.9,3.1
					c-36.5-0.1-66-29.7-65.9-66.2c0.1-25.1,14.4-48,36.9-59.1C61.1,327.9,71.1,325.5,81.2,325.5 M81.2,324.5
					c-37,0.1-66.9,30.2-66.8,67.2s30.2,66.9,67.2,66.8c6.6,0,13.2-1,19.6-3c1.4-0.4,2.9-0.7,4.3-0.7c3.3,0,6.5,1.1,9.1,3.1
					c0.4,0.3,0.7,0.5,1.1,0.8c14.9,10.5,35.4,7.3,46.3-7.3c1.9-2.5,3.4-5.3,4.5-8.2c2.5,0.6,5.1,0.9,7.8,0.8c3.1,0,6.1-0.2,9.2-0.5
					c6.5-1,13.4-6.3,16.8-11.4c0.3,0,0.7,0,1.2,0c4.1,0,14.9,0.7,28.9,0.7c21.1,0,49.6-1.5,74-8.9c34.9-10.6,46.1-23.2,82.3-33.9
					c43.2-12.7,361.9-7.6,361.8-10.1c-0.1-1.6-228.1-5.7-293.6-5.7c-8,0-13.6,0.1-16,0.2c-55.1,3.1-94.2,24.2-111.1,31.9
					c-20.6,9.4-59.3,16.5-101.3,16.5c-10,0-20.2-0.4-30.4-1.3c0-0.8-0.1-1.6-0.2-2.5c-1.8-12.1-13.1-20.5-25.3-18.7
					c-4.8,0.7-9.3,3-12.7,6.6c-0.9-0.8-1.8-1.6-2.8-2.3l-0.6-0.4c-4-2.8-6.4-7.4-6.4-12.2c0.2-37-29.7-67.1-66.7-67.3
					C81.4,324.6,81.3,324.6,81.2,324.5L81.2,324.5z"/>
			</g>
			<g>
				<path class="st0" d="M436,356.5c-8.4,0-16.4-3.9-21.6-10.5l-0.2-0.2l-0.3,0.1c-4.3,0.9-8.9,0.3-12.8-1.8l-0.4-0.2l-0.3,0.3
					c-3.9,4.5-10.6,5-15.1,1.1s-5-10.6-1.1-15.1c1.7-2,4.1-3.3,6.6-3.6l0.4,0v-0.4c0.9-10.2,9.8-17.9,20.1-17c1.3,0.1,2.7,0.4,4,0.8
					l0.3,0.1l0.2-0.2c5.2-5.6,12.5-8.7,20.1-8.7c8.2,0,16,3.6,21.2,9.9l0.2,0.2h0.3c0.4,0,0.8-0.1,1.2-0.1c6.4,0,12,4.4,13.5,10.7
					l0.1,0.3l0.3,0.1c3.4,1,6.2,3.3,8,6.4l0.4,0.6l0.5-0.6c2.6-3.3,7.4-3.8,10.6-1.2c3.3,2.6,3.8,7.4,1.2,10.6
					c-1.4,1.8-3.6,2.8-5.9,2.9c-1.7,0-3.4-0.6-4.7-1.7l-0.6-0.5l-0.2,0.7c-2.2,7.3-10,11.4-17.3,9.1c-2.1-0.6-4-1.8-5.6-3.3
					l-0.4-0.4l-0.3,0.5C453,352.4,444.8,356.5,436,356.5z"/>
				<path class="st1" d="M436,301.6c8,0,15.7,3.6,20.9,9.7l0.3,0.4l0.5,0c0.4,0,0.8,0,1.2,0c6.2,0,11.6,4.2,13,10.3l0.1,0.6l0.5,0.2
					c3.3,1,6,3.2,7.7,6.1l0.8,1.2l0.9-1.1c2.4-3.1,6.9-3.6,9.9-1.1c3.1,2.4,3.6,6.9,1.1,9.9s-6.9,3.6-9.9,1.1c0,0,0,0,0,0l-1.1-0.9
					l-0.4,1.4c-2.2,7-9.6,11-16.7,8.8c-2-0.6-3.9-1.7-5.4-3.2l-0.8-0.8l-0.7,0.9c-9,12.1-26,14.5-38.1,5.6c-1.9-1.4-3.6-3-5-4.9
					l-0.4-0.5l-0.6,0.1c-1.3,0.3-2.6,0.4-3.9,0.4c-3,0-5.9-0.7-8.5-2.1l-0.7-0.4l-0.5,0.6c-3.7,4.3-10.1,4.8-14.4,1.1
					c-4.3-3.7-4.8-10.1-1.1-14.4c1.6-1.9,3.9-3.1,6.3-3.5l0.8-0.1l0.1-0.8c0.8-9.4,8.6-16.6,18-16.6c1.8,0,3.6,0.3,5.4,0.8l0.6,0.2
					l0.4-0.5C421.4,304.6,428.5,301.5,436,301.6 M436,300.6c-7.8,0-15.2,3.2-20.5,8.9c-10.1-3.1-20.8,2.5-23.9,12.6
					c-0.4,1.3-0.7,2.7-0.8,4c-6.1,0.8-10.4,6.5-9.6,12.6c0.8,6.1,6.5,10.4,12.6,9.6c2.7-0.4,5.2-1.7,7-3.8c4,2.1,8.7,2.8,13.1,1.8
					c9.7,12.2,27.4,14.2,39.6,4.5c1.9-1.5,3.6-3.3,5.1-5.2c5.7,5.5,14.7,5.4,20.3-0.2c1.6-1.6,2.8-3.6,3.4-5.8
					c3.5,2.8,8.6,2.2,11.4-1.2c2.8-3.5,2.2-8.6-1.2-11.4c-3.5-2.8-8.6-2.2-11.4,1.2c0,0,0,0,0,0c-1.8-3.2-4.8-5.5-8.3-6.6
					c-1.5-6.5-7.3-11-13.9-11c-0.4,0-0.8,0-1.2,0C452.2,304.3,444.3,300.6,436,300.6L436,300.6z"/>
			</g>
			<g>
				<path class="st0" d="M324.5,527.9c-3.1,0-6.2-1-8.7-2.8l-0.5-0.4c-1.3-1-2.9-1.6-4.6-1.6c-0.7,0-1.5,0.1-2.2,0.3
					c-8.8,2.8-18.5,1.4-26.2-3.8l-0.4-0.3l-0.3,0.5c-3.6,6.2-11.6,8.3-17.8,4.6s-8.3-11.6-4.6-17.8c2-3.5,5.6-5.8,9.6-6.3l0.5-0.1
					l-0.1-0.5c-1.5-8.4,0.5-17,5.5-23.8c10.1-13.6,29.3-16.3,42.9-6.2c3.4,2.6,6.3,5.8,8.4,9.6l0.2,0.4l0.4-0.1
					c7.5-2.8,15.9,1.1,18.6,8.6c0.6,1.6,0.9,3.3,0.9,5c0,1.9-0.4,3.7-1,5.4l-0.2,0.5l0.5,0.2c3.6,1.1,6.2,4.2,6.7,7.9
					c0.1,0.4,0.1,0.7,0.1,1.1v0.4h0.4c4.6,0.4,9.4,0.6,14.1,0.6c16.6,0,33-2.4,43.9-6.3l0.9-0.3L411,502c-3.4-2.5-4.1-7.2-1.6-10.5
					c2.5-3.4,7.2-4.1,10.5-1.6c1.9,1.4,3.1,3.7,3.1,6.1c0,0.2,0,0.4,0,0.5v0.5h0.5h0.4h0.1l0,0.1c13.1-5.9,27.2-9.4,41.6-10.2
					c1.6-0.1,9.3-0.1,22.9-0.1c44,0,134,0.5,192.9,1H678c-21.6-0.1-48.6-0.1-75.4-0.1c-96.6,0-147.5,1.2-155.8,3.6
					c-6.6,2.1-13.2,4.5-19.5,7.3l-0.5,0.2l0.4,0.5c1.6,2.2,1.1,5.2-1.1,6.8c-2.2,1.6-5.2,1.1-6.8-1.1c-0.3-0.4-0.5-0.9-0.7-1.3
					l-0.2-0.5l-0.5,0.2c-0.3,0.1-0.6,0.2-0.9,0.2h-0.1h-0.1c-4.5,2.1-9.1,4-13.8,5.4c-9,2.7-20.5,4.1-34.2,4.1
					c-4.2,0-7.8-0.1-10.3-0.2c-1.4,0-2.4-0.1-3.1-0.1h-0.6h-0.2l-0.1,0.2c-1.7,2.6-4.4,4.4-7.4,5.1c-1.4,0.2-2.8,0.3-4.2,0.2
					c-1.2,0-2.3-0.1-3.4-0.3l-0.5-0.2l-0.2,0.5c-0.5,1.3-1.2,2.6-2,3.7C333.8,525.6,329.3,527.9,324.5,527.9z"/>
				<path class="st1" d="M299.5,463.2v1c10.9,0,20.9,5.9,26.3,15.4l0.4,0.7l0.8-0.3c1.6-0.6,3.2-0.9,4.9-0.9c7.7,0,14,6.3,14,14
					c0,1.8-0.3,3.6-1,5.2l-0.4,1l1,0.3c3.4,1.1,5.9,4,6.4,7.5c0.1,0.3,0.1,0.7,0.1,1v0.9l0.9,0.1c4.6,0.4,9.4,0.6,14.2,0.6
					c16.7,0,33.1-2.4,44.1-6.4l1.8-0.6l-1.5-1.1c-3.1-2.3-3.7-6.7-1.4-9.8c2.3-3.1,6.7-3.7,9.8-1.4c1.7,1.3,2.8,3.3,2.8,5.5
					c0,0.2,0,0.3,0,0.5l-0.1,1l1,0.1c0.1,0,0.2,0,0.3,0h0.3l0.2-0.1c13.1-5.9,27.1-9.3,41.4-10.2c1.1-0.1,5.9-0.1,22.9-0.1
					c11.3,0,25.7,0,41.9,0.1c-50.7,0.5-77.8,1.6-83.8,3.4c-6.7,2.1-13.2,4.6-19.6,7.4l-1.1,0.5l0.7,1c0.5,0.7,0.8,1.6,0.8,2.5
					c0,2.4-1.9,4.4-4.3,4.4c-1.9,0-3.6-1.2-4.2-3l-0.3-1l-1,0.3c-0.3,0.1-0.6,0.2-0.9,0.2h-0.1l-0.1,0c-4.4,2.1-9,3.9-13.8,5.4
					c-8.9,2.7-20.4,4.1-34.1,4.1c-4.2,0-7.8-0.1-10.3-0.2c-1.4,0-2.4-0.1-3.1-0.1h-0.7h-0.5l-0.3,0.4c-1.7,2.5-4.2,4.2-7.1,4.9
					c-1.4,0.2-2.7,0.3-4.1,0.2c-1.1,0.1-2.2,0-3.3-0.3l-0.9-0.3l-0.3,0.9c-2.1,5.7-7.6,9.5-13.7,9.4c-3,0-5.9-0.9-8.4-2.7l-0.5-0.3
					c-1.4-1.1-3.1-1.7-4.9-1.7c-0.8,0-1.6,0.1-2.3,0.3c-2.9,0.9-6,1.4-9.1,1.4c-6,0-11.8-1.8-16.7-5.1l-0.9-0.6l-0.5,0.9
					c-3.4,6-11.1,8-17.1,4.6c-6-3.4-8-11.1-4.6-17.1c2-3.4,5.5-5.7,9.4-6.2l1-0.1l-0.2-1c-1.5-8.2,0.5-16.7,5.5-23.5
					c5.7-7.7,14.6-12.2,24.2-12.1L299.5,463.2 M299.4,463.2c-17.2,0-31.1,13.9-31.1,31c0,1.9,0.2,3.8,0.5,5.7
					c-7.4,0.9-12.6,7.7-11.7,15.1c0.9,7.4,7.7,12.6,15.1,11.7c4.1-0.5,7.8-2.9,9.9-6.5c5.1,3.4,11.1,5.2,17.3,5.2
					c3.2,0,6.3-0.5,9.4-1.4c0.6-0.2,1.3-0.3,2-0.3c1.5,0,3,0.5,4.3,1.5l0.5,0.4c6.9,4.9,16.4,3.4,21.5-3.4c0.9-1.2,1.6-2.5,2.1-3.8
					c1.2,0.3,2.4,0.4,3.6,0.3c1.4,0,2.8-0.1,4.2-0.2c3.2-0.7,6-2.6,7.8-5.3h0.6c1.9,0,6.9,0.3,13.4,0.3c9.8,0,23-0.7,34.4-4.1
					c4.8-1.5,9.4-3.3,13.9-5.4c0.3-0.1,0.7-0.2,1-0.3c0.9,2.8,3.9,4.3,6.8,3.4c2.8-0.9,4.3-3.9,3.4-6.8c-0.2-0.5-0.4-1-0.7-1.5
					c6.4-2.8,12.9-5.2,19.5-7.2c10.2-3,84.6-3.6,155.6-3.6c46.4,0,91.3,0.2,115.9,0.2c12,0,19.2-0.1,19.2-0.2
					c0-0.7-183.2-1.8-249.1-1.8c-12.9,0-21.2,0-22.9,0.1c-14.4,0.9-28.6,4.4-41.8,10.3h-0.4c0-0.2,0-0.4,0-0.6c0-4.4-3.7-8-8.1-7.9
					s-8,3.7-7.9,8.1c0,2.5,1.2,4.8,3.2,6.3c-10.1,3.7-26.3,6.3-43.7,6.3c-4.6,0-9.4-0.2-14.1-0.6c0-0.4,0-0.8-0.1-1.1
					c-0.6-3.9-3.3-7.1-7-8.3c0.7-1.8,1.1-3.7,1.1-5.6c0-8.3-6.7-15-15-15c-1.8,0-3.5,0.3-5.2,0.9C321,469.3,310.7,463.2,299.4,463.2
					L299.4,463.2z"/>
			</g>
			<g>
				<path class="st0" d="M268.8,684.6c-6.8,0-13.6-2.8-15.2-6.3c-0.1-0.3-0.3-0.7-0.3-1l-0.1-0.3l-0.3-0.1c-5.3-1.4-10.3-4-14.4-7.7
					l-0.2-0.1h-0.2c-2.4,0.1-5,0.2-7.8,0.2c-23,0-50.5-4.8-55-6.3c-2.6-0.9-5.2-1.6-7.9-2.3l-0.7-0.2l0.1,0.8
					c0.1,0.4,0.1,0.7,0.1,1.1c0,3.5-2.8,6.3-6.3,6.4c-1.9,0-3.8-0.9-5-2.4l-0.4-0.5l-0.4,0.5c-6.8,8.2-18.9,9.4-27.1,2.6
					c-2.2-1.8-3.9-4.1-5.2-6.6l-0.4-0.8l-0.5,0.8c-6.9,11.9-22.2,16-34.2,9.1c-2.4-1.4-4.5-3.2-6.3-5.2c-9-10.5-7.8-26.3,2.7-35.3
					c7.7-6.6,18.6-7.9,27.6-3.3l0.4,0.2l0.2-0.4c0.9-1.4,2-2.6,3.3-3.7c8.1-7,20.2-6.1,27.2,2c2.5,2.9,4.1,6.4,4.5,10.2v0.3l0.3,0.1
					c2.7,1.1,5.2,2.9,7.1,5.2c3,3.5,4.7,8,4.7,12.7v0.5h0.5c7.7,0.4,15.3,1.3,22.8,2.7c6.5,1.2,11.3,2.5,15.5,3.6
					c7.4,1.9,12.7,3.3,22,3.3c1.2,0,2.6,0,3.9-0.1c2.9-0.1,5.8-0.3,8.6-0.7l0.8-0.1l-0.4-0.7c-1.5-2.2-2.7-4.5-3.7-7l-0.1-0.4h-0.4
					c-4,0.5-7.4,1-10.4,1.4c-4.4,0.6-7.6,1-9.7,1.3c2.9-0.8,8.7-2.3,19.3-4.5l0.5-0.1l-0.1-0.5c-5.2-18.3,5.4-37.4,23.7-42.6
					c2.1-0.6,4.3-1,6.4-1.2c1-0.1,2.1-0.1,3.1-0.1c16.4,0,30.5,11.6,33.8,27.7l0.1,0.4h0.4c1.8,0,3.5,0.3,5.2,0.8l0.3,0.1l0.2-0.2
					c5.2-5.6,12.4-8.8,20.1-8.9h0.2c6.1,0,12,2,16.8,5.7l0.2,0.1h0.2c31.3-4.1,57.1-6.2,76.7-6.2c14.6,0,25.7,1.2,32.9,3.5
					c1.2,0.3,2.3,0.8,3.4,1.4c1.4,0.8,2.9,1.5,4.5,1.9c6.8,2.3,20.8,3.4,41.7,3.4c64.1,0,181-10.7,250.9-17.1
					c24.8-2.3,44.1-4,54-4.7c-14.5,1.9-48.5,6-77.1,9.5c-28.1,3.4-52.3,6.3-56.6,6.9s-92,9.9-162,9.9l0,0c-25.4,0-44.9-1.3-58.1-3.8
					c-4.9-0.9-8.9-1.8-12.3-2.5c-8.5-1.8-14.1-3-23.6-3c-1.7,0-3.5,0-5.4,0.1l-4.9,0.2c-13,0.5-21.5,0.8-43.9,4.3
					c-2.6,0.4-5,0.8-7.3,1.2l-1.4,0.2l1.2,0.7c2.8,1.6,4.9,4.1,6,7.2l0.1,0.4h0.4c25.6-2.6,44.1-5,55.1-6.5c4.6-0.6,8-1.1,10.1-1.3
					c-7,2-29,6.8-58.6,12.2l-0.9,0.2l0.6,0.7c0.8,0.8,1.4,1.7,2,2.7l0.4,0.6l0.5-0.6c1.4-1.8,3.6-2.9,5.9-2.9c4.2,0,7.6,3.3,7.6,7.5
					c0,1.4-0.4,2.8-1.1,4l-0.5,0.8h0.9c19.2,0,87.2-0.2,154.4-0.2c54.9,0,84.6,0.1,100.3,0.2c-30.3,0.7-96.2,1.7-156.1,2.6
					c-42.4,0.6-82.5,1.2-111.9,1.8h-0.3l-0.1,0.2c-2.5,4.1-6.9,6.7-11.7,6.7h-0.1c-3.6,0-7-1.4-9.6-3.8l-0.4-0.4l-0.3,0.5
					c-5.1,7.1-13.4,11.3-22.1,11.3h-0.2c-8.4,0-16.3-3.8-21.5-10.3l-0.2-0.2l-0.3,0.1c-1.3,0.3-2.7,0.5-4,0.5h-0.1
					c-1.4,0-2.8-0.2-4.2-0.5l-0.3-0.1l-0.2,0.3c-2.2,3-5.5,5-9.2,5.4h-0.2l-0.1,0.2c-0.2,0.2-0.3,0.4-0.5,0.6
					C278.2,683,273.9,684.6,268.8,684.6z"/>
				<path class="st1" d="M261.4,609.5c16.2,0,30.1,11.4,33.3,27.3l0.2,0.8h0.8c1.7,0,3.4,0.3,5,0.8l0.6,0.2l0.4-0.5
					c5.1-5.5,12.2-8.7,19.7-8.7h0.2c6,0,11.7,1.9,16.5,5.5l0.3,0.2l0.4,0c31.3-4.1,57.1-6.1,76.6-6.1c14.5,0,25.6,1.2,32.8,3.4
					c1.1,0.3,2.3,0.8,3.3,1.4c1.4,0.8,3,1.5,4.6,2c6.9,2.3,20.6,3.5,41.9,3.5c64.1,0,181.1-10.7,250.9-17.1
					c12-1.1,22.7-2.1,31.7-2.9c-16.2,2-36.7,4.5-54.9,6.6c-28.1,3.4-52.3,6.3-56.6,7s-91.9,9.9-161.9,9.9c-25.4,0-44.9-1.3-58-3.7
					c-4.9-0.9-8.9-1.8-12.3-2.5c-8.5-1.8-14.1-3-23.8-3c-1.7,0-3.5,0-5.5,0.1l-4.9,0.2c-13,0.5-21.5,0.8-43.9,4.3
					c-2.6,0.4-5,0.8-7.3,1.2l-2.7,0.5l2.4,1.4c2.7,1.6,4.7,4,5.8,6.9l0.3,0.7l0.8-0.1c25.6-2.6,44.1-5,55.1-6.5l1.9-0.3
					c-10.5,2.5-28.5,6.2-50.6,10.2l-1.8,0.3l1.3,1.3c0.7,0.8,1.4,1.6,1.9,2.5l0.7,1.3l0.9-1.2c1.3-1.7,3.4-2.7,5.5-2.7h0.1
					c3.9,0,7.1,3.2,7.1,7.1c0,1.3-0.4,2.6-1.1,3.7l-0.9,1.5h1.8c19.2,0,87-0.2,154.3-0.2c23.9,0,43,0,58.3,0.1
					c-32.7,0.6-74.7,1.2-114.1,1.8c-42.4,0.6-82.5,1.2-111.9,1.8H366l-0.3,0.5c-2.4,4-6.7,6.4-11.3,6.5h-0.1c-3.4,0-6.7-1.3-9.2-3.7
					l-0.8-0.8l-0.7,0.9c-5.1,7-13.1,11.1-21.7,11.2h-0.2c-8.2,0-16-3.7-21.1-10.1l-0.4-0.5l-0.6,0.1c-1.3,0.3-2.6,0.5-3.9,0.5h-0.2
					c-1.4,0-2.8-0.2-4.1-0.5l-0.6-0.2l-0.4,0.5c-2.1,2.9-5.3,4.8-8.8,5.2H281l-0.3,0.3c-0.1,0.2-0.3,0.4-0.4,0.5
					c-2.5,2.8-6.6,4.3-11.6,4.3c-6.6,0-13.2-2.7-14.8-6c-0.1-0.3-0.2-0.6-0.3-0.9l-0.1-0.6l-0.6-0.2c-5.3-1.3-10.1-3.9-14.2-7.6
					l-0.3-0.3H238c-2.4,0.1-5,0.2-7.7,0.2c-22.9,0-50.3-4.8-54.9-6.3c-2.6-0.9-5.3-1.6-8-2.3l-1.5-0.3l0.3,1.5
					c0.1,0.3,0.1,0.7,0.1,1c0,3.2-2.6,5.8-5.8,5.9c0,0,0,0,0,0h-0.1c-1.8,0-3.4-0.8-4.5-2.2l-0.8-1l-0.8,1c-0.7,0.8-1.4,1.6-2.2,2.3
					c-7.8,6.8-19.7,5.9-26.5-1.9c-1.1-1.3-2-2.7-2.8-4.2l-0.8-1.7l-1,1.6c-6.8,11.7-21.7,15.7-33.4,9c-2.4-1.4-4.5-3.1-6.3-5.2
					c-8.9-10.2-7.7-25.7,2.5-34.5c7.5-6.5,18.3-7.8,27.2-3.3l0.8,0.4l0.5-0.7c5.9-8.6,17.6-10.8,26.1-4.9c1.3,0.9,2.5,2,3.6,3.2
					c2.4,2.8,4,6.3,4.4,10l0.1,0.6l0.5,0.2c2.7,1.1,5,2.8,6.9,5c3,3.4,4.6,7.8,4.6,12.3v0.9h0.9c7.6,0.4,15.2,1.3,22.8,2.7
					c6.5,1.2,11.3,2.5,15.5,3.6c7.4,1.9,12.8,3.3,22.1,3.3c1.2,0,2.6,0,3.9-0.1c3-0.1,5.8-0.3,8.6-0.7l1.6-0.2l-0.9-1.3
					c-1.5-2.2-2.7-4.5-3.6-6.9l-0.3-0.7l-0.8,0.1c-4,0.5-7.4,1-10.4,1.4l-1.6,0.2c3-0.7,6.7-1.5,11.3-2.5l1-0.2l-0.3-1
					c-0.6-2.1-1-4.2-1.2-6.3c-1.6-18.7,12.2-35.1,30.8-36.8c1-0.1,2-0.1,3-0.1 M261.3,608.4c-1,0-2.1,0-3.1,0.1
					c-19.2,1.7-33.4,18.7-31.7,37.9c0,0,0,0,0,0c0.2,2.2,0.6,4.4,1.2,6.5c-13.9,3-22.3,5.1-22,5.6c0.1,0.1,0.2,0.1,0.6,0.1
					c2,0,9.5-1.1,22.3-2.8c1,2.5,2.2,4.9,3.7,7.1c-2.7,0.3-5.4,0.5-8.5,0.7c-1.4,0-2.7,0.1-3.9,0.1c-14.5,0-19.6-3.5-37.4-6.9
					c-7.6-1.4-15.2-2.4-22.9-2.8c0-8-4.8-15.2-12.1-18.3c-1.5-10.8-11.5-18.4-22.3-16.9c-3.7,0.5-7.3,2.1-10.1,4.5
					c-1.3,1.1-2.4,2.4-3.4,3.8c-12.5-6.4-27.9-1.5-34.3,11.1c-6.4,12.5-1.5,27.9,11.1,34.3c12.1,6.2,26.9,1.8,33.7-9.9
					c3.3,6.9,10.3,11.3,17.9,11.3c5.9,0,11.5-2.7,15.3-7.2c1.3,1.6,3.3,2.6,5.3,2.6h0.1c3.8,0,6.8-3.1,6.8-6.9c0-0.4,0-0.8-0.1-1.2
					c2.6,0.6,5.3,1.4,7.9,2.2c4.7,1.6,32.5,6.3,55.2,6.3c2.7,0,5.3-0.1,7.8-0.2c4.2,3.7,9.2,6.4,14.6,7.8c0.1,0.4,0.2,0.8,0.4,1.1
					c1.7,3.7,8.8,6.6,15.7,6.6c4.7,0,9.4-1.3,12.3-4.7c0.2-0.2,0.3-0.4,0.5-0.6c3.8-0.4,7.3-2.4,9.5-5.6c1.4,0.3,2.9,0.5,4.3,0.5
					h0.2c1.4,0,2.8-0.2,4.1-0.5c5.3,6.6,13.4,10.5,21.9,10.5h0.2c8.9-0.1,17.3-4.4,22.5-11.6c2.7,2.6,6.2,4,9.9,4h0.1
					c5,0,9.6-2.7,12.1-6.9c89.3-1.6,285.3-4.1,285-5c-0.1-0.5-53.8-0.6-117.5-0.6c-52.9,0-112.7,0.1-154.3,0.2
					c2.3-3.8,1.2-8.8-2.6-11.1c-1.3-0.8-2.8-1.2-4.3-1.2H373c-2.5,0-4.8,1.2-6.3,3.1c-0.6-1-1.3-1.9-2.1-2.7
					c35.7-6.4,61.8-12.4,61.1-13.2c-0.1-0.1-0.2-0.1-0.6-0.1c-3.8,0-26.2,3.8-67.3,8c-1.2-3.1-3.4-5.7-6.2-7.4
					c2.3-0.4,4.8-0.8,7.3-1.2c25-3.9,32.9-3.8,48.7-4.4c2-0.1,3.8-0.1,5.4-0.1c13.4,0,18.7,2.3,35.9,5.5c14.4,2.7,35.2,3.8,58.2,3.8
					c68.1,0,156.4-9,162.1-9.9c10.2-1.6,141.1-16.8,140.8-17.5c0-0.1-0.5-0.2-1.3-0.2c-18.2,0-218.3,22-310.8,22
					c-19.6,0-34.4-1-41.6-3.4c-5.2-1.8-3.6-2-7.9-3.4c-7.8-2.5-19.3-3.5-33.1-3.5c-21.6,0-49,2.5-76.8,6.1
					c-4.9-3.7-10.9-5.8-17.1-5.8h-0.2c-7.8,0.1-15.2,3.3-20.4,9c-1.7-0.5-3.5-0.8-5.3-0.8c-3.3-16.3-17.6-28-34.2-28L261.3,608.4z"
					/>
			</g>
			<g class="st2">
				<g class="st3">
					<path class="st0" d="M249.6,449.5c-0.5,0-0.9-0.3-1.2-0.6c-0.3-0.4-0.4-0.8-0.4-1.3l15.6-160.1c0.1-0.9,0.8-1.6,1.7-1.6h0.2
						c1,0.1,1.7,0.9,1.6,1.9l-15.6,160.1c-0.1,0.9-0.8,1.6-1.7,1.6L249.6,449.5z"/>
					<path class="st1" d="M265.4,286.4h0.1c0.7,0.1,1.2,0.7,1.1,1.4L251,447.8c-0.1,0.6-0.6,1.1-1.2,1.1h-0.1
						c-0.3,0-0.6-0.2-0.8-0.5c-0.2-0.2-0.3-0.6-0.3-0.9l15.6-160.1C264.2,286.9,264.7,286.4,265.4,286.4 M265.4,285.4
						c-1.1,0-2.1,0.9-2.2,2l-15.6,160.1c-0.1,1.2,0.8,2.3,2,2.5h0.2c1.1,0,2.1-0.9,2.2-2l15.6-160.1c0.1-1.2-0.8-2.3-2-2.5
						L265.4,285.4z"/>
				</g>
				<g class="st3">
					<path class="st0" d="M248.3,449.3c-1,0-1.7-0.8-1.7-1.8l5.2-160.8c0-0.9,0.8-1.7,1.8-1.7c0.5,0,0.9,0.2,1.3,0.5
						c0.3,0.3,0.5,0.8,0.5,1.2l-5.2,160.8C250,448.6,249.3,449.3,248.3,449.3L248.3,449.3z"/>
					<path class="st1" d="M253.6,284.5v1c0.3,0,0.6,0.2,0.9,0.4c0.2,0.2,0.4,0.6,0.3,0.9l-5.2,160.8c0,0.7-0.6,1.2-1.3,1.2l0,0
						c-0.7,0-1.2-0.6-1.2-1.3l5.2-160.8c0-0.7,0.6-1.2,1.2-1.2L253.6,284.5 M253.5,284.5c-1.2,0-2.2,1-2.2,2.2L246,447.5
						c0,1.2,0.9,2.3,2.2,2.3h0.1c1.2,0,2.2-1,2.2-2.2l5.2-160.8C255.8,285.6,254.8,284.6,253.5,284.5L253.5,284.5z"/>
				</g>
				<g class="st3">
					<path class="st0" d="M249.7,449.5c-0.9,0-1.6-0.6-1.7-1.5l-27.2-158.6c-0.1-0.5,0-0.9,0.3-1.3c0.3-0.4,0.7-0.6,1.1-0.7h0.3
						c0.9,0,1.6,0.6,1.7,1.5l27.1,158.6c0.2,0.9-0.5,1.8-1.4,2L249.7,449.5z"/>
					<path class="st1" d="M222.5,287.9c0.6,0,1.1,0.4,1.2,1l27.1,158.6c0.1,0.7-0.3,1.3-1,1.4h-0.2c-0.6,0-1.1-0.4-1.2-1
						l-27.2-158.6c-0.1-0.7,0.3-1.3,1-1.5L222.5,287.9 M222.5,286.9c-0.1,0-0.2,0-0.4,0c-1.2,0.2-2,1.4-1.8,2.6l27.2,158.6
						c0.2,1.1,1.1,1.9,2.2,1.9c0.1,0,0.2,0,0.4,0c1.2-0.2,2-1.4,1.8-2.6l-27.1-158.6C224.5,287.7,223.6,286.9,222.5,286.9
						L222.5,286.9z"/>
				</g>
				<g class="st3">
					<path class="st0" d="M249.8,449.5c-0.1,0-0.2,0-0.3,0c-0.9-0.2-1.6-1.1-1.4-2l28.9-158.3c0.2-0.8,0.9-1.4,1.7-1.4h0.3
						c0.5,0.1,0.9,0.3,1.1,0.7c0.3,0.4,0.4,0.9,0.3,1.3L251.5,448C251.3,448.8,250.6,449.5,249.8,449.5z"/>
					<path class="st1" d="M278.6,288.2L278.6,288.2c0.1,0,0.1,0,0.2,0c0.3,0.1,0.6,0.2,0.8,0.5c0.2,0.3,0.3,0.6,0.2,0.9L251,447.9
						c-0.1,0.6-0.6,1-1.2,1h-0.2c-0.3-0.1-0.6-0.2-0.8-0.5c-0.2-0.3-0.3-0.6-0.2-0.9l28.8-158.3C277.5,288.6,278,288.2,278.6,288.2
						 M278.6,287.2c-1.1,0-2,0.8-2.2,1.8l-28.9,158.2c-0.2,1.2,0.6,2.4,1.8,2.6c0,0,0,0,0,0c0.1,0,0.3,0,0.4,0c1.1,0,2-0.8,2.2-1.8
						l28.8-158.3c0.2-1.2-0.6-2.4-1.8-2.6C278.9,287.2,278.7,287.2,278.6,287.2L278.6,287.2z"/>
				</g>
				<g class="st3">
					<path class="st0" d="M249.8,449.5c-0.2,0-0.4,0-0.6-0.1c-0.9-0.3-1.3-1.3-1-2.2c0,0,0,0,0,0l56.5-150.6
						c0.3-0.7,0.9-1.1,1.6-1.1c0.2,0,0.4,0,0.6,0.1c0.9,0.3,1.3,1.4,1,2.2l-56.5,150.6C251.1,449,250.5,449.5,249.8,449.5z"/>
					<path class="st1" d="M306.3,295.9L306.3,295.9c0.5,0,0.9,0.3,1.1,0.7c0.1,0.3,0.1,0.7,0,1l-56.5,150.6
						c-0.2,0.5-0.7,0.8-1.2,0.8c-0.2,0-0.3,0-0.4-0.1c-0.6-0.2-1-1-0.7-1.6l56.5-150.6C305.3,296.2,305.8,295.9,306.3,295.9
						 M306.3,294.9c-0.9,0-1.8,0.6-2.1,1.5l-56.5,150.6c-0.4,1.2,0.2,2.4,1.3,2.9c0.3,0.1,0.5,0.1,0.8,0.1c0.9,0,1.8-0.6,2.1-1.5
						l56.5-150.6c0.4-1.2-0.2-2.5-1.3-2.9C306.8,294.9,306.5,294.9,306.3,294.9L306.3,294.9z"/>
				</g>
				<g class="st3">
					<path class="st0" d="M249.7,449.5c-0.3,0-0.6-0.1-0.8-0.2c-0.8-0.5-1.2-1.5-0.7-2.4l75.6-142c0.3-0.6,0.9-0.9,1.5-0.9
						c0.3,0,0.6,0.1,0.8,0.2c0.8,0.4,1.2,1.5,0.7,2.4c0,0,0,0,0,0l-75.6,142C251,449.1,250.4,449.5,249.7,449.5z"/>
					<path class="st1" d="M325.3,304.4L325.3,304.4c0.2,0,0.4,0.1,0.6,0.1c0.3,0.2,0.5,0.4,0.6,0.7c0.1,0.3,0.1,0.7-0.1,1l-75.6,142
						c-0.2,0.4-0.7,0.7-1.1,0.7c-0.2,0-0.4-0.1-0.6-0.1c-0.6-0.3-0.8-1.1-0.5-1.7c0,0,0,0,0,0l75.6-142
						C324.4,304.7,324.8,304.4,325.3,304.4 M325.3,303.4c-0.8,0-1.6,0.5-2,1.2l-75.6,142c-0.5,1.1-0.1,2.4,0.9,3
						c0.3,0.2,0.7,0.3,1,0.3c0.8,0,1.6-0.5,2-1.2l75.6-142c0.6-1.1,0.1-2.4-0.9-3C326,303.5,325.6,303.4,325.3,303.4L325.3,303.4z"
						/>
				</g>
				<g class="st3">
					<path class="st0" d="M249.7,449.5c-0.8,0-1.5-0.5-1.7-1.3l-42.1-155.3c-0.2-0.9,0.3-1.9,1.2-2.1c0.9-0.2,1.9,0.3,2.1,1.2
						l42.1,155.3c0.1,0.4,0.1,0.9-0.2,1.3c-0.2,0.4-0.6,0.7-1.1,0.8C250,449.4,249.8,449.5,249.7,449.5z"/>
					<path class="st1" d="M207.6,291.2c0.6,0,1.1,0.4,1.2,0.9l42.1,155.3c0.1,0.3,0,0.7-0.1,1c-0.2,0.3-0.4,0.5-0.8,0.6
						c-0.1,0-0.2,0-0.3,0c-0.6,0-1.1-0.4-1.2-0.9l-42.1-155.3c-0.1-0.3,0-0.7,0.1-1c0.2-0.3,0.4-0.5,0.8-0.6
						C207.3,291.2,207.4,291.2,207.6,291.2 M207.6,290.1c-0.2,0-0.4,0-0.6,0.1c-1.2,0.3-1.9,1.6-1.6,2.8l42.1,155.3
						c0.3,1,1.2,1.7,2.2,1.6c0.2,0,0.4,0,0.6-0.1c1.2-0.3,1.9-1.6,1.6-2.8l-42.1-155.3C209.5,290.8,208.6,290.2,207.6,290.1
						L207.6,290.1z"/>
				</g>
				<g class="st3">
					<path class="st0" d="M249.8,449.5c-0.9,0-1.6-0.6-1.8-1.5c-0.1-0.5,0-0.9,0.3-1.3l93.6-130.9c0.3-0.5,0.9-0.7,1.4-0.7
						c0.4,0,0.7,0.1,1,0.3c0.8,0.6,1,1.6,0.4,2.4c0,0,0,0,0,0l-93.5,130.9C250.8,449.2,250.3,449.5,249.8,449.5z"/>
					<path class="st1" d="M343.3,315.6L343.3,315.6c0.3,0,0.5,0.1,0.7,0.2c0.6,0.4,0.7,1.2,0.3,1.7c0,0,0,0,0,0l-93.6,130.9
						c-0.2,0.3-0.6,0.5-1,0.5c-0.6,0-1.1-0.4-1.2-1c-0.1-0.3,0-0.7,0.2-0.9l93.5-130.9C342.5,315.8,342.9,315.6,343.3,315.6
						 M343.3,314.6c-0.7,0-1.4,0.3-1.8,0.9l-93.5,130.9c-0.7,1-0.5,2.4,0.5,3.1c0,0,0,0,0,0c1,0.7,2.4,0.5,3.1-0.5c0,0,0,0,0,0
						l93.6-130.9c0.7-1,0.5-2.4-0.5-3.1C344.2,314.8,343.8,314.6,343.3,314.6L343.3,314.6z"/>
				</g>
				<g class="st3">
					<path class="st0" d="M248.5,449.4c-0.6,0-1.1-0.3-1.5-0.8l-87.5-135c-0.5-0.8-0.3-1.9,0.5-2.4c0.3-0.2,0.6-0.3,0.9-0.3
						c0.6,0,1.1,0.3,1.5,0.8l87.5,135c0.3,0.4,0.3,0.9,0.2,1.3C250.1,448.8,249.4,449.4,248.5,449.4L248.5,449.4z"/>
					<path class="st1" d="M161,311.4c0.4,0,0.8,0.2,1.1,0.6l87.5,135c0.4,0.6,0.2,1.3-0.4,1.7c0,0,0,0,0,0c-0.2,0.1-0.4,0.2-0.7,0.2
						c-0.4,0-0.8-0.2-1.1-0.6l-87.4-135c-0.4-0.6-0.2-1.4,0.4-1.7c0,0,0,0,0,0C160.6,311.4,160.8,311.4,161,311.4 M161,310.4
						c-0.4,0-0.8,0.1-1.2,0.4c-1,0.7-1.3,2.1-0.7,3.1l87.5,135c0.4,0.6,1.1,1,1.9,1c0.4,0,0.9-0.1,1.2-0.4c1-0.7,1.3-2.1,0.7-3.1
						c0,0,0,0,0,0l-87.5-135C162.5,310.7,161.8,310.4,161,310.4L161,310.4z"/>
				</g>
				<g class="st3">
					<path class="st0" d="M247.4,449.2c-0.6,0-1.1-0.3-1.4-0.7l-96-129.1c-0.6-0.8-0.4-1.9,0.4-2.4c0.3-0.2,0.7-0.3,1-0.3
						c0.6,0,1.1,0.3,1.4,0.7l96,129.1c0.6,0.8,0.4,1.9-0.4,2.4C248.2,449.1,247.8,449.2,247.4,449.2z"/>
					<path class="st1" d="M151.4,317.2c0.4,0,0.8,0.2,1,0.5l96,129.1c0.4,0.6,0.3,1.3-0.3,1.8c-0.6,0.4-1.3,0.3-1.8-0.3l-96-129.1
						c-0.2-0.3-0.3-0.6-0.2-0.9C150.3,317.6,150.8,317.2,151.4,317.2 M151.4,316.2c-0.5,0-0.9,0.2-1.3,0.4c-1,0.7-1.2,2.1-0.5,3.1
						l96,129.1c0.4,0.6,1.1,0.9,1.8,0.9c0.5,0,0.9-0.2,1.3-0.4c1-0.7,1.2-2.1,0.5-3.1l-96-129.1
						C152.8,316.5,152.1,316.2,151.4,316.2z"/>
				</g>
				<g class="st3">
					<path class="st0" d="M248.5,449.4c-0.6,0-1.2-0.4-1.5-0.9l-76-141.8c-0.5-0.9-0.1-1.9,0.7-2.4c0.9-0.5,1.9-0.1,2.4,0.7
						l76,141.8c0.5,0.8,0.1,1.9-0.7,2.4C249.1,449.3,248.8,449.4,248.5,449.4z"/>
					<path class="st1" d="M172.6,304.5c0.5,0,0.9,0.2,1.1,0.7l76,141.8c0.2,0.3,0.2,0.6,0.1,1c-0.2,0.7-0.9,1-1.6,0.8
						c-0.3-0.1-0.6-0.3-0.7-0.6l-76-141.8c-0.3-0.6-0.1-1.4,0.5-1.7c0,0,0,0,0,0C172.1,304.6,172.3,304.5,172.6,304.5 M172.5,303.6
						c-0.4,0-0.7,0.1-1.1,0.3c-1.1,0.6-1.5,1.9-0.9,3l76,141.8c0.4,0.7,1.2,1.2,2,1.2c0.4,0,0.7-0.1,1.1-0.3c1.1-0.6,1.5-1.9,0.9-3
						l-76-141.8C174.1,304,173.4,303.5,172.5,303.6L172.5,303.6z"/>
				</g>
				<g class="st3">
					<path class="st0" d="M248.5,449.4c-0.8,0-1.4-0.5-1.7-1.2l-49.6-153c-0.1-0.4-0.1-0.9,0.1-1.3c0.2-0.4,0.6-0.7,1-0.9
						c0.2-0.1,0.4-0.1,0.5-0.1c0.8,0,1.4,0.5,1.7,1.2l49.6,153c0.3,0.9-0.2,1.9-1.1,2.2C248.9,449.3,248.7,449.4,248.5,449.4z"/>
					<path class="st1" d="M199,293.3c0.5,0,1,0.3,1.2,0.9l49.6,153c0.1,0.3,0.1,0.7-0.1,1c-0.2,0.3-0.4,0.5-0.7,0.6
						c-0.1,0-0.3,0.1-0.4,0.1c-0.5,0-1-0.3-1.2-0.9l-49.6-153c-0.2-0.7,0.2-1.4,0.8-1.6C198.7,293.4,198.9,293.4,199,293.3
						 M199,292.4c-0.2,0-0.5,0-0.7,0.1c-1.2,0.4-1.8,1.7-1.4,2.8l49.6,153c0.3,0.9,1.2,1.6,2.1,1.5c0.2,0,0.5,0,0.7-0.1
						c1.2-0.4,1.8-1.6,1.4-2.8l-49.6-153C200.8,293,200,292.4,199,292.4L199,292.4z"/>
				</g>
				<g class="st3">
					<path class="st0" d="M248.5,449.4c-0.9,0-1.7-0.7-1.7-1.7L238.5,287c0-0.5,0.1-0.9,0.4-1.3c0.3-0.3,0.7-0.5,1.2-0.6l0,0
						c1,0,1.8,0.7,1.8,1.6l8.3,160.7c0.1,1-0.7,1.8-1.6,1.8c0,0,0,0,0,0L248.5,449.4z"/>
					<path class="st1" d="M240.3,285.7c0.7,0,1.2,0.5,1.2,1.2l8.3,160.6c0,0.7-0.5,1.3-1.2,1.3c0,0,0,0,0,0h-0.1
						c-0.7,0-1.2-0.5-1.2-1.2L239,287C239,286.3,239.5,285.7,240.3,285.7C240.2,285.7,240.2,285.7,240.3,285.7L240.3,285.7
						 M240.2,284.7h-0.1c-1.2,0.1-2.2,1.1-2.1,2.4l8.3,160.6c0.1,1.2,1,2.1,2.2,2.1h0.1c1.2-0.1,2.2-1.1,2.1-2.4c0,0,0,0,0,0
						l-8.3-160.6C242.4,285.6,241.5,284.7,240.2,284.7L240.2,284.7z"/>
				</g>
				<g class="st3">
					<path class="st0" d="M248.1,449.3c-0.2,0-0.4,0-0.5-0.1c-0.4-0.2-0.8-0.5-1-0.9c-0.2-0.4-0.2-0.9-0.1-1.3l49.2-153.1
						c0.2-0.7,0.9-1.2,1.7-1.2c0.2,0,0.4,0,0.5,0.1c0.4,0.1,0.8,0.5,1,0.9c0.2,0.4,0.2,0.9,0.1,1.3l-49.2,153.1
						C249.5,448.8,248.8,449.3,248.1,449.3z"/>
					<path class="st1" d="M297.3,293.1c0.1,0,0.3,0,0.4,0.1c0.7,0.2,1,0.9,0.8,1.6l-49.2,153.1c-0.2,0.5-0.6,0.9-1.2,0.9
						c-0.1,0-0.3,0-0.4-0.1c-0.3-0.1-0.6-0.3-0.7-0.6c-0.2-0.3-0.2-0.6-0.1-1L296.1,294C296.3,293.5,296.7,293.1,297.3,293.1
						 M297.3,292.1c-1,0-1.8,0.6-2.1,1.6l-49.2,153.2c-0.4,1.2,0.3,2.4,1.4,2.8c1.2,0.4,2.4-0.3,2.8-1.5l49.2-153.1
						c0.4-1.2-0.3-2.4-1.4-2.8c0,0,0,0,0,0l0,0C297.8,292.2,297.5,292.2,297.3,292.1L297.3,292.1z"/>
				</g>
				<g class="st3">
					<path class="st0" d="M393.7,490c-1,0-1.7-0.8-1.8-1.7c0-0.5,0.2-1,0.6-1.4l124.2-102.2c0.3-0.3,0.7-0.4,1.1-0.4
						c1,0,1.7,0.8,1.8,1.7c0,0.5-0.2,1-0.6,1.4L394.8,489.6C394.5,489.9,394.1,490,393.7,490z"/>
					<path class="st1" d="M517.9,384.8L517.9,384.8c0.4,0,0.8,0.2,1,0.5c0.2,0.3,0.3,0.6,0.3,0.9c0,0.3-0.2,0.6-0.4,0.9L394.5,489.2
						c-0.2,0.2-0.5,0.3-0.8,0.3c-0.7,0-1.3-0.5-1.3-1.2c0-0.4,0.2-0.7,0.5-1l124.2-102.2C517.4,384.9,517.6,384.8,517.9,384.8
						 M517.9,383.8c-0.5,0-1,0.2-1.4,0.5L392.3,486.5c-0.9,0.8-1,2.3-0.1,3.2c0.8,0.8,2,0.9,3,0.3l124.2-102.2
						c1-0.8,1.1-2.2,0.4-3.1C519.3,384.1,518.6,383.8,517.9,383.8L517.9,383.8z"/>
				</g>
				<g class="st3">
					<path class="st0" d="M392.8,488.9c-0.5,0-0.9-0.2-1.3-0.5c-0.6-0.7-0.6-1.8,0.1-2.5l117.4-110c0.3-0.3,0.7-0.5,1.2-0.5
						c1,0,1.7,0.8,1.7,1.8c0,0.5-0.2,0.9-0.5,1.2L394,488.4C393.7,488.7,393.2,488.9,392.8,488.9z"/>
					<path class="st1" d="M510.2,375.9L510.2,375.9c0.7,0,1.3,0.6,1.3,1.2c0,0,0,0,0,0c0,0.3-0.2,0.6-0.4,0.9l-117.4,110
						c-0.2,0.2-0.5,0.3-0.9,0.3c-0.7,0-1.3-0.6-1.3-1.2c0,0,0,0,0,0c0-0.3,0.2-0.6,0.4-0.9l117.4-110
						C509.6,376,509.9,375.9,510.2,375.9 M510.2,374.9c-0.6,0-1.1,0.2-1.5,0.6l-117.4,110c-0.9,0.8-1,2.3-0.1,3.2
						c0.4,0.5,1,0.7,1.7,0.7c0.6,0,1.1-0.2,1.5-0.6l117.4-110c0.9-0.8,1-2.3,0.1-3.2C511.4,375.2,510.8,374.9,510.2,374.9z"/>
				</g>
				<g class="st3">
					<path class="st0" d="M393.6,489.9c-0.4,0-0.7-0.1-1-0.3c-0.8-0.5-1-1.6-0.4-2.4c0,0,0,0,0,0l92.9-131.3
						c0.3-0.5,0.9-0.7,1.4-0.7c0.4,0,0.7,0.1,1,0.3c0.8,0.6,1,1.6,0.4,2.4c0,0,0,0,0,0L395,489.2
						C394.7,489.7,394.2,489.9,393.6,489.9z"/>
					<path class="st1" d="M486.5,355.6L486.5,355.6c0.3,0,0.5,0.1,0.7,0.2c0.6,0.4,0.7,1.2,0.3,1.8l-92.9,131.3
						c-0.2,0.3-0.6,0.5-1,0.5c-0.3,0-0.5-0.1-0.7-0.2c-0.3-0.2-0.5-0.5-0.5-0.8c-0.1-0.3,0-0.7,0.2-0.9l92.9-131.3
						C485.8,355.8,486.1,355.6,486.5,355.6 M486.5,354.6c-0.7,0-1.4,0.4-1.8,1l-92.9,131.3c-0.7,1-0.5,2.4,0.5,3.1
						c0.4,0.3,0.8,0.4,1.3,0.4c0.7,0,1.4-0.3,1.8-0.9l92.9-131.3c0.7-1,0.5-2.4-0.5-3.1C487.5,354.8,487,354.6,486.5,354.6
						L486.5,354.6z"/>
				</g>
				<g class="st3">
					<path class="st0" d="M393.7,490c-1,0-1.7-0.8-1.7-1.8c0-0.6,0.3-1.1,0.7-1.4L525,395.3c0.3-0.2,0.6-0.3,1-0.3
						c0.6,0,1.1,0.3,1.4,0.8c0.3,0.4,0.4,0.8,0.3,1.3c-0.1,0.5-0.3,0.9-0.7,1.1l-132.3,91.5C394.4,489.9,394,490,393.7,490z"/>
					<path class="st1" d="M526,395.5L526,395.5c0.7,0,1.3,0.5,1.3,1.2c0,0.4-0.2,0.8-0.5,1l-132.3,91.5c-0.2,0.1-0.5,0.2-0.7,0.2
						c-0.7,0-1.3-0.6-1.2-1.3c0-0.4,0.2-0.8,0.5-1l132.3-91.5C525.5,395.6,525.7,395.5,526,395.5 M526,394.5c-0.5,0-0.9,0.1-1.3,0.4
						l-132.3,91.5c-1,0.7-1.3,2.1-0.6,3.1c0.4,0.6,1.1,1,1.9,1c0.5,0,0.9-0.1,1.3-0.4l132.3-91.5c1-0.7,1.3-2.1,0.6-3.1
						C527.4,394.9,526.7,394.5,526,394.5L526,394.5z"/>
				</g>
				<g class="st3">
					<path class="st0" d="M393.7,490c-1,0-1.8-0.8-1.8-1.7c0-0.7,0.4-1.3,1-1.6l146.5-66.5c0.2-0.1,0.5-0.2,0.7-0.1
						c1,0,1.8,0.8,1.8,1.7c0,0.7-0.4,1.3-1,1.6l-146.5,66.5C394.2,489.9,393.9,490,393.7,490z"/>
					<path class="st1" d="M540.1,420.5c0.5,0,0.9,0.3,1.2,0.7c0.1,0.3,0.1,0.7,0,1c-0.1,0.3-0.3,0.6-0.7,0.7l-146.4,66.5
						c-0.6,0.3-1.4,0-1.6-0.6c-0.3-0.6,0-1.4,0.6-1.6l146.5-66.5C539.8,420.5,540,420.5,540.1,420.5 M540.1,419.5
						c-0.3,0-0.6,0.1-0.9,0.2l-146.5,66.5c-1.1,0.5-1.6,1.8-1.1,3c0.4,0.8,1.2,1.3,2.1,1.3c0.3,0,0.6-0.1,0.9-0.2l146.5-66.5
						c1.1-0.5,1.6-1.8,1.1-3C541.8,420,541,419.5,540.1,419.5L540.1,419.5z"/>
				</g>
				<g class="st3">
					<path class="st0" d="M393.7,490c-1,0-1.8-0.7-1.8-1.7c0-0.8,0.5-1.5,1.3-1.7l153.9-47c0.2,0,0.3-0.1,0.5-0.1
						c0.8,0,1.4,0.5,1.7,1.2c0.1,0.4,0.1,0.9-0.1,1.3c-0.2,0.4-0.6,0.7-1,0.9l-153.9,47C394,490,393.9,490,393.7,490z"/>
					<path class="st1" d="M547.5,440c0.6,0,1,0.4,1.2,0.9c0.1,0.3,0.1,0.7-0.1,1c-0.1,0.3-0.4,0.5-0.7,0.6l-153.9,47
						c-0.1,0-0.2,0.1-0.4,0.1c-0.6,0-1-0.4-1.2-0.9c-0.2-0.7,0.2-1.4,0.8-1.6l153.8-47C547.3,440,547.4,440,547.5,440 M547.5,439
						c-0.2,0-0.4,0-0.7,0.1l-153.9,47c-1.2,0.3-1.9,1.6-1.5,2.8c0.3,1,1.2,1.6,2.2,1.6c0.2,0,0.4,0,0.6-0.1l153.9-47
						c1.2-0.3,1.9-1.6,1.5-2.8C549.4,439.7,548.5,439,547.5,439L547.5,439z"/>
				</g>
				<g class="st3">
					<path class="st0" d="M393.6,489.9c-0.3,0-0.6-0.1-0.9-0.2c-0.8-0.5-1.1-1.6-0.6-2.4l80-139.6c0.3-0.5,0.9-0.9,1.5-0.9
						c0.8,0,1.5,0.5,1.7,1.3c0.1,0.4,0.1,0.9-0.2,1.3l-80,139.5C394.8,489.6,394.2,489.9,393.6,489.9z"/>
					<path class="st1" d="M473.6,347.4L473.6,347.4c0.2,0,0.4,0.1,0.6,0.2c0.3,0.2,0.5,0.4,0.6,0.8c0.1,0.3,0,0.7-0.1,1l-80,139.6
						c-0.2,0.4-0.6,0.6-1.1,0.6c-0.2,0-0.4-0.1-0.6-0.2c-0.6-0.3-0.8-1.1-0.5-1.7c0,0,0,0,0,0l80-139.6
						C472.8,347.6,473.2,347.4,473.6,347.4 M473.6,346.4c-0.8,0-1.5,0.4-2,1.1l-80,139.6c-0.6,1.1-0.2,2.4,0.8,3.1c0,0,0,0,0,0
						c1.1,0.6,2.4,0.2,3.1-0.8l80-139.6c0.6-1.1,0.2-2.4-0.8-3.1C474.4,346.5,474,346.4,473.6,346.4z"/>
				</g>
				<g class="st3">
					<path class="st0" d="M393.7,490c-1,0-1.7-0.8-1.7-1.8c0-0.8,0.6-1.5,1.4-1.7l158.7-26.4h0.3c1,0,1.7,0.8,1.7,1.8
						c0,0.8-0.6,1.5-1.4,1.7L394,490C393.9,490,393.8,490,393.7,490z"/>
					<path class="st1" d="M552.4,460.6c0.6,0,1.1,0.4,1.2,1c0.1,0.7-0.3,1.3-1,1.4l-158.7,26.4h-0.2c-0.6,0-1.1-0.4-1.2-1
						c-0.1-0.3,0-0.7,0.2-0.9c0.2-0.3,0.5-0.5,0.8-0.5l158.7-26.4H552.4 M552.4,459.6c-0.1,0-0.2,0-0.4,0L393.3,486
						c-1.2,0.2-2,1.4-1.8,2.6c0.2,1,1.1,1.8,2.2,1.8c0.1,0,0.2,0,0.4,0l158.7-26.4c1.2-0.2,2.1-1.3,1.9-2.5
						C554.5,460.4,553.5,459.6,552.4,459.6L552.4,459.6z"/>
				</g>
				<g class="st3">
					<path class="st0" d="M392.9,489.1c-0.1,0-0.2,0-0.4,0c-0.9-0.2-1.5-1.1-1.3-2.1l33.6-157.3c0.2-0.8,0.9-1.4,1.7-1.4
						c0.1,0,0.2,0,0.4,0c0.5,0.1,0.8,0.4,1.1,0.8c0.3,0.4,0.3,0.9,0.2,1.3l-33.6,157.3C394.4,488.5,393.7,489.1,392.9,489.1z"/>
					<path class="st1" d="M426.5,328.7c0.1,0,0.2,0,0.3,0c0.3,0.1,0.6,0.3,0.8,0.5c0.2,0.3,0.2,0.6,0.2,0.9l-33.6,157.4
						c-0.1,0.6-0.6,1-1.2,1h-0.3c-0.7-0.1-1.1-0.8-1-1.5l33.6-157.3C425.4,329.2,425.9,328.8,426.5,328.7 M426.4,327.8
						c-1.1,0-2,0.7-2.2,1.8l-33.5,157.3c-0.3,1.2,0.5,2.4,1.7,2.7c0.2,0,0.3,0,0.5,0c1.1,0,2-0.7,2.2-1.8l33.6-157.3
						c0.3-1.2-0.5-2.4-1.7-2.7C426.8,327.8,426.7,327.7,426.4,327.8L426.4,327.8z"/>
				</g>
				<g class="st3">
					<path class="st0" d="M392.2,488.2h-0.3c-1-0.1-1.6-1-1.5-2L413.8,327c0.1-0.9,0.9-1.5,1.7-1.5h0.3c1,0.1,1.6,1,1.5,2
						l-23.4,159.2C393.8,487.6,393.1,488.2,392.2,488.2z"/>
					<path class="st1" d="M415.6,326h0.2c0.7,0.1,1.2,0.7,1.1,1.4c0,0,0,0,0,0l-23.4,159.2c-0.1,0.6-0.6,1.1-1.2,1.1H392
						c-0.7-0.1-1.2-0.7-1.1-1.4c0,0,0,0,0,0l23.4-159.2C414.4,326.5,414.9,326.1,415.6,326 M415.6,325c-1.1,0-2.1,0.8-2.2,1.9
						L390,486.1c-0.2,1.2,0.7,2.4,1.9,2.5h0.3c1.1,0,2.1-0.8,2.2-1.9l23.4-159.2c0.2-1.2-0.7-2.4-1.9-2.5
						C415.8,325,415.7,325,415.6,325L415.6,325z"/>
				</g>
				<g class="st3">
					<path class="st0" d="M392.9,489.1c-0.2,0-0.3,0-0.5-0.1c-0.9-0.3-1.4-1.3-1.2-2.2l46.5-154c0.2-0.7,0.9-1.2,1.7-1.2
						c0.2,0,0.3,0,0.5,0.1c0.9,0.3,1.4,1.3,1.2,2.2l-46.5,154C394.4,488.6,393.7,489.1,392.9,489.1z"/>
					<path class="st1" d="M439.5,332.1L439.5,332.1c0.1,0,0.2,0,0.4,0.1c0.7,0.2,1,0.9,0.8,1.6l-46.5,154c-0.2,0.5-0.6,0.9-1.2,0.9
						c-0.1,0-0.2,0-0.4,0c-0.3-0.1-0.6-0.3-0.7-0.6c-0.2-0.3-0.2-0.6-0.1-1l46.5-154C438.4,332.4,438.9,332.1,439.5,332.1
						 M439.5,331.1c-1,0-1.9,0.6-2.2,1.6l-46.5,154c-0.4,1.2,0.3,2.4,1.5,2.8c0.2,0.1,0.4,0.1,0.6,0.1c1,0,1.9-0.6,2.1-1.6l46.6-154
						c0.4-1.2-0.3-2.4-1.5-2.8C439.9,331.1,439.7,331.1,439.5,331.1L439.5,331.1z"/>
				</g>
				<g class="st3">
					<path class="st0" d="M392.9,489.1c-0.3,0-0.5-0.1-0.8-0.2c-0.9-0.4-1.2-1.5-0.8-2.4l73.2-143.3c0.5-0.8,1.6-1.1,2.4-0.6
						c0.8,0.4,1.1,1.4,0.7,2.2l-73.2,143.3C394.2,488.7,393.6,489.1,392.9,489.1z"/>
					<path class="st1" d="M466.1,342.8L466.1,342.8c0.2,0,0.4,0,0.6,0.1c0.6,0.3,0.9,1.1,0.5,1.7c0,0,0,0,0,0L394,487.9
						c-0.2,0.4-0.6,0.7-1.1,0.7c-0.2,0-0.4,0-0.6-0.1c-0.3-0.1-0.5-0.4-0.6-0.7c-0.1-0.3-0.1-0.7,0.1-1L465,343.5
						C465.2,343.1,465.6,342.8,466.1,342.8 M466.1,341.8c-0.8,0-1.6,0.5-2,1.2l-73.2,143.3c-0.5,1.1-0.1,2.4,1,3
						c0.3,0.2,0.7,0.2,1,0.2c0.8,0,1.6-0.5,2-1.2L468.1,345c0.5-1.1,0.1-2.4-1-3C466.8,341.9,466.4,341.8,466.1,341.8L466.1,341.8z"
						/>
				</g>
				<g class="st3">
					<path class="st0" d="M392.9,489.1c-0.4,0-0.8-0.2-1.2-0.5c-0.7-0.6-0.8-1.8-0.1-2.5l107.8-119.4c0.6-0.7,1.8-0.8,2.5-0.1
						c0.7,0.6,0.8,1.7,0.2,2.4L394.2,488.5C393.9,488.8,393.4,489.1,392.9,489.1z"/>
					<path class="st1" d="M500.7,366.6c0.3,0,0.6,0.1,0.8,0.3c0.5,0.5,0.6,1.2,0.1,1.8c0,0,0,0,0,0L393.8,488.1
						c-0.2,0.3-0.6,0.4-0.9,0.4c-0.3,0-0.6-0.1-0.8-0.3c-0.5-0.5-0.6-1.3-0.1-1.8L499.7,367C500,366.7,500.3,366.6,500.7,366.6
						 M500.7,365.6c-0.6,0-1.2,0.3-1.7,0.7L391.2,485.8c-0.8,0.9-0.7,2.3,0.2,3.2c0.9,0.8,2.3,0.7,3.2-0.2l107.8-119.5
						c0.8-0.9,0.8-2.3-0.1-3.2C501.8,365.8,501.2,365.6,500.7,365.6L500.7,365.6z"/>
				</g>
				<g class="st3">
					<path class="st0" d="M392.6,488.7c-0.7,0-1.3-0.4-1.6-0.9c-0.4-0.9-0.1-1.9,0.8-2.4l143.1-73.5c0.2-0.1,0.5-0.2,0.8-0.2
						c1,0,1.7,0.8,1.7,1.8c0,0.6-0.4,1.2-0.9,1.5l-143.1,73.5C393.2,488.6,392.9,488.7,392.6,488.7z"/>
					<path class="st1" d="M535.7,412.2c0.7,0,1.3,0.6,1.3,1.2c0,0.1,0,0.3-0.1,0.4c-0.1,0.3-0.3,0.6-0.6,0.7L393.2,488
						c-0.2,0.1-0.4,0.1-0.6,0.1c-0.7,0-1.3-0.6-1.3-1.2c0-0.5,0.3-0.9,0.7-1.1l143.1-73.5C535.3,412.3,535.5,412.2,535.7,412.2
						 M535.7,411.2c-0.3,0-0.7,0.1-1,0.2l-143.1,73.5c-1.1,0.6-1.5,1.9-1,3l0,0c0.6,1.1,1.9,1.5,3,1l143.1-73.5c1.1-0.6,1.5-1.9,1-3
						C537.3,411.7,536.5,411.2,535.7,411.2L535.7,411.2z"/>
				</g>
				<g class="st3">
					<path class="st0" d="M365,512.5c-0.7,0-1.3-0.4-1.6-0.9l-74.1-142.8c-0.4-0.9-0.1-1.9,0.7-2.4c0.2-0.1,0.5-0.2,0.8-0.2
						c0.7,0,1.3,0.4,1.6,0.9l74.1,142.8c0.4,0.9,0.1,1.9-0.7,2.4C365.6,512.4,365.3,512.5,365,512.5z"/>
					<path class="st1" d="M291,366.7c0.5,0,0.9,0.3,1.1,0.7l74.1,142.8c0.3,0.6,0.1,1.4-0.5,1.7s-1.4,0.1-1.7-0.5l-74.1-142.8
						c-0.2-0.3-0.2-0.6-0.1-1C290,367,290.5,366.7,291,366.7 M291,365.7c-1.2,0-2.2,1-2.3,2.2c0,0.4,0.1,0.7,0.3,1.1l74.1,142.8
						c0.4,0.7,1.2,1.2,2,1.2c0.3,0,0.7-0.1,1-0.2c1.1-0.6,1.5-1.9,1-3L293,366.9C292.6,366.2,291.8,365.7,291,365.7L291,365.7z"/>
				</g>
				<g class="st3">
					<path class="st0" d="M365,512.5c-0.7,0-1.3-0.4-1.6-1.1L301.5,363c-0.4-0.9,0-1.9,0.9-2.3c0,0,0,0,0,0c0.2-0.1,0.4-0.1,0.7-0.1
						c0.7,0,1.3,0.4,1.6,1.1l61.9,148.5c0.4,0.9-0.1,1.9-0.9,2.3C365.5,512.5,365.3,512.5,365,512.5z"/>
					<path class="st1" d="M303.1,361c0.5,0,1,0.3,1.2,0.8l61.9,148.5c0.1,0.3,0.1,0.7,0,1c-0.1,0.3-0.4,0.6-0.7,0.7
						c-0.1,0.1-0.3,0.1-0.5,0.1c-0.5,0-1-0.3-1.2-0.8L302,362.8c-0.1-0.3-0.1-0.6,0-1c0.1-0.3,0.4-0.6,0.7-0.7
						C302.8,361.1,303,361,303.1,361 M303.2,360c-0.3,0-0.6,0.1-0.9,0.2c-1.1,0.5-1.7,1.8-1.2,2.9L363,511.6
						c0.4,0.8,1.2,1.4,2.1,1.4c0.3,0,0.6-0.1,0.9-0.2c1.1-0.5,1.7-1.8,1.2-2.9l-62-148.5C304.8,360.6,304,360,303.2,360L303.2,360z"
						/>
				</g>
				<g class="st3">
					<path class="st0" d="M365,512.5c-0.8,0-1.5-0.6-1.7-1.4L328.8,354c-0.2-0.9,0.4-1.9,1.3-2.1c0.1,0,0.2,0,0.4,0
						c0.8,0,1.5,0.6,1.7,1.4l34.6,157.1c0.1,0.5,0,0.9-0.2,1.3c-0.2,0.4-0.6,0.7-1.1,0.8C365.3,512.5,365.1,512.5,365,512.5z"/>
					<path class="st1" d="M330.5,352.4c0.6,0,1.1,0.4,1.2,1l34.6,157.1c0.1,0.7-0.3,1.3-1,1.5H365c-0.6,0-1.1-0.4-1.2-1l-34.6-157.1
						c-0.1-0.3,0-0.7,0.2-1C329.7,352.6,330,352.3,330.5,352.4 M330.5,351.3c-0.2,0-0.3,0-0.5,0.1c-1.2,0.3-2,1.5-1.7,2.7
						l34.6,157.1c0.2,1,1.1,1.8,2.1,1.8c0.2,0,0.3,0,0.5,0c1.2-0.3,2-1.5,1.7-2.7c0,0,0,0,0,0l-34.5-157.2
						C332.4,352.1,331.5,351.4,330.5,351.3L330.5,351.3z"/>
				</g>
				<g class="st3">
					<path class="st0" d="M365,512.5c-0.9,0-1.7-0.7-1.7-1.6l-13.9-160.3c0-0.5,0.1-0.9,0.4-1.3c0.3-0.4,0.7-0.6,1.2-0.6h0.1
						c0.9,0,1.7,0.7,1.7,1.6l13.9,160.3c0.1,1-0.6,1.8-1.6,1.9L365,512.5z"/>
					<path class="st1" d="M351.1,349.2c0.6,0,1.2,0.5,1.2,1.1l13.9,160.3c0.1,0.7-0.5,1.3-1.1,1.4H365c-0.6,0-1.2-0.5-1.2-1.1
						l-13.9-160.3c-0.1-0.7,0.4-1.3,1.1-1.4L351.1,349.2 M351.1,348.2h-0.2c-1.2,0.1-2.1,1.2-2,2.4l13.9,160.3c0.1,1.1,1,2,2.2,2.1
						h0.2c1.2-0.1,2.1-1.2,2-2.4l-13.8-160.3C353.2,349.1,352.3,348.2,351.1,348.2L351.1,348.2z"/>
				</g>
				<g class="st3">
					<path class="st0" d="M365,512.5c-1,0-1.7-0.9-1.7-1.8l7.2-160.7c0-0.9,0.8-1.7,1.7-1.7c1,0,1.8,0.8,1.8,1.8c0,0,0,0,0,0
						l-7.3,160.7C366.7,511.8,365.9,512.5,365,512.5z"/>
					<path class="st1" d="M372.3,348.8L372.3,348.8c0.7,0,1.3,0.6,1.2,1.3l-7.3,160.7c0,0.7-0.6,1.2-1.3,1.2l0,0
						c-0.3,0-0.6-0.2-0.9-0.4c-0.2-0.2-0.3-0.6-0.3-0.9L371,350C371.1,349.3,371.6,348.8,372.3,348.8 M372.3,347.8
						c-1.2,0-2.2,0.9-2.2,2.1l-7.3,160.7c-0.1,1.2,0.9,2.3,2.1,2.3c0,0,0,0,0,0h0.1c1.2,0,2.2-0.9,2.2-2.1l7.3-160.7
						c0.1-1.2-0.9-2.3-2.1-2.4L372.3,347.8z"/>
				</g>
				<g class="st3">
					<path class="st0" d="M363.5,513.3c-0.8,0-1.5-0.5-1.7-1.3l-42.1-155.3c-0.1-0.4-0.1-0.9,0.2-1.3c0.2-0.4,0.6-0.7,1.1-0.8
						c0.9-0.2,1.9,0.3,2.1,1.2l42.1,155.3c0.1,0.4,0.1,0.9-0.2,1.3c-0.2,0.4-0.6,0.7-1.1,0.8C363.8,513.3,363.7,513.3,363.5,513.3z"
						/>
					<path class="st1" d="M321.5,355c0.6,0,1.1,0.4,1.2,0.9l42.1,155.3c0.2,0.7-0.2,1.3-0.9,1.5c-0.1,0-0.2,0-0.3,0
						c-0.6,0-1.1-0.4-1.2-0.9l-42.1-155.2c-0.2-0.7,0.2-1.4,0.9-1.5c0,0,0,0,0,0C321.2,355,321.4,355,321.5,355 M321.5,354
						c-0.2,0-0.4,0-0.6,0.1c-1.2,0.3-1.9,1.6-1.6,2.8l42.1,155.3c0.3,1,1.2,1.7,2.2,1.7c0.2,0,0.4,0,0.6-0.1l0,0
						c1.2-0.3,1.9-1.6,1.6-2.8l-42.1-155.3C323.4,354.7,322.5,354,321.5,354L321.5,354z"/>
				</g>
				<g class="st3">
					<path class="st0" d="M78.5,656.7c-0.1,0-0.3,0-0.4-0.1c-0.9-0.2-1.5-1.2-1.2-2.1L118,499c0.3-0.9,1.3-1.4,2.2-1.2
						c0.9,0.3,1.4,1.2,1.2,2.1L80.2,655.4C80,656.2,79.3,656.7,78.5,656.7z"/>
					<path class="st1" d="M119.7,498.2c0.1,0,0.2,0,0.3,0c0.3,0.1,0.6,0.3,0.8,0.6c0.2,0.3,0.2,0.6,0.1,1L79.7,655.3
						c-0.1,0.6-0.6,0.9-1.2,0.9c-0.1,0-0.2,0-0.3,0c-0.7-0.2-1.1-0.9-0.9-1.5l41.2-155.5C118.6,498.6,119.1,498.2,119.7,498.2
						 M119.7,497.2c-1,0-1.9,0.7-2.2,1.7L76.3,654.4c-0.3,1.2,0.4,2.4,1.6,2.8c0.2,0,0.4,0.1,0.6,0.1c1,0,1.9-0.7,2.2-1.7L121.8,500
						c0.3-1.2-0.4-2.4-1.6-2.7C120,497.2,119.9,497.2,119.7,497.2L119.7,497.2z"/>
				</g>
				<g class="st3">
					<path class="st0" d="M77.1,656.3c-0.1,0-0.2,0-0.3,0c-0.9-0.2-1.5-1.1-1.4-2l31.1-157.8c0.2-0.8,0.9-1.4,1.7-1.4
						c0.1,0,0.2,0,0.3,0c0.9,0.2,1.6,1.1,1.4,2L78.8,654.9C78.7,655.7,77.9,656.3,77.1,656.3z"/>
					<path class="st1" d="M108.2,495.5L108.2,495.5h0.2c0.7,0.1,1.1,0.8,1,1.5L78.3,654.8c-0.1,0.6-0.6,1-1.2,1c-0.1,0-0.2,0-0.2,0
						c-0.7-0.1-1.1-0.8-1-1.5l31.1-157.9C107.1,495.9,107.6,495.5,108.2,495.5 M108.2,494.5c-1.1,0-2,0.8-2.2,1.8L74.9,654.2
						c-0.2,1.2,0.6,2.4,1.8,2.6c0,0,0,0,0,0c0.1,0,0.3,0,0.4,0c1.1,0,2-0.8,2.2-1.8l31.1-157.8c0.2-1.2-0.5-2.4-1.8-2.6
						C108.5,494.5,108.3,494.5,108.2,494.5L108.2,494.5z"/>
				</g>
				<g class="st3">
					<path class="st0" d="M78.4,656.7c-1,0-1.7-0.8-1.8-1.7l-1.3-160.9c0-0.5,0.2-0.9,0.5-1.2c0.7-0.7,1.8-0.7,2.5-0.1
						c0.3,0.3,0.5,0.8,0.5,1.3l1.3,160.9C80.2,655.9,79.4,656.7,78.4,656.7L78.4,656.7z"/>
					<path class="st1" d="M77.1,491.8v1c0.7,0,1.2,0.6,1.2,1.2l1.3,160.9c0,0.3-0.1,0.7-0.4,0.9c-0.5,0.5-1.3,0.5-1.8,0
						c-0.2-0.2-0.4-0.6-0.4-0.9l-1.3-160.9c0-0.3,0.1-0.7,0.4-0.9c0.2-0.2,0.5-0.4,0.9-0.4L77.1,491.8 M77.1,491.8L77.1,491.8
						c-1.2,0-2.2,1-2.2,2.2c0,0,0,0,0,0l1.3,160.9c0,1.2,1,2.2,2.2,2.2l0,0c1.2,0,2.2-1,2.2-2.3L79.4,494
						C79.4,492.8,78.4,491.8,77.1,491.8L77.1,491.8z"/>
				</g>
				<g class="st3">
					<path class="st0" d="M78.5,656.7c-0.2,0-0.4,0-0.6-0.1c-0.4-0.1-0.8-0.5-1-0.9c-0.2-0.4-0.2-0.9-0.1-1.3l54-151.5
						c0.2-0.7,0.9-1.2,1.6-1.2c0.2,0,0.4,0,0.6,0.1c0.4,0.2,0.8,0.5,1,0.9c0.2,0.4,0.2,0.9,0.1,1.3l-54,151.5
						C79.9,656.2,79.2,656.7,78.5,656.7z"/>
					<path class="st1" d="M132.4,502.1L132.4,502.1c0.1,0,0.3,0,0.4,0.1c0.6,0.2,1,0.9,0.8,1.6l-54,151.5c-0.2,0.5-0.7,0.8-1.2,0.8
						c-0.1,0-0.3,0-0.4-0.1c-0.6-0.2-1-0.9-0.8-1.6l54-151.5C131.4,502.5,131.9,502.1,132.4,502.1 M132.4,501.2
						c-1,0-1.8,0.6-2.1,1.5l-54,151.6c-0.4,1.2,0.2,2.4,1.4,2.9c0.2,0.1,0.5,0.1,0.8,0.1c1,0,1.8-0.6,2.1-1.5l54-151.5
						c0.4-1.2-0.2-2.4-1.4-2.9c0,0,0,0,0,0C133,501.2,132.7,501.1,132.4,501.2L132.4,501.2z"/>
				</g>
				<g class="st3">
					<path class="st0" d="M78.5,656.7c-0.3,0-0.6-0.1-0.9-0.2c-0.8-0.5-1.1-1.5-0.6-2.4c0,0,0,0,0,0l80-139.5
						c0.3-0.5,0.9-0.9,1.5-0.9c0.3,0,0.6,0.1,0.9,0.2c0.8,0.5,1.1,1.5,0.6,2.4L80,655.8C79.7,656.4,79.1,656.7,78.5,656.7z"/>
					<path class="st1" d="M158.5,514.2L158.5,514.2c0.6,0,1,0.4,1.2,0.9c0.1,0.3,0,0.7-0.1,1l-80,139.5c-0.2,0.4-0.6,0.6-1.1,0.6
						c-0.6,0-1-0.4-1.2-0.9c-0.1-0.3,0-0.7,0.1-1l80-139.5C157.7,514.4,158.1,514.1,158.5,514.2 M158.5,513.2c-0.8,0-1.6,0.4-2,1.1
						l-80,139.5c-0.6,1.1-0.2,2.4,0.8,3.1s2.4,0.2,3.1-0.8l80-139.5c0.6-1.1,0.2-2.4-0.8-3.1c0,0,0,0,0,0
						C159.2,513.3,158.9,513.1,158.5,513.2L158.5,513.2z"/>
				</g>
				<g class="st3">
					<path class="st0" d="M78.5,656.7c-1,0-1.7-0.8-1.8-1.7c0-0.4,0.1-0.8,0.4-1.1l97.4-128c0.3-0.4,0.9-0.7,1.4-0.7
						c0.4,0,0.7,0.1,1.1,0.3c0.8,0.6,0.9,1.7,0.3,2.5L79.9,656C79.5,656.4,79,656.7,78.5,656.7z"/>
					<path class="st1" d="M175.9,525.7L175.9,525.7c0.6,0,1.1,0.5,1.2,1.1c0.1,0.3,0,0.7-0.2,0.9l-97.4,128c-0.2,0.3-0.6,0.5-1,0.5
						c-0.3,0-0.5-0.1-0.8-0.3c-0.3-0.2-0.4-0.5-0.5-0.8c0-0.3,0-0.7,0.2-0.9l97.4-128C175.2,525.9,175.5,525.7,175.9,525.7
						 M175.9,524.7c-0.7,0-1.4,0.3-1.8,0.9l-97.4,128c-0.8,1-0.6,2.4,0.4,3.1c1,0.8,2.4,0.6,3.1-0.4l97.4-128c0.7-1,0.6-2.4-0.4-3.1
						c0,0,0,0,0,0C176.9,524.9,176.4,524.7,175.9,524.7L175.9,524.7z"/>
				</g>
				<g class="st3">
					<path class="st0" d="M78.4,656.7c-0.9,0-1.6-0.7-1.7-1.6l-16.5-160c-0.1-1,0.6-1.8,1.6-1.9h0.2c0.9,0,1.6,0.7,1.7,1.6l16.5,160
						c0.1,0.5-0.1,0.9-0.4,1.3c-0.3,0.4-0.7,0.6-1.2,0.6L78.4,656.7z"/>
					<path class="st1" d="M61.8,493.7c0.6,0,1.2,0.5,1.2,1.1l16.5,160c0,0.3-0.1,0.7-0.3,0.9c-0.2,0.3-0.5,0.4-0.8,0.5h-0.1
						c-0.6,0-1.2-0.5-1.2-1.1L60.6,495c0-0.3,0.1-0.7,0.3-0.9c0.2-0.3,0.5-0.4,0.8-0.5L61.8,493.7 M61.8,492.6h-0.2
						c-1.2,0.1-2.1,1.2-2,2.5c0,0,0,0,0,0l16.6,160c0.1,1.1,1.1,2,2.2,2h0.2c1.2-0.1,2.1-1.2,2-2.5l-16.6-160
						C63.9,493.5,63,492.6,61.8,492.6L61.8,492.6z"/>
				</g>
				<g class="st3">
					<path class="st0" d="M78.5,656.7c-0.9,0-1.7-0.7-1.7-1.7c0-0.5,0.2-0.9,0.5-1.2l113.4-114.1c0.3-0.3,0.8-0.5,1.2-0.5
						c0.5,0,0.9,0.2,1.2,0.5c0.7,0.7,0.7,1.8,0,2.5L79.7,656.2C79.4,656.5,78.9,656.7,78.5,656.7z"/>
					<path class="st1" d="M191.9,539.6L191.9,539.6c0.7,0,1.2,0.6,1.2,1.2c0,0.3-0.1,0.7-0.4,0.9L79.4,655.8c-0.5,0.5-1.3,0.5-1.8,0
						c-0.5-0.5-0.5-1.3,0-1.8L191,540C191.2,539.8,191.6,539.6,191.9,539.6 M191.9,538.6c-0.6,0-1.2,0.2-1.6,0.7L76.9,653.4
						c-0.9,0.9-0.9,2.3,0,3.2c0.9,0.9,2.3,0.9,3.2,0l113.4-114.1c0.9-0.9,0.9-2.3,0-3.2C193.1,538.9,192.5,538.6,191.9,538.6
						L191.9,538.6z"/>
				</g>
				<g class="st3">
					<path class="st0" d="M77.3,656.4c-0.7,0-1.3-0.4-1.6-1L11.1,508c-0.2-0.4-0.2-0.9,0-1.3c0.2-0.4,0.5-0.8,0.9-1
						c0.2-0.1,0.5-0.2,0.7-0.1c0.7,0,1.3,0.4,1.6,1l64.6,147.4c0.4,0.9,0,1.9-0.9,2.3C77.8,656.3,77.5,656.4,77.3,656.4z"/>
					<path class="st1" d="M12.7,506.1L12.7,506.1c0.5,0,0.9,0.3,1.1,0.7l64.6,147.3c0.3,0.6,0,1.4-0.7,1.6c-0.2,0.1-0.3,0.1-0.5,0.1
						c-0.5,0-1-0.3-1.2-0.8L11.5,507.8c-0.3-0.6,0-1.4,0.6-1.6c0,0,0,0,0,0C12.3,506.1,12.5,506.1,12.7,506.1 M12.7,505.1
						c-0.3,0-0.6,0.1-0.9,0.2c-1.1,0.5-1.7,1.8-1.2,3c0,0,0,0,0,0l64.6,147.3c0.4,0.8,1.2,1.3,2.1,1.3c0.3,0,0.6-0.1,0.9-0.2
						c1.1-0.5,1.7-1.8,1.2-2.9c0,0,0,0,0-0.1L14.7,506.4C14.4,505.6,13.6,505.1,12.7,505.1z"/>
				</g>
				<g class="st3">
					<path class="st0" d="M76.2,656.1c-0.7,0-1.3-0.4-1.6-0.9l-74-142.8c-0.4-0.8-0.1-1.9,0.8-2.3c0.2-0.1,0.5-0.2,0.8-0.2
						c0.7,0,1.3,0.4,1.5,0.9l74,142.8c0.2,0.4,0.3,0.9,0.1,1.3c-0.1,0.4-0.4,0.8-0.9,1C76.8,656.1,76.5,656.1,76.2,656.1z"/>
					<path class="st1" d="M2.2,510.2c0.5,0,0.9,0.3,1.1,0.7l74,142.9c0.2,0.3,0.2,0.7,0.1,1c-0.1,0.3-0.3,0.6-0.6,0.7
						c-0.2,0.1-0.4,0.1-0.6,0.1c-0.5,0-0.9-0.3-1.1-0.7l-74-142.9c-0.3-0.6-0.1-1.4,0.5-1.7c0,0,0,0,0,0
						C1.8,510.3,2,510.3,2.2,510.2 M2.2,509.3c-1.2,0-2.2,1-2.3,2.2c0,0.4,0.1,0.7,0.3,1l74,142.9c0.6,1.1,1.9,1.5,3,1
						c1.1-0.6,1.5-1.9,1-3l-74-142.9C3.9,509.8,3.1,509.3,2.2,509.3L2.2,509.3z"/>
				</g>
				<g class="st3">
					<path class="st0" d="M77.3,656.4c-0.7,0-1.4-0.5-1.7-1.2L23.5,503c-0.3-0.9,0.2-1.9,1.1-2.2c0.2-0.1,0.4-0.1,0.6-0.1
						c0.7,0,1.4,0.5,1.6,1.2L79,654.1c0.3,0.9-0.2,1.9-1.1,2.2C77.7,656.4,77.5,656.4,77.3,656.4z"/>
					<path class="st1" d="M25.1,501.2L25.1,501.2c0.5,0,1,0.3,1.2,0.9l52.2,152.2c0.2,0.7-0.1,1.4-0.8,1.6c-0.1,0-0.3,0.1-0.4,0.1
						c-0.5,0-1-0.3-1.2-0.8L24,502.9c-0.2-0.7,0.1-1.4,0.8-1.6C24.9,501.2,25,501.2,25.1,501.2 M25.2,500.2c-1.2,0-2.2,1-2.2,2.2
						c0,0.3,0,0.5,0.1,0.8l52.1,152.2c0.3,0.9,1.2,1.5,2.1,1.5c0.2,0,0.5,0,0.7-0.1c1.2-0.4,1.8-1.7,1.4-2.8L27.3,501.7
						C27,500.8,26.1,500.2,25.2,500.2L25.2,500.2z"/>
				</g>
				<g class="st3">
					<path class="st0" d="M77.3,656.4c-0.9,0-1.6-0.6-1.7-1.5l-24.3-159c-0.1-1,0.5-1.9,1.5-2c0,0,0,0,0,0H53c0.9,0,1.6,0.6,1.7,1.5
						l24.2,159c0.1,0.5,0,0.9-0.3,1.3c-0.3,0.4-0.7,0.6-1.2,0.7C77.5,656.4,77.4,656.4,77.3,656.4z"/>
					<path class="st1" d="M53,494.4c0.6,0,1.1,0.4,1.2,1.1l24.3,159c0.1,0.7-0.4,1.3-1.1,1.4h-0.2c-0.6,0-1.1-0.5-1.2-1.1l-24.3-159
						c-0.1-0.3,0-0.7,0.2-0.9c0.2-0.3,0.5-0.4,0.8-0.5L53,494.4 M53,493.3c-0.1,0-0.2,0-0.3,0c-1.2,0.2-2.1,1.3-1.9,2.6
						c0,0,0,0.1,0,0.1l24.3,159c0.2,1.1,1.1,1.9,2.2,1.9c0.1,0,0.2,0,0.3,0c1.2-0.2,2.1-1.3,1.9-2.5l-24.3-159
						c-0.2-1.1-1.1-1.9-2.2-1.9L53,493.3z"/>
				</g>
				<g class="st3">
					<path class="st0" d="M77.3,656.4h-0.2c-1-0.1-1.7-1-1.6-1.9c0,0,0,0,0,0l17.7-159.9c0.1-0.9,0.8-1.6,1.7-1.6h0.2
						c1,0.1,1.6,1,1.6,1.9L79,654.8C78.9,655.7,78.2,656.4,77.3,656.4z"/>
					<path class="st1" d="M95,493.5h0.1c0.7,0.1,1.2,0.7,1.1,1.4L78.5,654.8c-0.1,0.6-0.6,1.1-1.2,1.1h-0.1
						c-0.7-0.1-1.2-0.7-1.1-1.4l17.7-159.9C93.8,494,94.4,493.5,95,493.5 M95,492.5c-1.1,0-2.1,0.9-2.2,2L75.1,654.4
						c-0.1,1.2,0.8,2.3,2,2.5c0,0,0,0,0,0h0.2c1.1,0,2.1-0.9,2.2-2L97.2,495c0.1-1.2-0.8-2.3-2-2.5c0,0,0,0,0,0L95,492.5L95,492.5z"
						/>
				</g>
				<g class="st3">
					<path class="st0" d="M76.8,656.3c-0.8,0-1.4-0.5-1.7-1.2c-0.1-0.4-0.1-0.9,0.1-1.3l73.2-143.2c0.3-0.6,0.9-0.9,1.6-1
						c0.8,0,1.4,0.5,1.7,1.2c0.1,0.4,0.1,0.9-0.1,1.3L78.4,655.3C78.1,655.9,77.5,656.3,76.8,656.3z"/>
					<path class="st1" d="M150.1,510L150.1,510c0.2,0,0.4,0,0.6,0.1c0.6,0.3,0.9,1.1,0.6,1.7L78,655.1c-0.3,0.6-1.1,0.9-1.7,0.5
						c-0.3-0.2-0.5-0.4-0.6-0.7c-0.1-0.3-0.1-0.7,0.1-1L149,510.7C149.2,510.3,149.6,510,150.1,510 M150.1,509c-0.8,0-1.6,0.5-2,1.2
						L74.8,653.5c-0.5,1.1-0.1,2.4,1,3c0.3,0.2,0.7,0.2,1,0.2c0.8,0,1.6-0.5,2-1.2l73.2-143.2c0.5-1.1,0.1-2.4-1-3
						C150.8,509.1,150.4,509.1,150.1,509L150.1,509z"/>
				</g>
				<g class="st3">
					<path class="st0" d="M78,688.9c-0.5,0-1.1-0.3-1.4-0.7c-0.6-0.8-0.4-1.9,0.3-2.5L205,588.4c0.8-0.5,1.9-0.3,2.4,0.4
						c0.5,0.7,0.4,1.8-0.3,2.3L79,688.5C78.7,688.8,78.4,688.9,78,688.9z"/>
					<path class="st1" d="M206.1,588.5L206.1,588.5c0.7,0,1.3,0.5,1.3,1.2c0,0.4-0.2,0.8-0.5,1L78.7,688.1c-0.2,0.2-0.5,0.3-0.8,0.2
						c-0.7,0-1.2-0.6-1.2-1.3c0-0.4,0.2-0.8,0.5-1l128.1-97.3C205.5,588.6,205.8,588.5,206.1,588.5 M206.1,587.5
						c-0.5,0-1,0.2-1.4,0.5L76.6,685.3c-1,0.8-1.1,2.2-0.4,3.1c0.4,0.5,1.1,0.8,1.7,0.9c0.5,0,1-0.2,1.3-0.5l128.1-97.3
						c1-0.8,1.1-2.2,0.4-3.1C207.4,587.9,206.7,587.6,206.1,587.5L206.1,587.5z"/>
				</g>
				<g class="st3">
					<path class="st0" d="M78,688.9c-0.6,0-1.2-0.3-1.5-0.9c-0.2-0.4-0.3-0.9-0.2-1.3c0.1-0.4,0.4-0.8,0.8-1.1l139.6-79.9
						c0.3-0.1,0.6-0.2,0.9-0.2c0.6,0,1.2,0.3,1.5,0.9c0.2,0.4,0.3,0.9,0.2,1.3c-0.1,0.5-0.4,0.8-0.8,1.1L78.8,688.7
						C78.6,688.8,78.3,688.9,78,688.9z"/>
					<path class="st1" d="M217.6,606c0.5,0,0.9,0.2,1.1,0.6c0.2,0.3,0.2,0.6,0.1,1c-0.1,0.3-0.3,0.6-0.6,0.8L78.6,688.2
						c-0.2,0.1-0.4,0.2-0.6,0.2c-0.7,0-1.2-0.5-1.3-1.2c0-0.1,0-0.2,0-0.3c0.1-0.3,0.3-0.6,0.6-0.8L217,606.1
						C217.2,606,217.4,606,217.6,606 M217.6,605c-0.4,0-0.8,0.1-1.1,0.3L76.8,685.2c-1.1,0.6-1.4,2-0.8,3.1c0.6,1.1,2,1.4,3.1,0.8
						l139.6-79.9c1.1-0.6,1.5-2,0.8-3.1C219.1,605.4,218.4,605,217.6,605L217.6,605z"/>
				</g>
				<g class="st3">
					<path class="st0" d="M78,688.9c-1,0-1.7-0.8-1.7-1.7c0-0.2,0-0.5,0.1-0.7c0.2-0.4,0.5-0.8,0.9-0.9l148.9-60.9
						c0.2-0.1,0.4-0.1,0.6-0.1c1,0,1.7,0.8,1.8,1.7c0,0.2,0,0.5-0.1,0.7c-0.2,0.4-0.5,0.8-0.9,0.9L78.6,688.8
						C78.4,688.8,78.2,688.9,78,688.9z"/>
					<path class="st1" d="M226.9,625c0.7,0,1.3,0.5,1.3,1.2c0,0.5-0.3,1-0.8,1.2L78.4,688.3c-0.6,0.3-1.3,0-1.6-0.6c0,0,0,0,0,0
						c-0.3-0.6,0-1.4,0.7-1.6l148.9-60.9C226.5,625,226.7,625,226.9,625 M226.9,624c-0.3,0-0.6,0.1-0.8,0.2L77.1,685.1
						c-1.1,0.5-1.7,1.8-1.2,2.9c0.5,1.1,1.8,1.7,2.9,1.2l0,0l148.9-60.9c1.1-0.5,1.7-1.8,1.2-2.9l0,0
						C228.6,624.6,227.8,624,226.9,624L226.9,624z"/>
				</g>
				<g class="st3">
					<path class="st0" d="M76.6,687.8c-1,0-1.7-0.8-1.8-1.7c0-0.5,0.2-1,0.6-1.4l123.3-103.4c0.3-0.3,0.7-0.4,1.1-0.4
						c1,0,1.8,0.8,1.8,1.7c0,0.1,0,0.1,0,0.2c0,0.5-0.3,0.9-0.6,1.2L77.7,687.4C77.4,687.7,77,687.8,76.6,687.8z"/>
					<path class="st1" d="M199.9,581.5c0.7,0,1.2,0.5,1.3,1.2c0,0.1,0,0.1,0,0.2c0,0.3-0.2,0.6-0.4,0.8L77.4,687
						c-0.5,0.4-1.3,0.4-1.8-0.2c-0.4-0.5-0.4-1.3,0.2-1.8l123.3-103.4C199.3,581.6,199.6,581.5,199.9,581.5 M199.9,580.5
						c-0.5,0-1,0.2-1.4,0.5L75.2,684.4c-0.9,0.8-1.1,2.2-0.3,3.2c0.8,0.9,2.2,1.1,3.2,0.3l123.3-103.4c1-0.8,1.1-2.2,0.4-3.1
						C201.3,580.7,200.6,580.4,199.9,580.5L199.9,580.5z"/>
				</g>
				<g class="st3">
					<path class="st0" d="M600.8,460.5c-0.7,0-1.4-0.4-1.6-1.1c-0.4-0.9,0.1-1.9,1-2.3c0,0,0,0,0,0l149.1-60.5
						c0.2-0.1,0.4-0.1,0.7-0.1c1,0,1.7,0.8,1.7,1.8c0,0.7-0.4,1.3-1.1,1.6l-149.1,60.5C601.2,460.4,601,460.4,600.8,460.5z"/>
					<path class="st1" d="M749.8,396.9c0.7,0,1.3,0.5,1.3,1.2c0,0.5-0.3,1-0.8,1.2l-149.1,60.5c-0.1,0.1-0.3,0.1-0.5,0.1
						c-0.5,0-1-0.3-1.2-0.8c-0.3-0.6,0-1.4,0.7-1.6c0,0,0,0,0,0L749.3,397C749.5,396.9,749.7,396.9,749.8,396.9 M749.8,395.9
						c-0.3,0-0.6,0.1-0.8,0.2l-149,60.5c-1.1,0.5-1.7,1.8-1.2,2.9c0.3,0.9,1.2,1.4,2.1,1.4c0.3,0,0.6-0.1,0.8-0.2l149-60.5
						c1.1-0.5,1.7-1.8,1.2-2.9l0,0C751.5,396.5,750.7,395.9,749.8,395.9L749.8,395.9z"/>
				</g>
				<g class="st3">
					<path class="st0" d="M600.8,460.5c-1,0-1.7-0.8-1.7-1.8c0-0.8,0.5-1.5,1.3-1.7L756,416.3c0.1,0,0.3-0.1,0.4,0
						c1,0,1.8,0.7,1.8,1.7c0,0.8-0.5,1.5-1.3,1.7l-155.7,40.7C601.1,460.4,600.9,460.5,600.8,460.5z"/>
					<path class="st1" d="M756.4,416.8c0.6,0,1.1,0.4,1.2,0.9c0.2,0.7-0.2,1.3-0.9,1.5l-155.6,40.7c-0.1,0-0.2,0-0.3,0
						c-0.6,0-1.1-0.4-1.2-0.9c-0.2-0.7,0.2-1.3,0.9-1.5l155.6-40.7C756.2,416.7,756.3,416.7,756.4,416.8 M756.4,415.8
						c-0.2,0-0.4,0-0.6,0.1l-155.6,40.7c-1.2,0.3-1.9,1.5-1.6,2.7c0.3,1,1.2,1.7,2.2,1.7c0.2,0,0.4,0,0.6-0.1L757,420.2
						c1.2-0.3,1.9-1.5,1.6-2.7C758.4,416.4,757.5,415.8,756.4,415.8L756.4,415.8z"/>
				</g>
				<g class="st3">
					<path class="st0" d="M600.8,460.5c-1,0-1.7-0.8-1.7-1.8c0-0.9,0.6-1.6,1.5-1.7l159.6-19.9h0.2c0.9,0,1.6,0.7,1.7,1.5
						c0.1,0.5-0.1,0.9-0.4,1.3c-0.3,0.4-0.7,0.6-1.2,0.7L601,460.4L600.8,460.5z"/>
					<path class="st1" d="M760.4,437.6c0.7,0,1.3,0.5,1.3,1.2c0,0.7-0.5,1.3-1.2,1.3l0,0l-159.6,19.9h-0.2c-0.6,0-1.2-0.5-1.2-1.1
						c-0.1-0.7,0.4-1.3,1.1-1.4c0,0,0,0,0,0l159.6-19.9H760.4 M760.4,436.6h-0.3l-159.6,19.9c-1.2,0.1-2.1,1.2-2,2.4
						c0.1,1.2,1.1,2.1,2.3,2c0.1,0,0.2,0,0.3,0L760.7,441c1.2-0.1,2.1-1.2,2-2.4C762.6,437.4,761.6,436.5,760.4,436.6L760.4,436.6z"
						/>
				</g>
				<g class="st3">
					<path class="st0" d="M599.7,459.1c-0.7,0-1.3-0.4-1.6-1c-0.2-0.4-0.2-0.9-0.1-1.3c0.2-0.4,0.5-0.8,0.9-1l146-67.6
						c0.2-0.1,0.5-0.2,0.7-0.2c1,0,1.8,0.8,1.8,1.7c0,0.7-0.4,1.3-1,1.6l-146,67.6C600.2,459,600,459.1,599.7,459.1z"/>
					<path class="st1" d="M745.7,388.5c0.7,0,1.3,0.5,1.3,1.2c0,0.5-0.3,1-0.7,1.2l-146,67.6c-0.2,0.1-0.3,0.1-0.5,0.1
						c-0.7,0-1.3-0.5-1.3-1.2c0-0.5,0.3-1,0.7-1.2l146-67.6C745.4,388.5,745.5,388.5,745.7,388.5 M745.7,387.5
						c-0.3,0-0.6,0.1-0.9,0.2l-146,67.6c-1.1,0.5-1.6,1.8-1.1,3c0.4,0.8,1.2,1.3,2.1,1.3c0.3,0,0.6-0.1,0.9-0.2l146-67.6
						c1.1-0.5,1.6-1.9,1.1-3c0,0,0,0,0,0l0,0C747.4,388,746.7,387.5,745.7,387.5L745.7,387.5z"/>
				</g>
				<g class="st3">
					<path class="st0" d="M500,611.7c-0.8,0-1.5-0.5-1.7-1.3c-0.2-0.9,0.3-1.9,1.2-2.1L655,566.8c0.1,0,0.3-0.1,0.4-0.1
						c0.8,0,1.5,0.5,1.7,1.3c0.2,0.9-0.3,1.9-1.2,2.1l-155.5,41.4C500.3,611.7,500.2,611.7,500,611.7z"/>
					<path class="st1" d="M655.4,567.3c0.7,0,1.3,0.6,1.3,1.2c0,0.6-0.4,1.1-0.9,1.2l-155.4,41.4c-0.1,0-0.2,0-0.3,0
						c-0.7,0-1.3-0.6-1.3-1.2c0-0.6,0.4-1.1,0.9-1.2l155.4-41.4C655.2,567.3,655.3,567.3,655.4,567.3 M655.4,566.3
						c-0.2,0-0.4,0-0.6,0.1l-155.4,41.5c-1.2,0.3-1.9,1.5-1.6,2.7c0.3,1,1.2,1.7,2.2,1.7c0.2,0,0.4,0,0.6-0.1L656,570.7
						c1.2-0.3,1.9-1.5,1.6-2.7C657.4,567,656.5,566.3,655.4,566.3L655.4,566.3z"/>
				</g>
				<g class="st3">
					<path class="st0" d="M499.6,610.3c-1,0-1.7-0.8-1.7-1.8c0-0.7,0.5-1.4,1.2-1.6l152.5-51.4c0.2-0.1,0.4-0.1,0.5-0.1
						c0.8,0,1.4,0.5,1.7,1.2c0.3,0.9-0.2,1.9-1.1,2.2c0,0,0,0,0,0l-152.4,51.4C500,610.3,499.8,610.3,499.6,610.3z"/>
					<path class="st1" d="M652.1,556c0.7,0,1.2,0.6,1.2,1.3c0,0.5-0.3,1-0.8,1.2L500,609.8c-0.1,0-0.3,0.1-0.4,0.1
						c-0.7,0-1.3-0.5-1.3-1.2c0-0.6,0.3-1,0.9-1.2L651.7,556C651.8,556,651.9,555.9,652.1,556 M652.1,554.9c-0.2,0-0.5,0-0.7,0.1
						l-152.4,51.4c-1.2,0.4-1.8,1.7-1.4,2.8c0.4,1.2,1.7,1.8,2.8,1.4l152.4-51.4c1.2-0.4,1.8-1.7,1.4-2.8
						C653.9,555.6,653,555,652.1,554.9L652.1,554.9z"/>
				</g>
				<g class="st3">
					<path class="st0" d="M500,611.6c-0.6,0-1.2-0.3-1.5-0.9c-0.5-0.8-0.2-1.9,0.6-2.4l139-81c0.8-0.5,1.9-0.2,2.4,0.6
						c0.2,0.4,0.3,0.9,0.2,1.3c-0.1,0.4-0.4,0.8-0.8,1.1l-139,81C500.6,611.5,500.3,611.6,500,611.6z"/>
					<path class="st1" d="M639,527.7L639,527.7c0.4,0,0.9,0.2,1.1,0.6c0.3,0.6,0.1,1.4-0.5,1.7c0,0,0,0,0,0l-139,81
						c-0.2,0.1-0.4,0.2-0.6,0.2c-0.4,0-0.9-0.2-1.1-0.6c-0.3-0.6-0.1-1.4,0.5-1.7l139-81C638.6,527.8,638.8,527.7,639,527.7
						 M639,526.7c-0.4,0-0.8,0.1-1.1,0.3l-139,80.9c-1.1,0.6-1.4,2-0.8,3.1c0.4,0.7,1.1,1.1,2,1.1c0.4,0,0.8-0.1,1.1-0.3l139-81
						c1.1-0.6,1.4-2,0.8-3.1C640.5,527.1,639.8,526.7,639,526.7L639,526.7z"/>
				</g>
				<g class="st3">
					<path class="st0" d="M500,611.7c-0.8,0-1.6-0.6-1.7-1.4c-0.1-0.5,0-0.9,0.3-1.3c0.3-0.4,0.7-0.6,1.1-0.7L658,579.9
						c0.1,0,0.2,0,0.3,0c1,0,1.8,0.7,1.8,1.7c0,0.9-0.6,1.6-1.5,1.8l-158.3,28.4L500,611.7z"/>
					<path class="st1" d="M658.3,580.3c0.7,0,1.2,0.6,1.2,1.2c0,0.3-0.1,0.5-0.2,0.8c-0.2,0.3-0.5,0.5-0.8,0.5l-158.3,28.3
						c-0.1,0-0.1,0-0.2,0c-0.6,0-1.1-0.4-1.2-1c-0.1-0.3,0-0.7,0.2-0.9c0.2-0.3,0.5-0.5,0.8-0.5l158.3-28.4L658.3,580.3
						 M658.3,579.4h-0.4l-158.3,28.4c-1.2,0.2-2,1.4-1.8,2.6c0,0,0,0,0,0c0.2,1.1,1.1,1.8,2.2,1.8c0.1,0,0.3,0,0.4,0l158.3-28.4
						c1.2-0.2,2-1.4,1.8-2.6C660.4,580.1,659.5,579.3,658.3,579.4L658.3,579.4z"/>
				</g>
				<g class="st3">
					<path class="st0" d="M500,611.7c-1,0-1.7-0.8-1.8-1.8c0-1,0.8-1.7,1.8-1.7l160.9,0.2c0.5,0,0.9,0.2,1.2,0.5
						c0.7,0.7,0.7,1.8,0.1,2.5c-0.3,0.4-0.8,0.5-1.3,0.5l0,0L500,611.7z"/>
					<path class="st1" d="M500,608.7l160.9,0.2c0.7,0.1,1.2,0.7,1.1,1.4c-0.1,0.6-0.5,1.1-1.1,1.1L500,611.2c-0.7,0-1.2-0.6-1.2-1.2
						S499.3,608.7,500,608.7L500,608.7 M500,607.7c-1.2,0.1-2.2,1.2-2.1,2.4c0.1,1.1,1,2,2.1,2.1l160.9,0.2l0,0
						c1.2-0.1,2.2-1.2,2.1-2.4c-0.1-1.1-1-2-2.1-2.1L500,607.7L500,607.7z"/>
				</g>
				<g class="st3">
					<path class="st0" d="M659.5,632.8h-0.2l-159.5-21c-0.5-0.1-0.9-0.3-1.2-0.7c-0.6-0.8-0.4-1.9,0.3-2.4c0.3-0.2,0.7-0.4,1.1-0.4
						h0.2l159.5,21c0.5,0.1,0.9,0.3,1.2,0.7c0.6,0.8,0.5,1.9-0.3,2.4C660.3,632.7,659.9,632.8,659.5,632.8L659.5,632.8z"/>
					<path class="st1" d="M500,608.7h0.2l159.5,21c0.7,0.1,1.2,0.7,1.1,1.4c-0.1,0.6-0.6,1.1-1.2,1.1h-0.2l-159.5-21
						c-0.3,0-0.6-0.2-0.8-0.5c-0.2-0.3-0.3-0.6-0.2-0.9C498.8,609.2,499.4,608.7,500,608.7 M500,607.7c-1.2-0.1-2.3,0.9-2.4,2.1
						c-0.1,1.2,0.9,2.3,2.1,2.4l159.5,21h0.3c1.2,0.1,2.3-0.9,2.4-2.1c0.1-1.2-0.9-2.3-2.1-2.4l-159.5-21H500L500,607.7z"/>
				</g>
				<g class="st3">
					<path class="st0" d="M500,611.6c-0.6,0-1.1-0.3-1.4-0.7c-0.6-0.8-0.4-1.9,0.4-2.4l130.7-93.8c0.7-0.6,1.8-0.6,2.5,0.1
						c0.6,0.7,0.6,1.8-0.1,2.5c-0.1,0.1-0.2,0.2-0.4,0.2L501,611.3C500.7,611.5,500.4,611.6,500,611.6z"/>
					<path class="st1" d="M630.7,514.8L630.7,514.8c0.7,0,1.2,0.6,1.2,1.3c0,0.4-0.2,0.8-0.5,1l-130.7,93.8
						c-0.5,0.4-1.3,0.3-1.8-0.2c-0.2-0.3-0.3-0.7-0.2-1c0.1-0.3,0.2-0.6,0.5-0.8l130.7-93.8C630.1,514.9,630.4,514.8,630.7,514.8
						 M630.6,513.8c-0.5,0-0.9,0.1-1.3,0.4l-130.6,93.8c-1,0.7-1.2,2.1-0.5,3.1c0.4,0.6,1.1,0.9,1.8,0.9c0.5,0,0.9-0.1,1.3-0.4
						L632,517.9c1-0.7,1.2-2.1,0.5-3.1C632.1,514.2,631.4,513.8,630.6,513.8L630.6,513.8z"/>
				</g>
				<g class="st3">
					<path class="st0" d="M655.3,653.5c-0.2,0-0.3,0-0.5-0.1l-155.3-41.8c-0.9-0.3-1.5-1.2-1.2-2.1c0.2-0.8,0.9-1.3,1.7-1.3
						c0.1,0,0.3,0,0.5,0l155.3,41.8c0.9,0.3,1.5,1.2,1.2,2.1C656.8,653,656.1,653.5,655.3,653.5L655.3,653.5z"/>
					<path class="st1" d="M500,608.7c0.1,0,0.2,0,0.3,0l155.3,41.8c0.3,0.1,0.6,0.3,0.8,0.6c0.3,0.6,0.1,1.4-0.5,1.7
						c-0.2,0.1-0.4,0.2-0.6,0.2c-0.1,0-0.2,0-0.3,0l-155.3-41.8c-0.7-0.2-1.1-0.9-0.9-1.5C498.9,609.1,499.4,608.7,500,608.7
						 M500,607.7c-1.2,0-2.3,1-2.3,2.2c0,1,0.7,1.9,1.7,2.2L654.8,654c0.2,0,0.4,0.1,0.6,0.1c1.2,0,2.3-1,2.3-2.2
						c0-1-0.7-1.9-1.7-2.2l-155.3-41.9C500.4,607.8,500.2,607.7,500,607.7L500,607.7z"/>
				</g>
				<g class="st3">
					<path class="st0" d="M499.7,610.5c-0.4,0-0.7-0.1-1-0.3c-0.8-0.6-0.9-1.7-0.4-2.5l95.8-129.2c0.3-0.4,0.9-0.7,1.4-0.7
						c1,0,1.7,0.8,1.7,1.7c0,0.4-0.1,0.7-0.3,1l-95.9,129.2C500.8,610.3,500.2,610.5,499.7,610.5z"/>
					<path class="st1" d="M595.5,478.3L595.5,478.3c0.3,0,0.5,0.1,0.7,0.2c0.6,0.4,0.7,1.2,0.3,1.7c0,0,0,0,0,0l-95.8,129.2
						c-0.2,0.3-0.6,0.5-1,0.5c-0.3,0-0.5-0.1-0.7-0.2c-0.3-0.2-0.4-0.5-0.5-0.8c-0.1-0.3,0-0.7,0.2-0.9l95.8-129.2
						C594.7,478.5,595.1,478.3,595.5,478.3 M595.5,477.3c-0.7,0-1.4,0.3-1.8,0.9l-95.8,129.2c-0.7,1-0.5,2.4,0.5,3.1l0,0
						c0.4,0.3,0.9,0.4,1.3,0.4c0.7,0,1.4-0.3,1.8-0.9l95.8-129.2c0.7-1,0.5-2.4-0.5-3.1c0,0,0,0,0,0
						C596.4,477.5,596,477.3,595.5,477.3L595.5,477.3z"/>
				</g>
				<g class="st3">
					<path class="st0" d="M499.4,609.5c-1,0-1.7-0.8-1.7-1.8c0-0.3,0.1-0.6,0.3-0.9l87.3-135.1c0.5-0.8,1.6-1,2.4-0.5
						c0.8,0.5,1,1.6,0.5,2.4l0,0l-87.3,135.1C500.5,609.2,500,609.5,499.4,609.5z"/>
					<path class="st1" d="M586.7,471.3L586.7,471.3c0.2,0,0.5,0.1,0.7,0.2c0.6,0.4,0.7,1.1,0.4,1.7c0,0,0,0,0,0l-87.3,135.1
						c-0.4,0.6-1.1,0.7-1.7,0.4c0,0,0,0,0,0c-0.3-0.2-0.5-0.5-0.5-0.8c-0.1-0.3,0-0.7,0.2-1l87.3-135.1
						C585.9,471.5,586.3,471.3,586.7,471.3 M586.7,470.3c-0.8,0-1.5,0.4-1.9,1l-87.3,135.2c-0.7,1-0.4,2.4,0.7,3.1
						c0.4,0.2,0.8,0.4,1.2,0.3c0.8,0,1.5-0.4,1.9-1l87.3-135.1c0.7-1,0.4-2.4-0.7-3.1C587.5,470.5,587.1,470.3,586.7,470.3
						L586.7,470.3z"/>
				</g>
				<g class="st3">
					<path class="st0" d="M499.7,610.5c-0.4,0-0.8-0.2-1.1-0.4c-0.7-0.6-0.8-1.7-0.2-2.5c0,0,0,0,0,0l106.2-120.8
						c0.3-0.4,0.8-0.6,1.3-0.6c0.4,0,0.8,0.2,1.2,0.4c0.7,0.6,0.8,1.7,0.2,2.5c0,0,0,0,0,0L501,610
						C500.7,610.4,500.2,610.6,499.7,610.5z"/>
					<path class="st1" d="M605.9,486.7L605.9,486.7c0.3,0,0.6,0.1,0.8,0.3c0.5,0.5,0.6,1.2,0.1,1.8L500.6,609.6
						c-0.5,0.5-1.2,0.6-1.8,0.1c-0.2-0.2-0.4-0.5-0.4-0.9c0-0.3,0.1-0.7,0.3-0.9L605,487.2C605.2,486.9,605.6,486.7,605.9,486.7
						 M605.9,485.7c-0.6,0-1.3,0.3-1.7,0.8L498,607.3c-0.8,0.9-0.7,2.3,0.2,3.1c0.4,0.4,1,0.6,1.5,0.6c0.6,0,1.3-0.3,1.7-0.8
						l106.2-120.8c0.8-0.9,0.7-2.3-0.2-3.2C607,485.9,606.5,485.7,605.9,485.7L605.9,485.7z"/>
				</g>
				<g class="st3">
					<path class="st0" d="M499.7,610.5c-0.5,0-1-0.2-1.4-0.7c-0.3-0.4-0.4-0.8-0.4-1.3c0-0.5,0.3-0.9,0.6-1.2l126-100
						c0.8-0.6,1.9-0.5,2.5,0.3c0.3,0.4,0.4,0.8,0.4,1.3c0,0.5-0.3,0.9-0.7,1.2l-126,100C500.5,610.4,500.1,610.5,499.7,610.5z"/>
					<path class="st1" d="M625.7,507.5L625.7,507.5c0.4,0,0.8,0.2,1,0.5c0.2,0.3,0.3,0.6,0.3,0.9c0,0.3-0.2,0.6-0.5,0.8l-126,100
						c-0.2,0.2-0.5,0.3-0.8,0.3c-0.7,0-1.3-0.6-1.3-1.2c0-0.4,0.2-0.7,0.5-1l126-100C625.1,507.6,625.4,507.5,625.7,507.5
						 M625.7,506.5c-0.5,0-1,0.2-1.4,0.5l-126,100c-1,0.8-1.1,2.2-0.4,3.2c0.8,1,2.2,1.1,3.2,0.4l126-100c1-0.8,1.1-2.2,0.4-3.1
						c0,0,0,0,0,0l0,0C627,506.8,626.4,506.5,625.7,506.5L625.7,506.5z"/>
				</g>
				<g class="st3">
					<path class="st0" d="M499.7,610.5c-1,0-1.7-0.8-1.7-1.8c0-0.7,0.4-1.3,1-1.6l147.6-64c0.2-0.1,0.5-0.1,0.7-0.1
						c1,0,1.7,0.8,1.8,1.7c0,0.2,0,0.4-0.1,0.7c-0.2,0.4-0.5,0.8-0.9,1l-147.6,64C500.2,610.5,499.9,610.6,499.7,610.5z"/>
					<path class="st1" d="M647.3,543.5L647.3,543.5c0.5,0,0.9,0.3,1.2,0.8c0.3,0.6,0,1.4-0.6,1.6c0,0,0,0,0,0l-147.6,64
						c-0.2,0.1-0.3,0.1-0.5,0.1c-0.5,0-1-0.3-1.1-0.8c-0.3-0.6,0-1.4,0.6-1.6c0,0,0,0,0,0l147.6-64
						C646.9,543.6,647.1,543.5,647.3,543.5 M647.3,542.5c-0.3,0-0.6,0.1-0.9,0.2l-147.6,64c-1.1,0.5-1.6,1.8-1.2,3
						c0.4,0.8,1.2,1.4,2.1,1.3c0.3,0,0.6-0.1,0.9-0.2l147.6-64c1.1-0.5,1.7-1.8,1.2-2.9C649,543.1,648.2,542.5,647.3,542.5z"/>
				</g>
				<g class="st3">
					<path class="st0" d="M499.6,610.1c-1,0-1.7-0.9-1.7-1.8c0-0.9,0.7-1.6,1.6-1.7l160.7-7.5c1,0,1.7,0.8,1.7,1.8
						c0,0.9-0.7,1.6-1.6,1.7L499.6,610.1z"/>
					<path class="st1" d="M660.2,599.6c0.7,0,1.2,0.5,1.2,1.2c0,0.3-0.1,0.6-0.3,0.9c-0.2,0.2-0.5,0.4-0.9,0.4l-160.7,7.5h-0.1
						c-0.7,0-1.2-0.6-1.2-1.3c0-0.6,0.5-1.1,1.1-1.2L660.2,599.6L660.2,599.6 M660.2,598.6L660.2,598.6l-160.8,7.5
						c-1.2,0.1-2.2,1.2-2,2.4c0.1,1.1,1,2,2.2,2.1h0.1l160.7-7.5c1.2,0,2.2-1.1,2.2-2.3S661.4,598.5,660.2,598.6z"/>
				</g>
				<g class="st3">
					<polygon class="st4" points="63.8,798.5 54,672.8 73.2,652.9 80.6,656.2 61.7,674.9 69.9,793.3 83.1,804.8 79.3,811.8 					"/>
					<path class="st4" d="M73.3,653.5l6.4,2.8l-18.2,18l-0.3,0.3v0.5l8.2,118v0.4l0.3,0.3l12.8,11.1l-3.3,6.1l-14.8-12.7L54.5,673
						L73.3,653.5 M73.1,652.3l-19.7,20.2l9.9,126.2l16,13.8l4.3-8L70.4,793l-8.2-118l19.2-19L73.1,652.3L73.1,652.3z"/>
				</g>
				<g class="st3">
					<polygon class="st4" points="59.8,691.4 60.5,684.9 72.9,685.6 77.3,683.3 81.2,689.7 74.1,692.8 					"/>
					<path class="st4" d="M77.1,684l3.4,5.4l-6.5,2.9L60.3,691l0.6-5.6l11.7,0.7H73l0.2-0.1L77.1,684 M77.5,682.7l-4.8,2.4
						l-12.7-0.8l-0.8,7.5l15,1.5l7.8-3.5L77.5,682.7L77.5,682.7z"/>
				</g>
				<g class="st3">
					<polygon class="st4" points="59.7,816 282,703.3 435.2,534.7 599.8,447 605.7,457.9 446.2,546.9 289.1,718.4 63,828.3 					"/>
					<path class="st0" d="M599.6,447.7l5.4,10l-158.9,88.8l-0.1,0.1l-0.1,0.1L288.9,718L63.3,827.6l-3-11.3l221.8-112.5l0.2-0.1
						l0.1-0.1l153.1-168.5L599.6,447.7 M600,446.4l-165,87.9L281.7,702.9L59.1,815.8l3.5,13.2l226.8-110.2l157.1-171.4l159.8-89.2
						L600,446.4L600,446.4z"/>
				</g>
				<g class="st3">
					<polygon class="st4" points="249,677.3 236.2,600.5 232.7,554.2 241.9,523 243.8,441.1 253.8,440.3 251.2,525.8 244.8,552.2 
						246.5,597.5 258.5,672.6 278.6,709.4 270.3,718.3 					"/>
					<path class="st4" d="M253.3,440.9l-2.6,84.8l-6.4,26.3v0.1v0.1l1.7,45.2v0.1l12,74.9v0.2l0.1,0.2l19.9,36.4l-7.6,8.2l-21-40.3
						l-12.8-76.7l-3.5-46.2l9.1-31.1V523v-0.1l1.9-81.3l9-0.7 M254.2,439.8l-11,0.9l-1.9,82.2l-9.2,31.3l3.5,46.4l12.8,76.9
						l21.7,41.7l9-9.8L259,672.4l-12-74.9l-1.7-45.2l6.4-26.4l2.6-86L254.2,439.8z"/>
				</g>
				<g class="st3">
					<polygon class="st4" points="349.5,567.8 362.5,513.6 393.9,480.8 398.5,486 368.8,518 355.8,565.6 370.5,612.3 365.9,617.1 
											"/>
					<path class="st4" d="M393.9,481.5l3.9,4.5l-29.3,31.5l-0.2,0.2l-0.1,0.2l-13,47.4l-0.1,0.3l0.1,0.3l14.6,46.3l-3.9,4l-16-48.5
						l12.9-53.9L393.9,481.5 M394,480l-32,33.3l-13,54.4l16.6,50.3l5.4-5.7l-14.8-46.8l13-47.3l29.9-32.2L394,480L394,480z"/>
				</g>
				<g class="st3">
					<polygon class="st4" points="473,610.6 468.6,583.1 454.6,557 440.6,548.6 448.9,543.9 462.3,550.5 476.3,580.4 479.6,603.5 
						507.6,607.5 505.1,613.7 					"/>
					<path class="st4" d="M448.9,544.5l13,6.4l13.9,29.6l3.2,22.7l0.1,0.7l0.7,0.1l27,3.9l-2.2,5.3l-31.4-3l-4.3-27V583l-0.1-0.2
						L455.1,557l-0.1-0.2l-0.2-0.1l-13.1-8L448.9,544.5 M448.9,543.4l-9.2,5.2l14.6,8.8l13.9,25.8l4.4,27.8l32.9,3.2l3-7.1l-28.3-4
						l-3.2-22.9l-14.1-30L448.9,543.4L448.9,543.4z"/>
				</g>
				<g class="st3">
					<path class="st0" d="M595.8,457.8c-0.3,0-0.6-0.1-0.8-0.2c-0.9-0.5-1.2-1.5-0.7-2.4l76.1-141.7c0.5-0.8,1.6-1.1,2.4-0.6
						c0.8,0.5,1,1.4,0.7,2.2l-76.1,141.7C597,457.4,596.4,457.8,595.8,457.8z"/>
					<path class="st1" d="M671.9,313L671.9,313c0.2,0,0.4,0,0.6,0.1c0.6,0.3,0.8,1.1,0.5,1.7c0,0,0,0,0,0l-76.1,141.8
						c-0.2,0.4-0.6,0.7-1.1,0.7c-0.2,0-0.4-0.1-0.6-0.1c-0.3-0.2-0.5-0.4-0.6-0.7c-0.1-0.3-0.1-0.7,0.1-1l76.1-141.7
						C671,313.3,671.5,313,671.9,313 M671.9,312c-0.8,0-1.6,0.4-2,1.2L593.8,455c-0.6,1.1-0.1,2.4,0.9,3c0.3,0.2,0.7,0.3,1,0.3
						c0.8,0,1.6-0.4,2-1.2l76.1-141.7c0.6-1.1,0.2-2.5-0.9-3C672.6,312.1,672.2,312,671.9,312L671.9,312z"/>
				</g>
				<g class="st3">
					<path class="st0" d="M594.5,457.1c-1,0-1.7-0.8-1.8-1.7c0-0.3,0.1-0.5,0.2-0.7l66.8-146.3c0.4-0.9,1.4-1.3,2.3-0.9c0,0,0,0,0,0
						c0.9,0.4,1.3,1.4,0.9,2.3l-66.8,146.3C595.9,456.7,595.2,457.1,594.5,457.1z"/>
					<path class="st1" d="M661.4,307.8L661.4,307.8c0.2,0,0.3,0,0.5,0.1c0.6,0.3,0.9,1,0.6,1.7l-66.8,146.3
						c-0.2,0.4-0.7,0.7-1.1,0.7c-0.2,0-0.4,0-0.5-0.1c-0.3-0.1-0.5-0.4-0.7-0.7c-0.1-0.3-0.1-0.6,0-1l66.8-146.3
						C660.4,308,660.9,307.7,661.4,307.8 M661.3,306.7c-0.9,0-1.6,0.5-2,1.3l-66.8,146.3c-0.5,1.1,0,2.5,1.1,3c0,0,0,0,0,0l0,0
						c0.3,0.1,0.6,0.2,0.9,0.2c0.9,0,1.6-0.5,2-1.3L663.4,310c0.5-1.1,0-2.5-1.1-3c0,0,0,0,0,0C662,306.8,661.7,306.7,661.3,306.7
						L661.3,306.7z"/>
				</g>
				<g class="st3">
					<path class="st0" d="M595.7,457.7c-0.1,0-0.3,0-0.4,0c-0.9-0.2-1.5-1.2-1.3-2.1c0,0,0,0,0,0l36.1-156.8c0.2-0.9,1.1-1.5,2-1.3
						c0,0,0,0,0,0c0.5,0.1,0.8,0.4,1.1,0.8c0.2,0.4,0.3,0.9,0.2,1.3l-36.1,156.8C597.2,457.1,596.5,457.7,595.7,457.7z"/>
					<path class="st1" d="M631.8,297.9L631.8,297.9c0.1,0,0.2,0,0.3,0c0.3,0.1,0.6,0.3,0.8,0.6c0.2,0.3,0.2,0.6,0.2,0.9l-36.1,156.8
						c-0.1,0.6-0.6,1-1.2,1c-0.1,0-0.2,0-0.3,0c-0.7-0.2-1.1-0.8-0.9-1.5L630.6,299C630.7,298.4,631.2,298,631.8,297.9 M631.8,297
						c-1,0-2,0.7-2.2,1.7l-36.1,156.8c-0.3,1.2,0.5,2.4,1.7,2.7c0,0,0,0,0,0c0.2,0,0.3,0.1,0.5,0.1c1,0,1.9-0.7,2.2-1.7L634,299.7
						c0.3-1.2-0.5-2.4-1.7-2.7C632.2,297,632,297,631.8,297L631.8,297z"/>
				</g>
				<g class="st3">
					<path class="st0" d="M595.8,457.8c-0.3,0-0.7-0.1-0.9-0.3c-0.4-0.3-0.7-0.7-0.8-1.1c-0.1-0.5,0-0.9,0.2-1.3L682,320.1
						c0.3-0.5,0.9-0.8,1.5-0.8c0.3,0,0.7,0.1,0.9,0.3c0.8,0.5,1,1.6,0.5,2.4c0,0,0,0,0,0l-87.7,135
						C596.9,457.5,596.4,457.8,595.8,457.8z"/>
					<path class="st1" d="M683.4,319.9L683.4,319.9c0.2,0,0.5,0.1,0.7,0.2c0.6,0.4,0.7,1.2,0.4,1.7l-87.6,134.9
						c-0.2,0.4-0.6,0.6-1.1,0.6c-0.6,0-1.1-0.4-1.2-1c-0.1-0.3,0-0.7,0.2-0.9l87.6-134.9C682.6,320.1,683,319.8,683.4,319.9
						 M683.4,318.8c-0.8,0-1.5,0.4-1.9,1l-87.6,135c-0.7,1-0.4,2.4,0.7,3.1c0,0,0,0,0,0c0.4,0.2,0.8,0.4,1.2,0.4
						c0.8,0,1.5-0.4,1.9-1l87.6-134.9c0.7-1,0.4-2.4-0.7-3.1C684.3,319,683.9,318.9,683.4,318.8L683.4,318.8z"/>
				</g>
				<g class="st3">
					<path class="st0" d="M595.8,457.8c-0.4,0-0.9-0.2-1.2-0.5c-0.7-0.7-0.7-1.8-0.1-2.5l110.2-117.2c0.3-0.3,0.8-0.5,1.3-0.5
						c0.4,0,0.9,0.2,1.2,0.5c0.7,0.7,0.7,1.8,0.1,2.5L597.1,457.2C596.8,457.6,596.3,457.8,595.8,457.8z"/>
					<path class="st1" d="M706,337.6c0.3,0,0.6,0.1,0.8,0.3c0.5,0.5,0.5,1.3,0.1,1.8L596.7,456.9c-0.5,0.5-1.3,0.5-1.8,0
						c-0.2-0.2-0.4-0.5-0.4-0.9c0-0.3,0.1-0.7,0.3-0.9L705.1,338C705.3,337.7,705.7,337.6,706,337.6 M706,336.6
						c-0.6,0-1.2,0.3-1.6,0.7L594.2,454.5c-0.9,0.9-0.8,2.3,0.1,3.2c0.4,0.4,1,0.6,1.6,0.6c0.6,0,1.2-0.2,1.6-0.7l110.2-117.2
						c0.8-0.9,0.8-2.3-0.1-3.2C707.1,336.8,706.6,336.6,706,336.6L706,336.6z"/>
				</g>
				<g class="st3">
					<path class="st0" d="M595.8,457.8c-1,0-1.7-0.8-1.7-1.8c0-0.5,0.2-1,0.6-1.3l124.5-101.9c0.7-0.6,1.8-0.5,2.5,0.2
						c0.3,0.4,0.4,0.8,0.4,1.3c0,0.5-0.3,0.9-0.6,1.2L596.9,457.4C596.6,457.6,596.2,457.8,595.8,457.8z"/>
					<path class="st1" d="M720.3,352.8c0.4,0,0.8,0.2,1,0.5c0.2,0.3,0.3,0.6,0.3,0.9c0,0.3-0.2,0.6-0.5,0.8L596.6,457
						c-0.5,0.4-1.3,0.4-1.8-0.2c0,0,0,0,0,0c-0.2-0.3-0.3-0.6-0.3-0.9c0-0.4,0.2-0.7,0.4-0.9l124.5-101.9
						C719.7,352.9,720,352.8,720.3,352.8 M720.3,351.8c-0.5,0-1,0.2-1.4,0.5L594.4,454.3c-1,0.8-1.1,2.2-0.3,3.2
						c0.8,1,2.2,1.1,3.2,0.3l124.5-101.9c1-0.8,1.1-2.2,0.3-3.2C721.6,352.1,720.9,351.8,720.3,351.8L720.3,351.8z"/>
				</g>
				<g class="st3">
					<path class="st0" d="M595.7,457.7h-0.2c-1-0.1-1.6-1-1.5-2c0,0,0,0,0,0l21-159.5c0.1-0.9,0.9-1.5,1.7-1.5h0.3
						c1,0.1,1.6,1,1.5,2c0,0,0,0,0,0l-21,159.5C597.4,457.1,596.6,457.7,595.7,457.7z"/>
					<path class="st1" d="M616.7,295.2h0.2c0.7,0.1,1.2,0.7,1.1,1.4l-21,159.5c-0.1,0.6-0.6,1.1-1.2,1.1h-0.2
						c-0.7-0.1-1.2-0.7-1.1-1.4l21-159.5C615.6,295.7,616.1,295.2,616.7,295.2 M616.8,294.2c-1.1,0-2.1,0.8-2.2,2l-21,159.5
						c-0.2,1.2,0.7,2.4,1.9,2.5h0.3c1.1,0,2.1-0.8,2.2-2l21-159.5c0.2-1.2-0.7-2.4-1.9-2.5H616.8z"/>
				</g>
				<g class="st3">
					<path class="st0" d="M595.8,457.8c-1,0-1.7-0.8-1.8-1.7c0-0.6,0.3-1.2,0.8-1.5l136.8-84.7c0.8-0.5,1.9-0.2,2.4,0.6
						c0.2,0.4,0.3,0.9,0.2,1.3c-0.1,0.5-0.4,0.8-0.8,1.1l-136.8,84.7C596.5,457.7,596.1,457.8,595.8,457.8z"/>
					<path class="st1" d="M732.6,370.1L732.6,370.1c0.7,0,1.2,0.6,1.2,1.3c0,0.4-0.2,0.8-0.6,1.1l-136.8,84.7
						c-0.2,0.1-0.4,0.2-0.7,0.2c-0.7,0-1.2-0.6-1.2-1.3c0-0.4,0.2-0.8,0.6-1.1l136.8-84.7C732.1,370.1,732.3,370.1,732.6,370.1
						 M732.6,369.1c-0.4,0-0.8,0.1-1.2,0.3l-136.8,84.7c-1.1,0.7-1.4,2-0.7,3.1c0.7,1,2,1.4,3.1,0.7l136.8-84.7
						c1.1-0.7,1.4-2,0.7-3.1C734.1,369.5,733.4,369.1,732.6,369.1L732.6,369.1z"/>
				</g>
				<g class="st3">
					<path class="st0" d="M594.7,457.2c-0.8,0-1.6-0.6-1.7-1.4l-28.7-158.3c-0.1-0.5,0-0.9,0.3-1.3c0.3-0.4,0.7-0.6,1.1-0.7
						c0.1,0,0.2,0,0.3,0c0.8,0,1.6,0.6,1.7,1.4l28.7,158.3c0.2,0.9-0.5,1.8-1.4,2C594.9,457.2,594.8,457.2,594.7,457.2z"/>
					<path class="st1" d="M566,295.9c0.6,0,1.1,0.4,1.2,1L596,455.2c0.1,0.3,0,0.7-0.2,0.9c-0.2,0.3-0.5,0.5-0.8,0.5h-0.2
						c-0.6,0-1.1-0.4-1.2-1l-28.7-158.3c-0.1-0.7,0.3-1.3,1-1.4c0,0,0,0,0,0C565.9,295.9,565.9,295.9,566,295.9 M566,294.9
						c-0.1,0-0.3,0-0.4,0c-1.2,0.2-2,1.4-1.8,2.6l28.7,158.3c0.2,1.1,1.1,1.8,2.2,1.8c0.1,0,0.3,0,0.4,0c1.2-0.2,2-1.4,1.8-2.6
						l-28.7-158.3C568,295.7,567.1,294.9,566,294.9L566,294.9z"/>
				</g>
				<g class="st3">
					<path class="st0" d="M593.8,456.6c-0.8,0-1.5-0.5-1.7-1.3l-38.8-156.1c-0.1-0.4,0-0.9,0.2-1.3c0.2-0.4,0.6-0.7,1.1-0.8
						c0.1,0,0.3,0,0.4,0c0.8,0,1.5,0.5,1.7,1.3l38.8,156.1c0.1,0.4,0,0.9-0.2,1.3c-0.2,0.4-0.6,0.7-1.1,0.8
						C594,456.6,593.9,456.7,593.8,456.6z"/>
					<path class="st1" d="M554.9,297.5c0.6,0,1.1,0.4,1.2,1L595,454.6c0.2,0.7-0.2,1.3-0.9,1.5c0,0,0,0,0,0c-0.1,0-0.2,0-0.3,0
						c-0.6,0-1.1-0.4-1.2-1l-38.9-156c-0.1-0.3,0-0.7,0.1-1c0.2-0.3,0.5-0.5,0.8-0.6L554.9,297.5 M554.9,296.5c-0.2,0-0.4,0-0.5,0.1
						c-1.2,0.3-1.9,1.5-1.6,2.7c0,0,0,0,0,0l38.8,156.1c0.2,1,1.1,1.7,2.2,1.7c0.2,0,0.4,0,0.5-0.1c1.2-0.3,1.9-1.5,1.6-2.7
						c0,0,0,0,0,0l-38.8-156.1C556.8,297.3,555.9,296.6,554.9,296.5L554.9,296.5z"/>
				</g>
				<g class="st3">
					<path class="st0" d="M594.7,457.2c-0.9,0-1.6-0.7-1.7-1.6l-15.5-160.1c0-0.5,0.1-0.9,0.4-1.3c0.3-0.4,0.7-0.6,1.2-0.6h0.2
						c0.9,0,1.6,0.7,1.7,1.6l15.5,160.1c0.1,1-0.6,1.8-1.6,1.9c0,0,0,0,0,0H594.7z"/>
					<path class="st1" d="M579.3,294.1c0.6,0,1.2,0.5,1.2,1.1L596,455.3c0.1,0.7-0.4,1.3-1.1,1.4h-0.1c-0.6,0-1.2-0.5-1.2-1.1
						L578,295.4c-0.1-0.7,0.4-1.3,1.1-1.4H579.3 M579.2,293.1H579c-1.2,0.1-2.1,1.2-2,2.4l15.5,160.1c0.1,1.1,1.1,2,2.2,2h0.3
						c1.2-0.1,2.1-1.2,2-2.5l-15.5-160.1C581.4,294,580.4,293.1,579.2,293.1L579.2,293.1z"/>
				</g>
				<g class="st3">
					<path class="st0" d="M594.6,457.2c-1-0.1-1.7-0.9-1.6-1.9L606.2,295c0.1-0.9,0.8-1.6,1.7-1.6h0.1c1,0.1,1.7,0.9,1.6,1.9
						l-13.3,160.3c-0.1,0.9-0.8,1.6-1.7,1.6H594.6z"/>
					<path class="st1" d="M608,293.9L608,293.9c0.4,0,0.7,0.2,0.9,0.4c0.2,0.3,0.3,0.6,0.3,0.9L596,455.5c-0.1,0.6-0.6,1.1-1.2,1.1
						h-0.1c-0.7-0.1-1.2-0.7-1.2-1.4L606.7,295C606.8,294.3,607.3,293.8,608,293.9 M608,292.9c-1.2,0-2.1,0.9-2.2,2.1l-13.2,160.3
						c-0.1,1.2,0.8,2.3,2,2.4h0.2c1.2,0,2.1-0.9,2.2-2.1l13.3-160.3c0.1-1.2-0.8-2.3-2-2.4L608,292.9z"/>
				</g>
				<g class="st3">
					<path class="st0" d="M594.7,457.2c-0.2,0-0.4,0-0.6-0.1c-0.9-0.3-1.3-1.3-1-2.2l54.3-151.4c0.3-0.7,0.9-1.2,1.7-1.2
						c1,0,1.7,0.8,1.7,1.8c0,0.2,0,0.4-0.1,0.6L596.4,456C596.1,456.7,595.5,457.2,594.7,457.2z"/>
					<path class="st1" d="M649,302.8L649,302.8c0.1,0,0.3,0,0.4,0.1c0.6,0.2,1,0.9,0.8,1.6l-54.3,151.4c-0.2,0.5-0.7,0.8-1.2,0.8
						c-0.1,0-0.3,0-0.4-0.1c-0.6-0.2-1-0.9-0.8-1.6l54.3-151.4C648,303.1,648.5,302.7,649,302.8 M649,301.8c-0.9,0-1.8,0.6-2.1,1.5
						l-54.3,151.4c-0.4,1.2,0.2,2.4,1.3,2.9c0,0,0,0,0,0c1.1,0.4,2.4-0.2,2.9-1.3c0,0,0,0,0,0l54.3-151.4c0.4-1.2-0.2-2.4-1.3-2.9
						C649.5,301.8,649.3,301.8,649,301.8L649,301.8z"/>
				</g>
				<g class="st3">
					<path class="st0" d="M594.3,457c-0.4,0-0.8-0.1-1.1-0.4c-0.4-0.3-0.6-0.7-0.6-1.2c0-0.5,0.1-0.9,0.4-1.3l104.5-122.4
						c0.6-0.7,1.7-0.8,2.5-0.2c0,0,0,0,0,0c0.7,0.6,0.8,1.7,0.2,2.5L595.6,456.3C595.3,456.7,594.8,457,594.3,457z"/>
					<path class="st1" d="M698.8,331.6c0.3,0,0.6,0.1,0.8,0.3c0.2,0.2,0.4,0.5,0.4,0.9c0,0.3-0.1,0.7-0.3,0.9L595.3,456
						c-0.3,0.3-0.6,0.4-1,0.4c-0.3,0-0.6-0.1-0.8-0.3c-0.5-0.5-0.6-1.2-0.1-1.8L697.8,332C698.1,331.8,698.4,331.6,698.8,331.6
						 M698.8,330.6c-0.7,0-1.3,0.3-1.7,0.8L592.6,453.8c-0.8,0.9-0.7,2.4,0.2,3.2c0.9,0.8,2.4,0.7,3.2-0.2l104.5-122.3
						c0.8-0.9,0.7-2.4-0.2-3.2l0,0C699.8,330.8,699.3,330.6,698.8,330.6L698.8,330.6z"/>
				</g>
			</g>
			<g class="st2">
				<circle class="st5" cx="521.9" cy="270" r="5.5"/>
				<path class="st6" d="M521.9,265c2.8,0,5,2.2,5,5s-2.2,5-5,5s-5-2.2-5-5S519.2,265,521.9,265 M521.9,264c-3.3,0-6,2.7-6,6
					s2.7,6,6,6s6-2.7,6-6S525.2,264,521.9,264z"/>
			</g>
			<circle class="st7" cx="621.4" cy="210.5" r="6"/>
			<g class="st2">
				<circle class="st5" cx="319.4" cy="121.5" r="9.5"/>
				<path class="st6" d="M319.4,112.5c5,0,9,4,9,9s-4,9-9,9s-9-4-9-9l0,0C310.4,116.5,314.4,112.5,319.4,112.5 M319.4,111.5
					c-5.5,0-10,4.5-10,10s4.5,10,10,10s10-4.5,10-10S324.9,111.5,319.4,111.5z"/>
			</g>
			<circle class="st8" cx="362.4" cy="352.5" r="3"/>
			<g class="st2">
				<circle class="st5" cx="279.4" cy="365.5" r="5.5"/>
				<path class="st9" d="M279.4,360.5c2.8,0,5,2.2,5,5s-2.2,5-5,5s-5-2.2-5-5S276.7,360.5,279.4,360.5 M279.4,359.5
					c-3.3,0-6,2.7-6,6s2.7,6,6,6s6-2.7,6-6S282.7,359.5,279.4,359.5z"/>
			</g>
			<circle class="st7" cx="119.9" cy="249" r="10"/>
			<circle class="st7" cx="333.9" cy="10" r="10"/>
			<circle class="st7" cx="614.9" cy="316.6" r="22.5"/>
			<g class="st2">
				<circle class="st5" cx="527.4" cy="357.1" r="9.5"/>
				<path class="st9" d="M527.4,348.1c5,0,9,4,9,9s-4,9-9,9s-9-4-9-9S522.4,348.1,527.4,348.1 M527.4,347.1c-5.5,0-10,4.5-10,10
					s4.5,10,10,10s10-4.5,10-10S532.9,347.1,527.4,347.1z"/>
			</g>
			<polygon class="st7" points="295.2,544.6 295.2,575 305.3,564.5 319.7,564.8 			"/>
			<g class="st2">
				<polygon class="st5" points="459.9,82.7 482.5,101.3 469.3,101.1 459.9,110.9 				"/>
				<path class="st6" d="M460.4,83.7l20.7,17.1l-11.5-0.2h-0.4l-0.3,0.3l-8.5,8.8L460.4,83.7 M459.4,81.6v30.5l10.2-10.5l14.4,0.3
					L459.4,81.6L459.4,81.6z"/>
			</g>
			<g class="st2">
				<line class="st10" x1="312.4" y1="213.6" x2="343.4" y2="213.6"/>
				<line class="st10" x1="327.9" y1="198.1" x2="327.9" y2="229.1"/>
			</g>
			<path class="st7" d="M473.8,76c-0.3,0-0.7-0.1-0.9-0.3c-0.2-0.2-0.4-0.5-0.4-0.9v-2.4c0-0.3,0.1-0.7,0.3-0.9
				c0.2-0.2,0.5-0.4,0.9-0.3h3.3c0.4,0,0.9-0.1,1.3-0.2c0.3-0.1,0.6-0.4,0.8-0.7c0.2-0.4,0.3-0.7,0.3-1.2c0-0.8-0.4-1.5-1.2-1.8
				c-0.4-0.2-0.8-0.2-1.3-0.2c-0.4,0-0.9,0.1-1.3,0.3c-0.3,0.2-0.6,0.4-0.8,0.7c-0.2,0.3-0.4,0.7-0.5,1.1c-0.1,0.2-0.2,0.3-0.2,0.4
				c-0.1,0.1-0.2,0.2-0.4,0.3c-0.2,0.1-0.4,0.1-0.7,0.1c-0.3,0-0.6-0.1-0.9-0.3c-0.2-0.2-0.4-0.5-0.4-0.9c0-0.8,0.2-1.6,0.7-2.3
				c0.5-0.7,1.1-1.2,1.8-1.5c0.9-0.3,1.8-0.5,2.7-0.5c0.9,0,1.9,0.2,2.7,0.5c0.7,0.3,1.3,0.9,1.7,1.6c0.4,0.7,0.6,1.6,0.6,2.4
				c0,0.8-0.2,1.6-0.6,2.3c-0.4,0.7-1.1,1.2-1.8,1.5c-1,0.4-2,0.6-3.1,0.6h-1.8l0.3-0.8v2.1c0,0.3-0.1,0.6-0.4,0.9
				C474.5,75.9,474.2,76,473.8,76z M473.8,80.1c-0.4,0-0.9-0.1-1.2-0.4c-0.6-0.6-0.6-1.6,0-2.2c0.3-0.3,0.7-0.4,1.2-0.4
				c0.4,0,0.8,0.1,1.1,0.4c0.6,0.6,0.6,1.6,0,2.2C474.7,80,474.3,80.1,473.8,80.1L473.8,80.1z"/>
			<g class="st2">
				<g class="st3">
					<path class="st0" d="M234.6,76.7c-10.8,0-19.5-8.7-19.5-19.5c0-10.8,8.7-19.5,19.5-19.5c10.8,0,19.5,8.7,19.5,19.5
						c0,5.2-2.1,10.1-5.7,13.8C244.8,74.7,239.8,76.7,234.6,76.7z"/>
					<path class="st4" d="M234.6,38.2c10.5,0,19,8.5,19,19c0,10.5-8.5,19-19,19c-10.5,0-19-8.5-19-19c0-5,2-9.9,5.6-13.4
						C224.7,40.2,229.6,38.2,234.6,38.2 M234.6,37.2c-11,0-20,9-20,20c0,11,9,20,20,20c11,0,20-9,20-20c0-5.3-2.1-10.4-5.9-14.1
						C245,39.3,239.9,37.2,234.6,37.2z"/>
				</g>
				<g class="st3">
					<line class="st11" x1="222.1" y1="57.2" x2="247.1" y2="57.2"/>
					<line class="st11" x1="234.6" y1="44.7" x2="234.6" y2="69.7"/>
				</g>
				
					<rect x="253.4" y="67.4" transform="matrix(0.7071 -0.7071 0.7071 0.7071 19.9591 203.7187)" class="st6" width="5" height="20.8"/>
			</g>
			<g class="st2">
				<g class="st3">
					<path class="st0" d="M445.8,272.6c-10.8,0-19.5-8.7-19.5-19.5s8.7-19.5,19.5-19.5c10.8,0,19.5,8.7,19.5,19.5
						c0,5.2-2.1,10.1-5.7,13.8C455.9,270.5,450.9,272.6,445.8,272.6z"/>
					<path class="st4" d="M445.8,234.1c10.5,0,19,8.5,19,19c0,10.5-8.5,19-19,19s-19-8.5-19-19c0-5,2-9.9,5.6-13.4
						C435.9,236,440.7,234,445.8,234.1 M445.8,233.1c-11,0-20,9-20,20c0,11,9,20,20,20c11,0,20-9,20-20c0-5.3-2.1-10.4-5.9-14.1
						C456.2,235.2,451.1,233,445.8,233.1z"/>
				</g>
				<line class="st10" x1="433.3" y1="253.1" x2="458.3" y2="253.1"/>
				
					<rect x="464.5" y="263.2" transform="matrix(0.7071 -0.7071 0.7071 0.7071 -56.6865 410.3766)" class="st6" width="5" height="20.8"/>
			</g>
		</g>
	</g>
</g>
</svg>
