<?xml version="1.0" encoding="utf-8"?>
<!-- Generator: Adobe Illustrator 24.2.0, SVG Export Plug-In . SVG Version: 6.00 Build 0)  -->
<svg version="1.1" id="Layer_1" xmlns="http://www.w3.org/2000/svg" xmlns:xlink="http://www.w3.org/1999/xlink" x="0px" y="0px"
	 viewBox="0 0 540 949.8" style="enable-background:new 0 0 540 949.8;" xml:space="preserve">
<style type="text/css">
	.st0{fill:none;stroke:#FFFFFF;stroke-width:0.9921;stroke-miterlimit:10;}
	.st1{opacity:0.5;fill:none;stroke:#FFFFFF;stroke-width:0.9921;stroke-miterlimit:10;stroke-dasharray:166.2092,166.2092;}
	.st2{opacity:0.5;fill:none;stroke:#FFFFFF;stroke-width:0.9921;stroke-miterlimit:10;stroke-dasharray:376.2607,376.2607;}
	.st3{opacity:0.5;fill:none;stroke:#FFFFFF;stroke-width:0.9921;stroke-miterlimit:10;stroke-dasharray:329.1443,329.1443;}
	.st4{opacity:0.5;fill:none;stroke:#FFFFFF;stroke-width:0.9921;stroke-miterlimit:10;stroke-dasharray:113.1018,113.1018;}
	.st5{opacity:0.5;fill:none;stroke:#FFFFFF;stroke-width:0.9921;stroke-miterlimit:10;stroke-dasharray:251.276,251.276;}
	.st6{opacity:0.5;fill:none;stroke:#FFFFFF;stroke-width:0.9921;stroke-miterlimit:10;stroke-dasharray:439.7331,439.7331;}
	.st7{opacity:0.5;fill:none;stroke:#FFFFFF;stroke-width:0.9921;stroke-miterlimit:10;stroke-dasharray:69.1009,69.1009;}
	.st8{opacity:0.5;fill:none;stroke:#FFFFFF;stroke-width:0.9921;stroke-miterlimit:10;stroke-dasharray:141.3429,141.3429;}
	.st9{opacity:0.5;fill:none;stroke:#FFFFFF;stroke-width:0.9921;stroke-miterlimit:10;stroke-dasharray:62.8053,62.8053;}
	.st10{fill:#FFFFFF;stroke:#FFFFFF;stroke-miterlimit:10;}
	.st11{stroke:#FFFFFF;stroke-miterlimit:10;}
	.st12{fill:none;stroke:#FFFFFF;stroke-miterlimit:10;}
	.st13{fill:#FFFFFF;}
</style>
<g id="Layer_2_1_">
	<g id="Layer_1-2">
		<g>
			<polygon class="st0" points="254.5,917.2 275,948.9 285.4,932.8 275,948.9 			"/>
			<path class="st0" d="M302.1,907c11.3-17.4,22.6-34.6,33.8-51.4l0,0C324.6,872.5,313.3,889.8,302.1,907z"/>
			<path class="st0" d="M234.8,886.9c-6.9-10.6-13.8-21-20.7-31.4l0,0C220.8,865.8,227.8,876.2,234.8,886.9z"/>
			<path class="st0" d="M336,94.3c-4.9-7.4-9.9-15-15-22.7C326,79.2,331,86.8,336,94.3z"/>
			<path class="st1" d="M12,447.2c15.3-145.3,145.5-250.6,290.8-235.3c139.7,14.7,243.5,136,236.4,276.3c-0.2,4.8-0.6,9.6-1.1,14.4
				c-15.3,145.3-145.5,250.6-290.8,235.3C107.7,723.2,3.8,601.8,10.9,461.6C11.1,456.8,11.4,452,12,447.2z"/>
			<path class="st2" d="M376.7,691.7C257,747.9,114.4,696.3,58.2,576.6s-4.6-262.3,115.1-318.5s262.3-4.6,318.5,115.1
				c27,57.5,30,123.4,8.4,183.1C478.8,616.1,434.3,664.9,376.7,691.7z"/>
			<path class="st3" d="M268.6,684.3C153,680.8,62.1,584.2,65.6,468.6C69.1,352.9,165.7,262,281.3,265.5
				C397,269,487.9,365.6,484.4,481.2c-1.7,55.5-25.4,108.1-65.8,146.2C378.2,665.7,324.2,686.1,268.6,684.3z"/>
			
				<ellipse transform="matrix(0.7071 -0.7071 0.7071 0.7071 -255.26 333.5491)" class="st4" cx="275" cy="474.9" rx="180" ry="180"/>
			<circle class="st5" cx="275" cy="474.9" r="160"/>
			<circle class="st6" cx="275" cy="474.9" r="140"/>
			<circle class="st7" cx="275" cy="474.9" r="110"/>
			<circle class="st8" cx="275" cy="474.9" r="90"/>
			<circle class="st9" cx="275" cy="474.9" r="60"/>
			<g>
				<circle class="st10" cx="412" cy="499.9" r="5.5"/>
				<path class="st11" d="M412,494.9c2.8,0,5,2.2,5,5s-2.2,5-5,5s-5-2.2-5-5S409.2,494.9,412,494.9 M412,493.9c-3.3,0-6,2.7-6,6
					s2.7,6,6,6s6-2.7,6-6l0,0C418,496.6,415.3,493.9,412,493.9z"/>
			</g>
			<circle class="st12" cx="511.5" cy="440.4" r="6"/>
			<g>
				<circle class="st12" cx="209.5" cy="351.4" r="9.5"/>
				<path class="st11" d="M209.5,342.4c5,0,9,4,9,9s-4,9-9,9s-9-4-9-9S204.5,342.4,209.5,342.4 M209.5,341.4c-5.5,0-10,4.5-10,10
					s4.5,10,10,10s10-4.5,10-10S215,341.4,209.5,341.4z"/>
			</g>
			<circle class="st12" cx="252.5" cy="582.4" r="3"/>
			<g>
				<circle class="st10" cx="169.5" cy="595.4" r="5.5"/>
				<path class="st11" d="M169.5,590.4c2.8,0,5,2.2,5,5s-2.2,5-5,5s-5-2.2-5-5S166.7,590.4,169.5,590.4 M169.5,589.4
					c-3.3,0-6,2.7-6,6s2.7,6,6,6s6-2.7,6-6S172.8,589.4,169.5,589.4z"/>
			</g>
			<circle class="st12" cx="10" cy="478.9" r="10"/>
			<circle class="st10" cx="224" cy="239.9" r="10"/>
			<circle class="st12" cx="475.9" cy="567.3" r="22.5"/>
			<g>
				<circle class="st10" cx="277" cy="683.9" r="9.5"/>
				<path class="st11" d="M277,674.9c5,0,9,4,9,9s-4,9-9,9s-9-4-9-9S272,674.9,277,674.9 M277,673.9c-5.5,0-10,4.5-10,10
					s4.5,10,10,10s10-4.5,10-10S282.5,673.9,277,673.9z"/>
			</g>
			<polygon class="st10" points="202,740.5 202,770.9 212.2,760.4 226.5,760.7 			"/>
			<g>
				<polygon class="st10" points="336,173.6 358.6,192.2 345.5,192 336,201.8 				"/>
				<path class="st10" d="M336.5,174.6l20.7,17.1l-11.5-0.2h-0.4l-0.3,0.3l-8.5,8.8L336.5,174.6 M335.5,172.5V203l10.2-10.5
					l14.3,0.3L335.5,172.5L335.5,172.5z"/>
			</g>
			<g>
				<line class="st0" x1="397" y1="644.4" x2="428" y2="644.4"/>
				<line class="st0" x1="412.5" y1="628.9" x2="412.5" y2="659.9"/>
			</g>
			<path class="st13" d="M350.9,171.9c-0.3,0-0.7-0.1-0.9-0.3c-0.2-0.2-0.4-0.5-0.4-0.9v-2.4c0-0.3,0.1-0.7,0.3-0.9
				c0.2-0.2,0.5-0.4,0.9-0.4h3.3c0.4,0,0.9-0.1,1.3-0.2c0.3-0.1,0.6-0.4,0.8-0.7c0.2-0.3,0.3-0.7,0.3-1.1c0-0.4-0.1-0.8-0.3-1.1
				c-0.2-0.3-0.5-0.5-0.9-0.7c-0.4-0.2-0.8-0.2-1.3-0.2c-0.4,0-0.9,0.1-1.3,0.3c-0.3,0.2-0.6,0.4-0.8,0.7c-0.2,0.3-0.3,0.7-0.4,1.1
				c-0.1,0.2-0.2,0.3-0.2,0.4c-0.1,0.1-0.2,0.2-0.4,0.3c-0.2,0.1-0.4,0.1-0.7,0.1c-0.3,0-0.6-0.1-0.9-0.3c-0.2-0.2-0.4-0.5-0.4-0.9
				c0-0.8,0.2-1.6,0.6-2.3c0.5-0.7,1.1-1.2,1.8-1.5c0.9-0.4,1.8-0.5,2.7-0.5c0.9,0,1.9,0.2,2.7,0.6c0.7,0.3,1.3,0.9,1.7,1.6
				c0.4,0.7,0.6,1.6,0.6,2.4c0,0.8-0.2,1.6-0.6,2.3c-0.4,0.7-1.1,1.2-1.8,1.5c-1,0.4-2,0.6-3.1,0.5h-1.8l0.3-0.8v2.1
				c0,0.3-0.1,0.6-0.4,0.9C351.6,171.8,351.2,171.9,350.9,171.9z M350.9,176c-0.4,0-0.8-0.1-1.2-0.4c-0.3-0.3-0.5-0.7-0.4-1.1
				c0-0.4,0.1-0.8,0.4-1.1c0.3-0.3,0.7-0.4,1.2-0.4c0.4,0,0.8,0.1,1.1,0.4c0.3,0.3,0.4,0.7,0.4,1.1c0,0.4-0.1,0.8-0.4,1.1
				C351.8,175.9,351.3,176,350.9,176L350.9,176z"/>
			<polygon class="st0" points="295.5,32.6 275,0.9 264.6,17 275,0.9 			"/>
			<path class="st0" d="M247.9,42.8c-11.3,17.4-22.6,34.6-33.8,51.4l0,0C225.4,77.3,236.7,60,247.9,42.8z"/>
			<g>
				<g>
					<path class="st12" d="M124.7,306.6c-10.8,0-19.5-8.7-19.5-19.5s8.7-19.5,19.5-19.5s19.5,8.7,19.5,19.5c0,5.2-2.1,10.1-5.7,13.8
						C134.8,304.6,129.9,306.6,124.7,306.6z"/>
					<path class="st12" d="M124.7,268.1c10.5,0,19,8.5,19,19s-8.5,19-19,19s-19-8.5-19-19c0-5,2-9.9,5.6-13.4
						C114.8,270.1,119.7,268.1,124.7,268.1 M124.7,267.1c-11,0-20,8.9-20.1,19.9c0,11,8.9,20,19.9,20.1s20-8.9,20.1-19.9
						c0-5.3-2.1-10.4-5.8-14.1C135.1,269.2,130,267.1,124.7,267.1L124.7,267.1z"/>
				</g>
				<g>
					<line class="st0" x1="112.2" y1="287.1" x2="137.2" y2="287.1"/>
					<line class="st0" x1="124.7" y1="274.6" x2="124.7" y2="299.6"/>
				</g>
				
					<rect x="143.5" y="297.3" transform="matrix(0.7071 -0.7071 0.7071 0.7071 -174.7993 193.3284)" class="st10" width="5" height="20.8"/>
			</g>
			<g>
				<g>
					<path class="st12" d="M316,766.4c-10.8,0-19.5-8.7-19.5-19.5c0-10.8,8.7-19.5,19.5-19.5s19.5,8.7,19.5,19.5
						c0,5.2-2.1,10.1-5.7,13.8C326.1,764.4,321.1,766.4,316,766.4z"/>
					<path class="st12" d="M316,728c10.5,0,19,8.5,19,19s-8.5,19-19,19s-19-8.5-19-19c0-5,2-9.9,5.6-13.4
						C306.1,729.9,310.9,727.9,316,728 M316,727c-11,0-20,9-19.9,20.1s9,20,20.1,19.9c11,0,20-9,19.9-20.1c0-5.3-2.1-10.4-5.9-14.1
						C326.4,729,321.3,726.9,316,727z"/>
				</g>
				<line class="st0" x1="303.5" y1="746.9" x2="328.5" y2="746.9"/>
				
					<rect x="334.7" y="757.1" transform="matrix(0.7071 -0.7071 0.7071 0.7071 -443.9189 463.2537)" class="st10" width="5" height="20.8"/>
			</g>
		</g>
	</g>
</g>
</svg>
