<svg version="1.1" id="Layer_1" xmlns="http://www.w3.org/2000/svg" xmlns:xlink="http://www.w3.org/1999/xlink" x="0px" y="0px"
	 viewBox="0 0 94.566 44.566" style="enable-background:new 0 0 94.566 44.566;" xml:space="preserve">
<style type="text/css">
	.st0{fill:#F1E297;stroke:#004B55;stroke-width:0.5;stroke-miterlimit:9.8937;}
	.st1{fill:#F1E297;}
	.st2{fill:#004B55;}
</style>
<g>
	<path class="st0" d="M36.465,20.934H8.038c4.168,2.802,8.646,5.176,13.376,7.05l15.55-4.167
		C36.671,22.903,36.505,21.934,36.465,20.934z"/>
	<path class="st0" d="M36.455,20.733L7.768,20.758c0.089,0.06,0.18,0.116,0.269,0.176h28.427
		C36.462,20.867,36.456,20.801,36.455,20.733z"/>
	<path class="st0" d="M36.964,23.817l-15.55,4.167c2.947,1.167,5.995,2.133,9.122,2.899l7.684-4.436
		C37.691,25.637,37.264,24.755,36.964,23.817z"/>
	<path class="st0" d="M7.735,20.736c0.005,0.004,0.011,0.007,0.017,0.011c0.006-0.004,0.011-0.007,0.017-0.011H7.735z"/>
	<path class="st0" d="M58.251,20.934h28.328c0.122-0.082,0.248-0.16,0.37-0.243l-28.687,0.024
		C58.26,20.788,58.253,20.861,58.251,20.934z"/>
	<path class="st0" d="M38.22,26.446l-7.684,4.436c1.989,0.487,4.007,0.898,6.058,1.211l3.487-3.487
		C39.372,27.97,38.743,27.247,38.22,26.446z"/>
	<path class="st0" d="M57.813,23.615l15.76,4.223c4.597-1.85,8.952-4.173,13.006-6.904H58.251
		C58.213,21.861,58.068,22.76,57.813,23.615z"/>
	<path class="st0" d="M86.981,20.67h-0.032c0.005,0.004,0.011,0.007,0.016,0.01C86.97,20.676,86.976,20.673,86.981,20.67z"/>
	<path class="st0" d="M52.915,29.872l1.538,2.664c1.458-0.147,2.903-0.336,4.334-0.571l-3.736-3.736
		C54.413,28.863,53.692,29.41,52.915,29.872z"/>
	<path class="st0" d="M50.451,30.956l0.495,1.847c1.177-0.06,2.346-0.149,3.506-0.267l-1.538-2.664
		C52.148,30.328,51.324,30.697,50.451,30.956z"/>
	<path class="st0" d="M47.755,31.389v1.51c1.07-0.007,2.133-0.041,3.192-0.095l-0.495-1.847
		C49.592,31.21,48.688,31.355,47.755,31.389z"/>
	<path class="st0" d="M55.05,28.229l3.736,3.736c2.008-0.33,3.986-0.747,5.933-1.242l-8.012-4.626
		C56.241,26.874,55.689,27.594,55.05,28.229z"/>
	<path class="st0" d="M42.402,30.207l-1.391,2.41c1.18,0.105,2.365,0.191,3.561,0.237l0.456-1.702
		C44.102,30.95,43.223,30.628,42.402,30.207z"/>
	<path class="st0" d="M57.813,23.615c-0.263,0.881-0.64,1.71-1.105,2.482l8.012,4.626c3.034-0.772,5.991-1.734,8.853-2.885
		L57.813,23.615z"/>
	<path class="st0" d="M40.081,28.607l-3.487,3.487c1.456,0.223,2.931,0.391,4.415,0.523l1.391-2.41
		C41.558,29.774,40.781,29.235,40.081,28.607z"/>
	<path class="st0" d="M47.358,31.409c-0.8,0-1.579-0.092-2.33-0.256l-0.456,1.702c0.91,0.035,1.824,0.052,2.742,0.052
		c0.148,0,0.294-0.008,0.441-0.008v-1.51C47.622,31.393,47.492,31.409,47.358,31.409z"/>
	<path class="st0" d="M58.02,18.175l16.215-4.345c-2.894-1.195-5.882-2.203-8.955-3.008l-8.2,4.734
		C57.498,16.376,57.819,17.252,58.02,18.175z"/>
	<path class="st0" d="M57.08,15.556l8.2-4.734c-2.001-0.524-4.037-0.961-6.104-1.309l-3.704,3.704
		C56.104,13.921,56.646,14.705,57.08,15.556z"/>
	<path class="st0" d="M7.735,20.758h0.034c-0.006-0.004-0.011-0.007-0.017-0.011C7.746,20.75,7.74,20.754,7.735,20.758z"/>
	<path class="st0" d="M55.471,13.217l3.704-3.704C57.699,9.264,56.207,9.06,54.7,8.905l-1.408,2.439
		C54.1,11.87,54.83,12.502,55.471,13.217z"/>
	<path class="st0" d="M86.981,20.691c-0.005-0.004-0.011-0.007-0.016-0.01c-0.005,0.004-0.011,0.007-0.016,0.01H86.981z"/>
	<path class="st0" d="M58.273,20.494c0,0.068-0.009,0.133-0.01,0.2l28.686-0.024c-3.969-2.694-8.228-4.987-12.714-6.839
		L58.02,18.175C58.182,18.923,58.273,19.698,58.273,20.494z"/>
	<path class="st0" d="M42.012,10.987l-1.239-2.146c-1.528,0.143-3.045,0.328-4.543,0.568l3.392,3.392
		C40.328,12.091,41.134,11.482,42.012,10.987z"/>
	<path class="st0" d="M36.443,20.494c0-0.87,0.113-1.712,0.306-2.523l-15.896-4.259c-4.628,1.887-9.012,4.245-13.084,7.025
		l28.686-0.024C36.452,20.638,36.443,20.567,36.443,20.494z"/>
	<path class="st0" d="M37.823,15.193l-7.792-4.499c-3.149,0.8-6.215,1.808-9.179,3.017l15.896,4.259
		C36.983,16.987,37.343,16.054,37.823,15.193z"/>
	<path class="st0" d="M53.291,11.344L54.7,8.905c-1.203-0.124-2.415-0.217-3.635-0.28l-0.394,1.471
		C51.606,10.394,52.484,10.819,53.291,11.344z"/>
	<path class="st0" d="M39.622,12.801L36.23,9.409c-2.099,0.335-4.165,0.769-6.198,1.286l7.792,4.499
		C38.313,14.315,38.918,13.509,39.622,12.801z"/>
	<path class="st0" d="M50.67,10.096l0.394-1.471c-1.097-0.056-2.199-0.093-3.31-0.099v1.072C48.767,9.635,49.746,9.801,50.67,10.096
		z"/>
	<path class="st0" d="M47.358,9.579c0.134,0,0.264,0.015,0.397,0.02V8.526C47.637,8.526,47.52,8.52,47.402,8.52
		c-0.987,0-1.968,0.024-2.946,0.064l0.351,1.308C45.627,9.694,46.478,9.579,47.358,9.579z"/>
	<path class="st0" d="M44.807,9.892l-0.351-1.308c-1.237,0.051-2.463,0.143-3.683,0.257l1.239,2.146
		C42.877,10.498,43.816,10.13,44.807,9.892z"/>
	<path class="st1" d="M42.813,23.794l-4.197,2.424c0.503,0.767,1.107,1.458,1.789,2.067l3.42-3.42
		C43.441,24.554,43.103,24.193,42.813,23.794z"/>
	<path class="st1" d="M42.09,22.444l-4.68,1.254c0.289,0.9,0.698,1.745,1.206,2.52l4.197-2.424
		C42.513,23.382,42.27,22.929,42.09,22.444z"/>
	<path class="st1" d="M41.757,20.934h-4.829c0.04,0.96,0.2,1.888,0.482,2.764l4.68-1.254C41.913,21.967,41.798,21.461,41.757,20.934
		z"/>
	<path class="st1" d="M43.824,24.864l-3.42,3.42c0.671,0.599,1.417,1.113,2.227,1.524l2.42-4.192
		C44.609,25.418,44.197,25.165,43.824,24.864z"/>
	<path class="st1" d="M41.747,20.729l-4.829,0.004c0.002,0.067,0.007,0.134,0.01,0.201h4.829
		C41.752,20.866,41.75,20.797,41.747,20.729z"/>
	<path class="st1" d="M45.051,25.617l-2.42,4.192c0.787,0.4,1.629,0.707,2.516,0.898l1.254-4.678
		C45.928,25.947,45.476,25.808,45.051,25.617z"/>
	<path class="st1" d="M52.699,22.244l4.669,1.251c0.244-0.816,0.383-1.675,0.42-2.562h-4.829
		C52.923,21.388,52.836,21.827,52.699,22.244z"/>
	<path class="st1" d="M51.311,24.49l3.417,3.417c0.611-0.607,1.138-1.295,1.584-2.038l-4.181-2.414
		C51.897,23.831,51.624,24.18,51.311,24.49z"/>
	<path class="st1" d="M52.959,20.934h4.829c0.003-0.073,0.009-0.145,0.011-0.218l-4.829,0.004
		C52.966,20.791,52.964,20.863,52.959,20.934z"/>
	<path class="st1" d="M50.272,25.295l2.414,4.181c0.743-0.441,1.432-0.964,2.042-1.569l-3.417-3.417
		C50.999,24.798,50.649,25.066,50.272,25.295z"/>
	<path class="st1" d="M52.131,23.454l4.181,2.414c0.444-0.738,0.804-1.531,1.056-2.373l-4.669-1.251
		C52.558,22.673,52.365,23.078,52.131,23.454z"/>
	<path class="st1" d="M47.358,26.116c-0.327,0-0.645-0.034-0.957-0.087l-1.254,4.678c0.713,0.153,1.451,0.238,2.211,0.238
		c0.134,0,0.264-0.015,0.397-0.02v-4.829C47.623,26.105,47.492,26.116,47.358,26.116z"/>
	<path class="st1" d="M47.755,26.095v4.829c0.892-0.033,1.756-0.172,2.577-0.414l-1.25-4.666
		C48.659,25.98,48.214,26.063,47.755,26.095z"/>
	<path class="st1" d="M49.082,25.844l1.25,4.666c0.834-0.247,1.621-0.599,2.354-1.035l-2.414-4.181
		C49.901,25.521,49.503,25.708,49.082,25.844z"/>
	<path class="st1" d="M47.358,14.87c0.134,0,0.265,0.011,0.397,0.02v-4.828c-0.133-0.005-0.263-0.02-0.397-0.02
		c-0.839,0-1.65,0.109-2.432,0.295l1.249,4.66C46.556,14.915,46.952,14.87,47.358,14.87z"/>
	<path class="st1" d="M46.175,14.997l-1.249-4.66c-0.952,0.227-1.854,0.579-2.685,1.046l2.413,4.18
		C45.124,15.304,45.635,15.112,46.175,14.997z"/>
	<path class="st1" d="M44.654,15.563l-2.413-4.18c-0.844,0.475-1.618,1.059-2.296,1.741l3.416,3.416
		C43.741,16.155,44.176,15.825,44.654,15.563z"/>
	<path class="st1" d="M43.361,16.54l-3.416-3.416c-0.676,0.68-1.256,1.454-1.725,2.298l4.182,2.415
		C42.658,17.359,42.982,16.922,43.361,16.54z"/>
	<path class="st1" d="M41.735,20.493c0-0.396,0.042-0.781,0.12-1.154l-4.66-1.249c-0.182,0.773-0.288,1.575-0.288,2.404
		c0,0.073,0.009,0.145,0.011,0.218l4.829-0.004C41.743,20.635,41.735,20.565,41.735,20.493z"/>
	<path class="st1" d="M42.402,17.837l-4.182-2.415c-0.459,0.826-0.803,1.723-1.025,2.668l4.66,1.249
		C41.965,18.806,42.152,18.302,42.402,17.837z"/>
	<path class="st1" d="M52.895,19.548l4.678-1.253c-0.19-0.884-0.496-1.722-0.894-2.507l-4.188,2.418
		C52.68,18.628,52.816,19.078,52.895,19.548z"/>
	<path class="st1" d="M52.492,18.206l4.188-2.418c-0.414-0.816-0.93-1.568-1.534-2.244l-3.416,3.416
		C52.035,17.337,52.291,17.756,52.492,18.206z"/>
	<path class="st1" d="M52.981,20.493c0,0.069-0.008,0.137-0.01,0.205l4.829-0.004c0.001-0.067,0.01-0.133,0.01-0.2
		c0-0.755-0.084-1.49-0.237-2.199l-4.678,1.253C52.948,19.856,52.981,20.17,52.981,20.493z"/>
	<path class="st1" d="M50.641,15.934l2.419-4.19c-0.773-0.505-1.615-0.912-2.51-1.2l-1.253,4.676
		C49.78,15.398,50.231,15.638,50.641,15.934z"/>
	<path class="st1" d="M51.729,16.959l3.416-3.416c-0.614-0.687-1.311-1.294-2.085-1.799l-2.419,4.19
		C51.047,16.227,51.415,16.57,51.729,16.959z"/>
	<path class="st1" d="M49.297,15.22l1.253-4.676c-0.886-0.285-1.825-0.446-2.795-0.483v4.828
		C48.294,14.927,48.811,15.041,49.297,15.22z"/>
	<path class="st1" d="M41.746,20.707l-4.829,0.004c0,0.007,0.001,0.014,0.001,0.022l4.829-0.004
		C41.746,20.722,41.746,20.715,41.746,20.707z"/>
	<path class="st1" d="M52.97,20.698c0,0.007-0.001,0.014-0.001,0.021l4.829-0.004c0-0.007,0.001-0.014,0.001-0.021L52.97,20.698z"/>
	<path class="st2" d="M47.755,31.145v0.244c0.933-0.034,1.837-0.178,2.697-0.433l-0.063-0.235
		C49.549,30.969,48.666,31.111,47.755,31.145z"/>
	<path class="st2" d="M47.358,31.165c-0.779,0-1.536-0.089-2.267-0.248l-0.063,0.235c0.752,0.164,1.53,0.256,2.33,0.256
		c0.134,0,0.264-0.015,0.397-0.02v-0.244C47.622,31.149,47.492,31.165,47.358,31.165z"/>
	<path class="st2" d="M50.388,30.72l0.063,0.235c0.873-0.258,1.696-0.627,2.463-1.084l-0.121-0.21
		C52.044,30.107,51.241,30.468,50.388,30.72z"/>
	<path class="st2" d="M52.793,29.662l0.121,0.21c0.777-0.462,1.498-1.009,2.135-1.643l-0.172-0.172
		C54.256,28.676,53.552,29.21,52.793,29.662z"/>
	<path class="st2" d="M56.498,25.976l0.21,0.121c0.465-0.772,0.842-1.602,1.105-2.482l-0.234-0.063
		C57.321,24.412,56.952,25.222,56.498,25.976z"/>
	<path class="st2" d="M54.879,28.057l0.172,0.172c0.639-0.635,1.19-1.355,1.658-2.132l-0.21-0.121
		C56.041,26.734,55.503,27.437,54.879,28.057z"/>
	<path class="st2" d="M42.524,29.995l-0.122,0.211c0.822,0.421,1.701,0.743,2.626,0.946l0.063-0.235
		C44.186,30.72,43.327,30.406,42.524,29.995z"/>
	<path class="st2" d="M36.708,20.934h-0.243c0.04,1.001,0.206,1.969,0.499,2.883l0.236-0.063
		C36.912,22.86,36.748,21.913,36.708,20.934z"/>
	<path class="st2" d="M36.698,20.733l-0.243,0c0.001,0.067,0.007,0.133,0.01,0.2h0.243C36.705,20.867,36.699,20.8,36.698,20.733z"/>
	<path class="st2" d="M58.007,20.934c-0.037,0.906-0.179,1.784-0.429,2.618l0.234,0.063c0.255-0.854,0.401-1.754,0.438-2.681H58.007
		z"/>
	<path class="st2" d="M58.007,20.934h0.243c0.003-0.073,0.01-0.145,0.011-0.219l-0.243,0C58.017,20.788,58.01,20.861,58.007,20.934z
		"/>
	<path class="st2" d="M40.253,28.435l-0.172,0.172c0.699,0.628,1.476,1.167,2.32,1.6l0.122-0.211
		C41.698,29.574,40.937,29.048,40.253,28.435z"/>
	<path class="st2" d="M38.43,26.324l-0.21,0.121c0.523,0.801,1.152,1.524,1.861,2.161l0.172-0.172
		C39.559,27.813,38.943,27.107,38.43,26.324z"/>
	<path class="st2" d="M37.199,23.754l-0.236,0.063c0.301,0.938,0.727,1.82,1.256,2.629l0.21-0.121
		C37.912,25.534,37.494,24.672,37.199,23.754z"/>
	<path class="st2" d="M55.301,13.388l0.171-0.171c-0.642-0.715-1.372-1.347-2.18-1.873l-0.121,0.209
		C53.961,12.069,54.674,12.688,55.301,13.388z"/>
	<path class="st2" d="M50.608,10.33l0.063-0.234c-0.924-0.295-1.903-0.46-2.916-0.497v0.242C48.745,9.877,49.703,10.04,50.608,10.33
		z"/>
	<path class="st2" d="M53.171,11.553l0.121-0.209c-0.807-0.525-1.686-0.95-2.621-1.249l-0.063,0.234
		C51.522,10.623,52.381,11.038,53.171,11.553z"/>
	<path class="st2" d="M58.03,20.493c0,0.068-0.009,0.134-0.01,0.201l0.243,0c0.001-0.067,0.01-0.132,0.01-0.2
		c0-0.796-0.091-1.57-0.253-2.318l-0.234,0.063C57.942,18.965,58.03,19.719,58.03,20.493z"/>
	<path class="st2" d="M47.358,9.821c0.134,0,0.264,0.015,0.397,0.02V9.599c-0.133-0.005-0.263-0.02-0.397-0.02
		c-0.88,0-1.731,0.116-2.551,0.313l0.063,0.233C45.669,9.933,46.5,9.821,47.358,9.821z"/>
	<path class="st2" d="M56.87,15.678l0.21-0.121c-0.434-0.851-0.976-1.635-1.609-2.339l-0.171,0.171
		C55.918,14.077,56.447,14.845,56.87,15.678z"/>
	<path class="st2" d="M57.785,18.238l0.234-0.063c-0.2-0.923-0.521-1.799-0.94-2.619l-0.21,0.121
		C57.277,16.479,57.591,17.336,57.785,18.238z"/>
	<path class="st2" d="M36.686,20.493c0-0.848,0.11-1.668,0.297-2.459l-0.234-0.063c-0.193,0.811-0.306,1.653-0.306,2.523
		c0,0.074,0.01,0.145,0.011,0.218l0.243,0C36.695,20.638,36.686,20.566,36.686,20.493z"/>
	<path class="st2" d="M42.133,11.196l-0.121-0.209c-0.878,0.496-1.684,1.104-2.39,1.814l0.171,0.171
		C40.484,12.277,41.273,11.681,42.133,11.196z"/>
	<path class="st2" d="M38.033,15.314l-0.209-0.121c-0.48,0.861-0.841,1.794-1.075,2.777l0.234,0.063
		C37.211,17.071,37.563,16.157,38.033,15.314z"/>
	<path class="st2" d="M39.793,12.972l-0.171-0.171c-0.704,0.708-1.309,1.514-1.799,2.392l0.209,0.121
		C38.512,14.454,39.104,13.665,39.793,12.972z"/>
	<path class="st2" d="M44.869,10.125l-0.063-0.233c-0.99,0.238-1.929,0.607-2.795,1.095l0.121,0.209
		C42.98,10.718,43.899,10.358,44.869,10.125z"/>
	<path class="st2" d="M36.697,20.712l-0.243,0c0,0.007,0.001,0.014,0.001,0.022l0.243,0C36.698,20.726,36.697,20.719,36.697,20.712z
		"/>
	<path class="st2" d="M58.019,20.715l0.243,0c0-0.007,0.001-0.014,0.001-0.021l-0.243,0C58.02,20.701,58.019,20.708,58.019,20.715z"
		/>
	<path class="st2" d="M47.358,30.945c-0.759,0-1.498-0.085-2.211-0.238l-0.056,0.211c0.731,0.159,1.489,0.248,2.267,0.248
		c0.134,0,0.264-0.015,0.397-0.02v-0.22C47.622,30.93,47.492,30.945,47.358,30.945z"/>
	<path class="st2" d="M47.755,30.925v0.22c0.911-0.034,1.794-0.175,2.634-0.424l-0.056-0.21
		C49.511,30.753,48.647,30.891,47.755,30.925z"/>
	<path class="st2" d="M52.686,29.476l0.107,0.186c0.759-0.451,1.463-0.985,2.085-1.604l-0.151-0.151
		C54.118,28.512,53.429,29.034,52.686,29.476z"/>
	<path class="st2" d="M50.332,30.51l0.056,0.21c0.852-0.253,1.656-0.613,2.405-1.059l-0.107-0.186
		C51.953,29.911,51.167,30.263,50.332,30.51z"/>
	<path class="st2" d="M57.799,20.715c-0.002,0.073-0.008,0.145-0.011,0.218h0.22c0.003-0.073,0.01-0.145,0.011-0.219L57.799,20.715z
		"/>
	<path class="st2" d="M57.368,23.496l0.21,0.056c0.25-0.834,0.392-1.713,0.429-2.618h-0.22C57.751,21.82,57.612,22.68,57.368,23.496
		z"/>
	<path class="st2" d="M54.728,27.906l0.151,0.151c0.624-0.62,1.163-1.323,1.619-2.082l-0.186-0.107
		C55.866,26.611,55.338,27.299,54.728,27.906z"/>
	<path class="st2" d="M56.312,25.869l0.186,0.107c0.454-0.754,0.823-1.564,1.081-2.424l-0.21-0.056
		C57.116,24.338,56.756,25.131,56.312,25.869z"/>
	<path class="st2" d="M36.928,20.934h-0.22c0.04,0.979,0.204,1.926,0.491,2.82l0.21-0.056
		C37.128,22.822,36.968,21.894,36.928,20.934z"/>
	<path class="st2" d="M36.918,20.733l-0.22,0c0.001,0.067,0.007,0.133,0.01,0.201h0.22C36.925,20.867,36.919,20.8,36.918,20.733z"/>
	<path class="st2" d="M37.41,23.698l-0.21,0.056c0.295,0.918,0.712,1.78,1.231,2.571l0.185-0.107
		C38.108,25.443,37.699,24.598,37.41,23.698z"/>
	<path class="st2" d="M42.632,29.809l-0.108,0.187c0.803,0.41,1.663,0.725,2.567,0.922l0.056-0.211
		C44.26,30.515,43.419,30.208,42.632,29.809z"/>
	<path class="st2" d="M38.616,26.217l-0.185,0.107c0.513,0.783,1.128,1.489,1.823,2.111l0.151-0.151
		C39.722,27.676,39.118,26.984,38.616,26.217z"/>
	<path class="st2" d="M40.404,28.284l-0.151,0.151c0.684,0.613,1.445,1.139,2.27,1.56l0.108-0.187
		C41.821,29.397,41.075,28.884,40.404,28.284z"/>
	<path class="st2" d="M55.145,13.543l0.156-0.156c-0.627-0.7-1.34-1.319-2.13-1.835l-0.11,0.191
		C53.834,12.249,54.531,12.857,55.145,13.543z"/>
	<path class="st2" d="M36.906,20.494c0-0.829,0.107-1.631,0.288-2.404l-0.211-0.057c-0.187,0.791-0.297,1.612-0.297,2.459
		c0,0.074,0.01,0.145,0.011,0.219l0.22,0C36.915,20.638,36.906,20.567,36.906,20.494z"/>
	<path class="st2" d="M56.679,15.788l0.191-0.11c-0.423-0.833-0.952-1.6-1.569-2.29l-0.156,0.156
		C55.749,14.219,56.266,14.971,56.679,15.788z"/>
	<path class="st2" d="M44.926,10.337l-0.057-0.212c-0.97,0.233-1.889,0.593-2.736,1.071l0.108,0.187
		C43.072,10.916,43.974,10.564,44.926,10.337z"/>
	<path class="st2" d="M53.06,11.744l0.11-0.191c-0.789-0.515-1.648-0.93-2.563-1.223l-0.057,0.214
		C51.446,10.832,52.287,11.239,53.06,11.744z"/>
	<path class="st2" d="M47.358,10.042c0.134,0,0.264,0.015,0.397,0.02V9.841c-0.133-0.005-0.263-0.02-0.397-0.02
		c-0.858,0-1.689,0.113-2.489,0.305l0.057,0.212C45.707,10.151,46.519,10.042,47.358,10.042z"/>
	<path class="st2" d="M50.55,10.544l0.057-0.214c-0.904-0.29-1.862-0.453-2.853-0.489v0.221
		C48.725,10.098,49.664,10.259,50.55,10.544z"/>
	<path class="st2" d="M38.22,15.422l-0.187-0.108c-0.47,0.842-0.822,1.756-1.05,2.719l0.211,0.057
		C37.417,17.145,37.761,16.248,38.22,15.422z"/>
	<path class="st2" d="M39.945,13.124l-0.152-0.152c-0.689,0.693-1.281,1.482-1.761,2.342l0.187,0.108
		C38.689,14.578,39.269,13.804,39.945,13.124z"/>
	<path class="st2" d="M57.573,18.295l0.212-0.057c-0.195-0.902-0.508-1.758-0.916-2.56l-0.191,0.11
		C57.077,16.573,57.384,17.411,57.573,18.295z"/>
	<path class="st2" d="M42.241,11.383l-0.108-0.187c-0.86,0.485-1.648,1.081-2.34,1.776l0.152,0.152
		C40.623,12.442,41.397,11.858,42.241,11.383z"/>
	<path class="st2" d="M57.81,20.494c0,0.068-0.009,0.133-0.01,0.2l0.22,0c0.001-0.068,0.01-0.133,0.01-0.201
		c0-0.774-0.087-1.527-0.244-2.255l-0.212,0.057C57.726,19.004,57.81,19.739,57.81,20.494z"/>
	<path class="st2" d="M36.917,20.711l-0.22,0c0,0.007,0.001,0.014,0.001,0.022l0.22,0C36.918,20.726,36.917,20.719,36.917,20.711z"
		/>
	<path class="st2" d="M57.799,20.715l0.22,0c0-0.007,0.001-0.014,0.001-0.021l-0.22,0C57.8,20.701,57.799,20.708,57.799,20.715z"/>

		<rect x="47.756" y="20.929" transform="matrix(0.5039 -0.8638 0.8638 0.5039 5.6133 51.638)" class="st2" width="0.004" height="0.007"/>
	<rect x="47.755" y="20.933" class="st2" width="0.001" height="0"/>

		<rect x="47.761" y="20.926" transform="matrix(0.4988 -0.8667 0.8667 0.4988 5.7988 51.8886)" class="st2" width="0.004" height="0.008"/>
	<polygon class="st2" points="47.763,20.925 47.766,20.934 47.766,20.934 47.769,20.923 47.766,20.923 	"/>
	<polygon class="st2" points="47.769,20.923 47.769,20.922 47.766,20.923 	"/>
	<polygon class="st2" points="47.755,20.934 47.755,20.934 47.755,20.934 	"/>

		<rect x="47.754" y="20.933" transform="matrix(0.7071 -0.7071 0.7071 0.7071 -0.8152 39.8988)" class="st2" width="0" height="0.001"/>
	<polygon class="st2" points="47.755,20.934 47.755,20.934 47.755,20.934 	"/>
	<polygon class="st2" points="47.755,20.934 47.755,20.934 47.755,20.934 	"/>
	<polygon class="st2" points="47.755,20.934 47.755,20.934 47.755,20.934 47.755,20.934 47.755,20.934 	"/>
	<polygon class="st2" points="47.756,20.933 47.758,20.929 47.755,20.928 47.755,20.934 47.755,20.934 	"/>
	<polygon class="st2" points="47.749,20.925 47.741,20.92 47.749,20.927 47.751,20.927 	"/>
	<polygon class="st2" points="47.752,20.926 47.751,20.927 47.754,20.933 47.755,20.934 47.755,20.928 	"/>
	<polygon class="st2" points="47.749,20.927 47.725,20.934 47.755,20.934 47.754,20.933 	"/>

		<rect x="47.739" y="20.914" transform="matrix(0.2577 -0.9662 0.9662 0.2577 15.2286 61.6597)" class="st2" width="0.008" height="0.01"/>
	<polygon class="st2" points="47.751,20.927 47.749,20.927 47.754,20.933 	"/>
	<polygon class="st2" points="47.545,20.724 47.402,20.724 47.729,20.913 47.736,20.915 	"/>
	<polygon class="st2" points="47.026,20.724 47.729,20.913 47.402,20.724 	"/>
	<polygon class="st2" points="47.775,20.898 47.77,20.918 47.965,20.724 47.876,20.724 	"/>
	<polygon class="st2" points="47.729,20.913 47.741,20.92 47.736,20.915 	"/>
	<polygon class="st2" points="47.762,20.921 47.763,20.922 47.766,20.923 47.77,20.918 47.775,20.898 	"/>
	<polygon class="st2" points="47.769,20.922 47.77,20.918 47.766,20.923 	"/>
	<polygon class="st2" points="47.756,20.933 47.759,20.93 47.758,20.929 	"/>
	<polygon class="st2" points="47.752,20.926 47.755,20.928 47.755,20.926 	"/>
	<polygon class="st2" points="47.761,20.924 47.758,20.929 47.759,20.93 47.763,20.925 47.763,20.923 	"/>
	<polygon class="st2" points="47.749,20.925 47.751,20.927 47.752,20.926 	"/>

		<rect x="47.756" y="20.919" transform="matrix(0.2597 -0.9657 0.9657 0.2597 15.1512 61.6091)" class="st2" width="0.004" height="0.007"/>
	<polygon class="st2" points="47.876,20.724 47.822,20.724 47.775,20.898 	"/>

		<rect x="47.756" y="20.933" transform="matrix(0.8662 -0.4997 0.4997 0.8662 -4.0718 26.6666)" class="st2" width="0.001" height="0.006"/>
	<polygon class="st2" points="47.545,20.724 47.736,20.915 47.745,20.917 47.633,20.724 	"/>
	<polygon class="st2" points="47.807,20.934 47.779,20.926 47.767,20.934 	"/>
	<polygon class="st2" points="47.755,20.934 47.755,20.934 47.755,20.934 	"/>
	<rect x="47.755" y="20.925" class="st2" width="0.005" height="0.004"/>
	<polygon class="st2" points="47.755,20.893 47.71,20.724 47.633,20.724 47.745,20.917 47.755,20.92 	"/>
	<polygon class="st2" points="47.762,20.921 47.775,20.898 47.822,20.724 47.755,20.724 47.755,20.893 	"/>
	<polygon class="st2" points="47.755,20.724 47.71,20.724 47.755,20.893 	"/>
	<polygon class="st2" points="47.755,20.926 47.755,20.92 47.745,20.917 47.749,20.925 47.752,20.926 	"/>
	<polygon class="st2" points="47.766,20.923 47.763,20.922 47.763,20.923 	"/>
	<polygon class="st2" points="47.763,20.925 47.766,20.923 47.763,20.923 	"/>

		<rect x="47.761" y="20.922" transform="matrix(0.9671 -0.2545 0.2545 0.9671 -3.7521 12.844)" class="st2" width="0.001" height="0.002"/>
	<polygon class="st2" points="47.763,20.922 47.762,20.921 47.762,20.922 	"/>
	<polygon class="st2" points="47.755,20.92 47.762,20.922 47.762,20.921 47.755,20.893 	"/>
	<path class="st2" d="M49.082,25.844c0.422-0.136,0.819-0.323,1.191-0.549l-2.497-4.325L49.082,25.844z"/>
	<polygon class="st2" points="47.766,20.934 47.767,20.934 47.779,20.926 47.769,20.923 	"/>
	<polygon class="st2" points="47.769,20.923 47.779,20.926 47.803,20.913 47.769,20.922 	"/>
	<polygon class="st2" points="47.965,20.724 47.77,20.918 47.769,20.922 47.803,20.913 48.131,20.723 	"/>
	<polygon class="st2" points="47.803,20.913 48.51,20.723 48.131,20.723 	"/>
	<polygon class="st2" points="47.766,20.934 47.767,20.934 47.766,20.934 	"/>
	<polygon class="st2" points="47.755,20.934 47.755,20.934 47.759,20.938 47.766,20.934 47.765,20.934 	"/>
	<polygon class="st2" points="47.766,20.934 47.766,20.934 47.766,20.934 	"/>
	<polygon class="st2" points="47.765,20.934 47.766,20.934 47.766,20.934 	"/>
	<path class="st2" d="M42.813,23.794c0.29,0.399,0.629,0.76,1.012,1.07l3.914-3.914L42.813,23.794z"/>
	<path class="st2" d="M41.757,20.934c0.041,0.528,0.156,1.033,0.333,1.51l5.635-1.51H41.757z"/>
	<path class="st2" d="M47.749,20.927l-0.008-0.008l-0.012-0.007l-0.703-0.188l-5.279,0.004c0.003,0.068,0.005,0.137,0.01,0.205
		h5.968L47.749,20.927z"/>
	<polygon class="st2" points="47.755,20.934 47.755,20.934 47.755,20.934 	"/>
	<path class="st2" d="M47.755,20.941l-0.005,0.003l-2.698,4.673c0.424,0.191,0.877,0.33,1.349,0.411l1.354-5.053V20.941z"/>
	<path class="st2" d="M47.755,20.934L47.755,20.934l-0.03,0l-5.635,1.51c0.18,0.486,0.424,0.939,0.723,1.35l4.926-2.844
		L47.755,20.934z"/>
	<path class="st2" d="M47.739,20.95l-3.914,3.914c0.372,0.301,0.785,0.554,1.227,0.753l2.698-4.673L47.739,20.95z"/>
	<polygon class="st2" points="47.764,20.942 47.766,20.934 47.759,20.938 	"/>
	<path class="st2" d="M47.767,20.934L47.767,20.934l4.364,2.521c0.234-0.377,0.427-0.781,0.568-1.21l-4.892-1.311H47.767z"/>
	<polygon class="st2" points="47.762,20.947 47.775,20.97 47.77,20.948 47.764,20.942 	"/>

		<rect x="47.755" y="20.934" transform="matrix(0.7071 -0.7071 0.7071 0.7071 -0.8174 39.9005)" class="st2" width="0.002" height="0.006"/>

		<rect x="47.759" y="20.938" transform="matrix(0.8662 -0.4997 0.4997 0.8662 -4.0739 26.6694)" class="st2" width="0.003" height="0.008"/>
	<polygon class="st2" points="47.755,20.941 47.755,20.975 47.762,20.947 47.758,20.939 	"/>
	<polygon class="st2" points="47.77,20.948 47.766,20.934 47.764,20.942 	"/>
	<polygon class="st2" points="47.755,20.934 47.755,20.934 47.739,20.95 47.749,20.944 47.755,20.934 	"/>
	<polygon class="st2" points="47.749,20.944 47.755,20.941 47.755,20.934 	"/>
	<polygon class="st2" points="47.755,20.934 47.755,20.934 47.755,20.934 	"/>
	<path class="st2" d="M47.775,20.97l2.497,4.325c0.377-0.229,0.727-0.497,1.039-0.805l-3.541-3.541L47.775,20.97z"/>
	<path class="st2" d="M47.762,20.947l-0.008,0.028v5.12c0.459-0.032,0.904-0.116,1.327-0.252l-1.306-4.874L47.762,20.947z"/>
	<path class="st2" d="M46.401,26.028c0.312,0.054,0.63,0.087,0.957,0.087c0.134,0,0.265-0.011,0.397-0.02v-5.12L46.401,26.028z"/>
	<path class="st2" d="M47.77,20.948l3.541,3.541c0.313-0.31,0.586-0.659,0.82-1.035l-4.365-2.52L47.77,20.948z"/>
	<path class="st2" d="M47.803,20.913l-0.024,0.014l0.027,0.007h5.152c0.005-0.071,0.008-0.143,0.011-0.214l-4.459,0.004
		L47.803,20.913z"/>
	<path class="st2" d="M52.699,22.244c0.137-0.418,0.224-0.857,0.26-1.311h-5.152L52.699,22.244z"/>
	<path class="st2" d="M52.895,19.548l-4.305,1.153l4.38-0.004c0.003-0.069,0.01-0.136,0.01-0.205
		C52.981,20.17,52.948,19.856,52.895,19.548z"/>
	<path class="st2" d="M41.854,19.339c-0.078,0.373-0.12,0.758-0.12,1.154c0,0.073,0.008,0.143,0.011,0.215l5.2-0.004L41.854,19.339z
		"/>
	<path class="st2" d="M47.365,20.703l-4.963-2.866c-0.25,0.465-0.436,0.97-0.547,1.502l5.092,1.364L47.365,20.703z"/>
	<path class="st2" d="M47.524,20.702l-4.163-4.163c-0.378,0.383-0.702,0.819-0.959,1.297l4.963,2.866L47.524,20.702z"/>
	<path class="st2" d="M47.755,20.702V14.89c-0.132-0.009-0.263-0.02-0.397-0.02c-0.406,0-0.801,0.045-1.183,0.127l1.529,5.706
		H47.755z"/>
	<path class="st2" d="M48.168,20.702l4.324-2.496c-0.201-0.449-0.456-0.868-0.762-1.246l-3.743,3.743L48.168,20.702z"/>
	<path class="st2" d="M48.591,20.702l4.305-1.153c-0.08-0.47-0.215-0.92-0.404-1.343l-4.324,2.496L48.591,20.702z"/>
	<path class="st2" d="M47.621,20.702l-2.967-5.14c-0.478,0.263-0.913,0.592-1.293,0.977l4.163,4.163L47.621,20.702z"/>
	<path class="st2" d="M47.889,20.702l2.753-4.768c-0.41-0.296-0.861-0.536-1.344-0.714l-1.469,5.482L47.889,20.702z"/>
	<path class="st2" d="M47.986,20.702l3.743-3.743c-0.315-0.389-0.682-0.732-1.088-1.025l-2.753,4.768L47.986,20.702z"/>
	<path class="st2" d="M47.704,20.702l-1.529-5.706c-0.54,0.116-1.051,0.308-1.521,0.566l2.967,5.14L47.704,20.702z"/>
	<path class="st2" d="M47.828,20.702l1.469-5.482c-0.487-0.179-1.003-0.293-1.542-0.331v5.813L47.828,20.702z"/>
	<polygon class="st2" points="47.633,20.724 47.621,20.702 47.524,20.702 47.545,20.724 	"/>
	<polygon class="st2" points="48.131,20.723 48.168,20.702 47.986,20.702 47.965,20.724 	"/>
	<polygon class="st2" points="47.545,20.724 47.524,20.702 47.365,20.703 47.402,20.724 	"/>
	<polygon class="st2" points="47.71,20.724 47.704,20.702 47.621,20.702 47.633,20.724 	"/>
	<polygon class="st2" points="47.365,20.703 46.946,20.703 47.026,20.724 47.402,20.724 	"/>
	<path class="st2" d="M48.51,20.723l4.459-0.004c0-0.007,0.001-0.014,0.001-0.021l-4.38,0.004L48.51,20.723z"/>
	<polygon class="st2" points="47.965,20.724 47.986,20.702 47.889,20.702 47.876,20.724 	"/>
	<rect x="47.707" y="20.702" class="st2" width="0.048" height="0.022"/>
	<polygon class="st2" points="48.131,20.723 48.51,20.723 48.591,20.702 48.168,20.702 	"/>
	<path class="st2" d="M46.946,20.703l-5.2,0.004c0,0.007,0.001,0.014,0.001,0.022l5.279-0.004L46.946,20.703z"/>

		<rect x="47.779" y="20.678" transform="matrix(0.258 -0.9661 0.9661 0.258 15.4482 61.5409)" class="st2" width="0.022" height="0.07"/>
	<polygon class="st2" points="47.876,20.724 47.889,20.702 47.828,20.702 47.822,20.724 	"/>
</g>
</svg>
