<?xml version="1.0" encoding="utf-8"?>
<!-- Generator: Adobe Illustrator 24.2.0, SVG Export Plug-In . SVG Version: 6.00 Build 0)  -->
<svg version="1.1" id="Layer_1" xmlns="http://www.w3.org/2000/svg" xmlns:xlink="http://www.w3.org/1999/xlink" x="0px" y="0px"
	 viewBox="0 0 560 553" style="enable-background:new 0 0 560 553;" xml:space="preserve">
<style type="text/css">
	.st0{fill:none;stroke:#F1E297;stroke-width:0.75;stroke-miterlimit:9.8937;stroke-dasharray:166.7485,166.7485;}
	.st1{fill:none;stroke:#F1E297;stroke-width:0.75;stroke-miterlimit:9.8937;stroke-dasharray:415.2305,415.2305;}
	.st2{fill:none;stroke:#F1E297;stroke-width:0.75;stroke-miterlimit:9.8937;stroke-dasharray:290.5873,290.5873;}
	.st3{fill:none;stroke:#F1E297;stroke-width:0.75;stroke-miterlimit:9.8937;stroke-dasharray:113.469,113.469;}
	.st4{fill:none;stroke:#F1E297;stroke-width:0.75;stroke-miterlimit:9.8937;stroke-dasharray:323.5179,323.5179;}
	.st5{fill:none;stroke:#F1E297;stroke-width:0.75;stroke-miterlimit:9.8936;stroke-dasharray:178.25,178.25;}
	.st6{fill:#FFFFFF;}
	.st7{fill:#F1E297;}
	.st8{fill:none;stroke:#F1E297;stroke-width:0.75;stroke-miterlimit:9.8937;}
</style>
<g id="STAR_TRAILS">
	<g>
		<g>
			<path class="st0" d="M26.216,251.894c6.637-63.789,36.58-122.662,84.296-165.769c51.551-46.591,118.185-70.338,187.597-66.832
				s133.311,33.824,179.902,85.376c46.613,51.552,70.338,118.164,66.832,187.576c-0.243,4.697-0.595,9.459-1.08,14.134
				c-6.637,63.767-36.58,122.64-84.296,165.769c-51.552,46.591-118.186,70.338-187.598,66.832s-133.312-33.824-179.902-85.376
				c-46.612-51.553-70.338-118.165-66.832-187.577C25.356,261.309,25.73,256.546,26.216,251.894z"/>
		</g>
		<g>
			<path class="st1" d="M385.05,492.388c-56.976,26.724-120.942,29.679-180.123,8.313
				c-59.181-21.388-106.499-64.517-133.224-121.493s-29.679-120.942-8.291-180.123s64.54-106.5,121.516-133.224
				s120.942-29.679,180.123-8.313c59.181,21.388,106.499,64.517,133.224,121.493s29.679,120.942,8.291,180.123
				C485.177,418.346,442.026,465.664,385.05,492.388z"/>
		</g>
		<g>
			<path class="st2" d="M278.727,485.112c-55.014-1.676-106.103-24.673-143.829-64.76s-57.593-92.476-55.918-147.49
				c1.676-55.014,24.673-106.103,64.76-143.829s92.476-57.593,147.49-55.918c55.014,1.675,106.103,24.673,143.829,64.76
				c37.727,40.086,57.593,92.476,55.918,147.49c-1.676,55.014-24.673,106.103-64.76,143.829
				C386.131,466.921,333.763,486.788,278.727,485.112z"/>
		</g>
		<g>
			<ellipse class="st3" cx="284.969" cy="279.132" rx="177.058" ry="177.058"/>
		</g>
		<g>
			<circle class="st4" cx="284.967" cy="279.125" r="137.722"/>
		</g>
		<g>
			<ellipse class="st5" cx="284.965" cy="279.132" rx="88.528" ry="88.528"/>
		</g>
		<g>
			<path class="st6" d="M419.734,309.377c-3.131,0-5.667-2.536-5.667-5.667c0-3.131,2.536-5.667,5.667-5.667
				s5.667,2.536,5.667,5.667S422.865,309.377,419.734,309.377z"/>
			<path class="st7" d="M419.734,298.286c2.999,0,5.424,2.448,5.424,5.424s-2.447,5.424-5.424,5.424
				c-2.977,0-5.424-2.448-5.424-5.424S416.757,298.286,419.734,298.286 M419.734,297.823c-3.263,0-5.909,2.646-5.909,5.909
				s2.646,5.909,5.909,5.909s5.909-2.646,5.909-5.909S422.997,297.823,419.734,297.823L419.734,297.823z"/>
		</g>
		<circle class="st7" cx="517.634" cy="245.19" r="5.909"/>
		<g>
			<path class="st6" d="M220.538,167.245c-5.292,0-9.614-4.3-9.614-9.614s4.3-9.614,9.614-9.614c5.292,0,9.614,4.3,9.614,9.614
				S225.83,167.245,220.538,167.245z"/>
			<path class="st7" d="M220.538,148.261c5.16,0,9.371,4.211,9.371,9.371s-4.211,9.371-9.371,9.371s-9.371-4.211-9.371-9.371
				S215.379,148.261,220.538,148.261 M220.538,147.798c-5.424,0-9.834,4.41-9.834,9.834s4.41,9.834,9.834,9.834
				s9.834-4.41,9.834-9.834C230.372,152.207,225.985,147.798,220.538,147.798L220.538,147.798z"/>
		</g>
		<circle class="st7" cx="262.852" cy="384.875" r="2.955"/>
		<g>
			<circle class="st6" cx="136" cy="66.038" r="5.667"/>
			<path class="st7" d="M136,60.614c2.999,0,5.424,2.448,5.424,5.424c0,2.999-2.447,5.424-5.424,5.424
				c-2.977,0-5.424-2.448-5.424-5.424C130.554,63.039,133.002,60.614,136,60.614 M136,60.128c-3.263,0-5.909,2.646-5.909,5.909
				s2.646,5.909,5.909,5.909s5.909-2.646,5.909-5.909C141.888,62.774,139.264,60.128,136,60.128L136,60.128z"/>
		</g>

			<ellipse transform="matrix(0.1041 -0.9946 0.9946 0.1041 -259.762 277.7993)" class="st7" cx="24.315" cy="283.084" rx="9.834" ry="9.834"/>

			<ellipse transform="matrix(0.356 -0.9345 0.9345 0.356 106.4029 250.3056)" class="st7" cx="234.807" cy="47.954" rx="9.834" ry="9.834"/>
		<g>
			<path class="st6" d="M71.682,388.821c-5.292,0-9.614-4.3-9.614-9.614c0-5.292,4.3-9.614,9.614-9.614
				c5.292,0,9.614,4.3,9.614,9.614C81.295,384.5,76.996,388.821,71.682,388.821z"/>
			<path class="st7" d="M71.682,369.837c5.16,0,9.371,4.211,9.371,9.371s-4.211,9.371-9.371,9.371c-5.16,0-9.371-4.211-9.371-9.371
				S66.522,369.837,71.682,369.837 M71.682,369.374c-5.424,0-9.834,4.41-9.834,9.834s4.41,9.834,9.834,9.834s9.834-4.41,9.834-9.834
				C81.538,373.784,77.128,369.374,71.682,369.374L71.682,369.374z"/>
		</g>
		<g>
			<line class="st8" x1="369.263" y1="97.701" x2="399.757" y2="97.701"/>
			<line class="st8" x1="384.521" y1="82.465" x2="384.521" y2="112.959"/>
		</g>
	</g>
</g>
</svg>
