<?xml version="1.0" encoding="utf-8"?>
<!-- Generator: Adobe Illustrator 24.2.0, SVG Export Plug-In . SVG Version: 6.00 Build 0)  -->
<svg version="1.1" id="Layer_1" xmlns="http://www.w3.org/2000/svg" xmlns:xlink="http://www.w3.org/1999/xlink" x="0px" y="0px"
	 viewBox="0 0 97 149" style="enable-background:new 0 0 97 149;" xml:space="preserve">
<style type="text/css">
	.st0{fill:#F1E297;}
	.st1{fill:#004B55;}
	.st2{fill:#F1E297;stroke:#004B55;stroke-width:0.5;stroke-miterlimit:9.8937;}
	.st3{fill:none;stroke:#004B55;stroke-width:0.5;stroke-miterlimit:9.8937;}
</style>
<g>
	<g>
		<path class="st0" d="M52.611,147.404c-2.426-4.697-6.99-16.25-10.672-25.533c-4.697-11.885-6.042-15.126-6.483-15.28
			c-6.24-2.381-11.752-7.585-13.208-9.217l-9.349-12.877l0,0c-0.154-0.176-0.309-0.375-0.463-0.595
			c-0.022-0.022-0.044-0.066-0.066-0.088c-0.419-0.375-0.75-0.816-1.014-1.323L4.807,69.239c-2.117-5.336,2.227-7.717,2.403-7.828
			c0.662-0.331,1.367-0.485,2.117-0.485c3.528,0,7.453,3.682,9.195,7.254v0.022l4.741,7.21l0.088,0.11l5.623,5.909
			c0.088,0.088,0.198,0.154,0.331,0.154s0.287-0.066,0.375-0.176s0.132-0.243,0.088-0.375l-2.822-14.773
			c-0.243-1.874-0.86-5.005-1.191-6.461l-6.13-37.396c-0.22-0.97-0.044-2.315,0.441-3.484c0.529-1.257,1.323-2.095,2.183-2.293
			l3.307-0.75c0.132-0.022,0.265-0.044,0.397-0.044c1.808,0,3.528,2.514,3.925,4.233l8.754,39.733
			c0.088,0.375,0.397,0.661,0.772,0.706h0.022h0.044c0.11,0,0.22-0.044,0.287-0.132c0.066-0.088,0.11-0.22,0.088-0.331
			l-9.988-47.958c-0.463-2.029,0.066-6.438,2.734-7.607l3.175-0.728c0.088-0.022,0.198-0.022,0.286-0.022
			c1.918,0,4.189,3.881,4.652,5.887l11.51,48.046c0.066,0.243,0.286,0.419,0.529,0.419c0.044,0,0.088,0,0.154-0.022
			c0.287-0.088,0.463-0.375,0.397-0.661l-8.886-42.864c-0.419-1.852-0.198-5.689,1.698-6.13l3.307-0.75
			c0.11-0.022,0.22-0.044,0.331-0.044c1.742,0,3.66,2.844,4.101,4.763l1.279,6.284c0.11,0.573,0.265,1.147,0.463,1.698l0.397,1.191
			c0.22,0.639,0.353,1.301,0.441,1.984l0.11,0.86c0.066,0.639,0.176,1.257,0.331,1.896l2.492,10.981
			c0.022,0.044,0.022,0.11,0.044,0.154l0.75,2.315c0.11,0.309,0.198,0.639,0.265,0.97l0.331,1.477
			c0.11,0.441,0.177,0.904,0.221,1.367l0.154,1.499l2.293,10.209c0.044,0.22,0.243,0.375,0.485,0.375
			c0.154,0,0.287-0.066,0.397-0.176c0.088-0.11,0.132-0.265,0.088-0.419l-1.389-7.607l-0.286-1.455
			c-0.044-0.243-0.088-0.463-0.11-0.706l-0.11-1.257c0-0.066-0.022-0.132-0.022-0.198l-1.654-8.489l-0.816-4.807l-0.198-0.904
			c-0.066-0.309-0.11-0.617-0.132-0.926l-0.243-2.955c-0.022-0.265-0.066-0.529-0.11-0.816c-0.661-3.043-0.507-4.851,0.441-5.071
			l2.646-0.595c0.066-0.022,0.11-0.022,0.176-0.022c1.301,0,2.58,3.241,2.955,4.895l1.477,5.887l0.595,1.698
			c0.088,0.243,0.154,0.507,0.221,0.772l0.397,1.72l2.161,8.291c0.022,0.132,0.066,0.243,0.11,0.353l0.684,1.896l0.926,2.911
			c0.044,0.132,0.088,0.265,0.11,0.419c0.683,3.021,1.455,5.821,2.205,8.511c0.772,2.756,1.543,5.623,2.249,8.71
			c0.243,1.058,2.712,28.334,2.734,28.598c0.22,2.955,6.527,17.331,11.135,27.805c2.403,5.49,4.498,10.253,4.917,11.532
			c0.706,2.249,1.036,3.726,0.551,4.542c-0.507,0.882-1.962,1.169-4.586,1.742c-0.904,0.198-1.918,0.397-3.109,0.684L52.611,147.404
			z"/>
		<path class="st1" d="M36.052,3.905c1.676,0,3.947,3.55,4.432,5.711l11.51,48.046c0.088,0.353,0.397,0.595,0.75,0.595
			c0.066,0,0.132,0,0.198-0.022c0.397-0.11,0.661-0.529,0.573-0.926l-8.908-42.864c-0.419-1.852-0.154-5.468,1.521-5.843l3.307-0.75
			c0.088-0.022,0.198-0.022,0.287-0.022c1.61,0,3.462,2.778,3.881,4.564l1.279,6.284c0.11,0.573,0.265,1.147,0.463,1.72l0.397,1.191
			c0.198,0.617,0.353,1.279,0.419,1.94l0.088,0.86c0.066,0.639,0.176,1.279,0.331,1.918l2.492,10.981
			c0.022,0.066,0.022,0.11,0.044,0.176l0.75,2.315c0.11,0.309,0.198,0.639,0.265,0.948l0.331,1.477
			c0.11,0.441,0.176,0.882,0.22,1.345l0.154,1.477v0.022v0.022l2.293,10.209c0.088,0.331,0.375,0.551,0.706,0.551l0,0l0,0
			c0.22,0,0.419-0.11,0.551-0.265c0.132-0.176,0.176-0.397,0.132-0.595l-1.389-7.607l-0.286-1.433
			c-0.044-0.22-0.088-0.463-0.11-0.684l-0.11-1.257c0-0.066-0.022-0.154-0.022-0.22l-1.654-8.467l-0.816-4.829l0,0l0,0l-0.198-0.882
			c-0.066-0.287-0.11-0.595-0.132-0.882l-0.243-2.955c-0.022-0.265-0.066-0.551-0.132-0.838c-0.595-2.822-0.507-4.608,0.265-4.785
			l2.646-0.595c0.044,0,0.088-0.022,0.11-0.022c1.014,0,2.293,2.8,2.734,4.719l1.477,5.887v0.022v0.022l0.595,1.676
			c0.088,0.243,0.154,0.507,0.221,0.75l0.397,1.72l0,0l0,0l2.161,8.291c0.044,0.132,0.066,0.265,0.11,0.375l0.684,1.896l0.926,2.911
			c0.044,0.132,0.066,0.265,0.11,0.397c0.684,3.021,1.477,5.821,2.205,8.533c0.772,2.756,1.543,5.601,2.249,8.688
			c0.22,0.926,2.602,26.878,2.734,28.554c0.22,2.999,6.284,16.802,11.157,27.893c2.403,5.49,4.498,10.231,4.895,11.51
			c0.684,2.139,1.014,3.616,0.573,4.344c-0.463,0.772-1.963,1.102-4.432,1.632c-0.904,0.198-1.918,0.397-3.109,0.684l-35.478,7.232
			c-2.448-4.785-6.946-16.162-10.584-25.357c-5.49-13.869-6.108-15.236-6.615-15.413c-6.174-2.359-11.642-7.497-13.097-9.151
			l-9.349-12.877l-0.022-0.022l-0.022-0.022c-0.154-0.176-0.287-0.353-0.441-0.573c-0.022-0.044-0.066-0.088-0.11-0.132
			c-0.397-0.353-0.706-0.772-0.948-1.257L4.919,69.194c-2.029-5.138,2.139-7.431,2.315-7.519c0.617-0.309,1.301-0.463,2.007-0.463
			c3.44,0,7.276,3.616,8.996,7.122l0.022,0.022l0.022,0.022L23,75.566l0.022,0.022l0.022,0.022l0.066,0.088l0.022,0.022l0.022,0.022
			l5.623,5.887c0.132,0.132,0.309,0.22,0.507,0.22c0.221,0,0.419-0.088,0.551-0.265c0.132-0.154,0.176-0.375,0.154-0.573
			L27.167,66.26c-0.243-1.874-0.86-5.005-1.191-6.461l-6.13-37.374v-0.022v-0.022c-0.198-0.904-0.044-2.205,0.441-3.329
			c0.507-1.191,1.235-1.984,2.007-2.161l3.307-0.75c0.11-0.022,0.243-0.044,0.353-0.044c1.543,0,3.263,2.227,3.682,4.057
			l8.754,39.733c0.11,0.463,0.485,0.816,0.97,0.904c0.022,0,0.066,0,0.088,0c0.176,0,0.353-0.088,0.485-0.22
			c0.11-0.154,0.176-0.331,0.132-0.529l-9.988-47.98c-0.441-1.962,0.044-6.196,2.58-7.32l3.153-0.706
			C35.876,3.927,35.964,3.905,36.052,3.905 M27.188,66.151L27.188,66.151L27.188,66.151C27.188,66.173,27.188,66.151,27.188,66.151
			 M36.052,3.442c-0.11,0-0.22,0.022-0.353,0.044l-3.175,0.728c-0.022,0-0.022,0-0.044,0.022c-2.778,1.213-3.374,5.711-2.866,7.872
			l9.988,47.958c0.022,0.088-0.044,0.198-0.154,0.198h-0.022c-0.286-0.044-0.507-0.243-0.573-0.529l-8.754-39.733
			c-0.419-1.896-2.249-4.432-4.145-4.432c-0.154,0-0.309,0.022-0.463,0.044l-3.307,0.75c-2.051,0.463-3.263,4.013-2.8,6.064
			l6.13,37.396c0,0,0,0,0,0.022c0.353,1.543,0.948,4.63,1.191,6.438c0,0,0,0,0,0.022l2.822,14.773
			c0.022,0.154-0.088,0.287-0.243,0.287c-0.066,0-0.11-0.022-0.176-0.066l-5.623-5.887c-0.022-0.022-0.044-0.066-0.066-0.088
			L18.7,68.137c-1.742-3.528-5.689-7.387-9.415-7.387c-0.75,0-1.499,0.154-2.205,0.507l0,0c-0.154,0.088-4.697,2.58-2.514,8.114
			v0.022l6.549,13.252c0.265,0.551,0.639,1.014,1.058,1.389c0.022,0,0.022,0.022,0.022,0.044c0.132,0.22,0.309,0.419,0.463,0.617
			l9.349,12.877c0,0,0,0,0,0.022c1.323,1.499,6.946,6.857,13.296,9.283c0.926,0.353,12.656,32.369,17.11,40.88l35.831-7.298
			c7.806-1.852,9.283-0.992,7.298-7.254c-1.191-3.77-15.699-34.816-16.03-39.292c-0.066-0.838-2.492-27.562-2.734-28.62
			c-1.389-6.13-3.065-11.113-4.476-17.221c-0.022-0.154-0.066-0.287-0.11-0.419l-0.926-2.933l-0.683-1.896
			c-0.044-0.11-0.066-0.22-0.11-0.331l-2.161-8.291l-0.397-1.72c-0.066-0.265-0.132-0.529-0.22-0.794L67.1,30.012l-1.478-5.887
			c-0.353-1.566-1.654-5.071-3.197-5.071c-0.066,0-0.154,0-0.22,0.022l-2.646,0.595c-1.521,0.353-0.992,3.572-0.617,5.336
			c0.044,0.265,0.088,0.507,0.11,0.772l0.243,2.955c0.022,0.331,0.066,0.639,0.132,0.948l0.198,0.882l0.816,4.829l1.654,8.489
			c0.022,0.066,0.022,0.11,0.022,0.176l0.11,1.257c0.022,0.243,0.066,0.485,0.11,0.728l0.286,1.433l1.389,7.607
			c0.044,0.154-0.088,0.309-0.243,0.309l0,0l0,0c-0.11,0-0.22-0.088-0.243-0.198l-2.293-10.209l-0.154-1.477
			c-0.044-0.463-0.132-0.926-0.22-1.389l-0.331-1.477c-0.066-0.331-0.176-0.661-0.265-0.992l-0.75-2.315
			c-0.022-0.044-0.022-0.088-0.044-0.132l-2.492-10.981c-0.132-0.617-0.243-1.235-0.309-1.852l-0.088-0.86
			c-0.088-0.684-0.22-1.367-0.441-2.029l-0.397-1.191c-0.176-0.551-0.331-1.102-0.441-1.654l-1.279-6.284
			c-0.441-1.918-2.403-4.939-4.322-4.939c-0.132,0-0.265,0.022-0.397,0.044l-3.307,0.75c-2.051,0.463-2.337,4.366-1.874,6.416
			l8.886,42.864c0.044,0.176-0.066,0.331-0.243,0.397c-0.022,0-0.066,0.022-0.088,0.022c-0.132,0-0.265-0.088-0.309-0.243
			L40.858,9.617C40.462,7.455,38.125,3.442,36.052,3.442L36.052,3.442z"/>
	</g>
	<path class="st2" d="M52.545,11.115c1.036,3.77,0.066,5.468-2.161,6.086c-2.227,0.617-4.454-0.375-5.49-4.167
		c-1.036-3.77,0.353-6.879,2.58-7.497C49.678,4.941,51.509,7.345,52.545,11.115z"/>
	<path class="st2" d="M39.822,8.58c0.97,4.256-0.75,6.416-3.329,7.012c-2.58,0.595-5.071-0.639-6.042-4.873
		c-0.97-4.256,0.617-7.012,3.197-7.607C36.228,2.516,38.874,4.346,39.822,8.58z"/>
	<path class="st2" d="M28.842,18.877c0.794,3.462-0.882,5.093-3.285,5.645c-2.403,0.551-4.63-0.22-5.402-3.66
		c-0.794-3.462,0.706-5.887,3.109-6.438C25.667,13.871,28.07,15.437,28.842,18.877z"/>
	<line class="st3" x1="26.152" y1="32.239" x2="30.804" y2="31.18"/>
	<line class="st3" x1="26.328" y1="33.033" x2="30.981" y2="31.974"/>
	<line class="st3" x1="49.039" y1="23.397" x2="55.147" y2="22.559"/>
	<line class="st3" x1="49.215" y1="24.191" x2="55.323" y2="23.375"/>
	<line class="st3" x1="36.228" y1="24.896" x2="40.881" y2="23.838"/>
	<line class="st3" x1="36.405" y1="25.69" x2="41.057" y2="24.654"/>
	<line class="st3" x1="61.673" y1="32.834" x2="66.59" y2="32.283"/>
	<line class="st3" x1="62.379" y1="33.738" x2="66.767" y2="33.319"/>
	<line class="st3" x1="64.386" y1="45.38" x2="69.677" y2="44.719"/>
	<line class="st3" x1="65.797" y1="43.638" x2="69.589" y2="43.638"/>
	<line class="st3" x1="65.025" y1="46.35" x2="69.92" y2="45.799"/>
	<line class="st3" x1="53.228" y1="40.618" x2="58.388" y2="40.573"/>
	<line class="st3" x1="53.405" y1="41.433" x2="58.564" y2="41.367"/>
	<line class="st3" x1="53.78" y1="43.021" x2="58.939" y2="42.977"/>
	<line class="st3" x1="40.418" y1="42.139" x2="45.07" y2="41.081"/>
	<line class="st3" x1="40.594" y1="42.933" x2="45.269" y2="41.874"/>
	<line class="st3" x1="40.969" y1="44.52" x2="45.621" y2="43.484"/>
	<line class="st3" x1="29.349" y1="48.842" x2="34.001" y2="47.784"/>
	<line class="st3" x1="29.525" y1="49.636" x2="34.2" y2="48.578"/>
	<line class="st3" x1="29.768" y1="50.716" x2="34.442" y2="49.658"/>
	<line class="st3" x1="11.952" y1="78.3" x2="16.251" y2="76.206"/>
	<line class="st3" x1="12.326" y1="79.028" x2="16.604" y2="76.933"/>
	<line class="st3" x1="12.79" y1="80.02" x2="17.089" y2="77.925"/>
	<path class="st2" d="M64.672,22.647c0.617,2.712-0.154,3.947-1.808,4.322c-1.676,0.375-2.734-0.992-3.352-3.704
		c-0.617-2.712-0.243-4.829,1.433-5.204C62.6,17.686,64.055,19.935,64.672,22.647z"/>
	<path class="st2" d="M13.517,63.064c1.367,2.778,0.529,5.38-1.962,6.615c-2.492,1.235-4.983,2.448-7.078-2.139
		c-1.345-2.933-0.463-6.02,2.029-7.254S12.15,60.286,13.517,63.064z"/>
</g>
</svg>
