<svg id="Layer_1" data-name="Layer 1" xmlns="http://www.w3.org/2000/svg" viewBox="0 0 300 300">
  <path d="M150,106.67a43.33,43.33,0,0,0,0,86.66h1.81c1.13-.05,2.24-.14,3.34-.27h.41l-.13-1A42.33,42.33,0,1,1,150,107.67v-1Z"/>
  <g>
    <circle cx="150" cy="150" r="125"/>
    <path d="M136.62,247.11a98,98,0,1,1,72.59-19A97.41,97.41,0,0,1,136.62,247.11Z" style="fill: none;stroke: #fff;stroke-miterlimit: 10;stroke-width: 0.992125988006592px;stroke-dasharray: 308.0351257324219,308.0351257324219"/>
    <circle cx="150" cy="150" r="65.49" transform="translate(-20.33 23.56) rotate(-8.41)" style="fill: none;stroke: #fff;stroke-miterlimit: 10;stroke-width: 0.992125988006592px;stroke-dasharray: 205.691650390625,205.691650390625"/>
    <circle cx="150" cy="150" r="80.02" transform="translate(-62.13 150) rotate(-45)" style="fill: none;stroke: #fff;stroke-miterlimit: 10;stroke-width: 0.992125988006592px;stroke-dasharray: 125.66727447509766,125.66727447509766"/>
  </g>
  <circle cx="183" cy="56" r="8" style="fill: #fff"/>
  <circle cx="136" cy="100" r="8" style="fill: #fff"/>
  <circle cx="51" cy="148" r="8" style="fill: #fff"/>
  <circle cx="127.5" cy="170.5" r="13.5" style="fill: #fff"/>
  <circle cx="253" cy="182" r="6" style="fill: #fff"/>
  <circle cx="90" cy="57" r="6" style="fill: #fff"/>
  <circle cx="106.44" cy="217.12" r="6" style="fill: #fff"/>
  <circle cx="230.5" cy="88.5" r="11.5" style="fill: #fff"/>
  <circle cx="164" cy="128" r="6" style="fill: #fff"/>
  <circle cx="114" cy="243" r="12" style="fill: #fff"/>
  <g>
    <path d="M-2.87,317.9C0,312.07,34.56,260.4,36.2,253.21,36.51,251.84,47,209,47.66,207.33c3.76-9.63,7.71-17.34,11.48-26.92.09-.22.19-.45.29-.67l2.22-4.52,1.58-2.92c.1-.18.18-.35.26-.53L69,158.83l1-2.7a10.93,10.93,0,0,1,.58-1.25L72,152.31l3.84-9.2c1-2.56,4.23-8.38,6.79-7.38l4.15,1.62c2.38.93.74,6.06-.31,8.84a10.3,10.3,0,0,0-.38,1.23L85,152.18a11,11,0,0,1-.46,1.51l-.53,1.4-2.53,7.64-4.75,13.4a1.31,1.31,0,0,0-.09.28l-.5,2c-.1.39-.22.78-.35,1.16L75,181.86l-4.12,12a.42.42,0,0,0,.32.57h0a.42.42,0,0,0,.46-.26l6.22-16,.6-2.38a19,19,0,0,1,.71-2.21l.9-2.3c.21-.53.44-1.05.69-1.55l1.78-3.58a.72.72,0,0,0,.09-.2l6.75-17.26a29.74,29.74,0,0,0,1-2.94l.37-1.39a16.69,16.69,0,0,1,1.23-3.19l.94-1.86A22.05,22.05,0,0,0,94,136.72l3.64-9.89c1.25-3.21,5.67-8.07,8.87-6.82l5.2,2c3.21,1.25,2.74,7.67,1.49,10.88l-25,67.51a.54.54,0,0,0,.29.68.51.51,0,0,0,.68-.27l30.48-75.3c1.32-3.39,6.58-9.85,10-8.52l5,1.94.07,0c4.24,2.65,4.08,10.11,2.76,13.49l-28,75.56a.25.25,0,0,0,.22.34,1.13,1.13,0,0,0,1.06-.72l23.94-62.48c1.26-3.22,5.35-7.25,8.56-6l5.2,2c3.21,1.25,4.32,7.32,3.06,10.53l-19.12,59.29v0c-.95,2.43-2.67,7.3-3.49,10.17v0l-8.2,23.32a.38.38,0,0,0,.6.43l10.57-8.2.14-.13,9.43-10.53c4.44-6.38,14.21-12.77,20.59-8.34h0c.24.18,7,5.34,2.11,13.81l0,0-13.9,20a7.74,7.74,0,0,1-2.07,2,.15.15,0,0,0-.06.05,9.83,9.83,0,0,1-.93.89l-18.35,18.66,0,0c-2.52,2.11-13,9.45-23.89,11.85-1.58.34-28.52,49.55-37.83,62.29Z" style="fill: #fff;stroke: #000;stroke-miterlimit: 10"/>
    <g>
      <path d="M105.27,135.88a6.46,6.46,0,0,1-2.62-.59c-2.37-1-4.72-3.1-1.78-9.75,2.21-5,4.94-7.88,7.5-7.88a3.68,3.68,0,0,1,1.47.32c3.07,1.36,4.7,6.27,2.1,12.15-1.66,3.76-4,5.75-6.67,5.75Z" style="fill: #fff"/>
      <path d="M108.37,118.16a3.07,3.07,0,0,1,1.27.28,5.47,5.47,0,0,1,2.88,4.06,12.39,12.39,0,0,1-1,7.43c-1.57,3.57-3.72,5.45-6.21,5.45a6,6,0,0,1-2.42-.54c-2.29-1-4.27-2.89-1.52-9.1,2.09-4.75,4.73-7.58,7-7.58m0-1c-2.91,0-5.77,3.22-8,8.17-2.6,5.9-1.44,8.89,2,10.42a6.92,6.92,0,0,0,2.82.63c2.62,0,5.22-1.72,7.13-6,2.6-5.89,1.12-11.27-2.36-12.81a4.15,4.15,0,0,0-1.67-.36Z"/>
    </g>
    <g>
      <path d="M128.42,136.63a7.67,7.67,0,0,1-2.82-.57,6.71,6.71,0,0,1-4.07-3.91c-.75-2.05-.54-4.63.64-7.66,1.85-4.72,5-7.55,8.4-7.55a6.31,6.31,0,0,1,2.33.45,6.41,6.41,0,0,1,3.88,4.34,12.85,12.85,0,0,1-.82,8.15c-1.72,4.41-4.33,6.75-7.54,6.75Z" style="fill: #fff"/>
      <path d="M130.57,117.44a5.79,5.79,0,0,1,2.15.42,5.87,5.87,0,0,1,3.58,4,12.43,12.43,0,0,1-.8,7.83c-1.65,4.2-4.1,6.43-7.08,6.43a7.25,7.25,0,0,1-2.63-.53A6.17,6.17,0,0,1,122,132c-.71-1.94-.5-4.39.64-7.3,1.77-4.53,4.73-7.24,7.93-7.24m0-1c-3.36,0-6.78,2.55-8.86,7.87-2.61,6.67-.35,10.63,3.71,12.22a8.19,8.19,0,0,0,3,.6c3.08,0,6-2,8-7.07,2.6-6.67.72-11.55-3.35-13.13a6.88,6.88,0,0,0-2.51-.49Z"/>
    </g>
    <g>
      <path d="M144.27,153.9a8.57,8.57,0,0,1-3.07-.64,6.86,6.86,0,0,1-3.93-3.26c-.78-1.62-.69-3.67.25-6.07,1.48-3.8,4.18-6.06,7.23-6.06a6.33,6.33,0,0,1,2.29.44c3.81,1.49,5.1,5.75,3.21,10.59-1.3,3.32-3.31,5-6,5Z" style="fill: #fff"/>
      <path d="M144.75,138.37a5.78,5.78,0,0,1,2.11.41c3.53,1.38,4.71,5.37,2.92,9.94-1.21,3.1-3.07,4.68-5.51,4.68a8.07,8.07,0,0,1-2.89-.61,6.33,6.33,0,0,1-3.65-3c-.72-1.49-.64-3.4.25-5.67,1.41-3.6,3.93-5.74,6.77-5.74m0-1c-3,0-6,2.12-7.7,6.37-2.12,5.43.19,8.51,4,10a8.93,8.93,0,0,0,3.25.68c2.59,0,4.94-1.47,6.44-5.32,2.12-5.42.28-9.76-3.49-11.24a6.89,6.89,0,0,0-2.47-.47Z"/>
    </g>
    <line x1="138.19" y1="166.11" x2="130.88" y2="163.25" style="fill: #fff;stroke: #000;stroke-miterlimit: 10"/>
    <line x1="137.7" y1="167.36" x2="130.39" y2="164.5" style="fill: #fff;stroke: #000;stroke-miterlimit: 10"/>
    <line x1="103.12" y1="146.14" x2="93.39" y2="143.3" style="fill: #fff;stroke: #000;stroke-miterlimit: 10"/>
    <line x1="102.63" y1="147.4" x2="92.9" y2="144.56" style="fill: #fff;stroke: #000;stroke-miterlimit: 10"/>
    <line x1="123.58" y1="151.73" x2="116.26" y2="148.87" style="fill: #fff;stroke: #000;stroke-miterlimit: 10"/>
    <line x1="123.09" y1="152.98" x2="115.77" y2="150.12" style="fill: #fff;stroke: #000;stroke-miterlimit: 10"/>
    <line x1="80.26" y1="158.41" x2="72.41" y2="156.3" style="fill: #fff;stroke: #000;stroke-miterlimit: 10"/>
    <line x1="78.88" y1="159.71" x2="71.87" y2="157.93" style="fill: #fff;stroke: #000;stroke-miterlimit: 10"/>
    <line x1="72.8" y1="178.13" x2="64.32" y2="175.78" style="fill: #fff;stroke: #000;stroke-miterlimit: 10"/>
    <line x1="70.9" y1="174.98" x2="64.76" y2="174.03" style="fill: #fff;stroke: #000;stroke-miterlimit: 10"/>
    <line x1="71.52" y1="179.56" x2="63.67" y2="177.45" style="fill: #fff;stroke: #000;stroke-miterlimit: 10"/>
    <line x1="92.09" y1="173.14" x2="83.7" y2="171.79" style="fill: #fff;stroke: #000;stroke-miterlimit: 10"/>
    <line x1="91.6" y1="174.4" x2="83.21" y2="173.05" style="fill: #fff;stroke: #000;stroke-miterlimit: 10"/>
    <line x1="90.62" y1="176.9" x2="82.23" y2="175.55" style="fill: #fff;stroke: #000;stroke-miterlimit: 10"/>
    <line x1="112.55" y1="178.73" x2="105.23" y2="175.87" style="fill: #fff;stroke: #000;stroke-miterlimit: 10"/>
    <line x1="112.06" y1="179.98" x2="104.74" y2="177.12" style="fill: #fff;stroke: #000;stroke-miterlimit: 10"/>
    <line x1="111.08" y1="182.49" x2="103.76" y2="179.63" style="fill: #fff;stroke: #000;stroke-miterlimit: 10"/>
    <line x1="128.9" y1="192.35" x2="121.59" y2="189.49" style="fill: #fff;stroke: #000;stroke-miterlimit: 10"/>
    <line x1="128.41" y1="193.6" x2="121.1" y2="190.74" style="fill: #fff;stroke: #000;stroke-miterlimit: 10"/>
    <line x1="127.76" y1="195.27" x2="120.45" y2="192.41" style="fill: #fff;stroke: #000;stroke-miterlimit: 10"/>
    <line x1="149.99" y1="244.5" x2="143.52" y2="240.04" style="fill: #fff;stroke: #000;stroke-miterlimit: 10"/>
    <line x1="149.22" y1="245.61" x2="142.76" y2="241.15" style="fill: #fff;stroke: #000;stroke-miterlimit: 10"/>
    <line x1="148.2" y1="247.09" x2="141.74" y2="242.63" style="fill: #fff;stroke: #000;stroke-miterlimit: 10"/>
    <g>
      <path d="M81.09,148.34a3,3,0,0,1-1.14-.23c-1.73-.67-3.47-2.06-1.61-6.83,1.5-3.84,3.81-6.42,5.76-6.42a2.25,2.25,0,0,1,.81.16,3,3,0,0,1,1.81,2.77,12.31,12.31,0,0,1-1,5.39c-1.34,3.43-2.89,5.16-4.59,5.16Z" style="fill: #fff"/>
      <path d="M84.1,135.36a1.63,1.63,0,0,1,.62.12c2.76,1.08,1.07,6,.49,7.52-.86,2.21-2.28,4.84-4.12,4.84a2.68,2.68,0,0,1-1-.19c-1.6-.63-3-1.86-1.32-6.19,1.4-3.59,3.58-6.1,5.29-6.1m0-1c-2.34,0-4.77,3-6.23,6.73-1.66,4.27-.72,6.47,1.9,7.49a3.52,3.52,0,0,0,1.32.26c2,0,3.68-2,5-5.48,1.67-4.26,1.56-7.79-1-8.81a2.68,2.68,0,0,0-1-.19Z"/>
    </g>
    <g>
      <path d="M158.72,232.78c-1.92,0-3.84-1.33-5.69-2.62a7,7,0,0,1-3.08-4.7,8.18,8.18,0,0,1,1.64-5.84,8.94,8.94,0,0,1,7.25-4,7.11,7.11,0,0,1,4.12,1.28c3.53,2.45,4.13,7.45,1.41,11.62-1.87,2.85-3.71,4.24-5.65,4.24Z" style="fill: #fff"/>
      <path d="M158.84,216.14a6.64,6.64,0,0,1,3.84,1.19c3.35,2.33,3.89,6.93,1.27,10.94-1.77,2.7-3.48,4-5.23,4s-3.61-1.29-5.4-2.53a6.44,6.44,0,0,1-2.87-4.36,7.67,7.67,0,0,1,1.55-5.48,8.45,8.45,0,0,1,6.84-3.77m0-1a9.47,9.47,0,0,0-7.66,4.2c-2.92,4.18-2.19,8.61,1.57,11.23,1.95,1.36,3.91,2.71,6,2.71,1.9,0,3.89-1.14,6.07-4.47,2.9-4.45,2.22-9.69-1.54-12.3a7.59,7.59,0,0,0-4.41-1.37Z"/>
    </g>
  </g>
</svg>
