<svg id="Layer_1" data-name="Layer 1" xmlns="http://www.w3.org/2000/svg" viewBox="0 0 300 300">
  <g>
    <circle cx="136" cy="225" r="5.5" style="fill: #fff"/>
    <path d="M136,220a5,5,0,1,1-5,5,5,5,0,0,1,5-5m0-1a6,6,0,1,0,6,6,6,6,0,0,0-6-6Z"/>
  </g>
  <circle cx="225.74" cy="71.97" r="6"/>
  <g>
    <circle cx="92" cy="214" r="9.5" style="fill: #fff"/>
    <path d="M92,205a9,9,0,1,1-9,9,9,9,0,0,1,9-9m0-1a10,10,0,1,0,10,10,10,10,0,0,0-10-10Z"/>
  </g>
  <circle cx="113" cy="251" r="3"/>
  <g>
    <circle cx="213" cy="186" r="5.5" style="fill: #fff"/>
    <path d="M213,181a5,5,0,1,1-5,5,5,5,0,0,1,5-5m0-1a6,6,0,1,0,6,6,6,6,0,0,0-6-6Z"/>
  </g>
  <circle cx="61" cy="170" r="10"/>
  <circle cx="176" cy="242" r="10"/>
  <circle cx="210.5" cy="119.5" r="22.5"/>
  <g>
    <circle cx="160" cy="101" r="9.5" style="fill: #fff"/>
    <path d="M160,92a9,9,0,1,1-9,9,9,9,0,0,1,9-9m0-1a10,10,0,1,0,10,10,10,10,0,0,0-10-10Z"/>
  </g>
  <polygon points="128 57.03 128 87.51 138.17 76.97 152.51 77.24 128 57.03"/>
  <g>
    <polygon points="107.5 150.68 130.1 169.31 116.96 169.06 107.5 178.87 107.5 150.68" style="fill: #fff"/>
    <path d="M108,151.73l20.7,17.06-11.5-.22h-.43l-.31.31L108,177.64V151.73m-1-2.11V180.1l10.17-10.53,14.34.27L107,149.62Z"/>
  </g>
  <g>
    <line x1="137" y1="141.58" x2="168" y2="141.58" style="fill: none;stroke: #000;stroke-miterlimit: 10;stroke-width: 0.992125988006592px"/>
    <line x1="152.5" y1="126.08" x2="152.5" y2="157.08" style="fill: none;stroke: #000;stroke-miterlimit: 10;stroke-width: 0.992125988006592px"/>
  </g>
  <path d="M137.15,51.44a1.26,1.26,0,0,1-.92-.33,1.12,1.12,0,0,1-.35-.86V47.88a1.21,1.21,0,0,1,.34-.89,1.11,1.11,0,0,1,.86-.35h3.29a3,3,0,0,0,1.31-.25,1.69,1.69,0,0,0,.79-.7,2.15,2.15,0,0,0,.28-1.15,1.82,1.82,0,0,0-1.16-1.76,3.43,3.43,0,0,0-1.3-.23,2.73,2.73,0,0,0-1.28.26,1.9,1.9,0,0,0-.79.72,4.08,4.08,0,0,0-.45,1.11,1.9,1.9,0,0,1-.25.45,1.1,1.1,0,0,1-.39.29,1.56,1.56,0,0,1-.66.12,1.25,1.25,0,0,1-.88-.31,1.09,1.09,0,0,1-.35-.87,3.88,3.88,0,0,1,.65-2.26,4.1,4.1,0,0,1,1.83-1.46,6.85,6.85,0,0,1,2.73-.51,6.19,6.19,0,0,1,2.7.54,3.92,3.92,0,0,1,1.72,1.57,4.72,4.72,0,0,1,.6,2.42,4.36,4.36,0,0,1-.58,2.29,3.75,3.75,0,0,1-1.8,1.52A7.47,7.47,0,0,1,140,49h-1.84l.26-.82v2.09a1.12,1.12,0,0,1-.35.86A1.28,1.28,0,0,1,137.15,51.44Zm0,4.11a1.64,1.64,0,0,1-1.18-.42,1.62,1.62,0,0,1,0-2.2,1.68,1.68,0,0,1,1.18-.41,1.59,1.59,0,0,1,1.14.41,1.62,1.62,0,0,1,0,2.2A1.56,1.56,0,0,1,137.16,55.55Z"/>
  <g>
    <g>
      <path d="M75.93,122.17a19.5,19.5,0,1,1,13.8-5.71A19.4,19.4,0,0,1,75.93,122.17Z" style="fill: #fff"/>
      <path d="M75.93,83.66a19,19,0,1,1-13.44,5.57,18.88,18.88,0,0,1,13.44-5.57m0-1a20,20,0,1,0,14.15,5.86,19.94,19.94,0,0,0-14.15-5.86Z"/>
    </g>
    <g>
      <line x1="63.43" y1="102.67" x2="88.43" y2="102.67" style="fill: none;stroke: #000;stroke-miterlimit: 10;stroke-width: 0.992125988006592px"/>
      <line x1="75.93" y1="90.17" x2="75.93" y2="115.17" style="fill: none;stroke: #000;stroke-miterlimit: 10;stroke-width: 0.992125988006592px"/>
    </g>
    <rect x="94.71" y="112.82" width="5" height="20.83" transform="translate(-58.67 104.83) rotate(-45)"/>
  </g>
  <g>
    <g>
      <path d="M171.08,211a19.51,19.51,0,1,1,13.79-5.71A19.42,19.42,0,0,1,171.08,211Z" style="fill: #fff"/>
      <path d="M171.08,172.52a19,19,0,1,1-13.44,5.56,18.89,18.89,0,0,1,13.44-5.56m0-1a20,20,0,1,0,14.14,5.85,20,20,0,0,0-14.14-5.85Z"/>
    </g>
    <line x1="158.58" y1="191.53" x2="183.58" y2="191.53" style="fill: none;stroke: #000;stroke-miterlimit: 10;stroke-width: 0.992125988006592px"/>
    <rect x="189.85" y="201.67" width="5" height="20.83" transform="translate(-93.63 198.13) rotate(-45)"/>
  </g>
</svg>
