<svg id="Layer_1" data-name="Layer 1" xmlns="http://www.w3.org/2000/svg" viewBox="0 0 300 300">
  <g>
    <g id="rays">
      <g>
        <line x1="150" y1="286.14" x2="150" y2="13.86" style="fill: none;stroke: #000;stroke-miterlimit: 10;stroke-width: 0.99210000038147px"/>
        <line x1="185.21" y1="281.49" x2="114.79" y2="18.51" style="fill: none;stroke: #000;stroke-miterlimit: 10;stroke-width: 0.99210000038147px"/>
        <line x1="218.06" y1="267.9" x2="81.94" y2="32.1" style="fill: none;stroke: #000;stroke-miterlimit: 10;stroke-width: 0.99210000038147px"/>
        <line x1="246.25" y1="246.28" x2="53.75" y2="53.72" style="fill: none;stroke: #000;stroke-miterlimit: 10;stroke-width: 0.99210000038147px"/>
        <line x1="267.87" y1="218.09" x2="32.13" y2="81.91" style="fill: none;stroke: #000;stroke-miterlimit: 10;stroke-width: 0.99210000038147px"/>
        <line x1="281.45" y1="185.24" x2="18.55" y2="114.76" style="fill: none;stroke: #000;stroke-miterlimit: 10;stroke-width: 0.99210000038147px"/>
        <line x1="286.11" y1="149.97" x2="13.89" y2="149.97" style="fill: none;stroke: #000;stroke-miterlimit: 10;stroke-width: 0.99210000038147px"/>
        <line x1="281.45" y1="114.76" x2="18.55" y2="185.24" style="fill: none;stroke: #000;stroke-miterlimit: 10;stroke-width: 0.99210000038147px"/>
        <line x1="267.87" y1="81.91" x2="32.13" y2="218.09" style="fill: none;stroke: #000;stroke-miterlimit: 10;stroke-width: 0.99210000038147px"/>
        <line x1="246.25" y1="53.72" x2="53.75" y2="246.28" style="fill: none;stroke: #000;stroke-miterlimit: 10;stroke-width: 0.99210000038147px"/>
        <line x1="218.06" y1="32.1" x2="81.94" y2="267.9" style="fill: none;stroke: #000;stroke-miterlimit: 10;stroke-width: 0.99210000038147px"/>
        <line x1="185.21" y1="18.51" x2="114.79" y2="281.49" style="fill: none;stroke: #000;stroke-miterlimit: 10;stroke-width: 0.99210000038147px"/>
      </g>
    </g>
    <g id="eye">
      <g>
        <path d="M202.82,150h0A94.78,94.78,0,0,0,96.36,150h0A94.78,94.78,0,0,0,202.82,150Z" style="fill: #fff;stroke: #000;stroke-miterlimit: 10;stroke-width: 0.99210000038147px"/>
        <g>
          <g>
            <path d="M149.56,164.06a14.35,14.35,0,1,1,14.35-14.35A14.37,14.37,0,0,1,149.56,164.06Z" style="fill: #fff"/>
            <path d="M149.56,135.68a14,14,0,1,1-14,14,14.07,14.07,0,0,1,14-14m0-.64a14.67,14.67,0,1,0,14.67,14.67A14.67,14.67,0,0,0,149.56,135Z"/>
          </g>
          <circle cx="149.56" cy="149.71" r="7.59"/>
        </g>
      </g>
    </g>
  </g>
</svg>
