<svg id="Layer_1" data-name="Layer 1" xmlns="http://www.w3.org/2000/svg" viewBox="0 0 300 300">
  <g>
    <path d="M159.25,188.93a1.35,1.35,0,0,1,.42-1.77L257.9,119.4a1.32,1.32,0,0,1,1.87.37l.07.12a1.31,1.31,0,0,1-.43,1.75L161.18,189.4a1.37,1.37,0,0,1-1,.22,1.4,1.4,0,0,1-.9-.56C159.31,189,159.28,189,159.25,188.93Z" style="fill: #fff"/>
    <path d="M259.59,120a1.07,1.07,0,0,1-.33,1.39L161,189.18a1.06,1.06,0,0,1-.79.17,1,1,0,0,1-.7-.44l-.06-.1a1.08,1.08,0,0,1,.33-1.4L258,119.66a1,1,0,0,1,.8-.17,1,1,0,0,1,.7.44l.06.1m.5-.27-.08-.16a1.65,1.65,0,0,0-2.3-.42l-98.23,67.75a1.66,1.66,0,0,0-.51,2.15l.09.15a1.64,1.64,0,0,0,2.3.43l98.22-67.75a1.64,1.64,0,0,0,.51-2.15Z"/>
  </g>
  <g>
    <path d="M158.64,188.05a1.39,1.39,0,0,1,.35-1.73l93.62-73.94a1.35,1.35,0,0,1,1.91.24c0,.08.09.12.13.19a1.39,1.39,0,0,1-.34,1.73l-93.62,73.94a1.35,1.35,0,0,1-1.91-.24A.72.72,0,0,1,158.64,188.05Z" style="fill: #fff"/>
    <path d="M254.4,113a1.06,1.06,0,0,1-.29,1.34l-93.63,73.94a1.1,1.1,0,0,1-1.5-.17c0-.05-.08-.09-.11-.14a1.06,1.06,0,0,1,.29-1.34l93.63-73.94a1.09,1.09,0,0,1,1.5.17s.08.09.11.14m.53-.29a.91.91,0,0,0-.16-.24,1.66,1.66,0,0,0-2.32-.28l-93.63,73.94a1.65,1.65,0,0,0-.42,2.06,1,1,0,0,0,.16.24,1.66,1.66,0,0,0,2.33.29l93.62-73.94a1.59,1.59,0,0,0,.42-2.07Z"/>
  </g>
  <g>
    <path d="M159.2,188.89a1.36,1.36,0,0,1,.16-1.53l76.89-91.29a1.34,1.34,0,0,1,1.92-.15,1.27,1.27,0,0,1,.31.39,1.38,1.38,0,0,1-.15,1.53l-76.89,91.25a1.34,1.34,0,0,1-1.92.16A1.14,1.14,0,0,1,159.2,188.89Z" style="fill: #fff"/>
    <path d="M238.18,96.48a1.11,1.11,0,0,1-.1,1.2l-76.89,91.25a1,1,0,0,1-.72.36,1.17,1.17,0,0,1-.79-.23,1,1,0,0,1-.25-.29,1.11,1.11,0,0,1,.1-1.21l76.88-91.25a1.05,1.05,0,0,1,1.49-.11.63.63,0,0,1,.28.28m.53-.29a1.5,1.5,0,0,0-.39-.48,1.64,1.64,0,0,0-2.33.18L159.1,187.14a1.67,1.67,0,0,0-.21,1.85,1.5,1.5,0,0,0,.39.48,1.66,1.66,0,0,0,2.34-.18L238.5,98a1.61,1.61,0,0,0,.21-1.85Z"/>
  </g>
  <g>
    <path d="M159.25,188.93a1.37,1.37,0,0,1,.52-1.83L263.3,127.74a1.38,1.38,0,0,1,1.05-.14,1.55,1.55,0,0,1,.83.63l0,0a1.38,1.38,0,0,1-.53,1.83L161.16,189.48a1.36,1.36,0,0,1-1.85-.51l0-.05Z" style="fill: #fff"/>
    <path d="M264.85,128.41a1.08,1.08,0,0,1-.4,1.44L160.93,189.24a1.06,1.06,0,0,1-.8.1,1,1,0,0,1-.63-.51l0,0a1.09,1.09,0,0,1,.41-1.44L263.38,128a1.1,1.1,0,0,1,1.47.41h0m.53-.29h0a1.67,1.67,0,0,0-2.28-.63L159.61,186.86a1.66,1.66,0,0,0-.64,2.22l0,0a1.67,1.67,0,0,0,2.27.61l103.51-59.39a1.59,1.59,0,0,0,.61-2.21Z"/>
  </g>
  <g>
    <path d="M159.25,188.93a.62.62,0,0,1-.07-.19,1.42,1.42,0,0,1,.06-1.05A1.39,1.39,0,0,1,160,187l112.41-40a1.39,1.39,0,0,1,1.66.64.44.44,0,0,1,.07.19,1.36,1.36,0,0,1-.8,1.75l-112.4,40A1.35,1.35,0,0,1,159.25,188.93Z" style="fill: #fff"/>
    <path d="M274.3,147.48l-.54.29.09.15a1.08,1.08,0,0,1-.64,1.37l-112.41,40a1.05,1.05,0,0,1-1.29-.52l-.09-.15a1.08,1.08,0,0,1,.64-1.36l112.41-40a1.05,1.05,0,0,1,1.29.52l.54-.29m0,0a1.72,1.72,0,0,0-2-.79l-112.4,40a1.64,1.64,0,0,0-1,2.12c0,.07.06.16.1.24a1.7,1.7,0,0,0,2,.79l112.41-40a1.63,1.63,0,0,0,1-2.11.87.87,0,0,0-.1-.24Z"/>
  </g>
  <g>
    <path d="M159.25,188.93a1.43,1.43,0,0,1,.07-1.38,1.29,1.29,0,0,1,.86-.6l116.63-25.13a1.41,1.41,0,0,1,1.5.7,1.91,1.91,0,0,1,.13.36,1.44,1.44,0,0,1-.2,1,1.31,1.31,0,0,1-.86.59L160.72,189.64A1.36,1.36,0,0,1,159.25,188.93Z" style="fill: #fff"/>
    <path d="M278,162.69h0a.77.77,0,0,1,.12.26,1.17,1.17,0,0,1-.16.81,1,1,0,0,1-.67.46L160.66,189.35a1.09,1.09,0,0,1-1.18-.54,1.28,1.28,0,0,1-.11-.27,1.12,1.12,0,0,1,.15-.81,1,1,0,0,1,.67-.46l116.63-25.13a1.07,1.07,0,0,1,1.18.55m.54-.29a1.66,1.66,0,0,0-1.83-.82L160.08,186.71a1.64,1.64,0,0,0-1.25,2,1.25,1.25,0,0,0,.17.43,1.66,1.66,0,0,0,1.83.82L277.44,164.8a1.64,1.64,0,0,0,1.25-2,.93.93,0,0,0-.15-.41Z"/>
  </g>
  <g>
    <path d="M159.2,188.89a1.43,1.43,0,0,1,.07-1.45L227.1,89.31A1.35,1.35,0,0,1,229,89a1.65,1.65,0,0,1,.41.47,1.4,1.4,0,0,1-.07,1.45L161.51,189a1.35,1.35,0,0,1-1.89.34A1.47,1.47,0,0,1,159.2,188.89Z" style="fill: #fff"/>
    <path d="M229.16,89.6h0a1.08,1.08,0,0,1,0,1.11l-67.83,98.14a1,1,0,0,1-1.46.27,1,1,0,0,1-.34-.38,1.08,1.08,0,0,1,.05-1.11l67.83-98.14a1.06,1.06,0,0,1,1.47-.27,1,1,0,0,1,.33.38m.56-.3a1.67,1.67,0,0,0-.51-.58,1.64,1.64,0,0,0-2.31.4l-67.83,98.14a1.66,1.66,0,1,0,2.71,1.91L229.61,91a1.62,1.62,0,0,0,.11-1.73Z"/>
  </g>
  <g>
    <path d="M159.25,188.93a1.3,1.3,0,0,1-.16-.54,1.35,1.35,0,0,1,1.25-1.46l118.91-9.58a1.4,1.4,0,0,1,1.32.74,1.26,1.26,0,0,1,.16.53,1.36,1.36,0,0,1-1.25,1.47l-118.91,9.57A1.35,1.35,0,0,1,159.25,188.93Z" style="fill: #fff"/>
    <path d="M280.28,178.21h0a1.44,1.44,0,0,1,.13.43,1,1,0,0,1-.25.75,1.11,1.11,0,0,1-.73.36l-118.91,9.58a1.11,1.11,0,0,1-1-.56,1.21,1.21,0,0,1-.13-.42,1.05,1.05,0,0,1,1-1.15l118.91-9.57a1.15,1.15,0,0,1,1,.58m.55-.3a1.58,1.58,0,0,0-1.6-.84l-118.91,9.58a1.64,1.64,0,0,0-1.52,1.8,1.83,1.83,0,0,0,.19.66,1.58,1.58,0,0,0,1.6.84l118.92-9.58a1.65,1.65,0,0,0,1.51-1.81,1.68,1.68,0,0,0-.19-.65Z"/>
  </g>
  <g>
    <path d="M158.73,188.2a1.4,1.4,0,0,1-.12-1.06L193.23,73A1.41,1.41,0,0,1,195,72a1.43,1.43,0,0,1,.81.65,1.35,1.35,0,0,1,.11,1.06L161.26,187.91a1.35,1.35,0,0,1-1.67.91A1.21,1.21,0,0,1,158.73,188.2Z" style="fill: #fff"/>
    <path d="M195.49,72.89h0a1,1,0,0,1,.08.81L161,187.88a1,1,0,0,1-1.29.7,1,1,0,0,1-.64-.51,1,1,0,0,1-.08-.81L193.56,73.08a1,1,0,0,1,.51-.64,1,1,0,0,1,.81-.08,1.16,1.16,0,0,1,.61.53m.54-.29a1.72,1.72,0,0,0-1-.81A1.63,1.63,0,0,0,193,72.9L158.35,187.09a1.69,1.69,0,0,0,.13,1.27,1.72,1.72,0,0,0,1,.81,1.62,1.62,0,0,0,2.06-1.12l34.6-114.2A1.67,1.67,0,0,0,196,72.6Z"/>
  </g>
  <g>
    <path d="M158.26,187.53a1.39,1.39,0,0,1-.13-1L185.35,70.36a1.34,1.34,0,0,1,1.62-1,1.42,1.42,0,0,1,.91.7,1.39,1.39,0,0,1,.13,1L160.79,187.21a1.41,1.41,0,0,1-.62.86,1.23,1.23,0,0,1-1,.17A1.7,1.7,0,0,1,158.26,187.53Z" style="fill: #fff"/>
    <path d="M187.57,70.21h0a1.18,1.18,0,0,1,.12.76L160.46,187.16a1.09,1.09,0,0,1-.47.65,1.13,1.13,0,0,1-.81.14,1.06,1.06,0,0,1-.69-.55,1.08,1.08,0,0,1-.11-.75L185.6,70.46a1,1,0,0,1,1.26-.78,1,1,0,0,1,.71.53m.56-.3a1.82,1.82,0,0,0-1.09-.86,1.66,1.66,0,0,0-2,1.25L157.83,186.48a1.71,1.71,0,0,0,.15,1.2,1.82,1.82,0,0,0,1.09.86,1.66,1.66,0,0,0,2-1.25L188.29,71.11a1.71,1.71,0,0,0-.16-1.2Z"/>
  </g>
  <g>
    <path d="M158.73,188.2a1.36,1.36,0,0,1-.08-1.18l44-110.92a1.39,1.39,0,0,1,.73-.76,1.37,1.37,0,0,1,1.74.6,1.36,1.36,0,0,1,.08,1.18L161.2,188a1.38,1.38,0,0,1-.74.76,1.3,1.3,0,0,1-1,0A1.33,1.33,0,0,1,158.73,188.2Z" style="fill: #fff"/>
    <path d="M204.88,76.14h0a1.11,1.11,0,0,1,.06.89L160.93,188a1.08,1.08,0,0,1-1.93.09,1.07,1.07,0,0,1-.05-.89L203,76.23a1.09,1.09,0,0,1,.57-.57,1.16,1.16,0,0,1,.82,0,1.49,1.49,0,0,1,.53.5m.51-.27a1.65,1.65,0,0,0-.84-.76,1.62,1.62,0,0,0-2.15.93L158.39,187a1.63,1.63,0,0,0,.08,1.43,1.65,1.65,0,0,0,3-.18l44-110.92a1.59,1.59,0,0,0-.08-1.43Z"/>
  </g>
  <g>
    <path d="M158.73,188.2a1.4,1.4,0,0,1,0-1.4l63-101.31a1.35,1.35,0,0,1,1.88-.43,1.5,1.5,0,0,1,.47.5,1.43,1.43,0,0,1,0,1.4l-63,101.32a1.42,1.42,0,0,1-1.9.43A1.68,1.68,0,0,1,158.73,188.2Z" style="fill: #fff"/>
    <path d="M223.85,85.74a1,1,0,0,1,0,1.08l-63,101.31a1,1,0,0,1-1.44.32,1.14,1.14,0,0,1-.37-.39,1,1,0,0,1,0-1.07L222,85.67a1,1,0,0,1,.67-.46,1,1,0,0,1,.79.13,1,1,0,0,1,.35.4m.56-.3a1.52,1.52,0,0,0-.6-.63,1.65,1.65,0,0,0-2.29.52l-63,101.31a1.62,1.62,0,0,0,0,1.67,1.45,1.45,0,0,0,.6.63,1.64,1.64,0,0,0,2.28-.52l63-101.29a1.75,1.75,0,0,0,0-1.69Z"/>
  </g>
  <g>
    <path d="M158.73,188.2a1.35,1.35,0,0,1,.28-1.67L246.1,105a1.45,1.45,0,0,1,1-.36,1.34,1.34,0,0,1,1,.43,1.37,1.37,0,0,1,.21.28A1.34,1.34,0,0,1,248,107l-87.09,81.57a1.46,1.46,0,0,1-1,.37,1.34,1.34,0,0,1-1-.43A1.37,1.37,0,0,1,158.73,188.2Z" style="fill: #fff"/>
    <path d="M248,105.5h0a1.05,1.05,0,0,1-.21,1.3l-87.09,81.57a1.19,1.19,0,0,1-.77.28.94.94,0,0,1-.73-.32.78.78,0,0,1-.15-.22,1.05,1.05,0,0,1,.21-1.3l87.09-81.57a1.19,1.19,0,0,1,.77-.28.94.94,0,0,1,.73.32s.11.14.15.22m.54-.29a2.27,2.27,0,0,0-.26-.35,1.7,1.7,0,0,0-2.36-.11l-87.09,81.57a1.69,1.69,0,0,0-.33,2,2.22,2.22,0,0,0,.25.35,1.7,1.7,0,0,0,2.36.11l87.09-81.57a1.7,1.7,0,0,0,.34-2Z"/>
  </g>
  <g>
    <path d="M158.53,187.91l-.06-.13a1.35,1.35,0,0,1,.71-1.77l110.35-45.38a1.4,1.4,0,0,1,1.74.6l.07.13a1.35,1.35,0,0,1-.72,1.77L160.27,188.51A1.4,1.4,0,0,1,158.53,187.91Z" style="fill: #fff"/>
    <path d="M271,141.37l.05.1a1,1,0,0,1,0,.83,1.09,1.09,0,0,1-.57.57L160.14,188.26a1.07,1.07,0,0,1-1.35-.49l-.06-.1a1.07,1.07,0,0,1,.59-1.4l110.35-45.39a1.12,1.12,0,0,1,1.35.49m.51-.28a1.67,1.67,0,0,0-2.08-.74L159.1,185.73a1.65,1.65,0,0,0-.9,2.16l.08.16a1.66,1.66,0,0,0,2.08.74l110.35-45.38a1.66,1.66,0,0,0,.9-2.16l-.08-.16Z"/>
  </g>
  <g>
    <polygon points="70.77 236.4 97.22 215.78 113.97 204.99 127.71 202.02 159.04 185.99 161.3 189.5 128.51 205.99 117.18 208.97 100.34 218.95 74.39 238.9 64.59 254.04 59.67 252.79 70.77 236.4"/>
    <path d="M160.87,189.37l-32.45,16.34-11.26,3h-.09l-.08.05-16.78,9.95h0L74.25,238.65l-.09.08,0,.09L64.47,253.7l-4.27-1.09,10.82-16,26.41-20.56,16.73-10.78,13.64-2.91.09,0,.07,0,31-15.9,1.87,3m.87.22-2.58-4-31.54,16.14-13.75,2.95L97,215.53l-26.5,20.64L59.17,253l5.55,1.43,9.88-15.28,25.91-19.92,16.78-9.95,11.33-3,33.12-16.66Z" style="fill: #fff"/>
  </g>
  <g id="TREE_BIRD" data-name="TREE BIRD">
    <g>
      <g>
        <path d="M87.65,263.87l-4.43-8.33,2.86-19.06a5,5,0,0,0-.93-3.67c-.66-.9-1.35-1.77-2.05-2.71-5.5-7.28-11.73-15.56-15.71-23.42-.42-.81-.84-1.65-1.32-2.55C60,192.18,49.78,172.22,49.75,160.78a46.7,46.7,0,0,1,17.94-36.93,15.39,15.39,0,0,0,4.16-19,18.43,18.43,0,0,1-2-9.18c.24-6.26,4.42-13.64,11.26-19.78s14.57-9.75,21-9.93c.54,0,1.08,0,1.56,0,5,0,8.82.81,12,2.56.51.3,5.18,2.65,5.75,2.89L137,77.86c.39.15.78.3,1.15.48a17.11,17.11,0,0,0,6.56,1.72,8.43,8.43,0,0,0,.87,0c1.11-.12,2.83-.18,4.45-.18a26.19,26.19,0,0,1,7.38.72l.12.06a2.33,2.33,0,0,1,1.59,2,1.46,1.46,0,0,1-1,1.45L139,93.15c-3.58,2.11-12.22,7.49-15.56,12.13-.88,1.17-1.63,2.26-2.38,3.34a48.63,48.63,0,0,1-5.42,6.83,1.58,1.58,0,0,0-.48,1.42,1.54,1.54,0,0,0,.93,1.2,46.89,46.89,0,0,1,19.75,68.18c-4.22,6.47-8.28,21.7-9.45,26.24,0,.12,0,.18-.06.18-.24.73-1.06,2.89-1.9,5.18-1.32,3.52-2.8,7.5-3,8.4-.93,3.46,6.35,26.31,8.4,30.22l-8.37,6.95a39.35,39.35,0,0,1-9.42,1.72,33.52,33.52,0,0,0-7.13,1.2Z"/>
        <path d="M103.63,65.7v.63c5,0,8.73.81,11.8,2.5.48.27,5.15,2.65,5.78,2.89l15.62,6.47,1.15.45a17.59,17.59,0,0,0,6.68,1.75c.3,0,.6,0,.9,0,1.11-.12,2.8-.18,4.43-.18a25.15,25.15,0,0,1,7.25.72l.12.06a2,2,0,0,1,1.38,1.65,1.2,1.2,0,0,1-.81,1.18l-19.05,9.09h-.06c-3.58,2.11-12.25,7.52-15.62,12.19-.88,1.2-1.63,2.26-2.38,3.34a45.69,45.69,0,0,1-5.39,6.77,1.83,1.83,0,0,0-.57,1.69,1.79,1.79,0,0,0,1.11,1.41,46.52,46.52,0,0,1,27.15,42.35A46.22,46.22,0,0,1,135.6,186c-4.22,6.5-8.31,21.79-9.48,26.33a.53.53,0,0,0,0,.18c-.24.73-1.06,2.89-1.9,5.18-1.32,3.52-2.8,7.53-3,8.43-.6,2.23,1.75,10.71,3.22,15.59a132.21,132.21,0,0,0,5.09,14.63l-8.13,6.74a37.76,37.76,0,0,1-9.27,1.69,33.52,33.52,0,0,0-7.13,1.2l-17.1-2.38-4.3-8.09,2.82-19a5.16,5.16,0,0,0-1-3.91c-.66-.9-1.35-1.78-2-2.71-5.51-7.28-11.74-15.53-15.69-23.36-.42-.81-.84-1.65-1.32-2.55-6.08-11.92-16.25-31.85-16.29-43.2a45.81,45.81,0,0,1,4.82-20.68,47.05,47.05,0,0,1,13-16,15.66,15.66,0,0,0,4.22-19.35,18.45,18.45,0,0,1-2-9c.24-6.17,4.4-13.46,11.17-19.54s14.45-9.66,20.89-9.84c.54,0,1.08,0,1.53,0V65.7m0,0c-.54,0-1,0-1.56,0-13.73.42-32.15,16.28-32.63,30a19.09,19.09,0,0,0,2.08,9.33,15,15,0,0,1-4.07,18.54,47.19,47.19,0,0,0-18.06,37.2c0,12.37,11.68,34.23,17.67,46.06,4.49,8.84,11.83,18.21,17.82,26.18a4.54,4.54,0,0,1,.87,3.43l-2.86,19.18,4.58,8.57L105,266.67c7.55-2,7.13-.3,16.67-3l8.64-7.13c-1.84-3.1-9.45-26.73-8.52-30.19.39-1.45,4.34-11.8,4.94-13.58.06-.15,4.63-19,9.45-26.33a47.27,47.27,0,0,0-19.9-68.66,1.29,1.29,0,0,1-.36-2.11c2.44-2.28,4.61-5.81,7.83-10.17,3.1-4.21,10.83-9.3,15.44-12l19-9.09c1.9-.9,1.33-3.28-.66-4l-.12-.06c-1.48-.58-4.64-.76-7.5-.76-1.8,0-3.49.09-4.51.18a7.86,7.86,0,0,1-.84,0c-2.65,0-5.06-1.2-7.56-2.16l-15.59-6.47c-.57-.21-5.18-2.56-5.72-2.86-3.58-2-7.76-2.59-12.13-2.59Z" style="fill: #fff"/>
      </g>
      <path d="M119.73,87.79a5,5,0,0,1,3.62,1.27,1.7,1.7,0,0,1,.36,1.41A4.31,4.31,0,0,1,120.22,94a8.18,8.18,0,0,1-1.45.12c-1.38,0-3.1-.33-3.55-2a2.6,2.6,0,0,1,.66-2.11,5.57,5.57,0,0,1,3.85-2.23m0-.63c-2.37,0-5.77,2.86-5.14,5.15.51,1.86,2.41,2.4,4.15,2.4a8.21,8.21,0,0,0,1.57-.15,5,5,0,0,0,4-4c.42-2.32-2.2-3.4-4.58-3.4Z" style="fill: #fff"/>
      <path d="M158.14,84.21a57.45,57.45,0,0,0-15.65,4.48,71.18,71.18,0,0,0-17,11" style="fill: none;stroke: #fff;stroke-miterlimit: 9.89369964599609;stroke-width: 1.41732287406921px"/>
      <path d="M129.49,99.74c-1.15.12-3.64.69-4,0-.78-1.38,2.38-5.6,5.72-8,4.94-3.55,9.66-3.79,12-7.43.24-.39,1-1.57.57-2.29-.6-1-3.13-.33-3.43-1.14-.12-.36.82-1.39,1.15-1.72" style="fill: none;stroke: #fff;stroke-miterlimit: 9.89369964599609;stroke-width: 1.41732287406921px"/>
      <path d="M71.76,122.92c-1.27,3.31-9.82,8-10.72,14.9" style="fill: none;stroke: #fff;stroke-miterlimit: 9.89369964599609;stroke-width: 1.41732287406921px"/>
      <path d="M77.11,120.54c-1.2,4.76-8.94,15.2-9.24,20" style="fill: none;stroke: #fff;stroke-miterlimit: 9.89369964599609;stroke-width: 1.41732287406921px"/>
      <path d="M63.12,139c-3.28,5.06-4.19,3.58-3.58,19.66" style="fill: none;stroke: #fff;stroke-miterlimit: 9.89369964599609;stroke-width: 1.41732287406921px"/>
      <path d="M69.89,150A11.64,11.64,0,0,0,76.75,156" style="fill: none;stroke: #fff;stroke-miterlimit: 9.89369964599609;stroke-width: 1.41732287406921px"/>
      <path d="M78.92,174.33c1.51.69,3,1.35,4.55,2" style="fill: none;stroke: #fff;stroke-miterlimit: 9.89369964599609;stroke-width: 1.41732287406921px"/>
      <path d="M86.08,129.69v5.45" style="fill: none;stroke: #fff;stroke-miterlimit: 9.89369964599609;stroke-width: 1.41732287406921px"/>
      <path d="M113.08,133.12c-.42,2.71.76,5.78-.78,8.07-1,1.47-3,2.29-3.49,4" style="fill: none;stroke: #fff;stroke-miterlimit: 9.89369964599609;stroke-width: 1.41732287406921px"/>
      <path d="M121,145.7a20.64,20.64,0,0,1-1.48,9.36" style="fill: none;stroke: #fff;stroke-miterlimit: 9.89369964599609;stroke-width: 1.41732287406921px"/>
      <path d="M127.41,168c0,2.37,0,4.75,0,7.13a6.65,6.65,0,0,0,.21,2,7.32,7.32,0,0,0,1.6,2.4,9.07,9.07,0,0,0,3.46,2.74c.78-3.1,1.5-6.2,2.29-9.3.3-1.26.51-2.8-.52-3.61" style="fill: none;stroke: #fff;stroke-miterlimit: 9.89369964599609;stroke-width: 1.41732287406921px"/>
      <path d="M101.07,171a38.74,38.74,0,0,1-7.28,16.94,1.32,1.32,0,0,0-.39,1,1.28,1.28,0,0,0,.57.69c1.53,1.14,3.46,2.32,5.27,1.68a5.66,5.66,0,0,0,2.34-2,36.47,36.47,0,0,0,7.92-21.73" style="fill: none;stroke: #fff;stroke-miterlimit: 9.89369964599609;stroke-width: 1.41732287406921px"/>
      <path d="M88.22,188.93c-.93,2.31-1.81,4.66-2.74,7a13,13,0,0,0-1,3.79,6.79,6.79,0,0,0,6.44,7c3.25,0,6-2.28,8.07-4.81,5.87-7.16,8.3-16.5,10.41-25.56" style="fill: none;stroke: #fff;stroke-miterlimit: 9.89369964599609;stroke-width: 1.41732287406921px"/>
      <path d="M105.56,201.15a12.89,12.89,0,0,0,.9,5.62,2.42,2.42,0,0,0,1.24,1.54,2.72,2.72,0,0,0,2.46-.66c4.19-3.1,6.41-8.31,6.87-13.49s-.73-10.35-2.26-15.32" style="fill: none;stroke: #fff;stroke-miterlimit: 9.89369964599609;stroke-width: 1.41732287406921px"/>
      <path d="M85.75,204.22c-.54,3.46,3.07,13.18,6.26,14.59s3.89,2.41,7.35,2.32,6.83-.18,10.23-.24a5.16,5.16,0,0,0,2.23-.39,4.77,4.77,0,0,0,1.59-1.63c2.89-4.15,5.12-8.75,8.43-12.61,1.84-2.16,4.07-4.06,5.63-6.44,3.37-5,3.58-11.47,3.7-17.52" style="fill: none;stroke: #fff;stroke-miterlimit: 9.89369964599609;stroke-width: 1.41732287406921px"/>
      <path d="M108.09,221.19a42.14,42.14,0,0,1-.94,9.18,2.69,2.69,0,0,1-.93,1.72,2.81,2.81,0,0,1-1.29.39,18.28,18.28,0,0,1-9.82-1.17c-1.71-.76-4.06-.7-3.37-4.19.42-2.2-2.71-3.61-4.27-5.17a23,23,0,0,1-3.4-3.71c-1.45-2.25-5.24-6.38-5.78-9S67.75,186.58,65.5,185.13" style="fill: none;stroke: #fff;stroke-miterlimit: 9.89369964599609;stroke-width: 1.41732287406921px"/>
      <path d="M55.38,166.11c.24.27,4.82,12.82,5.06,13.09,3.07-3.67,2.5-19,4.75-23.23.79,3,.06,17.48,1.48,20.25.27-.21,3.43,1,3.7.79l4.82,4.45a21.55,21.55,0,0,0,.45-5.21l3.64,2.23" style="fill: none;stroke: #fff;stroke-miterlimit: 9.89369964599609;stroke-width: 1.41732287406921px"/>
    </g>
  </g>
</svg>
