<svg id="Layer_1" data-name="Layer 1" xmlns="http://www.w3.org/2000/svg" viewBox="0 0 300 300">
  <g>
    <g>
      <path d="M140,290.75a11.69,11.69,0,0,1-11.13-7.86L53,68.15a11.73,11.73,0,0,1,7.15-14.93L171.52,13.86a11,11,0,0,1,3.8-.66,11.71,11.71,0,0,1,11.14,7.86L262.33,235.8a11.34,11.34,0,0,1-.49,8.92,11.79,11.79,0,0,1-6.65,6L143.79,290.1A12.28,12.28,0,0,1,140,290.75Z"/>
      <path d="M175.32,13.54a11.36,11.36,0,0,1,10.86,7.64l75.87,214.74a11.38,11.38,0,0,1-7,14.54L143.68,289.82a12.2,12.2,0,0,1-3.69.65,11.36,11.36,0,0,1-10.85-7.63L53.27,68.1a11.36,11.36,0,0,1,7-14.54L171.64,14.2a10,10,0,0,1,3.68-.66m0-.57a11.18,11.18,0,0,0-3.86.72L60.07,53.05a12,12,0,0,0-7.31,15.28l75.87,214.74a12,12,0,0,0,11.42,8,11.41,11.41,0,0,0,3.86-.71L255.3,251a12,12,0,0,0,7.32-15.29L186.74,20.94a12.06,12.06,0,0,0-11.42-8Z" style="fill: #fff"/>
    </g>
    <g>
      <path d="M140.2,280.81a3.9,3.9,0,0,1-3.66-2.58L62,67.06a3.84,3.84,0,0,1,2.34-4.9l19-6.75a4.88,4.88,0,0,1,1.54-.29,4.57,4.57,0,0,1,4.39,3.08A7.29,7.29,0,0,0,96.11,63a7.15,7.15,0,0,0,2.38-.42l49.38-17.44a7.24,7.24,0,0,0,4.41-9.23,4.46,4.46,0,0,1,.2-3.53,4.94,4.94,0,0,1,2.65-2.4L174,23.32a5,5,0,0,1,1.25-.24,3.93,3.93,0,0,1,3.66,2.59l74.59,211.17a3.69,3.69,0,0,1-.14,2.9,4,4,0,0,1-2.2,2L141.56,280.46a2.62,2.62,0,0,1-1.36.35Z" style="fill: #fff"/>
      <path d="M175.12,23.48a3.52,3.52,0,0,1,3.37,2.42l74.6,211.17a3.59,3.59,0,0,1-2.18,4.56L141.33,280.35a4.09,4.09,0,0,1-1.19.18,3.53,3.53,0,0,1-3.37-2.41L62.17,66.94a3.38,3.38,0,0,1,.15-2.67,3.59,3.59,0,0,1,2-1.83l19-6.74a4,4,0,0,1,1.42-.24,4.28,4.28,0,0,1,4.11,2.86,7.56,7.56,0,0,0,7.14,5,7.15,7.15,0,0,0,2.44-.42l49.38-17.44a7.76,7.76,0,0,0,4.29-3.84,7.21,7.21,0,0,0,.29-5.74A4.4,4.4,0,0,1,155,30.29l18.85-6.68a8.3,8.3,0,0,1,1.25-.13m0-.57a4,4,0,0,0-1.36.24L154.9,29.84a4.85,4.85,0,0,0-3,6.27A6.9,6.9,0,0,1,147.7,45L98.31,62.39a6.21,6.21,0,0,1-2.26.41,7.07,7.07,0,0,1-6.63-4.6A5,5,0,0,0,84.74,55a6,6,0,0,0-1.65.29L64.12,62a4.17,4.17,0,0,0-2.57,5.24L136.2,278.35a4.13,4.13,0,0,0,3.89,2.75,3.65,3.65,0,0,0,1.36-.24L251,242.14a4.19,4.19,0,0,0,2.57-5.25L179,25.72a4.06,4.06,0,0,0-3.88-2.81Z"/>
    </g>
    <line x1="127.89" y1="255.41" x2="245.74" y2="213.84" style="fill: none;stroke: #000;stroke-miterlimit: 9.89369964599609;stroke-width: 0.989400029182434px"/>
    <g>
      <path d="M191.52,257.34a9.61,9.61,0,0,1-9.09-6.4,9.59,9.59,0,0,1,5.81-12.21,10,10,0,0,1,3.06-.53,9.6,9.6,0,0,1,9.09,6.4,9.57,9.57,0,0,1-5.81,12.2A8.9,8.9,0,0,1,191.52,257.34Z" style="fill: #fff"/>
      <path d="M191.36,238.54a9.25,9.25,0,0,1,3.16,18,9,9,0,0,1-3,.53,9.25,9.25,0,0,1-3.15-18,7.92,7.92,0,0,1,3-.53m0-.57a8.71,8.71,0,0,0-3.18.6,9.8,9.8,0,0,0-6,12.54,9.92,9.92,0,0,0,9.31,6.57,8.71,8.71,0,0,0,3.18-.6,9.8,9.8,0,0,0,6-12.54,9.68,9.68,0,0,0-9.31-6.57Z"/>
    </g>
    <g>
      <circle cx="101.3" cy="52.14" r="4.54" style="fill: none;stroke: #fff;stroke-miterlimit: 9.89369964599609;stroke-width: 0.989400029182434px"/>
      <path d="M139.27,35.36,110.39,45.54a3,3,0,0,0-1.85,3.76h0a3,3,0,0,0,3.77,1.84L141.19,41A3,3,0,0,0,143,37.2h0A3,3,0,0,0,139.27,35.36Z" style="fill: none;stroke: #fff;stroke-miterlimit: 9.89369964599609;stroke-width: 0.989400029182434px"/>
    </g>
  </g>
  <g>
    <line x1="172.55" y1="100.32" x2="174.69" y2="95.79" style="fill: none;stroke: #000;stroke-miterlimit: 10;stroke-width: 0.992125988006592px"/>
    <line x1="176.82" y1="91.26" x2="178.95" y2="86.72" style="fill: none;stroke: #000;stroke-miterlimit: 10;stroke-width: 0.992125988006592px"/>
    <line x1="168.3" y1="109.39" x2="170.43" y2="104.85" style="fill: none;stroke: #000;stroke-miterlimit: 10;stroke-width: 0.992125988006592px"/>
    <line x1="170.43" y1="104.85" x2="172.55" y2="100.32" style="fill: none;stroke: #000;stroke-miterlimit: 10;stroke-width: 0.992125988006592px"/>
    <line x1="174.69" y1="95.79" x2="176.82" y2="91.26" style="fill: none;stroke: #000;stroke-miterlimit: 10;stroke-width: 0.992125988006592px"/>
    <line x1="166.16" y1="113.91" x2="168.3" y2="109.39" style="fill: none;stroke: #000;stroke-miterlimit: 10;stroke-width: 0.992125988006592px"/>
    <line x1="172.55" y1="100.32" x2="174.69" y2="95.79" style="fill: none;stroke: #000;stroke-miterlimit: 10;stroke-width: 0.992125988006592px"/>
    <line x1="178.95" y1="86.72" x2="176.82" y2="91.26" style="fill: none;stroke: #000;stroke-miterlimit: 10;stroke-width: 0.992125988006592px"/>
    <line x1="168.3" y1="109.39" x2="170.43" y2="104.85" style="fill: none;stroke: #000;stroke-miterlimit: 10;stroke-width: 0.992125988006592px"/>
    <line x1="170.43" y1="104.85" x2="172.55" y2="100.32" style="fill: none;stroke: #000;stroke-miterlimit: 10;stroke-width: 0.992125988006592px"/>
    <line x1="174.69" y1="95.79" x2="176.82" y2="91.26" style="fill: none;stroke: #000;stroke-miterlimit: 10;stroke-width: 0.992125988006592px"/>
    <line x1="166.16" y1="113.91" x2="168.3" y2="109.39" style="fill: none;stroke: #000;stroke-miterlimit: 10;stroke-width: 0.992125988006592px"/>
    <path d="M100.26,124.75l3.32-7.06a57,57,0,0,1,4.58-8,55.15,55.15,0,0,1,6.61-7.86c.6-.59,1.22-1.16,1.86-1.72a55,55,0,0,1,60.19-8.87" style="fill: none;stroke: #000;stroke-miterlimit: 10;stroke-width: 0.992125988006592px"/>
    <path d="M174.69,95.79A50,50,0,0,0,136.45,94c-.56.21-1.12.42-1.68.65a50.19,50.19,0,0,0-14.81,9.2q-1.24,1.13-2.43,2.34a49.64,49.64,0,0,0-9.43,13.63l-5.69,12.1" style="fill: none;stroke: #000;stroke-miterlimit: 10;stroke-width: 0.992125988006592px"/>
    <path d="M104.82,138.58,112.65,122a44.74,44.74,0,0,1,24-22.64c.51-.21,1-.4,1.53-.59a44.85,44.85,0,0,1,34.4,1.59" style="fill: none;stroke: #000;stroke-miterlimit: 10;stroke-width: 0.992125988006592px"/>
    <path d="M170.43,104.85a40,40,0,0,0-53.25,19.23l-10,21.15" style="fill: none;stroke: #000;stroke-miterlimit: 10;stroke-width: 0.992125988006592px"/>
    <path d="M168.3,109.39a35,35,0,0,0-46.6,16.83L109.62,151.9" style="fill: none;stroke: #000;stroke-miterlimit: 10;stroke-width: 0.992125988006592px"/>
    <path d="M166.16,113.91a30.08,30.08,0,0,0-32.8,4.85,30.17,30.17,0,0,0-7.11,9.57L112,158.55" style="fill: none;stroke: #000;stroke-miterlimit: 10;stroke-width: 0.992125988006592px"/>
    <path d="M134.72,89.31l-22.63,8.2-5.43,2a25,25,0,0,0-15,31.92l0,.11L94,138.06l2.41,6.66,2.4,6.67,2.4,6.67L116.69,201" style="fill: none;stroke: #000;stroke-miterlimit: 10;stroke-width: 0.992125988006592px"/>
    <path d="M121.79,200.43l-17.57-48.79-2.4-6.67-2.41-6.66L97,131.64l-.67-1.86a20.28,20.28,0,0,1-1.18-6c0-.63,0-1.26,0-1.89a20.07,20.07,0,0,1,6.4-13.65,19,19,0,0,1,3.15-2.36,19.93,19.93,0,0,1,3.63-1.75l6.42-2.31" style="fill: none;stroke: #000;stroke-miterlimit: 10;stroke-width: 0.992125988006592px"/>
    <path d="M108.16,109.72A15.61,15.61,0,0,0,105,112a15.07,15.07,0,0,0-4.8,10.25,13.57,13.57,0,0,0,.08,2.55,15.83,15.83,0,0,0,.79,3.35l1.38,3.82,2.4,6.67,2.4,6.66,20,55.49" style="fill: none;stroke: #000;stroke-miterlimit: 10;stroke-width: 0.992125988006592px"/>
    <path d="M157.56,152.94c6.2-.9,13.29,2.78,17.69,7.73" style="fill: none;stroke: #000;stroke-miterlimit: 10;stroke-width: 0.992125988006592px"/>
    <path d="M131.45,129.6c5.39,4.37,11.24,8.62,15.47,14.12" style="fill: none;stroke: #000;stroke-miterlimit: 10;stroke-width: 0.992125988006592px"/>
    <path d="M128.72,139.37c-.27,1.62,1.74,5.4,2.86,6.6a9.67,9.67,0,0,0,3,2.33c1.49.85,4,2.22,5.76,2.19" style="fill: none;stroke: #000;stroke-miterlimit: 10;stroke-width: 0.992125988006592px"/>
    <path d="M154.61,160.66c3,4.3,9.68,7.35,14.82,8.39" style="fill: none;stroke: #000;stroke-miterlimit: 10;stroke-width: 0.992125988006592px"/>
    <path d="M147.26,147.61c-.33,4.21-1.46,10.39-4.52,13.29-1.29,1.21-2.75,2.24-4,3.44a35.63,35.63,0,0,0-2.92,3.22,5.24,5.24,0,0,0-1.57,3.07,3.36,3.36,0,0,0,2,2.94c1.11.57,3.91,2.41,5.17,2.36" style="fill: none;stroke: #000;stroke-miterlimit: 10;stroke-width: 0.992125988006592px"/>
    <path d="M123.43,171.62c1.46,2.31,7.23,6.85,9.19,8.62a25.81,25.81,0,0,0,5.49,3.51c2.17,1.14,2.91,2.8,5.08,3.94" style="fill: none;stroke: #000;stroke-miterlimit: 10;stroke-width: 0.992125988006592px"/>
    <path d="M126.14,182.09a10.37,10.37,0,0,0,7.9,6.07" style="fill: none;stroke: #000;stroke-miterlimit: 10;stroke-width: 0.992125988006592px"/>
    <path d="M157.36,163.38l-1.93,1.38" style="fill: none;stroke: #000;stroke-miterlimit: 10;stroke-width: 0.992125988006592px"/>
    <path d="M158.71,164.94l-2.15,2.18" style="fill: none;stroke: #000;stroke-miterlimit: 10;stroke-width: 0.992125988006592px"/>
    <path d="M160.94,166.37a10.78,10.78,0,0,0-1.75,2.44" style="fill: none;stroke: #000;stroke-miterlimit: 10;stroke-width: 0.992125988006592px"/>
    <path d="M163.73,167.49c-.83,1-1.32,1.84-2.15,2.9" style="fill: none;stroke: #000;stroke-miterlimit: 10;stroke-width: 0.992125988006592px"/>
    <path d="M165.85,168.19c-.51.86-.71,2.77-1.22,3.63" style="fill: none;stroke: #000;stroke-miterlimit: 10;stroke-width: 0.992125988006592px"/>
    <path d="M168.61,169c-.19,1.24-.37,2.49-.55,3.72" style="fill: none;stroke: #000;stroke-miterlimit: 10;stroke-width: 0.992125988006592px"/>
    <path d="M129.21,141.86c-.75,0-1.8.63-2.56.65" style="fill: none;stroke: #000;stroke-miterlimit: 10;stroke-width: 0.992125988006592px"/>
    <path d="M130.31,144.33l-2,1.84" style="fill: none;stroke: #000;stroke-miterlimit: 10;stroke-width: 0.992125988006592px"/>
    <path d="M132.26,146.62a8.65,8.65,0,0,1-1.85,2.19" style="fill: none;stroke: #000;stroke-miterlimit: 10;stroke-width: 0.992125988006592px"/>
    <path d="M134.6,148.31a13,13,0,0,1-1.68,2.73" style="fill: none;stroke: #000;stroke-miterlimit: 10;stroke-width: 0.992125988006592px"/>
    <path d="M137.08,149.67a14.37,14.37,0,0,1-1.25,2.44" style="fill: none;stroke: #000;stroke-miterlimit: 10;stroke-width: 0.992125988006592px"/>
    <path d="M139.55,150.6a6.87,6.87,0,0,1-.55,2.09" style="fill: none;stroke: #000;stroke-miterlimit: 10;stroke-width: 0.992125988006592px"/>
    <path d="M166.2,113.9c-2.21,2.56-6.22,4-9.59,4.3s-6.77.09-10.11.56c-6.14.9-11.72,4.3-16,8.76S114.62,152.94,112,158.57" style="fill: none;stroke: #000;stroke-miterlimit: 10;stroke-width: 0.992125988006592px"/>
    <path d="M166.2,113.9a16.9,16.9,0,0,0,6.2,12.32c1.51,1.31,3.28,2.43,4.28,4.11,2.24,3.8-.23,8.71-.33,13.17-.07,3.34,1.24,6.57.69,9.91-.46,2.93-2.25,6.25-.45,8.52" style="fill: none;stroke: #000;stroke-miterlimit: 10;stroke-width: 0.992125988006592px"/>
    <path d="M166.16,113.91a29.7,29.7,0,0,1,9.52,7.08,30,30,0,0,1,4.83,32.87L170.07,176a14.94,14.94,0,0,1-6.44,6.76c-12.83,6.95-41.48,3.78-36.37,17.94" style="fill: none;stroke: #000;stroke-miterlimit: 10;stroke-width: 0.992125988006592px"/>
    <path d="M157.77,241.9,150,220.34a30,30,0,0,0-38.06-18.22" style="fill: none;stroke: #000;stroke-miterlimit: 10;stroke-width: 0.992125988006592px"/>
    <path d="M153.3,243.73,145.48,222a25,25,0,0,0-5.15-8.5,25.25,25.25,0,0,0-7.74-5.68,24.91,24.91,0,0,0-19.09-.91" style="fill: none;stroke: #000;stroke-miterlimit: 10;stroke-width: 0.992125988006592px"/>
    <path d="M148.6,245.42l-7.83-21.73a20,20,0,0,0-25.57-12.07" style="fill: none;stroke: #000;stroke-miterlimit: 10;stroke-width: 0.992125988006592px"/>
    <path d="M143.9,247.12l-7.83-21.73a15,15,0,0,0-7.73-8.51h0a14.89,14.89,0,0,0-11.44-.56l-18.7-51.9-2.4-6.66L91,144.45l-4.06-11.28a30,30,0,0,1,18-38.43l26.31-9.48A59.88,59.88,0,0,1,179,86.72" style="fill: none;stroke: #000;stroke-miterlimit: 10;stroke-width: 0.992125988006592px"/>
    <path d="M190.46,230.44A98.59,98.59,0,0,1,200.09,183l7.69-16.34a60.09,60.09,0,0,0-28.81-80h0l0,.07" style="fill: none;stroke: #000;stroke-miterlimit: 10;stroke-width: 0.992125988006592px"/>
    <path d="M176.82,91.26s0-.05,0,0h0a52.73,52.73,0,0,1,10.38,6.45,51.53,51.53,0,0,1,14.51,18.48,50.46,50.46,0,0,1,3.76,11.4c2.19,6.67,1.45,17.5.51,24.6a36.87,36.87,0,0,1-2.61,9.18c-1.24,3-2.65,6-4.25,9-.65.72-6.55,12-6.83,12.95-1.33,4.6-9,13.55-8.35,18.19.39,2.92,2.28,5.25,1.6,9.26-1.21,7.18-.46,14.85.06,21.46" style="fill: none;stroke: #000;stroke-miterlimit: 10;stroke-width: 0.992125988006592px"/>
    <path d="M174.69,95.79s0,0,0,0h0a45.93,45.93,0,0,1,10.2,6.58,45.21,45.21,0,0,1,7.87,8.74,44.62,44.62,0,0,1,5.28,10.3,43.4,43.4,0,0,1,2.44,11.43c1.74,5.33-.78,18.45-1.69,24.1a26,26,0,0,1-3.37,8.71c-1.58,2.69-3.24,5.51-5,8.39-1.32,1.43-10.85,16.65-11.35,18.52-1.18,4.44-4.69,7.55-5.25,12-.16,1.17,4.19,11.6,4.07,12.78-.6,5.82.25,11.28,1.25,17.17" style="fill: none;stroke: #000;stroke-miterlimit: 10;stroke-width: 0.992125988006592px"/>
    <path d="M172.55,100.32s0,0,0,0h0A40.12,40.12,0,0,1,190,116a39.63,39.63,0,0,1,4.41,10.58,38.53,38.53,0,0,1,1.12,11.47c1.31,4-3.08,19.39-3.88,23.62a19.56,19.56,0,0,1-4.14,8.23c-1.91,2.42-3.82,5-5.64,7.79-2,2.14-9.54,12.17-10.23,15-1.07,4.41-5.26,4.66-5.36,9.12,0,1.07,4,11.71,4.07,12.78.33,5.71,2.16,13.63,4.06,21.6" style="fill: none;stroke: #000;stroke-miterlimit: 10;stroke-width: 0.992125988006592px"/>
    <path d="M170.43,104.85s0,0,0,0h0a35.8,35.8,0,0,1,9.83,6.82,35.74,35.74,0,0,1,10.4,20.18,33.8,33.8,0,0,1,.11,9.63,26.69,26.69,0,0,0-.22,2.67c-.1,4.36-5.58,19.73-6.15,22.32a15.6,15.6,0,0,1-4.91,7.73,55.55,55.55,0,0,0-5.9,6.64c-.25.32-5.29,9.11-5.54,9.42-2.64,3.2-10.5,4.55-11.29,8.2-.94,4.33,6.65,3.56,7,8,.08,1.07,1,8.69,1,9.76-.17,4,1.74,12.59,4.24,21.94" style="fill: none;stroke: #000;stroke-miterlimit: 10;stroke-width: 0.992125988006592px"/>
    <path d="M168.3,109.39s0,0,0,0h0a32.57,32.57,0,0,1,9.65,6.94,32.72,32.72,0,0,1,9,20.73,31.31,31.31,0,0,1-1.52,11.54c.44,1.34-7.91,21.24-8.26,22.63-.77,3.09-3.18,5.46-5.67,7.25a37.22,37.22,0,0,0-7,6.6c-3.28,3.58-24.66,6.77-25.58,11.53-.88,4.55,14.76,9.59,16.38,14.06.16.46,4.37,14.43,8.88,29.21" style="fill: none;stroke: #000;stroke-miterlimit: 10;stroke-width: 0.992125988006592px"/>
  </g>
</svg>
