<?xml version="1.0" encoding="utf-8"?>
<!-- Generator: Adobe Illustrator 24.2.0, SVG Export Plug-In . SVG Version: 6.00 Build 0)  -->
<svg version="1.1" id="Layer_1" xmlns="http://www.w3.org/2000/svg" xmlns:xlink="http://www.w3.org/1999/xlink" x="0px" y="0px"
	 viewBox="0 0 128 128" style="enable-background:new 0 0 128 128;" xml:space="preserve">
<style type="text/css">
	.st0{fill:#004B55;}
	
		.st1{fill:none;stroke:#F1E297;stroke-width:4.252;stroke-linecap:round;stroke-miterlimit:10;stroke-dasharray:77.5044,15.5009,38.7522,77.5044,15.5009,38.7522;}
	
		.st2{fill:none;stroke:#F1E297;stroke-width:4.252;stroke-linecap:round;stroke-miterlimit:10;stroke-dasharray:36.0177,7.2035,18.0088,36.0177,7.2035,18.0088;}
	
		.st3{fill:none;stroke:#F1E297;stroke-width:4.252;stroke-linecap:round;stroke-miterlimit:10;stroke-dasharray:57.2589,11.4518,28.6295,57.2589,11.4518,28.6295;}
	.st4{fill:#F1E297;}
</style>
<g>
	<rect class="st0" width="128" height="128"/>
	<g>
		<defs>
			<circle id="SVGID_1_" cx="64" cy="64" r="53.483"/>
		</defs>
		<clipPath id="SVGID_2_">
			<use xlink:href="#SVGID_1_"  style="overflow:visible;"/>
		</clipPath>
		
			<use xlink:href="#SVGID_1_"  style="overflow:visible;fill:none;stroke:#F1E297;stroke-width:4.252;stroke-linecap:round;stroke-miterlimit:10;stroke-dasharray:56.6929,11.3386,28.3465;"/>
	</g>
	<g>
		<path class="st1" d="M58.274,105.55c-11.099-1.53-20.939-7.289-27.706-16.219c-6.767-8.929-9.651-19.959-8.122-31.057
			c1.529-11.098,7.29-20.937,16.219-27.703c8.93-6.766,19.961-9.65,31.06-8.121c11.099,1.53,20.939,7.289,27.706,16.219
			c6.767,8.929,9.652,19.959,8.122,31.057c-1.529,11.099-7.29,20.937-16.219,27.703C80.404,104.195,69.374,107.079,58.274,105.55z"
			/>
	</g>
	<g>
		<ellipse transform="matrix(0.3231 -0.9464 0.9464 0.3231 -17.2442 103.8921)" class="st2" cx="64" cy="64" rx="19.5" ry="19.5"/>
	</g>
	<g>
		<ellipse transform="matrix(0.1967 -0.9805 0.9805 0.1967 -11.339 114.16)" class="st3" cx="64" cy="64" rx="31" ry="31"/>
	</g>
	<circle class="st4" cx="105.5" cy="31.5" r="5.5"/>
	<circle class="st4" cx="43.5" cy="61.5" r="5.5"/>
	<circle class="st4" cx="28.5" cy="104.5" r="5.5"/>
	<circle class="st4" cx="11.5" cy="52.5" r="5.5"/>
	<circle class="st4" cx="91.5" cy="109.5" r="5.5"/>
</g>
</svg>
