<?xml version="1.0" encoding="utf-8"?>
<!-- Generator: Adobe Illustrator 24.2.0, SVG Export Plug-In . SVG Version: 6.00 Build 0)  -->
<svg version="1.1" id="Layer_1" xmlns="http://www.w3.org/2000/svg" xmlns:xlink="http://www.w3.org/1999/xlink" x="0px" y="0px"
	 viewBox="0 0 128 128" style="enable-background:new 0 0 128 128;" xml:space="preserve">
<style type="text/css">
	.st0{fill:#004B55;}
	
		.st1{fill:none;stroke:#F1E297;stroke-width:4.252;stroke-linecap:round;stroke-miterlimit:10;stroke-dasharray:77.5044,15.5009,38.7522,77.5044,15.5009,38.7522;}
	
		.st2{fill:none;stroke:#F1E297;stroke-width:4.252;stroke-linecap:round;stroke-miterlimit:10;stroke-dasharray:36.0177,7.2035,18.0088,36.0177,7.2035,18.0088;}
	
		.st3{fill:none;stroke:#F1E297;stroke-width:4.252;stroke-linecap:round;stroke-miterlimit:10;stroke-dasharray:57.2589,11.4518,28.6295,57.2589,11.4518,28.6295;}
	.st4{fill:#F1E297;}
</style>
<g>
	<rect class="st0" width="128" height="128"/>
	<g>
		<defs>
			<circle id="SVGID_3_" cx="64" cy="64" r="53.483"/>
		</defs>
		<clipPath id="SVGID_2_">
			<use xlink:href="#SVGID_3_"  style="overflow:visible;"/>
		</clipPath>
		
			<use xlink:href="#SVGID_3_"  style="overflow:visible;fill:none;stroke:#F1E297;stroke-width:4.252;stroke-linecap:round;stroke-miterlimit:10;stroke-dasharray:56.6929,11.3386,28.3465;"/>
	</g>
	<g>
		<path class="st1" d="M26.186,82.146c-4.847-10.101-5.471-21.486-1.756-32.056c3.715-10.57,11.323-19.06,21.424-23.907
			c10.1-4.847,21.484-5.47,32.054-1.754c10.57,3.716,19.06,11.325,23.907,21.426c4.847,10.101,5.471,21.486,1.756,32.056
			c-3.715,10.57-11.323,19.061-21.424,23.907c-10.101,4.847-21.484,5.47-32.054,1.754C39.524,99.856,31.033,92.247,26.186,82.146z"
			/>
	</g>
	<g>
		<ellipse transform="matrix(0.3231 -0.9464 0.9464 0.3231 -17.2442 103.8921)" class="st2" cx="64" cy="64" rx="19.5" ry="19.5"/>
	</g>
	<g>
		<ellipse transform="matrix(0.9652 -0.2614 0.2614 0.9652 -14.5067 18.9589)" class="st3" cx="64" cy="64" rx="31" ry="31"/>
	</g>
</g>
</svg>
