<?xml version="1.0" encoding="utf-8"?>
<!-- Generator: Adobe Illustrator 24.2.0, SVG Export Plug-In . SVG Version: 6.00 Build 0)  -->
<svg version="1.1" id="Layer_1" xmlns="http://www.w3.org/2000/svg" xmlns:xlink="http://www.w3.org/1999/xlink" x="0px" y="0px"
	 viewBox="0 0 128 128" style="enable-background:new 0 0 128 128;" xml:space="preserve">
<style type="text/css">
	.st0{fill:#004B55;}
	
		.st1{fill:none;stroke:#F1E297;stroke-width:4.252;stroke-linecap:round;stroke-miterlimit:10;stroke-dasharray:63.6241,12.7248,31.812,63.6241,12.7248,31.812;}
	
		.st2{fill:none;stroke:#F1E297;stroke-width:4.252;stroke-linecap:round;stroke-miterlimit:10;stroke-dasharray:33.7666,6.7533,16.8833,33.7666,6.7533,16.8833;}
	.st3{fill:#F1E297;}
	
		.st4{fill:none;stroke:#F1E297;stroke-width:4.252;stroke-linecap:round;stroke-miterlimit:10;stroke-dasharray:77.5044,15.5009,38.7522,77.5044,15.5009,38.7522;}
	
		.st5{fill:none;stroke:#F1E297;stroke-width:4.252;stroke-linecap:round;stroke-miterlimit:10;stroke-dasharray:36.0177,7.2035,18.0088,36.0177,7.2035,18.0088;}
	
		.st6{fill:none;stroke:#F1E297;stroke-width:4.252;stroke-linecap:round;stroke-miterlimit:10;stroke-dasharray:57.2589,11.4518,28.6295,57.2589,11.4518,28.6295;}
</style>
<circle class="st0" cx="64" cy="64" r="64"/>
<g>
	<g>
		<defs>
			<circle id="SVGID_1_" cx="64" cy="64" r="50.14"/>
		</defs>
		<clipPath id="SVGID_2_">
			<use xlink:href="#SVGID_1_"  style="overflow:visible;"/>
		</clipPath>
		
			<use xlink:href="#SVGID_1_"  style="overflow:visible;fill:none;stroke:#F1E297;stroke-width:4.252;stroke-linecap:round;stroke-miterlimit:10;stroke-dasharray:56.6929,11.3386,28.3465;"/>
	</g>
	<g>
		<path class="st1" d="M49.446,95.637c-8.355-3.846-14.712-10.715-17.901-19.342c-3.188-8.627-2.826-17.979,1.019-26.333
			c3.846-8.354,10.715-14.711,19.342-17.898c8.627-3.188,17.98-2.825,26.335,1.021C86.596,36.93,92.953,43.8,96.142,52.426
			c3.188,8.627,2.827,17.979-1.019,26.333c-3.846,8.354-10.715,14.711-19.342,17.898C67.154,99.845,57.801,99.483,49.446,95.637z"/>
	</g>
	<g>
		
			<ellipse transform="matrix(0.8522 -0.5233 0.5233 0.8522 -24.0279 42.9503)" class="st2" cx="64" cy="64" rx="18.281" ry="18.281"/>
	</g>
	<circle class="st3" cx="102.906" cy="33.531" r="5.156"/>
	<circle class="st3" cx="44.781" cy="61.656" r="5.156"/>
	<circle class="st3" cx="30.719" cy="101.969" r="5.156"/>
	<circle class="st3" cx="14.781" cy="53.219" r="5.156"/>
	<circle class="st3" cx="83.781" cy="109.656" r="5.156"/>
</g>
</svg>
