<?xml version="1.0" encoding="utf-8"?>
<!-- Generator: Adobe Illustrator 24.2.0, SVG Export Plug-In . SVG Version: 6.00 Build 0)  -->
<svg version="1.1" id="Layer_1" xmlns="http://www.w3.org/2000/svg" xmlns:xlink="http://www.w3.org/1999/xlink" x="0px" y="0px"
	 viewBox="0 0 310 310" style="enable-background:new 0 0 310 310;" xml:space="preserve">
<style type="text/css">
	.st0{fill:#004B55;}
	.st1{fill:#F1E297;stroke:#F1E297;stroke-width:3;stroke-miterlimit:10;}
	.st2{fill:#F1E297;}
</style>
<rect x="0.283" y="0.283" class="st0" width="310" height="310"/>
<g>
	<path class="st1" d="M53.716,78.476l157.61,129.887l-90.177-1.716h-1.399l-0.932,1.088l-64.947,67.278V78.476 M50.446,71.469
		v211.814l70.704-73.197l99.677,1.872L50.446,71.469L50.446,71.469z"/>
</g>
<g>
	<g>
		<path class="st2" d="M190.133,107.244c-2.649,0-4.831-0.777-6.385-2.338c-1.561-1.554-2.493-3.581-2.493-5.919V82.48
			c0-2.493,0.777-4.513,2.338-6.23c1.561-1.561,3.581-2.493,5.919-2.493h22.892c3.581,0,6.696-0.622,9.034-1.716
			c2.493-1.088,4.203-2.804,5.453-4.987c1.243-2.183,1.872-4.831,1.872-7.946c0-2.96-0.777-5.453-2.182-7.473
			c-1.399-2.027-3.426-3.581-5.919-4.669c-2.493-1.088-5.608-1.554-9.034-1.554c-3.581,0-6.541,0.622-8.878,1.872
			c-2.338,1.243-4.203,2.804-5.453,4.987c-1.243,2.183-2.338,4.669-3.115,7.784c-0.466,1.243-1.088,2.338-1.716,3.115
			c-0.622,0.777-1.554,1.554-2.804,2.027c-1.243,0.622-2.804,0.777-4.669,0.777c-2.493,0-4.514-0.777-6.074-2.183
			c-1.561-1.399-2.493-3.426-2.493-6.074c0-6.074,1.561-11.372,4.514-15.73c2.96-4.358,7.318-7.784,12.771-10.122
			c5.453-2.338,11.838-3.581,19-3.581c7.318,0,13.547,1.243,18.689,3.736c5.297,2.493,9.189,6.23,11.993,10.899
			s4.203,10.277,4.203,16.818c0,6.074-1.399,11.372-4.047,15.885c-2.649,4.513-6.851,8.102-12.46,10.588
			c-5.608,2.493-12.771,3.736-21.494,3.736h-12.771l1.872-5.764v14.487c0,2.493-0.777,4.358-2.493,5.919
			C194.491,106.149,192.781,107.244,190.133,107.244z M190.288,135.744c-3.426,0-6.074-0.932-8.102-2.96
			c-2.027-1.872-2.96-4.513-2.96-7.628c0-3.115,0.932-5.764,2.96-7.628c2.027-1.872,4.669-2.804,8.102-2.804
			c3.27,0,5.919,0.932,7.946,2.804c2.027,1.872,2.96,4.513,2.96,7.628c0,3.115-0.932,5.764-2.96,7.628
			C196.207,134.812,193.558,135.744,190.288,135.744z"/>
	</g>
</g>
</svg>
