<svg xmlns="http://www.w3.org/2000/svg" viewBox="0 0 121.98 122.54">
  <g id="Layer_2" data-name="Layer 2">
    <g id="Layer_1-2" data-name="Layer 1">
      <g>
        <g>
          <path d="M12.8,60.87a.21.21,0,0,0,.07-.15l.36-4.09a4.89,4.89,0,0,0-.29-2.27,3.5,3.5,0,0,0-1.33-1.6A4.84,4.84,0,0,0,9.33,52L5,51.66A4.88,4.88,0,0,0,2.61,52,3.43,3.43,0,0,0,1,53.32a4.83,4.83,0,0,0-.68,2.19L0,59.6a.24.24,0,0,0,.05.16.17.17,0,0,0,.13.07l12.47,1.08A.19.19,0,0,0,12.8,60.87ZM1.38,53.55a3.06,3.06,0,0,1,1.43-1.18A4.54,4.54,0,0,1,5,52.1l4.34.38a4.51,4.51,0,0,1,2.07.63,3,3,0,0,1,1.19,1.42,4.26,4.26,0,0,1,.27,2.06l-.33,3.87L.43,59.41l.33-3.86A4.45,4.45,0,0,1,1.38,53.55Z" style="fill: #231f20"/>
          <path d="M1.87,46.64l.17,0a.23.23,0,0,0,.18,0,.25.25,0,0,0,.11-.35s-.06,0-.09-.08L3.45,42.5l11.39,3.68-1.21,3.74s-.09,0-.12,0a.33.33,0,0,0-.12.16.25.25,0,0,0,0,.19.23.23,0,0,0,.14.13l.17.05a.19.19,0,0,0,.18,0,.22.22,0,0,0,.13-.15l2.72-8.42a.28.28,0,0,0-.15-.32l-.18,0a.19.19,0,0,0-.18,0,.23.23,0,0,0-.12.15.27.27,0,0,0,0,.2s.05.05.09.08L15,45.69,3.61,42l1.21-3.74a.25.25,0,0,0,.12,0,.28.28,0,0,0,.12-.16.21.21,0,0,0,0-.19.21.21,0,0,0-.14-.12l-.16-.06a.25.25,0,0,0-.19,0,.23.23,0,0,0-.12.15L1.72,46.32a.25.25,0,0,0,0,.19A.22.22,0,0,0,1.87,46.64Z" style="fill: #231f20"/>
          <path d="M10.05,35.47l4,2.38a4.76,4.76,0,0,0,2.31.73,3.63,3.63,0,0,0,2-.59A5.17,5.17,0,0,0,20,36.24,5.23,5.23,0,0,0,20.79,34a3.56,3.56,0,0,0-.46-2.09,4.55,4.55,0,0,0-1.74-1.68l-2-1.18a.29.29,0,0,0-.22,0,.34.34,0,0,0-.18.14L13.67,33.4a.34.34,0,0,0,0,.22.3.3,0,0,0,.13.18.23.23,0,0,0,.21,0,.29.29,0,0,0,.17-.14l2.39-4,1.76,1a4.06,4.06,0,0,1,1.51,1.45A3,3,0,0,1,20.21,34a4.68,4.68,0,0,1-.68,2,4.63,4.63,0,0,1-1.42,1.54,3,3,0,0,1-1.77.49,4.16,4.16,0,0,1-2-.65l-4-2.38a4.16,4.16,0,0,1-1.52-1.44,2.91,2.91,0,0,1-.42-1.78,4.63,4.63,0,0,1,.68-2,4.53,4.53,0,0,1,1.41-1.52,3,3,0,0,1,1.76-.46,4.1,4.1,0,0,1,2,.65.25.25,0,0,0,.2,0,.32.32,0,0,0,.18-.15.35.35,0,0,0,.05-.23.27.27,0,0,0-.13-.17,4.63,4.63,0,0,0-2.28-.72,3.56,3.56,0,0,0-2,.55,5.08,5.08,0,0,0-1.6,1.73,5.21,5.21,0,0,0-.77,2.25,3.56,3.56,0,0,0,.46,2.09A4.55,4.55,0,0,0,10.05,35.47Z" style="fill: #231f20"/>
          <path d="M14.47,22.51a.25.25,0,0,0,.22.08.34.34,0,0,0,.23-.1.36.36,0,0,0,.09-.24.29.29,0,0,0-.09-.21l-.16-.15,2.57-2.7,8.46,8.06-2.56,2.69-.17-.16a.33.33,0,0,0-.22-.08.33.33,0,0,0-.22.11.37.37,0,0,0-.1.23.29.29,0,0,0,.09.22l.4.38a.29.29,0,0,0,.22.08.36.36,0,0,0,.23-.11l6-6.35a.32.32,0,0,0,.1-.23.24.24,0,0,0-.09-.22l-.4-.38a.29.29,0,0,0-.22-.08.39.39,0,0,0-.22.11.32.32,0,0,0-.1.23.26.26,0,0,0,.09.21l.17.16-2.56,2.7-8.47-8L20.35,16l.16.15a.25.25,0,0,0,.22.08.32.32,0,0,0,.23-.1.36.36,0,0,0,.09-.24.31.31,0,0,0-.09-.22l-.38-.36a.3.3,0,0,0-.22-.08.36.36,0,0,0-.23.11l-6,6.35a.37.37,0,0,0-.1.23.27.27,0,0,0,.1.22Z" style="fill: #231f20"/>
          <path d="M24.49,13.86a.28.28,0,0,0,.22.14.38.38,0,0,0,.43-.29.31.31,0,0,0-.05-.26l-.58-.87,3.24-2.16,6.47,9.72-.12.08a.38.38,0,0,0-.17.23.42.42,0,0,0,.06.27.3.3,0,0,0,.22.14.36.36,0,0,0,.28-.06l.87-.58a.36.36,0,0,0,.16-.23.3.3,0,0,0,0-.26.37.37,0,0,0-.22-.15.36.36,0,0,0-.28.06l-.13.08L28.38,10l3.24-2.16.59.88a.37.37,0,0,0,.65-.15.3.3,0,0,0,0-.25L32,7.13A.27.27,0,0,0,31.81,7a.36.36,0,0,0-.26.07l-7.73,5.14a.36.36,0,0,0-.16.22.31.31,0,0,0,0,.26Z" style="fill: #231f20"/>
          <path d="M39.77,16.94a.35.35,0,0,0,.21.23.5.5,0,0,0,.32,0l.57-.22a.38.38,0,0,0,.22-.19.32.32,0,0,0,0-.3.36.36,0,0,0-.2-.22.39.39,0,0,0-.3,0l-.11,0-.66-4.6,5.82-2.2,2.54,3.88-.11,0a.38.38,0,0,0-.22.21.36.36,0,0,0,0,.29.38.38,0,0,0,.21.22.37.37,0,0,0,.29,0l.58-.22a.46.46,0,0,0,.25-.2.37.37,0,0,0,0-.31,1.74,1.74,0,0,0-.15-.25L42.26,2.84A.7.7,0,0,0,42,2.63a.29.29,0,0,0-.26,0L38.19,4a.32.32,0,0,0-.2.17.43.43,0,0,0,0,.3l1.75,12.21A.84.84,0,0,0,39.77,16.94Zm5.47-8.1-5.53,2.09-.93-6.35,2.94-1.11Z" style="fill: #231f20"/>
          <path d="M58.29,5.12A.5.5,0,0,0,58,5a.47.47,0,0,0-.31.16.35.35,0,0,0-.09.31l.81,5.9-6.07.84L50.74,1l.94-.13A.49.49,0,0,0,52,.68a.4.4,0,0,0,.08-.32A.38.38,0,0,0,51.9.08.41.41,0,0,0,51.57,0L49.74.26a.45.45,0,0,0-.3.16.38.38,0,0,0-.08.32.37.37,0,0,0,.17.28.44.44,0,0,0,.3.07l1.56,11.28-1.63.22a.55.55,0,0,0-.31.16.45.45,0,0,0-.09.32.43.43,0,0,0,.17.28.5.5,0,0,0,.34.08l9.07-1.25a.45.45,0,0,0,.3-.17.38.38,0,0,0,.09-.31l-.87-6.32A.4.4,0,0,0,58.29,5.12Z" style="fill: #231f20"/>
          <path d="M74.37,13.47a5.27,5.27,0,0,0,2,1.11,5.21,5.21,0,0,0,2.23.23A3.39,3.39,0,0,0,80.39,14h0l-.39,1.21a.52.52,0,0,0,0,.25.48.48,0,0,0,.12.22.57.57,0,0,0,.23.15.55.55,0,0,0,.5-.1.6.6,0,0,0,.14-.21l1.73-5.41a4.19,4.19,0,0,0,.12-2.31A3.72,3.72,0,0,0,81.78,6,5.47,5.47,0,0,0,79.7,4.82a5.93,5.93,0,0,0-2.34-.29,4.09,4.09,0,0,0-1.89.64,3.17,3.17,0,0,0-1.15,1.39.46.46,0,0,0,0,.26.37.37,0,0,0,.1.24.39.39,0,0,0,.23.16.57.57,0,0,0,.34,0A.63.63,0,0,0,75.23,7a3,3,0,0,1,.57-.69,2.7,2.7,0,0,1,.9-.59,3.17,3.17,0,0,1,1.19-.18,5.41,5.41,0,0,1,1.49.27A4.34,4.34,0,0,1,81,6.7a2.88,2.88,0,0,1,.84,1.39,3,3,0,0,1,0,1.24l-8.12,0a.33.33,0,0,0-.25.09.51.51,0,0,0-.14.24,3.55,3.55,0,0,0-.07,2.11A3.81,3.81,0,0,0,74.37,13.47Zm5.79-.21a3.09,3.09,0,0,1-1.57.64,4.57,4.57,0,0,1-1.91-.21,4.26,4.26,0,0,1-1.54-.86,2.75,2.75,0,0,1-.84-1.32,3,3,0,0,1,0-1.33l7.36.07-.49,1.54A3,3,0,0,1,80.16,13.26Z" style="fill: #231f20"/>
          <path d="M83.52,17.25l.64.38a.61.61,0,0,0,.43.08.5.5,0,0,0,.33-.24.52.52,0,0,0,.06-.42.57.57,0,0,0-.28-.34l-.15-.09,2.54-4.28a3.25,3.25,0,0,1,1.21-1.23,2.78,2.78,0,0,1,1.54-.35,4.14,4.14,0,0,1,3,1.75A2.54,2.54,0,0,1,93.21,14a3.51,3.51,0,0,1-.53,1.65l-2.54,4.28L90,19.85a.59.59,0,0,0-.44-.08.51.51,0,0,0-.33.25.48.48,0,0,0-.06.4.56.56,0,0,0,.29.34l.64.38a.58.58,0,0,0,.43.09.5.5,0,0,0,.33-.24l2.81-4.75A4.62,4.62,0,0,0,94.38,14a3.5,3.5,0,0,0-.53-2,4.84,4.84,0,0,0-1.68-1.58,4.51,4.51,0,0,0-1.94-.65,3.29,3.29,0,0,0-1.82.37l0,0,.58-1a.56.56,0,0,0,0-.54.58.58,0,0,0-.21-.2.56.56,0,0,0-.27-.08.42.42,0,0,0-.27.06.48.48,0,0,0-.21.19l-4.71,8a.51.51,0,0,0,0,.4A.61.61,0,0,0,83.52,17.25Z" style="fill: #231f20"/>
          <path d="M93.9,23.59a4.71,4.71,0,0,0,1.3,2,4.46,4.46,0,0,0,1.71,1.05,3.22,3.22,0,0,0,1.82,0l0,0-.74.78a.51.51,0,0,0-.14.26.57.57,0,0,0,0,.29.6.6,0,0,0,.16.26.72.72,0,0,0,.27.15.76.76,0,0,0,.3,0,.56.56,0,0,0,.25-.16L107.7,19a.55.55,0,0,0,.16-.42.61.61,0,0,0-.21-.42.57.57,0,0,0-.43-.18.55.55,0,0,0-.41.18l-2.32,2.45s0,0,0-.06a.52.52,0,0,0-.18-.4l-2.06-1.95a5.11,5.11,0,0,0-2.08-1.25A3.78,3.78,0,0,0,98,17a4.85,4.85,0,0,0-2.06,1.35l-.89.94a4.58,4.58,0,0,0-1.21,2.12A3.82,3.82,0,0,0,93.9,23.59ZM95,21.66a3.39,3.39,0,0,1,.91-1.57l.89-.94a3.59,3.59,0,0,1,1.52-1,2.75,2.75,0,0,1,1.63,0,3.83,3.83,0,0,1,1.55.93l2,1.93a.53.53,0,0,0,.39.16l0,0-3.43,3.62a3.19,3.19,0,0,1-1.44.93,2.73,2.73,0,0,1-1.55,0,3.67,3.67,0,0,1-1.46-.88,3.94,3.94,0,0,1-1-1.5A2.67,2.67,0,0,1,95,21.66Z" style="fill: #231f20"/>
          <path d="M106.89,41.08a5.24,5.24,0,0,0,.36,2.24,4.84,4.84,0,0,0,1.15,1.79A3.18,3.18,0,0,0,110,46l0,0-.93.35a.65.65,0,0,0-.28.2.59.59,0,0,0-.13.3.73.73,0,0,0,.05.35.81.81,0,0,0,.19.29.69.69,0,0,0,.3.14.81.81,0,0,0,.34,0l5.18-2a4.16,4.16,0,0,0,1.9-1.36,3.91,3.91,0,0,0,.78-2.06,5.34,5.34,0,0,0-.39-2.43,5.92,5.92,0,0,0-1.26-2.05,4.2,4.2,0,0,0-1.75-1.1,3,3,0,0,0-1.86,0,.52.52,0,0,0-.29.18.54.54,0,0,0-.15.3.64.64,0,0,0,0,.36.65.65,0,0,0,.24.32.66.66,0,0,0,.4.09,3.49,3.49,0,0,1,.86,0A2.68,2.68,0,0,1,115.12,39a4.93,4.93,0,0,1,.69,1.28,4.22,4.22,0,0,1,.3,1.73,2.64,2.64,0,0,1-.52,1.42,2.52,2.52,0,0,1-.76.64l-5-6.13a.52.52,0,0,0-.27-.15.78.78,0,0,0-.35.06,3.52,3.52,0,0,0-1.65,1.24A3.84,3.84,0,0,0,106.89,41.08Zm1.7-1.09a2.78,2.78,0,0,1,.83-.76l4.31,5.38-1.34.51a2.69,2.69,0,0,1-1.62.14,2.87,2.87,0,0,1-1.38-.78,4.21,4.21,0,0,1-1-1.54,4,4,0,0,1-.29-1.58A2.52,2.52,0,0,1,108.59,40Z" style="fill: #231f20"/>
          <path d="M115.89,49a.82.82,0,0,0-.47.21,1,1,0,0,0-.23.58l-1.11,7a2.92,2.92,0,0,1-.85-.17,2.59,2.59,0,0,1-1.21-.92,3.51,3.51,0,0,1-.58-1.55,3.9,3.9,0,0,1,0-1.33,2.61,2.61,0,0,1,.4-1,3.26,3.26,0,0,1,.7-.74,3.64,3.64,0,0,1,.35-.24l.37-.22a.71.71,0,0,0,.22-.24.61.61,0,0,0,0-.34.55.55,0,0,0-.14-.33.54.54,0,0,0-.27-.2.7.7,0,0,0-.35,0,2.71,2.71,0,0,0-1.5.8,4,4,0,0,0-1,1.72,5.55,5.55,0,0,0-.15,2.32,5.3,5.3,0,0,0,.78,2.13,3.83,3.83,0,0,0,1.58,1.41,3.76,3.76,0,0,0,2.21.31.78.78,0,0,0,.45-.2.87.87,0,0,0,.23-.53l1.11-7.1a3.05,3.05,0,0,1,.87.17,2.56,2.56,0,0,1,1.2.92,3.49,3.49,0,0,1,.59,1.56,3.86,3.86,0,0,1,0,1.37,2.68,2.68,0,0,1-.43,1,3.5,3.5,0,0,1-.74.75,3.34,3.34,0,0,1-.65.4.57.57,0,0,0-.21.23.53.53,0,0,0,0,.34.79.79,0,0,0,.14.34.6.6,0,0,0,.27.2.72.72,0,0,0,.36,0,2.69,2.69,0,0,0,1.5-.79,4,4,0,0,0,1-1.73,5.36,5.36,0,0,0,.14-2.31,5.27,5.27,0,0,0-.76-2.14A3.74,3.74,0,0,0,115.89,49Z" style="fill: #231f20"/>
          <path d="M121.91,75.63a.69.69,0,0,0-.44-.37l-11-3.49a.66.66,0,0,0-.57,0,.78.78,0,0,0-.38.48l-.4,1.26a.88.88,0,0,0,0,.62.76.76,0,0,0,1,.32.81.81,0,0,0,.38-.49l.15-.48,9.54,3-1.15,3.61A3.1,3.1,0,0,1,118,81.93a2.42,2.42,0,0,1-3.24-1,3.09,3.09,0,0,1,.07-2.09l.89-2.82a.82.82,0,0,0,0-.62.7.7,0,0,0-.45-.37.69.69,0,0,0-.58,0,.79.79,0,0,0-.37.49l-1,3a4.88,4.88,0,0,0-.25,2.24,3.09,3.09,0,0,0,.8,1.71,4.29,4.29,0,0,0,1.82,1.08,4.14,4.14,0,0,0,2.09.16,3,3,0,0,0,1.63-.94,5,5,0,0,0,1.08-2l1.47-4.63A.76.76,0,0,0,121.91,75.63Z" style="fill: #231f20"/>
          <path d="M116.88,88.15l-6.82-4a4.48,4.48,0,0,0-2.43-.7,4.11,4.11,0,0,0-2.16.68,5.25,5.25,0,0,0-1.6,1.71,5.37,5.37,0,0,0-.72,2.22,4,4,0,0,0,.46,2.22,4.49,4.49,0,0,0,1.78,1.79l6.82,4a.72.72,0,0,0,.6.09.87.87,0,0,0,.51-.42l.61-1a.86.86,0,0,0,.12-.65.69.69,0,0,0-.36-.48.72.72,0,0,0-.6-.09.87.87,0,0,0-.51.42l-.19.31-6.14-3.62a2.91,2.91,0,0,1-1.13-1.13,2.42,2.42,0,0,1-.29-1.39,3.48,3.48,0,0,1,1.48-2.51,2.47,2.47,0,0,1,1.35-.42,2.89,2.89,0,0,1,1.54.45l6.14,3.62-.18.32a.84.84,0,0,0-.12.64.75.75,0,0,0,.37.49.75.75,0,0,0,.6.08.88.88,0,0,0,.5-.42l.62-1a.84.84,0,0,0,.12-.64A.75.75,0,0,0,116.88,88.15Z" style="fill: #231f20"/>
          <path d="M105.87,96.25a.79.79,0,0,0-.59-.23.9.9,0,0,0-.28.08.79.79,0,0,0,0-.3.77.77,0,0,0-.27-.58l-3.57-3.37a.77.77,0,0,0-.59-.23.87.87,0,0,0-.6.3l-3.17,3.36a5.76,5.76,0,0,0-1.27,2,3.14,3.14,0,0,0-.1,1.91,3.62,3.62,0,0,0,1.07,1.71,3.24,3.24,0,0,0,1.66.87,2.58,2.58,0,0,0,1.71-.3l.08.08a2.45,2.45,0,0,0,0,1.54,3.37,3.37,0,0,0,1,1.52,3.81,3.81,0,0,0,1.73,1,3,3,0,0,0,1.82-.17,5.25,5.25,0,0,0,1.8-1.32l3.11-3.28a.92.92,0,0,0,.26-.62.76.76,0,0,0-.26-.57Zm-.55,6.5a3.08,3.08,0,0,1-1.67,1,1.81,1.81,0,0,1-1.55-.58,2,2,0,0,1-.62-1,1.81,1.81,0,0,1,0-1.1,3.4,3.4,0,0,1,.75-1.14L104,98.15a.65.65,0,0,0,0-1,.67.67,0,0,0-.52-.22.75.75,0,0,0-.48.25l-1.85,2A3.88,3.88,0,0,1,100,100a1.87,1.87,0,0,1-2.15-.38,1.84,1.84,0,0,1-.65-1.56,3.27,3.27,0,0,1,1-1.8l2.42-2.57,3,2.82a.8.8,0,0,0,.6.23,1,1,0,0,0,.29-.08.72.72,0,0,0-.06.29.8.8,0,0,0,.26.59l3,2.78Z" style="fill: #231f20"/>
          <path d="M99.54,108.65a.85.85,0,0,0-.64.16l-.24.16-5.41-8,.93-.63a.89.89,0,0,0,.4-.55.79.79,0,0,0-.12-.63.82.82,0,0,0-.54-.36.92.92,0,0,0-.66.17l-7.19,4.83a.89.89,0,0,0-.4.55.8.8,0,0,0,.13.63l3.88,5.76a.72.72,0,0,0,.53.35.87.87,0,0,0,.66-.17.91.91,0,0,0,.41-.55.76.76,0,0,0-.13-.63l-3.41-5.07,4-2.71,5.4,8-2.44,1.64a.87.87,0,0,0-.4.55.85.85,0,0,0,.67,1,.87.87,0,0,0,.66-.16l4.16-2.8a.87.87,0,0,0,.39-.54.79.79,0,0,0-.13-.64A.78.78,0,0,0,99.54,108.65Z" style="fill: #231f20"/>
          <path d="M87.4,113.83a.74.74,0,0,0-.41-.44,1,1,0,0,0-1.15.45.7.7,0,0,0,0,.6l.68,1.77-2.16.83-3.5-9.11L83,107.1l.68,1.78a.79.79,0,0,0,.42.44.87.87,0,0,0,.67,0,.84.84,0,0,0,.49-.43.8.8,0,0,0,0-.61l-1-2.53a.74.74,0,0,0-.41-.45.82.82,0,0,0-.65,0l-7.65,2.94a.82.82,0,0,0-.5.42.78.78,0,0,0,0,.62l1,2.53a.79.79,0,0,0,.41.45.86.86,0,0,0,.65,0,.85.85,0,0,0,.5-.44.72.72,0,0,0,0-.61L77,109.42l2.16-.83,3.5,9.12-2.17.83-.68-1.78a.7.7,0,0,0-.41-.43.84.84,0,0,0-.66,0,.82.82,0,0,0-.5.42.74.74,0,0,0,0,.6l1,2.5a.76.76,0,0,0,.41.45.85.85,0,0,0,.66,0l7.65-2.93a.85.85,0,0,0,.49-.43.74.74,0,0,0,0-.6Z" style="fill: #231f20"/>
          <path d="M74.15,113.14a4.43,4.43,0,0,0-1-2.35,4.2,4.2,0,0,0-1.94-1.27,5.83,5.83,0,0,0-4.71.66A4.17,4.17,0,0,0,65,111.92a4.54,4.54,0,0,0-.3,2.53l.09.57a.74.74,0,0,0,.35.55,1,1,0,0,0,.71.12.89.89,0,0,0,.47-.18.78.78,0,0,0,.3-.33.7.7,0,0,0,.07-.43l-.09-.57a2.53,2.53,0,0,1,.18-1.47,2.37,2.37,0,0,1,.9-1,3.75,3.75,0,0,1,2.86-.41,2.34,2.34,0,0,1,1.14.73,2.67,2.67,0,0,1,.58,1.39l.6,4.22a2.68,2.68,0,0,1-.17,1.49,2.35,2.35,0,0,1-.89,1,3.63,3.63,0,0,1-1.41.49,3.72,3.72,0,0,1-1.46-.08,2.37,2.37,0,0,1-1.14-.72,2.53,2.53,0,0,1-.58-1.36l-.08-.58a.71.71,0,0,0-.18-.38.88.88,0,0,0-.38-.24,1,1,0,0,0-.5,0,1,1,0,0,0-.65.31.72.72,0,0,0-.19.61l.08.57a4.39,4.39,0,0,0,1,2.33,4.26,4.26,0,0,0,1.94,1.26,5.6,5.6,0,0,0,2.42.17,5.54,5.54,0,0,0,2.29-.84,4.14,4.14,0,0,0,1.51-1.75,4.48,4.48,0,0,0,.29-2.53Z" style="fill: #231f20"/>
          <path d="M49.38,108.82a5.76,5.76,0,0,0-2.18-1.23,5.61,5.61,0,0,0-2.48-.24,4.2,4.2,0,0,0-2.13.94,4.43,4.43,0,0,0-1.34,2.12l-.24.75a1,1,0,0,0,0,.54,1,1,0,0,0,.33.48l5.9,4.51,0,.07a2.55,2.55,0,0,1-.76,1.21,2.14,2.14,0,0,1-1.18.51,3.62,3.62,0,0,1-1.43-.16,3.47,3.47,0,0,1-1.23-.68,2.27,2.27,0,0,1-.67-1.1,3.2,3.2,0,0,1,0-1.51V115s0,0,0-.07a1.13,1.13,0,0,0-.21-.57,1.06,1.06,0,0,0-.53-.35,1,1,0,0,0-.78,0,.86.86,0,0,0-.47.55,4.45,4.45,0,0,0-.12,2.49,4.09,4.09,0,0,0,1.21,2,6,6,0,0,0,4.67,1.48,4.13,4.13,0,0,0,2.12-.94,4.43,4.43,0,0,0,1.34-2.12l.24-.74a.94.94,0,0,0,0-.55.89.89,0,0,0-.34-.47l-5.89-4.52,0-.07a2.55,2.55,0,0,1,.76-1.21,2.17,2.17,0,0,1,1.19-.51,3.57,3.57,0,0,1,1.42.16,3.19,3.19,0,0,1,1.23.69,2.21,2.21,0,0,1,.68,1.1,3.32,3.32,0,0,1,0,1.51s0,0,0,0v0a.89.89,0,0,0,.18.6,1.19,1.19,0,0,0,1.33.35.84.84,0,0,0,.47-.55,4.36,4.36,0,0,0,.11-2.49A4.11,4.11,0,0,0,49.38,108.82Z" style="fill: #231f20"/>
          <path d="M40.88,105.77a1.06,1.06,0,0,0-.53-.64l-1.61-.95a1.12,1.12,0,0,0-.82-.15,1,1,0,0,0-.73,1.24,1.14,1.14,0,0,0,.54.64l.67.4L33.86,114,31,112.34a3,3,0,0,1-1.33-1.3,1.88,1.88,0,0,1,1.4-2.37,2.93,2.93,0,0,1,1.78.52l1.59.94a1.15,1.15,0,0,0,.83.15A1,1,0,0,0,36,109a1.05,1.05,0,0,0-.54-.64l-1.92-1.14a5.39,5.39,0,0,0-2.2-.77,3.08,3.08,0,0,0-1.89.42,4.22,4.22,0,0,0-1.48,1.56,4.16,4.16,0,0,0-.63,2,3.09,3.09,0,0,0,.57,1.83,5.21,5.21,0,0,0,1.74,1.54l4.16,2.44a1.08,1.08,0,0,0,.82.16,1,1,0,0,0,.61-.47l5.56-9.46A.92.92,0,0,0,40.88,105.77Z" style="fill: #231f20"/>
          <path d="M31.65,101.17a.93.93,0,0,0,.28-.77,1.22,1.22,0,0,0-.42-.77L30,98.22a1,1,0,0,0-.7-.29,1,1,0,0,0-.72.35,1,1,0,0,0-.3.73,1,1,0,0,0,.33.69l.6.56-2.09,1.48L23.5,98.32l1.34-2.17.59.56a1,1,0,0,0,1.43-.06,1,1,0,0,0,.31-.73,1,1,0,0,0-.34-.69l-1.5-1.41a1.29,1.29,0,0,0-.8-.37,1,1,0,0,0-.75.33,2.94,2.94,0,0,0-.26.37l-5.65,9.3a1.17,1.17,0,0,0-.19.67.89.89,0,0,0,.3.58l3.14,3a.86.86,0,0,0,.6.26,1.14,1.14,0,0,0,.65-.23l8.94-6.23A2.4,2.4,0,0,0,31.65,101.17Zm-9.83,4.32-1.74-1.63,2.4-3.9,3.08,2.89Z" style="fill: #231f20"/>
          <path d="M22.07,93a4.21,4.21,0,0,0,.28-2.35,5.65,5.65,0,0,0-.93-2.3,5.9,5.9,0,0,0-1.75-1.7,4.2,4.2,0,0,0-4.72.18l-.48.32a.91.91,0,0,0-.41.68,1.41,1.41,0,0,0,.26.89,1.53,1.53,0,0,0,.45.43,1.12,1.12,0,0,0,.53.15,1,1,0,0,0,.51-.16l.47-.33a2.19,2.19,0,0,1,1.2-.39,2.11,2.11,0,0,1,1.11.35A3.39,3.39,0,0,1,20,90.82,2,2,0,0,1,19.88,92,2.13,2.13,0,0,1,19,93l-3.42,2.31a2.16,2.16,0,0,1-1.22.42,1.94,1.94,0,0,1-1.11-.34,3.25,3.25,0,0,1-.9-.91,3.2,3.2,0,0,1-.5-1.16A2.08,2.08,0,0,1,12,92.12a2,2,0,0,1,.82-1l.46-.32a.83.83,0,0,0,.33-.41,1,1,0,0,0,.06-.54,1.36,1.36,0,0,0-.23-.58,1.3,1.3,0,0,0-.72-.57.9.9,0,0,0-.78.12l-.45.3a4.4,4.4,0,0,0-1.67,2,4.31,4.31,0,0,0-.27,2.35,5.88,5.88,0,0,0,2.69,4,4.17,4.17,0,0,0,2.28.62A4.49,4.49,0,0,0,17,97.25l3.42-2.31A4.38,4.38,0,0,0,22.07,93Z" style="fill: #231f20"/>
          <path d="M7.75,86.32l7.78-3,.26.69a1.22,1.22,0,0,0,.62.71,1,1,0,0,0,.88,0,1.08,1.08,0,0,0,.66-.61,1.25,1.25,0,0,0,0-1l-3.07-7.93a1.06,1.06,0,0,0-.59-.65,1.11,1.11,0,0,0-.84,0L10,75.93a1.18,1.18,0,0,0-.63.57,1.1,1.1,0,0,0,0,.89,1.08,1.08,0,0,0,.59.66,1.14,1.14,0,0,0,.85,0l2.37-.92L14.63,81l-2.82,1.09L11,80a1.32,1.32,0,0,0-.63-.73,1.08,1.08,0,0,0-.88,0,1.11,1.11,0,0,0-.65.62,1.21,1.21,0,0,0,0,.95l.79,2.06L6.85,84,5.36,80.14l2.36-.91a1.12,1.12,0,0,0,.62-.57,1.08,1.08,0,0,0,0-.88,1.06,1.06,0,0,0-1.44-.67L3.43,78.45A1.14,1.14,0,0,0,2.8,79a1.12,1.12,0,0,0,0,.88l3.06,7.93a1.35,1.35,0,0,0,.62.72,1.12,1.12,0,0,0,.9,0A1.07,1.07,0,0,0,8,88a1.21,1.21,0,0,0,0-1Z" style="fill: #231f20"/>
        </g>
        <path d="M100.74,35.6a.52.52,0,0,1-.42-.22.5.5,0,0,1,.14-.69l12.32-8.25a.49.49,0,0,1,.69.13.5.5,0,0,1-.14.69L101,35.51A.46.46,0,0,1,100.74,35.6Z" style="fill: #231f20"/>
      </g>
    </g>
  </g>
</svg>
