<svg id="Layer_1" data-name="Layer 1" xmlns="http://www.w3.org/2000/svg" viewBox="0 0 620 620">
  <g>
    <path d="M275.31,464.93l.88,5.56a16.41,16.41,0,0,0,5.55,9.89l7.14,6.09a42.33,42.33,0,0,0,23.46,9.92l19.29,1.82a3.32,3.32,0,0,0,2.65-.95h0a1.91,1.91,0,0,0-.69-3.15l-17.48-7.67,17.07,2.9,8.38.64,13.9,5.57a2.59,2.59,0,0,0,3.26-1.24h0a2.56,2.56,0,0,0-.58-3.06l-12.07-10.93-13.53-2.58,9.44,1.35a15.4,15.4,0,0,1,7.32,3.14l8.32,6.57a3.65,3.65,0,0,0,1.55.7l2.76.5a2.94,2.94,0,0,0,3.46-2.89v-1l-16.1-10.95-13.53-6.44-24.47-4.9a5.55,5.55,0,0,1-2.34-1.07l-4.75-3.7-16.11-3.22Z" style="fill: #f1e297;stroke: #fff;stroke-miterlimit: 10;stroke-width: 0.9921259880065918px"/>
    <path d="M307.59,430.71l.7,4.42A13,13,0,0,0,312.7,443l5.67,4.84c5.25,4.48,17.93,6.41,24.8,7.06l18.68,5.79c.78.08,5.55-.51,6.11-1.07h0c.78-.78.08-3.7-1-4.08l-27-7.73,10.25,1.29,9,.64,9.66,4.51c.09-.73,4.43.76,4.91-.19h0a2,2,0,0,0-.46-2.43l-9.59-8.68-10.75-2,7.5,1.07a12.14,12.14,0,0,1,5.82,2.49l6.6,5.21a2.71,2.71,0,0,0,1.23.56l2.19.4a2.33,2.33,0,0,0,2.75-2.3v-.78l-12.79-8.7-10.74-5.12-19.43-3.88a4.51,4.51,0,0,1-1.86-.85l-3.78-2.94-12.78-2.56Z" style="fill: #f1e297;stroke: #fff;stroke-miterlimit: 10;stroke-width: 0.9921259880065918px"/>
    <path d="M221,199.34,234,347.18l-6.29,8.43a30.3,30.3,0,0,1-5.36,5.55l-53.76,43a30.58,30.58,0,0,0-5.18,5.3l-32.22,42.29a30.32,30.32,0,0,1-9.07,7.95l-17.51,10a30.31,30.31,0,0,1-22.4,3.09h0a30.3,30.3,0,0,1-21.74-20.86l-4.13-14a30.33,30.33,0,0,1,.83-19.55l11.29-29a30.42,30.42,0,0,1,4.58-7.95L220.65,200" style="fill: #f1e297"/>
    <path d="M140.9,343l-22.55-14.31a2.39,2.39,0,0,0-3.14.52L99,349.26a3.1,3.1,0,0,0,.65,4.49h0c12.41,9,23.74,12.65,32.61,24.89L148,400.33a40,40,0,0,1,4.71,8.54l1.16,2.92a4.1,4.1,0,0,0,7.07,1l2.72-3.57a27.37,27.37,0,0,1,4.69-4.81l5.09-4.07a4.1,4.1,0,0,0,1.13-5l-13-26.85a24.5,24.5,0,0,0-2.49-4.1l-11-14.71A27.2,27.2,0,0,0,140.9,343Z" style="fill: #fff;stroke: #f1e297;stroke-miterlimit: 10;stroke-width: 0.9921259880065918px"/>
    <path d="M57.44,417.79h0a32,32,0,0,0-.88,20.71l3.52,12a1.8,1.8,0,0,0,1.41,1.27l11.26,2a32.54,32.54,0,0,1,19.42,11.33l5.3,6.42a1.81,1.81,0,0,0,2,.55,30,30,0,0,0,5.18-2.34l8.63-4.93a1.8,1.8,0,0,0,.44-2.78c-6.18-6.77-16.08-17.72-23.31-25.72a63.2,63.2,0,0,0-21.52-15.52l-9-4A1.8,1.8,0,0,0,57.44,417.79Z" style="fill: #fff;stroke: #f1e297;stroke-miterlimit: 10;stroke-width: 0.9921259880065918px"/>
    <path d="M146.52,290.47,133.18,307a4.87,4.87,0,0,0,1.43,7.32L149,322.24a52.1,52.1,0,0,1,18,16.45h0A111.35,111.35,0,0,1,182.14,372l4.74,17.58,15.82-12.66L169.17,325a92.8,92.8,0,0,1-7.12-13.3l-8.8-20.31A4,4,0,0,0,146.52,290.47Z" style="fill: #fff;stroke: #f1e297;stroke-miterlimit: 10;stroke-width: 0.9921259880065918px"/>
    <path d="M168.44,263.34l-6.66,8.25a2.34,2.34,0,0,0-.15,2.77L196,327.75a80.88,80.88,0,0,1,7.48,14.76l8.75,22.84a2.37,2.37,0,0,0,3.69,1l3-2.43a2.35,2.35,0,0,0,.74-2.65l-22.94-63.21a62.74,62.74,0,0,0-11.64-19.79l-13-15A2.36,2.36,0,0,0,168.44,263.34Z" style="fill: #fff;stroke: #f1e297;stroke-miterlimit: 10;stroke-width: 0.9921259880065918px"/>
    <path d="M232.05,349.85l1.57-2.1a1.87,1.87,0,0,0,.36-1.27L221,199.86c0-.34-.13.61-.28.29l-.07-.15L183.6,244.57a2.88,2.88,0,0,0,.36,4l3.34,2.88a96.66,96.66,0,0,1,31.15,51.94l10.32,45.78A1.84,1.84,0,0,0,232.05,349.85Z" style="fill: #fff;stroke: #f1e297;stroke-miterlimit: 10;stroke-width: 0.9921259880065918px"/>
    <path d="M85,371.73a3,3,0,0,0-4.4.29l-7.56,9.36a30.42,30.42,0,0,0-4.58,7.95l-.73,1.89a3,3,0,0,0,1.28,3.68l19.88,11.59A41.1,41.1,0,0,1,96.29,412L116,430.47a60.1,60.1,0,0,1,12.63,16.93h0c1.87,1.6,3.13,1.68,5.2.68a1.48,1.48,0,0,0,.53-.43l6.55-8.6a3,3,0,0,0,.05-3.56l-20-28.15a63,63,0,0,0-8-9.15Z" style="fill: #fff;stroke: #f1e297;stroke-miterlimit: 10;stroke-width: 0.9921259880065918px"/>
    <path d="M187.23,263.11a19.47,19.47,0,0,1-6.9,4.93" style="fill: none;stroke: #fff;stroke-miterlimit: 10;stroke-width: 0.9921259880065918px"/>
    <path d="M193.17,269.07,189,272.88" style="fill: none;stroke: #fff;stroke-miterlimit: 10;stroke-width: 0.9921259880065918px"/>
    <path d="M168.42,296.09l-4.66,9.28" style="fill: none;stroke: #fff;stroke-miterlimit: 10;stroke-width: 0.9921259880065918px"/>
    <path d="M174.93,311.89A43.82,43.82,0,0,0,167,326.6" style="fill: none;stroke: #fff;stroke-miterlimit: 10;stroke-width: 0.9921259880065918px"/>
    <path d="M194.3,331.83a29.54,29.54,0,0,0-11.18,8.78" style="fill: none;stroke: #fff;stroke-miterlimit: 10;stroke-width: 0.9921259880065918px"/>
    <path d="M195,347.17a20.72,20.72,0,0,0-7.24,4.72" style="fill: none;stroke: #fff;stroke-miterlimit: 10;stroke-width: 0.9921259880065918px"/>
    <path d="M139.88,326.6a89.18,89.18,0,0,1-9.34,11.87" style="fill: none;stroke: #fff;stroke-miterlimit: 10;stroke-width: 0.9921259880065918px"/>
    <path d="M153.15,340.49l-3.3,2.67" style="fill: none;stroke: #fff;stroke-miterlimit: 10;stroke-width: 0.9921259880065918px"/>
    <path d="M167.78,350.45,154.48,357" style="fill: none;stroke: #fff;stroke-miterlimit: 10;stroke-width: 0.9921259880065918px"/>
    <path d="M169.86,365.9a29,29,0,0,0-8,5.2" style="fill: none;stroke: #fff;stroke-miterlimit: 10;stroke-width: 0.9921259880065918px"/>
    <path d="M107.61,369.89l-12,16.51" style="fill: none;stroke: #fff;stroke-miterlimit: 10;stroke-width: 0.9921259880065918px"/>
    <path d="M107.46,387.7a22.46,22.46,0,0,0-6,7.27" style="fill: none;stroke: #fff;stroke-miterlimit: 10;stroke-width: 0.9921259880065918px"/>
    <path d="M130,383.05,114,404.2" style="fill: none;stroke: #fff;stroke-miterlimit: 10;stroke-width: 0.9921259880065918px"/>
    <path d="M130.79,404.56a31.37,31.37,0,0,0-14.33,12.15" style="fill: none;stroke: #fff;stroke-miterlimit: 10;stroke-width: 0.9921259880065918px"/>
    <path d="M142,413.59a35.5,35.5,0,0,1-10,11.21" style="fill: none;stroke: #fff;stroke-miterlimit: 10;stroke-width: 0.9921259880065918px"/>
    <path d="M73.76,416.25l-1.56,5.91" style="fill: none;stroke: #fff;stroke-miterlimit: 10;stroke-width: 0.9921259880065918px"/>
    <path d="M91.55,420.21l-2.61,6" style="fill: none;stroke: #fff;stroke-miterlimit: 10;stroke-width: 0.9921259880065918px"/>
    <path d="M98.79,436.1l-1.32,2" style="fill: none;stroke: #fff;stroke-miterlimit: 10;stroke-width: 0.9921259880065918px"/>
    <path d="M128,442.09a20.79,20.79,0,0,1-8.64,5.94" style="fill: none;stroke: #fff;stroke-miterlimit: 10;stroke-width: 0.9921259880065918px"/>
    <path d="M80.9,455.35l-1.51,5.26" style="fill: none;stroke: #fff;stroke-miterlimit: 10;stroke-width: 0.9921259880065918px"/>
    <path d="M70.83,452.05l.77,8.62" style="fill: none;stroke: #fff;stroke-miterlimit: 10;stroke-width: 0.9921259880065918px"/>
    <path d="M87.53,461.94a11.55,11.55,0,0,0-5.29,3.38" style="fill: none;stroke: #fff;stroke-miterlimit: 10;stroke-width: 0.9921259880065918px"/>
    <path d="M378,455l1.86,43,2.58,19.33.64,4.51c2.13,1.59,4.51-4.43,4.51-7.09v-9.35a.17.17,0,0,1,.33,0l2.25,10.67,1.71,5.8a8.68,8.68,0,0,0,6.79,6.11h0a1.24,1.24,0,0,0,1.43-1.47l-2.2-10.44-1.75-13.39a.24.24,0,0,1,.46-.14l4.51,9,4.94,9.88a9.27,9.27,0,0,0,4.55,4.36l.07,0a1.57,1.57,0,0,0,2.2-1.68c-.37-2.2-.81-4.86-.81-4.86l-1-9.14a10.71,10.71,0,0,0-1.6-4.54l-2.7-4.23a.23.23,0,0,1,.31-.33l4.75,2.59c1,.53.65,2.33.89,3.41l1.94,6.44a26.36,26.36,0,0,0,1.59,3l2.53,3.16a1.22,1.22,0,0,0,2.17-.81L420.49,507a2.43,2.43,0,0,0-.33-1.12l-7.43-12.36s-4.5-15.46-4.5-16.75c0-.91-2-23.25-2-23.25" style="fill: #f1e297;stroke: #fff;stroke-miterlimit: 10;stroke-width: 0.9921259880065918px"/>
    <path d="M486.58,470.27l1.8,17.81a21.21,21.21,0,0,0,9.34,15.51l4,2.67a7.31,7.31,0,0,1,2,2l9.95,14.64a3.75,3.75,0,0,0,.44.53l6.18,6.18a2.2,2.2,0,0,0,3.67-2.13l-3.8-14.05a6,6,0,0,0-1.95-3l0,0-6.33-8.15a.22.22,0,0,1,.31-.3l6.18,5.15,0,.05a44.78,44.78,0,0,1,3.85,6.41l5.67,10.59a6.23,6.23,0,0,0,2.3,2.63l1.33.84a2.63,2.63,0,0,0,4-2.32l0-1a33.48,33.48,0,0,0-7.73-20.2l-1.88-2.25a5.29,5.29,0,0,0-1.08-1l-3.09-2.13a26.44,26.44,0,0,1-9.58-12l-4.76-11.88" style="fill: #f1e297;stroke: #fff;stroke-miterlimit: 10;stroke-width: 0.9921259880065918px"/>
    <path d="M550.23,289.47l-11.06,3a9.74,9.74,0,0,0-3.71,1.95l-10.59,9a9.69,9.69,0,0,1-7.58,2.2l-44.31-6a9.74,9.74,0,0,1-6.38-3.69l-18-23.4a9.7,9.7,0,0,0-9.07-3.69l-5.71.81a9.69,9.69,0,0,0-7.55,5.79l-3.56,8.31a9.63,9.63,0,0,0-.28,6.89l5.32,16a9.64,9.64,0,0,1,.43,4.13l-.63,5.74a9.75,9.75,0,0,1-2.19,5.14L406.51,344.2a9.71,9.71,0,0,0-2,8.56l9.52,38.1a9.71,9.71,0,0,0,5.93,6.7l23.32,9a9.72,9.72,0,0,1,4.74,3.91l7.7,12.32a9.71,9.71,0,0,0,7.26,4.51l15.29,1.53a9.71,9.71,0,0,0,6.92-2l17.67-13.75a10.5,10.5,0,0,1,1.62-1l11.42-5.71a9.67,9.67,0,0,1,4.35-1h9l-.52,43.57a17.83,17.83,0,0,1-5.81,13l-11,9.95a17.82,17.82,0,0,1-20.8,2.28,17.52,17.52,0,0,1-4.66-3.85,17.74,17.74,0,0,1-3.11-5.19l-.66-1.73-54.08-44.94a20,20,0,0,0-13.2,13.14l-4.59,14.66a20,20,0,0,1-37.85.81l-8.65-24-33.87-20-15.51,49.66a14.82,14.82,0,0,1-4.49,6.8l-8,6.9a14.77,14.77,0,0,1-12.5,3.27l-7.62-1.53a14.77,14.77,0,0,1-11.44-11l-18.73-77a14.81,14.81,0,0,0-1.74-4.21l-24.34-39.82a14.69,14.69,0,0,1-1.23-2.52L204.74,279.7a14.66,14.66,0,0,1-.92-4.49l-2-42.84a14.72,14.72,0,0,1,2.61-9.11L221,199.34a14.74,14.74,0,0,1,5.34-4.7l60.25-31.24a15.84,15.84,0,0,0,1.88-1.16l21.49-15.63a14.74,14.74,0,0,1,8.68-2.83h33.25a14.71,14.71,0,0,1,5,.86l94.78,33.85a14.59,14.59,0,0,1,5.47,3.47l28.32,28.31a14.61,14.61,0,0,0,6.55,3.8l16.49,4.51a14.73,14.73,0,0,1,9,7.06Z" style="fill: #f1e297"/>
    <path d="M425.37,321.57,406.51,344.2a9.72,9.72,0,0,0-2,8.57l9.52,38.09a9.71,9.71,0,0,0,5.93,6.7l23.32,9a9.67,9.67,0,0,1,4.74,3.91l7.7,12.32a9.7,9.7,0,0,0,7.26,4.51l15.29,1.53a9.69,9.69,0,0,0,6.92-2l17.67-13.74a9.79,9.79,0,0,1,1.62-1l11.42-5.71a9.66,9.66,0,0,1,4.34-1l17.74.94c2.85,0,16.84-12.63,18.68-14.81l14.07-11.81c2.71-3.2-1.57-12.32-3.76-15.89l-9.36-18.18a9.63,9.63,0,0,1-1.44-5.09v-4.53a9.71,9.71,0,0,1,3.64-7.58l3.29-3.36c2.08-1.66,3.78-9.34,4-12l3-15.45a9.69,9.69,0,0,0-2.81-7.67h0a9.69,9.69,0,0,0-9.41-2.5l-18.77,5.12a9.74,9.74,0,0,0-3.71,1.95l-10.59,9a9.73,9.73,0,0,1-7.58,2.21L473,299.56a9.67,9.67,0,0,1-6.38-3.7l-18-23.39a9.67,9.67,0,0,0-9.06-3.69l-5.71.81a9.72,9.72,0,0,0-7.55,5.79l-3.56,8.31a9.69,9.69,0,0,0-.29,6.89l5.33,16a9.84,9.84,0,0,1,.44,4.14l-.64,5.72A9.72,9.72,0,0,1,425.37,321.57Z" style="fill: #fff;stroke: #f1e297;stroke-miterlimit: 10;stroke-width: 0.9921259880065918px"/>
    <line x1="364.56" y1="423.05" x2="330.58" y2="402.95" style="fill: #f1e297"/>
    <line x1="430.13" y1="419.83" x2="482.95" y2="463.25" style="fill: none;stroke: #f1e297;stroke-miterlimit: 10;stroke-width: 0.9921259880065918px"/>
    <path d="M536,381l-13.84-9.88a2.6,2.6,0,0,0-1.28-.48l-23.71-2.16a2.62,2.62,0,0,1-2.31-2l-.42-1.68v0c-1-5.64-2.71-4.85-4.31-.47a2.31,2.31,0,0,1-4.37-1V361c0-1.19-.9-2.17,1-15.54a3.28,3.28,0,0,0-6.41-1.31c-3.75,13.54-4.41,14.92-4.82,15.47l-3.37,4.49a2.31,2.31,0,0,1-4.11-.93l-.18-5.68c-.36-1.81-2.94.55-4.25,1.85l-.83.84a2.62,2.62,0,0,1-2.15.75l-19.39-2.15a2.53,2.53,0,0,0-1.59.33l-14.19,8.1a2.63,2.63,0,0,0-1.22,3l3.95,13.82a2.69,2.69,0,0,0,1.06,1.46l19.31,12.87a2.64,2.64,0,0,0,2.81.07l7.85-4.71a2.3,2.3,0,0,1,3.41,1.38.25.25,0,0,1,0,.08l.24,8c-2.9,1.65-5.76,4.46-8.58,7.55-4.88,5.37,1.86,17.05,11,18.68,11.2,2,18.06-3.77,16.11-10.3-1.8-6-.81-8.65-5.87-13.67l2.25-7.86a2.62,2.62,0,0,1,3.69-1.63l1.73.87a2.54,2.54,0,0,0,.46.17l15.89,4.54a2.67,2.67,0,0,0,1.19.06l24.73-4.49a2.63,2.63,0,0,0,1.55-.91l9.52-11.42A2.63,2.63,0,0,0,536,381Z" style="fill: #f1e297;stroke: #fff;stroke-miterlimit: 10;stroke-width: 0.9921259880065918px"/>
    <path d="M439.85,276.19l4.79,2.3c2.24.38,3.48,4.26,4.89,6l4.11,7c3.34,4.18,1,9-.41,13.45l-11.59,4.55c-5.12,3.54-8.17,1-10-5l-4.25-9c-.53-1.71-.24-8.28.25-10l2-8C430.93,273,435.23,275.42,439.85,276.19Z" style="fill: #f1e297"/>
    <path d="M537.24,301.19a19.4,19.4,0,0,1,9.34-6l11.75-3.36a1.8,1.8,0,0,1,2.47.7l.84,1.54a11.63,11.63,0,0,1,1.09,8.3l-4,16.47a1.86,1.86,0,0,1-.4.76h0A9.72,9.72,0,0,1,545,323.56a28.16,28.16,0,0,1-3.72-2.34l-9.19-11.62a1.37,1.37,0,0,1-.26-1,3.42,3.42,0,0,1,.88-2.12C533.59,305.47,535.47,303.25,537.24,301.19Z" style="fill: #f1e297"/>
    <path d="M499.59,357.2l10.1-9.79" style="fill: none;stroke: #f1e297;stroke-miterlimit: 10;stroke-width: 0.9921259880065918px"/>
    <path d="M507.42,357.66l11.36-5.82" style="fill: none;stroke: #f1e297;stroke-miterlimit: 10;stroke-width: 0.9921259880065918px"/>
    <path d="M521.35,365.58l7.36-3.18" style="fill: none;stroke: #f1e297;stroke-miterlimit: 10;stroke-width: 0.9921259880065918px"/>
    <path d="M529.4,365.78a11.51,11.51,0,0,0,6.64-1.31" style="fill: none;stroke: #f1e297;stroke-miterlimit: 10;stroke-width: 0.9921259880065918px"/>
    <path d="M463.85,354.43a32,32,0,0,0-8.83-9.09" style="fill: none;stroke: #f1e297;stroke-miterlimit: 10;stroke-width: 0.9921259880065918px"/>
    <path d="M455.12,353.14l-23.88-13.28" style="fill: none;stroke: #f1e297;stroke-miterlimit: 10;stroke-width: 0.9921259880065918px"/>
    <path d="M437.11,351.35a70.77,70.77,0,0,0-13.8-5" style="fill: none;stroke: #f1e297;stroke-miterlimit: 10;stroke-width: 0.9921259880065918px"/>
    <path d="M423.25,356.51A64.9,64.9,0,0,0,404,351.84" style="fill: none;stroke: #f1e297;stroke-miterlimit: 10;stroke-width: 0.9921259880065918px"/>
    <path d="M524.7,316l4.6-4" style="fill: none;stroke: #f1e297;stroke-miterlimit: 10;stroke-width: 0.9921259880065918px"/>
    <path d="M530,317.32a13.06,13.06,0,0,1,4-3.92" style="fill: none;stroke: #f1e297;stroke-miterlimit: 10;stroke-width: 0.9921259880065918px"/>
    <path d="M531.29,324.57l5.34-6.61" style="fill: none;stroke: #f1e297;stroke-miterlimit: 10;stroke-width: 0.9921259880065918px"/>
    <path d="M538.68,324.64A28,28,0,0,0,544,318.7" style="fill: none;stroke: #f1e297;stroke-miterlimit: 10;stroke-width: 0.9921259880065918px"/>
    <path d="M468.37,307.4l-6.63-6" style="fill: none;stroke: #f1e297;stroke-miterlimit: 10;stroke-width: 0.9921259880065918px"/>
    <path d="M461.69,308.77l-3.93-4.69" style="fill: none;stroke: #f1e297;stroke-miterlimit: 10;stroke-width: 0.9921259880065918px"/>
    <path d="M456.49,313.28l-4-2.61" style="fill: none;stroke: #f1e297;stroke-miterlimit: 10;stroke-width: 0.9921259880065918px"/>
    <path d="M449.72,318.78l-6-4" style="fill: none;stroke: #f1e297;stroke-miterlimit: 10;stroke-width: 0.9921259880065918px"/>
    <path d="M428.73,418.41l1-.29,19-4.71" style="fill: none;stroke: #fff;stroke-miterlimit: 10;stroke-width: 0.9921259880065918px"/>
    <path d="M364.44,423l-7-19.48a19.74,19.74,0,0,1-.93-3.65l-13.15-83.24a20,20,0,0,1,1.34-10.9l21.94-51.87a19.88,19.88,0,0,1,6.42-8.2l44.63-33.48a20,20,0,0,1,18.3-3l25.9,8.63" style="fill: none;stroke: #fff;stroke-miterlimit: 10;stroke-width: 0.9921259880065918px"/>
    <line x1="482.81" y1="463.35" x2="470" y2="430.12" style="fill: none;stroke: #fff;stroke-miterlimit: 10;stroke-width: 0.9921259880065918px"/>
    <path d="M330.57,403l4.86-15.51a14.73,14.73,0,0,1,9.41-9.6" style="fill: none;stroke: #fff;stroke-miterlimit: 10;stroke-width: 0.9921259880065918px"/>
    <line x1="364.55" y1="423.05" x2="364.44" y2="422.98" style="fill: none;stroke: #fff;stroke-miterlimit: 10;stroke-width: 0.9921259880065918px"/>
    <line x1="428.73" y1="418.41" x2="428.65" y2="418.35" style="fill: none;stroke: #fff;stroke-miterlimit: 10;stroke-width: 0.9921259880065918px"/>
    <path d="M505.52,365.13l6.65-5.29" style="fill: none;stroke: #f1e297;stroke-miterlimit: 10;stroke-width: 0.9921259880065918px"/>
    <path d="M403.5,404.64s17.43-7.74,47.25,1.29" style="fill: none;stroke: #fff;stroke-miterlimit: 10;stroke-width: 0.9921259880065918px"/>
    <path d="M398.8,413.18s19.07-9.72,53.95-4.23" style="fill: none;stroke: #fff;stroke-miterlimit: 10;stroke-width: 0.9921259880065918px"/>
    <path d="M403.9,419.27s16.61-9.23,48.36-9.41" style="fill: none;stroke: #fff;stroke-miterlimit: 10;stroke-width: 0.9921259880065918px"/>
    <path d="M494.45,409.7s18.89-2.7,45.11,14.12" style="fill: none;stroke: #fff;stroke-miterlimit: 10;stroke-width: 0.9921259880065918px"/>
    <path d="M487.58,412.39s21.38-1.2,51.08,17.9" style="fill: none;stroke: #fff;stroke-miterlimit: 10;stroke-width: 0.9921259880065918px"/>
    <path d="M491.57,414.07s18.75,3.07,43.75,22.65" style="fill: none;stroke: #fff;stroke-miterlimit: 10;stroke-width: 0.9921259880065918px"/>
    <path d="M346.91,278.15l-8.54,5.44" style="fill: none;stroke: #fff;stroke-miterlimit: 10;stroke-width: 0.9921259880065918px"/>
    <path d="M341.68,292.9l-15.93,6.6" style="fill: none;stroke: #fff;stroke-miterlimit: 10;stroke-width: 0.9921259880065918px"/>
    <path d="M338.2,327.7l-21.08,9.62" style="fill: none;stroke: #fff;stroke-miterlimit: 10;stroke-width: 0.9921259880065918px"/>
    <path d="M335.63,357.81a273.58,273.58,0,0,0-9.1,31.9" style="fill: none;stroke: #fff;stroke-miterlimit: 10;stroke-width: 0.9921259880065918px"/>
    <path d="M349.53,250.54q-19.18-7.71-39-13.72" style="fill: none;stroke: #fff;stroke-miterlimit: 10;stroke-width: 0.9921259880065918px"/>
    <path d="M368.18,223.81l-22.55-9.95" style="fill: none;stroke: #fff;stroke-miterlimit: 10;stroke-width: 0.9921259880065918px"/>
    <path d="M394.76,193.92a152.86,152.86,0,0,0-34.49-25.27" style="fill: none;stroke: #fff;stroke-miterlimit: 10;stroke-width: 0.9921259880065918px"/>
    <path d="M301.84,302a161.25,161.25,0,0,0-32.5.85" style="fill: none;stroke: #fff;stroke-miterlimit: 10;stroke-width: 0.9921259880065918px"/>
    <path d="M265.32,366.36l-6,1.94" style="fill: none;stroke: #fff;stroke-miterlimit: 10;stroke-width: 0.9921259880065918px"/>
    <path d="M201,294.8l-3.85,6.05" style="fill: none;stroke: #fff;stroke-miterlimit: 10;stroke-width: 0.9921259880065918px"/>
    <path d="M279.24,391a87.48,87.48,0,0,1-11.87,14.65" style="fill: none;stroke: #fff;stroke-miterlimit: 10;stroke-width: 0.9921259880065918px"/>
    <path d="M278.54,410.18a53.68,53.68,0,0,0-8.74,15.92" style="fill: none;stroke: #fff;stroke-miterlimit: 10;stroke-width: 0.9921259880065918px"/>
    <path d="M241.46,320a22,22,0,0,0-5.3,6.64" style="fill: none;stroke: #fff;stroke-miterlimit: 10;stroke-width: 0.9921259880065918px"/>
    <path d="M241.61,332.67,239.55,338" style="fill: none;stroke: #fff;stroke-miterlimit: 10;stroke-width: 0.9921259880065918px"/>
    <path d="M487.57,431.46l-3.37,10.6" style="fill: none;stroke: #fff;stroke-miterlimit: 10;stroke-width: 0.9921259880065918px"/>
    <path d="M496.22,444.74A82.11,82.11,0,0,0,491.6,460" style="fill: none;stroke: #fff;stroke-miterlimit: 10;stroke-width: 0.9921259880065918px"/>
    <path d="M502.9,456.69l-1.53,9.92" style="fill: none;stroke: #fff;stroke-miterlimit: 10;stroke-width: 0.9921259880065918px"/>
    <path d="M382.15,412.91a126.56,126.56,0,0,1-12,17.85" style="fill: none;stroke: #fff;stroke-miterlimit: 10;stroke-width: 0.9921259880065918px"/>
    <path d="M385.4,430.13A101.33,101.33,0,0,0,379.46,452" style="fill: none;stroke: #fff;stroke-miterlimit: 10;stroke-width: 0.9921259880065918px"/>
    <path d="M386.14,450l1.25,7.31" style="fill: none;stroke: #fff;stroke-miterlimit: 10;stroke-width: 0.9921259880065918px"/>
    <path d="M390.86,450l2.41,9.35" style="fill: none;stroke: #fff;stroke-miterlimit: 10;stroke-width: 0.9921259880065918px"/>
    <path d="M400.07,444.08A21.45,21.45,0,0,0,402,456" style="fill: none;stroke: #fff;stroke-miterlimit: 10;stroke-width: 0.9921259880065918px"/>
    <path d="M404,416.87a27,27,0,0,1,4,9.28" style="fill: none;stroke: #fff;stroke-miterlimit: 10;stroke-width: 0.9921259880065918px"/>
    <path d="M473.71,238.37a300.66,300.66,0,0,0-39.14-28.55" style="fill: none;stroke: #fff;stroke-miterlimit: 10;stroke-width: 0.9921259880065918px"/>
    <path d="M445.77,231.18l-14.56-7.36" style="fill: none;stroke: #fff;stroke-miterlimit: 10;stroke-width: 0.9921259880065918px"/>
    <path d="M429.27,244.08a230,230,0,0,0-44.5-2.28" style="fill: none;stroke: #fff;stroke-miterlimit: 10;stroke-width: 0.9921259880065918px"/>
    <path d="M387.46,276.74a42,42,0,0,0-33.12,5.58" style="fill: none;stroke: #fff;stroke-miterlimit: 10;stroke-width: 0.9921259880065918px"/>
    <path d="M461.87,380.23c0,3.95-5.06,4.77-8.36,4.77s-8.36-3.2-8.36-7.16,3.87-7.17,7.16-7.17S461.87,376.27,461.87,380.23Z" style="fill: #f1e297;stroke: #fff;stroke-miterlimit: 10;stroke-width: 0.9921259880065918px"/>
    <path d="M506.87,386c0,4-7.45,4.85-10.75,4.85s-8.36-3.26-8.36-7.28,5.06-7.29,8.36-7.29S506.87,382,506.87,386Z" style="fill: #f1e297;stroke: #fff;stroke-miterlimit: 10;stroke-width: 0.9921259880065918px"/>
    <path d="M482.24,399.69l4,3.31" style="fill: none;stroke: #f1e297;stroke-miterlimit: 10;stroke-width: 0.9921259880065918px"/>
    <path d="M458.39,398.23l-4.64,2" style="fill: none;stroke: #f1e297;stroke-miterlimit: 10;stroke-width: 0.9921259880065918px"/>
    <line x1="529.32" y1="405.28" x2="529.32" y2="405.3" style="fill: none;stroke: #f1e297;stroke-miterlimit: 10;stroke-width: 0.9921259880065918px"/>
    <path d="M458.92,378.64c0,2.82-3.6,3.4-5.95,3.4s-6-2.29-6-5.11a5.43,5.43,0,0,1,5.11-5.1C454.46,371.83,458.92,375.82,458.92,378.64Z" style="fill: #fff;stroke: #f1e297;stroke-miterlimit: 10;stroke-width: 0.9921259880065918px"/>
    <path d="M504.32,385.34c0,3.08-5.72,3.72-8.25,3.72s-6.41-2.5-6.41-5.59,3.88-5.59,6.41-5.59S504.32,382.25,504.32,385.34Z" style="fill: #fff;stroke: #f1e297;stroke-miterlimit: 10;stroke-width: 0.9921259880065918px"/>
  </g>
</svg>
