<svg id="Layer_1" data-name="Layer 1" xmlns="http://www.w3.org/2000/svg" viewBox="0 0 620 620">
  <g id="Layer_1-2" data-name="Layer 1">
    <path d="M507.1,345.6c-13.7,97-97.1,171.6-197.8,171.6-99.1,0-181.4-72.2-197.1-166.9a202.73,202.73,0,0,0-2,28.3c0,110.4,89.5,199.9,199.9,199.9S509.9,489,509.9,378.6A200.41,200.41,0,0,0,507.1,345.6Z" style="fill: #f1e297"/>
    <g>
      <path d="M125.2,401.8c-.1,0-20.3-34.9-10.9-65.6.8-2.5,4.5-14.8,8.5-14.6,2.3.1,4.8,4.6,4.9,8.8.2,8.2-8.6,10.7-11.1,21.9a32.18,32.18,0,0,0-.5,8.1C116.9,381.4,125.3,401.8,125.2,401.8Z" style="fill: #fff;stroke: #f1e297;stroke-miterlimit: 10;stroke-width: 0.9921000003814697px"/>
      <path d="M120.2,294.2c-1.5-2.6-4.6-5.4-7.6-5.1-3.6.4-5.8,5.4-7.2,9-10.2,26.9-8.3,44.3-8.3,44.3,4.3,40.4,31.8,71.5,32.1,71.4a104.76,104.76,0,0,1-18.9-38.6c-3.2-12.3-7.2-27.7-2.1-45C113.4,312.5,125.1,302.7,120.2,294.2Z" style="fill: #fff;stroke: #f1e297;stroke-miterlimit: 10;stroke-width: 0.9921000003814697px"/>
    </g>
    <g>
      <path d="M495.7,392.9c.1,0,20.3-34.9,10.9-65.6-.8-2.5-4.5-14.8-8.5-14.6-2.3.1-4.8,4.6-4.9,8.8-.2,8.2,8.6,10.7,11.1,21.9a32.18,32.18,0,0,1,.5,8.1C504,372.5,495.6,392.9,495.7,392.9Z" style="fill: #fff;stroke: #f1e297;stroke-miterlimit: 10;stroke-width: 0.9921000003814697px"/>
      <path d="M500.7,285.2c1.5-2.6,4.6-5.4,7.6-5.1,3.6.4,5.8,5.4,7.2,9,10.2,26.9,8.3,44.3,8.3,44.3-4.3,40.4-31.8,71.5-32.1,71.4a104.76,104.76,0,0,0,18.9-38.6c3.2-12.3,7.2-27.7,2.1-45C507.5,303.6,495.8,293.8,500.7,285.2Z" style="fill: #fff;stroke: #f1e297;stroke-miterlimit: 10;stroke-width: 0.9921000003814697px"/>
    </g>
  </g>
  <g id="hand">
    <g>
      <path d="M256.3,509.6a199.33,199.33,0,0,1-92.9-56.4c-2.5-19-5.2-39.8-5.2-41.1,0-6.7.3-12.9.6-19,.3-5.9.6-12,.6-18.5v-.9l.5-6.4.5-4.2c0-.3.1-.5.1-.8l.6-18v-3.7a9.15,9.15,0,0,1,.1-1.7l.4-3.7.3-12.8c0-3.2.9-8.9,2.8-10.8a2.1,2.1,0,0,1,1.4-.7h5.7a.9.9,0,0,1,.5.1c1,.3,2.7,2,2.8,10.1,0,.6.1,1.2.1,1.7l.9,6.2c.1.6.1,1.3.2,2v1.9l.6,10.3.6,18.2v.4l.3,2.7a7.57,7.57,0,0,1,.1,1.5l.1,3.1.7,16.3a1.08,1.08,0,0,0,1,1h.3a1,1,0,0,0,.8-1v-22l-.4-3.2c-.1-1-.2-2-.2-2.9v-3.2a16.23,16.23,0,0,1,.1-2.1l.5-5.1V322.8c0-1.4-.1-2.7-.2-4l-.2-1.8a15.48,15.48,0,0,1,0-4.3l.3-2.7a22.88,22.88,0,0,0,.1-3.7l-.3-13.5c0-2.9,1.3-7.4,3.6-9.9l.1-.1h0a4.61,4.61,0,0,1,3.2-1.7h7.1a4.11,4.11,0,0,1,3.1,1.7c2.1,2.5,3.2,7.1,3.2,10.1l1.7,92.2a1.28,1.28,0,0,0,1.1,1.2h0a1.13,1.13,0,0,0,1.2-1.1l1.3-104.1c0-4,2.5-11.7,5.7-13.8h.1a3.32,3.32,0,0,1,1.6-.5h7a7.63,7.63,0,0,1,4.5,2.8l.1.1a19.26,19.26,0,0,1,4.5,11.5l1.9,103.3a.79.79,0,0,0,.8.8h.3a1.92,1.92,0,0,0,1.3-1.8l-.6-85.8a14.55,14.55,0,0,1,3.1-8.6,5.26,5.26,0,0,1,3.8-2h7.1c1.6,0,3.4,1.1,5,3l.3.4a13.27,13.27,0,0,1,2.9,7.3l4.8,79.8c0,3.2.2,9.9.6,13.8l1.1,31.7a1.08,1.08,0,0,0,1,1,.89.89,0,0,0,.8-.5l8.8-14.7.1-.3,6.4-17c1.5-6.3,5.3-12.7,9.8-16.3l.1-.1a12.59,12.59,0,0,1,7.9-3.1,16.35,16.35,0,0,1,2.2.2h.1c.3.1,6.5,1.9,8.3,8.3v.1a17.81,17.81,0,0,1,.3,6.6v.1l-7.3,30.3a11.52,11.52,0,0,1-1.4,3.2.37.37,0,0,0-.1.3c-.2.5-.4,1-.6,1.4l-13.3,30.9c-2.3,4.1-11.2,17.3-22.8,25.1C261.2,478.3,260.1,485,256.3,509.6Z" style="fill: #fff;stroke: #f1e297;stroke-miterlimit: 10;stroke-width: 0.9921000003814697px"/>
      <path d="M190.2,300.5h-.4a6.13,6.13,0,0,1-5.2-2.5c-1.2-1.8-1.8-4.6-1.6-8.4a28.61,28.61,0,0,1,1.1-7.1v-.1c.9-2.8,2.6-6.2,6-6.2h.2c2.9.1,5.7,2.5,7.2,6.2a16.7,16.7,0,0,1,1.1,7.5C198.2,296.7,195.3,300.5,190.2,300.5Z" style="fill: #fff;stroke: #f1e297;stroke-miterlimit: 10;stroke-width: 0.9921000003814697px"/>
      <path d="M217.5,265.2a8.1,8.1,0,0,1,7,4.1l.1.2h0a17.49,17.49,0,0,1,2,8.7c0,7.6-3.2,11.8-9.1,11.8-3.4,0-9.1-1.5-9.1-11.8,0-4.7,1.3-8.6,3.7-10.9l.2-.2a7.91,7.91,0,0,1,5.2-1.9" style="fill: #fff;stroke: #f1e297;stroke-miterlimit: 10;stroke-width: 0.9921000003814697px"/>
      <path d="M244.1,304c-4.1,0-8.9-1.7-8.9-9.6a15.51,15.51,0,0,1,1.1-5.9,8.36,8.36,0,0,1,7.8-5.4c3.8,0,6.8,2.4,8.1,6.3l.1.3a17.17,17.17,0,0,1,.7,4.7C253,302.3,248.2,304,244.1,304Z" style="fill: #fff;stroke: #f1e297;stroke-miterlimit: 10;stroke-width: 0.9921000003814697px"/>
      <line x1="246.5" y1="320.6" x2="236.5" y2="320.6" style="fill: #fff;stroke: #f1e297;stroke-miterlimit: 10;stroke-width: 0.9921000003814697px"/>
      <line x1="246.5" y1="322.3" x2="236.5" y2="322.3" style="fill: #fff;stroke: #f1e297;stroke-miterlimit: 10;stroke-width: 0.9921000003814697px"/>
      <line x1="195.3" y1="313.1" x2="182.4" y2="314.3" style="fill: #fff;stroke: #f1e297;stroke-miterlimit: 10;stroke-width: 0.9921000003814697px"/>
      <line x1="195.3" y1="314.8" x2="182.4" y2="316" style="fill: #fff;stroke: #f1e297;stroke-miterlimit: 10;stroke-width: 0.9921000003814697px"/>
      <line x1="222.4" y1="310.2" x2="212.3" y2="310.2" style="fill: #fff;stroke: #f1e297;stroke-miterlimit: 10;stroke-width: 0.9921000003814697px"/>
      <line x1="222.4" y1="312" x2="212.3" y2="312" style="fill: #fff;stroke: #f1e297;stroke-miterlimit: 10;stroke-width: 0.9921000003814697px"/>
      <line x1="173.8" y1="338.4" x2="163.4" y2="339.6" style="fill: #fff;stroke: #f1e297;stroke-miterlimit: 10;stroke-width: 0.9921000003814697px"/>
      <line x1="172.7" y1="340.6" x2="163.5" y2="341.8" style="fill: #fff;stroke: #f1e297;stroke-miterlimit: 10;stroke-width: 0.9921000003814697px"/>
      <line x1="174.1" y1="365.4" x2="162.8" y2="366.6" style="fill: #fff;stroke: #f1e297;stroke-miterlimit: 10;stroke-width: 0.9921000003814697px"/>
      <line x1="170.3" y1="362.6" x2="162.6" y2="364.3" style="fill: #fff;stroke: #f1e297;stroke-miterlimit: 10;stroke-width: 0.9921000003814697px"/>
      <line x1="173.2" y1="367.7" x2="162.8" y2="368.9" style="fill: #fff;stroke: #f1e297;stroke-miterlimit: 10;stroke-width: 0.9921000003814697px"/>
      <line x1="194.8" y1="350.5" x2="184.1" y2="352.8" style="fill: #fff;stroke: #f1e297;stroke-miterlimit: 10;stroke-width: 0.9921000003814697px"/>
      <line x1="194.8" y1="352.2" x2="184.1" y2="354.5" style="fill: #fff;stroke: #f1e297;stroke-miterlimit: 10;stroke-width: 0.9921000003814697px"/>
      <line x1="194.8" y1="355.7" x2="184.1" y2="358" style="fill: #fff;stroke: #f1e297;stroke-miterlimit: 10;stroke-width: 0.9921000003814697px"/>
      <line x1="221.8" y1="347.6" x2="211.7" y2="347.6" style="fill: #fff;stroke: #f1e297;stroke-miterlimit: 10;stroke-width: 0.9921000003814697px"/>
      <line x1="221.8" y1="349.3" x2="211.7" y2="349.3" style="fill: #fff;stroke: #f1e297;stroke-miterlimit: 10;stroke-width: 0.9921000003814697px"/>
      <line x1="221.8" y1="352.8" x2="211.7" y2="352.8" style="fill: #fff;stroke: #f1e297;stroke-miterlimit: 10;stroke-width: 0.9921000003814697px"/>
      <line x1="247.7" y1="356.2" x2="237.6" y2="356.2" style="fill: #fff;stroke: #f1e297;stroke-miterlimit: 10;stroke-width: 0.9921000003814697px"/>
      <line x1="247.7" y1="358" x2="237.6" y2="358" style="fill: #fff;stroke: #f1e297;stroke-miterlimit: 10;stroke-width: 0.9921000003814697px"/>
      <line x1="247.7" y1="360.3" x2="237.6" y2="360.3" style="fill: #fff;stroke: #f1e297;stroke-miterlimit: 10;stroke-width: 0.9921000003814697px"/>
      <line x1="297.2" y1="408.7" x2="287.4" y2="406.4" style="fill: #fff;stroke: #f1e297;stroke-miterlimit: 10;stroke-width: 0.9921000003814697px"/>
      <line x1="296.8" y1="410.3" x2="287" y2="408" style="fill: #fff;stroke: #f1e297;stroke-miterlimit: 10;stroke-width: 0.9921000003814697px"/>
      <line x1="296.3" y1="412.6" x2="286.5" y2="410.3" style="fill: #fff;stroke: #f1e297;stroke-miterlimit: 10;stroke-width: 0.9921000003814697px"/>
      <path d="M168.6,326.4c-2.3,0-5.2-.8-5.2-7.5a18.25,18.25,0,0,1,1.4-7.5v-.1c.6-1.4,1.8-3,3.6-3a3.81,3.81,0,0,1,3.5,2.4,15.57,15.57,0,0,1,1.4,7.2C173.3,323.6,171.7,326.4,168.6,326.4Z" style="fill: #fff;stroke: #f1e297;stroke-miterlimit: 10;stroke-width: 0.9921000003814697px"/>
      <path d="M299.6,391.2a26.3,26.3,0,0,1-5.5-.9,8.74,8.74,0,0,1-5.9-4.2,10.79,10.79,0,0,1-.8-7.8,11.45,11.45,0,0,1,1.5-3.6l.1-.2a10.45,10.45,0,0,1,8.8-5.1,7.61,7.61,0,0,1,2.1.3c4.5,1.1,7.5,5.2,7.5,10.4a15.26,15.26,0,0,1-.3,3C305.5,390.2,302.3,391.2,299.6,391.2Z" style="fill: #fff;stroke: #f1e297;stroke-miterlimit: 10;stroke-width: 0.9921000003814697px"/>
    </g>
  </g>
</svg>
