<svg id="Layer_1" data-name="Layer 1" xmlns="http://www.w3.org/2000/svg" viewBox="0 0 620 620">
  <g>
    <path d="M460.82,320.54a4.67,4.67,0,1,1,4.66-4.67A4.67,4.67,0,0,1,460.82,320.54Z" style="fill: #fff"/>
    <path d="M460.82,311.7a4.17,4.17,0,1,1-4.17,4.17,4.17,4.17,0,0,1,4.17-4.17m0-1a5.16,5.16,0,1,0,5.16,5.16,5.17,5.17,0,0,0-5.16-5.16Z" style="fill: #f1e297"/>
  </g>
  <g>
    <path d="M546.43,269.34a4.67,4.67,0,1,1,4.67-4.67A4.67,4.67,0,0,1,546.43,269.34Z" style="fill: #fff"/>
    <path d="M546.43,260.5a4.17,4.17,0,1,1-4.17,4.17,4.17,4.17,0,0,1,4.17-4.17m0-1a5.17,5.17,0,1,0,5.17,5.16,5.16,5.16,0,0,0-5.17-5.16Z" style="fill: #f1e297"/>
  </g>
  <g>
    <path d="M286.57,196.2a8.11,8.11,0,1,1,8.11-8.11A8.12,8.12,0,0,1,286.57,196.2Z" style="fill: #fff"/>
    <path d="M286.57,180.48a7.62,7.62,0,1,1-7.61,7.61,7.63,7.63,0,0,1,7.61-7.61m0-1a8.61,8.61,0,1,0,8.61,8.6,8.6,8.6,0,0,0-8.61-8.6Z" style="fill: #f1e297"/>
  </g>
  <g>
    <path d="M161.57,488a2.09,2.09,0,1,1,2.09-2.09A2.09,2.09,0,0,1,161.57,488Z" style="fill: #fff"/>
    <path d="M161.57,484.27a1.59,1.59,0,1,1-1.59,1.59,1.59,1.59,0,0,1,1.59-1.59m0-1a2.58,2.58,0,1,0,2.58,2.58,2.58,2.58,0,0,0-2.58-2.58Z" style="fill: #f1e297"/>
  </g>
  <g>
    <path d="M252.15,402.71a4.67,4.67,0,1,1,4.67-4.66A4.66,4.66,0,0,1,252.15,402.71Z" style="fill: #fff"/>
    <path d="M252.15,393.88a4.17,4.17,0,1,1-4.17,4.17,4.18,4.18,0,0,1,4.17-4.17m0-1a5.17,5.17,0,1,0,5.17,5.17,5.16,5.16,0,0,0-5.17-5.17Z" style="fill: #f1e297"/>
  </g>
  <g>
    <path d="M114.91,305.91A8.11,8.11,0,1,1,123,297.8,8.12,8.12,0,0,1,114.91,305.91Z" style="fill: #fff"/>
    <path d="M114.91,290.19a7.61,7.61,0,1,1-7.61,7.61,7.61,7.61,0,0,1,7.61-7.61m0-1a8.61,8.61,0,1,0,8.6,8.6,8.6,8.6,0,0,0-8.6-8.6Z" style="fill: #f1e297"/>
  </g>
  <g>
    <path d="M299.05,100.26a8.11,8.11,0,1,1,8.11-8.11A8.12,8.12,0,0,1,299.05,100.26Z" style="fill: #fff"/>
    <path d="M299.05,84.54a7.61,7.61,0,1,1-7.61,7.61,7.61,7.61,0,0,1,7.61-7.61m0-1a8.61,8.61,0,1,0,8.6,8.6,8.6,8.6,0,0,0-8.6-8.6Z" style="fill: #f1e297"/>
  </g>
  <g>
    <circle cx="540.8" cy="355.99" r="7" style="fill: #fff"/>
    <path d="M540.8,349.48a6.51,6.51,0,1,1-6.51,6.51,6.52,6.52,0,0,1,6.51-6.51m0-1a7.5,7.5,0,1,0,7.5,7.5,7.5,7.5,0,0,0-7.5-7.5Z" style="fill: #f1e297"/>
  </g>
  <g>
    <circle cx="465.51" cy="390.84" r="8.11" style="fill: #fff"/>
    <path d="M465.51,383.23a7.61,7.61,0,1,1-7.61,7.61,7.61,7.61,0,0,1,7.61-7.61m0-1a8.61,8.61,0,1,0,8.61,8.61,8.61,8.61,0,0,0-8.61-8.61Z" style="fill: #f1e297"/>
  </g>
</svg>
