<svg id="Layer_1" data-name="Layer 1" xmlns="http://www.w3.org/2000/svg" viewBox="0 0 620 620">
  <g>
    <g>
      <path d="M233.83,285.21a.93.93,0,0,1-.83-1l9.88-101.32a.92.92,0,0,1,.91-.83.94.94,0,0,1,.92,1l-9.87,101.31a.93.93,0,0,1-.92.84Z" style="fill: #fff"/>
      <path d="M243.79,181.56l0,1a.39.39,0,0,1,.29.15.45.45,0,0,1,.1.31l-9.87,101.32a.44.44,0,0,1-.46.38h0a.44.44,0,0,1-.29-.16.41.41,0,0,1-.09-.31l9.87-101.31a.43.43,0,0,1,.42-.38v-1m0,0a1.43,1.43,0,0,0-1.41,1.29l-9.87,101.31a1.43,1.43,0,0,0,1.27,1.55h.14a1.42,1.42,0,0,0,1.41-1.28l9.88-101.31a1.43,1.43,0,0,0-1.28-1.55Z" style="fill: #f1e297"/>
    </g>
    <g>
      <path d="M233,285.13a.92.92,0,0,1-.89-.95l3.32-101.74a.93.93,0,0,1,1.85.06L234,284.24a.93.93,0,0,1-.93.89Z" style="fill: #fff"/>
      <path d="M236.34,181.05l0,1a.41.41,0,0,1,.29.14.38.38,0,0,1,.12.3l-3.32,101.74a.43.43,0,0,1-.44.41h0a.42.42,0,0,1-.3-.13.45.45,0,0,1-.11-.31l3.32-101.73a.43.43,0,0,1,.42-.42v-1m0,0a1.41,1.41,0,0,0-1.41,1.37l-3.32,101.74a1.43,1.43,0,0,0,1.37,1.47h0a1.42,1.42,0,0,0,1.42-1.38l3.32-101.73a1.43,1.43,0,0,0-1.37-1.47Z" style="fill: #f1e297"/>
    </g>
    <g>
      <path d="M233.86,285.21a.94.94,0,0,1-.91-.77L215.77,184.11a.92.92,0,0,1,.16-.68.87.87,0,0,1,.6-.38h.15a.93.93,0,0,1,.91.76l17.18,100.33a.93.93,0,0,1-.75,1.07Z" style="fill: #fff"/>
      <path d="M216.68,183.53a.42.42,0,0,1,.42.36l17.18,100.33a.43.43,0,0,1-.35.49h-.07a.45.45,0,0,1-.42-.36L216.26,184a.43.43,0,0,1,.35-.49h.07m0-1-.24,0a1.43,1.43,0,0,0-1.16,1.64l17.18,100.33a1.42,1.42,0,0,0,1.4,1.18l.24,0a1.43,1.43,0,0,0,1.16-1.64L218.08,183.72a1.42,1.42,0,0,0-1.4-1.18Z" style="fill: #f1e297"/>
    </g>
    <g>
      <path d="M233.92,285.22l-.16,0a.93.93,0,0,1-.6-.38,1,1,0,0,1-.15-.69L251.27,184a.92.92,0,0,1,.91-.76l.16,0a.9.9,0,0,1,.6.38.94.94,0,0,1,.15.69L234.83,284.46A.92.92,0,0,1,233.92,285.22Z" style="fill: #fff"/>
      <path d="M252.18,183.73h.08a.45.45,0,0,1,.27.18.41.41,0,0,1,.07.32L234.34,284.37a.43.43,0,0,1-.42.35h-.07a.43.43,0,0,1-.28-.17.41.41,0,0,1-.07-.32l18.26-100.14a.44.44,0,0,1,.42-.35m0-1a1.44,1.44,0,0,0-1.4,1.17L232.53,284a1.42,1.42,0,0,0,1.14,1.65,1.06,1.06,0,0,0,.25,0,1.43,1.43,0,0,0,1.4-1.16l18.26-100.14a1.43,1.43,0,0,0-1.15-1.65,1.07,1.07,0,0,0-.25,0Z" style="fill: #f1e297"/>
    </g>
    <g>
      <path d="M233.92,285.22a.87.87,0,0,1-.32-.06.92.92,0,0,1-.54-1.19l35.76-95.3a.93.93,0,0,1,.87-.6.87.87,0,0,1,.32.06.89.89,0,0,1,.51.48.88.88,0,0,1,0,.71l-35.76,95.3A.94.94,0,0,1,233.92,285.22Z" style="fill: #fff"/>
      <path d="M269.69,188.57l.15,0a.44.44,0,0,1,.25.55l-35.77,95.3a.42.42,0,0,1-.4.28l-.15,0a.44.44,0,0,1-.25-.55l35.76-95.3a.44.44,0,0,1,.41-.27m0-1a1.42,1.42,0,0,0-1.33.92L232.59,283.8a1.42,1.42,0,0,0,.83,1.82,1.47,1.47,0,0,0,.5.09,1.42,1.42,0,0,0,1.33-.92L271,189.49a1.42,1.42,0,0,0-1.32-1.92Z" style="fill: #f1e297"/>
    </g>
    <g>
      <path d="M233.92,285.22a.92.92,0,0,1-.43-.11.89.89,0,0,1-.45-.55.9.9,0,0,1,.07-.7L280.91,194a.92.92,0,1,1,1.63.86l-47.8,89.87A.94.94,0,0,1,233.92,285.22Z" style="fill: #fff"/>
      <path d="M281.73,194a.46.46,0,0,1,.2.05.43.43,0,0,1,.2.25.44.44,0,0,1,0,.33L234.3,284.5a.44.44,0,0,1-.38.22.46.46,0,0,1-.2-.05.45.45,0,0,1-.18-.58l47.81-89.86a.42.42,0,0,1,.38-.23m0-1a1.43,1.43,0,0,0-1.26.75l-47.8,89.87a1.42,1.42,0,0,0,.59,1.92,1.42,1.42,0,0,0,1.91-.59L283,195.09a1.41,1.41,0,0,0-1.25-2.08Z" style="fill: #f1e297"/>
    </g>
    <g>
      <path d="M233.86,285.21a.93.93,0,0,1-.89-.68l-26.64-98.24a.94.94,0,0,1,.09-.7,1,1,0,0,1,.56-.44,1,1,0,0,1,.24,0,.93.93,0,0,1,.9.68l26.63,98.25a.92.92,0,0,1-.65,1.13Z" style="fill: #fff"/>
      <path d="M207.22,185.62a.44.44,0,0,1,.42.31l26.63,98.25a.42.42,0,0,1-.3.52l-.11,0a.44.44,0,0,1-.41-.32l-26.64-98.24a.44.44,0,0,1,.3-.53h.11m0-1a1.22,1.22,0,0,0-.37.05,1.42,1.42,0,0,0-1,1.74l26.64,98.24a1.43,1.43,0,0,0,1.37,1,1.5,1.5,0,0,0,.37,0,1.42,1.42,0,0,0,1-1.74l-26.64-98.25a1.41,1.41,0,0,0-1.37-1Z" style="fill: #f1e297"/>
    </g>
    <g>
      <path d="M233.92,285.22a1,1,0,0,1-.54-.17.93.93,0,0,1-.21-1.29l59.2-82.8a.93.93,0,0,1,.76-.39.91.91,0,0,1,.9.77.93.93,0,0,1-.15.69l-59.21,82.8A.92.92,0,0,1,233.92,285.22Z" style="fill: #fff"/>
      <path d="M293.13,201.07h0a.43.43,0,0,1,.34.67l-59.2,82.8a.44.44,0,0,1-.35.18.4.4,0,0,1-.25-.08.43.43,0,0,1-.1-.59l59.21-82.81a.43.43,0,0,1,.35-.17m0-1a1.42,1.42,0,0,0-1.16.6l-59.2,82.8a1.41,1.41,0,0,0,.33,2,1.36,1.36,0,0,0,.82.26,1.42,1.42,0,0,0,1.16-.59l59.2-82.8a1.43,1.43,0,0,0-1.15-2.25Z" style="fill: #f1e297"/>
    </g>
    <g>
      <path d="M233.16,285.14a.9.9,0,0,1-.78-.42L177,199.31a1,1,0,0,1-.12-.7.93.93,0,0,1,.9-.73.92.92,0,0,1,.77.42l55.37,85.42a.92.92,0,0,1,.12.69.91.91,0,0,1-.4.59A.93.93,0,0,1,233.16,285.14Z" style="fill: #fff"/>
      <path d="M177.78,198.38a.44.44,0,0,1,.37.19L233.51,284a.43.43,0,0,1-.13.59.41.41,0,0,1-.22.07.45.45,0,0,1-.37-.2L177.43,199a.48.48,0,0,1-.06-.33.49.49,0,0,1,.19-.27.43.43,0,0,1,.22-.06m0-1a1.42,1.42,0,0,0-1.18,2.19L232,285a1.42,1.42,0,0,0,1.2.65,1.33,1.33,0,0,0,.76-.23,1.41,1.41,0,0,0,.42-2L179,198a1.42,1.42,0,0,0-1.2-.65Z" style="fill: #f1e297"/>
    </g>
    <g>
      <path d="M232.45,285.07a.9.9,0,0,1-.74-.37L171,203a.93.93,0,0,1,.19-1.29.91.91,0,0,1,.55-.18.92.92,0,0,1,.75.37l60.75,81.67a.92.92,0,0,1-.19,1.29A.91.91,0,0,1,232.45,285.07Z" style="fill: #fff"/>
      <path d="M171.69,202.05a.44.44,0,0,1,.35.18l60.75,81.67a.42.42,0,0,1,.08.31.43.43,0,0,1-.17.29.45.45,0,0,1-.25.08.41.41,0,0,1-.34-.17l-60.76-81.67a.45.45,0,0,1-.08-.32.43.43,0,0,1,.17-.28.42.42,0,0,1,.25-.09m0-1a1.39,1.39,0,0,0-.84.28,1.42,1.42,0,0,0-.29,2L231.31,285a1.43,1.43,0,0,0,1.14.57,1.42,1.42,0,0,0,1.14-2.26l-60.76-81.68a1.41,1.41,0,0,0-1.14-.57Z" style="fill: #f1e297"/>
    </g>
    <g>
      <path d="M233.16,285.14a.91.91,0,0,1-.82-.48l-48.07-89.73a.85.85,0,0,1-.07-.7.93.93,0,0,1,.44-.55,1,1,0,0,1,.44-.11.92.92,0,0,1,.81.49L234,283.78a.92.92,0,0,1-.38,1.25A.84.84,0,0,1,233.16,285.14Z" style="fill: #fff"/>
      <path d="M185.07,194.07a.44.44,0,0,1,.39.23L233.53,284a.43.43,0,0,1-.18.58.42.42,0,0,1-.57-.18L184.7,194.7a.43.43,0,0,1,.18-.58.45.45,0,0,1,.19-.05m0-1a1.33,1.33,0,0,0-.66.17,1.42,1.42,0,0,0-.58,1.92l48.07,89.72a1.43,1.43,0,0,0,1.26.75,1.33,1.33,0,0,0,.66-.17,1.42,1.42,0,0,0,.58-1.92l-48.07-89.72a1.42,1.42,0,0,0-1.26-.75Z" style="fill: #f1e297"/>
    </g>
    <g>
      <path d="M233.16,285.14a1,1,0,0,1-.89-.64l-31.36-96.83a.93.93,0,0,1,.6-1.17.86.86,0,0,1,.28,0,.92.92,0,0,1,.88.64L234,283.94a.92.92,0,0,1-.59,1.16A1,1,0,0,1,233.16,285.14Z" style="fill: #fff"/>
      <path d="M201.79,187a.45.45,0,0,1,.41.3l31.36,96.84a.44.44,0,0,1-.28.54l-.12,0a.42.42,0,0,1-.41-.3l-31.37-96.84a.44.44,0,0,1,.28-.54l.13,0m0-1a1.35,1.35,0,0,0-.44.07,1.43,1.43,0,0,0-.91,1.79l31.36,96.84a1.43,1.43,0,0,0,1.36,1,1.29,1.29,0,0,0,.43-.07,1.42,1.42,0,0,0,.91-1.79l-31.36-96.84a1.41,1.41,0,0,0-1.35-1Z" style="fill: #f1e297"/>
    </g>
    <g>
      <path d="M233.15,285.14a.91.91,0,0,1-.92-.87L227,182.61a.93.93,0,0,1,.88-1h0a.94.94,0,0,1,1,.88l5.23,101.65a.92.92,0,0,1-.23.67.94.94,0,0,1-.64.3Z" style="fill: #fff"/>
      <path d="M227.92,182.14a.43.43,0,0,1,.42.4l5.24,101.66a.44.44,0,0,1-.43.45.43.43,0,0,1-.42-.41l-5.24-101.65a.43.43,0,0,1,.4-.45h0m0-1h-.07a1.42,1.42,0,0,0-1.34,1.49l5.23,101.65a1.43,1.43,0,0,0,1.42,1.35h.07a1.43,1.43,0,0,0,1.35-1.49l-5.24-101.66a1.43,1.43,0,0,0-1.42-1.35Z" style="fill: #f1e297"/>
    </g>
    <g>
      <path d="M232.84,285.11a1,1,0,0,1-.28,0,.92.92,0,0,1-.59-1.16L263.12,187a.92.92,0,0,1,.88-.64,1,1,0,0,1,.82.5,1,1,0,0,1,.06.71l-31.15,96.9A.94.94,0,0,1,232.84,285.11Z" style="fill: #fff"/>
      <path d="M264,186.86a.27.27,0,0,1,.13,0,.43.43,0,0,1,.28.53l-31.16,96.91a.43.43,0,0,1-.41.3l-.12,0a.43.43,0,0,1-.25-.22.4.4,0,0,1,0-.32l31.15-96.91a.44.44,0,0,1,.41-.29m0-1a1.42,1.42,0,0,0-1.35,1L231.5,283.76a1.42,1.42,0,0,0,.91,1.78,1.33,1.33,0,0,0,.43.07,1.43,1.43,0,0,0,1.36-1l31.15-96.9a1.42,1.42,0,0,0-.92-1.79,1.55,1.55,0,0,0-.43-.07Z" style="fill: #f1e297"/>
    </g>
    <g>
      <path d="M325,310.87a.92.92,0,0,1-.72-.34.94.94,0,0,1,.13-1.3L403,244.57a.93.93,0,0,1,.58-.2.94.94,0,0,1,.72.33,1,1,0,0,1,.2.68.89.89,0,0,1-.33.62l-78.62,64.66A.88.88,0,0,1,325,310.87Z" style="fill: #fff"/>
      <path d="M403.61,244.86a.42.42,0,0,1,.33.16.43.43,0,0,1-.06.6l-78.61,64.66a.48.48,0,0,1-.27.09.41.41,0,0,1-.33-.15.47.47,0,0,1-.1-.32.46.46,0,0,1,.15-.28L403.34,245a.43.43,0,0,1,.27-.1m0-1a1.44,1.44,0,0,0-.9.32l-78.62,64.66a1.42,1.42,0,0,0,.91,2.51,1.4,1.4,0,0,0,.9-.32l78.61-64.66a1.4,1.4,0,0,0,.2-2,1.43,1.43,0,0,0-1.1-.52Z" style="fill: #f1e297"/>
    </g>
    <g>
      <path d="M324.42,310.17a.88.88,0,0,1-.67-.29.92.92,0,0,1,0-1.3L398.08,239a.9.9,0,0,1,.63-.24.88.88,0,0,1,.67.29.92.92,0,0,1,0,1.3l-74.29,69.59A.91.91,0,0,1,324.42,310.17Z" style="fill: #fff"/>
      <path d="M398.71,239.23a.42.42,0,0,1,.31.14.43.43,0,0,1,0,.6l-74.29,69.59a.39.39,0,0,1-.29.11.4.4,0,0,1-.31-.13.43.43,0,0,1,0-.6l74.29-69.59a.41.41,0,0,1,.29-.12m0-1a1.43,1.43,0,0,0-1,.38l-74.29,69.59a1.42,1.42,0,0,0-.06,2,1.38,1.38,0,0,0,1,.45,1.39,1.39,0,0,0,1-.39l74.29-69.59a1.41,1.41,0,0,0,.06-2h0a1.38,1.38,0,0,0-1-.45Z" style="fill: #f1e297"/>
    </g>
    <g>
      <path d="M325,310.82a.93.93,0,0,1-.53-.17.89.89,0,0,1-.37-.6.91.91,0,0,1,.15-.68l58.8-83.1a.94.94,0,0,1,.76-.39.92.92,0,0,1,.75,1.46l-58.8,83.09A.93.93,0,0,1,325,310.82Z" style="fill: #fff"/>
      <path d="M383.76,226.38a.38.38,0,0,1,.24.08.42.42,0,0,1,.1.59l-58.79,83.1a.45.45,0,0,1-.36.17.43.43,0,0,1-.24-.07.43.43,0,0,1-.1-.6l58.79-83.09a.45.45,0,0,1,.36-.18m0-1a1.44,1.44,0,0,0-1.17.6L323.8,309.08a1.42,1.42,0,0,0,2.32,1.64l58.79-83.09a1.42,1.42,0,0,0-.34-2,1.35,1.35,0,0,0-.81-.26Z" style="fill: #f1e297"/>
    </g>
    <g>
      <path d="M325,310.87a.92.92,0,0,1-.53-1.68l83.72-57.9a.87.87,0,0,1,.52-.17.92.92,0,0,1,.53,1.68l-83.72,57.91A.94.94,0,0,1,325,310.87Z" style="fill: #fff"/>
      <path d="M408.71,251.62a.45.45,0,0,1,.36.18.41.41,0,0,1,.06.32.43.43,0,0,1-.17.28l-83.72,57.9a.43.43,0,0,1-.24.07.45.45,0,0,1-.36-.18.46.46,0,0,1-.06-.32.43.43,0,0,1,.17-.28l83.72-57.9a.43.43,0,0,1,.24-.07m0-1a1.38,1.38,0,0,0-.8.25l-83.72,57.9a1.42,1.42,0,0,0,.81,2.58,1.38,1.38,0,0,0,.8-.25l83.72-57.9a1.42,1.42,0,0,0-.81-2.58Z" style="fill: #f1e297"/>
    </g>
    <g>
      <path d="M325,310.87a.93.93,0,0,1-.39-1.77L417.29,267a1,1,0,0,1,.38-.08.94.94,0,0,1,.84.54.92.92,0,0,1,0,.71.91.91,0,0,1-.48.52l-92.67,42.1A1,1,0,0,1,325,310.87Z" style="fill: #fff"/>
      <path d="M417.67,267.42a.43.43,0,0,1,.39.25.47.47,0,0,1,0,.33.39.39,0,0,1-.22.23l-92.68,42.1a.33.33,0,0,1-.17,0,.43.43,0,0,1-.39-.25.42.42,0,0,1,.21-.56l92.68-42.1a.33.33,0,0,1,.17,0m0-1a1.52,1.52,0,0,0-.59.12l-92.67,42.1a1.42,1.42,0,0,0,.59,2.71,1.47,1.47,0,0,0,.58-.12l92.68-42.1a1.42,1.42,0,0,0-.59-2.71Z" style="fill: #f1e297"/>
    </g>
    <g>
      <path d="M325,310.87a.92.92,0,0,1-.27-1.81l97.34-29.74a.84.84,0,0,1,.27,0,1,1,0,0,1,.89.65,1,1,0,0,1-.07.71,1,1,0,0,1-.55.45l-97.34,29.74A.84.84,0,0,1,325,310.87Z" style="fill: #fff"/>
      <path d="M422.34,279.78a.42.42,0,0,1,.41.3.43.43,0,0,1-.28.53l-97.35,29.74a.25.25,0,0,1-.12,0,.42.42,0,0,1-.13-.83l97.35-29.75h.12m0-1a1.18,1.18,0,0,0-.41.07l-97.35,29.74a1.42,1.42,0,0,0,.42,2.77,1.51,1.51,0,0,0,.41-.06l97.35-29.74a1.42,1.42,0,0,0-.42-2.78Z" style="fill: #f1e297"/>
    </g>
    <g>
      <path d="M325,310.82a.89.89,0,0,1-.45-.12.92.92,0,0,1-.34-1.26l50.63-88.3a.92.92,0,0,1,.8-.47.92.92,0,0,1,.8,1.38l-50.63,88.31A.94.94,0,0,1,325,310.82Z" style="fill: #fff"/>
      <path d="M375.59,221.17a.46.46,0,0,1,.21.05.44.44,0,0,1,.16.59l-50.63,88.3a.44.44,0,0,1-.38.22.42.42,0,0,1-.21-.06.42.42,0,0,1-.15-.58l50.63-88.31a.42.42,0,0,1,.37-.21m0-1a1.41,1.41,0,0,0-1.23.71l-50.63,88.3a1.42,1.42,0,0,0,.52,1.94,1.37,1.37,0,0,0,.7.19,1.43,1.43,0,0,0,1.24-.71l50.63-88.31a1.43,1.43,0,0,0-.52-1.94,1.53,1.53,0,0,0-.71-.18Z" style="fill: #f1e297"/>
    </g>
    <g>
      <path d="M325,310.87a.94.94,0,0,1-.92-.77.93.93,0,0,1,.16-.69,1,1,0,0,1,.6-.38l100.42-16.68.15,0a.94.94,0,0,1,.91.78.93.93,0,0,1-.76,1.06L325.15,310.86Z" style="fill: #fff"/>
      <path d="M425.41,292.83a.44.44,0,0,1,.42.36.43.43,0,0,1-.35.49L325.06,310.37H325a.44.44,0,0,1-.43-.35.45.45,0,0,1,.35-.5l100.42-16.68h.07m0-1-.23,0L324.76,308.55a1.41,1.41,0,0,0,.24,2.81h.23l100.41-16.69a1.42,1.42,0,0,0-.23-2.82Z" style="fill: #f1e297"/>
    </g>
    <g>
      <path d="M324.5,310.27a.62.62,0,0,1-.19,0,.91.91,0,0,1-.71-1.09l21.25-99.55a.93.93,0,0,1,.91-.73l.19,0a.91.91,0,0,1,.58.4.93.93,0,0,1,.13.69l-21.25,99.55A.93.93,0,0,1,324.5,310.27Z" style="fill: #fff"/>
      <path d="M345.76,209.37h.08a.43.43,0,0,1,.33.51l-21.25,99.55a.44.44,0,0,1-.42.34h-.09a.43.43,0,0,1-.32-.51l21.25-99.55a.43.43,0,0,1,.42-.34m0-1a1.42,1.42,0,0,0-1.39,1.13l-21.25,99.54a1.42,1.42,0,1,0,2.77.6l21.25-99.55a1.43,1.43,0,0,0-1.09-1.69l-.29,0Z" style="fill: #f1e297"/>
    </g>
    <g>
      <path d="M324.05,309.73h-.13a.93.93,0,0,1-.78-1.05L337.93,208a.93.93,0,0,1,.92-.79H339a.93.93,0,0,1,.78,1L325,308.94A.93.93,0,0,1,324.05,309.73Z" style="fill: #fff"/>
      <path d="M338.85,207.67h.06a.43.43,0,0,1,.28.17.44.44,0,0,1,.08.32L324.48,308.87a.44.44,0,0,1-.43.36H324a.44.44,0,0,1-.36-.49L338.42,208a.43.43,0,0,1,.43-.36m0-1a1.42,1.42,0,0,0-1.41,1.22L322.65,308.6a1.43,1.43,0,0,0,1.2,1.61h.2a1.42,1.42,0,0,0,1.41-1.21L340.25,208.3a1.43,1.43,0,0,0-1.2-1.61l-.2,0Z" style="fill: #f1e297"/>
    </g>
    <g>
      <path d="M324.5,310.27a.75.75,0,0,1-.26,0,.92.92,0,0,1-.62-1.15l29.45-97.43A.93.93,0,0,1,354,211a.75.75,0,0,1,.26,0,.92.92,0,0,1,.62,1.15l-29.45,97.44A.94.94,0,0,1,324.5,310.27Z" style="fill: #fff"/>
      <path d="M354,211.49h.12a.45.45,0,0,1,.25.21.42.42,0,0,1,0,.33l-29.45,97.43a.43.43,0,0,1-.41.31l-.12,0a.44.44,0,0,1-.29-.53l29.46-97.44a.42.42,0,0,1,.41-.3m0-1a1.42,1.42,0,0,0-1.36,1l-29.46,97.44a1.44,1.44,0,0,0,.95,1.77,1.51,1.51,0,0,0,.41.06,1.42,1.42,0,0,0,1.36-1l29.45-97.44a1.43,1.43,0,0,0-.94-1.77,1.51,1.51,0,0,0-.41-.06Z" style="fill: #f1e297"/>
    </g>
    <g>
      <path d="M324.5,310.27a.87.87,0,0,1-.42-.1.94.94,0,0,1-.4-1.24L370,218.28a.94.94,0,0,1,.83-.51.87.87,0,0,1,.41.11.91.91,0,0,1,.4,1.24l-46.29,90.65A.93.93,0,0,1,324.5,310.27Z" style="fill: #fff"/>
      <path d="M370.81,218.27a.45.45,0,0,1,.19,0,.42.42,0,0,1,.18.57l-46.3,90.65a.43.43,0,0,1-.38.23.41.41,0,0,1-.19,0,.44.44,0,0,1-.19-.58l46.3-90.65a.44.44,0,0,1,.39-.23m0-1a1.42,1.42,0,0,0-1.27.77l-46.3,90.65a1.41,1.41,0,0,0,.62,1.91,1.32,1.32,0,0,0,.64.16,1.43,1.43,0,0,0,1.27-.78l46.3-90.65a1.44,1.44,0,0,0-.62-1.91,1.5,1.5,0,0,0-.64-.15Z" style="fill: #f1e297"/>
    </g>
    <g>
      <path d="M324.5,310.27a.85.85,0,0,1-.61-.24.91.91,0,0,1-.07-1.3L392,233.14a.92.92,0,0,1,.68-.3.89.89,0,0,1,.62.24.92.92,0,0,1,.07,1.3L325.19,310A.92.92,0,0,1,324.5,310.27Z" style="fill: #fff"/>
      <path d="M392.68,233.34a.42.42,0,0,1,.29.11.44.44,0,0,1,0,.6l-68.18,75.58a.39.39,0,0,1-.32.14.46.46,0,0,1-.28-.1.44.44,0,0,1,0-.61l68.17-75.58a.44.44,0,0,1,.32-.14m0-1a1.4,1.4,0,0,0-1.05.46L323.45,308.4a1.42,1.42,0,0,0,.1,2,1.39,1.39,0,0,0,.95.37,1.43,1.43,0,0,0,1.06-.47l68.18-75.59a1.41,1.41,0,0,0-1.06-2.36Z" style="fill: #f1e297"/>
    </g>
    <g>
      <path d="M324.31,310a.91.91,0,0,1-.82-.5.93.93,0,0,1,.4-1.24l90.55-46.49a.88.88,0,0,1,.42-.11.92.92,0,0,1,.82.51.92.92,0,0,1-.4,1.24l-90.55,46.49A.87.87,0,0,1,324.31,310Z" style="fill: #fff"/>
      <path d="M414.86,262.19a.42.42,0,0,1,.38.23.44.44,0,0,1-.18.58l-90.55,46.49a.46.46,0,0,1-.2.05.43.43,0,0,1-.2-.81l90.56-46.49a.41.41,0,0,1,.19-.05m0-1a1.51,1.51,0,0,0-.65.15l-90.55,46.5a1.42,1.42,0,0,0,.65,2.68,1.39,1.39,0,0,0,.65-.16l90.55-46.49a1.42,1.42,0,0,0-.65-2.68Z" style="fill: #f1e297"/>
    </g>
    <g>
      <path d="M306.88,325.1a.93.93,0,0,1-.83-.5l-46.86-90.36a.92.92,0,0,1,.39-1.24.91.91,0,0,1,.42-.11.93.93,0,0,1,.83.5l46.86,90.36a.93.93,0,0,1-.39,1.25A.9.9,0,0,1,306.88,325.1Z" style="fill: #fff"/>
      <path d="M260,233.39a.44.44,0,0,1,.39.23L307.25,324a.44.44,0,0,1,0,.33.46.46,0,0,1-.21.25.43.43,0,0,1-.19,0,.44.44,0,0,1-.39-.23L259.63,234a.42.42,0,0,1,.18-.57.45.45,0,0,1,.19-.05m0-1a1.39,1.39,0,0,0-.65.16,1.42,1.42,0,0,0-.6,1.91l46.86,90.36a1.42,1.42,0,0,0,1.27.77,1.52,1.52,0,0,0,.65-.16,1.43,1.43,0,0,0,.6-1.92l-46.86-90.36a1.43,1.43,0,0,0-1.27-.76Z" style="fill: #f1e297"/>
    </g>
    <g>
      <path d="M306.88,325.1a.92.92,0,0,1-.86-.57l-39.19-93.94a.88.88,0,0,1,0-.71.92.92,0,0,1,.49-.5,1.1,1.1,0,0,1,.36-.07.91.91,0,0,1,.85.57l39.19,93.94a.92.92,0,0,1-.49,1.21A.87.87,0,0,1,306.88,325.1Z" style="fill: #fff"/>
      <path d="M267.68,229.81a.42.42,0,0,1,.39.26L307.27,324a.52.52,0,0,1,0,.33.45.45,0,0,1-.23.23l-.16,0a.43.43,0,0,1-.4-.26L267.29,230.4a.43.43,0,0,1,.22-.56.51.51,0,0,1,.17,0m0-1a1.49,1.49,0,0,0-.55.1,1.43,1.43,0,0,0-.76,1.86l39.19,93.94a1.43,1.43,0,0,0,1.32.88,1.49,1.49,0,0,0,.54-.11,1.43,1.43,0,0,0,.76-1.86L269,229.69a1.42,1.42,0,0,0-1.31-.87Z" style="fill: #f1e297"/>
    </g>
    <g>
      <path d="M306.87,325.1a.92.92,0,0,1-.9-.72L284.1,225a.89.89,0,0,1,.12-.69,1,1,0,0,1,.58-.41l.2,0a.93.93,0,0,1,.9.73L307.77,324a.92.92,0,0,1-.7,1.1Z" style="fill: #fff"/>
      <path d="M285,224.34a.44.44,0,0,1,.42.33l21.87,99.42a.43.43,0,0,1-.33.5h-.09a.44.44,0,0,1-.42-.33l-21.87-99.41a.41.41,0,0,1,.06-.32.42.42,0,0,1,.27-.19H285m0-1-.31,0a1.42,1.42,0,0,0-1.08,1.69l21.88,99.41a1.42,1.42,0,0,0,1.38,1.12,1.15,1.15,0,0,0,.31,0,1.42,1.42,0,0,0,1.08-1.69l-21.88-99.41a1.41,1.41,0,0,0-1.38-1.11Z" style="fill: #f1e297"/>
    </g>
    <g>
      <path d="M306.87,325.1a.93.93,0,0,1-.92-.84l-8.81-101.41a.92.92,0,0,1,.84-1h0a.94.94,0,0,1,1,.84l8.81,101.41a.92.92,0,0,1-.84,1Z" style="fill: #fff"/>
      <path d="M298.06,222.34a.42.42,0,0,1,.42.39l8.82,101.41a.45.45,0,0,1-.1.31.5.5,0,0,1-.33.16.43.43,0,0,1-.42-.4l-8.82-101.4a.45.45,0,0,1,.1-.31.44.44,0,0,1,.29-.16h0m0-1h-.12a1.42,1.42,0,0,0-1.3,1.53l8.82,101.41a1.42,1.42,0,0,0,1.41,1.3H307a1.43,1.43,0,0,0,1.3-1.53l-8.82-101.41a1.42,1.42,0,0,0-1.41-1.3Z" style="fill: #f1e297"/>
    </g>
    <g>
      <path d="M306.83,325.1a.92.92,0,0,1-.88-1l4.59-101.69a.93.93,0,0,1,1.85.08l-4.6,101.69a.92.92,0,0,1-.92.88Z" style="fill: #fff"/>
      <path d="M311.47,221.07v1a.44.44,0,0,1,.3.13.45.45,0,0,1,.11.31L307.3,324.2a.44.44,0,0,1-.45.41h0a.46.46,0,0,1-.29-.14.45.45,0,0,1-.12-.31L311,222.47a.44.44,0,0,1,.43-.41v-1m0,0a1.42,1.42,0,0,0-1.42,1.36l-4.6,101.68a1.44,1.44,0,0,0,1.36,1.49h.06a1.43,1.43,0,0,0,1.42-1.36l4.59-101.68a1.43,1.43,0,0,0-1.35-1.49Z" style="fill: #f1e297"/>
    </g>
    <g>
      <path d="M305.92,325.6a.93.93,0,0,1-.9-.68l-26.61-98.25a.94.94,0,0,1,.65-1.14,1,1,0,0,1,.24,0,.93.93,0,0,1,.89.68l26.61,98.25a.86.86,0,0,1-.09.7.92.92,0,0,1-.56.44A.85.85,0,0,1,305.92,325.6Z" style="fill: #fff"/>
      <path d="M279.3,226a.43.43,0,0,1,.41.31l26.62,98.25a.44.44,0,0,1-.31.53h-.1a.44.44,0,0,1-.42-.31l-26.61-98.25a.46.46,0,0,1,0-.33.44.44,0,0,1,.26-.2h.11m0-1a1.55,1.55,0,0,0-.37,0,1.43,1.43,0,0,0-1,1.75l26.61,98.25a1.42,1.42,0,0,0,1.38,1,1.12,1.12,0,0,0,.36,0,1.41,1.41,0,0,0,1-1.74l-26.61-98.25a1.42,1.42,0,0,0-1.37-1Z" style="fill: #f1e297"/>
    </g>
    <g>
      <path d="M125.55,416.34l-.24,0a.92.92,0,0,1-.65-1.13l26.05-98.4a.93.93,0,0,1,.9-.68.85.85,0,0,1,.23,0,.87.87,0,0,1,.56.43.9.9,0,0,1,.1.7l-26.06,98.4A.91.91,0,0,1,125.55,416.34Z" style="fill: #fff"/>
      <path d="M151.61,316.59l.11,0a.41.41,0,0,1,.25.2.37.37,0,0,1,.05.32L126,415.53a.43.43,0,0,1-.41.32l-.11,0a.44.44,0,0,1-.26-.2.42.42,0,0,1,0-.32l26.05-98.4a.44.44,0,0,1,.42-.32m0-1a1.43,1.43,0,0,0-1.38,1.06l-26,98.4a1.42,1.42,0,0,0,1,1.73,1.49,1.49,0,0,0,.36,0,1.41,1.41,0,0,0,1.37-1.06L153,317.38a1.42,1.42,0,0,0-1-1.73,1.49,1.49,0,0,0-.36,0Z" style="fill: #f1e297"/>
    </g>
    <g>
      <path d="M124.68,416.11h-.18a.93.93,0,0,1-.59-.4,1,1,0,0,1-.14-.69l19.66-99.87a.94.94,0,0,1,.91-.75l.18,0a.94.94,0,0,1,.58.39.9.9,0,0,1,.14.69l-19.66,99.88A.91.91,0,0,1,124.68,416.11Z" style="fill: #fff"/>
      <path d="M144.34,314.89h.08a.41.41,0,0,1,.27.18.4.4,0,0,1,.07.32L125.1,415.27a.44.44,0,0,1-.42.35h-.08a.48.48,0,0,1-.28-.18.47.47,0,0,1-.06-.32l19.66-99.88a.44.44,0,0,1,.42-.34m0-1a1.43,1.43,0,0,0-1.4,1.14l-19.65,99.87a1.42,1.42,0,0,0,1.11,1.67l.28,0a1.42,1.42,0,0,0,1.39-1.15l19.66-99.87a1.42,1.42,0,0,0-1.12-1.67,1.23,1.23,0,0,0-.27,0Z" style="fill: #f1e297"/>
    </g>
    <g>
      <path d="M125.49,416.33a.92.92,0,0,1-.92-.92l-.8-101.79a.92.92,0,1,1,1.84,0l.81,101.79a1,1,0,0,1-.27.65.9.9,0,0,1-.65.28Z" style="fill: #fff"/>
      <path d="M124.69,312.2v1a.43.43,0,0,1,.43.42l.8,101.79a.43.43,0,0,1-.43.43.44.44,0,0,1-.43-.42l-.8-101.79a.44.44,0,0,1,.43-.43v-1m0,0h0a1.43,1.43,0,0,0-1.41,1.43l.8,101.79a1.43,1.43,0,0,0,1.42,1.4h0a1.42,1.42,0,0,0,1.41-1.43l-.8-101.78a1.42,1.42,0,0,0-1.42-1.41Z" style="fill: #f1e297"/>
    </g>
    <g>
      <path d="M125.55,416.34a.81.81,0,0,1-.31,0,.93.93,0,0,1-.56-1.18l34.15-95.89a.93.93,0,0,1,.87-.62.8.8,0,0,1,.3.06.92.92,0,0,1,.56,1.18l-34.14,95.89A.92.92,0,0,1,125.55,416.34Z" style="fill: #fff"/>
      <path d="M159.7,319.1l.14,0a.47.47,0,0,1,.24.22.43.43,0,0,1,0,.33L126,415.56a.43.43,0,0,1-.4.29.32.32,0,0,1-.14,0,.4.4,0,0,1-.24-.22.41.41,0,0,1,0-.32l34.14-95.9a.44.44,0,0,1,.41-.28m0-1a1.41,1.41,0,0,0-1.34.94l-34.15,95.89a1.43,1.43,0,0,0,.86,1.82,1.61,1.61,0,0,0,.48.08,1.43,1.43,0,0,0,1.34-.94L161,320a1.42,1.42,0,0,0-.86-1.81,1.33,1.33,0,0,0-.47-.08Z" style="fill: #f1e297"/>
    </g>
    <g>
      <path d="M125.55,416.34a.92.92,0,0,1-.8-1.38l50.64-88.3a.93.93,0,0,1,.81-.46.91.91,0,0,1,.88.68.86.86,0,0,1-.09.7l-50.64,88.3A.91.91,0,0,1,125.55,416.34Z" style="fill: #fff"/>
      <path d="M176.2,326.7a.41.41,0,0,1,.21.05.42.42,0,0,1,.15.58l-50.64,88.3a.43.43,0,0,1-.37.22.37.37,0,0,1-.21-.06.42.42,0,0,1-.2-.26.39.39,0,0,1,0-.32l50.64-88.3a.42.42,0,0,1,.38-.21m0-1a1.42,1.42,0,0,0-1.24.72l-50.64,88.29a1.42,1.42,0,0,0,2.46,1.42l50.64-88.3a1.42,1.42,0,0,0-.52-1.94,1.37,1.37,0,0,0-.7-.19Z" style="fill: #f1e297"/>
    </g>
    <g>
      <path d="M125.55,416.34a.91.91,0,0,1-.56-.18.93.93,0,0,1-.17-1.3l61.65-81a.88.88,0,0,1,.73-.37.93.93,0,0,1,.74,1.48l-61.65,81A.93.93,0,0,1,125.55,416.34Z" style="fill: #fff"/>
      <path d="M187.2,334a.41.41,0,0,1,.26.08.45.45,0,0,1,.16.29.42.42,0,0,1-.08.31l-61.65,81a.42.42,0,0,1-.34.17.43.43,0,0,1-.34-.69l61.65-81a.42.42,0,0,1,.34-.17m0-1a1.44,1.44,0,0,0-1.13.55l-61.65,81a1.43,1.43,0,0,0,.27,2,1.46,1.46,0,0,0,.86.29,1.41,1.41,0,0,0,1.13-.56l61.65-81A1.41,1.41,0,0,0,187.2,333Z" style="fill: #f1e297"/>
    </g>
    <g>
      <path d="M125.49,416.33a1,1,0,0,1-.92-.83L114.1,314.25a.92.92,0,0,1,.83-1h0a1,1,0,0,1,1,.82l10.47,101.25a.92.92,0,0,1-.82,1Z" style="fill: #fff"/>
      <path d="M115,313.73a.44.44,0,0,1,.43.38l10.47,101.25a.44.44,0,0,1-.43.47.43.43,0,0,1-.42-.38L114.6,314.2a.43.43,0,0,1,.38-.47h0m0-1h-.14a1.42,1.42,0,0,0-1.27,1.56l10.47,101.25a1.43,1.43,0,0,0,1.41,1.27h.15a1.42,1.42,0,0,0,1.26-1.56L116.43,314a1.42,1.42,0,0,0-1.41-1.28Z" style="fill: #f1e297"/>
    </g>
    <g>
      <path d="M125.55,416.34a.91.91,0,0,1-.65-.26.94.94,0,0,1,0-1.31l71.77-72.19a.93.93,0,0,1,.65-.27.91.91,0,0,1,.65.27.92.92,0,0,1,.28.65.91.91,0,0,1-.27.65l-71.76,72.19A.91.91,0,0,1,125.55,416.34Z" style="fill: #fff"/>
      <path d="M197.31,342.81a.39.39,0,0,1,.3.12.43.43,0,0,1,0,.6l-71.77,72.19a.41.41,0,0,1-.3.13.42.42,0,0,1-.3-.13.42.42,0,0,1,0-.6L197,342.93a.42.42,0,0,1,.3-.12m0-1a1.39,1.39,0,0,0-1,.42l-71.77,72.19a1.42,1.42,0,0,0,2,2l71.76-72.19a1.41,1.41,0,0,0,0-2,1.38,1.38,0,0,0-1-.42Z" style="fill: #f1e297"/>
    </g>
    <g>
      <path d="M124.81,416.15a.92.92,0,0,1-.85-.56L83.07,322.38a.94.94,0,0,1,.47-1.22,1,1,0,0,1,.37-.08.94.94,0,0,1,.85.55l40.89,93.22a.93.93,0,0,1-.48,1.22A.9.9,0,0,1,124.81,416.15Z" style="fill: #fff"/>
      <path d="M83.91,321.58a.45.45,0,0,1,.4.25l40.88,93.22a.47.47,0,0,1,0,.33.45.45,0,0,1-.23.23.32.32,0,0,1-.16,0,.43.43,0,0,1-.4-.25L83.52,322.18a.41.41,0,0,1,0-.33.43.43,0,0,1,.22-.24.51.51,0,0,1,.17,0m0-1a1.38,1.38,0,0,0-.56.12,1.41,1.41,0,0,0-.73,1.87l40.88,93.21a1.44,1.44,0,0,0,1.31.85,1.38,1.38,0,0,0,.56-.12,1.41,1.41,0,0,0,.73-1.87L85.22,321.44a1.42,1.42,0,0,0-1.31-.85Z" style="fill: #f1e297"/>
    </g>
    <g>
      <path d="M124.12,416a.92.92,0,0,1-.82-.49L76.49,325.08a.93.93,0,0,1,.4-1.25,1,1,0,0,1,.41-.1.93.93,0,0,1,.83.5l46.81,90.39a1,1,0,0,1,.06.7.91.91,0,0,1-.46.54A.87.87,0,0,1,124.12,416Z" style="fill: #fff"/>
      <path d="M77.31,324.23a.43.43,0,0,1,.38.23l46.81,90.39a.43.43,0,0,1-.18.57.46.46,0,0,1-.2.05.43.43,0,0,1-.38-.23L76.93,324.85a.42.42,0,0,1,0-.32.44.44,0,0,1,.21-.26.45.45,0,0,1,.2,0m0-1a1.47,1.47,0,0,0-.65.15,1.42,1.42,0,0,0-.61,1.92l46.81,90.39a1.43,1.43,0,0,0,1.26.76,1.36,1.36,0,0,0,.65-.16,1.42,1.42,0,0,0,.61-1.91L78.57,324a1.43,1.43,0,0,0-1.26-.76Z" style="fill: #f1e297"/>
    </g>
    <g>
      <path d="M124.81,416.15a.92.92,0,0,1-.88-.63l-33-96.29a.93.93,0,0,1,0-.71.91.91,0,0,1,.52-.46.79.79,0,0,1,.3-.05.93.93,0,0,1,.88.62l33,96.29a.94.94,0,0,1-.58,1.18A.93.93,0,0,1,124.81,416.15Z" style="fill: #fff"/>
      <path d="M91.8,318.5a.44.44,0,0,1,.41.29l33,96.29a.45.45,0,0,1-.27.55l-.13,0a.43.43,0,0,1-.41-.29l-33-96.29a.43.43,0,0,1,.27-.54.31.31,0,0,1,.13,0m0-1a1.54,1.54,0,0,0-.46.08,1.43,1.43,0,0,0-.88,1.8l33,96.29a1.43,1.43,0,0,0,1.35,1,1.41,1.41,0,0,0,.45-.07h0a1.44,1.44,0,0,0,.89-1.81l-33-96.29a1.43,1.43,0,0,0-1.35-1Z" style="fill: #f1e297"/>
    </g>
    <g>
      <path d="M124.8,416.15a.93.93,0,0,1-.91-.79L108.53,314.74a.89.89,0,0,1,.17-.69.94.94,0,0,1,.6-.37h.14a.94.94,0,0,1,.92.79l15.36,100.62a.93.93,0,0,1-.78,1.06Z" style="fill: #fff"/>
      <path d="M109.44,314.17a.45.45,0,0,1,.43.36l15.36,100.63a.43.43,0,0,1-.36.48h-.07a.43.43,0,0,1-.42-.36L109,314.66a.43.43,0,0,1,.36-.48h.06m0-1h-.21a1.43,1.43,0,0,0-1.19,1.62L123.4,415.44a1.42,1.42,0,0,0,1.4,1.2H125a1.44,1.44,0,0,0,1.19-1.62L110.85,314.38a1.43,1.43,0,0,0-1.41-1.2Z" style="fill: #f1e297"/>
    </g>
    <g>
      <path d="M124.7,416.14a.94.94,0,0,1-.82-1L135.08,314a.94.94,0,0,1,.92-.82h.1a.93.93,0,0,1,.82,1l-11.2,101.17a.94.94,0,0,1-.92.83Z" style="fill: #fff"/>
      <path d="M136,312.63l.05,1a.45.45,0,0,1,.38.48l-11.2,101.17a.45.45,0,0,1-.47.38h0a.44.44,0,0,1-.38-.48L135.58,314a.43.43,0,0,1,.42-.38v-1m0,0a1.43,1.43,0,0,0-1.41,1.26l-11.2,101.18a1.42,1.42,0,0,0,1.26,1.56h.15a1.43,1.43,0,0,0,1.41-1.26l11.2-101.17a1.42,1.42,0,0,0-1.25-1.57Z" style="fill: #f1e297"/>
    </g>
    <g>
      <path d="M124.5,416.07a1,1,0,0,1-.41-.1.93.93,0,0,1-.41-1.25L170,324.1a.9.9,0,0,1,.82-.5.87.87,0,0,1,.42.1.93.93,0,0,1,.4,1.24l-46.35,90.62A.94.94,0,0,1,124.5,416.07Z" style="fill: #fff"/>
      <path d="M170.86,324.09a.41.41,0,0,1,.19.05.43.43,0,0,1,.19.57l-46.35,90.63a.44.44,0,0,1-.39.23.45.45,0,0,1-.19-.05.42.42,0,0,1-.18-.57l46.35-90.63a.43.43,0,0,1,.38-.23m0-1a1.42,1.42,0,0,0-1.27.77L123.24,414.5a1.44,1.44,0,0,0,.62,1.91,1.5,1.5,0,0,0,.64.15,1.42,1.42,0,0,0,1.27-.77l46.35-90.63a1.41,1.41,0,0,0-1.26-2.06Z" style="fill: #f1e297"/>
    </g>
    <g>
      <path d="M125.23,436.71a.92.92,0,0,1-.56-1.66l81-61.59a.91.91,0,0,1,.56-.18.9.9,0,0,1,.73.36.88.88,0,0,1,.18.68.89.89,0,0,1-.35.61l-81.05,61.59A.92.92,0,0,1,125.23,436.71Z" style="fill: #fff"/>
      <path d="M206.27,373.77a.42.42,0,0,1,.34.17.44.44,0,0,1-.08.6l-81,61.59a.4.4,0,0,1-.25.08.46.46,0,0,1-.35-.16.44.44,0,0,1-.08-.32.43.43,0,0,1,.17-.28l81-61.59a.43.43,0,0,1,.26-.09m0-1a1.39,1.39,0,0,0-.86.29l-81,61.59a1.42,1.42,0,0,0-.28,2,1.44,1.44,0,0,0,1.14.55,1.4,1.4,0,0,0,.85-.28l81.05-61.59a1.43,1.43,0,0,0,.27-2,1.41,1.41,0,0,0-1.13-.56Z" style="fill: #f1e297"/>
    </g>
    <g>
      <path d="M125.23,436.71a1,1,0,0,1-.81-.46.92.92,0,0,1,.35-1.26l88.33-50.58a.93.93,0,0,1,1.26.34A.92.92,0,0,1,214,386l-88.34,50.58A.89.89,0,0,1,125.23,436.71Z" style="fill: #fff"/>
      <path d="M213.56,384.79a.42.42,0,0,1,.37.21.41.41,0,0,1,0,.33.37.37,0,0,1-.19.25l-88.34,50.58a.54.54,0,0,1-.21,0,.42.42,0,0,1-.22-.79l88.34-50.58a.46.46,0,0,1,.21,0m0-1a1.46,1.46,0,0,0-.7.18l-88.34,50.57a1.42,1.42,0,0,0,.71,2.65,1.46,1.46,0,0,0,.7-.18l88.34-50.57a1.42,1.42,0,0,0,.52-1.94,1.41,1.41,0,0,0-1.23-.71Z" style="fill: #f1e297"/>
    </g>
    <g>
      <path d="M125.23,436.71a.93.93,0,0,1-.36-1.78l94.22-38.52a1.09,1.09,0,0,1,.35-.07.92.92,0,0,1,.35,1.78l-94.22,38.52A.8.8,0,0,1,125.23,436.71Z" style="fill: #fff"/>
      <path d="M219.44,396.84a.45.45,0,0,1,.4.26.43.43,0,0,1-.23.56l-94.22,38.52-.16,0a.43.43,0,0,1-.4-.26.43.43,0,0,1,.23-.56l94.22-38.52a.45.45,0,0,1,.16,0m0-1a1.39,1.39,0,0,0-.53.1l-94.22,38.52a1.42,1.42,0,0,0,.54,2.74,1.4,1.4,0,0,0,.53-.11L220,398.58a1.42,1.42,0,0,0-.54-2.73Z" style="fill: #f1e297"/>
    </g>
    <g>
      <path d="M124.37,436.05a.9.9,0,0,1-.7-.33.92.92,0,0,1,.11-1.3l78-65.41a.93.93,0,0,1,1.3.12.93.93,0,0,1-.12,1.3l-78,65.4A.9.9,0,0,1,124.37,436.05Z" style="fill: #fff"/>
      <path d="M202.37,369.3a.41.41,0,0,1,.33.15.38.38,0,0,1,.09.31.39.39,0,0,1-.15.29l-78,65.4a.46.46,0,0,1-.28.1.41.41,0,0,1-.33-.15.44.44,0,0,1-.09-.31.39.39,0,0,1,.15-.29l78-65.4a.37.37,0,0,1,.27-.1m0-1a1.36,1.36,0,0,0-.91.33l-78,65.4a1.41,1.41,0,0,0,.91,2.5,1.4,1.4,0,0,0,.91-.33l78-65.4a1.42,1.42,0,0,0,.18-2,1.4,1.4,0,0,0-1.09-.5Z" style="fill: #f1e297"/>
    </g>
    <g>
      <path d="M456,292.17a.94.94,0,0,1-.86-.58,1,1,0,0,1,0-.71.94.94,0,0,1,.51-.49L550,252.1a.83.83,0,0,1,.34-.07.92.92,0,0,1,.86.58.91.91,0,0,1-.5,1.2L456.37,292.1A1,1,0,0,1,456,292.17Z" style="fill: #fff"/>
      <path d="M550.33,252.53a.43.43,0,0,1,.4.26.41.41,0,0,1,0,.33.45.45,0,0,1-.23.23l-94.32,38.29a.4.4,0,0,1-.15,0,.43.43,0,0,1-.17-.82l94.32-38.29a.4.4,0,0,1,.15,0m0-1a1.46,1.46,0,0,0-.53.1l-94.31,38.29a1.42,1.42,0,0,0,.54,2.73,1.46,1.46,0,0,0,.53-.1l94.31-38.29a1.42,1.42,0,0,0-.54-2.73Z" style="fill: #f1e297"/>
    </g>
    <g>
      <path d="M456,292.17a.93.93,0,0,1-.24-1.82l98.48-25.75a.85.85,0,0,1,.23,0,.93.93,0,0,1,.24,1.82l-98.48,25.75Z" style="fill: #fff"/>
      <path d="M554.5,265.06a.44.44,0,0,1,.42.32.51.51,0,0,1,0,.33.44.44,0,0,1-.26.2l-98.48,25.75H456a.43.43,0,0,1-.42-.32.38.38,0,0,1,.05-.32.41.41,0,0,1,.26-.2l98.47-25.75.11,0m0-1a1.49,1.49,0,0,0-.36.05l-98.48,25.75a1.42,1.42,0,0,0,.37,2.79,1.45,1.45,0,0,0,.35,0l98.48-25.76a1.42,1.42,0,0,0,1-1.73,1.44,1.44,0,0,0-1.38-1.06Z" style="fill: #f1e297"/>
    </g>
    <g>
      <path d="M456,292.17a.92.92,0,0,1-.91-.81.91.91,0,0,1,.18-.68.94.94,0,0,1,.62-.35l101-12.58H557a.92.92,0,0,1,.12,1.84l-101,12.58Z" style="fill: #fff"/>
      <path d="M557,278.23a.45.45,0,0,1,.43.38.43.43,0,0,1-.37.48l-101,12.58H456a.42.42,0,0,1-.33-.69.43.43,0,0,1,.28-.16l101-12.58h0m0-1h-.17l-101,12.58a1.42,1.42,0,0,0,.17,2.83h.18l101-12.58a1.42,1.42,0,0,0,1.23-1.58h0a1.42,1.42,0,0,0-1.41-1.25Z" style="fill: #f1e297"/>
    </g>
    <g>
      <path d="M455.38,291.3a.93.93,0,0,1-.84-.53.88.88,0,0,1,0-.71.91.91,0,0,1,.48-.52l92.37-42.76a.85.85,0,0,1,.38-.09.92.92,0,0,1,.39,1.76l-92.37,42.77A.84.84,0,0,1,455.38,291.3Z" style="fill: #fff"/>
      <path d="M547.74,247.19a.43.43,0,0,1,.39.25.4.4,0,0,1,0,.32.4.4,0,0,1-.22.24l-92.37,42.77a.33.33,0,0,1-.17,0,.42.42,0,0,1-.39-.25.43.43,0,0,1,.2-.57l92.37-42.76a.39.39,0,0,1,.18,0m0-1a1.37,1.37,0,0,0-.59.13l-92.37,42.76a1.42,1.42,0,0,0,.6,2.71,1.37,1.37,0,0,0,.59-.13l92.37-42.77a1.42,1.42,0,0,0-.6-2.7Z" style="fill: #f1e297"/>
    </g>
    <g>
      <path d="M392.27,387.89a.92.92,0,0,1-.89-.69.86.86,0,0,1,.09-.7.9.9,0,0,1,.56-.43l98.35-26.22a1,1,0,0,1,.24,0,.91.91,0,0,1,.89.68.92.92,0,0,1-.65,1.13L392.5,387.85A.59.59,0,0,1,392.27,387.89Z" style="fill: #fff"/>
      <path d="M490.62,360.31a.43.43,0,0,1,.11.84l-98.35,26.23h-.11a.44.44,0,0,1-.42-.32.39.39,0,0,1,0-.32.41.41,0,0,1,.26-.2l98.35-26.22.11,0m0-1a1.12,1.12,0,0,0-.36.05L391.9,385.59a1.42,1.42,0,0,0,.37,2.79,1.12,1.12,0,0,0,.36-.05L491,362.11a1.42,1.42,0,0,0-.37-2.79Z" style="fill: #f1e297"/>
    </g>
    <g>
      <path d="M392,387a.92.92,0,0,1-.88-.63.9.9,0,0,1,0-.7.94.94,0,0,1,.53-.47l96.46-32.5a.71.71,0,0,1,.29,0,.92.92,0,0,1,.3,1.8L392.33,387A.74.74,0,0,1,392,387Z" style="fill: #fff"/>
      <path d="M488.49,353.15a.44.44,0,0,1,.41.29.45.45,0,0,1-.27.55l-96.46,32.5a.31.31,0,0,1-.13,0,.43.43,0,0,1-.41-.29.43.43,0,0,1,.27-.55l96.46-32.5a.31.31,0,0,1,.13,0m0-1a1.42,1.42,0,0,0-.45.08l-96.46,32.5a1.42,1.42,0,1,0,.91,2.69L489,354.93a1.42,1.42,0,0,0-.46-2.77Z" style="fill: #f1e297"/>
    </g>
    <g>
      <path d="M392.25,387.83a.92.92,0,0,1-.89-1.16.87.87,0,0,1,.43-.56l88-51.22a.84.84,0,0,1,.46-.13.93.93,0,0,1,.8.46.92.92,0,0,1-.33,1.26l-88,51.22A.88.88,0,0,1,392.25,387.83Z" style="fill: #fff"/>
      <path d="M480.21,335.26a.44.44,0,0,1,.38.21.49.49,0,0,1,0,.32.42.42,0,0,1-.2.26l-88,51.22a.43.43,0,0,1-.22.06.44.44,0,0,1-.37-.21.45.45,0,0,1,.16-.59l88-51.22a.54.54,0,0,1,.21-.05m0-1a1.4,1.4,0,0,0-.71.19l-88,51.22a1.42,1.42,0,0,0-.52,1.94,1.44,1.44,0,0,0,1.23.7,1.38,1.38,0,0,0,.71-.19l88-51.22a1.42,1.42,0,0,0-.72-2.64Z" style="fill: #f1e297"/>
    </g>
    <g>
      <path d="M392.27,387.89a.94.94,0,0,1-.91-.77.87.87,0,0,1,.15-.68.92.92,0,0,1,.59-.39l100.2-18h.16a.92.92,0,0,1,.91.76.94.94,0,0,1-.15.69.93.93,0,0,1-.6.38l-100.19,18Z" style="fill: #fff"/>
      <path d="M492.46,368.58a.44.44,0,0,1,.42.35.43.43,0,0,1-.34.49l-100.2,18h-.07a.42.42,0,0,1-.42-.35.43.43,0,0,1,.34-.5l100.19-18h.08m0-1a1.07,1.07,0,0,0-.25,0L392,385.56a1.42,1.42,0,0,0,.25,2.82l.25,0,100.19-18a1.43,1.43,0,0,0,1.15-1.65,1.44,1.44,0,0,0-1.4-1.17Z" style="fill: #f1e297"/>
    </g>
    <g>
      <path d="M392.27,387.89a.94.94,0,0,1-.93-.93.93.93,0,0,1,.93-.92l101.79.13a.93.93,0,0,1,0,1.85h0Z" style="fill: #fff"/>
      <path d="M392.27,386.53l101.79.14a.42.42,0,0,1,.3.13.38.38,0,0,1,.12.3.42.42,0,0,1-.42.42l-101.79-.13a.38.38,0,0,1-.3-.13.4.4,0,0,1-.13-.3.44.44,0,0,1,.43-.43h0m0-1a1.42,1.42,0,0,0,0,2.84l101.79.14h0a1.43,1.43,0,0,0,1.42-1.42h0a1.43,1.43,0,0,0-1.42-1.42l-101.79-.14Z" style="fill: #f1e297"/>
    </g>
    <g>
      <path d="M493.18,401.2h-.12L392.14,387.88a.92.92,0,0,1,.13-1.84h.12L493.3,399.36a.88.88,0,0,1,.61.36.91.91,0,0,1-.73,1.48Z" style="fill: #fff"/>
      <path d="M392.27,386.53h.05l100.92,13.31a.43.43,0,0,1,.37.48.45.45,0,0,1-.43.38h-.05L392.21,387.39a.43.43,0,0,1-.28-.17.41.41,0,0,1-.09-.31.45.45,0,0,1,.43-.38m0-1a1.42,1.42,0,0,0-.19,2.83L493,401.69h.18a1.42,1.42,0,0,0,.19-2.83L392.45,385.55Z" style="fill: #f1e297"/>
    </g>
    <g>
      <path d="M392.25,387.83a.93.93,0,0,1-.54-1.68l82.7-59.34a.88.88,0,0,1,.54-.18.93.93,0,0,1,.91,1.08.94.94,0,0,1-.37.6l-82.7,59.34A.88.88,0,0,1,392.25,387.83Z" style="fill: #fff"/>
      <path d="M475,327.13a.44.44,0,0,1,.35.18.43.43,0,0,1-.1.59l-82.7,59.35a.39.39,0,0,1-.25.08.44.44,0,0,1-.35-.18.43.43,0,0,1,.1-.59l82.7-59.35a.39.39,0,0,1,.25-.08m0-1a1.41,1.41,0,0,0-.83.26l-82.7,59.35a1.42,1.42,0,0,0-.32,2,1.39,1.39,0,0,0,1.15.59,1.41,1.41,0,0,0,.83-.26l82.7-59.35a1.42,1.42,0,0,0,.32-2,1.39,1.39,0,0,0-1.15-.59Z" style="fill: #f1e297"/>
    </g>
    <g>
      <path d="M490.55,414.35l-.24,0L392,387.85a.92.92,0,0,1-.66-1.13.93.93,0,0,1,.9-.68l.24,0,98.28,26.47a.92.92,0,0,1,.66,1.13A.93.93,0,0,1,490.55,414.35Z" style="fill: #fff"/>
      <path d="M392.27,386.53l.11,0L490.67,413a.43.43,0,0,1,.3.52.44.44,0,0,1-.42.32l-.11,0-98.29-26.47a.43.43,0,0,1-.3-.52.44.44,0,0,1,.42-.32m0-1a1.42,1.42,0,0,0-.37,2.79l98.29,26.47a1.49,1.49,0,0,0,.36.05,1.42,1.42,0,0,0,.37-2.79l-98.29-26.47a1.49,1.49,0,0,0-.36,0Z" style="fill: #f1e297"/>
    </g>
    <g>
      <path d="M392.06,387.14a.94.94,0,0,1-.54-.18,1,1,0,0,1-.37-.61,1,1,0,0,1,.17-.68L452,303.9a.93.93,0,0,1,.75-.37.88.88,0,0,1,.54.18.91.91,0,0,1,.37.6,1,1,0,0,1-.17.69l-60.63,81.76A.93.93,0,0,1,392.06,387.14Z" style="fill: #fff"/>
      <path d="M452.7,304a.43.43,0,0,1,.34.68l-60.63,81.77a.43.43,0,0,1-.35.17.4.4,0,0,1-.25-.08.44.44,0,0,1-.09-.6l60.63-81.76a.44.44,0,0,1,.35-.18m0-1a1.44,1.44,0,0,0-1.15.57l-60.62,81.77a1.41,1.41,0,0,0,.29,2,1.39,1.39,0,0,0,.84.28,1.44,1.44,0,0,0,1.15-.57l60.62-81.76a1.42,1.42,0,0,0-.29-2,1.39,1.39,0,0,0-.84-.28Z" style="fill: #f1e297"/>
    </g>
    <g>
      <path d="M391.88,386.45a1,1,0,0,1-.5-.14.93.93,0,0,1-.27-1.28l55.23-85.5a.93.93,0,0,1,.78-.42,1,1,0,0,1,.5.14,1,1,0,0,1,.4.59.93.93,0,0,1-.13.69L392.66,386A.9.9,0,0,1,391.88,386.45Z" style="fill: #fff"/>
      <path d="M447.12,299.6a.48.48,0,0,1,.23.07.43.43,0,0,1,.12.59l-55.23,85.5a.41.41,0,0,1-.36.2.39.39,0,0,1-.23-.07.38.38,0,0,1-.18-.27.4.4,0,0,1,0-.32l55.24-85.5a.43.43,0,0,1,.36-.2m0-1a1.42,1.42,0,0,0-1.2.65l-55.23,85.5a1.43,1.43,0,0,0,.42,2,1.38,1.38,0,0,0,.77.23,1.42,1.42,0,0,0,1.2-.65l55.23-85.5a1.43,1.43,0,0,0-.42-2,1.38,1.38,0,0,0-.77-.23Z" style="fill: #f1e297"/>
    </g>
    <g>
      <path d="M392.07,387.14a.94.94,0,0,1-.61-.23.88.88,0,0,1-.31-.64.89.89,0,0,1,.22-.66l67.22-76.45a.9.9,0,0,1,.69-.31.91.91,0,0,1,.61.23.92.92,0,0,1,.08,1.3l-67.21,76.45A1,1,0,0,1,392.07,387.14Z" style="fill: #fff"/>
      <path d="M459.28,309.35a.39.39,0,0,1,.28.1.43.43,0,0,1,0,.6L392.39,386.5a.44.44,0,0,1-.33.14.46.46,0,0,1-.28-.1.44.44,0,0,1,0-.61L459,309.49a.4.4,0,0,1,.32-.14m0-1a1.46,1.46,0,0,0-1.07.48L391,385.28a1.41,1.41,0,0,0,.13,2,1.38,1.38,0,0,0,.93.35,1.41,1.41,0,0,0,1.07-.48l67.22-76.44a1.43,1.43,0,0,0-1.07-2.36Z" style="fill: #f1e297"/>
    </g>
    <g>
      <path d="M392.07,387.14a.93.93,0,0,1-.73-.35.94.94,0,0,1,.15-1.3l79.73-63.28a.92.92,0,0,1,.57-.2.93.93,0,0,1,.73.35.91.91,0,0,1,.19.68.94.94,0,0,1-.34.62l-79.73,63.28A.9.9,0,0,1,392.07,387.14Z" style="fill: #fff"/>
      <path d="M471.79,322.51a.43.43,0,0,1,.34.16.44.44,0,0,1-.07.6l-79.73,63.28a.43.43,0,0,1-.26.09.44.44,0,0,1-.34-.16.49.49,0,0,1-.09-.31.43.43,0,0,1,.16-.29l79.73-63.28a.4.4,0,0,1,.26-.09m0-1a1.44,1.44,0,0,0-.88.3L391.18,385.1a1.42,1.42,0,0,0,1.77,2.23l79.73-63.28a1.42,1.42,0,0,0-.89-2.53Z" style="fill: #f1e297"/>
    </g>
    <g>
      <path d="M392.07,387.14a.93.93,0,0,1-.85-.56.92.92,0,0,1,.48-1.21l93.39-40.5a.89.89,0,0,1,.36-.07.91.91,0,0,1,.85.55.92.92,0,0,1,0,.71.91.91,0,0,1-.49.51l-93.39,40.49A.86.86,0,0,1,392.07,387.14Z" style="fill: #fff"/>
      <path d="M485.45,345.29a.44.44,0,0,1,.4.26.38.38,0,0,1,0,.32.41.41,0,0,1-.22.24l-93.39,40.5a.51.51,0,0,1-.17,0,.43.43,0,0,1-.17-.82l93.39-40.49a.29.29,0,0,1,.16,0m0-1a1.38,1.38,0,0,0-.56.12L391.5,384.91a1.42,1.42,0,0,0,.57,2.72,1.36,1.36,0,0,0,.56-.11L486,347a1.42,1.42,0,0,0-.57-2.72Z" style="fill: #f1e297"/>
    </g>
    <g>
      <path d="M392,386.84a.92.92,0,0,1-.92-.88.91.91,0,0,1,.88-1l101.68-4.75a.93.93,0,0,1,.08,1.85Z" style="fill: #fff"/>
      <path d="M493.67,380.75a.43.43,0,0,1,0,.85L392,386.35a.43.43,0,0,1,0-.86l101.68-4.74h0m0-1h-.07L391.92,384.5a1.42,1.42,0,0,0,.07,2.84h.06l101.68-4.75a1.42,1.42,0,0,0-.06-2.84Z" style="fill: #f1e297"/>
    </g>
    <polygon points="122.16 413.74 109.7 426.58 115.98 506.44 126.13 515.17 128.86 510.14 120.41 502.8 115.26 428.14 127.43 416.08 122.16 413.74" style="fill: #f1e297"/>
    <polygon points="113.36 438.78 122.85 439.7 127.74 437.53 124.93 432.98 121.92 434.52 113.9 434.01 113.36 438.78" style="fill: #f1e297"/>
    <polygon points="113.3 517.18 254.12 445.74 351.09 339.06 455.53 283.44 459.55 290.87 358.44 347.32 259.04 455.8 115.55 525.55 113.3 517.18" style="fill: #f1e297"/>
    <polygon points="236.8 279.28 235.16 333.72 231.09 350.44 232.17 379.06 239.78 426.46 252.57 449.91 246.88 456.08 233.15 429.68 225.06 381.02 222.82 351.67 228.62 331.86 229.82 279.82 236.8 279.28" style="fill: #f1e297"/>
    <polygon points="325.15 304.76 304.97 325.82 296.72 360.26 307.25 392.09 310.68 388.51 301.34 358.88 309.56 328.92 328.45 308.55 325.15 304.76" style="fill: #f1e297"/>
    <polygon points="359.91 344.81 368.65 349.13 377.6 368.13 379.65 382.59 397.54 385.15 395.67 389.65 374.88 387.63 372.12 370.04 363.32 353.7 354.08 348.12 359.91 344.81" style="fill: #f1e297"/>
    <g>
      <path d="M452.89,290.46a1,1,0,0,1-.44-.1.93.93,0,0,1-.37-1.25l48.16-89.68a.92.92,0,0,1,.81-.49,1,1,0,0,1,.44.11.93.93,0,0,1,.44.55.9.9,0,0,1-.07.7L453.7,290A.91.91,0,0,1,452.89,290.46Z" style="fill: #fff"/>
      <path d="M501.05,199.44a.43.43,0,0,1,.41.3.44.44,0,0,1,0,.33l-48.16,89.67a.43.43,0,0,1-.38.23.46.46,0,0,1-.2-.05.43.43,0,0,1-.18-.58l48.16-89.68a.44.44,0,0,1,.38-.22m0-1a1.42,1.42,0,0,0-1.25.74l-48.16,89.68a1.42,1.42,0,0,0,.58,1.92,1.34,1.34,0,0,0,.67.17,1.41,1.41,0,0,0,1.25-.75l48.16-89.67a1.41,1.41,0,0,0-1.25-2.09Z" style="fill: #f1e297"/>
    </g>
    <g>
      <path d="M452.09,290a1,1,0,0,1-.38-.08,1,1,0,0,1-.48-.52.92.92,0,0,1,0-.71l42.28-92.59a.93.93,0,0,1,.85-.54.84.84,0,0,1,.38.08.92.92,0,0,1,.45,1.22l-42.28,92.6A.91.91,0,0,1,452.09,290Z" style="fill: #fff"/>
      <path d="M494.38,196.09h0a.47.47,0,0,1,.17,0,.4.4,0,0,1,.22.24.42.42,0,0,1,0,.33l-42.28,92.59a.43.43,0,0,1-.39.25.33.33,0,0,1-.17,0,.38.38,0,0,1-.22-.24.36.36,0,0,1,0-.32L494,196.34a.45.45,0,0,1,.4-.25m0-1a1.43,1.43,0,0,0-1.3.83l-42.28,92.6a1.43,1.43,0,0,0,.71,1.88,1.47,1.47,0,0,0,.58.12,1.42,1.42,0,0,0,1.3-.83l42.27-92.59a1.42,1.42,0,0,0-.7-1.88,1.36,1.36,0,0,0-.58-.13Z" style="fill: #f1e297"/>
    </g>
    <g>
      <path d="M452.83,290.44l-.2,0a.91.91,0,0,1-.69-1.1l22.82-99.2a.92.92,0,0,1,.9-.72l.2,0a1,1,0,0,1,.58.42.93.93,0,0,1,.12.69l-22.82,99.2A.94.94,0,0,1,452.83,290.44Z" style="fill: #fff"/>
      <path d="M475.66,189.89h.09a.43.43,0,0,1,.32.51l-22.82,99.2a.43.43,0,0,1-.42.33h-.09a.37.37,0,0,1-.26-.19.42.42,0,0,1-.06-.32l22.82-99.2a.43.43,0,0,1,.42-.33m0-1a1.43,1.43,0,0,0-1.39,1.11l-22.82,99.2a1.43,1.43,0,0,0,1.07,1.7,1.63,1.63,0,0,0,.31,0,1.42,1.42,0,0,0,1.39-1.1L477,190.63a1.42,1.42,0,0,0-1.07-1.7,1.65,1.65,0,0,0-.31,0Z" style="fill: #f1e297"/>
    </g>
    <g>
      <path d="M452.89,290.46a1,1,0,0,1-.5-.14.91.91,0,0,1-.4-.59.89.89,0,0,1,.13-.69l55.44-85.37a.92.92,0,0,1,.78-.41,1,1,0,0,1,.5.14,1,1,0,0,1,.4.59.93.93,0,0,1-.13.69L453.67,290A.93.93,0,0,1,452.89,290.46Z" style="fill: #fff"/>
      <path d="M508.34,203.75a.39.39,0,0,1,.23.07.43.43,0,0,1,.12.59l-55.44,85.36a.42.42,0,0,1-.36.2.37.37,0,0,1-.23-.07.43.43,0,0,1-.13-.59L508,203.94a.42.42,0,0,1,.36-.19m0-1a1.45,1.45,0,0,0-1.2.64L451.7,288.77a1.41,1.41,0,0,0,.42,2,1.34,1.34,0,0,0,.77.23,1.43,1.43,0,0,0,1.19-.64L509.53,205a1.43,1.43,0,0,0-.42-2,1.38,1.38,0,0,0-.77-.23Z" style="fill: #f1e297"/>
    </g>
    <g>
      <path d="M452.89,290.46a.87.87,0,0,1-.63-.25.92.92,0,0,1,0-1.3L522,214.76a.92.92,0,0,1,.67-.29,1,1,0,0,1,.64.25.9.9,0,0,1,.28.64.93.93,0,0,1-.24.66l-69.74,74.15A.88.88,0,0,1,452.89,290.46Z" style="fill: #fff"/>
      <path d="M522.62,215a.45.45,0,0,1,.3.12.41.41,0,0,1,.13.3.42.42,0,0,1-.12.3L453.2,289.83a.42.42,0,0,1-.31.14.43.43,0,0,1-.31-.72l69.73-74.15a.42.42,0,0,1,.31-.14m0-1a1.41,1.41,0,0,0-1,.45l-69.73,74.15a1.41,1.41,0,0,0,1,2.39,1.38,1.38,0,0,0,1-.45l69.74-74.15a1.42,1.42,0,0,0-1-2.39Z" style="fill: #f1e297"/>
    </g>
    <g>
      <path d="M452.89,290.46a.94.94,0,0,1-.72-.33,1,1,0,0,1-.2-.68,1,1,0,0,1,.33-.62l78.75-64.5a1,1,0,0,1,.59-.21.92.92,0,0,1,.71.34.93.93,0,0,1,.21.68.94.94,0,0,1-.34.62l-78.75,64.5A.91.91,0,0,1,452.89,290.46Z" style="fill: #fff"/>
      <path d="M531.64,224.62a.42.42,0,0,1,.33.16.38.38,0,0,1,.09.31.39.39,0,0,1-.15.29l-78.75,64.49a.43.43,0,0,1-.27.1.42.42,0,0,1-.33-.16.38.38,0,0,1-.09-.31.39.39,0,0,1,.15-.29l78.75-64.49a.41.41,0,0,1,.27-.1m0-1a1.38,1.38,0,0,0-.9.32L452,288.44a1.42,1.42,0,0,0,.9,2.52,1.38,1.38,0,0,0,.9-.32l78.75-64.5a1.41,1.41,0,0,0-.9-2.51Z" style="fill: #f1e297"/>
    </g>
    <g>
      <path d="M452.72,290.43a.93.93,0,0,1-.8-1l13.29-100.92a.93.93,0,0,1,.91-.8h.13a.91.91,0,0,1,.79,1L453.75,289.63a.93.93,0,0,1-.91.81Z" style="fill: #fff"/>
      <path d="M466.13,188.17h.05a.4.4,0,0,1,.28.17.41.41,0,0,1,.09.31L453.26,289.57a.43.43,0,0,1-.42.37h-.06a.4.4,0,0,1-.28-.17.41.41,0,0,1-.09-.31L465.7,188.54a.44.44,0,0,1,.43-.37m0-1a1.42,1.42,0,0,0-1.41,1.23L451.43,289.33a1.43,1.43,0,0,0,1.22,1.59h.19a1.41,1.41,0,0,0,1.4-1.23l13.29-100.92a1.43,1.43,0,0,0-1.22-1.59Z" style="fill: #f1e297"/>
    </g>
    <g>
      <path d="M452.89,290.46a.92.92,0,0,1-.49-1.7L539,235.17a.89.89,0,0,1,.48-.13.93.93,0,0,1,.79.43.91.91,0,0,1,.11.7.89.89,0,0,1-.41.57l-86.54,53.59A1,1,0,0,1,452.89,290.46Z" style="fill: #fff"/>
      <path d="M539.43,235.53a.45.45,0,0,1,.37.2.47.47,0,0,1,.05.33.45.45,0,0,1-.19.26l-86.55,53.59a.4.4,0,0,1-.22.06.42.42,0,0,1-.36-.2.43.43,0,0,1,.13-.59l86.55-53.58a.36.36,0,0,1,.22-.07m0-1a1.43,1.43,0,0,0-.74.21l-86.55,53.59a1.42,1.42,0,0,0,.75,2.62,1.47,1.47,0,0,0,.75-.21l86.54-53.58a1.42,1.42,0,0,0-.75-2.63Z" style="fill: #f1e297"/>
    </g>
    <g>
      <path d="M452.21,290.1a.92.92,0,0,1-.91-.76L433.14,189.18a.87.87,0,0,1,.15-.68.92.92,0,0,1,.59-.39h.17a.93.93,0,0,1,.91.76L453.12,289a.94.94,0,0,1-.75,1.08Z" style="fill: #fff"/>
      <path d="M434.05,188.59a.44.44,0,0,1,.42.35L452.63,289.1a.44.44,0,0,1-.35.5h-.07a.42.42,0,0,1-.42-.35L433.63,189.1a.4.4,0,0,1,.07-.32.39.39,0,0,1,.27-.18h.08m0-1-.26,0a1.43,1.43,0,0,0-1.14,1.65l18.16,100.16a1.44,1.44,0,0,0,1.4,1.17,1.07,1.07,0,0,0,.25,0,1.42,1.42,0,0,0,1.14-1.65L435.44,188.77a1.41,1.41,0,0,0-1.39-1.17Z" style="fill: #f1e297"/>
    </g>
    <g>
      <path d="M451.59,289.77a.94.94,0,0,1-.9-.7l-24.58-98.78a.94.94,0,0,1,.67-1.12l.22,0a.94.94,0,0,1,.9.7l24.58,98.78a1,1,0,0,1-.1.7.93.93,0,0,1-.57.42A.83.83,0,0,1,451.59,289.77Z" style="fill: #fff"/>
      <path d="M427,189.64a.43.43,0,0,1,.42.32L452,288.74a.41.41,0,0,1-.05.32.41.41,0,0,1-.26.2h-.1a.44.44,0,0,1-.42-.32l-24.58-98.78a.46.46,0,0,1,.05-.32.47.47,0,0,1,.26-.2h.1m0-1a1.37,1.37,0,0,0-.34,0,1.42,1.42,0,0,0-1,1.72l24.58,98.78a1.42,1.42,0,0,0,1.38,1.07,1.37,1.37,0,0,0,.34,0,1.42,1.42,0,0,0,1-1.72l-24.58-98.78a1.42,1.42,0,0,0-1.38-1.07Z" style="fill: #f1e297"/>
    </g>
    <g>
      <path d="M452.21,290.1a.93.93,0,0,1-.92-.83L441.51,188a.94.94,0,0,1,.84-1h0a.94.94,0,0,1,1,.83l9.78,101.32a.93.93,0,0,1-.83,1Z" style="fill: #fff"/>
      <path d="M442.43,187.43a.43.43,0,0,1,.43.39l9.77,101.32a.42.42,0,0,1-.42.46.43.43,0,0,1-.43-.38L442,187.9a.37.37,0,0,1,.1-.31.43.43,0,0,1,.28-.16h0m0-1h-.13A1.44,1.44,0,0,0,441,188l9.78,101.32a1.43,1.43,0,0,0,1.41,1.29h.13a1.42,1.42,0,0,0,1.28-1.55l-9.77-101.32a1.43,1.43,0,0,0-1.42-1.28Z" style="fill: #f1e297"/>
    </g>
    <g>
      <path d="M452.13,290.1a.93.93,0,0,1-.84-1l8.39-101.44a.93.93,0,0,1,.92-.85.94.94,0,0,1,.7.33.91.91,0,0,1,.22.67l-8.39,101.44a.93.93,0,0,1-.92.85Z" style="fill: #fff"/>
      <path d="M460.6,186.31l0,1a.43.43,0,0,1,.39.46l-8.39,101.44a.43.43,0,0,1-.45.39h0a.43.43,0,0,1-.39-.46l8.39-101.44a.43.43,0,0,1,.43-.39v-1m0,0a1.43,1.43,0,0,0-1.42,1.31l-8.39,101.44a1.42,1.42,0,0,0,1.3,1.53h.12a1.42,1.42,0,0,0,1.41-1.31L462,187.85a1.42,1.42,0,0,0-1.3-1.53Z" style="fill: #f1e297"/>
    </g>
    <g>
      <path d="M452.21,290.1a.81.81,0,0,1-.31-.06.92.92,0,0,1-.56-1.17L485.69,193a.93.93,0,0,1,.87-.61.81.81,0,0,1,.31.06.92.92,0,0,1,.56,1.18l-34.35,95.82A.93.93,0,0,1,452.21,290.1Z" style="fill: #fff"/>
      <path d="M486.56,192.93l.14,0a.38.38,0,0,1,.24.23.41.41,0,0,1,0,.32l-34.35,95.82a.42.42,0,0,1-.41.28l-.14,0a.44.44,0,0,1-.24-.22.5.5,0,0,1,0-.33l34.35-95.82a.43.43,0,0,1,.4-.28m0-1a1.43,1.43,0,0,0-1.34.94L450.87,288.7a1.42,1.42,0,0,0,.86,1.81,1.33,1.33,0,0,0,.47.08,1.41,1.41,0,0,0,1.34-.93l34.36-95.82A1.43,1.43,0,0,0,487,192a1.34,1.34,0,0,0-.48-.08Z" style="fill: #f1e297"/>
    </g>
    <g>
      <path d="M451.94,290a.89.89,0,0,1-.6-.22.92.92,0,0,1-.1-1.3L517.33,211a1,1,0,0,1,.71-.32.92.92,0,0,1,.92.85.91.91,0,0,1-.22.67l-66.1,77.41A.89.89,0,0,1,451.94,290Z" style="fill: #fff"/>
      <path d="M518,211.2h0a.37.37,0,0,1,.27.1.39.39,0,0,1,.15.29.41.41,0,0,1-.1.31l-66.1,77.41a.44.44,0,0,1-.32.15.46.46,0,0,1-.28-.1.5.5,0,0,1-.15-.3.52.52,0,0,1,.1-.31l66.1-77.41a.44.44,0,0,1,.33-.14m0-1a1.41,1.41,0,0,0-1.08.5l-66.1,77.41a1.41,1.41,0,0,0,.16,2,1.38,1.38,0,0,0,.92.34A1.41,1.41,0,0,0,453,290l66.1-77.41a1.43,1.43,0,0,0-.16-2,1.4,1.4,0,0,0-.92-.34Z" style="fill: #f1e297"/>
    </g>
  </g>
  <g>
    <g>
      <path d="M182.57,541.39l-5.35-10.09,3.56-23.72a6.79,6.79,0,0,0-1.26-5c-.45-.6-.9-1.2-1.37-1.81s-.8-1-1.2-1.58c-6.51-8.62-14.62-19.34-19.65-29.29l-.56-1.09c-.35-.68-.71-1.39-1.11-2.13-7.61-14.89-20.36-39.81-20.39-54.11a58,58,0,0,1,22.3-45.91,19.75,19.75,0,0,0,5.34-24.39A22.69,22.69,0,0,1,160.37,331c.3-7.73,5.51-16.86,13.95-24.44s18.1-12.11,26.06-12.33c.68,0,1.34,0,1.93,0h0c6.2,0,10.9,1,14.78,3.15.69.4,6.53,3.34,7.26,3.64l19.55,8.08c.51.2,1,.38,1.4.59a21.71,21.71,0,0,0,8.45,2.2,10.86,10.86,0,0,0,1.14,0c1.3-.14,3.37-.22,5.54-.22,4.22,0,7.61.32,9.07.87l.1.06a2.46,2.46,0,0,1,1.73,2,1.35,1.35,0,0,1-.94,1.34l-24,11.45c-4.53,2.66-15.43,9.44-19.7,15.36-1.1,1.49-2.06,2.86-3,4.2A60,60,0,0,1,217,355.4a2.46,2.46,0,0,0-.74,2.22,2.41,2.41,0,0,0,1.46,1.88,58.4,58.4,0,0,1,34,53,57.82,57.82,0,0,1-9.43,31.77c-4.86,7.47-9.54,23.88-11.9,33l-.08.23c-.21.64-.81,2.27-1.51,4.15l-.86,2.32c-2.33,6.19-3.58,9.65-3.82,10.57-1.21,4.46,7.68,32.24,10.39,37.89l-10.11,8.4a48.57,48.57,0,0,1-11.58,2.1l-.28,0a41.61,41.61,0,0,0-8.69,1.47Z" style="fill: #fff"/>
      <path d="M202.33,294.71c6.11,0,10.73,1,14.52,3.07.7.41,6.59,3.37,7.33,3.68l19.57,8.09c.48.18.94.36,1.35.56l0,0h0c2.79,1.17,5.55,2.23,8.61,2.23a10,10,0,0,0,1.2-.05c1.28-.13,3.32-.22,5.48-.22,4.06,0,7.43.32,8.85.83l.1.05,0,0,.05,0a2,2,0,0,1,1.36,1.57.87.87,0,0,1-.63.85h-.05L246.24,326.9l0,0,0,0c-4.52,2.65-15.49,9.48-19.8,15.47-1.11,1.48-2.07,2.87-3,4.21a59.92,59.92,0,0,1-6.66,8.41,3,3,0,0,0,.83,4.91,57.94,57.94,0,0,1,33.69,52.54,57.34,57.34,0,0,1-9.35,31.5c-4.9,7.52-9.6,24-12,33.16l-.07.2c-.21.63-.8,2.24-1.49,4.09l-.87,2.36c-2.33,6.21-3.59,9.68-3.84,10.62-1.24,4.61,7.31,31.4,10.25,37.88l-9.73,8.09a48,48,0,0,1-11.42,2.06l-.25,0a42,42,0,0,0-8.67,1.47l-20.93-3-5.15-9.71,3.53-23.58a7.28,7.28,0,0,0-1.35-5.33c-.45-.61-.91-1.21-1.37-1.82s-.8-1-1.2-1.59c-6.5-8.59-14.6-19.29-19.61-29.21l-.55-1.07c-.35-.69-.72-1.4-1.11-2.14-7.6-14.85-20.31-39.71-20.35-53.89a57.61,57.61,0,0,1,22.12-45.53,20.25,20.25,0,0,0,5.47-25,22.15,22.15,0,0,1-2.45-11c.29-7.59,5.44-16.6,13.78-24.1s17.9-12,25.77-12.2c.65,0,1.32,0,1.91,0m0-1c-.6,0-1.28,0-2,0-8.12.23-18,4.91-26.38,12.46-8.57,7.69-13.81,16.94-14.12,24.79a23.17,23.17,0,0,0,2.57,11.51,19.31,19.31,0,0,1-5.21,23.78,58.52,58.52,0,0,0-22.49,46.3c0,14.34,12.79,39.36,20.46,54.34.6,1.14,1.13,2.19,1.66,3.21,5,9.85,12.79,20.23,19.7,29.36.86,1.17,1.73,2.27,2.56,3.4a6.26,6.26,0,0,1,1.17,4.6l-3.58,23.89,5.54,10.45,21.63,3.1a42,42,0,0,1,8.94-1.51,49.81,49.81,0,0,0,11.81-2.15l10.49-8.72c-2.56-4.9-11.69-33.55-10.52-37.89.3-1.13,2.15-6.11,3.81-10.53,1.05-2.87,2.07-5.58,2.37-6.49,0,0,0-.07.08-.22,1.47-5.7,6.57-24.8,11.85-32.91A58.78,58.78,0,0,0,218,359a2,2,0,0,1-1.17-1.51,2,2,0,0,1,.61-1.77,62.42,62.42,0,0,0,6.79-8.57c.94-1.36,1.89-2.72,3-4.19,4.19-5.81,15-12.57,19.51-15.21l23.93-11.43a1.83,1.83,0,0,0,1.24-1.81,2.93,2.93,0,0,0-2-2.46l-.15-.07c-1.51-.57-4.9-.91-9.24-.91-2,0-4.19.08-5.59.23a9.93,9.93,0,0,1-1.09,0,21.5,21.5,0,0,1-8.23-2.15,15.36,15.36,0,0,0-1.43-.61l-19.55-8.07c-.72-.31-6.57-3.25-7.21-3.63-4-2.19-8.72-3.21-15-3.21Z" style="fill: #f1e297"/>
    </g>
    <path d="M222.48,320.28c-3,0-7.24,3.59-6.45,6.46.64,2.34,3,3,5.21,3a10.55,10.55,0,0,0,2-.18,6.23,6.23,0,0,0,5-5c.53-2.91-2.76-4.27-5.74-4.27Z" style="fill: #fff;stroke: #f1e297;stroke-miterlimit: 10;stroke-width: 0.9921259880065918px"/>
    <path d="M271.5,314.5c-5.28.83-12.22,4.05-20.49,7.71A88.57,88.57,0,0,0,229.69,336" style="fill: none;stroke: #f1e297;stroke-miterlimit: 10;stroke-width: 0.9921259880065918px"/>
    <path d="M233.5,336.5c-1.43.15-3.36.43-3.81-.44-1-1.74,3-7,7.17-10,6.19-4.45,12.12-4.76,15.06-9.32.3-.49,1.28-2,.72-2.87-.76-1.28-3.93-.42-4.31-1.43a6.21,6.21,0,0,1,.17-1.9" style="fill: none;stroke: #f1e297;stroke-miterlimit: 10;stroke-width: 0.9921259880065918px"/>
    <path d="M162.33,365.12c-1.59,4.15-12.31,10-13.44,18.68" style="fill: #fff;stroke: #f1e297;stroke-miterlimit: 10;stroke-width: 0.9921259880065918px"/>
    <path d="M169.05,362.13c-1.51,6-11.21,19.06-11.59,25" style="fill: #fff;stroke: #f1e297;stroke-miterlimit: 10;stroke-width: 0.9921259880065918px"/>
    <path d="M151.5,385.27c-4.12,6.34-5.25,4.49-4.49,24.64" style="fill: #fff;stroke: #f1e297;stroke-miterlimit: 10;stroke-width: 0.9921259880065918px"/>
    <path d="M160,399.12a14.61,14.61,0,0,0,8.6,7.43" style="fill: #fff;stroke: #f1e297;stroke-miterlimit: 10;stroke-width: 0.9921259880065918px"/>
    <path d="M171.31,429.57c1.89.87,3.81,1.7,5.7,2.53" style="fill: #fff;stroke: #f1e297;stroke-miterlimit: 10;stroke-width: 0.9921259880065918px"/>
    <path d="M180.29,373.61v6.83" style="fill: #fff;stroke: #f1e297;stroke-miterlimit: 10;stroke-width: 0.9921259880065918px"/>
    <path d="M214.14,377.91c-.53,3.4,1,7.24-1,10.11-1.24,1.85-3.73,2.87-4.38,5" style="fill: #fff;stroke: #f1e297;stroke-miterlimit: 10;stroke-width: 0.9921259880065918px"/>
    <path d="M224.11,393.68a26,26,0,0,1-1.85,11.74" style="fill: #fff;stroke: #f1e297;stroke-miterlimit: 10;stroke-width: 0.9921259880065918px"/>
    <path d="M232.11,421.57c0,3,0,6,0,8.95a8.35,8.35,0,0,0,.26,2.56,9.42,9.42,0,0,0,2,3,11.7,11.7,0,0,0,4.34,3.44c1-3.89,1.89-7.78,2.87-11.67.38-1.58.64-3.5-.64-4.52" style="fill: #fff;stroke: #f1e297;stroke-miterlimit: 10;stroke-width: 0.9921259880065918px"/>
    <path d="M199.08,425.35A48.64,48.64,0,0,1,190,446.59a1.7,1.7,0,0,0-.49,1.21,1.65,1.65,0,0,0,.72.87c1.92,1.43,4.34,2.9,6.6,2.11a7.07,7.07,0,0,0,2.95-2.45,45.72,45.72,0,0,0,9.92-27.25" style="fill: #fff;stroke: #f1e297;stroke-miterlimit: 10;stroke-width: 0.9921259880065918px"/>
    <path d="M183,447.88c-1.17,2.9-2.26,5.85-3.43,8.79a15.94,15.94,0,0,0-1.32,4.75,8.51,8.51,0,0,0,8.07,8.8c4.08,0,7.55-2.87,10.12-6,7.35-9,10.41-20.68,13.05-32" style="fill: #fff;stroke: #f1e297;stroke-miterlimit: 10;stroke-width: 0.9921259880065918px"/>
    <path d="M204.71,463.2a16.12,16.12,0,0,0,1.13,7.06,3,3,0,0,0,1.55,1.92c1.05.41,2.19-.19,3.09-.83,5.25-3.89,8-10.42,8.61-16.91s-.91-13-2.83-19.21" style="fill: #fff;stroke: #f1e297;stroke-miterlimit: 10;stroke-width: 0.9921259880065918px"/>
    <path d="M179.88,467.05c-.68,4.34,3.85,16.53,7.85,18.3s4.86,3,9.2,2.91,8.57-.23,12.83-.31a6.24,6.24,0,0,0,2.8-.49,6.06,6.06,0,0,0,2-2c3.62-5.21,6.41-11,10.56-15.82,2.31-2.71,5.1-5.09,7.06-8.07,4.23-6.3,4.49-14.38,4.64-22" style="fill: #fff;stroke: #f1e297;stroke-miterlimit: 10;stroke-width: 0.9921259880065918px"/>
    <path d="M207.88,488.33a53.41,53.41,0,0,1-1.17,11.51,3.38,3.38,0,0,1-1.17,2.15,3.48,3.48,0,0,1-1.62.49A22.81,22.81,0,0,1,191.61,501c-2.15-.94-5.09-.87-4.22-5.24.52-2.76-3.4-4.53-5.36-6.49a29.39,29.39,0,0,1-4.27-4.65c-1.81-2.83-6.56-8-7.24-11.28s-13.21-28.42-16-30.23" style="fill: #fff;stroke: #f1e297;stroke-miterlimit: 10;stroke-width: 0.9921259880065918px"/>
    <path d="M141.8,419.27c.3.34,6,16.08,6.34,16.42,3.85-4.61,3.13-23.85,6-29.14,1,3.78.08,21.93,1.85,25.4.34-.26,4.3,1.25,4.64,1l6,5.59a27.42,27.42,0,0,0,.57-6.53l4.56,2.79" style="fill: #fff;stroke: #f1e297;stroke-miterlimit: 10;stroke-width: 0.9921259880065918px"/>
  </g>
</svg>
