<svg id="Layer_1" data-name="Layer 1" xmlns="http://www.w3.org/2000/svg" viewBox="0 0 620 620">
  <path d="M518.64,179.82l-239.2.1a30.14,30.14,0,0,0-27,16.7h-79.9a15.15,15.15,0,0,0-15.1,15.1H56.84a15.09,15.09,0,0,0-15.1,15.1h0a15.09,15.09,0,0,0,15.1,15.1H124a15.09,15.09,0,0,0,15.1,15.1h147.1a30.14,30.14,0,0,0,27-16.7l205.4-.1a30.17,30.17,0,0,0,30.2-30.2h0A30.17,30.17,0,0,0,518.64,179.82Z" style="fill: #fff;stroke: #f1e297;stroke-miterlimit: 10;stroke-width: 0.99210000038147px"/>
  <path d="M283.34,421.22h-17.8a14.92,14.92,0,0,0,.2-2.1h0a9.82,9.82,0,0,0-9.8-9.8h-7.4a8.81,8.81,0,0,0-3.3.6,19.53,19.53,0,0,0-18.5-13h-23.1a9.86,9.86,0,0,0,.3-2.4h0a9.82,9.82,0,0,0-9.8-9.8h-7.4a9.82,9.82,0,0,0-9.8,9.8h0a9.86,9.86,0,0,0,.3,2.4h-9.3a19.53,19.53,0,0,0-11.8,4,8.6,8.6,0,0,0-1.6-.1h-7.4a9.82,9.82,0,0,0-9.8,9.8h0a9.82,9.82,0,0,0,9.8,9.8h1.6a19.54,19.54,0,0,0,19.2,15.7h58.7a19.74,19.74,0,0,0,13.1-5h43.4a4.91,4.91,0,0,0,4.9-4.9A4.83,4.83,0,0,0,283.34,421.22Z" style="fill: #fff;stroke: #f1e297;stroke-miterlimit: 10;stroke-width: 0.99210000038147px"/>
  <path d="M572.64,302H389.94a10,10,0,0,0-8.2-4.4h-7a11.57,11.57,0,0,0-10.6-6.9h-1.9a8.33,8.33,0,0,0,.3-2.2h0a9.82,9.82,0,0,0-9.8-9.8h-7.4a9.82,9.82,0,0,0-9.8,9.8h0a7.8,7.8,0,0,0,.3,2.2h-4.3a11.42,11.42,0,0,0-10.8,7.5h-4.6a6.59,6.59,0,0,0-6.6,6.6v.7a6.59,6.59,0,0,0,6.6,6.6h4a5.86,5.86,0,0,0,3.7-1.2,11.45,11.45,0,0,0,7.7,2.9h32.6a11.53,11.53,0,0,0,2.6-.3,9.74,9.74,0,0,0,7.6,3.6h7.4a9.77,9.77,0,0,0,9.7-8.8h181.2a3.15,3.15,0,1,0,0-6.3Z" style="fill: #fff;stroke: #f1e297;stroke-miterlimit: 10;stroke-width: 0.99210000038147px"/>
</svg>
