<svg id="Layer_1" data-name="Layer 1" xmlns="http://www.w3.org/2000/svg" viewBox="0 0 620 620">
  <path d="M296.2,423H257.5a19.42,19.42,0,0,0,.2-2.4h0a14.43,14.43,0,0,0-14.5-14.4H207.6a26.87,26.87,0,0,0,.9-7h0a29.3,29.3,0,0,0-2.2-11.1h3.9A17.16,17.16,0,0,0,227.3,371h0a17.16,17.16,0,0,0-17.1-17.1H162.1A17.16,17.16,0,0,0,145,370.3H92.9A28.85,28.85,0,0,0,64,399.2h0a28.85,28.85,0,0,0,28.9,28.9h22.4a14.37,14.37,0,0,0,12.4,7h84a9.48,9.48,0,0,0,9.1,6.8h75.5a9.39,9.39,0,0,0,9.4-9.4h0A9.5,9.5,0,0,0,296.2,423Z" style="fill: #f1e297"/>
  <path d="M545.2,505.6H467.7v-.7h0a9.82,9.82,0,0,0-9.8-9.8h-7.4a9.82,9.82,0,0,0-9.8,9.8h0v.7H328.2a19.67,19.67,0,0,0-15.5-7.6h-1.1c0-.4.1-.7.1-1.1h0a9.82,9.82,0,0,0-9.8-9.8h-7.4a9.82,9.82,0,0,0-9.8,9.8h0a3.75,3.75,0,0,0,.1,1.1H253.9a19.4,19.4,0,0,0-17.7,11.3H217.3a11.61,11.61,0,0,0-11.6,11.6h0a11.61,11.61,0,0,0,11.6,11.6h23.9a19.66,19.66,0,0,0,12.7,4.7h15.2a9.88,9.88,0,0,0,8.4,4.8h78.3a9.82,9.82,0,0,0,9.8-9.8h0a4.87,4.87,0,0,0-.1-1.2h3.9a9.82,9.82,0,0,0,9.8-9.8h0a8,8,0,0,0-.4-2.7H545.1a6.44,6.44,0,0,0,6.4-6.4h0A6.26,6.26,0,0,0,545.2,505.6ZM352.4,522.3H331.7a25.68,25.68,0,0,0,.6-4h20.4a8.42,8.42,0,0,0-.4,2.7h0c0,.5.1.9.1,1.3Z" style="fill: #f1e297"/>
</svg>
