<svg id="Layer_1" data-name="Layer 1" xmlns="http://www.w3.org/2000/svg" viewBox="0 0 620 620">
  <ellipse cx="312.6" cy="321.3" rx="189.47" ry="189.5" transform="translate(-106.87 479.41) rotate(-66.44)" style="fill: none;stroke: #f1e297;stroke-miterlimit: 10;stroke-dasharray: 85.03936767578125,5.6692914962768555,141.73228454589844"/>
  <g>
    <line x1="454.01" y1="179.89" x2="171.16" y2="462.74" style="fill: none;stroke: #f1e297;stroke-miterlimit: 10;stroke-width: 0.9921259842519686px;stroke-dasharray: 45.354331970214844,85.03936767578125,141.73228454589844"/>
    <line x1="412.53" y1="148.16" x2="212.57" y2="494.54" style="fill: none;stroke: #f1e297;stroke-miterlimit: 10;stroke-width: 0.9921259842519686px;stroke-dasharray: 85.03936767578125,999.999755859375,141.73228454589844"/>
    <line x1="364.36" y1="128.18" x2="260.8" y2="514.52" style="fill: none;stroke: #f1e297;stroke-miterlimit: 10;stroke-width: 0.9921259842519686px;stroke-dasharray: 85.03936767578125,5.6692914962768555,141.73228454589844"/>
    <line x1="312.58" y1="121.35" x2="312.58" y2="521.35" style="fill: none;stroke: #f1e297;stroke-miterlimit: 10;stroke-width: 0.9921259842519686px;stroke-dasharray: 45.354331970214844,85.03936767578125,141.73228454589844"/>
    <line x1="260.8" y1="128.18" x2="364.36" y2="514.52" style="fill: none;stroke: #f1e297;stroke-miterlimit: 10;stroke-width: 0.9921259842519686px;stroke-dasharray: 85.03936767578125,5.6692914962768555,141.73228454589844"/>
    <line x1="212.57" y1="148.16" x2="412.53" y2="494.54" style="fill: none;stroke: #f1e297;stroke-miterlimit: 10;stroke-width: 0.9921259842519686px;stroke-dasharray: 85.03936767578125,999.999755859375,141.73228454589844"/>
    <line x1="171.16" y1="179.89" x2="454.01" y2="462.74" style="fill: none;stroke: #f1e297;stroke-miterlimit: 10;stroke-width: 0.9921259842519686px;stroke-dasharray: 45.354331970214844,85.03936767578125,141.73228454589844"/>
    <line x1="139.36" y1="221.37" x2="485.74" y2="421.33" style="fill: none;stroke: #f1e297;stroke-miterlimit: 10;stroke-width: 0.9921259842519686px;stroke-dasharray: 85.03936767578125,5.6692914962768555,141.73228454589844"/>
    <line x1="119.38" y1="269.6" x2="505.72" y2="373.1" style="fill: none;stroke: #f1e297;stroke-miterlimit: 10;stroke-width: 0.9921259842519686px;stroke-dasharray: 85.03936767578125,999.999755859375,141.73228454589844"/>
    <line x1="112.55" y1="321.32" x2="512.55" y2="321.32" style="fill: none;stroke: #f1e297;stroke-miterlimit: 10;stroke-width: 0.9921259842519686px;stroke-dasharray: 45.354331970214844,85.03936767578125,141.73228454589844"/>
    <line x1="119.38" y1="373.1" x2="505.72" y2="269.6" style="fill: none;stroke: #f1e297;stroke-miterlimit: 10;stroke-width: 0.9921259842519686px;stroke-dasharray: 85.03936767578125,999.999755859375,141.73228454589844"/>
    <line x1="139.36" y1="421.33" x2="485.74" y2="221.37" style="fill: none;stroke: #f1e297;stroke-miterlimit: 10;stroke-width: 0.9921259842519686px;stroke-dasharray: 85.03936767578125,5.6692914962768555,141.73228454589844"/>
  </g>
  <g>
    <path d="M312.6,381.1a59.8,59.8,0,1,1,59.8-59.8A59.83,59.83,0,0,1,312.6,381.1Z" style="fill: #f1e297"/>
    <path d="M312.6,262.1a59.3,59.3,0,1,1-59.3,59.3,59.36,59.36,0,0,1,59.3-59.3m0-1a60.3,60.3,0,1,0,60.3,60.3,60.3,60.3,0,0,0-60.3-60.3Z" style="fill: #fff"/>
  </g>
  <path d="M294,456.1a136.33,136.33,0,1,1,101-26.4A135.69,135.69,0,0,1,294,456.1Z" style="fill: none;stroke: #f1e297;stroke-miterlimit: 10;stroke-width: 0.9921000003814697px;stroke-dasharray: 428.3880920410156,428.3880920410156"/>
  <circle cx="312.56" cy="321" r="91.1" style="fill: none;stroke: #f1e297;stroke-miterlimit: 9.999903734042684;stroke-width: 0.9920904498358408px;stroke-dasharray: 286.0852355957031,286.0852355957031"/>
  <circle cx="312.6" cy="321" r="111.3" style="fill: none;stroke: #f1e297;stroke-miterlimit: 10;stroke-width: 0.9921000003814697px;stroke-dasharray: 174.76699829101562,174.76699829101562"/>
</svg>
