<svg id="Layer_1" data-name="Layer 1" xmlns="http://www.w3.org/2000/svg" viewBox="0 0 620 620">
  <g id="mushrooms">
    <g>
      <path d="M433.2,495.5c-1.1.6,5.5,17.4,10,15.9a3.82,3.82,0,0,0,2.3-2.5c.2-1.4-1.6-2.1-2.2-2.3C437.4,504,434,495,433.2,495.5Z" style="fill: #fff;stroke: #f1e297;stroke-miterlimit: 10;stroke-width: 0.9921000003814697px"/>
      <path d="M416.9,492.6c-7.6-6.8-1.6-21.3,6.3-21.9,6.9-.5,14.7,9.4,17.6,15.3,1.3,2.7,2.5,5.3.7,7.4-2.9,3.7-12.7,4.5-19.5,2.1A17.5,17.5,0,0,1,416.9,492.6Z" style="fill: #fff;stroke: #f1e297;stroke-miterlimit: 10;stroke-width: 0.9921000003814697px"/>
      <path d="M479.1,421.4c-1.1-.7-26.2,84.1-22.8,87.3a3.6,3.6,0,0,0,3.3.7c1.3-.5,1-2.4,1-3C459.8,497,479.9,421.9,479.1,421.4Z" style="fill: #fff;stroke: #f1e297;stroke-miterlimit: 10;stroke-width: 0.9921000003814697px"/>
      <path d="M444,396.6c-3.4.2-7.6,109.8,4.8,114.2,2.6.9,6.8-2.6,8.4-7.5,2.1-6.9-1.4-15.9-2.4-18.7C443.8,454.5,446.5,396.4,444,396.6Z" style="fill: #fff;stroke: #f1e297;stroke-miterlimit: 10;stroke-width: 0.9921000003814697px"/>
      <path d="M480.1,404.6c10.1-1.2,17,12.9,12.2,19.3-4.2,5.5-16.8,4.8-23.1,3-2.9-.8-5.6-1.6-6.1-4.4-.8-4.7,5.1-12.5,11.4-16A18.59,18.59,0,0,1,480.1,404.6Z" style="fill: #fff;stroke: #f1e297;stroke-miterlimit: 10;stroke-width: 0.9921000003814697px"/>
      <path d="M481.8,383c-10.4,23-53.9,27.4-63.3,12.1-8.1-13.3,10.1-40.3,22.8-52.7,5.8-5.6,11.3-10.9,18.7-9.9,12.5,1.7,24.1,20.5,24.3,36.9A30.89,30.89,0,0,1,481.8,383Z" style="fill: #fff;stroke: #f1e297;stroke-miterlimit: 10;stroke-width: 0.9921000003814697px"/>
    </g>
    <g>
      <path d="M347.9,485c.8-4.7-21.3-14.8-23.9-11.4-1.7,2.2,3.4,12.4,12.5,14.1C341.2,488.6,347.5,487.4,347.9,485Z" style="fill: #fff;stroke: #f1e297;stroke-miterlimit: 10;stroke-width: 0.9921000003814697px"/>
      <path d="M359.9,461.3c-4.7-.8-14.8,21.3-11.4,23.9,2.2,1.7,12.4-3.4,14.1-12.5C363.5,468,362.3,461.7,359.9,461.3Z" style="fill: #fff;stroke: #f1e297;stroke-miterlimit: 10;stroke-width: 0.9921000003814697px"/>
      <path d="M348.5,485.2c6.6,4.5,10.4,11,9.9,15.2-.6,4.7-2.8,12.2-3.4,12.3" style="fill: none;stroke: #f1e297;stroke-miterlimit: 10;stroke-width: 0.9921000003814697px"/>
    </g>
  </g>
  <g id="worm">
    <path d="M354.7,531.4a4.69,4.69,0,0,1,.6-5.7c9.7-10.7,18.2-15,26-13.1,6,1.4,9.1,6.1,11.6,9.8,2.3,3.5,3.8,5.6,6.5,6.2s6.7-.4,9.8-2.5c1.4-1,3.9-3.1,4.3-6.1a8.71,8.71,0,0,0-1.4-5.6,14.3,14.3,0,0,0-2.4-3.1,5.5,5.5,0,0,1-.7-.9,4.86,4.86,0,0,1,.7-5.9,4.77,4.77,0,0,1,6.8,0,24.43,24.43,0,0,1,3.8,4.9,19,19,0,0,1,2.8,12,18.53,18.53,0,0,1-8.3,12.6c-5.2,3.7-11.9,5.2-17.3,4-6.6-1.4-9.9-6.3-12.5-10.3-2.1-3.2-3.6-5.2-5.8-5.8-3.9-.9-9.8,2.7-16.6,10.2a4.77,4.77,0,0,1-6.8.3A2.73,2.73,0,0,1,354.7,531.4Z" style="fill: #fff;stroke: #f1e297;stroke-miterlimit: 10;stroke-width: 0.9921000003814697px"/>
  </g>
  <g>
    <path d="M434.7,105.66l-31.26,0a17.4,17.4,0,0,0,.39-3.63h0a17.2,17.2,0,0,0-17.21-17.19H373.69a17,17,0,0,0-5.82,1,34.4,34.4,0,0,0-32.42-22.83h-40.6a17.46,17.46,0,0,0,.51-4.18h0a17.2,17.2,0,0,0-17.2-17.2H265.22A17.21,17.21,0,0,0,248,58.9h0a17,17,0,0,0,.52,4.18h-16.3a34.26,34.26,0,0,0-20.78,7,17.62,17.62,0,0,0-2.83-.23H195.71a17.21,17.21,0,0,0-17.2,17.21h0a17.2,17.2,0,0,0,17.21,17.19h2.81a34.43,34.43,0,0,0,33.75,27.64l103.2,0a34.25,34.25,0,0,0,23-8.8l76.27,0a8.69,8.69,0,1,0,0-17.37Z" style="fill: #fff;stroke: #f1e297;stroke-miterlimit: 10;stroke-width: 0.992125988006592px"/>
    <path d="M535.11,154.88h-321a17.21,17.21,0,0,0-14.35-7.7H187.56A20.35,20.35,0,0,0,169,135.08h-3.27a17.43,17.43,0,0,0,.45-3.91h0A17.21,17.21,0,0,0,148.93,114H136a17.2,17.2,0,0,0-17.2,17.2h0a16.74,16.74,0,0,0,.46,3.91h-7.55a20.33,20.33,0,0,0-19,13.26c-.32,0-.65,0-1,0h-7a11.56,11.56,0,0,0-11.56,11.56v1.31a11.57,11.57,0,0,0,11.56,11.56h7a11.5,11.5,0,0,0,6.59-2.06,20.26,20.26,0,0,0,13.45,5.08l57.25,0a20.47,20.47,0,0,0,4.52-.51,17.15,17.15,0,0,0,13.35,6.36h12.93a17.2,17.2,0,0,0,17.11-15.43H535.11a5.64,5.64,0,1,0,0-11.27Z" style="fill: #fff;stroke: #f1e297;stroke-miterlimit: 10;stroke-width: 0.992125988006592px"/>
  </g>
</svg>
