<svg id="Layer_1" data-name="Layer 1" xmlns="http://www.w3.org/2000/svg" viewBox="0 0 620 620">
  <path d="M554.72,183.28l-43.06,0a17,17,0,0,0,.22-2.69h0a16.07,16.07,0,0,0-16.07-16.06l-39.59,0a32.35,32.35,0,0,0,.95-7.8h0a32.06,32.06,0,0,0-2.47-12.38H459a19,19,0,0,0,19-19h0a19,19,0,0,0-19-19l-53.46,0a19,19,0,0,0-19,18.22l-57.88,0a32.12,32.12,0,0,0-32.11,32.13h0a32.12,32.12,0,0,0,32.13,32.11h24.87a16,16,0,0,0,13.78,7.8l93.41,0a10.5,10.5,0,0,0,10.09,7.6l83.89,0a10.49,10.49,0,0,0,10.48-10.49h0A10.49,10.49,0,0,0,554.72,183.28Z" style="fill: #fff;stroke: #f1e297;stroke-miterlimit: 10;stroke-width: 0.9921259880065918px"/>
  <path d="M557.06,479.73H470.87c0-.27,0-.54,0-.82h0A10.89,10.89,0,0,0,460,468h-8.18A10.89,10.89,0,0,0,441,478.92h0q0,.42,0,.81H315.9a21.75,21.75,0,0,0-17.2-8.41h-1.19a10.39,10.39,0,0,0,.08-1.26h0a10.89,10.89,0,0,0-10.89-10.88h-8.18a10.88,10.88,0,0,0-10.88,10.88h0a10.41,10.41,0,0,0,.07,1.26H233.4a21.79,21.79,0,0,0-19.73,12.58h-21a12.87,12.87,0,0,0-12.86,12.87h0a12.88,12.88,0,0,0,12.87,12.86h26.56a21.72,21.72,0,0,0,14.16,5.23h16.86a10.84,10.84,0,0,0,9.33,5.28l87.07,0a10.88,10.88,0,0,0,10.88-10.88h0a10.28,10.28,0,0,0-.09-1.37h4.31A10.89,10.89,0,0,0,372.65,497h0a10.82,10.82,0,0,0-.43-3H557.06a7.11,7.11,0,0,0,7.11-7.11h0A7.12,7.12,0,0,0,557.06,479.73ZM342.79,498.36h-23a22.22,22.22,0,0,0,.63-4.42h22.67a10.84,10.84,0,0,0-.43,3h0a10.28,10.28,0,0,0,.09,1.37Z" style="fill: #fff;stroke: #f1e297;stroke-miterlimit: 10;stroke-width: 0.9921259880065918px"/>
  <polygon points="236.7 552.12 236.7 578.34 245.45 569.28 257.79 569.51 236.7 552.12" style="fill: #f1e297"/>
  <g>
    <polygon points="38.5 427.83 57.68 443.65 46.54 443.44 38.5 451.77 38.5 427.83" style="fill: #fff"/>
    <path d="M39,428.88l17.27,14.24-9.49-.18h-.43l-.3.32-7,7.29V428.88m-1-2.1V453l8.75-9.07,12.34.24L38,426.78Z" style="fill: #f1e297"/>
  </g>
  <g>
    <line x1="251.51" y1="267.36" x2="278.19" y2="267.36" style="fill: none;stroke: #f1e297;stroke-miterlimit: 10;stroke-width: 0.9921259880065918px"/>
    <line x1="264.85" y1="254.02" x2="264.85" y2="280.7" style="fill: none;stroke: #f1e297;stroke-miterlimit: 10;stroke-width: 0.9921259880065918px"/>
  </g>
  <path d="M50.44,421.92a1.12,1.12,0,0,1-.8-.29,1,1,0,0,1-.3-.74v-2a1,1,0,0,1,.3-.77,1,1,0,0,1,.74-.3h2.83a2.68,2.68,0,0,0,1.13-.21A1.48,1.48,0,0,0,55,417a1.91,1.91,0,0,0,.23-1,1.55,1.55,0,0,0-.26-.93,1.65,1.65,0,0,0-.73-.59,2.89,2.89,0,0,0-1.11-.2,2.41,2.41,0,0,0-1.11.23,1.63,1.63,0,0,0-.68.62,3.31,3.31,0,0,0-.38.95,1.75,1.75,0,0,1-.22.39.91.91,0,0,1-.34.25,1.28,1.28,0,0,1-.57.11,1.1,1.1,0,0,1-.76-.27,1,1,0,0,1-.3-.75,3.34,3.34,0,0,1,.57-2,3.67,3.67,0,0,1,1.57-1.26,5.94,5.94,0,0,1,2.35-.43,5.19,5.19,0,0,1,2.32.47A3.29,3.29,0,0,1,57.08,414a4,4,0,0,1,.52,2.08,3.82,3.82,0,0,1-.5,2,3.35,3.35,0,0,1-1.54,1.31,6.63,6.63,0,0,1-2.66.47H51.31l.23-.71v1.8a1,1,0,0,1-.31.74A1.11,1.11,0,0,1,50.44,421.92Zm0,3.53a1.38,1.38,0,0,1-1-.36,1.25,1.25,0,0,1-.38-.95,1.23,1.23,0,0,1,.38-.94,1.38,1.38,0,0,1,1-.36,1.34,1.34,0,0,1,1,.36,1.22,1.22,0,0,1,.37.94,1.24,1.24,0,0,1-.37.95A1.34,1.34,0,0,1,50.44,425.45Z" style="fill: #f1e297"/>
  <g>
    <g>
      <path d="M184.6,149.48a16.72,16.72,0,1,1,11.82-4.9A16.61,16.61,0,0,1,184.6,149.48Z" style="fill: #fff"/>
      <path d="M184.6,116.54a16.22,16.22,0,1,1-11.46,4.75,16.13,16.13,0,0,1,11.46-4.75m0-1a17.21,17.21,0,1,0,12.17,5,17.17,17.17,0,0,0-12.17-5Z" style="fill: #f1e297"/>
    </g>
    <g>
      <line x1="173.85" y1="132.76" x2="195.36" y2="132.76" style="fill: none;stroke: #f1e297;stroke-miterlimit: 10;stroke-width: 0.9921259880065918px"/>
      <line x1="184.6" y1="122.01" x2="184.6" y2="143.52" style="fill: none;stroke: #f1e297;stroke-miterlimit: 10;stroke-width: 0.9921259880065918px"/>
    </g>
    <rect x="200.76" y="141.49" width="4.3" height="17.93" transform="translate(-46.96 187.54) rotate(-45)" style="fill: #f1e297"/>
  </g>
  <g>
    <g>
      <path d="M529.28,348a16.71,16.71,0,1,1,11.82-4.89A16.6,16.6,0,0,1,529.28,348Z" style="fill: #fff"/>
      <path d="M529.28,315.07a16.22,16.22,0,1,1-11.46,4.75,16.13,16.13,0,0,1,11.46-4.75m0-1a17.21,17.21,0,1,0,12.17,5,17.17,17.17,0,0,0-12.17-5Z" style="fill: #f1e297"/>
    </g>
    <line x1="518.53" y1="331.29" x2="540.04" y2="331.29" style="fill: none;stroke: #f1e297;stroke-miterlimit: 10;stroke-width: 0.9921259880065918px"/>
    <rect x="545.44" y="340.02" width="4.3" height="17.93" transform="translate(-86.39 489.42) rotate(-45)" style="fill: #f1e297"/>
  </g>
</svg>
