<svg id="Layer_1" data-name="Layer 1" xmlns="http://www.w3.org/2000/svg" viewBox="0 0 620 620">
  <polygon points="143 375.08 143 405.56 153.17 395.02 167.51 395.29 143 375.08" style="fill: #f1e297"/>
  <g>
    <g>
      <polygon points="440.25 87.19 462.85 105.83 449.71 105.58 440.25 115.39 440.25 87.19" style="fill: #fff"/>
      <path d="M440.74,88.24l20.69,17.07-11.49-.22h-.44l-.3.31-8.46,8.77V88.24m-1-2.1v30.48l10.17-10.54,14.34.27L439.75,86.14Z" style="fill: #f1e297"/>
    </g>
    <path d="M455.16,85.49a1.28,1.28,0,0,1-.92-.33,1.16,1.16,0,0,1-.35-.86V81.93a1.21,1.21,0,0,1,.34-.89,1.11,1.11,0,0,1,.86-.35h3.29a3,3,0,0,0,1.31-.25,1.72,1.72,0,0,0,.8-.7,2.25,2.25,0,0,0,.27-1.15,1.83,1.83,0,0,0-.31-1.08,1.87,1.87,0,0,0-.85-.68,3.38,3.38,0,0,0-1.29-.23,2.75,2.75,0,0,0-1.29.26,1.9,1.9,0,0,0-.79.72,4.08,4.08,0,0,0-.44,1.11,2.33,2.33,0,0,1-.25.45,1.15,1.15,0,0,1-.4.29,1.56,1.56,0,0,1-.66.12,1.25,1.25,0,0,1-.88-.31,1.12,1.12,0,0,1-.35-.87,4,4,0,0,1,.65-2.26,4.1,4.1,0,0,1,1.83-1.46,6.85,6.85,0,0,1,2.73-.51,6.19,6.19,0,0,1,2.7.54,3.92,3.92,0,0,1,1.72,1.57,4.72,4.72,0,0,1,.6,2.42A4.36,4.36,0,0,1,462.9,81a3.77,3.77,0,0,1-1.79,1.52A7.53,7.53,0,0,1,458,83h-1.85l.27-.82V84.3a1.13,1.13,0,0,1-.36.86A1.28,1.28,0,0,1,455.16,85.49Zm0,4.11a1.61,1.61,0,0,1-1.17-.42,1.6,1.6,0,0,1,0-2.2,1.65,1.65,0,0,1,1.17-.41,1.62,1.62,0,0,1,1.15.41,1.62,1.62,0,0,1,0,2.2A1.58,1.58,0,0,1,455.17,89.6Z" style="fill: #f1e297"/>
  </g>
  <g>
    <g>
      <path d="M428.09,516.08a19.5,19.5,0,1,1,13.79-5.71A19.38,19.38,0,0,1,428.09,516.08Z" style="fill: #fff"/>
      <path d="M428.09,477.57a19,19,0,1,1-13.44,5.56,18.87,18.87,0,0,1,13.44-5.56m0-1a20,20,0,1,0,14.14,5.85,19.93,19.93,0,0,0-14.14-5.85Z" style="fill: #f1e297"/>
    </g>
    <line x1="415.59" y1="496.58" x2="440.59" y2="496.58" style="fill: none;stroke: #f1e297;stroke-miterlimit: 10;stroke-width: 0.992125988006592px"/>
    <rect x="446.86" y="506.72" width="5" height="20.83" transform="translate(-234.06 469.21) rotate(-45)" style="fill: #f1e297"/>
  </g>
</svg>
