<svg id="Layer_1" data-name="Layer 1" xmlns="http://www.w3.org/2000/svg" viewBox="0 0 620 620">
  <path d="M519.5,175l-239.2.1a30.14,30.14,0,0,0-27,16.7H173.4a15.15,15.15,0,0,0-15.1,15.1H57.7A15.09,15.09,0,0,0,42.6,222h0a15.09,15.09,0,0,0,15.1,15.1h67.2A15.09,15.09,0,0,0,140,252.2H287.1a30.14,30.14,0,0,0,27-16.7l205.4-.1a30.17,30.17,0,0,0,30.2-30.2h0A30.17,30.17,0,0,0,519.5,175Z" style="fill: #fff;stroke: #f1e297;stroke-miterlimit: 10;stroke-width: 0.9921000003814697px"/>
  <path d="M284.2,416.4H266.4a14.92,14.92,0,0,0,.2-2.1h0a9.82,9.82,0,0,0-9.8-9.8h-7.4a8.81,8.81,0,0,0-3.3.6,19.53,19.53,0,0,0-18.5-13H204.5a9.86,9.86,0,0,0,.3-2.4h0a9.82,9.82,0,0,0-9.8-9.8h-7.4a9.82,9.82,0,0,0-9.8,9.8h0a9.86,9.86,0,0,0,.3,2.4h-9.3a19.53,19.53,0,0,0-11.8,4,8.6,8.6,0,0,0-1.6-.1H148a9.82,9.82,0,0,0-9.8,9.8h0a9.82,9.82,0,0,0,9.8,9.8h1.6a19.54,19.54,0,0,0,19.2,15.7h58.7a19.74,19.74,0,0,0,13.1-5H284a4.91,4.91,0,0,0,4.9-4.9A4.83,4.83,0,0,0,284.2,416.4Z" style="fill: #fff;stroke: #f1e297;stroke-miterlimit: 10;stroke-width: 0.9921000003814697px"/>
  <path d="M573.5,297.2H390.8a10,10,0,0,0-8.2-4.4h-7a11.57,11.57,0,0,0-10.6-6.9h-1.9a8.33,8.33,0,0,0,.3-2.2h0a9.82,9.82,0,0,0-9.8-9.8h-7.4a9.82,9.82,0,0,0-9.8,9.8h0a7.8,7.8,0,0,0,.3,2.2h-4.3a11.42,11.42,0,0,0-10.8,7.5H317a6.59,6.59,0,0,0-6.6,6.6v.7a6.59,6.59,0,0,0,6.6,6.6h4a5.86,5.86,0,0,0,3.7-1.2,11.45,11.45,0,0,0,7.7,2.9H365a11.53,11.53,0,0,0,2.6-.3,9.74,9.74,0,0,0,7.6,3.6h7.4a9.77,9.77,0,0,0,9.7-8.8H573.5a3.15,3.15,0,1,0,0-6.3Z" style="fill: #fff;stroke: #f1e297;stroke-miterlimit: 10;stroke-width: 0.9921000003814697px"/>
</svg>
